G04 #@! TF.GenerationSoftware,KiCad,Pcbnew,5.1.5-52549c5~84~ubuntu18.04.1*
G04 #@! TF.CreationDate,2020-02-13T10:06:29-08:00*
G04 #@! TF.ProjectId,EthernetBoard,45746865-726e-4657-9442-6f6172642e6b,A*
G04 #@! TF.SameCoordinates,PX5f5e100PY5f5e100*
G04 #@! TF.FileFunction,Soldermask,Bot*
G04 #@! TF.FilePolarity,Negative*
%FSLAX46Y46*%
G04 Gerber Fmt 4.6, Leading zero omitted, Abs format (unit mm)*
G04 Created by KiCad (PCBNEW 5.1.5-52549c5~84~ubuntu18.04.1) date 2020-02-13 10:06:29*
%MOMM*%
%LPD*%
G04 APERTURE LIST*
%ADD10C,0.100000*%
%ADD11C,2.576600*%
%ADD12C,1.726600*%
%ADD13C,1.751600*%
%ADD14C,1.610600*%
%ADD15C,0.150000*%
%ADD16C,4.601600*%
%ADD17R,0.901600X1.801600*%
%ADD18C,0.901600*%
%ADD19R,0.601600X2.101600*%
%ADD20C,1.301600*%
%ADD21R,0.991600X3.101600*%
G04 APERTURE END LIST*
D10*
X0Y-54000000D02*
X84999492Y-54000000D01*
X84999492Y0D02*
X84999492Y-54000000D01*
X0Y-54000000D02*
X0Y0D01*
X0Y0D02*
X84999492Y0D01*
D11*
X70993500Y-12587500D03*
X70993500Y-28077500D03*
D12*
X74053500Y-14617500D03*
X74053500Y-26047500D03*
D13*
X60333500Y-25797500D03*
X60333500Y-23257500D03*
X60333500Y-17407500D03*
X60333500Y-14867500D03*
D14*
X65163500Y-26047500D03*
X67703500Y-24777500D03*
X65163500Y-23507500D03*
X67703500Y-22237500D03*
X65163500Y-20967500D03*
X67703500Y-19697500D03*
X65163500Y-18427500D03*
X67703500Y-17157500D03*
X65163500Y-15887500D03*
X67703500Y-14617500D03*
D15*
G36*
X30390047Y-31212133D02*
G01*
X30406831Y-31214622D01*
X30423290Y-31218745D01*
X30439266Y-31224461D01*
X30454604Y-31231716D01*
X30469158Y-31240439D01*
X30482787Y-31250546D01*
X30495359Y-31261941D01*
X30506754Y-31274513D01*
X30516861Y-31288142D01*
X30525584Y-31302696D01*
X30532839Y-31318034D01*
X30538555Y-31334010D01*
X30542678Y-31350469D01*
X30545167Y-31367253D01*
X30546000Y-31384200D01*
X30546000Y-31730000D01*
X30545167Y-31746947D01*
X30542678Y-31763731D01*
X30538555Y-31780190D01*
X30532839Y-31796166D01*
X30525584Y-31811504D01*
X30516861Y-31826058D01*
X30506754Y-31839687D01*
X30495359Y-31852259D01*
X30482787Y-31863654D01*
X30469158Y-31873761D01*
X30454604Y-31882484D01*
X30439266Y-31889739D01*
X30423290Y-31895455D01*
X30406831Y-31899578D01*
X30390047Y-31902067D01*
X30373100Y-31902900D01*
X29977300Y-31902900D01*
X29960353Y-31902067D01*
X29943569Y-31899578D01*
X29927110Y-31895455D01*
X29911134Y-31889739D01*
X29895796Y-31882484D01*
X29881242Y-31873761D01*
X29867613Y-31863654D01*
X29855041Y-31852259D01*
X29843646Y-31839687D01*
X29833539Y-31826058D01*
X29824816Y-31811504D01*
X29817561Y-31796166D01*
X29811845Y-31780190D01*
X29807722Y-31763731D01*
X29805233Y-31746947D01*
X29804400Y-31730000D01*
X29804400Y-31384200D01*
X29805233Y-31367253D01*
X29807722Y-31350469D01*
X29811845Y-31334010D01*
X29817561Y-31318034D01*
X29824816Y-31302696D01*
X29833539Y-31288142D01*
X29843646Y-31274513D01*
X29855041Y-31261941D01*
X29867613Y-31250546D01*
X29881242Y-31240439D01*
X29895796Y-31231716D01*
X29911134Y-31224461D01*
X29927110Y-31218745D01*
X29943569Y-31214622D01*
X29960353Y-31212133D01*
X29977300Y-31211300D01*
X30373100Y-31211300D01*
X30390047Y-31212133D01*
G37*
G36*
X30390047Y-32182133D02*
G01*
X30406831Y-32184622D01*
X30423290Y-32188745D01*
X30439266Y-32194461D01*
X30454604Y-32201716D01*
X30469158Y-32210439D01*
X30482787Y-32220546D01*
X30495359Y-32231941D01*
X30506754Y-32244513D01*
X30516861Y-32258142D01*
X30525584Y-32272696D01*
X30532839Y-32288034D01*
X30538555Y-32304010D01*
X30542678Y-32320469D01*
X30545167Y-32337253D01*
X30546000Y-32354200D01*
X30546000Y-32700000D01*
X30545167Y-32716947D01*
X30542678Y-32733731D01*
X30538555Y-32750190D01*
X30532839Y-32766166D01*
X30525584Y-32781504D01*
X30516861Y-32796058D01*
X30506754Y-32809687D01*
X30495359Y-32822259D01*
X30482787Y-32833654D01*
X30469158Y-32843761D01*
X30454604Y-32852484D01*
X30439266Y-32859739D01*
X30423290Y-32865455D01*
X30406831Y-32869578D01*
X30390047Y-32872067D01*
X30373100Y-32872900D01*
X29977300Y-32872900D01*
X29960353Y-32872067D01*
X29943569Y-32869578D01*
X29927110Y-32865455D01*
X29911134Y-32859739D01*
X29895796Y-32852484D01*
X29881242Y-32843761D01*
X29867613Y-32833654D01*
X29855041Y-32822259D01*
X29843646Y-32809687D01*
X29833539Y-32796058D01*
X29824816Y-32781504D01*
X29817561Y-32766166D01*
X29811845Y-32750190D01*
X29807722Y-32733731D01*
X29805233Y-32716947D01*
X29804400Y-32700000D01*
X29804400Y-32354200D01*
X29805233Y-32337253D01*
X29807722Y-32320469D01*
X29811845Y-32304010D01*
X29817561Y-32288034D01*
X29824816Y-32272696D01*
X29833539Y-32258142D01*
X29843646Y-32244513D01*
X29855041Y-32231941D01*
X29867613Y-32220546D01*
X29881242Y-32210439D01*
X29895796Y-32201716D01*
X29911134Y-32194461D01*
X29927110Y-32188745D01*
X29943569Y-32184622D01*
X29960353Y-32182133D01*
X29977300Y-32181300D01*
X30373100Y-32181300D01*
X30390047Y-32182133D01*
G37*
G36*
X31405847Y-31212133D02*
G01*
X31422631Y-31214622D01*
X31439090Y-31218745D01*
X31455066Y-31224461D01*
X31470404Y-31231716D01*
X31484958Y-31240439D01*
X31498587Y-31250546D01*
X31511159Y-31261941D01*
X31522554Y-31274513D01*
X31532661Y-31288142D01*
X31541384Y-31302696D01*
X31548639Y-31318034D01*
X31554355Y-31334010D01*
X31558478Y-31350469D01*
X31560967Y-31367253D01*
X31561800Y-31384200D01*
X31561800Y-31730000D01*
X31560967Y-31746947D01*
X31558478Y-31763731D01*
X31554355Y-31780190D01*
X31548639Y-31796166D01*
X31541384Y-31811504D01*
X31532661Y-31826058D01*
X31522554Y-31839687D01*
X31511159Y-31852259D01*
X31498587Y-31863654D01*
X31484958Y-31873761D01*
X31470404Y-31882484D01*
X31455066Y-31889739D01*
X31439090Y-31895455D01*
X31422631Y-31899578D01*
X31405847Y-31902067D01*
X31388900Y-31902900D01*
X30993100Y-31902900D01*
X30976153Y-31902067D01*
X30959369Y-31899578D01*
X30942910Y-31895455D01*
X30926934Y-31889739D01*
X30911596Y-31882484D01*
X30897042Y-31873761D01*
X30883413Y-31863654D01*
X30870841Y-31852259D01*
X30859446Y-31839687D01*
X30849339Y-31826058D01*
X30840616Y-31811504D01*
X30833361Y-31796166D01*
X30827645Y-31780190D01*
X30823522Y-31763731D01*
X30821033Y-31746947D01*
X30820200Y-31730000D01*
X30820200Y-31384200D01*
X30821033Y-31367253D01*
X30823522Y-31350469D01*
X30827645Y-31334010D01*
X30833361Y-31318034D01*
X30840616Y-31302696D01*
X30849339Y-31288142D01*
X30859446Y-31274513D01*
X30870841Y-31261941D01*
X30883413Y-31250546D01*
X30897042Y-31240439D01*
X30911596Y-31231716D01*
X30926934Y-31224461D01*
X30942910Y-31218745D01*
X30959369Y-31214622D01*
X30976153Y-31212133D01*
X30993100Y-31211300D01*
X31388900Y-31211300D01*
X31405847Y-31212133D01*
G37*
G36*
X31405847Y-32182133D02*
G01*
X31422631Y-32184622D01*
X31439090Y-32188745D01*
X31455066Y-32194461D01*
X31470404Y-32201716D01*
X31484958Y-32210439D01*
X31498587Y-32220546D01*
X31511159Y-32231941D01*
X31522554Y-32244513D01*
X31532661Y-32258142D01*
X31541384Y-32272696D01*
X31548639Y-32288034D01*
X31554355Y-32304010D01*
X31558478Y-32320469D01*
X31560967Y-32337253D01*
X31561800Y-32354200D01*
X31561800Y-32700000D01*
X31560967Y-32716947D01*
X31558478Y-32733731D01*
X31554355Y-32750190D01*
X31548639Y-32766166D01*
X31541384Y-32781504D01*
X31532661Y-32796058D01*
X31522554Y-32809687D01*
X31511159Y-32822259D01*
X31498587Y-32833654D01*
X31484958Y-32843761D01*
X31470404Y-32852484D01*
X31455066Y-32859739D01*
X31439090Y-32865455D01*
X31422631Y-32869578D01*
X31405847Y-32872067D01*
X31388900Y-32872900D01*
X30993100Y-32872900D01*
X30976153Y-32872067D01*
X30959369Y-32869578D01*
X30942910Y-32865455D01*
X30926934Y-32859739D01*
X30911596Y-32852484D01*
X30897042Y-32843761D01*
X30883413Y-32833654D01*
X30870841Y-32822259D01*
X30859446Y-32809687D01*
X30849339Y-32796058D01*
X30840616Y-32781504D01*
X30833361Y-32766166D01*
X30827645Y-32750190D01*
X30823522Y-32733731D01*
X30821033Y-32716947D01*
X30820200Y-32700000D01*
X30820200Y-32354200D01*
X30821033Y-32337253D01*
X30823522Y-32320469D01*
X30827645Y-32304010D01*
X30833361Y-32288034D01*
X30840616Y-32272696D01*
X30849339Y-32258142D01*
X30859446Y-32244513D01*
X30870841Y-32231941D01*
X30883413Y-32220546D01*
X30897042Y-32210439D01*
X30911596Y-32201716D01*
X30926934Y-32194461D01*
X30942910Y-32188745D01*
X30959369Y-32184622D01*
X30976153Y-32182133D01*
X30993100Y-32181300D01*
X31388900Y-32181300D01*
X31405847Y-32182133D01*
G37*
D16*
X81000000Y-35500000D03*
X4000000Y-35500000D03*
X81000000Y-4000000D03*
X4000000Y-4000000D03*
D17*
X34353500Y-25243000D03*
X33083500Y-25243000D03*
X31813500Y-25243000D03*
X31813500Y-27843000D03*
X33083500Y-27843000D03*
X34353500Y-27843000D03*
D15*
G36*
X15736581Y-9127376D02*
G01*
X15760281Y-9130891D01*
X15783523Y-9136713D01*
X15806082Y-9144785D01*
X15827742Y-9155029D01*
X15848292Y-9167347D01*
X15867537Y-9181619D01*
X15885290Y-9197710D01*
X15901381Y-9215463D01*
X15915653Y-9234708D01*
X15927971Y-9255258D01*
X15938215Y-9276918D01*
X15946287Y-9299477D01*
X15952109Y-9322719D01*
X15955624Y-9346419D01*
X15956800Y-9370350D01*
X15956800Y-9933650D01*
X15955624Y-9957581D01*
X15952109Y-9981281D01*
X15946287Y-10004523D01*
X15938215Y-10027082D01*
X15927971Y-10048742D01*
X15915653Y-10069292D01*
X15901381Y-10088537D01*
X15885290Y-10106290D01*
X15867537Y-10122381D01*
X15848292Y-10136653D01*
X15827742Y-10148971D01*
X15806082Y-10159215D01*
X15783523Y-10167287D01*
X15760281Y-10173109D01*
X15736581Y-10176624D01*
X15712650Y-10177800D01*
X15224350Y-10177800D01*
X15200419Y-10176624D01*
X15176719Y-10173109D01*
X15153477Y-10167287D01*
X15130918Y-10159215D01*
X15109258Y-10148971D01*
X15088708Y-10136653D01*
X15069463Y-10122381D01*
X15051710Y-10106290D01*
X15035619Y-10088537D01*
X15021347Y-10069292D01*
X15009029Y-10048742D01*
X14998785Y-10027082D01*
X14990713Y-10004523D01*
X14984891Y-9981281D01*
X14981376Y-9957581D01*
X14980200Y-9933650D01*
X14980200Y-9370350D01*
X14981376Y-9346419D01*
X14984891Y-9322719D01*
X14990713Y-9299477D01*
X14998785Y-9276918D01*
X15009029Y-9255258D01*
X15021347Y-9234708D01*
X15035619Y-9215463D01*
X15051710Y-9197710D01*
X15069463Y-9181619D01*
X15088708Y-9167347D01*
X15109258Y-9155029D01*
X15130918Y-9144785D01*
X15153477Y-9136713D01*
X15176719Y-9130891D01*
X15200419Y-9127376D01*
X15224350Y-9126200D01*
X15712650Y-9126200D01*
X15736581Y-9127376D01*
G37*
G36*
X17311581Y-9127376D02*
G01*
X17335281Y-9130891D01*
X17358523Y-9136713D01*
X17381082Y-9144785D01*
X17402742Y-9155029D01*
X17423292Y-9167347D01*
X17442537Y-9181619D01*
X17460290Y-9197710D01*
X17476381Y-9215463D01*
X17490653Y-9234708D01*
X17502971Y-9255258D01*
X17513215Y-9276918D01*
X17521287Y-9299477D01*
X17527109Y-9322719D01*
X17530624Y-9346419D01*
X17531800Y-9370350D01*
X17531800Y-9933650D01*
X17530624Y-9957581D01*
X17527109Y-9981281D01*
X17521287Y-10004523D01*
X17513215Y-10027082D01*
X17502971Y-10048742D01*
X17490653Y-10069292D01*
X17476381Y-10088537D01*
X17460290Y-10106290D01*
X17442537Y-10122381D01*
X17423292Y-10136653D01*
X17402742Y-10148971D01*
X17381082Y-10159215D01*
X17358523Y-10167287D01*
X17335281Y-10173109D01*
X17311581Y-10176624D01*
X17287650Y-10177800D01*
X16799350Y-10177800D01*
X16775419Y-10176624D01*
X16751719Y-10173109D01*
X16728477Y-10167287D01*
X16705918Y-10159215D01*
X16684258Y-10148971D01*
X16663708Y-10136653D01*
X16644463Y-10122381D01*
X16626710Y-10106290D01*
X16610619Y-10088537D01*
X16596347Y-10069292D01*
X16584029Y-10048742D01*
X16573785Y-10027082D01*
X16565713Y-10004523D01*
X16559891Y-9981281D01*
X16556376Y-9957581D01*
X16555200Y-9933650D01*
X16555200Y-9370350D01*
X16556376Y-9346419D01*
X16559891Y-9322719D01*
X16565713Y-9299477D01*
X16573785Y-9276918D01*
X16584029Y-9255258D01*
X16596347Y-9234708D01*
X16610619Y-9215463D01*
X16626710Y-9197710D01*
X16644463Y-9181619D01*
X16663708Y-9167347D01*
X16684258Y-9155029D01*
X16705918Y-9144785D01*
X16728477Y-9136713D01*
X16751719Y-9130891D01*
X16775419Y-9127376D01*
X16799350Y-9126200D01*
X17287650Y-9126200D01*
X17311581Y-9127376D01*
G37*
G36*
X15736581Y-10651376D02*
G01*
X15760281Y-10654891D01*
X15783523Y-10660713D01*
X15806082Y-10668785D01*
X15827742Y-10679029D01*
X15848292Y-10691347D01*
X15867537Y-10705619D01*
X15885290Y-10721710D01*
X15901381Y-10739463D01*
X15915653Y-10758708D01*
X15927971Y-10779258D01*
X15938215Y-10800918D01*
X15946287Y-10823477D01*
X15952109Y-10846719D01*
X15955624Y-10870419D01*
X15956800Y-10894350D01*
X15956800Y-11457650D01*
X15955624Y-11481581D01*
X15952109Y-11505281D01*
X15946287Y-11528523D01*
X15938215Y-11551082D01*
X15927971Y-11572742D01*
X15915653Y-11593292D01*
X15901381Y-11612537D01*
X15885290Y-11630290D01*
X15867537Y-11646381D01*
X15848292Y-11660653D01*
X15827742Y-11672971D01*
X15806082Y-11683215D01*
X15783523Y-11691287D01*
X15760281Y-11697109D01*
X15736581Y-11700624D01*
X15712650Y-11701800D01*
X15224350Y-11701800D01*
X15200419Y-11700624D01*
X15176719Y-11697109D01*
X15153477Y-11691287D01*
X15130918Y-11683215D01*
X15109258Y-11672971D01*
X15088708Y-11660653D01*
X15069463Y-11646381D01*
X15051710Y-11630290D01*
X15035619Y-11612537D01*
X15021347Y-11593292D01*
X15009029Y-11572742D01*
X14998785Y-11551082D01*
X14990713Y-11528523D01*
X14984891Y-11505281D01*
X14981376Y-11481581D01*
X14980200Y-11457650D01*
X14980200Y-10894350D01*
X14981376Y-10870419D01*
X14984891Y-10846719D01*
X14990713Y-10823477D01*
X14998785Y-10800918D01*
X15009029Y-10779258D01*
X15021347Y-10758708D01*
X15035619Y-10739463D01*
X15051710Y-10721710D01*
X15069463Y-10705619D01*
X15088708Y-10691347D01*
X15109258Y-10679029D01*
X15130918Y-10668785D01*
X15153477Y-10660713D01*
X15176719Y-10654891D01*
X15200419Y-10651376D01*
X15224350Y-10650200D01*
X15712650Y-10650200D01*
X15736581Y-10651376D01*
G37*
G36*
X17311581Y-10651376D02*
G01*
X17335281Y-10654891D01*
X17358523Y-10660713D01*
X17381082Y-10668785D01*
X17402742Y-10679029D01*
X17423292Y-10691347D01*
X17442537Y-10705619D01*
X17460290Y-10721710D01*
X17476381Y-10739463D01*
X17490653Y-10758708D01*
X17502971Y-10779258D01*
X17513215Y-10800918D01*
X17521287Y-10823477D01*
X17527109Y-10846719D01*
X17530624Y-10870419D01*
X17531800Y-10894350D01*
X17531800Y-11457650D01*
X17530624Y-11481581D01*
X17527109Y-11505281D01*
X17521287Y-11528523D01*
X17513215Y-11551082D01*
X17502971Y-11572742D01*
X17490653Y-11593292D01*
X17476381Y-11612537D01*
X17460290Y-11630290D01*
X17442537Y-11646381D01*
X17423292Y-11660653D01*
X17402742Y-11672971D01*
X17381082Y-11683215D01*
X17358523Y-11691287D01*
X17335281Y-11697109D01*
X17311581Y-11700624D01*
X17287650Y-11701800D01*
X16799350Y-11701800D01*
X16775419Y-11700624D01*
X16751719Y-11697109D01*
X16728477Y-11691287D01*
X16705918Y-11683215D01*
X16684258Y-11672971D01*
X16663708Y-11660653D01*
X16644463Y-11646381D01*
X16626710Y-11630290D01*
X16610619Y-11612537D01*
X16596347Y-11593292D01*
X16584029Y-11572742D01*
X16573785Y-11551082D01*
X16565713Y-11528523D01*
X16559891Y-11505281D01*
X16556376Y-11481581D01*
X16555200Y-11457650D01*
X16555200Y-10894350D01*
X16556376Y-10870419D01*
X16559891Y-10846719D01*
X16565713Y-10823477D01*
X16573785Y-10800918D01*
X16584029Y-10779258D01*
X16596347Y-10758708D01*
X16610619Y-10739463D01*
X16626710Y-10721710D01*
X16644463Y-10705619D01*
X16663708Y-10691347D01*
X16684258Y-10679029D01*
X16705918Y-10668785D01*
X16728477Y-10660713D01*
X16751719Y-10654891D01*
X16775419Y-10651376D01*
X16799350Y-10650200D01*
X17287650Y-10650200D01*
X17311581Y-10651376D01*
G37*
G36*
X17311581Y-12175376D02*
G01*
X17335281Y-12178891D01*
X17358523Y-12184713D01*
X17381082Y-12192785D01*
X17402742Y-12203029D01*
X17423292Y-12215347D01*
X17442537Y-12229619D01*
X17460290Y-12245710D01*
X17476381Y-12263463D01*
X17490653Y-12282708D01*
X17502971Y-12303258D01*
X17513215Y-12324918D01*
X17521287Y-12347477D01*
X17527109Y-12370719D01*
X17530624Y-12394419D01*
X17531800Y-12418350D01*
X17531800Y-12981650D01*
X17530624Y-13005581D01*
X17527109Y-13029281D01*
X17521287Y-13052523D01*
X17513215Y-13075082D01*
X17502971Y-13096742D01*
X17490653Y-13117292D01*
X17476381Y-13136537D01*
X17460290Y-13154290D01*
X17442537Y-13170381D01*
X17423292Y-13184653D01*
X17402742Y-13196971D01*
X17381082Y-13207215D01*
X17358523Y-13215287D01*
X17335281Y-13221109D01*
X17311581Y-13224624D01*
X17287650Y-13225800D01*
X16799350Y-13225800D01*
X16775419Y-13224624D01*
X16751719Y-13221109D01*
X16728477Y-13215287D01*
X16705918Y-13207215D01*
X16684258Y-13196971D01*
X16663708Y-13184653D01*
X16644463Y-13170381D01*
X16626710Y-13154290D01*
X16610619Y-13136537D01*
X16596347Y-13117292D01*
X16584029Y-13096742D01*
X16573785Y-13075082D01*
X16565713Y-13052523D01*
X16559891Y-13029281D01*
X16556376Y-13005581D01*
X16555200Y-12981650D01*
X16555200Y-12418350D01*
X16556376Y-12394419D01*
X16559891Y-12370719D01*
X16565713Y-12347477D01*
X16573785Y-12324918D01*
X16584029Y-12303258D01*
X16596347Y-12282708D01*
X16610619Y-12263463D01*
X16626710Y-12245710D01*
X16644463Y-12229619D01*
X16663708Y-12215347D01*
X16684258Y-12203029D01*
X16705918Y-12192785D01*
X16728477Y-12184713D01*
X16751719Y-12178891D01*
X16775419Y-12175376D01*
X16799350Y-12174200D01*
X17287650Y-12174200D01*
X17311581Y-12175376D01*
G37*
G36*
X15736581Y-12175376D02*
G01*
X15760281Y-12178891D01*
X15783523Y-12184713D01*
X15806082Y-12192785D01*
X15827742Y-12203029D01*
X15848292Y-12215347D01*
X15867537Y-12229619D01*
X15885290Y-12245710D01*
X15901381Y-12263463D01*
X15915653Y-12282708D01*
X15927971Y-12303258D01*
X15938215Y-12324918D01*
X15946287Y-12347477D01*
X15952109Y-12370719D01*
X15955624Y-12394419D01*
X15956800Y-12418350D01*
X15956800Y-12981650D01*
X15955624Y-13005581D01*
X15952109Y-13029281D01*
X15946287Y-13052523D01*
X15938215Y-13075082D01*
X15927971Y-13096742D01*
X15915653Y-13117292D01*
X15901381Y-13136537D01*
X15885290Y-13154290D01*
X15867537Y-13170381D01*
X15848292Y-13184653D01*
X15827742Y-13196971D01*
X15806082Y-13207215D01*
X15783523Y-13215287D01*
X15760281Y-13221109D01*
X15736581Y-13224624D01*
X15712650Y-13225800D01*
X15224350Y-13225800D01*
X15200419Y-13224624D01*
X15176719Y-13221109D01*
X15153477Y-13215287D01*
X15130918Y-13207215D01*
X15109258Y-13196971D01*
X15088708Y-13184653D01*
X15069463Y-13170381D01*
X15051710Y-13154290D01*
X15035619Y-13136537D01*
X15021347Y-13117292D01*
X15009029Y-13096742D01*
X14998785Y-13075082D01*
X14990713Y-13052523D01*
X14984891Y-13029281D01*
X14981376Y-13005581D01*
X14980200Y-12981650D01*
X14980200Y-12418350D01*
X14981376Y-12394419D01*
X14984891Y-12370719D01*
X14990713Y-12347477D01*
X14998785Y-12324918D01*
X15009029Y-12303258D01*
X15021347Y-12282708D01*
X15035619Y-12263463D01*
X15051710Y-12245710D01*
X15069463Y-12229619D01*
X15088708Y-12215347D01*
X15109258Y-12203029D01*
X15130918Y-12192785D01*
X15153477Y-12184713D01*
X15176719Y-12178891D01*
X15200419Y-12175376D01*
X15224350Y-12174200D01*
X15712650Y-12174200D01*
X15736581Y-12175376D01*
G37*
G36*
X20359581Y-9127376D02*
G01*
X20383281Y-9130891D01*
X20406523Y-9136713D01*
X20429082Y-9144785D01*
X20450742Y-9155029D01*
X20471292Y-9167347D01*
X20490537Y-9181619D01*
X20508290Y-9197710D01*
X20524381Y-9215463D01*
X20538653Y-9234708D01*
X20550971Y-9255258D01*
X20561215Y-9276918D01*
X20569287Y-9299477D01*
X20575109Y-9322719D01*
X20578624Y-9346419D01*
X20579800Y-9370350D01*
X20579800Y-9933650D01*
X20578624Y-9957581D01*
X20575109Y-9981281D01*
X20569287Y-10004523D01*
X20561215Y-10027082D01*
X20550971Y-10048742D01*
X20538653Y-10069292D01*
X20524381Y-10088537D01*
X20508290Y-10106290D01*
X20490537Y-10122381D01*
X20471292Y-10136653D01*
X20450742Y-10148971D01*
X20429082Y-10159215D01*
X20406523Y-10167287D01*
X20383281Y-10173109D01*
X20359581Y-10176624D01*
X20335650Y-10177800D01*
X19847350Y-10177800D01*
X19823419Y-10176624D01*
X19799719Y-10173109D01*
X19776477Y-10167287D01*
X19753918Y-10159215D01*
X19732258Y-10148971D01*
X19711708Y-10136653D01*
X19692463Y-10122381D01*
X19674710Y-10106290D01*
X19658619Y-10088537D01*
X19644347Y-10069292D01*
X19632029Y-10048742D01*
X19621785Y-10027082D01*
X19613713Y-10004523D01*
X19607891Y-9981281D01*
X19604376Y-9957581D01*
X19603200Y-9933650D01*
X19603200Y-9370350D01*
X19604376Y-9346419D01*
X19607891Y-9322719D01*
X19613713Y-9299477D01*
X19621785Y-9276918D01*
X19632029Y-9255258D01*
X19644347Y-9234708D01*
X19658619Y-9215463D01*
X19674710Y-9197710D01*
X19692463Y-9181619D01*
X19711708Y-9167347D01*
X19732258Y-9155029D01*
X19753918Y-9144785D01*
X19776477Y-9136713D01*
X19799719Y-9130891D01*
X19823419Y-9127376D01*
X19847350Y-9126200D01*
X20335650Y-9126200D01*
X20359581Y-9127376D01*
G37*
G36*
X18784581Y-9127376D02*
G01*
X18808281Y-9130891D01*
X18831523Y-9136713D01*
X18854082Y-9144785D01*
X18875742Y-9155029D01*
X18896292Y-9167347D01*
X18915537Y-9181619D01*
X18933290Y-9197710D01*
X18949381Y-9215463D01*
X18963653Y-9234708D01*
X18975971Y-9255258D01*
X18986215Y-9276918D01*
X18994287Y-9299477D01*
X19000109Y-9322719D01*
X19003624Y-9346419D01*
X19004800Y-9370350D01*
X19004800Y-9933650D01*
X19003624Y-9957581D01*
X19000109Y-9981281D01*
X18994287Y-10004523D01*
X18986215Y-10027082D01*
X18975971Y-10048742D01*
X18963653Y-10069292D01*
X18949381Y-10088537D01*
X18933290Y-10106290D01*
X18915537Y-10122381D01*
X18896292Y-10136653D01*
X18875742Y-10148971D01*
X18854082Y-10159215D01*
X18831523Y-10167287D01*
X18808281Y-10173109D01*
X18784581Y-10176624D01*
X18760650Y-10177800D01*
X18272350Y-10177800D01*
X18248419Y-10176624D01*
X18224719Y-10173109D01*
X18201477Y-10167287D01*
X18178918Y-10159215D01*
X18157258Y-10148971D01*
X18136708Y-10136653D01*
X18117463Y-10122381D01*
X18099710Y-10106290D01*
X18083619Y-10088537D01*
X18069347Y-10069292D01*
X18057029Y-10048742D01*
X18046785Y-10027082D01*
X18038713Y-10004523D01*
X18032891Y-9981281D01*
X18029376Y-9957581D01*
X18028200Y-9933650D01*
X18028200Y-9370350D01*
X18029376Y-9346419D01*
X18032891Y-9322719D01*
X18038713Y-9299477D01*
X18046785Y-9276918D01*
X18057029Y-9255258D01*
X18069347Y-9234708D01*
X18083619Y-9215463D01*
X18099710Y-9197710D01*
X18117463Y-9181619D01*
X18136708Y-9167347D01*
X18157258Y-9155029D01*
X18178918Y-9144785D01*
X18201477Y-9136713D01*
X18224719Y-9130891D01*
X18248419Y-9127376D01*
X18272350Y-9126200D01*
X18760650Y-9126200D01*
X18784581Y-9127376D01*
G37*
G36*
X20359581Y-10651376D02*
G01*
X20383281Y-10654891D01*
X20406523Y-10660713D01*
X20429082Y-10668785D01*
X20450742Y-10679029D01*
X20471292Y-10691347D01*
X20490537Y-10705619D01*
X20508290Y-10721710D01*
X20524381Y-10739463D01*
X20538653Y-10758708D01*
X20550971Y-10779258D01*
X20561215Y-10800918D01*
X20569287Y-10823477D01*
X20575109Y-10846719D01*
X20578624Y-10870419D01*
X20579800Y-10894350D01*
X20579800Y-11457650D01*
X20578624Y-11481581D01*
X20575109Y-11505281D01*
X20569287Y-11528523D01*
X20561215Y-11551082D01*
X20550971Y-11572742D01*
X20538653Y-11593292D01*
X20524381Y-11612537D01*
X20508290Y-11630290D01*
X20490537Y-11646381D01*
X20471292Y-11660653D01*
X20450742Y-11672971D01*
X20429082Y-11683215D01*
X20406523Y-11691287D01*
X20383281Y-11697109D01*
X20359581Y-11700624D01*
X20335650Y-11701800D01*
X19847350Y-11701800D01*
X19823419Y-11700624D01*
X19799719Y-11697109D01*
X19776477Y-11691287D01*
X19753918Y-11683215D01*
X19732258Y-11672971D01*
X19711708Y-11660653D01*
X19692463Y-11646381D01*
X19674710Y-11630290D01*
X19658619Y-11612537D01*
X19644347Y-11593292D01*
X19632029Y-11572742D01*
X19621785Y-11551082D01*
X19613713Y-11528523D01*
X19607891Y-11505281D01*
X19604376Y-11481581D01*
X19603200Y-11457650D01*
X19603200Y-10894350D01*
X19604376Y-10870419D01*
X19607891Y-10846719D01*
X19613713Y-10823477D01*
X19621785Y-10800918D01*
X19632029Y-10779258D01*
X19644347Y-10758708D01*
X19658619Y-10739463D01*
X19674710Y-10721710D01*
X19692463Y-10705619D01*
X19711708Y-10691347D01*
X19732258Y-10679029D01*
X19753918Y-10668785D01*
X19776477Y-10660713D01*
X19799719Y-10654891D01*
X19823419Y-10651376D01*
X19847350Y-10650200D01*
X20335650Y-10650200D01*
X20359581Y-10651376D01*
G37*
G36*
X18784581Y-10651376D02*
G01*
X18808281Y-10654891D01*
X18831523Y-10660713D01*
X18854082Y-10668785D01*
X18875742Y-10679029D01*
X18896292Y-10691347D01*
X18915537Y-10705619D01*
X18933290Y-10721710D01*
X18949381Y-10739463D01*
X18963653Y-10758708D01*
X18975971Y-10779258D01*
X18986215Y-10800918D01*
X18994287Y-10823477D01*
X19000109Y-10846719D01*
X19003624Y-10870419D01*
X19004800Y-10894350D01*
X19004800Y-11457650D01*
X19003624Y-11481581D01*
X19000109Y-11505281D01*
X18994287Y-11528523D01*
X18986215Y-11551082D01*
X18975971Y-11572742D01*
X18963653Y-11593292D01*
X18949381Y-11612537D01*
X18933290Y-11630290D01*
X18915537Y-11646381D01*
X18896292Y-11660653D01*
X18875742Y-11672971D01*
X18854082Y-11683215D01*
X18831523Y-11691287D01*
X18808281Y-11697109D01*
X18784581Y-11700624D01*
X18760650Y-11701800D01*
X18272350Y-11701800D01*
X18248419Y-11700624D01*
X18224719Y-11697109D01*
X18201477Y-11691287D01*
X18178918Y-11683215D01*
X18157258Y-11672971D01*
X18136708Y-11660653D01*
X18117463Y-11646381D01*
X18099710Y-11630290D01*
X18083619Y-11612537D01*
X18069347Y-11593292D01*
X18057029Y-11572742D01*
X18046785Y-11551082D01*
X18038713Y-11528523D01*
X18032891Y-11505281D01*
X18029376Y-11481581D01*
X18028200Y-11457650D01*
X18028200Y-10894350D01*
X18029376Y-10870419D01*
X18032891Y-10846719D01*
X18038713Y-10823477D01*
X18046785Y-10800918D01*
X18057029Y-10779258D01*
X18069347Y-10758708D01*
X18083619Y-10739463D01*
X18099710Y-10721710D01*
X18117463Y-10705619D01*
X18136708Y-10691347D01*
X18157258Y-10679029D01*
X18178918Y-10668785D01*
X18201477Y-10660713D01*
X18224719Y-10654891D01*
X18248419Y-10651376D01*
X18272350Y-10650200D01*
X18760650Y-10650200D01*
X18784581Y-10651376D01*
G37*
G36*
X48807581Y-32495376D02*
G01*
X48831281Y-32498891D01*
X48854523Y-32504713D01*
X48877082Y-32512785D01*
X48898742Y-32523029D01*
X48919292Y-32535347D01*
X48938537Y-32549619D01*
X48956290Y-32565710D01*
X48972381Y-32583463D01*
X48986653Y-32602708D01*
X48998971Y-32623258D01*
X49009215Y-32644918D01*
X49017287Y-32667477D01*
X49023109Y-32690719D01*
X49026624Y-32714419D01*
X49027800Y-32738350D01*
X49027800Y-33301650D01*
X49026624Y-33325581D01*
X49023109Y-33349281D01*
X49017287Y-33372523D01*
X49009215Y-33395082D01*
X48998971Y-33416742D01*
X48986653Y-33437292D01*
X48972381Y-33456537D01*
X48956290Y-33474290D01*
X48938537Y-33490381D01*
X48919292Y-33504653D01*
X48898742Y-33516971D01*
X48877082Y-33527215D01*
X48854523Y-33535287D01*
X48831281Y-33541109D01*
X48807581Y-33544624D01*
X48783650Y-33545800D01*
X48295350Y-33545800D01*
X48271419Y-33544624D01*
X48247719Y-33541109D01*
X48224477Y-33535287D01*
X48201918Y-33527215D01*
X48180258Y-33516971D01*
X48159708Y-33504653D01*
X48140463Y-33490381D01*
X48122710Y-33474290D01*
X48106619Y-33456537D01*
X48092347Y-33437292D01*
X48080029Y-33416742D01*
X48069785Y-33395082D01*
X48061713Y-33372523D01*
X48055891Y-33349281D01*
X48052376Y-33325581D01*
X48051200Y-33301650D01*
X48051200Y-32738350D01*
X48052376Y-32714419D01*
X48055891Y-32690719D01*
X48061713Y-32667477D01*
X48069785Y-32644918D01*
X48080029Y-32623258D01*
X48092347Y-32602708D01*
X48106619Y-32583463D01*
X48122710Y-32565710D01*
X48140463Y-32549619D01*
X48159708Y-32535347D01*
X48180258Y-32523029D01*
X48201918Y-32512785D01*
X48224477Y-32504713D01*
X48247719Y-32498891D01*
X48271419Y-32495376D01*
X48295350Y-32494200D01*
X48783650Y-32494200D01*
X48807581Y-32495376D01*
G37*
G36*
X47232581Y-32495376D02*
G01*
X47256281Y-32498891D01*
X47279523Y-32504713D01*
X47302082Y-32512785D01*
X47323742Y-32523029D01*
X47344292Y-32535347D01*
X47363537Y-32549619D01*
X47381290Y-32565710D01*
X47397381Y-32583463D01*
X47411653Y-32602708D01*
X47423971Y-32623258D01*
X47434215Y-32644918D01*
X47442287Y-32667477D01*
X47448109Y-32690719D01*
X47451624Y-32714419D01*
X47452800Y-32738350D01*
X47452800Y-33301650D01*
X47451624Y-33325581D01*
X47448109Y-33349281D01*
X47442287Y-33372523D01*
X47434215Y-33395082D01*
X47423971Y-33416742D01*
X47411653Y-33437292D01*
X47397381Y-33456537D01*
X47381290Y-33474290D01*
X47363537Y-33490381D01*
X47344292Y-33504653D01*
X47323742Y-33516971D01*
X47302082Y-33527215D01*
X47279523Y-33535287D01*
X47256281Y-33541109D01*
X47232581Y-33544624D01*
X47208650Y-33545800D01*
X46720350Y-33545800D01*
X46696419Y-33544624D01*
X46672719Y-33541109D01*
X46649477Y-33535287D01*
X46626918Y-33527215D01*
X46605258Y-33516971D01*
X46584708Y-33504653D01*
X46565463Y-33490381D01*
X46547710Y-33474290D01*
X46531619Y-33456537D01*
X46517347Y-33437292D01*
X46505029Y-33416742D01*
X46494785Y-33395082D01*
X46486713Y-33372523D01*
X46480891Y-33349281D01*
X46477376Y-33325581D01*
X46476200Y-33301650D01*
X46476200Y-32738350D01*
X46477376Y-32714419D01*
X46480891Y-32690719D01*
X46486713Y-32667477D01*
X46494785Y-32644918D01*
X46505029Y-32623258D01*
X46517347Y-32602708D01*
X46531619Y-32583463D01*
X46547710Y-32565710D01*
X46565463Y-32549619D01*
X46584708Y-32535347D01*
X46605258Y-32523029D01*
X46626918Y-32512785D01*
X46649477Y-32504713D01*
X46672719Y-32498891D01*
X46696419Y-32495376D01*
X46720350Y-32494200D01*
X47208650Y-32494200D01*
X47232581Y-32495376D01*
G37*
G36*
X48807581Y-30971376D02*
G01*
X48831281Y-30974891D01*
X48854523Y-30980713D01*
X48877082Y-30988785D01*
X48898742Y-30999029D01*
X48919292Y-31011347D01*
X48938537Y-31025619D01*
X48956290Y-31041710D01*
X48972381Y-31059463D01*
X48986653Y-31078708D01*
X48998971Y-31099258D01*
X49009215Y-31120918D01*
X49017287Y-31143477D01*
X49023109Y-31166719D01*
X49026624Y-31190419D01*
X49027800Y-31214350D01*
X49027800Y-31777650D01*
X49026624Y-31801581D01*
X49023109Y-31825281D01*
X49017287Y-31848523D01*
X49009215Y-31871082D01*
X48998971Y-31892742D01*
X48986653Y-31913292D01*
X48972381Y-31932537D01*
X48956290Y-31950290D01*
X48938537Y-31966381D01*
X48919292Y-31980653D01*
X48898742Y-31992971D01*
X48877082Y-32003215D01*
X48854523Y-32011287D01*
X48831281Y-32017109D01*
X48807581Y-32020624D01*
X48783650Y-32021800D01*
X48295350Y-32021800D01*
X48271419Y-32020624D01*
X48247719Y-32017109D01*
X48224477Y-32011287D01*
X48201918Y-32003215D01*
X48180258Y-31992971D01*
X48159708Y-31980653D01*
X48140463Y-31966381D01*
X48122710Y-31950290D01*
X48106619Y-31932537D01*
X48092347Y-31913292D01*
X48080029Y-31892742D01*
X48069785Y-31871082D01*
X48061713Y-31848523D01*
X48055891Y-31825281D01*
X48052376Y-31801581D01*
X48051200Y-31777650D01*
X48051200Y-31214350D01*
X48052376Y-31190419D01*
X48055891Y-31166719D01*
X48061713Y-31143477D01*
X48069785Y-31120918D01*
X48080029Y-31099258D01*
X48092347Y-31078708D01*
X48106619Y-31059463D01*
X48122710Y-31041710D01*
X48140463Y-31025619D01*
X48159708Y-31011347D01*
X48180258Y-30999029D01*
X48201918Y-30988785D01*
X48224477Y-30980713D01*
X48247719Y-30974891D01*
X48271419Y-30971376D01*
X48295350Y-30970200D01*
X48783650Y-30970200D01*
X48807581Y-30971376D01*
G37*
G36*
X47232581Y-30971376D02*
G01*
X47256281Y-30974891D01*
X47279523Y-30980713D01*
X47302082Y-30988785D01*
X47323742Y-30999029D01*
X47344292Y-31011347D01*
X47363537Y-31025619D01*
X47381290Y-31041710D01*
X47397381Y-31059463D01*
X47411653Y-31078708D01*
X47423971Y-31099258D01*
X47434215Y-31120918D01*
X47442287Y-31143477D01*
X47448109Y-31166719D01*
X47451624Y-31190419D01*
X47452800Y-31214350D01*
X47452800Y-31777650D01*
X47451624Y-31801581D01*
X47448109Y-31825281D01*
X47442287Y-31848523D01*
X47434215Y-31871082D01*
X47423971Y-31892742D01*
X47411653Y-31913292D01*
X47397381Y-31932537D01*
X47381290Y-31950290D01*
X47363537Y-31966381D01*
X47344292Y-31980653D01*
X47323742Y-31992971D01*
X47302082Y-32003215D01*
X47279523Y-32011287D01*
X47256281Y-32017109D01*
X47232581Y-32020624D01*
X47208650Y-32021800D01*
X46720350Y-32021800D01*
X46696419Y-32020624D01*
X46672719Y-32017109D01*
X46649477Y-32011287D01*
X46626918Y-32003215D01*
X46605258Y-31992971D01*
X46584708Y-31980653D01*
X46565463Y-31966381D01*
X46547710Y-31950290D01*
X46531619Y-31932537D01*
X46517347Y-31913292D01*
X46505029Y-31892742D01*
X46494785Y-31871082D01*
X46486713Y-31848523D01*
X46480891Y-31825281D01*
X46477376Y-31801581D01*
X46476200Y-31777650D01*
X46476200Y-31214350D01*
X46477376Y-31190419D01*
X46480891Y-31166719D01*
X46486713Y-31143477D01*
X46494785Y-31120918D01*
X46505029Y-31099258D01*
X46517347Y-31078708D01*
X46531619Y-31059463D01*
X46547710Y-31041710D01*
X46565463Y-31025619D01*
X46584708Y-31011347D01*
X46605258Y-30999029D01*
X46626918Y-30988785D01*
X46649477Y-30980713D01*
X46672719Y-30974891D01*
X46696419Y-30971376D01*
X46720350Y-30970200D01*
X47208650Y-30970200D01*
X47232581Y-30971376D01*
G37*
G36*
X47232581Y-29447376D02*
G01*
X47256281Y-29450891D01*
X47279523Y-29456713D01*
X47302082Y-29464785D01*
X47323742Y-29475029D01*
X47344292Y-29487347D01*
X47363537Y-29501619D01*
X47381290Y-29517710D01*
X47397381Y-29535463D01*
X47411653Y-29554708D01*
X47423971Y-29575258D01*
X47434215Y-29596918D01*
X47442287Y-29619477D01*
X47448109Y-29642719D01*
X47451624Y-29666419D01*
X47452800Y-29690350D01*
X47452800Y-30253650D01*
X47451624Y-30277581D01*
X47448109Y-30301281D01*
X47442287Y-30324523D01*
X47434215Y-30347082D01*
X47423971Y-30368742D01*
X47411653Y-30389292D01*
X47397381Y-30408537D01*
X47381290Y-30426290D01*
X47363537Y-30442381D01*
X47344292Y-30456653D01*
X47323742Y-30468971D01*
X47302082Y-30479215D01*
X47279523Y-30487287D01*
X47256281Y-30493109D01*
X47232581Y-30496624D01*
X47208650Y-30497800D01*
X46720350Y-30497800D01*
X46696419Y-30496624D01*
X46672719Y-30493109D01*
X46649477Y-30487287D01*
X46626918Y-30479215D01*
X46605258Y-30468971D01*
X46584708Y-30456653D01*
X46565463Y-30442381D01*
X46547710Y-30426290D01*
X46531619Y-30408537D01*
X46517347Y-30389292D01*
X46505029Y-30368742D01*
X46494785Y-30347082D01*
X46486713Y-30324523D01*
X46480891Y-30301281D01*
X46477376Y-30277581D01*
X46476200Y-30253650D01*
X46476200Y-29690350D01*
X46477376Y-29666419D01*
X46480891Y-29642719D01*
X46486713Y-29619477D01*
X46494785Y-29596918D01*
X46505029Y-29575258D01*
X46517347Y-29554708D01*
X46531619Y-29535463D01*
X46547710Y-29517710D01*
X46565463Y-29501619D01*
X46584708Y-29487347D01*
X46605258Y-29475029D01*
X46626918Y-29464785D01*
X46649477Y-29456713D01*
X46672719Y-29450891D01*
X46696419Y-29447376D01*
X46720350Y-29446200D01*
X47208650Y-29446200D01*
X47232581Y-29447376D01*
G37*
G36*
X48807581Y-29447376D02*
G01*
X48831281Y-29450891D01*
X48854523Y-29456713D01*
X48877082Y-29464785D01*
X48898742Y-29475029D01*
X48919292Y-29487347D01*
X48938537Y-29501619D01*
X48956290Y-29517710D01*
X48972381Y-29535463D01*
X48986653Y-29554708D01*
X48998971Y-29575258D01*
X49009215Y-29596918D01*
X49017287Y-29619477D01*
X49023109Y-29642719D01*
X49026624Y-29666419D01*
X49027800Y-29690350D01*
X49027800Y-30253650D01*
X49026624Y-30277581D01*
X49023109Y-30301281D01*
X49017287Y-30324523D01*
X49009215Y-30347082D01*
X48998971Y-30368742D01*
X48986653Y-30389292D01*
X48972381Y-30408537D01*
X48956290Y-30426290D01*
X48938537Y-30442381D01*
X48919292Y-30456653D01*
X48898742Y-30468971D01*
X48877082Y-30479215D01*
X48854523Y-30487287D01*
X48831281Y-30493109D01*
X48807581Y-30496624D01*
X48783650Y-30497800D01*
X48295350Y-30497800D01*
X48271419Y-30496624D01*
X48247719Y-30493109D01*
X48224477Y-30487287D01*
X48201918Y-30479215D01*
X48180258Y-30468971D01*
X48159708Y-30456653D01*
X48140463Y-30442381D01*
X48122710Y-30426290D01*
X48106619Y-30408537D01*
X48092347Y-30389292D01*
X48080029Y-30368742D01*
X48069785Y-30347082D01*
X48061713Y-30324523D01*
X48055891Y-30301281D01*
X48052376Y-30277581D01*
X48051200Y-30253650D01*
X48051200Y-29690350D01*
X48052376Y-29666419D01*
X48055891Y-29642719D01*
X48061713Y-29619477D01*
X48069785Y-29596918D01*
X48080029Y-29575258D01*
X48092347Y-29554708D01*
X48106619Y-29535463D01*
X48122710Y-29517710D01*
X48140463Y-29501619D01*
X48159708Y-29487347D01*
X48180258Y-29475029D01*
X48201918Y-29464785D01*
X48224477Y-29456713D01*
X48247719Y-29450891D01*
X48271419Y-29447376D01*
X48295350Y-29446200D01*
X48783650Y-29446200D01*
X48807581Y-29447376D01*
G37*
G36*
X44159081Y-32495376D02*
G01*
X44182781Y-32498891D01*
X44206023Y-32504713D01*
X44228582Y-32512785D01*
X44250242Y-32523029D01*
X44270792Y-32535347D01*
X44290037Y-32549619D01*
X44307790Y-32565710D01*
X44323881Y-32583463D01*
X44338153Y-32602708D01*
X44350471Y-32623258D01*
X44360715Y-32644918D01*
X44368787Y-32667477D01*
X44374609Y-32690719D01*
X44378124Y-32714419D01*
X44379300Y-32738350D01*
X44379300Y-33301650D01*
X44378124Y-33325581D01*
X44374609Y-33349281D01*
X44368787Y-33372523D01*
X44360715Y-33395082D01*
X44350471Y-33416742D01*
X44338153Y-33437292D01*
X44323881Y-33456537D01*
X44307790Y-33474290D01*
X44290037Y-33490381D01*
X44270792Y-33504653D01*
X44250242Y-33516971D01*
X44228582Y-33527215D01*
X44206023Y-33535287D01*
X44182781Y-33541109D01*
X44159081Y-33544624D01*
X44135150Y-33545800D01*
X43646850Y-33545800D01*
X43622919Y-33544624D01*
X43599219Y-33541109D01*
X43575977Y-33535287D01*
X43553418Y-33527215D01*
X43531758Y-33516971D01*
X43511208Y-33504653D01*
X43491963Y-33490381D01*
X43474210Y-33474290D01*
X43458119Y-33456537D01*
X43443847Y-33437292D01*
X43431529Y-33416742D01*
X43421285Y-33395082D01*
X43413213Y-33372523D01*
X43407391Y-33349281D01*
X43403876Y-33325581D01*
X43402700Y-33301650D01*
X43402700Y-32738350D01*
X43403876Y-32714419D01*
X43407391Y-32690719D01*
X43413213Y-32667477D01*
X43421285Y-32644918D01*
X43431529Y-32623258D01*
X43443847Y-32602708D01*
X43458119Y-32583463D01*
X43474210Y-32565710D01*
X43491963Y-32549619D01*
X43511208Y-32535347D01*
X43531758Y-32523029D01*
X43553418Y-32512785D01*
X43575977Y-32504713D01*
X43599219Y-32498891D01*
X43622919Y-32495376D01*
X43646850Y-32494200D01*
X44135150Y-32494200D01*
X44159081Y-32495376D01*
G37*
G36*
X45734081Y-32495376D02*
G01*
X45757781Y-32498891D01*
X45781023Y-32504713D01*
X45803582Y-32512785D01*
X45825242Y-32523029D01*
X45845792Y-32535347D01*
X45865037Y-32549619D01*
X45882790Y-32565710D01*
X45898881Y-32583463D01*
X45913153Y-32602708D01*
X45925471Y-32623258D01*
X45935715Y-32644918D01*
X45943787Y-32667477D01*
X45949609Y-32690719D01*
X45953124Y-32714419D01*
X45954300Y-32738350D01*
X45954300Y-33301650D01*
X45953124Y-33325581D01*
X45949609Y-33349281D01*
X45943787Y-33372523D01*
X45935715Y-33395082D01*
X45925471Y-33416742D01*
X45913153Y-33437292D01*
X45898881Y-33456537D01*
X45882790Y-33474290D01*
X45865037Y-33490381D01*
X45845792Y-33504653D01*
X45825242Y-33516971D01*
X45803582Y-33527215D01*
X45781023Y-33535287D01*
X45757781Y-33541109D01*
X45734081Y-33544624D01*
X45710150Y-33545800D01*
X45221850Y-33545800D01*
X45197919Y-33544624D01*
X45174219Y-33541109D01*
X45150977Y-33535287D01*
X45128418Y-33527215D01*
X45106758Y-33516971D01*
X45086208Y-33504653D01*
X45066963Y-33490381D01*
X45049210Y-33474290D01*
X45033119Y-33456537D01*
X45018847Y-33437292D01*
X45006529Y-33416742D01*
X44996285Y-33395082D01*
X44988213Y-33372523D01*
X44982391Y-33349281D01*
X44978876Y-33325581D01*
X44977700Y-33301650D01*
X44977700Y-32738350D01*
X44978876Y-32714419D01*
X44982391Y-32690719D01*
X44988213Y-32667477D01*
X44996285Y-32644918D01*
X45006529Y-32623258D01*
X45018847Y-32602708D01*
X45033119Y-32583463D01*
X45049210Y-32565710D01*
X45066963Y-32549619D01*
X45086208Y-32535347D01*
X45106758Y-32523029D01*
X45128418Y-32512785D01*
X45150977Y-32504713D01*
X45174219Y-32498891D01*
X45197919Y-32495376D01*
X45221850Y-32494200D01*
X45710150Y-32494200D01*
X45734081Y-32495376D01*
G37*
G36*
X44184581Y-30971376D02*
G01*
X44208281Y-30974891D01*
X44231523Y-30980713D01*
X44254082Y-30988785D01*
X44275742Y-30999029D01*
X44296292Y-31011347D01*
X44315537Y-31025619D01*
X44333290Y-31041710D01*
X44349381Y-31059463D01*
X44363653Y-31078708D01*
X44375971Y-31099258D01*
X44386215Y-31120918D01*
X44394287Y-31143477D01*
X44400109Y-31166719D01*
X44403624Y-31190419D01*
X44404800Y-31214350D01*
X44404800Y-31777650D01*
X44403624Y-31801581D01*
X44400109Y-31825281D01*
X44394287Y-31848523D01*
X44386215Y-31871082D01*
X44375971Y-31892742D01*
X44363653Y-31913292D01*
X44349381Y-31932537D01*
X44333290Y-31950290D01*
X44315537Y-31966381D01*
X44296292Y-31980653D01*
X44275742Y-31992971D01*
X44254082Y-32003215D01*
X44231523Y-32011287D01*
X44208281Y-32017109D01*
X44184581Y-32020624D01*
X44160650Y-32021800D01*
X43672350Y-32021800D01*
X43648419Y-32020624D01*
X43624719Y-32017109D01*
X43601477Y-32011287D01*
X43578918Y-32003215D01*
X43557258Y-31992971D01*
X43536708Y-31980653D01*
X43517463Y-31966381D01*
X43499710Y-31950290D01*
X43483619Y-31932537D01*
X43469347Y-31913292D01*
X43457029Y-31892742D01*
X43446785Y-31871082D01*
X43438713Y-31848523D01*
X43432891Y-31825281D01*
X43429376Y-31801581D01*
X43428200Y-31777650D01*
X43428200Y-31214350D01*
X43429376Y-31190419D01*
X43432891Y-31166719D01*
X43438713Y-31143477D01*
X43446785Y-31120918D01*
X43457029Y-31099258D01*
X43469347Y-31078708D01*
X43483619Y-31059463D01*
X43499710Y-31041710D01*
X43517463Y-31025619D01*
X43536708Y-31011347D01*
X43557258Y-30999029D01*
X43578918Y-30988785D01*
X43601477Y-30980713D01*
X43624719Y-30974891D01*
X43648419Y-30971376D01*
X43672350Y-30970200D01*
X44160650Y-30970200D01*
X44184581Y-30971376D01*
G37*
G36*
X45759581Y-30971376D02*
G01*
X45783281Y-30974891D01*
X45806523Y-30980713D01*
X45829082Y-30988785D01*
X45850742Y-30999029D01*
X45871292Y-31011347D01*
X45890537Y-31025619D01*
X45908290Y-31041710D01*
X45924381Y-31059463D01*
X45938653Y-31078708D01*
X45950971Y-31099258D01*
X45961215Y-31120918D01*
X45969287Y-31143477D01*
X45975109Y-31166719D01*
X45978624Y-31190419D01*
X45979800Y-31214350D01*
X45979800Y-31777650D01*
X45978624Y-31801581D01*
X45975109Y-31825281D01*
X45969287Y-31848523D01*
X45961215Y-31871082D01*
X45950971Y-31892742D01*
X45938653Y-31913292D01*
X45924381Y-31932537D01*
X45908290Y-31950290D01*
X45890537Y-31966381D01*
X45871292Y-31980653D01*
X45850742Y-31992971D01*
X45829082Y-32003215D01*
X45806523Y-32011287D01*
X45783281Y-32017109D01*
X45759581Y-32020624D01*
X45735650Y-32021800D01*
X45247350Y-32021800D01*
X45223419Y-32020624D01*
X45199719Y-32017109D01*
X45176477Y-32011287D01*
X45153918Y-32003215D01*
X45132258Y-31992971D01*
X45111708Y-31980653D01*
X45092463Y-31966381D01*
X45074710Y-31950290D01*
X45058619Y-31932537D01*
X45044347Y-31913292D01*
X45032029Y-31892742D01*
X45021785Y-31871082D01*
X45013713Y-31848523D01*
X45007891Y-31825281D01*
X45004376Y-31801581D01*
X45003200Y-31777650D01*
X45003200Y-31214350D01*
X45004376Y-31190419D01*
X45007891Y-31166719D01*
X45013713Y-31143477D01*
X45021785Y-31120918D01*
X45032029Y-31099258D01*
X45044347Y-31078708D01*
X45058619Y-31059463D01*
X45074710Y-31041710D01*
X45092463Y-31025619D01*
X45111708Y-31011347D01*
X45132258Y-30999029D01*
X45153918Y-30988785D01*
X45176477Y-30980713D01*
X45199719Y-30974891D01*
X45223419Y-30971376D01*
X45247350Y-30970200D01*
X45735650Y-30970200D01*
X45759581Y-30971376D01*
G37*
G36*
X15482581Y-30272876D02*
G01*
X15506281Y-30276391D01*
X15529523Y-30282213D01*
X15552082Y-30290285D01*
X15573742Y-30300529D01*
X15594292Y-30312847D01*
X15613537Y-30327119D01*
X15631290Y-30343210D01*
X15647381Y-30360963D01*
X15661653Y-30380208D01*
X15673971Y-30400758D01*
X15684215Y-30422418D01*
X15692287Y-30444977D01*
X15698109Y-30468219D01*
X15701624Y-30491919D01*
X15702800Y-30515850D01*
X15702800Y-31079150D01*
X15701624Y-31103081D01*
X15698109Y-31126781D01*
X15692287Y-31150023D01*
X15684215Y-31172582D01*
X15673971Y-31194242D01*
X15661653Y-31214792D01*
X15647381Y-31234037D01*
X15631290Y-31251790D01*
X15613537Y-31267881D01*
X15594292Y-31282153D01*
X15573742Y-31294471D01*
X15552082Y-31304715D01*
X15529523Y-31312787D01*
X15506281Y-31318609D01*
X15482581Y-31322124D01*
X15458650Y-31323300D01*
X14970350Y-31323300D01*
X14946419Y-31322124D01*
X14922719Y-31318609D01*
X14899477Y-31312787D01*
X14876918Y-31304715D01*
X14855258Y-31294471D01*
X14834708Y-31282153D01*
X14815463Y-31267881D01*
X14797710Y-31251790D01*
X14781619Y-31234037D01*
X14767347Y-31214792D01*
X14755029Y-31194242D01*
X14744785Y-31172582D01*
X14736713Y-31150023D01*
X14730891Y-31126781D01*
X14727376Y-31103081D01*
X14726200Y-31079150D01*
X14726200Y-30515850D01*
X14727376Y-30491919D01*
X14730891Y-30468219D01*
X14736713Y-30444977D01*
X14744785Y-30422418D01*
X14755029Y-30400758D01*
X14767347Y-30380208D01*
X14781619Y-30360963D01*
X14797710Y-30343210D01*
X14815463Y-30327119D01*
X14834708Y-30312847D01*
X14855258Y-30300529D01*
X14876918Y-30290285D01*
X14899477Y-30282213D01*
X14922719Y-30276391D01*
X14946419Y-30272876D01*
X14970350Y-30271700D01*
X15458650Y-30271700D01*
X15482581Y-30272876D01*
G37*
G36*
X17057581Y-30272876D02*
G01*
X17081281Y-30276391D01*
X17104523Y-30282213D01*
X17127082Y-30290285D01*
X17148742Y-30300529D01*
X17169292Y-30312847D01*
X17188537Y-30327119D01*
X17206290Y-30343210D01*
X17222381Y-30360963D01*
X17236653Y-30380208D01*
X17248971Y-30400758D01*
X17259215Y-30422418D01*
X17267287Y-30444977D01*
X17273109Y-30468219D01*
X17276624Y-30491919D01*
X17277800Y-30515850D01*
X17277800Y-31079150D01*
X17276624Y-31103081D01*
X17273109Y-31126781D01*
X17267287Y-31150023D01*
X17259215Y-31172582D01*
X17248971Y-31194242D01*
X17236653Y-31214792D01*
X17222381Y-31234037D01*
X17206290Y-31251790D01*
X17188537Y-31267881D01*
X17169292Y-31282153D01*
X17148742Y-31294471D01*
X17127082Y-31304715D01*
X17104523Y-31312787D01*
X17081281Y-31318609D01*
X17057581Y-31322124D01*
X17033650Y-31323300D01*
X16545350Y-31323300D01*
X16521419Y-31322124D01*
X16497719Y-31318609D01*
X16474477Y-31312787D01*
X16451918Y-31304715D01*
X16430258Y-31294471D01*
X16409708Y-31282153D01*
X16390463Y-31267881D01*
X16372710Y-31251790D01*
X16356619Y-31234037D01*
X16342347Y-31214792D01*
X16330029Y-31194242D01*
X16319785Y-31172582D01*
X16311713Y-31150023D01*
X16305891Y-31126781D01*
X16302376Y-31103081D01*
X16301200Y-31079150D01*
X16301200Y-30515850D01*
X16302376Y-30491919D01*
X16305891Y-30468219D01*
X16311713Y-30444977D01*
X16319785Y-30422418D01*
X16330029Y-30400758D01*
X16342347Y-30380208D01*
X16356619Y-30360963D01*
X16372710Y-30343210D01*
X16390463Y-30327119D01*
X16409708Y-30312847D01*
X16430258Y-30300529D01*
X16451918Y-30290285D01*
X16474477Y-30282213D01*
X16497719Y-30276391D01*
X16521419Y-30272876D01*
X16545350Y-30271700D01*
X17033650Y-30271700D01*
X17057581Y-30272876D01*
G37*
G36*
X15482581Y-31796876D02*
G01*
X15506281Y-31800391D01*
X15529523Y-31806213D01*
X15552082Y-31814285D01*
X15573742Y-31824529D01*
X15594292Y-31836847D01*
X15613537Y-31851119D01*
X15631290Y-31867210D01*
X15647381Y-31884963D01*
X15661653Y-31904208D01*
X15673971Y-31924758D01*
X15684215Y-31946418D01*
X15692287Y-31968977D01*
X15698109Y-31992219D01*
X15701624Y-32015919D01*
X15702800Y-32039850D01*
X15702800Y-32603150D01*
X15701624Y-32627081D01*
X15698109Y-32650781D01*
X15692287Y-32674023D01*
X15684215Y-32696582D01*
X15673971Y-32718242D01*
X15661653Y-32738792D01*
X15647381Y-32758037D01*
X15631290Y-32775790D01*
X15613537Y-32791881D01*
X15594292Y-32806153D01*
X15573742Y-32818471D01*
X15552082Y-32828715D01*
X15529523Y-32836787D01*
X15506281Y-32842609D01*
X15482581Y-32846124D01*
X15458650Y-32847300D01*
X14970350Y-32847300D01*
X14946419Y-32846124D01*
X14922719Y-32842609D01*
X14899477Y-32836787D01*
X14876918Y-32828715D01*
X14855258Y-32818471D01*
X14834708Y-32806153D01*
X14815463Y-32791881D01*
X14797710Y-32775790D01*
X14781619Y-32758037D01*
X14767347Y-32738792D01*
X14755029Y-32718242D01*
X14744785Y-32696582D01*
X14736713Y-32674023D01*
X14730891Y-32650781D01*
X14727376Y-32627081D01*
X14726200Y-32603150D01*
X14726200Y-32039850D01*
X14727376Y-32015919D01*
X14730891Y-31992219D01*
X14736713Y-31968977D01*
X14744785Y-31946418D01*
X14755029Y-31924758D01*
X14767347Y-31904208D01*
X14781619Y-31884963D01*
X14797710Y-31867210D01*
X14815463Y-31851119D01*
X14834708Y-31836847D01*
X14855258Y-31824529D01*
X14876918Y-31814285D01*
X14899477Y-31806213D01*
X14922719Y-31800391D01*
X14946419Y-31796876D01*
X14970350Y-31795700D01*
X15458650Y-31795700D01*
X15482581Y-31796876D01*
G37*
G36*
X17057581Y-31796876D02*
G01*
X17081281Y-31800391D01*
X17104523Y-31806213D01*
X17127082Y-31814285D01*
X17148742Y-31824529D01*
X17169292Y-31836847D01*
X17188537Y-31851119D01*
X17206290Y-31867210D01*
X17222381Y-31884963D01*
X17236653Y-31904208D01*
X17248971Y-31924758D01*
X17259215Y-31946418D01*
X17267287Y-31968977D01*
X17273109Y-31992219D01*
X17276624Y-32015919D01*
X17277800Y-32039850D01*
X17277800Y-32603150D01*
X17276624Y-32627081D01*
X17273109Y-32650781D01*
X17267287Y-32674023D01*
X17259215Y-32696582D01*
X17248971Y-32718242D01*
X17236653Y-32738792D01*
X17222381Y-32758037D01*
X17206290Y-32775790D01*
X17188537Y-32791881D01*
X17169292Y-32806153D01*
X17148742Y-32818471D01*
X17127082Y-32828715D01*
X17104523Y-32836787D01*
X17081281Y-32842609D01*
X17057581Y-32846124D01*
X17033650Y-32847300D01*
X16545350Y-32847300D01*
X16521419Y-32846124D01*
X16497719Y-32842609D01*
X16474477Y-32836787D01*
X16451918Y-32828715D01*
X16430258Y-32818471D01*
X16409708Y-32806153D01*
X16390463Y-32791881D01*
X16372710Y-32775790D01*
X16356619Y-32758037D01*
X16342347Y-32738792D01*
X16330029Y-32718242D01*
X16319785Y-32696582D01*
X16311713Y-32674023D01*
X16305891Y-32650781D01*
X16302376Y-32627081D01*
X16301200Y-32603150D01*
X16301200Y-32039850D01*
X16302376Y-32015919D01*
X16305891Y-31992219D01*
X16311713Y-31968977D01*
X16319785Y-31946418D01*
X16330029Y-31924758D01*
X16342347Y-31904208D01*
X16356619Y-31884963D01*
X16372710Y-31867210D01*
X16390463Y-31851119D01*
X16409708Y-31836847D01*
X16430258Y-31824529D01*
X16451918Y-31814285D01*
X16474477Y-31806213D01*
X16497719Y-31800391D01*
X16521419Y-31796876D01*
X16545350Y-31795700D01*
X17033650Y-31795700D01*
X17057581Y-31796876D01*
G37*
G36*
X17057581Y-33320876D02*
G01*
X17081281Y-33324391D01*
X17104523Y-33330213D01*
X17127082Y-33338285D01*
X17148742Y-33348529D01*
X17169292Y-33360847D01*
X17188537Y-33375119D01*
X17206290Y-33391210D01*
X17222381Y-33408963D01*
X17236653Y-33428208D01*
X17248971Y-33448758D01*
X17259215Y-33470418D01*
X17267287Y-33492977D01*
X17273109Y-33516219D01*
X17276624Y-33539919D01*
X17277800Y-33563850D01*
X17277800Y-34127150D01*
X17276624Y-34151081D01*
X17273109Y-34174781D01*
X17267287Y-34198023D01*
X17259215Y-34220582D01*
X17248971Y-34242242D01*
X17236653Y-34262792D01*
X17222381Y-34282037D01*
X17206290Y-34299790D01*
X17188537Y-34315881D01*
X17169292Y-34330153D01*
X17148742Y-34342471D01*
X17127082Y-34352715D01*
X17104523Y-34360787D01*
X17081281Y-34366609D01*
X17057581Y-34370124D01*
X17033650Y-34371300D01*
X16545350Y-34371300D01*
X16521419Y-34370124D01*
X16497719Y-34366609D01*
X16474477Y-34360787D01*
X16451918Y-34352715D01*
X16430258Y-34342471D01*
X16409708Y-34330153D01*
X16390463Y-34315881D01*
X16372710Y-34299790D01*
X16356619Y-34282037D01*
X16342347Y-34262792D01*
X16330029Y-34242242D01*
X16319785Y-34220582D01*
X16311713Y-34198023D01*
X16305891Y-34174781D01*
X16302376Y-34151081D01*
X16301200Y-34127150D01*
X16301200Y-33563850D01*
X16302376Y-33539919D01*
X16305891Y-33516219D01*
X16311713Y-33492977D01*
X16319785Y-33470418D01*
X16330029Y-33448758D01*
X16342347Y-33428208D01*
X16356619Y-33408963D01*
X16372710Y-33391210D01*
X16390463Y-33375119D01*
X16409708Y-33360847D01*
X16430258Y-33348529D01*
X16451918Y-33338285D01*
X16474477Y-33330213D01*
X16497719Y-33324391D01*
X16521419Y-33320876D01*
X16545350Y-33319700D01*
X17033650Y-33319700D01*
X17057581Y-33320876D01*
G37*
G36*
X15482581Y-33320876D02*
G01*
X15506281Y-33324391D01*
X15529523Y-33330213D01*
X15552082Y-33338285D01*
X15573742Y-33348529D01*
X15594292Y-33360847D01*
X15613537Y-33375119D01*
X15631290Y-33391210D01*
X15647381Y-33408963D01*
X15661653Y-33428208D01*
X15673971Y-33448758D01*
X15684215Y-33470418D01*
X15692287Y-33492977D01*
X15698109Y-33516219D01*
X15701624Y-33539919D01*
X15702800Y-33563850D01*
X15702800Y-34127150D01*
X15701624Y-34151081D01*
X15698109Y-34174781D01*
X15692287Y-34198023D01*
X15684215Y-34220582D01*
X15673971Y-34242242D01*
X15661653Y-34262792D01*
X15647381Y-34282037D01*
X15631290Y-34299790D01*
X15613537Y-34315881D01*
X15594292Y-34330153D01*
X15573742Y-34342471D01*
X15552082Y-34352715D01*
X15529523Y-34360787D01*
X15506281Y-34366609D01*
X15482581Y-34370124D01*
X15458650Y-34371300D01*
X14970350Y-34371300D01*
X14946419Y-34370124D01*
X14922719Y-34366609D01*
X14899477Y-34360787D01*
X14876918Y-34352715D01*
X14855258Y-34342471D01*
X14834708Y-34330153D01*
X14815463Y-34315881D01*
X14797710Y-34299790D01*
X14781619Y-34282037D01*
X14767347Y-34262792D01*
X14755029Y-34242242D01*
X14744785Y-34220582D01*
X14736713Y-34198023D01*
X14730891Y-34174781D01*
X14727376Y-34151081D01*
X14726200Y-34127150D01*
X14726200Y-33563850D01*
X14727376Y-33539919D01*
X14730891Y-33516219D01*
X14736713Y-33492977D01*
X14744785Y-33470418D01*
X14755029Y-33448758D01*
X14767347Y-33428208D01*
X14781619Y-33408963D01*
X14797710Y-33391210D01*
X14815463Y-33375119D01*
X14834708Y-33360847D01*
X14855258Y-33348529D01*
X14876918Y-33338285D01*
X14899477Y-33330213D01*
X14922719Y-33324391D01*
X14946419Y-33320876D01*
X14970350Y-33319700D01*
X15458650Y-33319700D01*
X15482581Y-33320876D01*
G37*
G36*
X20105581Y-30272876D02*
G01*
X20129281Y-30276391D01*
X20152523Y-30282213D01*
X20175082Y-30290285D01*
X20196742Y-30300529D01*
X20217292Y-30312847D01*
X20236537Y-30327119D01*
X20254290Y-30343210D01*
X20270381Y-30360963D01*
X20284653Y-30380208D01*
X20296971Y-30400758D01*
X20307215Y-30422418D01*
X20315287Y-30444977D01*
X20321109Y-30468219D01*
X20324624Y-30491919D01*
X20325800Y-30515850D01*
X20325800Y-31079150D01*
X20324624Y-31103081D01*
X20321109Y-31126781D01*
X20315287Y-31150023D01*
X20307215Y-31172582D01*
X20296971Y-31194242D01*
X20284653Y-31214792D01*
X20270381Y-31234037D01*
X20254290Y-31251790D01*
X20236537Y-31267881D01*
X20217292Y-31282153D01*
X20196742Y-31294471D01*
X20175082Y-31304715D01*
X20152523Y-31312787D01*
X20129281Y-31318609D01*
X20105581Y-31322124D01*
X20081650Y-31323300D01*
X19593350Y-31323300D01*
X19569419Y-31322124D01*
X19545719Y-31318609D01*
X19522477Y-31312787D01*
X19499918Y-31304715D01*
X19478258Y-31294471D01*
X19457708Y-31282153D01*
X19438463Y-31267881D01*
X19420710Y-31251790D01*
X19404619Y-31234037D01*
X19390347Y-31214792D01*
X19378029Y-31194242D01*
X19367785Y-31172582D01*
X19359713Y-31150023D01*
X19353891Y-31126781D01*
X19350376Y-31103081D01*
X19349200Y-31079150D01*
X19349200Y-30515850D01*
X19350376Y-30491919D01*
X19353891Y-30468219D01*
X19359713Y-30444977D01*
X19367785Y-30422418D01*
X19378029Y-30400758D01*
X19390347Y-30380208D01*
X19404619Y-30360963D01*
X19420710Y-30343210D01*
X19438463Y-30327119D01*
X19457708Y-30312847D01*
X19478258Y-30300529D01*
X19499918Y-30290285D01*
X19522477Y-30282213D01*
X19545719Y-30276391D01*
X19569419Y-30272876D01*
X19593350Y-30271700D01*
X20081650Y-30271700D01*
X20105581Y-30272876D01*
G37*
G36*
X18530581Y-30272876D02*
G01*
X18554281Y-30276391D01*
X18577523Y-30282213D01*
X18600082Y-30290285D01*
X18621742Y-30300529D01*
X18642292Y-30312847D01*
X18661537Y-30327119D01*
X18679290Y-30343210D01*
X18695381Y-30360963D01*
X18709653Y-30380208D01*
X18721971Y-30400758D01*
X18732215Y-30422418D01*
X18740287Y-30444977D01*
X18746109Y-30468219D01*
X18749624Y-30491919D01*
X18750800Y-30515850D01*
X18750800Y-31079150D01*
X18749624Y-31103081D01*
X18746109Y-31126781D01*
X18740287Y-31150023D01*
X18732215Y-31172582D01*
X18721971Y-31194242D01*
X18709653Y-31214792D01*
X18695381Y-31234037D01*
X18679290Y-31251790D01*
X18661537Y-31267881D01*
X18642292Y-31282153D01*
X18621742Y-31294471D01*
X18600082Y-31304715D01*
X18577523Y-31312787D01*
X18554281Y-31318609D01*
X18530581Y-31322124D01*
X18506650Y-31323300D01*
X18018350Y-31323300D01*
X17994419Y-31322124D01*
X17970719Y-31318609D01*
X17947477Y-31312787D01*
X17924918Y-31304715D01*
X17903258Y-31294471D01*
X17882708Y-31282153D01*
X17863463Y-31267881D01*
X17845710Y-31251790D01*
X17829619Y-31234037D01*
X17815347Y-31214792D01*
X17803029Y-31194242D01*
X17792785Y-31172582D01*
X17784713Y-31150023D01*
X17778891Y-31126781D01*
X17775376Y-31103081D01*
X17774200Y-31079150D01*
X17774200Y-30515850D01*
X17775376Y-30491919D01*
X17778891Y-30468219D01*
X17784713Y-30444977D01*
X17792785Y-30422418D01*
X17803029Y-30400758D01*
X17815347Y-30380208D01*
X17829619Y-30360963D01*
X17845710Y-30343210D01*
X17863463Y-30327119D01*
X17882708Y-30312847D01*
X17903258Y-30300529D01*
X17924918Y-30290285D01*
X17947477Y-30282213D01*
X17970719Y-30276391D01*
X17994419Y-30272876D01*
X18018350Y-30271700D01*
X18506650Y-30271700D01*
X18530581Y-30272876D01*
G37*
G36*
X20105581Y-31796876D02*
G01*
X20129281Y-31800391D01*
X20152523Y-31806213D01*
X20175082Y-31814285D01*
X20196742Y-31824529D01*
X20217292Y-31836847D01*
X20236537Y-31851119D01*
X20254290Y-31867210D01*
X20270381Y-31884963D01*
X20284653Y-31904208D01*
X20296971Y-31924758D01*
X20307215Y-31946418D01*
X20315287Y-31968977D01*
X20321109Y-31992219D01*
X20324624Y-32015919D01*
X20325800Y-32039850D01*
X20325800Y-32603150D01*
X20324624Y-32627081D01*
X20321109Y-32650781D01*
X20315287Y-32674023D01*
X20307215Y-32696582D01*
X20296971Y-32718242D01*
X20284653Y-32738792D01*
X20270381Y-32758037D01*
X20254290Y-32775790D01*
X20236537Y-32791881D01*
X20217292Y-32806153D01*
X20196742Y-32818471D01*
X20175082Y-32828715D01*
X20152523Y-32836787D01*
X20129281Y-32842609D01*
X20105581Y-32846124D01*
X20081650Y-32847300D01*
X19593350Y-32847300D01*
X19569419Y-32846124D01*
X19545719Y-32842609D01*
X19522477Y-32836787D01*
X19499918Y-32828715D01*
X19478258Y-32818471D01*
X19457708Y-32806153D01*
X19438463Y-32791881D01*
X19420710Y-32775790D01*
X19404619Y-32758037D01*
X19390347Y-32738792D01*
X19378029Y-32718242D01*
X19367785Y-32696582D01*
X19359713Y-32674023D01*
X19353891Y-32650781D01*
X19350376Y-32627081D01*
X19349200Y-32603150D01*
X19349200Y-32039850D01*
X19350376Y-32015919D01*
X19353891Y-31992219D01*
X19359713Y-31968977D01*
X19367785Y-31946418D01*
X19378029Y-31924758D01*
X19390347Y-31904208D01*
X19404619Y-31884963D01*
X19420710Y-31867210D01*
X19438463Y-31851119D01*
X19457708Y-31836847D01*
X19478258Y-31824529D01*
X19499918Y-31814285D01*
X19522477Y-31806213D01*
X19545719Y-31800391D01*
X19569419Y-31796876D01*
X19593350Y-31795700D01*
X20081650Y-31795700D01*
X20105581Y-31796876D01*
G37*
G36*
X18530581Y-31796876D02*
G01*
X18554281Y-31800391D01*
X18577523Y-31806213D01*
X18600082Y-31814285D01*
X18621742Y-31824529D01*
X18642292Y-31836847D01*
X18661537Y-31851119D01*
X18679290Y-31867210D01*
X18695381Y-31884963D01*
X18709653Y-31904208D01*
X18721971Y-31924758D01*
X18732215Y-31946418D01*
X18740287Y-31968977D01*
X18746109Y-31992219D01*
X18749624Y-32015919D01*
X18750800Y-32039850D01*
X18750800Y-32603150D01*
X18749624Y-32627081D01*
X18746109Y-32650781D01*
X18740287Y-32674023D01*
X18732215Y-32696582D01*
X18721971Y-32718242D01*
X18709653Y-32738792D01*
X18695381Y-32758037D01*
X18679290Y-32775790D01*
X18661537Y-32791881D01*
X18642292Y-32806153D01*
X18621742Y-32818471D01*
X18600082Y-32828715D01*
X18577523Y-32836787D01*
X18554281Y-32842609D01*
X18530581Y-32846124D01*
X18506650Y-32847300D01*
X18018350Y-32847300D01*
X17994419Y-32846124D01*
X17970719Y-32842609D01*
X17947477Y-32836787D01*
X17924918Y-32828715D01*
X17903258Y-32818471D01*
X17882708Y-32806153D01*
X17863463Y-32791881D01*
X17845710Y-32775790D01*
X17829619Y-32758037D01*
X17815347Y-32738792D01*
X17803029Y-32718242D01*
X17792785Y-32696582D01*
X17784713Y-32674023D01*
X17778891Y-32650781D01*
X17775376Y-32627081D01*
X17774200Y-32603150D01*
X17774200Y-32039850D01*
X17775376Y-32015919D01*
X17778891Y-31992219D01*
X17784713Y-31968977D01*
X17792785Y-31946418D01*
X17803029Y-31924758D01*
X17815347Y-31904208D01*
X17829619Y-31884963D01*
X17845710Y-31867210D01*
X17863463Y-31851119D01*
X17882708Y-31836847D01*
X17903258Y-31824529D01*
X17924918Y-31814285D01*
X17947477Y-31806213D01*
X17970719Y-31800391D01*
X17994419Y-31796876D01*
X18018350Y-31795700D01*
X18506650Y-31795700D01*
X18530581Y-31796876D01*
G37*
G36*
X45124581Y-17763376D02*
G01*
X45148281Y-17766891D01*
X45171523Y-17772713D01*
X45194082Y-17780785D01*
X45215742Y-17791029D01*
X45236292Y-17803347D01*
X45255537Y-17817619D01*
X45273290Y-17833710D01*
X45289381Y-17851463D01*
X45303653Y-17870708D01*
X45315971Y-17891258D01*
X45326215Y-17912918D01*
X45334287Y-17935477D01*
X45340109Y-17958719D01*
X45343624Y-17982419D01*
X45344800Y-18006350D01*
X45344800Y-18569650D01*
X45343624Y-18593581D01*
X45340109Y-18617281D01*
X45334287Y-18640523D01*
X45326215Y-18663082D01*
X45315971Y-18684742D01*
X45303653Y-18705292D01*
X45289381Y-18724537D01*
X45273290Y-18742290D01*
X45255537Y-18758381D01*
X45236292Y-18772653D01*
X45215742Y-18784971D01*
X45194082Y-18795215D01*
X45171523Y-18803287D01*
X45148281Y-18809109D01*
X45124581Y-18812624D01*
X45100650Y-18813800D01*
X44612350Y-18813800D01*
X44588419Y-18812624D01*
X44564719Y-18809109D01*
X44541477Y-18803287D01*
X44518918Y-18795215D01*
X44497258Y-18784971D01*
X44476708Y-18772653D01*
X44457463Y-18758381D01*
X44439710Y-18742290D01*
X44423619Y-18724537D01*
X44409347Y-18705292D01*
X44397029Y-18684742D01*
X44386785Y-18663082D01*
X44378713Y-18640523D01*
X44372891Y-18617281D01*
X44369376Y-18593581D01*
X44368200Y-18569650D01*
X44368200Y-18006350D01*
X44369376Y-17982419D01*
X44372891Y-17958719D01*
X44378713Y-17935477D01*
X44386785Y-17912918D01*
X44397029Y-17891258D01*
X44409347Y-17870708D01*
X44423619Y-17851463D01*
X44439710Y-17833710D01*
X44457463Y-17817619D01*
X44476708Y-17803347D01*
X44497258Y-17791029D01*
X44518918Y-17780785D01*
X44541477Y-17772713D01*
X44564719Y-17766891D01*
X44588419Y-17763376D01*
X44612350Y-17762200D01*
X45100650Y-17762200D01*
X45124581Y-17763376D01*
G37*
G36*
X43549581Y-17763376D02*
G01*
X43573281Y-17766891D01*
X43596523Y-17772713D01*
X43619082Y-17780785D01*
X43640742Y-17791029D01*
X43661292Y-17803347D01*
X43680537Y-17817619D01*
X43698290Y-17833710D01*
X43714381Y-17851463D01*
X43728653Y-17870708D01*
X43740971Y-17891258D01*
X43751215Y-17912918D01*
X43759287Y-17935477D01*
X43765109Y-17958719D01*
X43768624Y-17982419D01*
X43769800Y-18006350D01*
X43769800Y-18569650D01*
X43768624Y-18593581D01*
X43765109Y-18617281D01*
X43759287Y-18640523D01*
X43751215Y-18663082D01*
X43740971Y-18684742D01*
X43728653Y-18705292D01*
X43714381Y-18724537D01*
X43698290Y-18742290D01*
X43680537Y-18758381D01*
X43661292Y-18772653D01*
X43640742Y-18784971D01*
X43619082Y-18795215D01*
X43596523Y-18803287D01*
X43573281Y-18809109D01*
X43549581Y-18812624D01*
X43525650Y-18813800D01*
X43037350Y-18813800D01*
X43013419Y-18812624D01*
X42989719Y-18809109D01*
X42966477Y-18803287D01*
X42943918Y-18795215D01*
X42922258Y-18784971D01*
X42901708Y-18772653D01*
X42882463Y-18758381D01*
X42864710Y-18742290D01*
X42848619Y-18724537D01*
X42834347Y-18705292D01*
X42822029Y-18684742D01*
X42811785Y-18663082D01*
X42803713Y-18640523D01*
X42797891Y-18617281D01*
X42794376Y-18593581D01*
X42793200Y-18569650D01*
X42793200Y-18006350D01*
X42794376Y-17982419D01*
X42797891Y-17958719D01*
X42803713Y-17935477D01*
X42811785Y-17912918D01*
X42822029Y-17891258D01*
X42834347Y-17870708D01*
X42848619Y-17851463D01*
X42864710Y-17833710D01*
X42882463Y-17817619D01*
X42901708Y-17803347D01*
X42922258Y-17791029D01*
X42943918Y-17780785D01*
X42966477Y-17772713D01*
X42989719Y-17766891D01*
X43013419Y-17763376D01*
X43037350Y-17762200D01*
X43525650Y-17762200D01*
X43549581Y-17763376D01*
G37*
G36*
X45124581Y-16239376D02*
G01*
X45148281Y-16242891D01*
X45171523Y-16248713D01*
X45194082Y-16256785D01*
X45215742Y-16267029D01*
X45236292Y-16279347D01*
X45255537Y-16293619D01*
X45273290Y-16309710D01*
X45289381Y-16327463D01*
X45303653Y-16346708D01*
X45315971Y-16367258D01*
X45326215Y-16388918D01*
X45334287Y-16411477D01*
X45340109Y-16434719D01*
X45343624Y-16458419D01*
X45344800Y-16482350D01*
X45344800Y-17045650D01*
X45343624Y-17069581D01*
X45340109Y-17093281D01*
X45334287Y-17116523D01*
X45326215Y-17139082D01*
X45315971Y-17160742D01*
X45303653Y-17181292D01*
X45289381Y-17200537D01*
X45273290Y-17218290D01*
X45255537Y-17234381D01*
X45236292Y-17248653D01*
X45215742Y-17260971D01*
X45194082Y-17271215D01*
X45171523Y-17279287D01*
X45148281Y-17285109D01*
X45124581Y-17288624D01*
X45100650Y-17289800D01*
X44612350Y-17289800D01*
X44588419Y-17288624D01*
X44564719Y-17285109D01*
X44541477Y-17279287D01*
X44518918Y-17271215D01*
X44497258Y-17260971D01*
X44476708Y-17248653D01*
X44457463Y-17234381D01*
X44439710Y-17218290D01*
X44423619Y-17200537D01*
X44409347Y-17181292D01*
X44397029Y-17160742D01*
X44386785Y-17139082D01*
X44378713Y-17116523D01*
X44372891Y-17093281D01*
X44369376Y-17069581D01*
X44368200Y-17045650D01*
X44368200Y-16482350D01*
X44369376Y-16458419D01*
X44372891Y-16434719D01*
X44378713Y-16411477D01*
X44386785Y-16388918D01*
X44397029Y-16367258D01*
X44409347Y-16346708D01*
X44423619Y-16327463D01*
X44439710Y-16309710D01*
X44457463Y-16293619D01*
X44476708Y-16279347D01*
X44497258Y-16267029D01*
X44518918Y-16256785D01*
X44541477Y-16248713D01*
X44564719Y-16242891D01*
X44588419Y-16239376D01*
X44612350Y-16238200D01*
X45100650Y-16238200D01*
X45124581Y-16239376D01*
G37*
G36*
X43549581Y-16239376D02*
G01*
X43573281Y-16242891D01*
X43596523Y-16248713D01*
X43619082Y-16256785D01*
X43640742Y-16267029D01*
X43661292Y-16279347D01*
X43680537Y-16293619D01*
X43698290Y-16309710D01*
X43714381Y-16327463D01*
X43728653Y-16346708D01*
X43740971Y-16367258D01*
X43751215Y-16388918D01*
X43759287Y-16411477D01*
X43765109Y-16434719D01*
X43768624Y-16458419D01*
X43769800Y-16482350D01*
X43769800Y-17045650D01*
X43768624Y-17069581D01*
X43765109Y-17093281D01*
X43759287Y-17116523D01*
X43751215Y-17139082D01*
X43740971Y-17160742D01*
X43728653Y-17181292D01*
X43714381Y-17200537D01*
X43698290Y-17218290D01*
X43680537Y-17234381D01*
X43661292Y-17248653D01*
X43640742Y-17260971D01*
X43619082Y-17271215D01*
X43596523Y-17279287D01*
X43573281Y-17285109D01*
X43549581Y-17288624D01*
X43525650Y-17289800D01*
X43037350Y-17289800D01*
X43013419Y-17288624D01*
X42989719Y-17285109D01*
X42966477Y-17279287D01*
X42943918Y-17271215D01*
X42922258Y-17260971D01*
X42901708Y-17248653D01*
X42882463Y-17234381D01*
X42864710Y-17218290D01*
X42848619Y-17200537D01*
X42834347Y-17181292D01*
X42822029Y-17160742D01*
X42811785Y-17139082D01*
X42803713Y-17116523D01*
X42797891Y-17093281D01*
X42794376Y-17069581D01*
X42793200Y-17045650D01*
X42793200Y-16482350D01*
X42794376Y-16458419D01*
X42797891Y-16434719D01*
X42803713Y-16411477D01*
X42811785Y-16388918D01*
X42822029Y-16367258D01*
X42834347Y-16346708D01*
X42848619Y-16327463D01*
X42864710Y-16309710D01*
X42882463Y-16293619D01*
X42901708Y-16279347D01*
X42922258Y-16267029D01*
X42943918Y-16256785D01*
X42966477Y-16248713D01*
X42989719Y-16242891D01*
X43013419Y-16239376D01*
X43037350Y-16238200D01*
X43525650Y-16238200D01*
X43549581Y-16239376D01*
G37*
G36*
X45124581Y-14715376D02*
G01*
X45148281Y-14718891D01*
X45171523Y-14724713D01*
X45194082Y-14732785D01*
X45215742Y-14743029D01*
X45236292Y-14755347D01*
X45255537Y-14769619D01*
X45273290Y-14785710D01*
X45289381Y-14803463D01*
X45303653Y-14822708D01*
X45315971Y-14843258D01*
X45326215Y-14864918D01*
X45334287Y-14887477D01*
X45340109Y-14910719D01*
X45343624Y-14934419D01*
X45344800Y-14958350D01*
X45344800Y-15521650D01*
X45343624Y-15545581D01*
X45340109Y-15569281D01*
X45334287Y-15592523D01*
X45326215Y-15615082D01*
X45315971Y-15636742D01*
X45303653Y-15657292D01*
X45289381Y-15676537D01*
X45273290Y-15694290D01*
X45255537Y-15710381D01*
X45236292Y-15724653D01*
X45215742Y-15736971D01*
X45194082Y-15747215D01*
X45171523Y-15755287D01*
X45148281Y-15761109D01*
X45124581Y-15764624D01*
X45100650Y-15765800D01*
X44612350Y-15765800D01*
X44588419Y-15764624D01*
X44564719Y-15761109D01*
X44541477Y-15755287D01*
X44518918Y-15747215D01*
X44497258Y-15736971D01*
X44476708Y-15724653D01*
X44457463Y-15710381D01*
X44439710Y-15694290D01*
X44423619Y-15676537D01*
X44409347Y-15657292D01*
X44397029Y-15636742D01*
X44386785Y-15615082D01*
X44378713Y-15592523D01*
X44372891Y-15569281D01*
X44369376Y-15545581D01*
X44368200Y-15521650D01*
X44368200Y-14958350D01*
X44369376Y-14934419D01*
X44372891Y-14910719D01*
X44378713Y-14887477D01*
X44386785Y-14864918D01*
X44397029Y-14843258D01*
X44409347Y-14822708D01*
X44423619Y-14803463D01*
X44439710Y-14785710D01*
X44457463Y-14769619D01*
X44476708Y-14755347D01*
X44497258Y-14743029D01*
X44518918Y-14732785D01*
X44541477Y-14724713D01*
X44564719Y-14718891D01*
X44588419Y-14715376D01*
X44612350Y-14714200D01*
X45100650Y-14714200D01*
X45124581Y-14715376D01*
G37*
G36*
X43549581Y-14715376D02*
G01*
X43573281Y-14718891D01*
X43596523Y-14724713D01*
X43619082Y-14732785D01*
X43640742Y-14743029D01*
X43661292Y-14755347D01*
X43680537Y-14769619D01*
X43698290Y-14785710D01*
X43714381Y-14803463D01*
X43728653Y-14822708D01*
X43740971Y-14843258D01*
X43751215Y-14864918D01*
X43759287Y-14887477D01*
X43765109Y-14910719D01*
X43768624Y-14934419D01*
X43769800Y-14958350D01*
X43769800Y-15521650D01*
X43768624Y-15545581D01*
X43765109Y-15569281D01*
X43759287Y-15592523D01*
X43751215Y-15615082D01*
X43740971Y-15636742D01*
X43728653Y-15657292D01*
X43714381Y-15676537D01*
X43698290Y-15694290D01*
X43680537Y-15710381D01*
X43661292Y-15724653D01*
X43640742Y-15736971D01*
X43619082Y-15747215D01*
X43596523Y-15755287D01*
X43573281Y-15761109D01*
X43549581Y-15764624D01*
X43525650Y-15765800D01*
X43037350Y-15765800D01*
X43013419Y-15764624D01*
X42989719Y-15761109D01*
X42966477Y-15755287D01*
X42943918Y-15747215D01*
X42922258Y-15736971D01*
X42901708Y-15724653D01*
X42882463Y-15710381D01*
X42864710Y-15694290D01*
X42848619Y-15676537D01*
X42834347Y-15657292D01*
X42822029Y-15636742D01*
X42811785Y-15615082D01*
X42803713Y-15592523D01*
X42797891Y-15569281D01*
X42794376Y-15545581D01*
X42793200Y-15521650D01*
X42793200Y-14958350D01*
X42794376Y-14934419D01*
X42797891Y-14910719D01*
X42803713Y-14887477D01*
X42811785Y-14864918D01*
X42822029Y-14843258D01*
X42834347Y-14822708D01*
X42848619Y-14803463D01*
X42864710Y-14785710D01*
X42882463Y-14769619D01*
X42901708Y-14755347D01*
X42922258Y-14743029D01*
X42943918Y-14732785D01*
X42966477Y-14724713D01*
X42989719Y-14718891D01*
X43013419Y-14715376D01*
X43037350Y-14714200D01*
X43525650Y-14714200D01*
X43549581Y-14715376D01*
G37*
G36*
X49696581Y-11540376D02*
G01*
X49720281Y-11543891D01*
X49743523Y-11549713D01*
X49766082Y-11557785D01*
X49787742Y-11568029D01*
X49808292Y-11580347D01*
X49827537Y-11594619D01*
X49845290Y-11610710D01*
X49861381Y-11628463D01*
X49875653Y-11647708D01*
X49887971Y-11668258D01*
X49898215Y-11689918D01*
X49906287Y-11712477D01*
X49912109Y-11735719D01*
X49915624Y-11759419D01*
X49916800Y-11783350D01*
X49916800Y-12346650D01*
X49915624Y-12370581D01*
X49912109Y-12394281D01*
X49906287Y-12417523D01*
X49898215Y-12440082D01*
X49887971Y-12461742D01*
X49875653Y-12482292D01*
X49861381Y-12501537D01*
X49845290Y-12519290D01*
X49827537Y-12535381D01*
X49808292Y-12549653D01*
X49787742Y-12561971D01*
X49766082Y-12572215D01*
X49743523Y-12580287D01*
X49720281Y-12586109D01*
X49696581Y-12589624D01*
X49672650Y-12590800D01*
X49184350Y-12590800D01*
X49160419Y-12589624D01*
X49136719Y-12586109D01*
X49113477Y-12580287D01*
X49090918Y-12572215D01*
X49069258Y-12561971D01*
X49048708Y-12549653D01*
X49029463Y-12535381D01*
X49011710Y-12519290D01*
X48995619Y-12501537D01*
X48981347Y-12482292D01*
X48969029Y-12461742D01*
X48958785Y-12440082D01*
X48950713Y-12417523D01*
X48944891Y-12394281D01*
X48941376Y-12370581D01*
X48940200Y-12346650D01*
X48940200Y-11783350D01*
X48941376Y-11759419D01*
X48944891Y-11735719D01*
X48950713Y-11712477D01*
X48958785Y-11689918D01*
X48969029Y-11668258D01*
X48981347Y-11647708D01*
X48995619Y-11628463D01*
X49011710Y-11610710D01*
X49029463Y-11594619D01*
X49048708Y-11580347D01*
X49069258Y-11568029D01*
X49090918Y-11557785D01*
X49113477Y-11549713D01*
X49136719Y-11543891D01*
X49160419Y-11540376D01*
X49184350Y-11539200D01*
X49672650Y-11539200D01*
X49696581Y-11540376D01*
G37*
G36*
X48121581Y-11540376D02*
G01*
X48145281Y-11543891D01*
X48168523Y-11549713D01*
X48191082Y-11557785D01*
X48212742Y-11568029D01*
X48233292Y-11580347D01*
X48252537Y-11594619D01*
X48270290Y-11610710D01*
X48286381Y-11628463D01*
X48300653Y-11647708D01*
X48312971Y-11668258D01*
X48323215Y-11689918D01*
X48331287Y-11712477D01*
X48337109Y-11735719D01*
X48340624Y-11759419D01*
X48341800Y-11783350D01*
X48341800Y-12346650D01*
X48340624Y-12370581D01*
X48337109Y-12394281D01*
X48331287Y-12417523D01*
X48323215Y-12440082D01*
X48312971Y-12461742D01*
X48300653Y-12482292D01*
X48286381Y-12501537D01*
X48270290Y-12519290D01*
X48252537Y-12535381D01*
X48233292Y-12549653D01*
X48212742Y-12561971D01*
X48191082Y-12572215D01*
X48168523Y-12580287D01*
X48145281Y-12586109D01*
X48121581Y-12589624D01*
X48097650Y-12590800D01*
X47609350Y-12590800D01*
X47585419Y-12589624D01*
X47561719Y-12586109D01*
X47538477Y-12580287D01*
X47515918Y-12572215D01*
X47494258Y-12561971D01*
X47473708Y-12549653D01*
X47454463Y-12535381D01*
X47436710Y-12519290D01*
X47420619Y-12501537D01*
X47406347Y-12482292D01*
X47394029Y-12461742D01*
X47383785Y-12440082D01*
X47375713Y-12417523D01*
X47369891Y-12394281D01*
X47366376Y-12370581D01*
X47365200Y-12346650D01*
X47365200Y-11783350D01*
X47366376Y-11759419D01*
X47369891Y-11735719D01*
X47375713Y-11712477D01*
X47383785Y-11689918D01*
X47394029Y-11668258D01*
X47406347Y-11647708D01*
X47420619Y-11628463D01*
X47436710Y-11610710D01*
X47454463Y-11594619D01*
X47473708Y-11580347D01*
X47494258Y-11568029D01*
X47515918Y-11557785D01*
X47538477Y-11549713D01*
X47561719Y-11543891D01*
X47585419Y-11540376D01*
X47609350Y-11539200D01*
X48097650Y-11539200D01*
X48121581Y-11540376D01*
G37*
G36*
X45124581Y-11540376D02*
G01*
X45148281Y-11543891D01*
X45171523Y-11549713D01*
X45194082Y-11557785D01*
X45215742Y-11568029D01*
X45236292Y-11580347D01*
X45255537Y-11594619D01*
X45273290Y-11610710D01*
X45289381Y-11628463D01*
X45303653Y-11647708D01*
X45315971Y-11668258D01*
X45326215Y-11689918D01*
X45334287Y-11712477D01*
X45340109Y-11735719D01*
X45343624Y-11759419D01*
X45344800Y-11783350D01*
X45344800Y-12346650D01*
X45343624Y-12370581D01*
X45340109Y-12394281D01*
X45334287Y-12417523D01*
X45326215Y-12440082D01*
X45315971Y-12461742D01*
X45303653Y-12482292D01*
X45289381Y-12501537D01*
X45273290Y-12519290D01*
X45255537Y-12535381D01*
X45236292Y-12549653D01*
X45215742Y-12561971D01*
X45194082Y-12572215D01*
X45171523Y-12580287D01*
X45148281Y-12586109D01*
X45124581Y-12589624D01*
X45100650Y-12590800D01*
X44612350Y-12590800D01*
X44588419Y-12589624D01*
X44564719Y-12586109D01*
X44541477Y-12580287D01*
X44518918Y-12572215D01*
X44497258Y-12561971D01*
X44476708Y-12549653D01*
X44457463Y-12535381D01*
X44439710Y-12519290D01*
X44423619Y-12501537D01*
X44409347Y-12482292D01*
X44397029Y-12461742D01*
X44386785Y-12440082D01*
X44378713Y-12417523D01*
X44372891Y-12394281D01*
X44369376Y-12370581D01*
X44368200Y-12346650D01*
X44368200Y-11783350D01*
X44369376Y-11759419D01*
X44372891Y-11735719D01*
X44378713Y-11712477D01*
X44386785Y-11689918D01*
X44397029Y-11668258D01*
X44409347Y-11647708D01*
X44423619Y-11628463D01*
X44439710Y-11610710D01*
X44457463Y-11594619D01*
X44476708Y-11580347D01*
X44497258Y-11568029D01*
X44518918Y-11557785D01*
X44541477Y-11549713D01*
X44564719Y-11543891D01*
X44588419Y-11540376D01*
X44612350Y-11539200D01*
X45100650Y-11539200D01*
X45124581Y-11540376D01*
G37*
G36*
X43549581Y-11540376D02*
G01*
X43573281Y-11543891D01*
X43596523Y-11549713D01*
X43619082Y-11557785D01*
X43640742Y-11568029D01*
X43661292Y-11580347D01*
X43680537Y-11594619D01*
X43698290Y-11610710D01*
X43714381Y-11628463D01*
X43728653Y-11647708D01*
X43740971Y-11668258D01*
X43751215Y-11689918D01*
X43759287Y-11712477D01*
X43765109Y-11735719D01*
X43768624Y-11759419D01*
X43769800Y-11783350D01*
X43769800Y-12346650D01*
X43768624Y-12370581D01*
X43765109Y-12394281D01*
X43759287Y-12417523D01*
X43751215Y-12440082D01*
X43740971Y-12461742D01*
X43728653Y-12482292D01*
X43714381Y-12501537D01*
X43698290Y-12519290D01*
X43680537Y-12535381D01*
X43661292Y-12549653D01*
X43640742Y-12561971D01*
X43619082Y-12572215D01*
X43596523Y-12580287D01*
X43573281Y-12586109D01*
X43549581Y-12589624D01*
X43525650Y-12590800D01*
X43037350Y-12590800D01*
X43013419Y-12589624D01*
X42989719Y-12586109D01*
X42966477Y-12580287D01*
X42943918Y-12572215D01*
X42922258Y-12561971D01*
X42901708Y-12549653D01*
X42882463Y-12535381D01*
X42864710Y-12519290D01*
X42848619Y-12501537D01*
X42834347Y-12482292D01*
X42822029Y-12461742D01*
X42811785Y-12440082D01*
X42803713Y-12417523D01*
X42797891Y-12394281D01*
X42794376Y-12370581D01*
X42793200Y-12346650D01*
X42793200Y-11783350D01*
X42794376Y-11759419D01*
X42797891Y-11735719D01*
X42803713Y-11712477D01*
X42811785Y-11689918D01*
X42822029Y-11668258D01*
X42834347Y-11647708D01*
X42848619Y-11628463D01*
X42864710Y-11610710D01*
X42882463Y-11594619D01*
X42901708Y-11580347D01*
X42922258Y-11568029D01*
X42943918Y-11557785D01*
X42966477Y-11549713D01*
X42989719Y-11543891D01*
X43013419Y-11540376D01*
X43037350Y-11539200D01*
X43525650Y-11539200D01*
X43549581Y-11540376D01*
G37*
G36*
X44997581Y-27415376D02*
G01*
X45021281Y-27418891D01*
X45044523Y-27424713D01*
X45067082Y-27432785D01*
X45088742Y-27443029D01*
X45109292Y-27455347D01*
X45128537Y-27469619D01*
X45146290Y-27485710D01*
X45162381Y-27503463D01*
X45176653Y-27522708D01*
X45188971Y-27543258D01*
X45199215Y-27564918D01*
X45207287Y-27587477D01*
X45213109Y-27610719D01*
X45216624Y-27634419D01*
X45217800Y-27658350D01*
X45217800Y-28221650D01*
X45216624Y-28245581D01*
X45213109Y-28269281D01*
X45207287Y-28292523D01*
X45199215Y-28315082D01*
X45188971Y-28336742D01*
X45176653Y-28357292D01*
X45162381Y-28376537D01*
X45146290Y-28394290D01*
X45128537Y-28410381D01*
X45109292Y-28424653D01*
X45088742Y-28436971D01*
X45067082Y-28447215D01*
X45044523Y-28455287D01*
X45021281Y-28461109D01*
X44997581Y-28464624D01*
X44973650Y-28465800D01*
X44485350Y-28465800D01*
X44461419Y-28464624D01*
X44437719Y-28461109D01*
X44414477Y-28455287D01*
X44391918Y-28447215D01*
X44370258Y-28436971D01*
X44349708Y-28424653D01*
X44330463Y-28410381D01*
X44312710Y-28394290D01*
X44296619Y-28376537D01*
X44282347Y-28357292D01*
X44270029Y-28336742D01*
X44259785Y-28315082D01*
X44251713Y-28292523D01*
X44245891Y-28269281D01*
X44242376Y-28245581D01*
X44241200Y-28221650D01*
X44241200Y-27658350D01*
X44242376Y-27634419D01*
X44245891Y-27610719D01*
X44251713Y-27587477D01*
X44259785Y-27564918D01*
X44270029Y-27543258D01*
X44282347Y-27522708D01*
X44296619Y-27503463D01*
X44312710Y-27485710D01*
X44330463Y-27469619D01*
X44349708Y-27455347D01*
X44370258Y-27443029D01*
X44391918Y-27432785D01*
X44414477Y-27424713D01*
X44437719Y-27418891D01*
X44461419Y-27415376D01*
X44485350Y-27414200D01*
X44973650Y-27414200D01*
X44997581Y-27415376D01*
G37*
G36*
X43422581Y-27415376D02*
G01*
X43446281Y-27418891D01*
X43469523Y-27424713D01*
X43492082Y-27432785D01*
X43513742Y-27443029D01*
X43534292Y-27455347D01*
X43553537Y-27469619D01*
X43571290Y-27485710D01*
X43587381Y-27503463D01*
X43601653Y-27522708D01*
X43613971Y-27543258D01*
X43624215Y-27564918D01*
X43632287Y-27587477D01*
X43638109Y-27610719D01*
X43641624Y-27634419D01*
X43642800Y-27658350D01*
X43642800Y-28221650D01*
X43641624Y-28245581D01*
X43638109Y-28269281D01*
X43632287Y-28292523D01*
X43624215Y-28315082D01*
X43613971Y-28336742D01*
X43601653Y-28357292D01*
X43587381Y-28376537D01*
X43571290Y-28394290D01*
X43553537Y-28410381D01*
X43534292Y-28424653D01*
X43513742Y-28436971D01*
X43492082Y-28447215D01*
X43469523Y-28455287D01*
X43446281Y-28461109D01*
X43422581Y-28464624D01*
X43398650Y-28465800D01*
X42910350Y-28465800D01*
X42886419Y-28464624D01*
X42862719Y-28461109D01*
X42839477Y-28455287D01*
X42816918Y-28447215D01*
X42795258Y-28436971D01*
X42774708Y-28424653D01*
X42755463Y-28410381D01*
X42737710Y-28394290D01*
X42721619Y-28376537D01*
X42707347Y-28357292D01*
X42695029Y-28336742D01*
X42684785Y-28315082D01*
X42676713Y-28292523D01*
X42670891Y-28269281D01*
X42667376Y-28245581D01*
X42666200Y-28221650D01*
X42666200Y-27658350D01*
X42667376Y-27634419D01*
X42670891Y-27610719D01*
X42676713Y-27587477D01*
X42684785Y-27564918D01*
X42695029Y-27543258D01*
X42707347Y-27522708D01*
X42721619Y-27503463D01*
X42737710Y-27485710D01*
X42755463Y-27469619D01*
X42774708Y-27455347D01*
X42795258Y-27443029D01*
X42816918Y-27432785D01*
X42839477Y-27424713D01*
X42862719Y-27418891D01*
X42886419Y-27415376D01*
X42910350Y-27414200D01*
X43398650Y-27414200D01*
X43422581Y-27415376D01*
G37*
G36*
X44997581Y-25891376D02*
G01*
X45021281Y-25894891D01*
X45044523Y-25900713D01*
X45067082Y-25908785D01*
X45088742Y-25919029D01*
X45109292Y-25931347D01*
X45128537Y-25945619D01*
X45146290Y-25961710D01*
X45162381Y-25979463D01*
X45176653Y-25998708D01*
X45188971Y-26019258D01*
X45199215Y-26040918D01*
X45207287Y-26063477D01*
X45213109Y-26086719D01*
X45216624Y-26110419D01*
X45217800Y-26134350D01*
X45217800Y-26697650D01*
X45216624Y-26721581D01*
X45213109Y-26745281D01*
X45207287Y-26768523D01*
X45199215Y-26791082D01*
X45188971Y-26812742D01*
X45176653Y-26833292D01*
X45162381Y-26852537D01*
X45146290Y-26870290D01*
X45128537Y-26886381D01*
X45109292Y-26900653D01*
X45088742Y-26912971D01*
X45067082Y-26923215D01*
X45044523Y-26931287D01*
X45021281Y-26937109D01*
X44997581Y-26940624D01*
X44973650Y-26941800D01*
X44485350Y-26941800D01*
X44461419Y-26940624D01*
X44437719Y-26937109D01*
X44414477Y-26931287D01*
X44391918Y-26923215D01*
X44370258Y-26912971D01*
X44349708Y-26900653D01*
X44330463Y-26886381D01*
X44312710Y-26870290D01*
X44296619Y-26852537D01*
X44282347Y-26833292D01*
X44270029Y-26812742D01*
X44259785Y-26791082D01*
X44251713Y-26768523D01*
X44245891Y-26745281D01*
X44242376Y-26721581D01*
X44241200Y-26697650D01*
X44241200Y-26134350D01*
X44242376Y-26110419D01*
X44245891Y-26086719D01*
X44251713Y-26063477D01*
X44259785Y-26040918D01*
X44270029Y-26019258D01*
X44282347Y-25998708D01*
X44296619Y-25979463D01*
X44312710Y-25961710D01*
X44330463Y-25945619D01*
X44349708Y-25931347D01*
X44370258Y-25919029D01*
X44391918Y-25908785D01*
X44414477Y-25900713D01*
X44437719Y-25894891D01*
X44461419Y-25891376D01*
X44485350Y-25890200D01*
X44973650Y-25890200D01*
X44997581Y-25891376D01*
G37*
G36*
X43422581Y-25891376D02*
G01*
X43446281Y-25894891D01*
X43469523Y-25900713D01*
X43492082Y-25908785D01*
X43513742Y-25919029D01*
X43534292Y-25931347D01*
X43553537Y-25945619D01*
X43571290Y-25961710D01*
X43587381Y-25979463D01*
X43601653Y-25998708D01*
X43613971Y-26019258D01*
X43624215Y-26040918D01*
X43632287Y-26063477D01*
X43638109Y-26086719D01*
X43641624Y-26110419D01*
X43642800Y-26134350D01*
X43642800Y-26697650D01*
X43641624Y-26721581D01*
X43638109Y-26745281D01*
X43632287Y-26768523D01*
X43624215Y-26791082D01*
X43613971Y-26812742D01*
X43601653Y-26833292D01*
X43587381Y-26852537D01*
X43571290Y-26870290D01*
X43553537Y-26886381D01*
X43534292Y-26900653D01*
X43513742Y-26912971D01*
X43492082Y-26923215D01*
X43469523Y-26931287D01*
X43446281Y-26937109D01*
X43422581Y-26940624D01*
X43398650Y-26941800D01*
X42910350Y-26941800D01*
X42886419Y-26940624D01*
X42862719Y-26937109D01*
X42839477Y-26931287D01*
X42816918Y-26923215D01*
X42795258Y-26912971D01*
X42774708Y-26900653D01*
X42755463Y-26886381D01*
X42737710Y-26870290D01*
X42721619Y-26852537D01*
X42707347Y-26833292D01*
X42695029Y-26812742D01*
X42684785Y-26791082D01*
X42676713Y-26768523D01*
X42670891Y-26745281D01*
X42667376Y-26721581D01*
X42666200Y-26697650D01*
X42666200Y-26134350D01*
X42667376Y-26110419D01*
X42670891Y-26086719D01*
X42676713Y-26063477D01*
X42684785Y-26040918D01*
X42695029Y-26019258D01*
X42707347Y-25998708D01*
X42721619Y-25979463D01*
X42737710Y-25961710D01*
X42755463Y-25945619D01*
X42774708Y-25931347D01*
X42795258Y-25919029D01*
X42816918Y-25908785D01*
X42839477Y-25900713D01*
X42862719Y-25894891D01*
X42886419Y-25891376D01*
X42910350Y-25890200D01*
X43398650Y-25890200D01*
X43422581Y-25891376D01*
G37*
G36*
X44997581Y-24367376D02*
G01*
X45021281Y-24370891D01*
X45044523Y-24376713D01*
X45067082Y-24384785D01*
X45088742Y-24395029D01*
X45109292Y-24407347D01*
X45128537Y-24421619D01*
X45146290Y-24437710D01*
X45162381Y-24455463D01*
X45176653Y-24474708D01*
X45188971Y-24495258D01*
X45199215Y-24516918D01*
X45207287Y-24539477D01*
X45213109Y-24562719D01*
X45216624Y-24586419D01*
X45217800Y-24610350D01*
X45217800Y-25173650D01*
X45216624Y-25197581D01*
X45213109Y-25221281D01*
X45207287Y-25244523D01*
X45199215Y-25267082D01*
X45188971Y-25288742D01*
X45176653Y-25309292D01*
X45162381Y-25328537D01*
X45146290Y-25346290D01*
X45128537Y-25362381D01*
X45109292Y-25376653D01*
X45088742Y-25388971D01*
X45067082Y-25399215D01*
X45044523Y-25407287D01*
X45021281Y-25413109D01*
X44997581Y-25416624D01*
X44973650Y-25417800D01*
X44485350Y-25417800D01*
X44461419Y-25416624D01*
X44437719Y-25413109D01*
X44414477Y-25407287D01*
X44391918Y-25399215D01*
X44370258Y-25388971D01*
X44349708Y-25376653D01*
X44330463Y-25362381D01*
X44312710Y-25346290D01*
X44296619Y-25328537D01*
X44282347Y-25309292D01*
X44270029Y-25288742D01*
X44259785Y-25267082D01*
X44251713Y-25244523D01*
X44245891Y-25221281D01*
X44242376Y-25197581D01*
X44241200Y-25173650D01*
X44241200Y-24610350D01*
X44242376Y-24586419D01*
X44245891Y-24562719D01*
X44251713Y-24539477D01*
X44259785Y-24516918D01*
X44270029Y-24495258D01*
X44282347Y-24474708D01*
X44296619Y-24455463D01*
X44312710Y-24437710D01*
X44330463Y-24421619D01*
X44349708Y-24407347D01*
X44370258Y-24395029D01*
X44391918Y-24384785D01*
X44414477Y-24376713D01*
X44437719Y-24370891D01*
X44461419Y-24367376D01*
X44485350Y-24366200D01*
X44973650Y-24366200D01*
X44997581Y-24367376D01*
G37*
G36*
X43422581Y-24367376D02*
G01*
X43446281Y-24370891D01*
X43469523Y-24376713D01*
X43492082Y-24384785D01*
X43513742Y-24395029D01*
X43534292Y-24407347D01*
X43553537Y-24421619D01*
X43571290Y-24437710D01*
X43587381Y-24455463D01*
X43601653Y-24474708D01*
X43613971Y-24495258D01*
X43624215Y-24516918D01*
X43632287Y-24539477D01*
X43638109Y-24562719D01*
X43641624Y-24586419D01*
X43642800Y-24610350D01*
X43642800Y-25173650D01*
X43641624Y-25197581D01*
X43638109Y-25221281D01*
X43632287Y-25244523D01*
X43624215Y-25267082D01*
X43613971Y-25288742D01*
X43601653Y-25309292D01*
X43587381Y-25328537D01*
X43571290Y-25346290D01*
X43553537Y-25362381D01*
X43534292Y-25376653D01*
X43513742Y-25388971D01*
X43492082Y-25399215D01*
X43469523Y-25407287D01*
X43446281Y-25413109D01*
X43422581Y-25416624D01*
X43398650Y-25417800D01*
X42910350Y-25417800D01*
X42886419Y-25416624D01*
X42862719Y-25413109D01*
X42839477Y-25407287D01*
X42816918Y-25399215D01*
X42795258Y-25388971D01*
X42774708Y-25376653D01*
X42755463Y-25362381D01*
X42737710Y-25346290D01*
X42721619Y-25328537D01*
X42707347Y-25309292D01*
X42695029Y-25288742D01*
X42684785Y-25267082D01*
X42676713Y-25244523D01*
X42670891Y-25221281D01*
X42667376Y-25197581D01*
X42666200Y-25173650D01*
X42666200Y-24610350D01*
X42667376Y-24586419D01*
X42670891Y-24562719D01*
X42676713Y-24539477D01*
X42684785Y-24516918D01*
X42695029Y-24495258D01*
X42707347Y-24474708D01*
X42721619Y-24455463D01*
X42737710Y-24437710D01*
X42755463Y-24421619D01*
X42774708Y-24407347D01*
X42795258Y-24395029D01*
X42816918Y-24384785D01*
X42839477Y-24376713D01*
X42862719Y-24370891D01*
X42886419Y-24367376D01*
X42910350Y-24366200D01*
X43398650Y-24366200D01*
X43422581Y-24367376D01*
G37*
G36*
X49569581Y-21192376D02*
G01*
X49593281Y-21195891D01*
X49616523Y-21201713D01*
X49639082Y-21209785D01*
X49660742Y-21220029D01*
X49681292Y-21232347D01*
X49700537Y-21246619D01*
X49718290Y-21262710D01*
X49734381Y-21280463D01*
X49748653Y-21299708D01*
X49760971Y-21320258D01*
X49771215Y-21341918D01*
X49779287Y-21364477D01*
X49785109Y-21387719D01*
X49788624Y-21411419D01*
X49789800Y-21435350D01*
X49789800Y-21998650D01*
X49788624Y-22022581D01*
X49785109Y-22046281D01*
X49779287Y-22069523D01*
X49771215Y-22092082D01*
X49760971Y-22113742D01*
X49748653Y-22134292D01*
X49734381Y-22153537D01*
X49718290Y-22171290D01*
X49700537Y-22187381D01*
X49681292Y-22201653D01*
X49660742Y-22213971D01*
X49639082Y-22224215D01*
X49616523Y-22232287D01*
X49593281Y-22238109D01*
X49569581Y-22241624D01*
X49545650Y-22242800D01*
X49057350Y-22242800D01*
X49033419Y-22241624D01*
X49009719Y-22238109D01*
X48986477Y-22232287D01*
X48963918Y-22224215D01*
X48942258Y-22213971D01*
X48921708Y-22201653D01*
X48902463Y-22187381D01*
X48884710Y-22171290D01*
X48868619Y-22153537D01*
X48854347Y-22134292D01*
X48842029Y-22113742D01*
X48831785Y-22092082D01*
X48823713Y-22069523D01*
X48817891Y-22046281D01*
X48814376Y-22022581D01*
X48813200Y-21998650D01*
X48813200Y-21435350D01*
X48814376Y-21411419D01*
X48817891Y-21387719D01*
X48823713Y-21364477D01*
X48831785Y-21341918D01*
X48842029Y-21320258D01*
X48854347Y-21299708D01*
X48868619Y-21280463D01*
X48884710Y-21262710D01*
X48902463Y-21246619D01*
X48921708Y-21232347D01*
X48942258Y-21220029D01*
X48963918Y-21209785D01*
X48986477Y-21201713D01*
X49009719Y-21195891D01*
X49033419Y-21192376D01*
X49057350Y-21191200D01*
X49545650Y-21191200D01*
X49569581Y-21192376D01*
G37*
G36*
X47994581Y-21192376D02*
G01*
X48018281Y-21195891D01*
X48041523Y-21201713D01*
X48064082Y-21209785D01*
X48085742Y-21220029D01*
X48106292Y-21232347D01*
X48125537Y-21246619D01*
X48143290Y-21262710D01*
X48159381Y-21280463D01*
X48173653Y-21299708D01*
X48185971Y-21320258D01*
X48196215Y-21341918D01*
X48204287Y-21364477D01*
X48210109Y-21387719D01*
X48213624Y-21411419D01*
X48214800Y-21435350D01*
X48214800Y-21998650D01*
X48213624Y-22022581D01*
X48210109Y-22046281D01*
X48204287Y-22069523D01*
X48196215Y-22092082D01*
X48185971Y-22113742D01*
X48173653Y-22134292D01*
X48159381Y-22153537D01*
X48143290Y-22171290D01*
X48125537Y-22187381D01*
X48106292Y-22201653D01*
X48085742Y-22213971D01*
X48064082Y-22224215D01*
X48041523Y-22232287D01*
X48018281Y-22238109D01*
X47994581Y-22241624D01*
X47970650Y-22242800D01*
X47482350Y-22242800D01*
X47458419Y-22241624D01*
X47434719Y-22238109D01*
X47411477Y-22232287D01*
X47388918Y-22224215D01*
X47367258Y-22213971D01*
X47346708Y-22201653D01*
X47327463Y-22187381D01*
X47309710Y-22171290D01*
X47293619Y-22153537D01*
X47279347Y-22134292D01*
X47267029Y-22113742D01*
X47256785Y-22092082D01*
X47248713Y-22069523D01*
X47242891Y-22046281D01*
X47239376Y-22022581D01*
X47238200Y-21998650D01*
X47238200Y-21435350D01*
X47239376Y-21411419D01*
X47242891Y-21387719D01*
X47248713Y-21364477D01*
X47256785Y-21341918D01*
X47267029Y-21320258D01*
X47279347Y-21299708D01*
X47293619Y-21280463D01*
X47309710Y-21262710D01*
X47327463Y-21246619D01*
X47346708Y-21232347D01*
X47367258Y-21220029D01*
X47388918Y-21209785D01*
X47411477Y-21201713D01*
X47434719Y-21195891D01*
X47458419Y-21192376D01*
X47482350Y-21191200D01*
X47970650Y-21191200D01*
X47994581Y-21192376D01*
G37*
G36*
X43422581Y-21192376D02*
G01*
X43446281Y-21195891D01*
X43469523Y-21201713D01*
X43492082Y-21209785D01*
X43513742Y-21220029D01*
X43534292Y-21232347D01*
X43553537Y-21246619D01*
X43571290Y-21262710D01*
X43587381Y-21280463D01*
X43601653Y-21299708D01*
X43613971Y-21320258D01*
X43624215Y-21341918D01*
X43632287Y-21364477D01*
X43638109Y-21387719D01*
X43641624Y-21411419D01*
X43642800Y-21435350D01*
X43642800Y-21998650D01*
X43641624Y-22022581D01*
X43638109Y-22046281D01*
X43632287Y-22069523D01*
X43624215Y-22092082D01*
X43613971Y-22113742D01*
X43601653Y-22134292D01*
X43587381Y-22153537D01*
X43571290Y-22171290D01*
X43553537Y-22187381D01*
X43534292Y-22201653D01*
X43513742Y-22213971D01*
X43492082Y-22224215D01*
X43469523Y-22232287D01*
X43446281Y-22238109D01*
X43422581Y-22241624D01*
X43398650Y-22242800D01*
X42910350Y-22242800D01*
X42886419Y-22241624D01*
X42862719Y-22238109D01*
X42839477Y-22232287D01*
X42816918Y-22224215D01*
X42795258Y-22213971D01*
X42774708Y-22201653D01*
X42755463Y-22187381D01*
X42737710Y-22171290D01*
X42721619Y-22153537D01*
X42707347Y-22134292D01*
X42695029Y-22113742D01*
X42684785Y-22092082D01*
X42676713Y-22069523D01*
X42670891Y-22046281D01*
X42667376Y-22022581D01*
X42666200Y-21998650D01*
X42666200Y-21435350D01*
X42667376Y-21411419D01*
X42670891Y-21387719D01*
X42676713Y-21364477D01*
X42684785Y-21341918D01*
X42695029Y-21320258D01*
X42707347Y-21299708D01*
X42721619Y-21280463D01*
X42737710Y-21262710D01*
X42755463Y-21246619D01*
X42774708Y-21232347D01*
X42795258Y-21220029D01*
X42816918Y-21209785D01*
X42839477Y-21201713D01*
X42862719Y-21195891D01*
X42886419Y-21192376D01*
X42910350Y-21191200D01*
X43398650Y-21191200D01*
X43422581Y-21192376D01*
G37*
G36*
X44997581Y-21192376D02*
G01*
X45021281Y-21195891D01*
X45044523Y-21201713D01*
X45067082Y-21209785D01*
X45088742Y-21220029D01*
X45109292Y-21232347D01*
X45128537Y-21246619D01*
X45146290Y-21262710D01*
X45162381Y-21280463D01*
X45176653Y-21299708D01*
X45188971Y-21320258D01*
X45199215Y-21341918D01*
X45207287Y-21364477D01*
X45213109Y-21387719D01*
X45216624Y-21411419D01*
X45217800Y-21435350D01*
X45217800Y-21998650D01*
X45216624Y-22022581D01*
X45213109Y-22046281D01*
X45207287Y-22069523D01*
X45199215Y-22092082D01*
X45188971Y-22113742D01*
X45176653Y-22134292D01*
X45162381Y-22153537D01*
X45146290Y-22171290D01*
X45128537Y-22187381D01*
X45109292Y-22201653D01*
X45088742Y-22213971D01*
X45067082Y-22224215D01*
X45044523Y-22232287D01*
X45021281Y-22238109D01*
X44997581Y-22241624D01*
X44973650Y-22242800D01*
X44485350Y-22242800D01*
X44461419Y-22241624D01*
X44437719Y-22238109D01*
X44414477Y-22232287D01*
X44391918Y-22224215D01*
X44370258Y-22213971D01*
X44349708Y-22201653D01*
X44330463Y-22187381D01*
X44312710Y-22171290D01*
X44296619Y-22153537D01*
X44282347Y-22134292D01*
X44270029Y-22113742D01*
X44259785Y-22092082D01*
X44251713Y-22069523D01*
X44245891Y-22046281D01*
X44242376Y-22022581D01*
X44241200Y-21998650D01*
X44241200Y-21435350D01*
X44242376Y-21411419D01*
X44245891Y-21387719D01*
X44251713Y-21364477D01*
X44259785Y-21341918D01*
X44270029Y-21320258D01*
X44282347Y-21299708D01*
X44296619Y-21280463D01*
X44312710Y-21262710D01*
X44330463Y-21246619D01*
X44349708Y-21232347D01*
X44370258Y-21220029D01*
X44391918Y-21209785D01*
X44414477Y-21201713D01*
X44437719Y-21195891D01*
X44461419Y-21192376D01*
X44485350Y-21191200D01*
X44973650Y-21191200D01*
X44997581Y-21192376D01*
G37*
G36*
X20359581Y-12175376D02*
G01*
X20383281Y-12178891D01*
X20406523Y-12184713D01*
X20429082Y-12192785D01*
X20450742Y-12203029D01*
X20471292Y-12215347D01*
X20490537Y-12229619D01*
X20508290Y-12245710D01*
X20524381Y-12263463D01*
X20538653Y-12282708D01*
X20550971Y-12303258D01*
X20561215Y-12324918D01*
X20569287Y-12347477D01*
X20575109Y-12370719D01*
X20578624Y-12394419D01*
X20579800Y-12418350D01*
X20579800Y-12981650D01*
X20578624Y-13005581D01*
X20575109Y-13029281D01*
X20569287Y-13052523D01*
X20561215Y-13075082D01*
X20550971Y-13096742D01*
X20538653Y-13117292D01*
X20524381Y-13136537D01*
X20508290Y-13154290D01*
X20490537Y-13170381D01*
X20471292Y-13184653D01*
X20450742Y-13196971D01*
X20429082Y-13207215D01*
X20406523Y-13215287D01*
X20383281Y-13221109D01*
X20359581Y-13224624D01*
X20335650Y-13225800D01*
X19847350Y-13225800D01*
X19823419Y-13224624D01*
X19799719Y-13221109D01*
X19776477Y-13215287D01*
X19753918Y-13207215D01*
X19732258Y-13196971D01*
X19711708Y-13184653D01*
X19692463Y-13170381D01*
X19674710Y-13154290D01*
X19658619Y-13136537D01*
X19644347Y-13117292D01*
X19632029Y-13096742D01*
X19621785Y-13075082D01*
X19613713Y-13052523D01*
X19607891Y-13029281D01*
X19604376Y-13005581D01*
X19603200Y-12981650D01*
X19603200Y-12418350D01*
X19604376Y-12394419D01*
X19607891Y-12370719D01*
X19613713Y-12347477D01*
X19621785Y-12324918D01*
X19632029Y-12303258D01*
X19644347Y-12282708D01*
X19658619Y-12263463D01*
X19674710Y-12245710D01*
X19692463Y-12229619D01*
X19711708Y-12215347D01*
X19732258Y-12203029D01*
X19753918Y-12192785D01*
X19776477Y-12184713D01*
X19799719Y-12178891D01*
X19823419Y-12175376D01*
X19847350Y-12174200D01*
X20335650Y-12174200D01*
X20359581Y-12175376D01*
G37*
G36*
X18784581Y-12175376D02*
G01*
X18808281Y-12178891D01*
X18831523Y-12184713D01*
X18854082Y-12192785D01*
X18875742Y-12203029D01*
X18896292Y-12215347D01*
X18915537Y-12229619D01*
X18933290Y-12245710D01*
X18949381Y-12263463D01*
X18963653Y-12282708D01*
X18975971Y-12303258D01*
X18986215Y-12324918D01*
X18994287Y-12347477D01*
X19000109Y-12370719D01*
X19003624Y-12394419D01*
X19004800Y-12418350D01*
X19004800Y-12981650D01*
X19003624Y-13005581D01*
X19000109Y-13029281D01*
X18994287Y-13052523D01*
X18986215Y-13075082D01*
X18975971Y-13096742D01*
X18963653Y-13117292D01*
X18949381Y-13136537D01*
X18933290Y-13154290D01*
X18915537Y-13170381D01*
X18896292Y-13184653D01*
X18875742Y-13196971D01*
X18854082Y-13207215D01*
X18831523Y-13215287D01*
X18808281Y-13221109D01*
X18784581Y-13224624D01*
X18760650Y-13225800D01*
X18272350Y-13225800D01*
X18248419Y-13224624D01*
X18224719Y-13221109D01*
X18201477Y-13215287D01*
X18178918Y-13207215D01*
X18157258Y-13196971D01*
X18136708Y-13184653D01*
X18117463Y-13170381D01*
X18099710Y-13154290D01*
X18083619Y-13136537D01*
X18069347Y-13117292D01*
X18057029Y-13096742D01*
X18046785Y-13075082D01*
X18038713Y-13052523D01*
X18032891Y-13029281D01*
X18029376Y-13005581D01*
X18028200Y-12981650D01*
X18028200Y-12418350D01*
X18029376Y-12394419D01*
X18032891Y-12370719D01*
X18038713Y-12347477D01*
X18046785Y-12324918D01*
X18057029Y-12303258D01*
X18069347Y-12282708D01*
X18083619Y-12263463D01*
X18099710Y-12245710D01*
X18117463Y-12229619D01*
X18136708Y-12215347D01*
X18157258Y-12203029D01*
X18178918Y-12192785D01*
X18201477Y-12184713D01*
X18224719Y-12178891D01*
X18248419Y-12175376D01*
X18272350Y-12174200D01*
X18760650Y-12174200D01*
X18784581Y-12175376D01*
G37*
G36*
X44184581Y-29447376D02*
G01*
X44208281Y-29450891D01*
X44231523Y-29456713D01*
X44254082Y-29464785D01*
X44275742Y-29475029D01*
X44296292Y-29487347D01*
X44315537Y-29501619D01*
X44333290Y-29517710D01*
X44349381Y-29535463D01*
X44363653Y-29554708D01*
X44375971Y-29575258D01*
X44386215Y-29596918D01*
X44394287Y-29619477D01*
X44400109Y-29642719D01*
X44403624Y-29666419D01*
X44404800Y-29690350D01*
X44404800Y-30253650D01*
X44403624Y-30277581D01*
X44400109Y-30301281D01*
X44394287Y-30324523D01*
X44386215Y-30347082D01*
X44375971Y-30368742D01*
X44363653Y-30389292D01*
X44349381Y-30408537D01*
X44333290Y-30426290D01*
X44315537Y-30442381D01*
X44296292Y-30456653D01*
X44275742Y-30468971D01*
X44254082Y-30479215D01*
X44231523Y-30487287D01*
X44208281Y-30493109D01*
X44184581Y-30496624D01*
X44160650Y-30497800D01*
X43672350Y-30497800D01*
X43648419Y-30496624D01*
X43624719Y-30493109D01*
X43601477Y-30487287D01*
X43578918Y-30479215D01*
X43557258Y-30468971D01*
X43536708Y-30456653D01*
X43517463Y-30442381D01*
X43499710Y-30426290D01*
X43483619Y-30408537D01*
X43469347Y-30389292D01*
X43457029Y-30368742D01*
X43446785Y-30347082D01*
X43438713Y-30324523D01*
X43432891Y-30301281D01*
X43429376Y-30277581D01*
X43428200Y-30253650D01*
X43428200Y-29690350D01*
X43429376Y-29666419D01*
X43432891Y-29642719D01*
X43438713Y-29619477D01*
X43446785Y-29596918D01*
X43457029Y-29575258D01*
X43469347Y-29554708D01*
X43483619Y-29535463D01*
X43499710Y-29517710D01*
X43517463Y-29501619D01*
X43536708Y-29487347D01*
X43557258Y-29475029D01*
X43578918Y-29464785D01*
X43601477Y-29456713D01*
X43624719Y-29450891D01*
X43648419Y-29447376D01*
X43672350Y-29446200D01*
X44160650Y-29446200D01*
X44184581Y-29447376D01*
G37*
G36*
X45759581Y-29447376D02*
G01*
X45783281Y-29450891D01*
X45806523Y-29456713D01*
X45829082Y-29464785D01*
X45850742Y-29475029D01*
X45871292Y-29487347D01*
X45890537Y-29501619D01*
X45908290Y-29517710D01*
X45924381Y-29535463D01*
X45938653Y-29554708D01*
X45950971Y-29575258D01*
X45961215Y-29596918D01*
X45969287Y-29619477D01*
X45975109Y-29642719D01*
X45978624Y-29666419D01*
X45979800Y-29690350D01*
X45979800Y-30253650D01*
X45978624Y-30277581D01*
X45975109Y-30301281D01*
X45969287Y-30324523D01*
X45961215Y-30347082D01*
X45950971Y-30368742D01*
X45938653Y-30389292D01*
X45924381Y-30408537D01*
X45908290Y-30426290D01*
X45890537Y-30442381D01*
X45871292Y-30456653D01*
X45850742Y-30468971D01*
X45829082Y-30479215D01*
X45806523Y-30487287D01*
X45783281Y-30493109D01*
X45759581Y-30496624D01*
X45735650Y-30497800D01*
X45247350Y-30497800D01*
X45223419Y-30496624D01*
X45199719Y-30493109D01*
X45176477Y-30487287D01*
X45153918Y-30479215D01*
X45132258Y-30468971D01*
X45111708Y-30456653D01*
X45092463Y-30442381D01*
X45074710Y-30426290D01*
X45058619Y-30408537D01*
X45044347Y-30389292D01*
X45032029Y-30368742D01*
X45021785Y-30347082D01*
X45013713Y-30324523D01*
X45007891Y-30301281D01*
X45004376Y-30277581D01*
X45003200Y-30253650D01*
X45003200Y-29690350D01*
X45004376Y-29666419D01*
X45007891Y-29642719D01*
X45013713Y-29619477D01*
X45021785Y-29596918D01*
X45032029Y-29575258D01*
X45044347Y-29554708D01*
X45058619Y-29535463D01*
X45074710Y-29517710D01*
X45092463Y-29501619D01*
X45111708Y-29487347D01*
X45132258Y-29475029D01*
X45153918Y-29464785D01*
X45176477Y-29456713D01*
X45199719Y-29450891D01*
X45223419Y-29447376D01*
X45247350Y-29446200D01*
X45735650Y-29446200D01*
X45759581Y-29447376D01*
G37*
G36*
X20105581Y-33320876D02*
G01*
X20129281Y-33324391D01*
X20152523Y-33330213D01*
X20175082Y-33338285D01*
X20196742Y-33348529D01*
X20217292Y-33360847D01*
X20236537Y-33375119D01*
X20254290Y-33391210D01*
X20270381Y-33408963D01*
X20284653Y-33428208D01*
X20296971Y-33448758D01*
X20307215Y-33470418D01*
X20315287Y-33492977D01*
X20321109Y-33516219D01*
X20324624Y-33539919D01*
X20325800Y-33563850D01*
X20325800Y-34127150D01*
X20324624Y-34151081D01*
X20321109Y-34174781D01*
X20315287Y-34198023D01*
X20307215Y-34220582D01*
X20296971Y-34242242D01*
X20284653Y-34262792D01*
X20270381Y-34282037D01*
X20254290Y-34299790D01*
X20236537Y-34315881D01*
X20217292Y-34330153D01*
X20196742Y-34342471D01*
X20175082Y-34352715D01*
X20152523Y-34360787D01*
X20129281Y-34366609D01*
X20105581Y-34370124D01*
X20081650Y-34371300D01*
X19593350Y-34371300D01*
X19569419Y-34370124D01*
X19545719Y-34366609D01*
X19522477Y-34360787D01*
X19499918Y-34352715D01*
X19478258Y-34342471D01*
X19457708Y-34330153D01*
X19438463Y-34315881D01*
X19420710Y-34299790D01*
X19404619Y-34282037D01*
X19390347Y-34262792D01*
X19378029Y-34242242D01*
X19367785Y-34220582D01*
X19359713Y-34198023D01*
X19353891Y-34174781D01*
X19350376Y-34151081D01*
X19349200Y-34127150D01*
X19349200Y-33563850D01*
X19350376Y-33539919D01*
X19353891Y-33516219D01*
X19359713Y-33492977D01*
X19367785Y-33470418D01*
X19378029Y-33448758D01*
X19390347Y-33428208D01*
X19404619Y-33408963D01*
X19420710Y-33391210D01*
X19438463Y-33375119D01*
X19457708Y-33360847D01*
X19478258Y-33348529D01*
X19499918Y-33338285D01*
X19522477Y-33330213D01*
X19545719Y-33324391D01*
X19569419Y-33320876D01*
X19593350Y-33319700D01*
X20081650Y-33319700D01*
X20105581Y-33320876D01*
G37*
G36*
X18530581Y-33320876D02*
G01*
X18554281Y-33324391D01*
X18577523Y-33330213D01*
X18600082Y-33338285D01*
X18621742Y-33348529D01*
X18642292Y-33360847D01*
X18661537Y-33375119D01*
X18679290Y-33391210D01*
X18695381Y-33408963D01*
X18709653Y-33428208D01*
X18721971Y-33448758D01*
X18732215Y-33470418D01*
X18740287Y-33492977D01*
X18746109Y-33516219D01*
X18749624Y-33539919D01*
X18750800Y-33563850D01*
X18750800Y-34127150D01*
X18749624Y-34151081D01*
X18746109Y-34174781D01*
X18740287Y-34198023D01*
X18732215Y-34220582D01*
X18721971Y-34242242D01*
X18709653Y-34262792D01*
X18695381Y-34282037D01*
X18679290Y-34299790D01*
X18661537Y-34315881D01*
X18642292Y-34330153D01*
X18621742Y-34342471D01*
X18600082Y-34352715D01*
X18577523Y-34360787D01*
X18554281Y-34366609D01*
X18530581Y-34370124D01*
X18506650Y-34371300D01*
X18018350Y-34371300D01*
X17994419Y-34370124D01*
X17970719Y-34366609D01*
X17947477Y-34360787D01*
X17924918Y-34352715D01*
X17903258Y-34342471D01*
X17882708Y-34330153D01*
X17863463Y-34315881D01*
X17845710Y-34299790D01*
X17829619Y-34282037D01*
X17815347Y-34262792D01*
X17803029Y-34242242D01*
X17792785Y-34220582D01*
X17784713Y-34198023D01*
X17778891Y-34174781D01*
X17775376Y-34151081D01*
X17774200Y-34127150D01*
X17774200Y-33563850D01*
X17775376Y-33539919D01*
X17778891Y-33516219D01*
X17784713Y-33492977D01*
X17792785Y-33470418D01*
X17803029Y-33448758D01*
X17815347Y-33428208D01*
X17829619Y-33408963D01*
X17845710Y-33391210D01*
X17863463Y-33375119D01*
X17882708Y-33360847D01*
X17903258Y-33348529D01*
X17924918Y-33338285D01*
X17947477Y-33330213D01*
X17970719Y-33324391D01*
X17994419Y-33320876D01*
X18018350Y-33319700D01*
X18506650Y-33319700D01*
X18530581Y-33320876D01*
G37*
G36*
X48121581Y-10016376D02*
G01*
X48145281Y-10019891D01*
X48168523Y-10025713D01*
X48191082Y-10033785D01*
X48212742Y-10044029D01*
X48233292Y-10056347D01*
X48252537Y-10070619D01*
X48270290Y-10086710D01*
X48286381Y-10104463D01*
X48300653Y-10123708D01*
X48312971Y-10144258D01*
X48323215Y-10165918D01*
X48331287Y-10188477D01*
X48337109Y-10211719D01*
X48340624Y-10235419D01*
X48341800Y-10259350D01*
X48341800Y-10822650D01*
X48340624Y-10846581D01*
X48337109Y-10870281D01*
X48331287Y-10893523D01*
X48323215Y-10916082D01*
X48312971Y-10937742D01*
X48300653Y-10958292D01*
X48286381Y-10977537D01*
X48270290Y-10995290D01*
X48252537Y-11011381D01*
X48233292Y-11025653D01*
X48212742Y-11037971D01*
X48191082Y-11048215D01*
X48168523Y-11056287D01*
X48145281Y-11062109D01*
X48121581Y-11065624D01*
X48097650Y-11066800D01*
X47609350Y-11066800D01*
X47585419Y-11065624D01*
X47561719Y-11062109D01*
X47538477Y-11056287D01*
X47515918Y-11048215D01*
X47494258Y-11037971D01*
X47473708Y-11025653D01*
X47454463Y-11011381D01*
X47436710Y-10995290D01*
X47420619Y-10977537D01*
X47406347Y-10958292D01*
X47394029Y-10937742D01*
X47383785Y-10916082D01*
X47375713Y-10893523D01*
X47369891Y-10870281D01*
X47366376Y-10846581D01*
X47365200Y-10822650D01*
X47365200Y-10259350D01*
X47366376Y-10235419D01*
X47369891Y-10211719D01*
X47375713Y-10188477D01*
X47383785Y-10165918D01*
X47394029Y-10144258D01*
X47406347Y-10123708D01*
X47420619Y-10104463D01*
X47436710Y-10086710D01*
X47454463Y-10070619D01*
X47473708Y-10056347D01*
X47494258Y-10044029D01*
X47515918Y-10033785D01*
X47538477Y-10025713D01*
X47561719Y-10019891D01*
X47585419Y-10016376D01*
X47609350Y-10015200D01*
X48097650Y-10015200D01*
X48121581Y-10016376D01*
G37*
G36*
X49696581Y-10016376D02*
G01*
X49720281Y-10019891D01*
X49743523Y-10025713D01*
X49766082Y-10033785D01*
X49787742Y-10044029D01*
X49808292Y-10056347D01*
X49827537Y-10070619D01*
X49845290Y-10086710D01*
X49861381Y-10104463D01*
X49875653Y-10123708D01*
X49887971Y-10144258D01*
X49898215Y-10165918D01*
X49906287Y-10188477D01*
X49912109Y-10211719D01*
X49915624Y-10235419D01*
X49916800Y-10259350D01*
X49916800Y-10822650D01*
X49915624Y-10846581D01*
X49912109Y-10870281D01*
X49906287Y-10893523D01*
X49898215Y-10916082D01*
X49887971Y-10937742D01*
X49875653Y-10958292D01*
X49861381Y-10977537D01*
X49845290Y-10995290D01*
X49827537Y-11011381D01*
X49808292Y-11025653D01*
X49787742Y-11037971D01*
X49766082Y-11048215D01*
X49743523Y-11056287D01*
X49720281Y-11062109D01*
X49696581Y-11065624D01*
X49672650Y-11066800D01*
X49184350Y-11066800D01*
X49160419Y-11065624D01*
X49136719Y-11062109D01*
X49113477Y-11056287D01*
X49090918Y-11048215D01*
X49069258Y-11037971D01*
X49048708Y-11025653D01*
X49029463Y-11011381D01*
X49011710Y-10995290D01*
X48995619Y-10977537D01*
X48981347Y-10958292D01*
X48969029Y-10937742D01*
X48958785Y-10916082D01*
X48950713Y-10893523D01*
X48944891Y-10870281D01*
X48941376Y-10846581D01*
X48940200Y-10822650D01*
X48940200Y-10259350D01*
X48941376Y-10235419D01*
X48944891Y-10211719D01*
X48950713Y-10188477D01*
X48958785Y-10165918D01*
X48969029Y-10144258D01*
X48981347Y-10123708D01*
X48995619Y-10104463D01*
X49011710Y-10086710D01*
X49029463Y-10070619D01*
X49048708Y-10056347D01*
X49069258Y-10044029D01*
X49090918Y-10033785D01*
X49113477Y-10025713D01*
X49136719Y-10019891D01*
X49160419Y-10016376D01*
X49184350Y-10015200D01*
X49672650Y-10015200D01*
X49696581Y-10016376D01*
G37*
G36*
X45124581Y-10016376D02*
G01*
X45148281Y-10019891D01*
X45171523Y-10025713D01*
X45194082Y-10033785D01*
X45215742Y-10044029D01*
X45236292Y-10056347D01*
X45255537Y-10070619D01*
X45273290Y-10086710D01*
X45289381Y-10104463D01*
X45303653Y-10123708D01*
X45315971Y-10144258D01*
X45326215Y-10165918D01*
X45334287Y-10188477D01*
X45340109Y-10211719D01*
X45343624Y-10235419D01*
X45344800Y-10259350D01*
X45344800Y-10822650D01*
X45343624Y-10846581D01*
X45340109Y-10870281D01*
X45334287Y-10893523D01*
X45326215Y-10916082D01*
X45315971Y-10937742D01*
X45303653Y-10958292D01*
X45289381Y-10977537D01*
X45273290Y-10995290D01*
X45255537Y-11011381D01*
X45236292Y-11025653D01*
X45215742Y-11037971D01*
X45194082Y-11048215D01*
X45171523Y-11056287D01*
X45148281Y-11062109D01*
X45124581Y-11065624D01*
X45100650Y-11066800D01*
X44612350Y-11066800D01*
X44588419Y-11065624D01*
X44564719Y-11062109D01*
X44541477Y-11056287D01*
X44518918Y-11048215D01*
X44497258Y-11037971D01*
X44476708Y-11025653D01*
X44457463Y-11011381D01*
X44439710Y-10995290D01*
X44423619Y-10977537D01*
X44409347Y-10958292D01*
X44397029Y-10937742D01*
X44386785Y-10916082D01*
X44378713Y-10893523D01*
X44372891Y-10870281D01*
X44369376Y-10846581D01*
X44368200Y-10822650D01*
X44368200Y-10259350D01*
X44369376Y-10235419D01*
X44372891Y-10211719D01*
X44378713Y-10188477D01*
X44386785Y-10165918D01*
X44397029Y-10144258D01*
X44409347Y-10123708D01*
X44423619Y-10104463D01*
X44439710Y-10086710D01*
X44457463Y-10070619D01*
X44476708Y-10056347D01*
X44497258Y-10044029D01*
X44518918Y-10033785D01*
X44541477Y-10025713D01*
X44564719Y-10019891D01*
X44588419Y-10016376D01*
X44612350Y-10015200D01*
X45100650Y-10015200D01*
X45124581Y-10016376D01*
G37*
G36*
X43549581Y-10016376D02*
G01*
X43573281Y-10019891D01*
X43596523Y-10025713D01*
X43619082Y-10033785D01*
X43640742Y-10044029D01*
X43661292Y-10056347D01*
X43680537Y-10070619D01*
X43698290Y-10086710D01*
X43714381Y-10104463D01*
X43728653Y-10123708D01*
X43740971Y-10144258D01*
X43751215Y-10165918D01*
X43759287Y-10188477D01*
X43765109Y-10211719D01*
X43768624Y-10235419D01*
X43769800Y-10259350D01*
X43769800Y-10822650D01*
X43768624Y-10846581D01*
X43765109Y-10870281D01*
X43759287Y-10893523D01*
X43751215Y-10916082D01*
X43740971Y-10937742D01*
X43728653Y-10958292D01*
X43714381Y-10977537D01*
X43698290Y-10995290D01*
X43680537Y-11011381D01*
X43661292Y-11025653D01*
X43640742Y-11037971D01*
X43619082Y-11048215D01*
X43596523Y-11056287D01*
X43573281Y-11062109D01*
X43549581Y-11065624D01*
X43525650Y-11066800D01*
X43037350Y-11066800D01*
X43013419Y-11065624D01*
X42989719Y-11062109D01*
X42966477Y-11056287D01*
X42943918Y-11048215D01*
X42922258Y-11037971D01*
X42901708Y-11025653D01*
X42882463Y-11011381D01*
X42864710Y-10995290D01*
X42848619Y-10977537D01*
X42834347Y-10958292D01*
X42822029Y-10937742D01*
X42811785Y-10916082D01*
X42803713Y-10893523D01*
X42797891Y-10870281D01*
X42794376Y-10846581D01*
X42793200Y-10822650D01*
X42793200Y-10259350D01*
X42794376Y-10235419D01*
X42797891Y-10211719D01*
X42803713Y-10188477D01*
X42811785Y-10165918D01*
X42822029Y-10144258D01*
X42834347Y-10123708D01*
X42848619Y-10104463D01*
X42864710Y-10086710D01*
X42882463Y-10070619D01*
X42901708Y-10056347D01*
X42922258Y-10044029D01*
X42943918Y-10033785D01*
X42966477Y-10025713D01*
X42989719Y-10019891D01*
X43013419Y-10016376D01*
X43037350Y-10015200D01*
X43525650Y-10015200D01*
X43549581Y-10016376D01*
G37*
G36*
X32576581Y-29269376D02*
G01*
X32600281Y-29272891D01*
X32623523Y-29278713D01*
X32646082Y-29286785D01*
X32667742Y-29297029D01*
X32688292Y-29309347D01*
X32707537Y-29323619D01*
X32725290Y-29339710D01*
X32741381Y-29357463D01*
X32755653Y-29376708D01*
X32767971Y-29397258D01*
X32778215Y-29418918D01*
X32786287Y-29441477D01*
X32792109Y-29464719D01*
X32795624Y-29488419D01*
X32796800Y-29512350D01*
X32796800Y-30075650D01*
X32795624Y-30099581D01*
X32792109Y-30123281D01*
X32786287Y-30146523D01*
X32778215Y-30169082D01*
X32767971Y-30190742D01*
X32755653Y-30211292D01*
X32741381Y-30230537D01*
X32725290Y-30248290D01*
X32707537Y-30264381D01*
X32688292Y-30278653D01*
X32667742Y-30290971D01*
X32646082Y-30301215D01*
X32623523Y-30309287D01*
X32600281Y-30315109D01*
X32576581Y-30318624D01*
X32552650Y-30319800D01*
X32064350Y-30319800D01*
X32040419Y-30318624D01*
X32016719Y-30315109D01*
X31993477Y-30309287D01*
X31970918Y-30301215D01*
X31949258Y-30290971D01*
X31928708Y-30278653D01*
X31909463Y-30264381D01*
X31891710Y-30248290D01*
X31875619Y-30230537D01*
X31861347Y-30211292D01*
X31849029Y-30190742D01*
X31838785Y-30169082D01*
X31830713Y-30146523D01*
X31824891Y-30123281D01*
X31821376Y-30099581D01*
X31820200Y-30075650D01*
X31820200Y-29512350D01*
X31821376Y-29488419D01*
X31824891Y-29464719D01*
X31830713Y-29441477D01*
X31838785Y-29418918D01*
X31849029Y-29397258D01*
X31861347Y-29376708D01*
X31875619Y-29357463D01*
X31891710Y-29339710D01*
X31909463Y-29323619D01*
X31928708Y-29309347D01*
X31949258Y-29297029D01*
X31970918Y-29286785D01*
X31993477Y-29278713D01*
X32016719Y-29272891D01*
X32040419Y-29269376D01*
X32064350Y-29268200D01*
X32552650Y-29268200D01*
X32576581Y-29269376D01*
G37*
G36*
X34151581Y-29269376D02*
G01*
X34175281Y-29272891D01*
X34198523Y-29278713D01*
X34221082Y-29286785D01*
X34242742Y-29297029D01*
X34263292Y-29309347D01*
X34282537Y-29323619D01*
X34300290Y-29339710D01*
X34316381Y-29357463D01*
X34330653Y-29376708D01*
X34342971Y-29397258D01*
X34353215Y-29418918D01*
X34361287Y-29441477D01*
X34367109Y-29464719D01*
X34370624Y-29488419D01*
X34371800Y-29512350D01*
X34371800Y-30075650D01*
X34370624Y-30099581D01*
X34367109Y-30123281D01*
X34361287Y-30146523D01*
X34353215Y-30169082D01*
X34342971Y-30190742D01*
X34330653Y-30211292D01*
X34316381Y-30230537D01*
X34300290Y-30248290D01*
X34282537Y-30264381D01*
X34263292Y-30278653D01*
X34242742Y-30290971D01*
X34221082Y-30301215D01*
X34198523Y-30309287D01*
X34175281Y-30315109D01*
X34151581Y-30318624D01*
X34127650Y-30319800D01*
X33639350Y-30319800D01*
X33615419Y-30318624D01*
X33591719Y-30315109D01*
X33568477Y-30309287D01*
X33545918Y-30301215D01*
X33524258Y-30290971D01*
X33503708Y-30278653D01*
X33484463Y-30264381D01*
X33466710Y-30248290D01*
X33450619Y-30230537D01*
X33436347Y-30211292D01*
X33424029Y-30190742D01*
X33413785Y-30169082D01*
X33405713Y-30146523D01*
X33399891Y-30123281D01*
X33396376Y-30099581D01*
X33395200Y-30075650D01*
X33395200Y-29512350D01*
X33396376Y-29488419D01*
X33399891Y-29464719D01*
X33405713Y-29441477D01*
X33413785Y-29418918D01*
X33424029Y-29397258D01*
X33436347Y-29376708D01*
X33450619Y-29357463D01*
X33466710Y-29339710D01*
X33484463Y-29323619D01*
X33503708Y-29309347D01*
X33524258Y-29297029D01*
X33545918Y-29286785D01*
X33568477Y-29278713D01*
X33591719Y-29272891D01*
X33615419Y-29269376D01*
X33639350Y-29268200D01*
X34127650Y-29268200D01*
X34151581Y-29269376D01*
G37*
G36*
X16422581Y-17763376D02*
G01*
X16446281Y-17766891D01*
X16469523Y-17772713D01*
X16492082Y-17780785D01*
X16513742Y-17791029D01*
X16534292Y-17803347D01*
X16553537Y-17817619D01*
X16571290Y-17833710D01*
X16587381Y-17851463D01*
X16601653Y-17870708D01*
X16613971Y-17891258D01*
X16624215Y-17912918D01*
X16632287Y-17935477D01*
X16638109Y-17958719D01*
X16641624Y-17982419D01*
X16642800Y-18006350D01*
X16642800Y-18569650D01*
X16641624Y-18593581D01*
X16638109Y-18617281D01*
X16632287Y-18640523D01*
X16624215Y-18663082D01*
X16613971Y-18684742D01*
X16601653Y-18705292D01*
X16587381Y-18724537D01*
X16571290Y-18742290D01*
X16553537Y-18758381D01*
X16534292Y-18772653D01*
X16513742Y-18784971D01*
X16492082Y-18795215D01*
X16469523Y-18803287D01*
X16446281Y-18809109D01*
X16422581Y-18812624D01*
X16398650Y-18813800D01*
X15910350Y-18813800D01*
X15886419Y-18812624D01*
X15862719Y-18809109D01*
X15839477Y-18803287D01*
X15816918Y-18795215D01*
X15795258Y-18784971D01*
X15774708Y-18772653D01*
X15755463Y-18758381D01*
X15737710Y-18742290D01*
X15721619Y-18724537D01*
X15707347Y-18705292D01*
X15695029Y-18684742D01*
X15684785Y-18663082D01*
X15676713Y-18640523D01*
X15670891Y-18617281D01*
X15667376Y-18593581D01*
X15666200Y-18569650D01*
X15666200Y-18006350D01*
X15667376Y-17982419D01*
X15670891Y-17958719D01*
X15676713Y-17935477D01*
X15684785Y-17912918D01*
X15695029Y-17891258D01*
X15707347Y-17870708D01*
X15721619Y-17851463D01*
X15737710Y-17833710D01*
X15755463Y-17817619D01*
X15774708Y-17803347D01*
X15795258Y-17791029D01*
X15816918Y-17780785D01*
X15839477Y-17772713D01*
X15862719Y-17766891D01*
X15886419Y-17763376D01*
X15910350Y-17762200D01*
X16398650Y-17762200D01*
X16422581Y-17763376D01*
G37*
G36*
X14847581Y-17763376D02*
G01*
X14871281Y-17766891D01*
X14894523Y-17772713D01*
X14917082Y-17780785D01*
X14938742Y-17791029D01*
X14959292Y-17803347D01*
X14978537Y-17817619D01*
X14996290Y-17833710D01*
X15012381Y-17851463D01*
X15026653Y-17870708D01*
X15038971Y-17891258D01*
X15049215Y-17912918D01*
X15057287Y-17935477D01*
X15063109Y-17958719D01*
X15066624Y-17982419D01*
X15067800Y-18006350D01*
X15067800Y-18569650D01*
X15066624Y-18593581D01*
X15063109Y-18617281D01*
X15057287Y-18640523D01*
X15049215Y-18663082D01*
X15038971Y-18684742D01*
X15026653Y-18705292D01*
X15012381Y-18724537D01*
X14996290Y-18742290D01*
X14978537Y-18758381D01*
X14959292Y-18772653D01*
X14938742Y-18784971D01*
X14917082Y-18795215D01*
X14894523Y-18803287D01*
X14871281Y-18809109D01*
X14847581Y-18812624D01*
X14823650Y-18813800D01*
X14335350Y-18813800D01*
X14311419Y-18812624D01*
X14287719Y-18809109D01*
X14264477Y-18803287D01*
X14241918Y-18795215D01*
X14220258Y-18784971D01*
X14199708Y-18772653D01*
X14180463Y-18758381D01*
X14162710Y-18742290D01*
X14146619Y-18724537D01*
X14132347Y-18705292D01*
X14120029Y-18684742D01*
X14109785Y-18663082D01*
X14101713Y-18640523D01*
X14095891Y-18617281D01*
X14092376Y-18593581D01*
X14091200Y-18569650D01*
X14091200Y-18006350D01*
X14092376Y-17982419D01*
X14095891Y-17958719D01*
X14101713Y-17935477D01*
X14109785Y-17912918D01*
X14120029Y-17891258D01*
X14132347Y-17870708D01*
X14146619Y-17851463D01*
X14162710Y-17833710D01*
X14180463Y-17817619D01*
X14199708Y-17803347D01*
X14220258Y-17791029D01*
X14241918Y-17780785D01*
X14264477Y-17772713D01*
X14287719Y-17766891D01*
X14311419Y-17763376D01*
X14335350Y-17762200D01*
X14823650Y-17762200D01*
X14847581Y-17763376D01*
G37*
G36*
X16422581Y-16239376D02*
G01*
X16446281Y-16242891D01*
X16469523Y-16248713D01*
X16492082Y-16256785D01*
X16513742Y-16267029D01*
X16534292Y-16279347D01*
X16553537Y-16293619D01*
X16571290Y-16309710D01*
X16587381Y-16327463D01*
X16601653Y-16346708D01*
X16613971Y-16367258D01*
X16624215Y-16388918D01*
X16632287Y-16411477D01*
X16638109Y-16434719D01*
X16641624Y-16458419D01*
X16642800Y-16482350D01*
X16642800Y-17045650D01*
X16641624Y-17069581D01*
X16638109Y-17093281D01*
X16632287Y-17116523D01*
X16624215Y-17139082D01*
X16613971Y-17160742D01*
X16601653Y-17181292D01*
X16587381Y-17200537D01*
X16571290Y-17218290D01*
X16553537Y-17234381D01*
X16534292Y-17248653D01*
X16513742Y-17260971D01*
X16492082Y-17271215D01*
X16469523Y-17279287D01*
X16446281Y-17285109D01*
X16422581Y-17288624D01*
X16398650Y-17289800D01*
X15910350Y-17289800D01*
X15886419Y-17288624D01*
X15862719Y-17285109D01*
X15839477Y-17279287D01*
X15816918Y-17271215D01*
X15795258Y-17260971D01*
X15774708Y-17248653D01*
X15755463Y-17234381D01*
X15737710Y-17218290D01*
X15721619Y-17200537D01*
X15707347Y-17181292D01*
X15695029Y-17160742D01*
X15684785Y-17139082D01*
X15676713Y-17116523D01*
X15670891Y-17093281D01*
X15667376Y-17069581D01*
X15666200Y-17045650D01*
X15666200Y-16482350D01*
X15667376Y-16458419D01*
X15670891Y-16434719D01*
X15676713Y-16411477D01*
X15684785Y-16388918D01*
X15695029Y-16367258D01*
X15707347Y-16346708D01*
X15721619Y-16327463D01*
X15737710Y-16309710D01*
X15755463Y-16293619D01*
X15774708Y-16279347D01*
X15795258Y-16267029D01*
X15816918Y-16256785D01*
X15839477Y-16248713D01*
X15862719Y-16242891D01*
X15886419Y-16239376D01*
X15910350Y-16238200D01*
X16398650Y-16238200D01*
X16422581Y-16239376D01*
G37*
G36*
X14847581Y-16239376D02*
G01*
X14871281Y-16242891D01*
X14894523Y-16248713D01*
X14917082Y-16256785D01*
X14938742Y-16267029D01*
X14959292Y-16279347D01*
X14978537Y-16293619D01*
X14996290Y-16309710D01*
X15012381Y-16327463D01*
X15026653Y-16346708D01*
X15038971Y-16367258D01*
X15049215Y-16388918D01*
X15057287Y-16411477D01*
X15063109Y-16434719D01*
X15066624Y-16458419D01*
X15067800Y-16482350D01*
X15067800Y-17045650D01*
X15066624Y-17069581D01*
X15063109Y-17093281D01*
X15057287Y-17116523D01*
X15049215Y-17139082D01*
X15038971Y-17160742D01*
X15026653Y-17181292D01*
X15012381Y-17200537D01*
X14996290Y-17218290D01*
X14978537Y-17234381D01*
X14959292Y-17248653D01*
X14938742Y-17260971D01*
X14917082Y-17271215D01*
X14894523Y-17279287D01*
X14871281Y-17285109D01*
X14847581Y-17288624D01*
X14823650Y-17289800D01*
X14335350Y-17289800D01*
X14311419Y-17288624D01*
X14287719Y-17285109D01*
X14264477Y-17279287D01*
X14241918Y-17271215D01*
X14220258Y-17260971D01*
X14199708Y-17248653D01*
X14180463Y-17234381D01*
X14162710Y-17218290D01*
X14146619Y-17200537D01*
X14132347Y-17181292D01*
X14120029Y-17160742D01*
X14109785Y-17139082D01*
X14101713Y-17116523D01*
X14095891Y-17093281D01*
X14092376Y-17069581D01*
X14091200Y-17045650D01*
X14091200Y-16482350D01*
X14092376Y-16458419D01*
X14095891Y-16434719D01*
X14101713Y-16411477D01*
X14109785Y-16388918D01*
X14120029Y-16367258D01*
X14132347Y-16346708D01*
X14146619Y-16327463D01*
X14162710Y-16309710D01*
X14180463Y-16293619D01*
X14199708Y-16279347D01*
X14220258Y-16267029D01*
X14241918Y-16256785D01*
X14264477Y-16248713D01*
X14287719Y-16242891D01*
X14311419Y-16239376D01*
X14335350Y-16238200D01*
X14823650Y-16238200D01*
X14847581Y-16239376D01*
G37*
G36*
X19673581Y-17763376D02*
G01*
X19697281Y-17766891D01*
X19720523Y-17772713D01*
X19743082Y-17780785D01*
X19764742Y-17791029D01*
X19785292Y-17803347D01*
X19804537Y-17817619D01*
X19822290Y-17833710D01*
X19838381Y-17851463D01*
X19852653Y-17870708D01*
X19864971Y-17891258D01*
X19875215Y-17912918D01*
X19883287Y-17935477D01*
X19889109Y-17958719D01*
X19892624Y-17982419D01*
X19893800Y-18006350D01*
X19893800Y-18569650D01*
X19892624Y-18593581D01*
X19889109Y-18617281D01*
X19883287Y-18640523D01*
X19875215Y-18663082D01*
X19864971Y-18684742D01*
X19852653Y-18705292D01*
X19838381Y-18724537D01*
X19822290Y-18742290D01*
X19804537Y-18758381D01*
X19785292Y-18772653D01*
X19764742Y-18784971D01*
X19743082Y-18795215D01*
X19720523Y-18803287D01*
X19697281Y-18809109D01*
X19673581Y-18812624D01*
X19649650Y-18813800D01*
X19161350Y-18813800D01*
X19137419Y-18812624D01*
X19113719Y-18809109D01*
X19090477Y-18803287D01*
X19067918Y-18795215D01*
X19046258Y-18784971D01*
X19025708Y-18772653D01*
X19006463Y-18758381D01*
X18988710Y-18742290D01*
X18972619Y-18724537D01*
X18958347Y-18705292D01*
X18946029Y-18684742D01*
X18935785Y-18663082D01*
X18927713Y-18640523D01*
X18921891Y-18617281D01*
X18918376Y-18593581D01*
X18917200Y-18569650D01*
X18917200Y-18006350D01*
X18918376Y-17982419D01*
X18921891Y-17958719D01*
X18927713Y-17935477D01*
X18935785Y-17912918D01*
X18946029Y-17891258D01*
X18958347Y-17870708D01*
X18972619Y-17851463D01*
X18988710Y-17833710D01*
X19006463Y-17817619D01*
X19025708Y-17803347D01*
X19046258Y-17791029D01*
X19067918Y-17780785D01*
X19090477Y-17772713D01*
X19113719Y-17766891D01*
X19137419Y-17763376D01*
X19161350Y-17762200D01*
X19649650Y-17762200D01*
X19673581Y-17763376D01*
G37*
G36*
X21248581Y-17763376D02*
G01*
X21272281Y-17766891D01*
X21295523Y-17772713D01*
X21318082Y-17780785D01*
X21339742Y-17791029D01*
X21360292Y-17803347D01*
X21379537Y-17817619D01*
X21397290Y-17833710D01*
X21413381Y-17851463D01*
X21427653Y-17870708D01*
X21439971Y-17891258D01*
X21450215Y-17912918D01*
X21458287Y-17935477D01*
X21464109Y-17958719D01*
X21467624Y-17982419D01*
X21468800Y-18006350D01*
X21468800Y-18569650D01*
X21467624Y-18593581D01*
X21464109Y-18617281D01*
X21458287Y-18640523D01*
X21450215Y-18663082D01*
X21439971Y-18684742D01*
X21427653Y-18705292D01*
X21413381Y-18724537D01*
X21397290Y-18742290D01*
X21379537Y-18758381D01*
X21360292Y-18772653D01*
X21339742Y-18784971D01*
X21318082Y-18795215D01*
X21295523Y-18803287D01*
X21272281Y-18809109D01*
X21248581Y-18812624D01*
X21224650Y-18813800D01*
X20736350Y-18813800D01*
X20712419Y-18812624D01*
X20688719Y-18809109D01*
X20665477Y-18803287D01*
X20642918Y-18795215D01*
X20621258Y-18784971D01*
X20600708Y-18772653D01*
X20581463Y-18758381D01*
X20563710Y-18742290D01*
X20547619Y-18724537D01*
X20533347Y-18705292D01*
X20521029Y-18684742D01*
X20510785Y-18663082D01*
X20502713Y-18640523D01*
X20496891Y-18617281D01*
X20493376Y-18593581D01*
X20492200Y-18569650D01*
X20492200Y-18006350D01*
X20493376Y-17982419D01*
X20496891Y-17958719D01*
X20502713Y-17935477D01*
X20510785Y-17912918D01*
X20521029Y-17891258D01*
X20533347Y-17870708D01*
X20547619Y-17851463D01*
X20563710Y-17833710D01*
X20581463Y-17817619D01*
X20600708Y-17803347D01*
X20621258Y-17791029D01*
X20642918Y-17780785D01*
X20665477Y-17772713D01*
X20688719Y-17766891D01*
X20712419Y-17763376D01*
X20736350Y-17762200D01*
X21224650Y-17762200D01*
X21248581Y-17763376D01*
G37*
G36*
X19673581Y-16239376D02*
G01*
X19697281Y-16242891D01*
X19720523Y-16248713D01*
X19743082Y-16256785D01*
X19764742Y-16267029D01*
X19785292Y-16279347D01*
X19804537Y-16293619D01*
X19822290Y-16309710D01*
X19838381Y-16327463D01*
X19852653Y-16346708D01*
X19864971Y-16367258D01*
X19875215Y-16388918D01*
X19883287Y-16411477D01*
X19889109Y-16434719D01*
X19892624Y-16458419D01*
X19893800Y-16482350D01*
X19893800Y-17045650D01*
X19892624Y-17069581D01*
X19889109Y-17093281D01*
X19883287Y-17116523D01*
X19875215Y-17139082D01*
X19864971Y-17160742D01*
X19852653Y-17181292D01*
X19838381Y-17200537D01*
X19822290Y-17218290D01*
X19804537Y-17234381D01*
X19785292Y-17248653D01*
X19764742Y-17260971D01*
X19743082Y-17271215D01*
X19720523Y-17279287D01*
X19697281Y-17285109D01*
X19673581Y-17288624D01*
X19649650Y-17289800D01*
X19161350Y-17289800D01*
X19137419Y-17288624D01*
X19113719Y-17285109D01*
X19090477Y-17279287D01*
X19067918Y-17271215D01*
X19046258Y-17260971D01*
X19025708Y-17248653D01*
X19006463Y-17234381D01*
X18988710Y-17218290D01*
X18972619Y-17200537D01*
X18958347Y-17181292D01*
X18946029Y-17160742D01*
X18935785Y-17139082D01*
X18927713Y-17116523D01*
X18921891Y-17093281D01*
X18918376Y-17069581D01*
X18917200Y-17045650D01*
X18917200Y-16482350D01*
X18918376Y-16458419D01*
X18921891Y-16434719D01*
X18927713Y-16411477D01*
X18935785Y-16388918D01*
X18946029Y-16367258D01*
X18958347Y-16346708D01*
X18972619Y-16327463D01*
X18988710Y-16309710D01*
X19006463Y-16293619D01*
X19025708Y-16279347D01*
X19046258Y-16267029D01*
X19067918Y-16256785D01*
X19090477Y-16248713D01*
X19113719Y-16242891D01*
X19137419Y-16239376D01*
X19161350Y-16238200D01*
X19649650Y-16238200D01*
X19673581Y-16239376D01*
G37*
G36*
X21248581Y-16239376D02*
G01*
X21272281Y-16242891D01*
X21295523Y-16248713D01*
X21318082Y-16256785D01*
X21339742Y-16267029D01*
X21360292Y-16279347D01*
X21379537Y-16293619D01*
X21397290Y-16309710D01*
X21413381Y-16327463D01*
X21427653Y-16346708D01*
X21439971Y-16367258D01*
X21450215Y-16388918D01*
X21458287Y-16411477D01*
X21464109Y-16434719D01*
X21467624Y-16458419D01*
X21468800Y-16482350D01*
X21468800Y-17045650D01*
X21467624Y-17069581D01*
X21464109Y-17093281D01*
X21458287Y-17116523D01*
X21450215Y-17139082D01*
X21439971Y-17160742D01*
X21427653Y-17181292D01*
X21413381Y-17200537D01*
X21397290Y-17218290D01*
X21379537Y-17234381D01*
X21360292Y-17248653D01*
X21339742Y-17260971D01*
X21318082Y-17271215D01*
X21295523Y-17279287D01*
X21272281Y-17285109D01*
X21248581Y-17288624D01*
X21224650Y-17289800D01*
X20736350Y-17289800D01*
X20712419Y-17288624D01*
X20688719Y-17285109D01*
X20665477Y-17279287D01*
X20642918Y-17271215D01*
X20621258Y-17260971D01*
X20600708Y-17248653D01*
X20581463Y-17234381D01*
X20563710Y-17218290D01*
X20547619Y-17200537D01*
X20533347Y-17181292D01*
X20521029Y-17160742D01*
X20510785Y-17139082D01*
X20502713Y-17116523D01*
X20496891Y-17093281D01*
X20493376Y-17069581D01*
X20492200Y-17045650D01*
X20492200Y-16482350D01*
X20493376Y-16458419D01*
X20496891Y-16434719D01*
X20502713Y-16411477D01*
X20510785Y-16388918D01*
X20521029Y-16367258D01*
X20533347Y-16346708D01*
X20547619Y-16327463D01*
X20563710Y-16309710D01*
X20581463Y-16293619D01*
X20600708Y-16279347D01*
X20621258Y-16267029D01*
X20642918Y-16256785D01*
X20665477Y-16248713D01*
X20688719Y-16242891D01*
X20712419Y-16239376D01*
X20736350Y-16238200D01*
X21224650Y-16238200D01*
X21248581Y-16239376D01*
G37*
G36*
X16422581Y-25256376D02*
G01*
X16446281Y-25259891D01*
X16469523Y-25265713D01*
X16492082Y-25273785D01*
X16513742Y-25284029D01*
X16534292Y-25296347D01*
X16553537Y-25310619D01*
X16571290Y-25326710D01*
X16587381Y-25344463D01*
X16601653Y-25363708D01*
X16613971Y-25384258D01*
X16624215Y-25405918D01*
X16632287Y-25428477D01*
X16638109Y-25451719D01*
X16641624Y-25475419D01*
X16642800Y-25499350D01*
X16642800Y-26062650D01*
X16641624Y-26086581D01*
X16638109Y-26110281D01*
X16632287Y-26133523D01*
X16624215Y-26156082D01*
X16613971Y-26177742D01*
X16601653Y-26198292D01*
X16587381Y-26217537D01*
X16571290Y-26235290D01*
X16553537Y-26251381D01*
X16534292Y-26265653D01*
X16513742Y-26277971D01*
X16492082Y-26288215D01*
X16469523Y-26296287D01*
X16446281Y-26302109D01*
X16422581Y-26305624D01*
X16398650Y-26306800D01*
X15910350Y-26306800D01*
X15886419Y-26305624D01*
X15862719Y-26302109D01*
X15839477Y-26296287D01*
X15816918Y-26288215D01*
X15795258Y-26277971D01*
X15774708Y-26265653D01*
X15755463Y-26251381D01*
X15737710Y-26235290D01*
X15721619Y-26217537D01*
X15707347Y-26198292D01*
X15695029Y-26177742D01*
X15684785Y-26156082D01*
X15676713Y-26133523D01*
X15670891Y-26110281D01*
X15667376Y-26086581D01*
X15666200Y-26062650D01*
X15666200Y-25499350D01*
X15667376Y-25475419D01*
X15670891Y-25451719D01*
X15676713Y-25428477D01*
X15684785Y-25405918D01*
X15695029Y-25384258D01*
X15707347Y-25363708D01*
X15721619Y-25344463D01*
X15737710Y-25326710D01*
X15755463Y-25310619D01*
X15774708Y-25296347D01*
X15795258Y-25284029D01*
X15816918Y-25273785D01*
X15839477Y-25265713D01*
X15862719Y-25259891D01*
X15886419Y-25256376D01*
X15910350Y-25255200D01*
X16398650Y-25255200D01*
X16422581Y-25256376D01*
G37*
G36*
X14847581Y-25256376D02*
G01*
X14871281Y-25259891D01*
X14894523Y-25265713D01*
X14917082Y-25273785D01*
X14938742Y-25284029D01*
X14959292Y-25296347D01*
X14978537Y-25310619D01*
X14996290Y-25326710D01*
X15012381Y-25344463D01*
X15026653Y-25363708D01*
X15038971Y-25384258D01*
X15049215Y-25405918D01*
X15057287Y-25428477D01*
X15063109Y-25451719D01*
X15066624Y-25475419D01*
X15067800Y-25499350D01*
X15067800Y-26062650D01*
X15066624Y-26086581D01*
X15063109Y-26110281D01*
X15057287Y-26133523D01*
X15049215Y-26156082D01*
X15038971Y-26177742D01*
X15026653Y-26198292D01*
X15012381Y-26217537D01*
X14996290Y-26235290D01*
X14978537Y-26251381D01*
X14959292Y-26265653D01*
X14938742Y-26277971D01*
X14917082Y-26288215D01*
X14894523Y-26296287D01*
X14871281Y-26302109D01*
X14847581Y-26305624D01*
X14823650Y-26306800D01*
X14335350Y-26306800D01*
X14311419Y-26305624D01*
X14287719Y-26302109D01*
X14264477Y-26296287D01*
X14241918Y-26288215D01*
X14220258Y-26277971D01*
X14199708Y-26265653D01*
X14180463Y-26251381D01*
X14162710Y-26235290D01*
X14146619Y-26217537D01*
X14132347Y-26198292D01*
X14120029Y-26177742D01*
X14109785Y-26156082D01*
X14101713Y-26133523D01*
X14095891Y-26110281D01*
X14092376Y-26086581D01*
X14091200Y-26062650D01*
X14091200Y-25499350D01*
X14092376Y-25475419D01*
X14095891Y-25451719D01*
X14101713Y-25428477D01*
X14109785Y-25405918D01*
X14120029Y-25384258D01*
X14132347Y-25363708D01*
X14146619Y-25344463D01*
X14162710Y-25326710D01*
X14180463Y-25310619D01*
X14199708Y-25296347D01*
X14220258Y-25284029D01*
X14241918Y-25273785D01*
X14264477Y-25265713D01*
X14287719Y-25259891D01*
X14311419Y-25256376D01*
X14335350Y-25255200D01*
X14823650Y-25255200D01*
X14847581Y-25256376D01*
G37*
G36*
X16422581Y-23732376D02*
G01*
X16446281Y-23735891D01*
X16469523Y-23741713D01*
X16492082Y-23749785D01*
X16513742Y-23760029D01*
X16534292Y-23772347D01*
X16553537Y-23786619D01*
X16571290Y-23802710D01*
X16587381Y-23820463D01*
X16601653Y-23839708D01*
X16613971Y-23860258D01*
X16624215Y-23881918D01*
X16632287Y-23904477D01*
X16638109Y-23927719D01*
X16641624Y-23951419D01*
X16642800Y-23975350D01*
X16642800Y-24538650D01*
X16641624Y-24562581D01*
X16638109Y-24586281D01*
X16632287Y-24609523D01*
X16624215Y-24632082D01*
X16613971Y-24653742D01*
X16601653Y-24674292D01*
X16587381Y-24693537D01*
X16571290Y-24711290D01*
X16553537Y-24727381D01*
X16534292Y-24741653D01*
X16513742Y-24753971D01*
X16492082Y-24764215D01*
X16469523Y-24772287D01*
X16446281Y-24778109D01*
X16422581Y-24781624D01*
X16398650Y-24782800D01*
X15910350Y-24782800D01*
X15886419Y-24781624D01*
X15862719Y-24778109D01*
X15839477Y-24772287D01*
X15816918Y-24764215D01*
X15795258Y-24753971D01*
X15774708Y-24741653D01*
X15755463Y-24727381D01*
X15737710Y-24711290D01*
X15721619Y-24693537D01*
X15707347Y-24674292D01*
X15695029Y-24653742D01*
X15684785Y-24632082D01*
X15676713Y-24609523D01*
X15670891Y-24586281D01*
X15667376Y-24562581D01*
X15666200Y-24538650D01*
X15666200Y-23975350D01*
X15667376Y-23951419D01*
X15670891Y-23927719D01*
X15676713Y-23904477D01*
X15684785Y-23881918D01*
X15695029Y-23860258D01*
X15707347Y-23839708D01*
X15721619Y-23820463D01*
X15737710Y-23802710D01*
X15755463Y-23786619D01*
X15774708Y-23772347D01*
X15795258Y-23760029D01*
X15816918Y-23749785D01*
X15839477Y-23741713D01*
X15862719Y-23735891D01*
X15886419Y-23732376D01*
X15910350Y-23731200D01*
X16398650Y-23731200D01*
X16422581Y-23732376D01*
G37*
G36*
X14847581Y-23732376D02*
G01*
X14871281Y-23735891D01*
X14894523Y-23741713D01*
X14917082Y-23749785D01*
X14938742Y-23760029D01*
X14959292Y-23772347D01*
X14978537Y-23786619D01*
X14996290Y-23802710D01*
X15012381Y-23820463D01*
X15026653Y-23839708D01*
X15038971Y-23860258D01*
X15049215Y-23881918D01*
X15057287Y-23904477D01*
X15063109Y-23927719D01*
X15066624Y-23951419D01*
X15067800Y-23975350D01*
X15067800Y-24538650D01*
X15066624Y-24562581D01*
X15063109Y-24586281D01*
X15057287Y-24609523D01*
X15049215Y-24632082D01*
X15038971Y-24653742D01*
X15026653Y-24674292D01*
X15012381Y-24693537D01*
X14996290Y-24711290D01*
X14978537Y-24727381D01*
X14959292Y-24741653D01*
X14938742Y-24753971D01*
X14917082Y-24764215D01*
X14894523Y-24772287D01*
X14871281Y-24778109D01*
X14847581Y-24781624D01*
X14823650Y-24782800D01*
X14335350Y-24782800D01*
X14311419Y-24781624D01*
X14287719Y-24778109D01*
X14264477Y-24772287D01*
X14241918Y-24764215D01*
X14220258Y-24753971D01*
X14199708Y-24741653D01*
X14180463Y-24727381D01*
X14162710Y-24711290D01*
X14146619Y-24693537D01*
X14132347Y-24674292D01*
X14120029Y-24653742D01*
X14109785Y-24632082D01*
X14101713Y-24609523D01*
X14095891Y-24586281D01*
X14092376Y-24562581D01*
X14091200Y-24538650D01*
X14091200Y-23975350D01*
X14092376Y-23951419D01*
X14095891Y-23927719D01*
X14101713Y-23904477D01*
X14109785Y-23881918D01*
X14120029Y-23860258D01*
X14132347Y-23839708D01*
X14146619Y-23820463D01*
X14162710Y-23802710D01*
X14180463Y-23786619D01*
X14199708Y-23772347D01*
X14220258Y-23760029D01*
X14241918Y-23749785D01*
X14264477Y-23741713D01*
X14287719Y-23735891D01*
X14311419Y-23732376D01*
X14335350Y-23731200D01*
X14823650Y-23731200D01*
X14847581Y-23732376D01*
G37*
G36*
X19673581Y-25256376D02*
G01*
X19697281Y-25259891D01*
X19720523Y-25265713D01*
X19743082Y-25273785D01*
X19764742Y-25284029D01*
X19785292Y-25296347D01*
X19804537Y-25310619D01*
X19822290Y-25326710D01*
X19838381Y-25344463D01*
X19852653Y-25363708D01*
X19864971Y-25384258D01*
X19875215Y-25405918D01*
X19883287Y-25428477D01*
X19889109Y-25451719D01*
X19892624Y-25475419D01*
X19893800Y-25499350D01*
X19893800Y-26062650D01*
X19892624Y-26086581D01*
X19889109Y-26110281D01*
X19883287Y-26133523D01*
X19875215Y-26156082D01*
X19864971Y-26177742D01*
X19852653Y-26198292D01*
X19838381Y-26217537D01*
X19822290Y-26235290D01*
X19804537Y-26251381D01*
X19785292Y-26265653D01*
X19764742Y-26277971D01*
X19743082Y-26288215D01*
X19720523Y-26296287D01*
X19697281Y-26302109D01*
X19673581Y-26305624D01*
X19649650Y-26306800D01*
X19161350Y-26306800D01*
X19137419Y-26305624D01*
X19113719Y-26302109D01*
X19090477Y-26296287D01*
X19067918Y-26288215D01*
X19046258Y-26277971D01*
X19025708Y-26265653D01*
X19006463Y-26251381D01*
X18988710Y-26235290D01*
X18972619Y-26217537D01*
X18958347Y-26198292D01*
X18946029Y-26177742D01*
X18935785Y-26156082D01*
X18927713Y-26133523D01*
X18921891Y-26110281D01*
X18918376Y-26086581D01*
X18917200Y-26062650D01*
X18917200Y-25499350D01*
X18918376Y-25475419D01*
X18921891Y-25451719D01*
X18927713Y-25428477D01*
X18935785Y-25405918D01*
X18946029Y-25384258D01*
X18958347Y-25363708D01*
X18972619Y-25344463D01*
X18988710Y-25326710D01*
X19006463Y-25310619D01*
X19025708Y-25296347D01*
X19046258Y-25284029D01*
X19067918Y-25273785D01*
X19090477Y-25265713D01*
X19113719Y-25259891D01*
X19137419Y-25256376D01*
X19161350Y-25255200D01*
X19649650Y-25255200D01*
X19673581Y-25256376D01*
G37*
G36*
X21248581Y-25256376D02*
G01*
X21272281Y-25259891D01*
X21295523Y-25265713D01*
X21318082Y-25273785D01*
X21339742Y-25284029D01*
X21360292Y-25296347D01*
X21379537Y-25310619D01*
X21397290Y-25326710D01*
X21413381Y-25344463D01*
X21427653Y-25363708D01*
X21439971Y-25384258D01*
X21450215Y-25405918D01*
X21458287Y-25428477D01*
X21464109Y-25451719D01*
X21467624Y-25475419D01*
X21468800Y-25499350D01*
X21468800Y-26062650D01*
X21467624Y-26086581D01*
X21464109Y-26110281D01*
X21458287Y-26133523D01*
X21450215Y-26156082D01*
X21439971Y-26177742D01*
X21427653Y-26198292D01*
X21413381Y-26217537D01*
X21397290Y-26235290D01*
X21379537Y-26251381D01*
X21360292Y-26265653D01*
X21339742Y-26277971D01*
X21318082Y-26288215D01*
X21295523Y-26296287D01*
X21272281Y-26302109D01*
X21248581Y-26305624D01*
X21224650Y-26306800D01*
X20736350Y-26306800D01*
X20712419Y-26305624D01*
X20688719Y-26302109D01*
X20665477Y-26296287D01*
X20642918Y-26288215D01*
X20621258Y-26277971D01*
X20600708Y-26265653D01*
X20581463Y-26251381D01*
X20563710Y-26235290D01*
X20547619Y-26217537D01*
X20533347Y-26198292D01*
X20521029Y-26177742D01*
X20510785Y-26156082D01*
X20502713Y-26133523D01*
X20496891Y-26110281D01*
X20493376Y-26086581D01*
X20492200Y-26062650D01*
X20492200Y-25499350D01*
X20493376Y-25475419D01*
X20496891Y-25451719D01*
X20502713Y-25428477D01*
X20510785Y-25405918D01*
X20521029Y-25384258D01*
X20533347Y-25363708D01*
X20547619Y-25344463D01*
X20563710Y-25326710D01*
X20581463Y-25310619D01*
X20600708Y-25296347D01*
X20621258Y-25284029D01*
X20642918Y-25273785D01*
X20665477Y-25265713D01*
X20688719Y-25259891D01*
X20712419Y-25256376D01*
X20736350Y-25255200D01*
X21224650Y-25255200D01*
X21248581Y-25256376D01*
G37*
G36*
X19673581Y-23732376D02*
G01*
X19697281Y-23735891D01*
X19720523Y-23741713D01*
X19743082Y-23749785D01*
X19764742Y-23760029D01*
X19785292Y-23772347D01*
X19804537Y-23786619D01*
X19822290Y-23802710D01*
X19838381Y-23820463D01*
X19852653Y-23839708D01*
X19864971Y-23860258D01*
X19875215Y-23881918D01*
X19883287Y-23904477D01*
X19889109Y-23927719D01*
X19892624Y-23951419D01*
X19893800Y-23975350D01*
X19893800Y-24538650D01*
X19892624Y-24562581D01*
X19889109Y-24586281D01*
X19883287Y-24609523D01*
X19875215Y-24632082D01*
X19864971Y-24653742D01*
X19852653Y-24674292D01*
X19838381Y-24693537D01*
X19822290Y-24711290D01*
X19804537Y-24727381D01*
X19785292Y-24741653D01*
X19764742Y-24753971D01*
X19743082Y-24764215D01*
X19720523Y-24772287D01*
X19697281Y-24778109D01*
X19673581Y-24781624D01*
X19649650Y-24782800D01*
X19161350Y-24782800D01*
X19137419Y-24781624D01*
X19113719Y-24778109D01*
X19090477Y-24772287D01*
X19067918Y-24764215D01*
X19046258Y-24753971D01*
X19025708Y-24741653D01*
X19006463Y-24727381D01*
X18988710Y-24711290D01*
X18972619Y-24693537D01*
X18958347Y-24674292D01*
X18946029Y-24653742D01*
X18935785Y-24632082D01*
X18927713Y-24609523D01*
X18921891Y-24586281D01*
X18918376Y-24562581D01*
X18917200Y-24538650D01*
X18917200Y-23975350D01*
X18918376Y-23951419D01*
X18921891Y-23927719D01*
X18927713Y-23904477D01*
X18935785Y-23881918D01*
X18946029Y-23860258D01*
X18958347Y-23839708D01*
X18972619Y-23820463D01*
X18988710Y-23802710D01*
X19006463Y-23786619D01*
X19025708Y-23772347D01*
X19046258Y-23760029D01*
X19067918Y-23749785D01*
X19090477Y-23741713D01*
X19113719Y-23735891D01*
X19137419Y-23732376D01*
X19161350Y-23731200D01*
X19649650Y-23731200D01*
X19673581Y-23732376D01*
G37*
G36*
X21248581Y-23732376D02*
G01*
X21272281Y-23735891D01*
X21295523Y-23741713D01*
X21318082Y-23749785D01*
X21339742Y-23760029D01*
X21360292Y-23772347D01*
X21379537Y-23786619D01*
X21397290Y-23802710D01*
X21413381Y-23820463D01*
X21427653Y-23839708D01*
X21439971Y-23860258D01*
X21450215Y-23881918D01*
X21458287Y-23904477D01*
X21464109Y-23927719D01*
X21467624Y-23951419D01*
X21468800Y-23975350D01*
X21468800Y-24538650D01*
X21467624Y-24562581D01*
X21464109Y-24586281D01*
X21458287Y-24609523D01*
X21450215Y-24632082D01*
X21439971Y-24653742D01*
X21427653Y-24674292D01*
X21413381Y-24693537D01*
X21397290Y-24711290D01*
X21379537Y-24727381D01*
X21360292Y-24741653D01*
X21339742Y-24753971D01*
X21318082Y-24764215D01*
X21295523Y-24772287D01*
X21272281Y-24778109D01*
X21248581Y-24781624D01*
X21224650Y-24782800D01*
X20736350Y-24782800D01*
X20712419Y-24781624D01*
X20688719Y-24778109D01*
X20665477Y-24772287D01*
X20642918Y-24764215D01*
X20621258Y-24753971D01*
X20600708Y-24741653D01*
X20581463Y-24727381D01*
X20563710Y-24711290D01*
X20547619Y-24693537D01*
X20533347Y-24674292D01*
X20521029Y-24653742D01*
X20510785Y-24632082D01*
X20502713Y-24609523D01*
X20496891Y-24586281D01*
X20493376Y-24562581D01*
X20492200Y-24538650D01*
X20492200Y-23975350D01*
X20493376Y-23951419D01*
X20496891Y-23927719D01*
X20502713Y-23904477D01*
X20510785Y-23881918D01*
X20521029Y-23860258D01*
X20533347Y-23839708D01*
X20547619Y-23820463D01*
X20563710Y-23802710D01*
X20581463Y-23786619D01*
X20600708Y-23772347D01*
X20621258Y-23760029D01*
X20642918Y-23749785D01*
X20665477Y-23741713D01*
X20688719Y-23735891D01*
X20712419Y-23732376D01*
X20736350Y-23731200D01*
X21224650Y-23731200D01*
X21248581Y-23732376D01*
G37*
G36*
X47994581Y-19668376D02*
G01*
X48018281Y-19671891D01*
X48041523Y-19677713D01*
X48064082Y-19685785D01*
X48085742Y-19696029D01*
X48106292Y-19708347D01*
X48125537Y-19722619D01*
X48143290Y-19738710D01*
X48159381Y-19756463D01*
X48173653Y-19775708D01*
X48185971Y-19796258D01*
X48196215Y-19817918D01*
X48204287Y-19840477D01*
X48210109Y-19863719D01*
X48213624Y-19887419D01*
X48214800Y-19911350D01*
X48214800Y-20474650D01*
X48213624Y-20498581D01*
X48210109Y-20522281D01*
X48204287Y-20545523D01*
X48196215Y-20568082D01*
X48185971Y-20589742D01*
X48173653Y-20610292D01*
X48159381Y-20629537D01*
X48143290Y-20647290D01*
X48125537Y-20663381D01*
X48106292Y-20677653D01*
X48085742Y-20689971D01*
X48064082Y-20700215D01*
X48041523Y-20708287D01*
X48018281Y-20714109D01*
X47994581Y-20717624D01*
X47970650Y-20718800D01*
X47482350Y-20718800D01*
X47458419Y-20717624D01*
X47434719Y-20714109D01*
X47411477Y-20708287D01*
X47388918Y-20700215D01*
X47367258Y-20689971D01*
X47346708Y-20677653D01*
X47327463Y-20663381D01*
X47309710Y-20647290D01*
X47293619Y-20629537D01*
X47279347Y-20610292D01*
X47267029Y-20589742D01*
X47256785Y-20568082D01*
X47248713Y-20545523D01*
X47242891Y-20522281D01*
X47239376Y-20498581D01*
X47238200Y-20474650D01*
X47238200Y-19911350D01*
X47239376Y-19887419D01*
X47242891Y-19863719D01*
X47248713Y-19840477D01*
X47256785Y-19817918D01*
X47267029Y-19796258D01*
X47279347Y-19775708D01*
X47293619Y-19756463D01*
X47309710Y-19738710D01*
X47327463Y-19722619D01*
X47346708Y-19708347D01*
X47367258Y-19696029D01*
X47388918Y-19685785D01*
X47411477Y-19677713D01*
X47434719Y-19671891D01*
X47458419Y-19668376D01*
X47482350Y-19667200D01*
X47970650Y-19667200D01*
X47994581Y-19668376D01*
G37*
G36*
X49569581Y-19668376D02*
G01*
X49593281Y-19671891D01*
X49616523Y-19677713D01*
X49639082Y-19685785D01*
X49660742Y-19696029D01*
X49681292Y-19708347D01*
X49700537Y-19722619D01*
X49718290Y-19738710D01*
X49734381Y-19756463D01*
X49748653Y-19775708D01*
X49760971Y-19796258D01*
X49771215Y-19817918D01*
X49779287Y-19840477D01*
X49785109Y-19863719D01*
X49788624Y-19887419D01*
X49789800Y-19911350D01*
X49789800Y-20474650D01*
X49788624Y-20498581D01*
X49785109Y-20522281D01*
X49779287Y-20545523D01*
X49771215Y-20568082D01*
X49760971Y-20589742D01*
X49748653Y-20610292D01*
X49734381Y-20629537D01*
X49718290Y-20647290D01*
X49700537Y-20663381D01*
X49681292Y-20677653D01*
X49660742Y-20689971D01*
X49639082Y-20700215D01*
X49616523Y-20708287D01*
X49593281Y-20714109D01*
X49569581Y-20717624D01*
X49545650Y-20718800D01*
X49057350Y-20718800D01*
X49033419Y-20717624D01*
X49009719Y-20714109D01*
X48986477Y-20708287D01*
X48963918Y-20700215D01*
X48942258Y-20689971D01*
X48921708Y-20677653D01*
X48902463Y-20663381D01*
X48884710Y-20647290D01*
X48868619Y-20629537D01*
X48854347Y-20610292D01*
X48842029Y-20589742D01*
X48831785Y-20568082D01*
X48823713Y-20545523D01*
X48817891Y-20522281D01*
X48814376Y-20498581D01*
X48813200Y-20474650D01*
X48813200Y-19911350D01*
X48814376Y-19887419D01*
X48817891Y-19863719D01*
X48823713Y-19840477D01*
X48831785Y-19817918D01*
X48842029Y-19796258D01*
X48854347Y-19775708D01*
X48868619Y-19756463D01*
X48884710Y-19738710D01*
X48902463Y-19722619D01*
X48921708Y-19708347D01*
X48942258Y-19696029D01*
X48963918Y-19685785D01*
X48986477Y-19677713D01*
X49009719Y-19671891D01*
X49033419Y-19668376D01*
X49057350Y-19667200D01*
X49545650Y-19667200D01*
X49569581Y-19668376D01*
G37*
G36*
X44997581Y-19668376D02*
G01*
X45021281Y-19671891D01*
X45044523Y-19677713D01*
X45067082Y-19685785D01*
X45088742Y-19696029D01*
X45109292Y-19708347D01*
X45128537Y-19722619D01*
X45146290Y-19738710D01*
X45162381Y-19756463D01*
X45176653Y-19775708D01*
X45188971Y-19796258D01*
X45199215Y-19817918D01*
X45207287Y-19840477D01*
X45213109Y-19863719D01*
X45216624Y-19887419D01*
X45217800Y-19911350D01*
X45217800Y-20474650D01*
X45216624Y-20498581D01*
X45213109Y-20522281D01*
X45207287Y-20545523D01*
X45199215Y-20568082D01*
X45188971Y-20589742D01*
X45176653Y-20610292D01*
X45162381Y-20629537D01*
X45146290Y-20647290D01*
X45128537Y-20663381D01*
X45109292Y-20677653D01*
X45088742Y-20689971D01*
X45067082Y-20700215D01*
X45044523Y-20708287D01*
X45021281Y-20714109D01*
X44997581Y-20717624D01*
X44973650Y-20718800D01*
X44485350Y-20718800D01*
X44461419Y-20717624D01*
X44437719Y-20714109D01*
X44414477Y-20708287D01*
X44391918Y-20700215D01*
X44370258Y-20689971D01*
X44349708Y-20677653D01*
X44330463Y-20663381D01*
X44312710Y-20647290D01*
X44296619Y-20629537D01*
X44282347Y-20610292D01*
X44270029Y-20589742D01*
X44259785Y-20568082D01*
X44251713Y-20545523D01*
X44245891Y-20522281D01*
X44242376Y-20498581D01*
X44241200Y-20474650D01*
X44241200Y-19911350D01*
X44242376Y-19887419D01*
X44245891Y-19863719D01*
X44251713Y-19840477D01*
X44259785Y-19817918D01*
X44270029Y-19796258D01*
X44282347Y-19775708D01*
X44296619Y-19756463D01*
X44312710Y-19738710D01*
X44330463Y-19722619D01*
X44349708Y-19708347D01*
X44370258Y-19696029D01*
X44391918Y-19685785D01*
X44414477Y-19677713D01*
X44437719Y-19671891D01*
X44461419Y-19668376D01*
X44485350Y-19667200D01*
X44973650Y-19667200D01*
X44997581Y-19668376D01*
G37*
G36*
X43422581Y-19668376D02*
G01*
X43446281Y-19671891D01*
X43469523Y-19677713D01*
X43492082Y-19685785D01*
X43513742Y-19696029D01*
X43534292Y-19708347D01*
X43553537Y-19722619D01*
X43571290Y-19738710D01*
X43587381Y-19756463D01*
X43601653Y-19775708D01*
X43613971Y-19796258D01*
X43624215Y-19817918D01*
X43632287Y-19840477D01*
X43638109Y-19863719D01*
X43641624Y-19887419D01*
X43642800Y-19911350D01*
X43642800Y-20474650D01*
X43641624Y-20498581D01*
X43638109Y-20522281D01*
X43632287Y-20545523D01*
X43624215Y-20568082D01*
X43613971Y-20589742D01*
X43601653Y-20610292D01*
X43587381Y-20629537D01*
X43571290Y-20647290D01*
X43553537Y-20663381D01*
X43534292Y-20677653D01*
X43513742Y-20689971D01*
X43492082Y-20700215D01*
X43469523Y-20708287D01*
X43446281Y-20714109D01*
X43422581Y-20717624D01*
X43398650Y-20718800D01*
X42910350Y-20718800D01*
X42886419Y-20717624D01*
X42862719Y-20714109D01*
X42839477Y-20708287D01*
X42816918Y-20700215D01*
X42795258Y-20689971D01*
X42774708Y-20677653D01*
X42755463Y-20663381D01*
X42737710Y-20647290D01*
X42721619Y-20629537D01*
X42707347Y-20610292D01*
X42695029Y-20589742D01*
X42684785Y-20568082D01*
X42676713Y-20545523D01*
X42670891Y-20522281D01*
X42667376Y-20498581D01*
X42666200Y-20474650D01*
X42666200Y-19911350D01*
X42667376Y-19887419D01*
X42670891Y-19863719D01*
X42676713Y-19840477D01*
X42684785Y-19817918D01*
X42695029Y-19796258D01*
X42707347Y-19775708D01*
X42721619Y-19756463D01*
X42737710Y-19738710D01*
X42755463Y-19722619D01*
X42774708Y-19708347D01*
X42795258Y-19696029D01*
X42816918Y-19685785D01*
X42839477Y-19677713D01*
X42862719Y-19671891D01*
X42886419Y-19668376D01*
X42910350Y-19667200D01*
X43398650Y-19667200D01*
X43422581Y-19668376D01*
G37*
D18*
X18650000Y-38550000D03*
D19*
X31550000Y-40750000D03*
X31550000Y-36350000D03*
X32350000Y-36350000D03*
X32350000Y-40750000D03*
X30750000Y-40750000D03*
X30750000Y-36350000D03*
X29950000Y-36350000D03*
X29950000Y-40750000D03*
X29150000Y-36350000D03*
X29150000Y-40750000D03*
X28350000Y-40750000D03*
X28350000Y-36350000D03*
X27550000Y-40750000D03*
X27550000Y-36350000D03*
X26750000Y-36350000D03*
X26750000Y-40750000D03*
X25950000Y-36350000D03*
X25950000Y-40750000D03*
X25150000Y-36350000D03*
X25150000Y-40750000D03*
X24350000Y-36350000D03*
X24350000Y-40750000D03*
X23550000Y-40750000D03*
X23550000Y-36350000D03*
X22750000Y-40750000D03*
X22750000Y-36350000D03*
X21950000Y-40750000D03*
X21950000Y-36350000D03*
X21150000Y-36350000D03*
X21150000Y-40750000D03*
D20*
X46850000Y-38550000D03*
D19*
X39550000Y-40750000D03*
X44350000Y-40750000D03*
X34750000Y-36350000D03*
X40350000Y-36350000D03*
X42750000Y-36350000D03*
X44350000Y-36350000D03*
X41150000Y-36350000D03*
X40350000Y-40750000D03*
X38750000Y-40750000D03*
X38750000Y-36350000D03*
X42750000Y-40750000D03*
X43550000Y-36350000D03*
X33150000Y-40750000D03*
X35550000Y-36350000D03*
X34750000Y-40750000D03*
X41950000Y-40750000D03*
X35550000Y-40750000D03*
X37150000Y-40750000D03*
X41150000Y-40750000D03*
X33950000Y-40750000D03*
X39550000Y-36350000D03*
X36350000Y-36350000D03*
X37150000Y-36350000D03*
X33150000Y-36350000D03*
X36350000Y-40750000D03*
X37950000Y-40750000D03*
X37950000Y-36350000D03*
X33950000Y-36350000D03*
X41950000Y-36350000D03*
X43550000Y-40750000D03*
D20*
X47000000Y-4000000D03*
D21*
X10000000Y-6250000D03*
X10000000Y-1750000D03*
D20*
X11000000Y-4000000D03*
D21*
X12000000Y-1750000D03*
X14000000Y-1750000D03*
X16000000Y-1750000D03*
X18000000Y-1750000D03*
X20000000Y-1750000D03*
X22000000Y-1750000D03*
X24000000Y-1750000D03*
X26000000Y-1750000D03*
X28000000Y-1750000D03*
X30000000Y-1750000D03*
X32000000Y-1750000D03*
X34000000Y-1750000D03*
X36000000Y-1750000D03*
X38000000Y-1750000D03*
X40000000Y-1750000D03*
X42000000Y-1750000D03*
X44000000Y-1750000D03*
X46000000Y-1750000D03*
X48000000Y-1750000D03*
X12000000Y-6250000D03*
X14000000Y-6250000D03*
X16000000Y-6250000D03*
X18000000Y-6250000D03*
X20000000Y-6250000D03*
X22000000Y-6250000D03*
X24000000Y-6250000D03*
X26000000Y-6250000D03*
X28000000Y-6250000D03*
X30000000Y-6250000D03*
X32000000Y-6250000D03*
X34000000Y-6250000D03*
X36000000Y-6250000D03*
X38000000Y-6250000D03*
X40000000Y-6250000D03*
X42000000Y-6250000D03*
X44000000Y-6250000D03*
X46000000Y-6250000D03*
X48000000Y-6250000D03*
M02*
