M48
; DRILL file {KiCad 5.1.5-52549c5~84~ubuntu18.04.1} date Thu 13 Feb 2020 10:06:26 AM PST
; FORMAT={-:-/ absolute / inch / decimal}
; #@! TF.CreationDate,2020-02-13T10:06:26-08:00
; #@! TF.GenerationSoftware,Kicad,Pcbnew,5.1.5-52549c5~84~ubuntu18.04.1
; #@! TF.FileFunction,Plated,1,6,PTH
FMAT,2
INCH
T1C0.0118
T2C0.0157
T3C0.0382
T4C0.0433
T5C0.0650
T6C0.1063
T7C0.1280
%
G90
G05
T1
X1.188Y-1.5405
X1.243Y-1.5405
X1.3055Y-1.688
X1.3237Y-1.6646
X1.368Y-1.5405
X1.423Y-1.5405
X1.4405Y-1.7205
X1.4905Y-1.7205
X1.6158Y-0.9937
X1.623Y-0.4605
X1.6305Y-0.968
X1.6355Y-0.8905
X1.653Y-0.8155
X1.653Y-0.8655
X1.658Y-0.638
X1.658Y-0.6755
X1.658Y-0.708
X1.703Y-1.1405
X1.713Y-1.6677
X1.7205Y-1.7555
X1.748Y-1.6677
X1.7655Y-1.7798
X1.8055Y-0.943
X1.808Y-0.678
X1.838Y-0.918
X1.9155Y-1.348
X1.9355Y-1.1355
X1.9505Y-1.1955
X2.2227Y-1.892
X2.2805Y-1.893
X2.363Y-1.943
X2.408Y-1.913
X2.4205Y-2.0605
X2.458Y-1.8205
X2.4655Y-1.913
X2.478Y-2.0605
X2.498Y-1.8205
X2.508Y-1.393
X2.5205Y-1.913
X2.553Y-1.913
X2.5905Y-1.8205
X2.6044Y-1.9133
X2.628Y-1.8205
X2.6605Y-1.913
X2.6955Y-1.8705
T2
X0.0555Y-1.263
X0.1555Y-1.2155
X0.1955Y-1.963
X0.263Y-1.263
X0.3455Y-0.053
X0.3455Y-0.2605
X0.3855Y-0.348
X0.4355Y-0.063
X0.4355Y-0.2555
X0.4355Y-0.348
X0.5155Y-0.063
X0.5155Y-0.2555
X0.533Y-0.6905
X0.5345Y-0.984
X0.5555Y-1.4955
X0.558Y-1.2155
X0.558Y-1.268
X0.5583Y-1.327
X0.568Y-0.388
X0.568Y-0.4355
X0.568Y-0.498
X0.5755Y-1.9605
X0.593Y-0.063
X0.593Y-1.5455
X0.5955Y-0.2555
X0.608Y-0.338
X0.618Y-2.0105
X0.633Y-1.3705
X0.6422Y-0.5431
X0.6605Y-1.173
X0.6655Y-1.533
X0.673Y-0.063
X0.673Y-0.2555
X0.6755Y-0.6905
X0.6755Y-0.9855
X0.6955Y-1.8855
X0.7125Y-0.7625
X0.7125Y-0.8075
X0.7125Y-1.0625
X0.715Y-0.575
X0.715Y-0.6125
X0.715Y-0.87
X0.715Y-0.91
X0.723Y-0.6905
X0.723Y-0.9855
X0.73Y-1.095
X0.7355Y-1.643
X0.753Y-0.0655
X0.753Y-0.2555
X0.7705Y-1.1705
X0.7905Y-0.338
X0.8205Y-1.223
X0.8205Y-1.268
X0.8205Y-1.318
X0.8305Y-0.0655
X0.8305Y-0.2555
X0.8305Y-0.388
X0.8305Y-0.438
X0.8305Y-0.498
X0.8325Y-1.1375
X0.865Y-1.065
X0.8655Y-0.6905
X0.8655Y-0.9855
X0.8955Y-1.4955
X0.9105Y-0.063
X0.9105Y-0.2555
X0.9205Y-0.6005
X0.9205Y-0.653
X0.923Y-0.7555
X0.9255Y-0.8355
X0.9275Y-0.995
X0.928Y-0.9205
X0.988Y-0.0655
X0.988Y-0.2555
X0.9905Y-1.4955
X1.023Y-1.5405
X1.068Y-0.0655
X1.068Y-0.2555
X1.0855Y-1.4955
X1.118Y-1.5405
X1.1455Y-0.0655
X1.1455Y-0.2555
X1.1805Y-1.4955
X1.2255Y-0.0655
X1.2255Y-0.2555
X1.273Y-1.218
X1.2755Y-1.4955
X1.303Y-0.063
X1.303Y-0.2555
X1.3041Y-1.3257
X1.3055Y-1.5405
X1.333Y-1.218
X1.335Y-1.3125
X1.3675Y-1.365
X1.3805Y-0.063
X1.383Y-0.2555
X1.3975Y-1.33
X1.433Y-1.4955
X1.4605Y-0.063
X1.4605Y-0.2555
X1.4955Y-1.5405
X1.5255Y-1.4955
X1.538Y-0.063
X1.5405Y-0.2555
X1.5905Y-1.5405
X1.618Y-0.063
X1.6205Y-1.4955
X1.6305Y-0.1698
X1.638Y-1.0517
X1.6505Y-1.0205
X1.6505Y-1.083
X1.658Y-0.4155
X1.658Y-0.758
X1.683Y-1.5405
X1.688Y-1.248
X1.688Y-1.288
X1.6905Y-1.193
X1.7155Y-1.4955
X1.728Y-0.1605
X1.7655Y-0.378
X1.7705Y-0.253
X1.7805Y-0.1605
X1.788Y-1.3405
X1.793Y-1.428
X1.8005Y-0.8455
X1.8055Y-0.7955
X1.8055Y-1.0105
X1.8055Y-1.1005
X1.808Y-0.7205
X1.8305Y-1.4055
X1.838Y-0.8255
X1.8405Y-1.998
X1.8505Y-0.253
X1.878Y-0.7205
X1.878Y-1.1005
X1.8805Y-1.138
X1.8857Y-0.3782
X1.9005Y-1.998
X1.938Y-0.0555
X1.938Y-0.258
X1.943Y-2.0355
X1.9497Y-1.2887
X1.9505Y-1.248
X1.988Y-0.8005
X1.988Y-0.8605
X1.9905Y-0.4255
X1.9905Y-0.4805
X1.9905Y-0.718
X1.9937Y-1.623
X2.0005Y-1.9805
X2.248Y-1.818
X2.273Y-1.573
X2.343Y-0.083
X2.348Y-1.733
X2.3555Y-1.4155
X2.3555Y-1.468
X2.3688Y-1.8605
X2.4455Y-1.6861
X2.4455Y-1.7205
X2.4455Y-1.7555
X2.538Y-2.0605
X2.5455Y-0.083
X2.5955Y-2.0605
X2.6313Y-1.763
X2.653Y-2.0605
X2.7105Y-2.0605
X2.7255Y-0.1255
X2.7255Y-0.2155
X2.738Y-1.6148
X2.738Y-1.6664
X2.7855Y-1.9105
X2.7955Y-1.798
X2.8405Y-1.5905
X2.8855Y-1.488
X2.8855Y-1.548
X2.9455Y-1.6305
X2.9455Y-1.6905
X2.9455Y-1.7505
X2.9455Y-1.8105
X3.1355Y-2.0155
T3
X2.5655Y-0.6255
X2.5655Y-0.7255
X2.5655Y-0.8255
X2.5655Y-0.9255
X2.5655Y-1.0255
X2.6655Y-0.5755
X2.6655Y-0.6755
X2.6655Y-0.7755
X2.6655Y-0.8755
X2.6655Y-0.9755
T4
X2.3753Y-0.5853
X2.3753Y-0.6853
X2.3753Y-0.9156
X2.3753Y-1.0156
T5
X2.795Y-0.4956
X2.795Y-1.1054
T6
X3.189Y-0.1575
X0.1575Y-1.3976
X3.189Y-1.3976
X0.1575Y-0.1575
T7
X2.9155Y-0.5755
X2.9155Y-1.0255
T0
M30
