G04 #@! TF.GenerationSoftware,KiCad,Pcbnew,5.1.5-52549c5~84~ubuntu18.04.1*
G04 #@! TF.CreationDate,2020-02-13T10:06:29-08:00*
G04 #@! TF.ProjectId,EthernetBoard,45746865-726e-4657-9442-6f6172642e6b,A*
G04 #@! TF.SameCoordinates,PX5f5e100PY5f5e100*
G04 #@! TF.FileFunction,Legend,Top*
G04 #@! TF.FilePolarity,Positive*
%FSLAX46Y46*%
G04 Gerber Fmt 4.6, Leading zero omitted, Abs format (unit mm)*
G04 Created by KiCad (PCBNEW 5.1.5-52549c5~84~ubuntu18.04.1) date 2020-02-13 10:06:29*
%MOMM*%
%LPD*%
G04 APERTURE LIST*
%ADD10C,0.100000*%
%ADD11C,0.300000*%
%ADD12C,0.120000*%
%ADD13C,0.200000*%
%ADD14C,0.127000*%
%ADD15C,0.150000*%
%ADD16C,0.152400*%
%ADD17C,0.254000*%
%ADD18C,0.153000*%
G04 APERTURE END LIST*
D10*
X0Y-54000000D02*
X84999492Y-54000000D01*
X84999492Y0D02*
X84999492Y-54000000D01*
X0Y-54000000D02*
X0Y0D01*
X0Y0D02*
X84999492Y0D01*
D11*
X67553500Y-11617500D02*
G75*
G02X67553500Y-11417500I0J100000D01*
G01*
X67553500Y-11417500D02*
G75*
G02X67553500Y-11617500I0J-100000D01*
G01*
X67553500Y-11417500D02*
X67553500Y-11417500D01*
X67553500Y-11617500D02*
X67553500Y-11617500D01*
D10*
X84843500Y-12267500D02*
X73553500Y-12267500D01*
X84843500Y-28117500D02*
X84843500Y-12267500D01*
X73053500Y-28397500D02*
X84553500Y-28397500D01*
D12*
X64213000Y-37246779D02*
X64213000Y-36921221D01*
X63193000Y-37246779D02*
X63193000Y-36921221D01*
D13*
X60198200Y-41120600D02*
G75*
G03X60198200Y-41120600I-100000J0D01*
G01*
D14*
X67998200Y-47420600D02*
X67698200Y-47420600D01*
X67998200Y-47120600D02*
X67998200Y-47420600D01*
X60998200Y-47420600D02*
X60998200Y-47120600D01*
X61298200Y-47420600D02*
X60998200Y-47420600D01*
X67998200Y-40420600D02*
X67998200Y-40720600D01*
X67698200Y-40420600D02*
X67998200Y-40420600D01*
X60998200Y-40420600D02*
X61298200Y-40420600D01*
X60998200Y-40720600D02*
X60998200Y-40420600D01*
X19980000Y-14082500D02*
X15580000Y-14082500D01*
X19980000Y-20969500D02*
X15580000Y-20969500D01*
D13*
X22130000Y-20776000D02*
G75*
G03X22130000Y-20776000I-100000J0D01*
G01*
D15*
X8026400Y-31648400D02*
X50800Y-31648400D01*
X8048000Y-8140000D02*
X48000Y-8140000D01*
X8048000Y-31648400D02*
X8048000Y-8140000D01*
X48000Y-8140000D02*
X50800Y-31648400D01*
D12*
X79131500Y-49125721D02*
X79131500Y-49451279D01*
X80151500Y-49125721D02*
X80151500Y-49451279D01*
X71261500Y-50619779D02*
X71261500Y-50294221D01*
X70241500Y-50619779D02*
X70241500Y-50294221D01*
D10*
X74684000Y-51257000D02*
X75684000Y-51257000D01*
X74684000Y-48057000D02*
X75684000Y-48057000D01*
D13*
X20280000Y-12726000D02*
X19180000Y-12726000D01*
X18830000Y-9701000D02*
X18830000Y-12651000D01*
X16730000Y-9701000D02*
X18830000Y-9701000D01*
X16730000Y-12651000D02*
X16730000Y-9701000D01*
X18830000Y-12651000D02*
X16730000Y-12651000D01*
X43728000Y-29946000D02*
X44828000Y-29946000D01*
X45178000Y-32971000D02*
X45178000Y-30021000D01*
X47278000Y-32971000D02*
X45178000Y-32971000D01*
X47278000Y-30021000D02*
X47278000Y-32971000D01*
X45178000Y-30021000D02*
X47278000Y-30021000D01*
X20026000Y-33871500D02*
X18926000Y-33871500D01*
X18576000Y-30846500D02*
X18576000Y-33796500D01*
X16476000Y-30846500D02*
X18576000Y-30846500D01*
X16476000Y-33796500D02*
X16476000Y-30846500D01*
X18576000Y-33796500D02*
X16476000Y-33796500D01*
D14*
X19980000Y-21575500D02*
X15580000Y-21575500D01*
X19980000Y-28462500D02*
X15580000Y-28462500D01*
D13*
X22130000Y-28269000D02*
G75*
G03X22130000Y-28269000I-100000J0D01*
G01*
X42680000Y-10455000D02*
X44155000Y-10455000D01*
X44505000Y-18505000D02*
X44505000Y-10705000D01*
X48205000Y-18505000D02*
X44505000Y-18505000D01*
X48205000Y-10705000D02*
X48205000Y-18505000D01*
X44505000Y-10705000D02*
X48205000Y-10705000D01*
X42553000Y-20107000D02*
X44028000Y-20107000D01*
X44378000Y-28157000D02*
X44378000Y-20357000D01*
X48078000Y-28157000D02*
X44378000Y-28157000D01*
X48078000Y-20357000D02*
X48078000Y-28157000D01*
X44378000Y-20357000D02*
X48078000Y-20357000D01*
D12*
X11394221Y-30291500D02*
X11719779Y-30291500D01*
X11394221Y-29271500D02*
X11719779Y-29271500D01*
X11719779Y-30795500D02*
X11394221Y-30795500D01*
X11719779Y-31815500D02*
X11394221Y-31815500D01*
X11394221Y-34863500D02*
X11719779Y-34863500D01*
X11394221Y-33843500D02*
X11719779Y-33843500D01*
X11694279Y-32319500D02*
X11368721Y-32319500D01*
X11694279Y-33339500D02*
X11368721Y-33339500D01*
X70957221Y-3685000D02*
X71282779Y-3685000D01*
X70957221Y-2665000D02*
X71282779Y-2665000D01*
X70988422Y-6171000D02*
X71505578Y-6171000D01*
X70988422Y-4751000D02*
X71505578Y-4751000D01*
D16*
X46812200Y-48031400D02*
X46812200Y-48742600D01*
X48615600Y-47599600D02*
X47904400Y-47599600D01*
X49707800Y-48742600D02*
X49707800Y-48031400D01*
D13*
X10120000Y-49195000D02*
X10120000Y-47668000D01*
X15152000Y-47318000D02*
X10248000Y-47318000D01*
X15152000Y-44122000D02*
X15152000Y-47318000D01*
X10248000Y-44122000D02*
X15152000Y-44122000D01*
X10248000Y-47318000D02*
X10248000Y-44122000D01*
D17*
X58641000Y-2443500D02*
G75*
G03X58641000Y-2443500I-100000J0D01*
G01*
D13*
X60762000Y-6338500D02*
X60762000Y-3338500D01*
X58262000Y-6338500D02*
X58262000Y-3338500D01*
D17*
X63784500Y-2443500D02*
G75*
G03X63784500Y-2443500I-100000J0D01*
G01*
D13*
X65905500Y-6338500D02*
X65905500Y-3338500D01*
X63405500Y-6338500D02*
X63405500Y-3338500D01*
D12*
X68336500Y-50319721D02*
X68336500Y-50645279D01*
X69356500Y-50319721D02*
X69356500Y-50645279D01*
X57749221Y-47703000D02*
X58074779Y-47703000D01*
X57749221Y-46683000D02*
X58074779Y-46683000D01*
X57761721Y-49417500D02*
X58087279Y-49417500D01*
X57761721Y-48397500D02*
X58087279Y-48397500D01*
X53951721Y-41734000D02*
X54277279Y-41734000D01*
X53951721Y-40714000D02*
X54277279Y-40714000D01*
X47998748Y-45687000D02*
X48521252Y-45687000D01*
X47998748Y-43467000D02*
X48521252Y-43467000D01*
D13*
X7953000Y-44997000D02*
X7953000Y-46697000D01*
X1953000Y-44997000D02*
X1953000Y-46697000D01*
D12*
X14327500Y-41589000D02*
X10427500Y-41589000D01*
X14327500Y-39589000D02*
X10427500Y-39589000D01*
X14327500Y-41589000D02*
X14327500Y-39589000D01*
X50290000Y-48351221D02*
X50290000Y-48676779D01*
X51310000Y-48351221D02*
X51310000Y-48676779D01*
X47335221Y-52199000D02*
X47660779Y-52199000D01*
X47335221Y-51179000D02*
X47660779Y-51179000D01*
X9654000Y-46263779D02*
X9654000Y-45938221D01*
X8634000Y-46263779D02*
X8634000Y-45938221D01*
X19363000Y-52401000D02*
X19363000Y-45641000D01*
X15943000Y-52401000D02*
X19363000Y-52401000D01*
X15943000Y-45641000D02*
X15943000Y-52401000D01*
X15956000Y-39600000D02*
X15956000Y-43510000D01*
X17826000Y-39600000D02*
X15956000Y-39600000D01*
X17826000Y-43510000D02*
X17826000Y-39600000D01*
X72735221Y-46484000D02*
X73060779Y-46484000D01*
X72735221Y-45464000D02*
X73060779Y-45464000D01*
X72735221Y-44960000D02*
X73060779Y-44960000D01*
X72735221Y-43940000D02*
X73060779Y-43940000D01*
X66876000Y-50319721D02*
X66876000Y-50645279D01*
X67896000Y-50319721D02*
X67896000Y-50645279D01*
X60970500Y-50319721D02*
X60970500Y-50645279D01*
X61990500Y-50319721D02*
X61990500Y-50645279D01*
X58074779Y-44714500D02*
X57749221Y-44714500D01*
X58074779Y-45734500D02*
X57749221Y-45734500D01*
X61419000Y-37246779D02*
X61419000Y-36921221D01*
X60399000Y-37246779D02*
X60399000Y-36921221D01*
X58074779Y-43241500D02*
X57749221Y-43241500D01*
X58074779Y-44261500D02*
X57749221Y-44261500D01*
X62431000Y-50319721D02*
X62431000Y-50645279D01*
X63451000Y-50319721D02*
X63451000Y-50645279D01*
X63942500Y-50319721D02*
X63942500Y-50645279D01*
X64962500Y-50319721D02*
X64962500Y-50645279D01*
X65415500Y-50319721D02*
X65415500Y-50645279D01*
X66435500Y-50319721D02*
X66435500Y-50645279D01*
X72735221Y-41912000D02*
X73060779Y-41912000D01*
X72735221Y-40892000D02*
X73060779Y-40892000D01*
X72735221Y-43436000D02*
X73060779Y-43436000D01*
X72735221Y-42416000D02*
X73060779Y-42416000D01*
X71122000Y-42326779D02*
X71122000Y-42001221D01*
X70102000Y-42326779D02*
X70102000Y-42001221D01*
X58074779Y-40765000D02*
X57749221Y-40765000D01*
X58074779Y-41785000D02*
X57749221Y-41785000D01*
X71172721Y-39816500D02*
X71498279Y-39816500D01*
X71172721Y-38796500D02*
X71498279Y-38796500D01*
X71172721Y-38292500D02*
X71498279Y-38292500D01*
X71172721Y-37272500D02*
X71498279Y-37272500D01*
D15*
X9250000Y-8000000D02*
X48750000Y-8000000D01*
X48750000Y0D02*
X9250000Y0D01*
X9250000Y0D02*
X9250000Y-8000000D01*
X48750000Y0D02*
X48750000Y-8000000D01*
D18*
X57376880Y-21110333D02*
X58091166Y-21110333D01*
X58234023Y-21157952D01*
X58329261Y-21253190D01*
X58376880Y-21396047D01*
X58376880Y-21491285D01*
X57710214Y-20205571D02*
X58376880Y-20205571D01*
X57329261Y-20443666D02*
X58043547Y-20681761D01*
X58043547Y-20062714D01*
X62630142Y-37726857D02*
X62677761Y-37774476D01*
X62725380Y-37917333D01*
X62725380Y-38012571D01*
X62677761Y-38155428D01*
X62582523Y-38250666D01*
X62487285Y-38298285D01*
X62296809Y-38345904D01*
X62153952Y-38345904D01*
X61963476Y-38298285D01*
X61868238Y-38250666D01*
X61773000Y-38155428D01*
X61725380Y-38012571D01*
X61725380Y-37917333D01*
X61773000Y-37774476D01*
X61820619Y-37726857D01*
X62725380Y-36774476D02*
X62725380Y-37345904D01*
X62725380Y-37060190D02*
X61725380Y-37060190D01*
X61868238Y-37155428D01*
X61963476Y-37250666D01*
X62011095Y-37345904D01*
X62058714Y-35917333D02*
X62725380Y-35917333D01*
X61677761Y-36155428D02*
X62392047Y-36393523D01*
X62392047Y-35774476D01*
X63711295Y-38537980D02*
X63711295Y-39347504D01*
X63758914Y-39442742D01*
X63806533Y-39490361D01*
X63901771Y-39537980D01*
X64092247Y-39537980D01*
X64187485Y-39490361D01*
X64235104Y-39442742D01*
X64282723Y-39347504D01*
X64282723Y-38537980D01*
X64711295Y-38633219D02*
X64758914Y-38585600D01*
X64854152Y-38537980D01*
X65092247Y-38537980D01*
X65187485Y-38585600D01*
X65235104Y-38633219D01*
X65282723Y-38728457D01*
X65282723Y-38823695D01*
X65235104Y-38966552D01*
X64663676Y-39537980D01*
X65282723Y-39537980D01*
X17094095Y-12990380D02*
X17094095Y-13799904D01*
X17141714Y-13895142D01*
X17189333Y-13942761D01*
X17284571Y-13990380D01*
X17475047Y-13990380D01*
X17570285Y-13942761D01*
X17617904Y-13895142D01*
X17665523Y-13799904D01*
X17665523Y-12990380D01*
X18046476Y-12990380D02*
X18713142Y-12990380D01*
X18284571Y-13990380D01*
X3806666Y-6894380D02*
X3806666Y-7608666D01*
X3759047Y-7751523D01*
X3663809Y-7846761D01*
X3520952Y-7894380D01*
X3425714Y-7894380D01*
X4759047Y-6894380D02*
X4282857Y-6894380D01*
X4235238Y-7370571D01*
X4282857Y-7322952D01*
X4378095Y-7275333D01*
X4616190Y-7275333D01*
X4711428Y-7322952D01*
X4759047Y-7370571D01*
X4806666Y-7465809D01*
X4806666Y-7703904D01*
X4759047Y-7799142D01*
X4711428Y-7846761D01*
X4616190Y-7894380D01*
X4378095Y-7894380D01*
X4282857Y-7846761D01*
X4235238Y-7799142D01*
X80189142Y-46724666D02*
X80236761Y-46772285D01*
X80284380Y-46915142D01*
X80284380Y-47010380D01*
X80236761Y-47153238D01*
X80141523Y-47248476D01*
X80046285Y-47296095D01*
X79855809Y-47343714D01*
X79712952Y-47343714D01*
X79522476Y-47296095D01*
X79427238Y-47248476D01*
X79332000Y-47153238D01*
X79284380Y-47010380D01*
X79284380Y-46915142D01*
X79332000Y-46772285D01*
X79379619Y-46724666D01*
X79284380Y-45819904D02*
X79284380Y-46296095D01*
X79760571Y-46343714D01*
X79712952Y-46296095D01*
X79665333Y-46200857D01*
X79665333Y-45962761D01*
X79712952Y-45867523D01*
X79760571Y-45819904D01*
X79855809Y-45772285D01*
X80093904Y-45772285D01*
X80189142Y-45819904D01*
X80236761Y-45867523D01*
X80284380Y-45962761D01*
X80284380Y-46200857D01*
X80236761Y-46296095D01*
X80189142Y-46343714D01*
X71045142Y-47740666D02*
X71092761Y-47788285D01*
X71140380Y-47931142D01*
X71140380Y-48026380D01*
X71092761Y-48169238D01*
X70997523Y-48264476D01*
X70902285Y-48312095D01*
X70711809Y-48359714D01*
X70568952Y-48359714D01*
X70378476Y-48312095D01*
X70283238Y-48264476D01*
X70188000Y-48169238D01*
X70140380Y-48026380D01*
X70140380Y-47931142D01*
X70188000Y-47788285D01*
X70235619Y-47740666D01*
X70473714Y-46883523D02*
X71140380Y-46883523D01*
X70092761Y-47121619D02*
X70807047Y-47359714D01*
X70807047Y-46740666D01*
X74244095Y-46772380D02*
X74244095Y-47581904D01*
X74291714Y-47677142D01*
X74339333Y-47724761D01*
X74434571Y-47772380D01*
X74625047Y-47772380D01*
X74720285Y-47724761D01*
X74767904Y-47677142D01*
X74815523Y-47581904D01*
X74815523Y-46772380D01*
X75196476Y-46772380D02*
X75815523Y-46772380D01*
X75482190Y-47153333D01*
X75625047Y-47153333D01*
X75720285Y-47200952D01*
X75767904Y-47248571D01*
X75815523Y-47343809D01*
X75815523Y-47581904D01*
X75767904Y-47677142D01*
X75720285Y-47724761D01*
X75625047Y-47772380D01*
X75339333Y-47772380D01*
X75244095Y-47724761D01*
X75196476Y-47677142D01*
X16617904Y-8164380D02*
X16617904Y-8973904D01*
X16665523Y-9069142D01*
X16713142Y-9116761D01*
X16808380Y-9164380D01*
X16998857Y-9164380D01*
X17094095Y-9116761D01*
X17141714Y-9069142D01*
X17189333Y-8973904D01*
X17189333Y-8164380D01*
X18189333Y-9164380D02*
X17617904Y-9164380D01*
X17903619Y-9164380D02*
X17903619Y-8164380D01*
X17808380Y-8307238D01*
X17713142Y-8402476D01*
X17617904Y-8450095D01*
X18570285Y-8259619D02*
X18617904Y-8212000D01*
X18713142Y-8164380D01*
X18951238Y-8164380D01*
X19046476Y-8212000D01*
X19094095Y-8259619D01*
X19141714Y-8354857D01*
X19141714Y-8450095D01*
X19094095Y-8592952D01*
X18522666Y-9164380D01*
X19141714Y-9164380D01*
X44989904Y-28484380D02*
X44989904Y-29293904D01*
X45037523Y-29389142D01*
X45085142Y-29436761D01*
X45180380Y-29484380D01*
X45370857Y-29484380D01*
X45466095Y-29436761D01*
X45513714Y-29389142D01*
X45561333Y-29293904D01*
X45561333Y-28484380D01*
X46561333Y-29484380D02*
X45989904Y-29484380D01*
X46275619Y-29484380D02*
X46275619Y-28484380D01*
X46180380Y-28627238D01*
X46085142Y-28722476D01*
X45989904Y-28770095D01*
X47513714Y-29484380D02*
X46942285Y-29484380D01*
X47228000Y-29484380D02*
X47228000Y-28484380D01*
X47132761Y-28627238D01*
X47037523Y-28722476D01*
X46942285Y-28770095D01*
X16287904Y-34326380D02*
X16287904Y-35135904D01*
X16335523Y-35231142D01*
X16383142Y-35278761D01*
X16478380Y-35326380D01*
X16668857Y-35326380D01*
X16764095Y-35278761D01*
X16811714Y-35231142D01*
X16859333Y-35135904D01*
X16859333Y-34326380D01*
X17859333Y-35326380D02*
X17287904Y-35326380D01*
X17573619Y-35326380D02*
X17573619Y-34326380D01*
X17478380Y-34469238D01*
X17383142Y-34564476D01*
X17287904Y-34612095D01*
X18478380Y-34326380D02*
X18573619Y-34326380D01*
X18668857Y-34374000D01*
X18716476Y-34421619D01*
X18764095Y-34516857D01*
X18811714Y-34707333D01*
X18811714Y-34945428D01*
X18764095Y-35135904D01*
X18716476Y-35231142D01*
X18668857Y-35278761D01*
X18573619Y-35326380D01*
X18478380Y-35326380D01*
X18383142Y-35278761D01*
X18335523Y-35231142D01*
X18287904Y-35135904D01*
X18240285Y-34945428D01*
X18240285Y-34707333D01*
X18287904Y-34516857D01*
X18335523Y-34421619D01*
X18383142Y-34374000D01*
X18478380Y-34326380D01*
X17094095Y-28738380D02*
X17094095Y-29547904D01*
X17141714Y-29643142D01*
X17189333Y-29690761D01*
X17284571Y-29738380D01*
X17475047Y-29738380D01*
X17570285Y-29690761D01*
X17617904Y-29643142D01*
X17665523Y-29547904D01*
X17665523Y-28738380D01*
X18570285Y-28738380D02*
X18379809Y-28738380D01*
X18284571Y-28786000D01*
X18236952Y-28833619D01*
X18141714Y-28976476D01*
X18094095Y-29166952D01*
X18094095Y-29547904D01*
X18141714Y-29643142D01*
X18189333Y-29690761D01*
X18284571Y-29738380D01*
X18475047Y-29738380D01*
X18570285Y-29690761D01*
X18617904Y-29643142D01*
X18665523Y-29547904D01*
X18665523Y-29309809D01*
X18617904Y-29214571D01*
X18570285Y-29166952D01*
X18475047Y-29119333D01*
X18284571Y-29119333D01*
X18189333Y-29166952D01*
X18141714Y-29214571D01*
X18094095Y-29309809D01*
X45542095Y-9180380D02*
X45542095Y-9989904D01*
X45589714Y-10085142D01*
X45637333Y-10132761D01*
X45732571Y-10180380D01*
X45923047Y-10180380D01*
X46018285Y-10132761D01*
X46065904Y-10085142D01*
X46113523Y-9989904D01*
X46113523Y-9180380D01*
X47065904Y-9180380D02*
X46589714Y-9180380D01*
X46542095Y-9656571D01*
X46589714Y-9608952D01*
X46684952Y-9561333D01*
X46923047Y-9561333D01*
X47018285Y-9608952D01*
X47065904Y-9656571D01*
X47113523Y-9751809D01*
X47113523Y-9989904D01*
X47065904Y-10085142D01*
X47018285Y-10132761D01*
X46923047Y-10180380D01*
X46684952Y-10180380D01*
X46589714Y-10132761D01*
X46542095Y-10085142D01*
X45466095Y-18832380D02*
X45466095Y-19641904D01*
X45513714Y-19737142D01*
X45561333Y-19784761D01*
X45656571Y-19832380D01*
X45847047Y-19832380D01*
X45942285Y-19784761D01*
X45989904Y-19737142D01*
X46037523Y-19641904D01*
X46037523Y-18832380D01*
X46942285Y-19165714D02*
X46942285Y-19832380D01*
X46704190Y-18784761D02*
X46466095Y-19499047D01*
X47085142Y-19499047D01*
X10914142Y-28803880D02*
X10580809Y-28327690D01*
X10342714Y-28803880D02*
X10342714Y-27803880D01*
X10723666Y-27803880D01*
X10818904Y-27851500D01*
X10866523Y-27899119D01*
X10914142Y-27994357D01*
X10914142Y-28137214D01*
X10866523Y-28232452D01*
X10818904Y-28280071D01*
X10723666Y-28327690D01*
X10342714Y-28327690D01*
X11866523Y-28803880D02*
X11295095Y-28803880D01*
X11580809Y-28803880D02*
X11580809Y-27803880D01*
X11485571Y-27946738D01*
X11390333Y-28041976D01*
X11295095Y-28089595D01*
X12342714Y-28803880D02*
X12533190Y-28803880D01*
X12628428Y-28756261D01*
X12676047Y-28708642D01*
X12771285Y-28565785D01*
X12818904Y-28375309D01*
X12818904Y-27994357D01*
X12771285Y-27899119D01*
X12723666Y-27851500D01*
X12628428Y-27803880D01*
X12437952Y-27803880D01*
X12342714Y-27851500D01*
X12295095Y-27899119D01*
X12247476Y-27994357D01*
X12247476Y-28232452D01*
X12295095Y-28327690D01*
X12342714Y-28375309D01*
X12437952Y-28422928D01*
X12628428Y-28422928D01*
X12723666Y-28375309D01*
X12771285Y-28327690D01*
X12818904Y-28232452D01*
X7561142Y-33802380D02*
X7227809Y-33326190D01*
X6989714Y-33802380D02*
X6989714Y-32802380D01*
X7370666Y-32802380D01*
X7465904Y-32850000D01*
X7513523Y-32897619D01*
X7561142Y-32992857D01*
X7561142Y-33135714D01*
X7513523Y-33230952D01*
X7465904Y-33278571D01*
X7370666Y-33326190D01*
X6989714Y-33326190D01*
X8513523Y-33802380D02*
X7942095Y-33802380D01*
X8227809Y-33802380D02*
X8227809Y-32802380D01*
X8132571Y-32945238D01*
X8037333Y-33040476D01*
X7942095Y-33088095D01*
X9084952Y-33230952D02*
X8989714Y-33183333D01*
X8942095Y-33135714D01*
X8894476Y-33040476D01*
X8894476Y-32992857D01*
X8942095Y-32897619D01*
X8989714Y-32850000D01*
X9084952Y-32802380D01*
X9275428Y-32802380D01*
X9370666Y-32850000D01*
X9418285Y-32897619D01*
X9465904Y-32992857D01*
X9465904Y-33040476D01*
X9418285Y-33135714D01*
X9370666Y-33183333D01*
X9275428Y-33230952D01*
X9084952Y-33230952D01*
X8989714Y-33278571D01*
X8942095Y-33326190D01*
X8894476Y-33421428D01*
X8894476Y-33611904D01*
X8942095Y-33707142D01*
X8989714Y-33754761D01*
X9084952Y-33802380D01*
X9275428Y-33802380D01*
X9370666Y-33754761D01*
X9418285Y-33707142D01*
X9465904Y-33611904D01*
X9465904Y-33421428D01*
X9418285Y-33326190D01*
X9370666Y-33278571D01*
X9275428Y-33230952D01*
X7561142Y-36342380D02*
X7227809Y-35866190D01*
X6989714Y-36342380D02*
X6989714Y-35342380D01*
X7370666Y-35342380D01*
X7465904Y-35390000D01*
X7513523Y-35437619D01*
X7561142Y-35532857D01*
X7561142Y-35675714D01*
X7513523Y-35770952D01*
X7465904Y-35818571D01*
X7370666Y-35866190D01*
X6989714Y-35866190D01*
X8513523Y-36342380D02*
X7942095Y-36342380D01*
X8227809Y-36342380D02*
X8227809Y-35342380D01*
X8132571Y-35485238D01*
X8037333Y-35580476D01*
X7942095Y-35628095D01*
X9370666Y-35342380D02*
X9180190Y-35342380D01*
X9084952Y-35390000D01*
X9037333Y-35437619D01*
X8942095Y-35580476D01*
X8894476Y-35770952D01*
X8894476Y-36151904D01*
X8942095Y-36247142D01*
X8989714Y-36294761D01*
X9084952Y-36342380D01*
X9275428Y-36342380D01*
X9370666Y-36294761D01*
X9418285Y-36247142D01*
X9465904Y-36151904D01*
X9465904Y-35913809D01*
X9418285Y-35818571D01*
X9370666Y-35770952D01*
X9275428Y-35723333D01*
X9084952Y-35723333D01*
X8989714Y-35770952D01*
X8942095Y-35818571D01*
X8894476Y-35913809D01*
X7561142Y-35072380D02*
X7227809Y-34596190D01*
X6989714Y-35072380D02*
X6989714Y-34072380D01*
X7370666Y-34072380D01*
X7465904Y-34120000D01*
X7513523Y-34167619D01*
X7561142Y-34262857D01*
X7561142Y-34405714D01*
X7513523Y-34500952D01*
X7465904Y-34548571D01*
X7370666Y-34596190D01*
X6989714Y-34596190D01*
X8513523Y-35072380D02*
X7942095Y-35072380D01*
X8227809Y-35072380D02*
X8227809Y-34072380D01*
X8132571Y-34215238D01*
X8037333Y-34310476D01*
X7942095Y-34358095D01*
X8846857Y-34072380D02*
X9513523Y-34072380D01*
X9084952Y-35072380D01*
X73569333Y-3830380D02*
X73236000Y-3354190D01*
X72997904Y-3830380D02*
X72997904Y-2830380D01*
X73378857Y-2830380D01*
X73474095Y-2878000D01*
X73521714Y-2925619D01*
X73569333Y-3020857D01*
X73569333Y-3163714D01*
X73521714Y-3258952D01*
X73474095Y-3306571D01*
X73378857Y-3354190D01*
X72997904Y-3354190D01*
X74474095Y-2830380D02*
X73997904Y-2830380D01*
X73950285Y-3306571D01*
X73997904Y-3258952D01*
X74093142Y-3211333D01*
X74331238Y-3211333D01*
X74426476Y-3258952D01*
X74474095Y-3306571D01*
X74521714Y-3401809D01*
X74521714Y-3639904D01*
X74474095Y-3735142D01*
X74426476Y-3782761D01*
X74331238Y-3830380D01*
X74093142Y-3830380D01*
X73997904Y-3782761D01*
X73950285Y-3735142D01*
X73855142Y-5767142D02*
X73807523Y-5814761D01*
X73664666Y-5862380D01*
X73569428Y-5862380D01*
X73426571Y-5814761D01*
X73331333Y-5719523D01*
X73283714Y-5624285D01*
X73236095Y-5433809D01*
X73236095Y-5290952D01*
X73283714Y-5100476D01*
X73331333Y-5005238D01*
X73426571Y-4910000D01*
X73569428Y-4862380D01*
X73664666Y-4862380D01*
X73807523Y-4910000D01*
X73855142Y-4957619D01*
X74236095Y-4957619D02*
X74283714Y-4910000D01*
X74378952Y-4862380D01*
X74617047Y-4862380D01*
X74712285Y-4910000D01*
X74759904Y-4957619D01*
X74807523Y-5052857D01*
X74807523Y-5148095D01*
X74759904Y-5290952D01*
X74188476Y-5862380D01*
X74807523Y-5862380D01*
X75426571Y-4862380D02*
X75521809Y-4862380D01*
X75617047Y-4910000D01*
X75664666Y-4957619D01*
X75712285Y-5052857D01*
X75759904Y-5243333D01*
X75759904Y-5481428D01*
X75712285Y-5671904D01*
X75664666Y-5767142D01*
X75617047Y-5814761D01*
X75521809Y-5862380D01*
X75426571Y-5862380D01*
X75331333Y-5814761D01*
X75283714Y-5767142D01*
X75236095Y-5671904D01*
X75188476Y-5481428D01*
X75188476Y-5243333D01*
X75236095Y-5052857D01*
X75283714Y-4957619D01*
X75331333Y-4910000D01*
X75426571Y-4862380D01*
X45375580Y-49047304D02*
X46185104Y-49047304D01*
X46280342Y-48999685D01*
X46327961Y-48952066D01*
X46375580Y-48856828D01*
X46375580Y-48666352D01*
X46327961Y-48571114D01*
X46280342Y-48523495D01*
X46185104Y-48475876D01*
X45375580Y-48475876D01*
X46375580Y-47952066D02*
X46375580Y-47761590D01*
X46327961Y-47666352D01*
X46280342Y-47618733D01*
X46137485Y-47523495D01*
X45947009Y-47475876D01*
X45566057Y-47475876D01*
X45470819Y-47523495D01*
X45423200Y-47571114D01*
X45375580Y-47666352D01*
X45375580Y-47856828D01*
X45423200Y-47952066D01*
X45470819Y-47999685D01*
X45566057Y-48047304D01*
X45804152Y-48047304D01*
X45899390Y-47999685D01*
X45947009Y-47952066D01*
X45994628Y-47856828D01*
X45994628Y-47666352D01*
X45947009Y-47571114D01*
X45899390Y-47523495D01*
X45804152Y-47475876D01*
X11760095Y-49820380D02*
X11760095Y-50629904D01*
X11807714Y-50725142D01*
X11855333Y-50772761D01*
X11950571Y-50820380D01*
X12141047Y-50820380D01*
X12236285Y-50772761D01*
X12283904Y-50725142D01*
X12331523Y-50629904D01*
X12331523Y-49820380D01*
X12950571Y-50248952D02*
X12855333Y-50201333D01*
X12807714Y-50153714D01*
X12760095Y-50058476D01*
X12760095Y-50010857D01*
X12807714Y-49915619D01*
X12855333Y-49868000D01*
X12950571Y-49820380D01*
X13141047Y-49820380D01*
X13236285Y-49868000D01*
X13283904Y-49915619D01*
X13331523Y-50010857D01*
X13331523Y-50058476D01*
X13283904Y-50153714D01*
X13236285Y-50201333D01*
X13141047Y-50248952D01*
X12950571Y-50248952D01*
X12855333Y-50296571D01*
X12807714Y-50344190D01*
X12760095Y-50439428D01*
X12760095Y-50629904D01*
X12807714Y-50725142D01*
X12855333Y-50772761D01*
X12950571Y-50820380D01*
X13141047Y-50820380D01*
X13236285Y-50772761D01*
X13283904Y-50725142D01*
X13331523Y-50629904D01*
X13331523Y-50439428D01*
X13283904Y-50344190D01*
X13236285Y-50296571D01*
X13141047Y-50248952D01*
X57884761Y-5663904D02*
X57932380Y-5521047D01*
X57932380Y-5282952D01*
X57884761Y-5187714D01*
X57837142Y-5140095D01*
X57741904Y-5092476D01*
X57646666Y-5092476D01*
X57551428Y-5140095D01*
X57503809Y-5187714D01*
X57456190Y-5282952D01*
X57408571Y-5473428D01*
X57360952Y-5568666D01*
X57313333Y-5616285D01*
X57218095Y-5663904D01*
X57122857Y-5663904D01*
X57027619Y-5616285D01*
X56980000Y-5568666D01*
X56932380Y-5473428D01*
X56932380Y-5235333D01*
X56980000Y-5092476D01*
X57027619Y-4711523D02*
X56980000Y-4663904D01*
X56932380Y-4568666D01*
X56932380Y-4330571D01*
X56980000Y-4235333D01*
X57027619Y-4187714D01*
X57122857Y-4140095D01*
X57218095Y-4140095D01*
X57360952Y-4187714D01*
X57932380Y-4759142D01*
X57932380Y-4140095D01*
X58964380Y-1544380D02*
X58631047Y-1068190D01*
X58392952Y-1544380D02*
X58392952Y-544380D01*
X58773904Y-544380D01*
X58869142Y-592000D01*
X58916761Y-639619D01*
X58964380Y-734857D01*
X58964380Y-877714D01*
X58916761Y-972952D01*
X58869142Y-1020571D01*
X58773904Y-1068190D01*
X58392952Y-1068190D01*
X59345333Y-1496761D02*
X59488190Y-1544380D01*
X59726285Y-1544380D01*
X59821523Y-1496761D01*
X59869142Y-1449142D01*
X59916761Y-1353904D01*
X59916761Y-1258666D01*
X59869142Y-1163428D01*
X59821523Y-1115809D01*
X59726285Y-1068190D01*
X59535809Y-1020571D01*
X59440571Y-972952D01*
X59392952Y-925333D01*
X59345333Y-830095D01*
X59345333Y-734857D01*
X59392952Y-639619D01*
X59440571Y-592000D01*
X59535809Y-544380D01*
X59773904Y-544380D01*
X59916761Y-592000D01*
X60202476Y-544380D02*
X60773904Y-544380D01*
X60488190Y-1544380D02*
X60488190Y-544380D01*
X63002861Y-5663904D02*
X63050480Y-5521047D01*
X63050480Y-5282952D01*
X63002861Y-5187714D01*
X62955242Y-5140095D01*
X62860004Y-5092476D01*
X62764766Y-5092476D01*
X62669528Y-5140095D01*
X62621909Y-5187714D01*
X62574290Y-5282952D01*
X62526671Y-5473428D01*
X62479052Y-5568666D01*
X62431433Y-5616285D01*
X62336195Y-5663904D01*
X62240957Y-5663904D01*
X62145719Y-5616285D01*
X62098100Y-5568666D01*
X62050480Y-5473428D01*
X62050480Y-5235333D01*
X62098100Y-5092476D01*
X63050480Y-4140095D02*
X63050480Y-4711523D01*
X63050480Y-4425809D02*
X62050480Y-4425809D01*
X62193338Y-4521047D01*
X62288576Y-4616285D01*
X62336195Y-4711523D01*
X63385666Y-1544380D02*
X63385666Y-544380D01*
X63766619Y-544380D01*
X63861857Y-592000D01*
X63909476Y-639619D01*
X63957095Y-734857D01*
X63957095Y-877714D01*
X63909476Y-972952D01*
X63861857Y-1020571D01*
X63766619Y-1068190D01*
X63385666Y-1068190D01*
X64290428Y-544380D02*
X64528523Y-1544380D01*
X64719000Y-830095D01*
X64909476Y-1544380D01*
X65147571Y-544380D01*
X66099952Y-1544380D02*
X65766619Y-1068190D01*
X65528523Y-1544380D02*
X65528523Y-544380D01*
X65909476Y-544380D01*
X66004714Y-592000D01*
X66052333Y-639619D01*
X66099952Y-734857D01*
X66099952Y-877714D01*
X66052333Y-972952D01*
X66004714Y-1020571D01*
X65909476Y-1068190D01*
X65528523Y-1068190D01*
X60218380Y-52820666D02*
X59742190Y-53154000D01*
X60218380Y-53392095D02*
X59218380Y-53392095D01*
X59218380Y-53011142D01*
X59266000Y-52915904D01*
X59313619Y-52868285D01*
X59408857Y-52820666D01*
X59551714Y-52820666D01*
X59646952Y-52868285D01*
X59694571Y-52915904D01*
X59742190Y-53011142D01*
X59742190Y-53392095D01*
X59551714Y-51963523D02*
X60218380Y-51963523D01*
X59170761Y-52201619D02*
X59885047Y-52439714D01*
X59885047Y-51820666D01*
X55027333Y-47772380D02*
X54694000Y-47296190D01*
X54455904Y-47772380D02*
X54455904Y-46772380D01*
X54836857Y-46772380D01*
X54932095Y-46820000D01*
X54979714Y-46867619D01*
X55027333Y-46962857D01*
X55027333Y-47105714D01*
X54979714Y-47200952D01*
X54932095Y-47248571D01*
X54836857Y-47296190D01*
X54455904Y-47296190D01*
X55360666Y-46772380D02*
X55979714Y-46772380D01*
X55646380Y-47153333D01*
X55789238Y-47153333D01*
X55884476Y-47200952D01*
X55932095Y-47248571D01*
X55979714Y-47343809D01*
X55979714Y-47581904D01*
X55932095Y-47677142D01*
X55884476Y-47724761D01*
X55789238Y-47772380D01*
X55503523Y-47772380D01*
X55408285Y-47724761D01*
X55360666Y-47677142D01*
X55039833Y-49550380D02*
X54706500Y-49074190D01*
X54468404Y-49550380D02*
X54468404Y-48550380D01*
X54849357Y-48550380D01*
X54944595Y-48598000D01*
X54992214Y-48645619D01*
X55039833Y-48740857D01*
X55039833Y-48883714D01*
X54992214Y-48978952D01*
X54944595Y-49026571D01*
X54849357Y-49074190D01*
X54468404Y-49074190D01*
X55420785Y-48645619D02*
X55468404Y-48598000D01*
X55563642Y-48550380D01*
X55801738Y-48550380D01*
X55896976Y-48598000D01*
X55944595Y-48645619D01*
X55992214Y-48740857D01*
X55992214Y-48836095D01*
X55944595Y-48978952D01*
X55373166Y-49550380D01*
X55992214Y-49550380D01*
X53947833Y-40246380D02*
X53614500Y-39770190D01*
X53376404Y-40246380D02*
X53376404Y-39246380D01*
X53757357Y-39246380D01*
X53852595Y-39294000D01*
X53900214Y-39341619D01*
X53947833Y-39436857D01*
X53947833Y-39579714D01*
X53900214Y-39674952D01*
X53852595Y-39722571D01*
X53757357Y-39770190D01*
X53376404Y-39770190D01*
X54900214Y-40246380D02*
X54328785Y-40246380D01*
X54614500Y-40246380D02*
X54614500Y-39246380D01*
X54519261Y-39389238D01*
X54424023Y-39484476D01*
X54328785Y-39532095D01*
X48093333Y-42979380D02*
X47617142Y-42979380D01*
X47617142Y-41979380D01*
X48379047Y-42074619D02*
X48426666Y-42027000D01*
X48521904Y-41979380D01*
X48760000Y-41979380D01*
X48855238Y-42027000D01*
X48902857Y-42074619D01*
X48950476Y-42169857D01*
X48950476Y-42265095D01*
X48902857Y-42407952D01*
X48331428Y-42979380D01*
X48950476Y-42979380D01*
X1544380Y-45962666D02*
X1544380Y-46438857D01*
X544380Y-46438857D01*
X1544380Y-45105523D02*
X1544380Y-45676952D01*
X1544380Y-45391238D02*
X544380Y-45391238D01*
X687238Y-45486476D01*
X782476Y-45581714D01*
X830095Y-45676952D01*
X11529904Y-39136380D02*
X11529904Y-38136380D01*
X11768000Y-38136380D01*
X11910857Y-38184000D01*
X12006095Y-38279238D01*
X12053714Y-38374476D01*
X12101333Y-38564952D01*
X12101333Y-38707809D01*
X12053714Y-38898285D01*
X12006095Y-38993523D01*
X11910857Y-39088761D01*
X11768000Y-39136380D01*
X11529904Y-39136380D01*
X13053714Y-39136380D02*
X12482285Y-39136380D01*
X12768000Y-39136380D02*
X12768000Y-38136380D01*
X12672761Y-38279238D01*
X12577523Y-38374476D01*
X12482285Y-38422095D01*
X52587142Y-49156857D02*
X52634761Y-49204476D01*
X52682380Y-49347333D01*
X52682380Y-49442571D01*
X52634761Y-49585428D01*
X52539523Y-49680666D01*
X52444285Y-49728285D01*
X52253809Y-49775904D01*
X52110952Y-49775904D01*
X51920476Y-49728285D01*
X51825238Y-49680666D01*
X51730000Y-49585428D01*
X51682380Y-49442571D01*
X51682380Y-49347333D01*
X51730000Y-49204476D01*
X51777619Y-49156857D01*
X51777619Y-48775904D02*
X51730000Y-48728285D01*
X51682380Y-48633047D01*
X51682380Y-48394952D01*
X51730000Y-48299714D01*
X51777619Y-48252095D01*
X51872857Y-48204476D01*
X51968095Y-48204476D01*
X52110952Y-48252095D01*
X52682380Y-48823523D01*
X52682380Y-48204476D01*
X51682380Y-47299714D02*
X51682380Y-47775904D01*
X52158571Y-47823523D01*
X52110952Y-47775904D01*
X52063333Y-47680666D01*
X52063333Y-47442571D01*
X52110952Y-47347333D01*
X52158571Y-47299714D01*
X52253809Y-47252095D01*
X52491904Y-47252095D01*
X52587142Y-47299714D01*
X52634761Y-47347333D01*
X52682380Y-47442571D01*
X52682380Y-47680666D01*
X52634761Y-47775904D01*
X52587142Y-47823523D01*
X43883142Y-51995142D02*
X43835523Y-52042761D01*
X43692666Y-52090380D01*
X43597428Y-52090380D01*
X43454571Y-52042761D01*
X43359333Y-51947523D01*
X43311714Y-51852285D01*
X43264095Y-51661809D01*
X43264095Y-51518952D01*
X43311714Y-51328476D01*
X43359333Y-51233238D01*
X43454571Y-51138000D01*
X43597428Y-51090380D01*
X43692666Y-51090380D01*
X43835523Y-51138000D01*
X43883142Y-51185619D01*
X44264095Y-51185619D02*
X44311714Y-51138000D01*
X44406952Y-51090380D01*
X44645047Y-51090380D01*
X44740285Y-51138000D01*
X44787904Y-51185619D01*
X44835523Y-51280857D01*
X44835523Y-51376095D01*
X44787904Y-51518952D01*
X44216476Y-52090380D01*
X44835523Y-52090380D01*
X45692666Y-51423714D02*
X45692666Y-52090380D01*
X45454571Y-51042761D02*
X45216476Y-51757047D01*
X45835523Y-51757047D01*
X9323142Y-43390857D02*
X9370761Y-43438476D01*
X9418380Y-43581333D01*
X9418380Y-43676571D01*
X9370761Y-43819428D01*
X9275523Y-43914666D01*
X9180285Y-43962285D01*
X8989809Y-44009904D01*
X8846952Y-44009904D01*
X8656476Y-43962285D01*
X8561238Y-43914666D01*
X8466000Y-43819428D01*
X8418380Y-43676571D01*
X8418380Y-43581333D01*
X8466000Y-43438476D01*
X8513619Y-43390857D01*
X8513619Y-43009904D02*
X8466000Y-42962285D01*
X8418380Y-42867047D01*
X8418380Y-42628952D01*
X8466000Y-42533714D01*
X8513619Y-42486095D01*
X8608857Y-42438476D01*
X8704095Y-42438476D01*
X8846952Y-42486095D01*
X9418380Y-43057523D01*
X9418380Y-42438476D01*
X8513619Y-42057523D02*
X8466000Y-42009904D01*
X8418380Y-41914666D01*
X8418380Y-41676571D01*
X8466000Y-41581333D01*
X8513619Y-41533714D01*
X8608857Y-41486095D01*
X8704095Y-41486095D01*
X8846952Y-41533714D01*
X9418380Y-42105142D01*
X9418380Y-41486095D01*
X15460142Y-49283857D02*
X15507761Y-49331476D01*
X15555380Y-49474333D01*
X15555380Y-49569571D01*
X15507761Y-49712428D01*
X15412523Y-49807666D01*
X15317285Y-49855285D01*
X15126809Y-49902904D01*
X14983952Y-49902904D01*
X14793476Y-49855285D01*
X14698238Y-49807666D01*
X14603000Y-49712428D01*
X14555380Y-49569571D01*
X14555380Y-49474333D01*
X14603000Y-49331476D01*
X14650619Y-49283857D01*
X14650619Y-48902904D02*
X14603000Y-48855285D01*
X14555380Y-48760047D01*
X14555380Y-48521952D01*
X14603000Y-48426714D01*
X14650619Y-48379095D01*
X14745857Y-48331476D01*
X14841095Y-48331476D01*
X14983952Y-48379095D01*
X15555380Y-48950523D01*
X15555380Y-48331476D01*
X15555380Y-47379095D02*
X15555380Y-47950523D01*
X15555380Y-47664809D02*
X14555380Y-47664809D01*
X14698238Y-47760047D01*
X14793476Y-47855285D01*
X14841095Y-47950523D01*
X18998142Y-42552857D02*
X19045761Y-42600476D01*
X19093380Y-42743333D01*
X19093380Y-42838571D01*
X19045761Y-42981428D01*
X18950523Y-43076666D01*
X18855285Y-43124285D01*
X18664809Y-43171904D01*
X18521952Y-43171904D01*
X18331476Y-43124285D01*
X18236238Y-43076666D01*
X18141000Y-42981428D01*
X18093380Y-42838571D01*
X18093380Y-42743333D01*
X18141000Y-42600476D01*
X18188619Y-42552857D01*
X18188619Y-42171904D02*
X18141000Y-42124285D01*
X18093380Y-42029047D01*
X18093380Y-41790952D01*
X18141000Y-41695714D01*
X18188619Y-41648095D01*
X18283857Y-41600476D01*
X18379095Y-41600476D01*
X18521952Y-41648095D01*
X19093380Y-42219523D01*
X19093380Y-41600476D01*
X18093380Y-41267142D02*
X18093380Y-40648095D01*
X18474333Y-40981428D01*
X18474333Y-40838571D01*
X18521952Y-40743333D01*
X18569571Y-40695714D01*
X18664809Y-40648095D01*
X18902904Y-40648095D01*
X18998142Y-40695714D01*
X19045761Y-40743333D01*
X19093380Y-40838571D01*
X19093380Y-41124285D01*
X19045761Y-41219523D01*
X18998142Y-41267142D01*
X75379142Y-46153142D02*
X75331523Y-46200761D01*
X75188666Y-46248380D01*
X75093428Y-46248380D01*
X74950571Y-46200761D01*
X74855333Y-46105523D01*
X74807714Y-46010285D01*
X74760095Y-45819809D01*
X74760095Y-45676952D01*
X74807714Y-45486476D01*
X74855333Y-45391238D01*
X74950571Y-45296000D01*
X75093428Y-45248380D01*
X75188666Y-45248380D01*
X75331523Y-45296000D01*
X75379142Y-45343619D01*
X76331523Y-46248380D02*
X75760095Y-46248380D01*
X76045809Y-46248380D02*
X76045809Y-45248380D01*
X75950571Y-45391238D01*
X75855333Y-45486476D01*
X75760095Y-45534095D01*
X76807714Y-46248380D02*
X76998190Y-46248380D01*
X77093428Y-46200761D01*
X77141047Y-46153142D01*
X77236285Y-46010285D01*
X77283904Y-45819809D01*
X77283904Y-45438857D01*
X77236285Y-45343619D01*
X77188666Y-45296000D01*
X77093428Y-45248380D01*
X76902952Y-45248380D01*
X76807714Y-45296000D01*
X76760095Y-45343619D01*
X76712476Y-45438857D01*
X76712476Y-45676952D01*
X76760095Y-45772190D01*
X76807714Y-45819809D01*
X76902952Y-45867428D01*
X77093428Y-45867428D01*
X77188666Y-45819809D01*
X77236285Y-45772190D01*
X77283904Y-45676952D01*
X75379142Y-44629142D02*
X75331523Y-44676761D01*
X75188666Y-44724380D01*
X75093428Y-44724380D01*
X74950571Y-44676761D01*
X74855333Y-44581523D01*
X74807714Y-44486285D01*
X74760095Y-44295809D01*
X74760095Y-44152952D01*
X74807714Y-43962476D01*
X74855333Y-43867238D01*
X74950571Y-43772000D01*
X75093428Y-43724380D01*
X75188666Y-43724380D01*
X75331523Y-43772000D01*
X75379142Y-43819619D01*
X76331523Y-44724380D02*
X75760095Y-44724380D01*
X76045809Y-44724380D02*
X76045809Y-43724380D01*
X75950571Y-43867238D01*
X75855333Y-43962476D01*
X75760095Y-44010095D01*
X76902952Y-44152952D02*
X76807714Y-44105333D01*
X76760095Y-44057714D01*
X76712476Y-43962476D01*
X76712476Y-43914857D01*
X76760095Y-43819619D01*
X76807714Y-43772000D01*
X76902952Y-43724380D01*
X77093428Y-43724380D01*
X77188666Y-43772000D01*
X77236285Y-43819619D01*
X77283904Y-43914857D01*
X77283904Y-43962476D01*
X77236285Y-44057714D01*
X77188666Y-44105333D01*
X77093428Y-44152952D01*
X76902952Y-44152952D01*
X76807714Y-44200571D01*
X76760095Y-44248190D01*
X76712476Y-44343428D01*
X76712476Y-44533904D01*
X76760095Y-44629142D01*
X76807714Y-44676761D01*
X76902952Y-44724380D01*
X77093428Y-44724380D01*
X77188666Y-44676761D01*
X77236285Y-44629142D01*
X77283904Y-44533904D01*
X77283904Y-44343428D01*
X77236285Y-44248190D01*
X77188666Y-44200571D01*
X77093428Y-44152952D01*
X58853142Y-52788857D02*
X58900761Y-52836476D01*
X58948380Y-52979333D01*
X58948380Y-53074571D01*
X58900761Y-53217428D01*
X58805523Y-53312666D01*
X58710285Y-53360285D01*
X58519809Y-53407904D01*
X58376952Y-53407904D01*
X58186476Y-53360285D01*
X58091238Y-53312666D01*
X57996000Y-53217428D01*
X57948380Y-53074571D01*
X57948380Y-52979333D01*
X57996000Y-52836476D01*
X58043619Y-52788857D01*
X58948380Y-51836476D02*
X58948380Y-52407904D01*
X58948380Y-52122190D02*
X57948380Y-52122190D01*
X58091238Y-52217428D01*
X58186476Y-52312666D01*
X58234095Y-52407904D01*
X57948380Y-51503142D02*
X57948380Y-50836476D01*
X58948380Y-51265047D01*
X53773142Y-52788857D02*
X53820761Y-52836476D01*
X53868380Y-52979333D01*
X53868380Y-53074571D01*
X53820761Y-53217428D01*
X53725523Y-53312666D01*
X53630285Y-53360285D01*
X53439809Y-53407904D01*
X53296952Y-53407904D01*
X53106476Y-53360285D01*
X53011238Y-53312666D01*
X52916000Y-53217428D01*
X52868380Y-53074571D01*
X52868380Y-52979333D01*
X52916000Y-52836476D01*
X52963619Y-52788857D01*
X53868380Y-51836476D02*
X53868380Y-52407904D01*
X53868380Y-52122190D02*
X52868380Y-52122190D01*
X53011238Y-52217428D01*
X53106476Y-52312666D01*
X53154095Y-52407904D01*
X52868380Y-50979333D02*
X52868380Y-51169809D01*
X52916000Y-51265047D01*
X52963619Y-51312666D01*
X53106476Y-51407904D01*
X53296952Y-51455523D01*
X53677904Y-51455523D01*
X53773142Y-51407904D01*
X53820761Y-51360285D01*
X53868380Y-51265047D01*
X53868380Y-51074571D01*
X53820761Y-50979333D01*
X53773142Y-50931714D01*
X53677904Y-50884095D01*
X53439809Y-50884095D01*
X53344571Y-50931714D01*
X53296952Y-50979333D01*
X53249333Y-51074571D01*
X53249333Y-51265047D01*
X53296952Y-51360285D01*
X53344571Y-51407904D01*
X53439809Y-51455523D01*
X54297142Y-45645142D02*
X54249523Y-45692761D01*
X54106666Y-45740380D01*
X54011428Y-45740380D01*
X53868571Y-45692761D01*
X53773333Y-45597523D01*
X53725714Y-45502285D01*
X53678095Y-45311809D01*
X53678095Y-45168952D01*
X53725714Y-44978476D01*
X53773333Y-44883238D01*
X53868571Y-44788000D01*
X54011428Y-44740380D01*
X54106666Y-44740380D01*
X54249523Y-44788000D01*
X54297142Y-44835619D01*
X55249523Y-45740380D02*
X54678095Y-45740380D01*
X54963809Y-45740380D02*
X54963809Y-44740380D01*
X54868571Y-44883238D01*
X54773333Y-44978476D01*
X54678095Y-45026095D01*
X56154285Y-44740380D02*
X55678095Y-44740380D01*
X55630476Y-45216571D01*
X55678095Y-45168952D01*
X55773333Y-45121333D01*
X56011428Y-45121333D01*
X56106666Y-45168952D01*
X56154285Y-45216571D01*
X56201904Y-45311809D01*
X56201904Y-45549904D01*
X56154285Y-45645142D01*
X56106666Y-45692761D01*
X56011428Y-45740380D01*
X55773333Y-45740380D01*
X55678095Y-45692761D01*
X55630476Y-45645142D01*
X59836142Y-37726857D02*
X59883761Y-37774476D01*
X59931380Y-37917333D01*
X59931380Y-38012571D01*
X59883761Y-38155428D01*
X59788523Y-38250666D01*
X59693285Y-38298285D01*
X59502809Y-38345904D01*
X59359952Y-38345904D01*
X59169476Y-38298285D01*
X59074238Y-38250666D01*
X58979000Y-38155428D01*
X58931380Y-38012571D01*
X58931380Y-37917333D01*
X58979000Y-37774476D01*
X59026619Y-37726857D01*
X59931380Y-36774476D02*
X59931380Y-37345904D01*
X59931380Y-37060190D02*
X58931380Y-37060190D01*
X59074238Y-37155428D01*
X59169476Y-37250666D01*
X59217095Y-37345904D01*
X58931380Y-36441142D02*
X58931380Y-35822095D01*
X59312333Y-36155428D01*
X59312333Y-36012571D01*
X59359952Y-35917333D01*
X59407571Y-35869714D01*
X59502809Y-35822095D01*
X59740904Y-35822095D01*
X59836142Y-35869714D01*
X59883761Y-35917333D01*
X59931380Y-36012571D01*
X59931380Y-36298285D01*
X59883761Y-36393523D01*
X59836142Y-36441142D01*
X54297142Y-44121142D02*
X54249523Y-44168761D01*
X54106666Y-44216380D01*
X54011428Y-44216380D01*
X53868571Y-44168761D01*
X53773333Y-44073523D01*
X53725714Y-43978285D01*
X53678095Y-43787809D01*
X53678095Y-43644952D01*
X53725714Y-43454476D01*
X53773333Y-43359238D01*
X53868571Y-43264000D01*
X54011428Y-43216380D01*
X54106666Y-43216380D01*
X54249523Y-43264000D01*
X54297142Y-43311619D01*
X55249523Y-44216380D02*
X54678095Y-44216380D01*
X54963809Y-44216380D02*
X54963809Y-43216380D01*
X54868571Y-43359238D01*
X54773333Y-43454476D01*
X54678095Y-43502095D01*
X55630476Y-43311619D02*
X55678095Y-43264000D01*
X55773333Y-43216380D01*
X56011428Y-43216380D01*
X56106666Y-43264000D01*
X56154285Y-43311619D01*
X56201904Y-43406857D01*
X56201904Y-43502095D01*
X56154285Y-43644952D01*
X55582857Y-44216380D01*
X56201904Y-44216380D01*
X55043142Y-52788857D02*
X55090761Y-52836476D01*
X55138380Y-52979333D01*
X55138380Y-53074571D01*
X55090761Y-53217428D01*
X54995523Y-53312666D01*
X54900285Y-53360285D01*
X54709809Y-53407904D01*
X54566952Y-53407904D01*
X54376476Y-53360285D01*
X54281238Y-53312666D01*
X54186000Y-53217428D01*
X54138380Y-53074571D01*
X54138380Y-52979333D01*
X54186000Y-52836476D01*
X54233619Y-52788857D01*
X55138380Y-51836476D02*
X55138380Y-52407904D01*
X55138380Y-52122190D02*
X54138380Y-52122190D01*
X54281238Y-52217428D01*
X54376476Y-52312666D01*
X54424095Y-52407904D01*
X55138380Y-50884095D02*
X55138380Y-51455523D01*
X55138380Y-51169809D02*
X54138380Y-51169809D01*
X54281238Y-51265047D01*
X54376476Y-51360285D01*
X54424095Y-51455523D01*
X56313142Y-52788857D02*
X56360761Y-52836476D01*
X56408380Y-52979333D01*
X56408380Y-53074571D01*
X56360761Y-53217428D01*
X56265523Y-53312666D01*
X56170285Y-53360285D01*
X55979809Y-53407904D01*
X55836952Y-53407904D01*
X55646476Y-53360285D01*
X55551238Y-53312666D01*
X55456000Y-53217428D01*
X55408380Y-53074571D01*
X55408380Y-52979333D01*
X55456000Y-52836476D01*
X55503619Y-52788857D01*
X56408380Y-51836476D02*
X56408380Y-52407904D01*
X56408380Y-52122190D02*
X55408380Y-52122190D01*
X55551238Y-52217428D01*
X55646476Y-52312666D01*
X55694095Y-52407904D01*
X55408380Y-51217428D02*
X55408380Y-51122190D01*
X55456000Y-51026952D01*
X55503619Y-50979333D01*
X55598857Y-50931714D01*
X55789333Y-50884095D01*
X56027428Y-50884095D01*
X56217904Y-50931714D01*
X56313142Y-50979333D01*
X56360761Y-51026952D01*
X56408380Y-51122190D01*
X56408380Y-51217428D01*
X56360761Y-51312666D01*
X56313142Y-51360285D01*
X56217904Y-51407904D01*
X56027428Y-51455523D01*
X55789333Y-51455523D01*
X55598857Y-51407904D01*
X55503619Y-51360285D01*
X55456000Y-51312666D01*
X55408380Y-51217428D01*
X57583142Y-52820666D02*
X57630761Y-52868285D01*
X57678380Y-53011142D01*
X57678380Y-53106380D01*
X57630761Y-53249238D01*
X57535523Y-53344476D01*
X57440285Y-53392095D01*
X57249809Y-53439714D01*
X57106952Y-53439714D01*
X56916476Y-53392095D01*
X56821238Y-53344476D01*
X56726000Y-53249238D01*
X56678380Y-53106380D01*
X56678380Y-53011142D01*
X56726000Y-52868285D01*
X56773619Y-52820666D01*
X57678380Y-52344476D02*
X57678380Y-52154000D01*
X57630761Y-52058761D01*
X57583142Y-52011142D01*
X57440285Y-51915904D01*
X57249809Y-51868285D01*
X56868857Y-51868285D01*
X56773619Y-51915904D01*
X56726000Y-51963523D01*
X56678380Y-52058761D01*
X56678380Y-52249238D01*
X56726000Y-52344476D01*
X56773619Y-52392095D01*
X56868857Y-52439714D01*
X57106952Y-52439714D01*
X57202190Y-52392095D01*
X57249809Y-52344476D01*
X57297428Y-52249238D01*
X57297428Y-52058761D01*
X57249809Y-51963523D01*
X57202190Y-51915904D01*
X57106952Y-51868285D01*
X75347333Y-41581142D02*
X75299714Y-41628761D01*
X75156857Y-41676380D01*
X75061619Y-41676380D01*
X74918761Y-41628761D01*
X74823523Y-41533523D01*
X74775904Y-41438285D01*
X74728285Y-41247809D01*
X74728285Y-41104952D01*
X74775904Y-40914476D01*
X74823523Y-40819238D01*
X74918761Y-40724000D01*
X75061619Y-40676380D01*
X75156857Y-40676380D01*
X75299714Y-40724000D01*
X75347333Y-40771619D01*
X75918761Y-41104952D02*
X75823523Y-41057333D01*
X75775904Y-41009714D01*
X75728285Y-40914476D01*
X75728285Y-40866857D01*
X75775904Y-40771619D01*
X75823523Y-40724000D01*
X75918761Y-40676380D01*
X76109238Y-40676380D01*
X76204476Y-40724000D01*
X76252095Y-40771619D01*
X76299714Y-40866857D01*
X76299714Y-40914476D01*
X76252095Y-41009714D01*
X76204476Y-41057333D01*
X76109238Y-41104952D01*
X75918761Y-41104952D01*
X75823523Y-41152571D01*
X75775904Y-41200190D01*
X75728285Y-41295428D01*
X75728285Y-41485904D01*
X75775904Y-41581142D01*
X75823523Y-41628761D01*
X75918761Y-41676380D01*
X76109238Y-41676380D01*
X76204476Y-41628761D01*
X76252095Y-41581142D01*
X76299714Y-41485904D01*
X76299714Y-41295428D01*
X76252095Y-41200190D01*
X76204476Y-41152571D01*
X76109238Y-41104952D01*
X75347333Y-43105142D02*
X75299714Y-43152761D01*
X75156857Y-43200380D01*
X75061619Y-43200380D01*
X74918761Y-43152761D01*
X74823523Y-43057523D01*
X74775904Y-42962285D01*
X74728285Y-42771809D01*
X74728285Y-42628952D01*
X74775904Y-42438476D01*
X74823523Y-42343238D01*
X74918761Y-42248000D01*
X75061619Y-42200380D01*
X75156857Y-42200380D01*
X75299714Y-42248000D01*
X75347333Y-42295619D01*
X75680666Y-42200380D02*
X76347333Y-42200380D01*
X75918761Y-43200380D01*
X69539142Y-42330666D02*
X69586761Y-42378285D01*
X69634380Y-42521142D01*
X69634380Y-42616380D01*
X69586761Y-42759238D01*
X69491523Y-42854476D01*
X69396285Y-42902095D01*
X69205809Y-42949714D01*
X69062952Y-42949714D01*
X68872476Y-42902095D01*
X68777238Y-42854476D01*
X68682000Y-42759238D01*
X68634380Y-42616380D01*
X68634380Y-42521142D01*
X68682000Y-42378285D01*
X68729619Y-42330666D01*
X68634380Y-41473523D02*
X68634380Y-41664000D01*
X68682000Y-41759238D01*
X68729619Y-41806857D01*
X68872476Y-41902095D01*
X69062952Y-41949714D01*
X69443904Y-41949714D01*
X69539142Y-41902095D01*
X69586761Y-41854476D01*
X69634380Y-41759238D01*
X69634380Y-41568761D01*
X69586761Y-41473523D01*
X69539142Y-41425904D01*
X69443904Y-41378285D01*
X69205809Y-41378285D01*
X69110571Y-41425904D01*
X69062952Y-41473523D01*
X69015333Y-41568761D01*
X69015333Y-41759238D01*
X69062952Y-41854476D01*
X69110571Y-41902095D01*
X69205809Y-41949714D01*
X57745333Y-40311142D02*
X57697714Y-40358761D01*
X57554857Y-40406380D01*
X57459619Y-40406380D01*
X57316761Y-40358761D01*
X57221523Y-40263523D01*
X57173904Y-40168285D01*
X57126285Y-39977809D01*
X57126285Y-39834952D01*
X57173904Y-39644476D01*
X57221523Y-39549238D01*
X57316761Y-39454000D01*
X57459619Y-39406380D01*
X57554857Y-39406380D01*
X57697714Y-39454000D01*
X57745333Y-39501619D01*
X58078666Y-39406380D02*
X58697714Y-39406380D01*
X58364380Y-39787333D01*
X58507238Y-39787333D01*
X58602476Y-39834952D01*
X58650095Y-39882571D01*
X58697714Y-39977809D01*
X58697714Y-40215904D01*
X58650095Y-40311142D01*
X58602476Y-40358761D01*
X58507238Y-40406380D01*
X58221523Y-40406380D01*
X58126285Y-40358761D01*
X58078666Y-40311142D01*
X68489333Y-39549142D02*
X68441714Y-39596761D01*
X68298857Y-39644380D01*
X68203619Y-39644380D01*
X68060761Y-39596761D01*
X67965523Y-39501523D01*
X67917904Y-39406285D01*
X67870285Y-39215809D01*
X67870285Y-39072952D01*
X67917904Y-38882476D01*
X67965523Y-38787238D01*
X68060761Y-38692000D01*
X68203619Y-38644380D01*
X68298857Y-38644380D01*
X68441714Y-38692000D01*
X68489333Y-38739619D01*
X68870285Y-38739619D02*
X68917904Y-38692000D01*
X69013142Y-38644380D01*
X69251238Y-38644380D01*
X69346476Y-38692000D01*
X69394095Y-38739619D01*
X69441714Y-38834857D01*
X69441714Y-38930095D01*
X69394095Y-39072952D01*
X68822666Y-39644380D01*
X69441714Y-39644380D01*
X68489333Y-38025142D02*
X68441714Y-38072761D01*
X68298857Y-38120380D01*
X68203619Y-38120380D01*
X68060761Y-38072761D01*
X67965523Y-37977523D01*
X67917904Y-37882285D01*
X67870285Y-37691809D01*
X67870285Y-37548952D01*
X67917904Y-37358476D01*
X67965523Y-37263238D01*
X68060761Y-37168000D01*
X68203619Y-37120380D01*
X68298857Y-37120380D01*
X68441714Y-37168000D01*
X68489333Y-37215619D01*
X69441714Y-38120380D02*
X68870285Y-38120380D01*
X69156000Y-38120380D02*
X69156000Y-37120380D01*
X69060761Y-37263238D01*
X68965523Y-37358476D01*
X68870285Y-37406095D01*
X7910380Y-4727333D02*
X8624666Y-4727333D01*
X8767523Y-4774952D01*
X8862761Y-4870190D01*
X8910380Y-5013047D01*
X8910380Y-5108285D01*
X8005619Y-4298761D02*
X7958000Y-4251142D01*
X7910380Y-4155904D01*
X7910380Y-3917809D01*
X7958000Y-3822571D01*
X8005619Y-3774952D01*
X8100857Y-3727333D01*
X8196095Y-3727333D01*
X8338952Y-3774952D01*
X8910380Y-4346380D01*
X8910380Y-3727333D01*
M02*
