G04 #@! TF.GenerationSoftware,KiCad,Pcbnew,5.1.5-52549c5~84~ubuntu18.04.1*
G04 #@! TF.CreationDate,2020-02-13T10:06:29-08:00*
G04 #@! TF.ProjectId,EthernetBoard,45746865-726e-4657-9442-6f6172642e6b,A*
G04 #@! TF.SameCoordinates,PX5f5e100PY5f5e100*
G04 #@! TF.FileFunction,Paste,Top*
G04 #@! TF.FilePolarity,Positive*
%FSLAX46Y46*%
G04 Gerber Fmt 4.6, Leading zero omitted, Abs format (unit mm)*
G04 Created by KiCad (PCBNEW 5.1.5-52549c5~84~ubuntu18.04.1) date 2020-02-13 10:06:29*
%MOMM*%
%LPD*%
G04 APERTURE LIST*
%ADD10C,0.100000*%
%ADD11C,0.010000*%
%ADD12C,0.150000*%
%ADD13R,0.260000X0.840000*%
%ADD14R,0.840000X0.260000*%
%ADD15R,1.480000X0.410000*%
%ADD16R,2.100000X0.890000*%
%ADD17R,1.600000X1.300000*%
%ADD18R,1.100000X0.450000*%
%ADD19R,1.475000X0.450000*%
%ADD20R,0.533400X1.270000*%
%ADD21R,0.650000X1.528000*%
%ADD22R,1.700000X0.800000*%
%ADD23R,6.000000X2.010000*%
%ADD24R,0.900000X1.200000*%
%ADD25R,0.890000X2.100000*%
G04 APERTURE END LIST*
D10*
X0Y-54000000D02*
X84999492Y-54000000D01*
X84999492Y0D02*
X84999492Y-54000000D01*
X0Y-54000000D02*
X0Y0D01*
X0Y0D02*
X84999492Y0D01*
D11*
G36*
X64648200Y-44070600D02*
G01*
X65748200Y-44070600D01*
X65748200Y-45170600D01*
X64648200Y-45170600D01*
X64648200Y-44070600D01*
G37*
X64648200Y-44070600D02*
X65748200Y-44070600D01*
X65748200Y-45170600D01*
X64648200Y-45170600D01*
X64648200Y-44070600D01*
G36*
X63248200Y-44070600D02*
G01*
X64348200Y-44070600D01*
X64348200Y-45170600D01*
X63248200Y-45170600D01*
X63248200Y-44070600D01*
G37*
X63248200Y-44070600D02*
X64348200Y-44070600D01*
X64348200Y-45170600D01*
X63248200Y-45170600D01*
X63248200Y-44070600D01*
G36*
X63248200Y-42670600D02*
G01*
X64348200Y-42670600D01*
X64348200Y-43770600D01*
X63248200Y-43770600D01*
X63248200Y-42670600D01*
G37*
X63248200Y-42670600D02*
X64348200Y-42670600D01*
X64348200Y-43770600D01*
X63248200Y-43770600D01*
X63248200Y-42670600D01*
G36*
X64648200Y-42670600D02*
G01*
X65748200Y-42670600D01*
X65748200Y-43770600D01*
X64648200Y-43770600D01*
X64648200Y-42670600D01*
G37*
X64648200Y-42670600D02*
X65748200Y-42670600D01*
X65748200Y-43770600D01*
X64648200Y-43770600D01*
X64648200Y-42670600D01*
D12*
G36*
X63980691Y-35860053D02*
G01*
X64001926Y-35863203D01*
X64022750Y-35868419D01*
X64042962Y-35875651D01*
X64062368Y-35884830D01*
X64080781Y-35895866D01*
X64098024Y-35908654D01*
X64113930Y-35923070D01*
X64128346Y-35938976D01*
X64141134Y-35956219D01*
X64152170Y-35974632D01*
X64161349Y-35994038D01*
X64168581Y-36014250D01*
X64173797Y-36035074D01*
X64176947Y-36056309D01*
X64178000Y-36077750D01*
X64178000Y-36515250D01*
X64176947Y-36536691D01*
X64173797Y-36557926D01*
X64168581Y-36578750D01*
X64161349Y-36598962D01*
X64152170Y-36618368D01*
X64141134Y-36636781D01*
X64128346Y-36654024D01*
X64113930Y-36669930D01*
X64098024Y-36684346D01*
X64080781Y-36697134D01*
X64062368Y-36708170D01*
X64042962Y-36717349D01*
X64022750Y-36724581D01*
X64001926Y-36729797D01*
X63980691Y-36732947D01*
X63959250Y-36734000D01*
X63446750Y-36734000D01*
X63425309Y-36732947D01*
X63404074Y-36729797D01*
X63383250Y-36724581D01*
X63363038Y-36717349D01*
X63343632Y-36708170D01*
X63325219Y-36697134D01*
X63307976Y-36684346D01*
X63292070Y-36669930D01*
X63277654Y-36654024D01*
X63264866Y-36636781D01*
X63253830Y-36618368D01*
X63244651Y-36598962D01*
X63237419Y-36578750D01*
X63232203Y-36557926D01*
X63229053Y-36536691D01*
X63228000Y-36515250D01*
X63228000Y-36077750D01*
X63229053Y-36056309D01*
X63232203Y-36035074D01*
X63237419Y-36014250D01*
X63244651Y-35994038D01*
X63253830Y-35974632D01*
X63264866Y-35956219D01*
X63277654Y-35938976D01*
X63292070Y-35923070D01*
X63307976Y-35908654D01*
X63325219Y-35895866D01*
X63343632Y-35884830D01*
X63363038Y-35875651D01*
X63383250Y-35868419D01*
X63404074Y-35863203D01*
X63425309Y-35860053D01*
X63446750Y-35859000D01*
X63959250Y-35859000D01*
X63980691Y-35860053D01*
G37*
G36*
X63980691Y-37435053D02*
G01*
X64001926Y-37438203D01*
X64022750Y-37443419D01*
X64042962Y-37450651D01*
X64062368Y-37459830D01*
X64080781Y-37470866D01*
X64098024Y-37483654D01*
X64113930Y-37498070D01*
X64128346Y-37513976D01*
X64141134Y-37531219D01*
X64152170Y-37549632D01*
X64161349Y-37569038D01*
X64168581Y-37589250D01*
X64173797Y-37610074D01*
X64176947Y-37631309D01*
X64178000Y-37652750D01*
X64178000Y-38090250D01*
X64176947Y-38111691D01*
X64173797Y-38132926D01*
X64168581Y-38153750D01*
X64161349Y-38173962D01*
X64152170Y-38193368D01*
X64141134Y-38211781D01*
X64128346Y-38229024D01*
X64113930Y-38244930D01*
X64098024Y-38259346D01*
X64080781Y-38272134D01*
X64062368Y-38283170D01*
X64042962Y-38292349D01*
X64022750Y-38299581D01*
X64001926Y-38304797D01*
X63980691Y-38307947D01*
X63959250Y-38309000D01*
X63446750Y-38309000D01*
X63425309Y-38307947D01*
X63404074Y-38304797D01*
X63383250Y-38299581D01*
X63363038Y-38292349D01*
X63343632Y-38283170D01*
X63325219Y-38272134D01*
X63307976Y-38259346D01*
X63292070Y-38244930D01*
X63277654Y-38229024D01*
X63264866Y-38211781D01*
X63253830Y-38193368D01*
X63244651Y-38173962D01*
X63237419Y-38153750D01*
X63232203Y-38132926D01*
X63229053Y-38111691D01*
X63228000Y-38090250D01*
X63228000Y-37652750D01*
X63229053Y-37631309D01*
X63232203Y-37610074D01*
X63237419Y-37589250D01*
X63244651Y-37569038D01*
X63253830Y-37549632D01*
X63264866Y-37531219D01*
X63277654Y-37513976D01*
X63292070Y-37498070D01*
X63307976Y-37483654D01*
X63325219Y-37470866D01*
X63343632Y-37459830D01*
X63363038Y-37450651D01*
X63383250Y-37443419D01*
X63404074Y-37438203D01*
X63425309Y-37435053D01*
X63446750Y-37434000D01*
X63959250Y-37434000D01*
X63980691Y-37435053D01*
G37*
D13*
X61748200Y-40485600D03*
X62248200Y-40485600D03*
X62748200Y-40485600D03*
X63248200Y-40485600D03*
X63748200Y-40485600D03*
X64248200Y-40485600D03*
X64748200Y-40485600D03*
X65248200Y-40485600D03*
X65748200Y-40485600D03*
X66248200Y-40485600D03*
X66748200Y-40485600D03*
X67248200Y-40485600D03*
D14*
X67933200Y-41170600D03*
X67933200Y-41670600D03*
X67933200Y-42170600D03*
X67933200Y-42670600D03*
X67933200Y-43170600D03*
X67933200Y-43670600D03*
X67933200Y-44170600D03*
X67933200Y-44670600D03*
X67933200Y-45170600D03*
X67933200Y-45670600D03*
X67933200Y-46170600D03*
X67933200Y-46670600D03*
D13*
X67248200Y-47355600D03*
X66748200Y-47355600D03*
X66248200Y-47355600D03*
X65748200Y-47355600D03*
X65248200Y-47355600D03*
X64748200Y-47355600D03*
X64248200Y-47355600D03*
X63748200Y-47355600D03*
X63248200Y-47355600D03*
X62748200Y-47355600D03*
X62248200Y-47355600D03*
X61748200Y-47355600D03*
D14*
X61063200Y-46670600D03*
X61063200Y-46170600D03*
X61063200Y-45670600D03*
X61063200Y-45170600D03*
X61063200Y-44670600D03*
X61063200Y-44170600D03*
X61063200Y-43670600D03*
X61063200Y-43170600D03*
X61063200Y-42670600D03*
X61063200Y-42170600D03*
X61063200Y-41670600D03*
X61063200Y-41170600D03*
D15*
X14915000Y-20451000D03*
X14915000Y-19801000D03*
X14915000Y-19151000D03*
X14915000Y-18501000D03*
X14915000Y-17851000D03*
X14915000Y-17201000D03*
X14915000Y-16551000D03*
X14915000Y-15901000D03*
X14915000Y-15251000D03*
X14915000Y-14601000D03*
X20645000Y-14601000D03*
X20645000Y-15251000D03*
X20645000Y-15901000D03*
X20645000Y-16551000D03*
X20645000Y-17201000D03*
X20645000Y-17851000D03*
X20645000Y-18501000D03*
X20645000Y-19151000D03*
X20645000Y-19801000D03*
X20645000Y-20451000D03*
D16*
X6698000Y-30890000D03*
X6698000Y-28890000D03*
X6698000Y-26890000D03*
X6698000Y-24890000D03*
X6698000Y-22890000D03*
X6698000Y-20890000D03*
X6698000Y-18890000D03*
X6698000Y-16890000D03*
X6698000Y-14890000D03*
X6698000Y-12890000D03*
X1398000Y-30890000D03*
X1398000Y-28890000D03*
X1398000Y-26890000D03*
X1398000Y-24890000D03*
X1398000Y-22890000D03*
X1398000Y-20890000D03*
X1398000Y-18890000D03*
X1398000Y-16890000D03*
X1398000Y-14890000D03*
X1398000Y-8890000D03*
X6698000Y-8890000D03*
X6698000Y-10890000D03*
X1398000Y-10890000D03*
X1398000Y-12890000D03*
D12*
G36*
X79919191Y-49639553D02*
G01*
X79940426Y-49642703D01*
X79961250Y-49647919D01*
X79981462Y-49655151D01*
X80000868Y-49664330D01*
X80019281Y-49675366D01*
X80036524Y-49688154D01*
X80052430Y-49702570D01*
X80066846Y-49718476D01*
X80079634Y-49735719D01*
X80090670Y-49754132D01*
X80099849Y-49773538D01*
X80107081Y-49793750D01*
X80112297Y-49814574D01*
X80115447Y-49835809D01*
X80116500Y-49857250D01*
X80116500Y-50294750D01*
X80115447Y-50316191D01*
X80112297Y-50337426D01*
X80107081Y-50358250D01*
X80099849Y-50378462D01*
X80090670Y-50397868D01*
X80079634Y-50416281D01*
X80066846Y-50433524D01*
X80052430Y-50449430D01*
X80036524Y-50463846D01*
X80019281Y-50476634D01*
X80000868Y-50487670D01*
X79981462Y-50496849D01*
X79961250Y-50504081D01*
X79940426Y-50509297D01*
X79919191Y-50512447D01*
X79897750Y-50513500D01*
X79385250Y-50513500D01*
X79363809Y-50512447D01*
X79342574Y-50509297D01*
X79321750Y-50504081D01*
X79301538Y-50496849D01*
X79282132Y-50487670D01*
X79263719Y-50476634D01*
X79246476Y-50463846D01*
X79230570Y-50449430D01*
X79216154Y-50433524D01*
X79203366Y-50416281D01*
X79192330Y-50397868D01*
X79183151Y-50378462D01*
X79175919Y-50358250D01*
X79170703Y-50337426D01*
X79167553Y-50316191D01*
X79166500Y-50294750D01*
X79166500Y-49857250D01*
X79167553Y-49835809D01*
X79170703Y-49814574D01*
X79175919Y-49793750D01*
X79183151Y-49773538D01*
X79192330Y-49754132D01*
X79203366Y-49735719D01*
X79216154Y-49718476D01*
X79230570Y-49702570D01*
X79246476Y-49688154D01*
X79263719Y-49675366D01*
X79282132Y-49664330D01*
X79301538Y-49655151D01*
X79321750Y-49647919D01*
X79342574Y-49642703D01*
X79363809Y-49639553D01*
X79385250Y-49638500D01*
X79897750Y-49638500D01*
X79919191Y-49639553D01*
G37*
G36*
X79919191Y-48064553D02*
G01*
X79940426Y-48067703D01*
X79961250Y-48072919D01*
X79981462Y-48080151D01*
X80000868Y-48089330D01*
X80019281Y-48100366D01*
X80036524Y-48113154D01*
X80052430Y-48127570D01*
X80066846Y-48143476D01*
X80079634Y-48160719D01*
X80090670Y-48179132D01*
X80099849Y-48198538D01*
X80107081Y-48218750D01*
X80112297Y-48239574D01*
X80115447Y-48260809D01*
X80116500Y-48282250D01*
X80116500Y-48719750D01*
X80115447Y-48741191D01*
X80112297Y-48762426D01*
X80107081Y-48783250D01*
X80099849Y-48803462D01*
X80090670Y-48822868D01*
X80079634Y-48841281D01*
X80066846Y-48858524D01*
X80052430Y-48874430D01*
X80036524Y-48888846D01*
X80019281Y-48901634D01*
X80000868Y-48912670D01*
X79981462Y-48921849D01*
X79961250Y-48929081D01*
X79940426Y-48934297D01*
X79919191Y-48937447D01*
X79897750Y-48938500D01*
X79385250Y-48938500D01*
X79363809Y-48937447D01*
X79342574Y-48934297D01*
X79321750Y-48929081D01*
X79301538Y-48921849D01*
X79282132Y-48912670D01*
X79263719Y-48901634D01*
X79246476Y-48888846D01*
X79230570Y-48874430D01*
X79216154Y-48858524D01*
X79203366Y-48841281D01*
X79192330Y-48822868D01*
X79183151Y-48803462D01*
X79175919Y-48783250D01*
X79170703Y-48762426D01*
X79167553Y-48741191D01*
X79166500Y-48719750D01*
X79166500Y-48282250D01*
X79167553Y-48260809D01*
X79170703Y-48239574D01*
X79175919Y-48218750D01*
X79183151Y-48198538D01*
X79192330Y-48179132D01*
X79203366Y-48160719D01*
X79216154Y-48143476D01*
X79230570Y-48127570D01*
X79246476Y-48113154D01*
X79263719Y-48100366D01*
X79282132Y-48089330D01*
X79301538Y-48080151D01*
X79321750Y-48072919D01*
X79342574Y-48067703D01*
X79363809Y-48064553D01*
X79385250Y-48063500D01*
X79897750Y-48063500D01*
X79919191Y-48064553D01*
G37*
G36*
X71029191Y-49233053D02*
G01*
X71050426Y-49236203D01*
X71071250Y-49241419D01*
X71091462Y-49248651D01*
X71110868Y-49257830D01*
X71129281Y-49268866D01*
X71146524Y-49281654D01*
X71162430Y-49296070D01*
X71176846Y-49311976D01*
X71189634Y-49329219D01*
X71200670Y-49347632D01*
X71209849Y-49367038D01*
X71217081Y-49387250D01*
X71222297Y-49408074D01*
X71225447Y-49429309D01*
X71226500Y-49450750D01*
X71226500Y-49888250D01*
X71225447Y-49909691D01*
X71222297Y-49930926D01*
X71217081Y-49951750D01*
X71209849Y-49971962D01*
X71200670Y-49991368D01*
X71189634Y-50009781D01*
X71176846Y-50027024D01*
X71162430Y-50042930D01*
X71146524Y-50057346D01*
X71129281Y-50070134D01*
X71110868Y-50081170D01*
X71091462Y-50090349D01*
X71071250Y-50097581D01*
X71050426Y-50102797D01*
X71029191Y-50105947D01*
X71007750Y-50107000D01*
X70495250Y-50107000D01*
X70473809Y-50105947D01*
X70452574Y-50102797D01*
X70431750Y-50097581D01*
X70411538Y-50090349D01*
X70392132Y-50081170D01*
X70373719Y-50070134D01*
X70356476Y-50057346D01*
X70340570Y-50042930D01*
X70326154Y-50027024D01*
X70313366Y-50009781D01*
X70302330Y-49991368D01*
X70293151Y-49971962D01*
X70285919Y-49951750D01*
X70280703Y-49930926D01*
X70277553Y-49909691D01*
X70276500Y-49888250D01*
X70276500Y-49450750D01*
X70277553Y-49429309D01*
X70280703Y-49408074D01*
X70285919Y-49387250D01*
X70293151Y-49367038D01*
X70302330Y-49347632D01*
X70313366Y-49329219D01*
X70326154Y-49311976D01*
X70340570Y-49296070D01*
X70356476Y-49281654D01*
X70373719Y-49268866D01*
X70392132Y-49257830D01*
X70411538Y-49248651D01*
X70431750Y-49241419D01*
X70452574Y-49236203D01*
X70473809Y-49233053D01*
X70495250Y-49232000D01*
X71007750Y-49232000D01*
X71029191Y-49233053D01*
G37*
G36*
X71029191Y-50808053D02*
G01*
X71050426Y-50811203D01*
X71071250Y-50816419D01*
X71091462Y-50823651D01*
X71110868Y-50832830D01*
X71129281Y-50843866D01*
X71146524Y-50856654D01*
X71162430Y-50871070D01*
X71176846Y-50886976D01*
X71189634Y-50904219D01*
X71200670Y-50922632D01*
X71209849Y-50942038D01*
X71217081Y-50962250D01*
X71222297Y-50983074D01*
X71225447Y-51004309D01*
X71226500Y-51025750D01*
X71226500Y-51463250D01*
X71225447Y-51484691D01*
X71222297Y-51505926D01*
X71217081Y-51526750D01*
X71209849Y-51546962D01*
X71200670Y-51566368D01*
X71189634Y-51584781D01*
X71176846Y-51602024D01*
X71162430Y-51617930D01*
X71146524Y-51632346D01*
X71129281Y-51645134D01*
X71110868Y-51656170D01*
X71091462Y-51665349D01*
X71071250Y-51672581D01*
X71050426Y-51677797D01*
X71029191Y-51680947D01*
X71007750Y-51682000D01*
X70495250Y-51682000D01*
X70473809Y-51680947D01*
X70452574Y-51677797D01*
X70431750Y-51672581D01*
X70411538Y-51665349D01*
X70392132Y-51656170D01*
X70373719Y-51645134D01*
X70356476Y-51632346D01*
X70340570Y-51617930D01*
X70326154Y-51602024D01*
X70313366Y-51584781D01*
X70302330Y-51566368D01*
X70293151Y-51546962D01*
X70285919Y-51526750D01*
X70280703Y-51505926D01*
X70277553Y-51484691D01*
X70276500Y-51463250D01*
X70276500Y-51025750D01*
X70277553Y-51004309D01*
X70280703Y-50983074D01*
X70285919Y-50962250D01*
X70293151Y-50942038D01*
X70302330Y-50922632D01*
X70313366Y-50904219D01*
X70326154Y-50886976D01*
X70340570Y-50871070D01*
X70356476Y-50856654D01*
X70373719Y-50843866D01*
X70392132Y-50832830D01*
X70411538Y-50823651D01*
X70431750Y-50816419D01*
X70452574Y-50811203D01*
X70473809Y-50808053D01*
X70495250Y-50807000D01*
X71007750Y-50807000D01*
X71029191Y-50808053D01*
G37*
D17*
X73284000Y-48507000D03*
X77084000Y-48507000D03*
X77084000Y-50807000D03*
X73284000Y-50807000D03*
D18*
X15830000Y-12151000D03*
X15830000Y-11501000D03*
X15830000Y-10851000D03*
X15830000Y-10201000D03*
X19730000Y-10201000D03*
X19730000Y-10851000D03*
X19730000Y-11501000D03*
X19730000Y-12151000D03*
X48178000Y-30521000D03*
X48178000Y-31171000D03*
X48178000Y-31821000D03*
X48178000Y-32471000D03*
X44278000Y-32471000D03*
X44278000Y-31821000D03*
X44278000Y-31171000D03*
X44278000Y-30521000D03*
X15576000Y-33296500D03*
X15576000Y-32646500D03*
X15576000Y-31996500D03*
X15576000Y-31346500D03*
X19476000Y-31346500D03*
X19476000Y-31996500D03*
X19476000Y-32646500D03*
X19476000Y-33296500D03*
D15*
X14915000Y-27944000D03*
X14915000Y-27294000D03*
X14915000Y-26644000D03*
X14915000Y-25994000D03*
X14915000Y-25344000D03*
X14915000Y-24694000D03*
X14915000Y-24044000D03*
X14915000Y-23394000D03*
X14915000Y-22744000D03*
X14915000Y-22094000D03*
X20645000Y-22094000D03*
X20645000Y-22744000D03*
X20645000Y-23394000D03*
X20645000Y-24044000D03*
X20645000Y-24694000D03*
X20645000Y-25344000D03*
X20645000Y-25994000D03*
X20645000Y-26644000D03*
X20645000Y-27294000D03*
X20645000Y-27944000D03*
D19*
X49293000Y-11030000D03*
X49293000Y-11680000D03*
X49293000Y-12330000D03*
X49293000Y-12980000D03*
X49293000Y-13630000D03*
X49293000Y-14280000D03*
X49293000Y-14930000D03*
X49293000Y-15580000D03*
X49293000Y-16230000D03*
X49293000Y-16880000D03*
X49293000Y-17530000D03*
X49293000Y-18180000D03*
X43417000Y-18180000D03*
X43417000Y-17530000D03*
X43417000Y-16880000D03*
X43417000Y-16230000D03*
X43417000Y-15580000D03*
X43417000Y-14930000D03*
X43417000Y-14280000D03*
X43417000Y-13630000D03*
X43417000Y-12980000D03*
X43417000Y-12330000D03*
X43417000Y-11680000D03*
X43417000Y-11030000D03*
X49166000Y-20682000D03*
X49166000Y-21332000D03*
X49166000Y-21982000D03*
X49166000Y-22632000D03*
X49166000Y-23282000D03*
X49166000Y-23932000D03*
X49166000Y-24582000D03*
X49166000Y-25232000D03*
X49166000Y-25882000D03*
X49166000Y-26532000D03*
X49166000Y-27182000D03*
X49166000Y-27832000D03*
X43290000Y-27832000D03*
X43290000Y-27182000D03*
X43290000Y-26532000D03*
X43290000Y-25882000D03*
X43290000Y-25232000D03*
X43290000Y-24582000D03*
X43290000Y-23932000D03*
X43290000Y-23282000D03*
X43290000Y-22632000D03*
X43290000Y-21982000D03*
X43290000Y-21332000D03*
X43290000Y-20682000D03*
D12*
G36*
X12584691Y-29307553D02*
G01*
X12605926Y-29310703D01*
X12626750Y-29315919D01*
X12646962Y-29323151D01*
X12666368Y-29332330D01*
X12684781Y-29343366D01*
X12702024Y-29356154D01*
X12717930Y-29370570D01*
X12732346Y-29386476D01*
X12745134Y-29403719D01*
X12756170Y-29422132D01*
X12765349Y-29441538D01*
X12772581Y-29461750D01*
X12777797Y-29482574D01*
X12780947Y-29503809D01*
X12782000Y-29525250D01*
X12782000Y-30037750D01*
X12780947Y-30059191D01*
X12777797Y-30080426D01*
X12772581Y-30101250D01*
X12765349Y-30121462D01*
X12756170Y-30140868D01*
X12745134Y-30159281D01*
X12732346Y-30176524D01*
X12717930Y-30192430D01*
X12702024Y-30206846D01*
X12684781Y-30219634D01*
X12666368Y-30230670D01*
X12646962Y-30239849D01*
X12626750Y-30247081D01*
X12605926Y-30252297D01*
X12584691Y-30255447D01*
X12563250Y-30256500D01*
X12125750Y-30256500D01*
X12104309Y-30255447D01*
X12083074Y-30252297D01*
X12062250Y-30247081D01*
X12042038Y-30239849D01*
X12022632Y-30230670D01*
X12004219Y-30219634D01*
X11986976Y-30206846D01*
X11971070Y-30192430D01*
X11956654Y-30176524D01*
X11943866Y-30159281D01*
X11932830Y-30140868D01*
X11923651Y-30121462D01*
X11916419Y-30101250D01*
X11911203Y-30080426D01*
X11908053Y-30059191D01*
X11907000Y-30037750D01*
X11907000Y-29525250D01*
X11908053Y-29503809D01*
X11911203Y-29482574D01*
X11916419Y-29461750D01*
X11923651Y-29441538D01*
X11932830Y-29422132D01*
X11943866Y-29403719D01*
X11956654Y-29386476D01*
X11971070Y-29370570D01*
X11986976Y-29356154D01*
X12004219Y-29343366D01*
X12022632Y-29332330D01*
X12042038Y-29323151D01*
X12062250Y-29315919D01*
X12083074Y-29310703D01*
X12104309Y-29307553D01*
X12125750Y-29306500D01*
X12563250Y-29306500D01*
X12584691Y-29307553D01*
G37*
G36*
X11009691Y-29307553D02*
G01*
X11030926Y-29310703D01*
X11051750Y-29315919D01*
X11071962Y-29323151D01*
X11091368Y-29332330D01*
X11109781Y-29343366D01*
X11127024Y-29356154D01*
X11142930Y-29370570D01*
X11157346Y-29386476D01*
X11170134Y-29403719D01*
X11181170Y-29422132D01*
X11190349Y-29441538D01*
X11197581Y-29461750D01*
X11202797Y-29482574D01*
X11205947Y-29503809D01*
X11207000Y-29525250D01*
X11207000Y-30037750D01*
X11205947Y-30059191D01*
X11202797Y-30080426D01*
X11197581Y-30101250D01*
X11190349Y-30121462D01*
X11181170Y-30140868D01*
X11170134Y-30159281D01*
X11157346Y-30176524D01*
X11142930Y-30192430D01*
X11127024Y-30206846D01*
X11109781Y-30219634D01*
X11091368Y-30230670D01*
X11071962Y-30239849D01*
X11051750Y-30247081D01*
X11030926Y-30252297D01*
X11009691Y-30255447D01*
X10988250Y-30256500D01*
X10550750Y-30256500D01*
X10529309Y-30255447D01*
X10508074Y-30252297D01*
X10487250Y-30247081D01*
X10467038Y-30239849D01*
X10447632Y-30230670D01*
X10429219Y-30219634D01*
X10411976Y-30206846D01*
X10396070Y-30192430D01*
X10381654Y-30176524D01*
X10368866Y-30159281D01*
X10357830Y-30140868D01*
X10348651Y-30121462D01*
X10341419Y-30101250D01*
X10336203Y-30080426D01*
X10333053Y-30059191D01*
X10332000Y-30037750D01*
X10332000Y-29525250D01*
X10333053Y-29503809D01*
X10336203Y-29482574D01*
X10341419Y-29461750D01*
X10348651Y-29441538D01*
X10357830Y-29422132D01*
X10368866Y-29403719D01*
X10381654Y-29386476D01*
X10396070Y-29370570D01*
X10411976Y-29356154D01*
X10429219Y-29343366D01*
X10447632Y-29332330D01*
X10467038Y-29323151D01*
X10487250Y-29315919D01*
X10508074Y-29310703D01*
X10529309Y-29307553D01*
X10550750Y-29306500D01*
X10988250Y-29306500D01*
X11009691Y-29307553D01*
G37*
G36*
X11009691Y-30831553D02*
G01*
X11030926Y-30834703D01*
X11051750Y-30839919D01*
X11071962Y-30847151D01*
X11091368Y-30856330D01*
X11109781Y-30867366D01*
X11127024Y-30880154D01*
X11142930Y-30894570D01*
X11157346Y-30910476D01*
X11170134Y-30927719D01*
X11181170Y-30946132D01*
X11190349Y-30965538D01*
X11197581Y-30985750D01*
X11202797Y-31006574D01*
X11205947Y-31027809D01*
X11207000Y-31049250D01*
X11207000Y-31561750D01*
X11205947Y-31583191D01*
X11202797Y-31604426D01*
X11197581Y-31625250D01*
X11190349Y-31645462D01*
X11181170Y-31664868D01*
X11170134Y-31683281D01*
X11157346Y-31700524D01*
X11142930Y-31716430D01*
X11127024Y-31730846D01*
X11109781Y-31743634D01*
X11091368Y-31754670D01*
X11071962Y-31763849D01*
X11051750Y-31771081D01*
X11030926Y-31776297D01*
X11009691Y-31779447D01*
X10988250Y-31780500D01*
X10550750Y-31780500D01*
X10529309Y-31779447D01*
X10508074Y-31776297D01*
X10487250Y-31771081D01*
X10467038Y-31763849D01*
X10447632Y-31754670D01*
X10429219Y-31743634D01*
X10411976Y-31730846D01*
X10396070Y-31716430D01*
X10381654Y-31700524D01*
X10368866Y-31683281D01*
X10357830Y-31664868D01*
X10348651Y-31645462D01*
X10341419Y-31625250D01*
X10336203Y-31604426D01*
X10333053Y-31583191D01*
X10332000Y-31561750D01*
X10332000Y-31049250D01*
X10333053Y-31027809D01*
X10336203Y-31006574D01*
X10341419Y-30985750D01*
X10348651Y-30965538D01*
X10357830Y-30946132D01*
X10368866Y-30927719D01*
X10381654Y-30910476D01*
X10396070Y-30894570D01*
X10411976Y-30880154D01*
X10429219Y-30867366D01*
X10447632Y-30856330D01*
X10467038Y-30847151D01*
X10487250Y-30839919D01*
X10508074Y-30834703D01*
X10529309Y-30831553D01*
X10550750Y-30830500D01*
X10988250Y-30830500D01*
X11009691Y-30831553D01*
G37*
G36*
X12584691Y-30831553D02*
G01*
X12605926Y-30834703D01*
X12626750Y-30839919D01*
X12646962Y-30847151D01*
X12666368Y-30856330D01*
X12684781Y-30867366D01*
X12702024Y-30880154D01*
X12717930Y-30894570D01*
X12732346Y-30910476D01*
X12745134Y-30927719D01*
X12756170Y-30946132D01*
X12765349Y-30965538D01*
X12772581Y-30985750D01*
X12777797Y-31006574D01*
X12780947Y-31027809D01*
X12782000Y-31049250D01*
X12782000Y-31561750D01*
X12780947Y-31583191D01*
X12777797Y-31604426D01*
X12772581Y-31625250D01*
X12765349Y-31645462D01*
X12756170Y-31664868D01*
X12745134Y-31683281D01*
X12732346Y-31700524D01*
X12717930Y-31716430D01*
X12702024Y-31730846D01*
X12684781Y-31743634D01*
X12666368Y-31754670D01*
X12646962Y-31763849D01*
X12626750Y-31771081D01*
X12605926Y-31776297D01*
X12584691Y-31779447D01*
X12563250Y-31780500D01*
X12125750Y-31780500D01*
X12104309Y-31779447D01*
X12083074Y-31776297D01*
X12062250Y-31771081D01*
X12042038Y-31763849D01*
X12022632Y-31754670D01*
X12004219Y-31743634D01*
X11986976Y-31730846D01*
X11971070Y-31716430D01*
X11956654Y-31700524D01*
X11943866Y-31683281D01*
X11932830Y-31664868D01*
X11923651Y-31645462D01*
X11916419Y-31625250D01*
X11911203Y-31604426D01*
X11908053Y-31583191D01*
X11907000Y-31561750D01*
X11907000Y-31049250D01*
X11908053Y-31027809D01*
X11911203Y-31006574D01*
X11916419Y-30985750D01*
X11923651Y-30965538D01*
X11932830Y-30946132D01*
X11943866Y-30927719D01*
X11956654Y-30910476D01*
X11971070Y-30894570D01*
X11986976Y-30880154D01*
X12004219Y-30867366D01*
X12022632Y-30856330D01*
X12042038Y-30847151D01*
X12062250Y-30839919D01*
X12083074Y-30834703D01*
X12104309Y-30831553D01*
X12125750Y-30830500D01*
X12563250Y-30830500D01*
X12584691Y-30831553D01*
G37*
G36*
X12584691Y-33879553D02*
G01*
X12605926Y-33882703D01*
X12626750Y-33887919D01*
X12646962Y-33895151D01*
X12666368Y-33904330D01*
X12684781Y-33915366D01*
X12702024Y-33928154D01*
X12717930Y-33942570D01*
X12732346Y-33958476D01*
X12745134Y-33975719D01*
X12756170Y-33994132D01*
X12765349Y-34013538D01*
X12772581Y-34033750D01*
X12777797Y-34054574D01*
X12780947Y-34075809D01*
X12782000Y-34097250D01*
X12782000Y-34609750D01*
X12780947Y-34631191D01*
X12777797Y-34652426D01*
X12772581Y-34673250D01*
X12765349Y-34693462D01*
X12756170Y-34712868D01*
X12745134Y-34731281D01*
X12732346Y-34748524D01*
X12717930Y-34764430D01*
X12702024Y-34778846D01*
X12684781Y-34791634D01*
X12666368Y-34802670D01*
X12646962Y-34811849D01*
X12626750Y-34819081D01*
X12605926Y-34824297D01*
X12584691Y-34827447D01*
X12563250Y-34828500D01*
X12125750Y-34828500D01*
X12104309Y-34827447D01*
X12083074Y-34824297D01*
X12062250Y-34819081D01*
X12042038Y-34811849D01*
X12022632Y-34802670D01*
X12004219Y-34791634D01*
X11986976Y-34778846D01*
X11971070Y-34764430D01*
X11956654Y-34748524D01*
X11943866Y-34731281D01*
X11932830Y-34712868D01*
X11923651Y-34693462D01*
X11916419Y-34673250D01*
X11911203Y-34652426D01*
X11908053Y-34631191D01*
X11907000Y-34609750D01*
X11907000Y-34097250D01*
X11908053Y-34075809D01*
X11911203Y-34054574D01*
X11916419Y-34033750D01*
X11923651Y-34013538D01*
X11932830Y-33994132D01*
X11943866Y-33975719D01*
X11956654Y-33958476D01*
X11971070Y-33942570D01*
X11986976Y-33928154D01*
X12004219Y-33915366D01*
X12022632Y-33904330D01*
X12042038Y-33895151D01*
X12062250Y-33887919D01*
X12083074Y-33882703D01*
X12104309Y-33879553D01*
X12125750Y-33878500D01*
X12563250Y-33878500D01*
X12584691Y-33879553D01*
G37*
G36*
X11009691Y-33879553D02*
G01*
X11030926Y-33882703D01*
X11051750Y-33887919D01*
X11071962Y-33895151D01*
X11091368Y-33904330D01*
X11109781Y-33915366D01*
X11127024Y-33928154D01*
X11142930Y-33942570D01*
X11157346Y-33958476D01*
X11170134Y-33975719D01*
X11181170Y-33994132D01*
X11190349Y-34013538D01*
X11197581Y-34033750D01*
X11202797Y-34054574D01*
X11205947Y-34075809D01*
X11207000Y-34097250D01*
X11207000Y-34609750D01*
X11205947Y-34631191D01*
X11202797Y-34652426D01*
X11197581Y-34673250D01*
X11190349Y-34693462D01*
X11181170Y-34712868D01*
X11170134Y-34731281D01*
X11157346Y-34748524D01*
X11142930Y-34764430D01*
X11127024Y-34778846D01*
X11109781Y-34791634D01*
X11091368Y-34802670D01*
X11071962Y-34811849D01*
X11051750Y-34819081D01*
X11030926Y-34824297D01*
X11009691Y-34827447D01*
X10988250Y-34828500D01*
X10550750Y-34828500D01*
X10529309Y-34827447D01*
X10508074Y-34824297D01*
X10487250Y-34819081D01*
X10467038Y-34811849D01*
X10447632Y-34802670D01*
X10429219Y-34791634D01*
X10411976Y-34778846D01*
X10396070Y-34764430D01*
X10381654Y-34748524D01*
X10368866Y-34731281D01*
X10357830Y-34712868D01*
X10348651Y-34693462D01*
X10341419Y-34673250D01*
X10336203Y-34652426D01*
X10333053Y-34631191D01*
X10332000Y-34609750D01*
X10332000Y-34097250D01*
X10333053Y-34075809D01*
X10336203Y-34054574D01*
X10341419Y-34033750D01*
X10348651Y-34013538D01*
X10357830Y-33994132D01*
X10368866Y-33975719D01*
X10381654Y-33958476D01*
X10396070Y-33942570D01*
X10411976Y-33928154D01*
X10429219Y-33915366D01*
X10447632Y-33904330D01*
X10467038Y-33895151D01*
X10487250Y-33887919D01*
X10508074Y-33882703D01*
X10529309Y-33879553D01*
X10550750Y-33878500D01*
X10988250Y-33878500D01*
X11009691Y-33879553D01*
G37*
G36*
X10984191Y-32355553D02*
G01*
X11005426Y-32358703D01*
X11026250Y-32363919D01*
X11046462Y-32371151D01*
X11065868Y-32380330D01*
X11084281Y-32391366D01*
X11101524Y-32404154D01*
X11117430Y-32418570D01*
X11131846Y-32434476D01*
X11144634Y-32451719D01*
X11155670Y-32470132D01*
X11164849Y-32489538D01*
X11172081Y-32509750D01*
X11177297Y-32530574D01*
X11180447Y-32551809D01*
X11181500Y-32573250D01*
X11181500Y-33085750D01*
X11180447Y-33107191D01*
X11177297Y-33128426D01*
X11172081Y-33149250D01*
X11164849Y-33169462D01*
X11155670Y-33188868D01*
X11144634Y-33207281D01*
X11131846Y-33224524D01*
X11117430Y-33240430D01*
X11101524Y-33254846D01*
X11084281Y-33267634D01*
X11065868Y-33278670D01*
X11046462Y-33287849D01*
X11026250Y-33295081D01*
X11005426Y-33300297D01*
X10984191Y-33303447D01*
X10962750Y-33304500D01*
X10525250Y-33304500D01*
X10503809Y-33303447D01*
X10482574Y-33300297D01*
X10461750Y-33295081D01*
X10441538Y-33287849D01*
X10422132Y-33278670D01*
X10403719Y-33267634D01*
X10386476Y-33254846D01*
X10370570Y-33240430D01*
X10356154Y-33224524D01*
X10343366Y-33207281D01*
X10332330Y-33188868D01*
X10323151Y-33169462D01*
X10315919Y-33149250D01*
X10310703Y-33128426D01*
X10307553Y-33107191D01*
X10306500Y-33085750D01*
X10306500Y-32573250D01*
X10307553Y-32551809D01*
X10310703Y-32530574D01*
X10315919Y-32509750D01*
X10323151Y-32489538D01*
X10332330Y-32470132D01*
X10343366Y-32451719D01*
X10356154Y-32434476D01*
X10370570Y-32418570D01*
X10386476Y-32404154D01*
X10403719Y-32391366D01*
X10422132Y-32380330D01*
X10441538Y-32371151D01*
X10461750Y-32363919D01*
X10482574Y-32358703D01*
X10503809Y-32355553D01*
X10525250Y-32354500D01*
X10962750Y-32354500D01*
X10984191Y-32355553D01*
G37*
G36*
X12559191Y-32355553D02*
G01*
X12580426Y-32358703D01*
X12601250Y-32363919D01*
X12621462Y-32371151D01*
X12640868Y-32380330D01*
X12659281Y-32391366D01*
X12676524Y-32404154D01*
X12692430Y-32418570D01*
X12706846Y-32434476D01*
X12719634Y-32451719D01*
X12730670Y-32470132D01*
X12739849Y-32489538D01*
X12747081Y-32509750D01*
X12752297Y-32530574D01*
X12755447Y-32551809D01*
X12756500Y-32573250D01*
X12756500Y-33085750D01*
X12755447Y-33107191D01*
X12752297Y-33128426D01*
X12747081Y-33149250D01*
X12739849Y-33169462D01*
X12730670Y-33188868D01*
X12719634Y-33207281D01*
X12706846Y-33224524D01*
X12692430Y-33240430D01*
X12676524Y-33254846D01*
X12659281Y-33267634D01*
X12640868Y-33278670D01*
X12621462Y-33287849D01*
X12601250Y-33295081D01*
X12580426Y-33300297D01*
X12559191Y-33303447D01*
X12537750Y-33304500D01*
X12100250Y-33304500D01*
X12078809Y-33303447D01*
X12057574Y-33300297D01*
X12036750Y-33295081D01*
X12016538Y-33287849D01*
X11997132Y-33278670D01*
X11978719Y-33267634D01*
X11961476Y-33254846D01*
X11945570Y-33240430D01*
X11931154Y-33224524D01*
X11918366Y-33207281D01*
X11907330Y-33188868D01*
X11898151Y-33169462D01*
X11890919Y-33149250D01*
X11885703Y-33128426D01*
X11882553Y-33107191D01*
X11881500Y-33085750D01*
X11881500Y-32573250D01*
X11882553Y-32551809D01*
X11885703Y-32530574D01*
X11890919Y-32509750D01*
X11898151Y-32489538D01*
X11907330Y-32470132D01*
X11918366Y-32451719D01*
X11931154Y-32434476D01*
X11945570Y-32418570D01*
X11961476Y-32404154D01*
X11978719Y-32391366D01*
X11997132Y-32380330D01*
X12016538Y-32371151D01*
X12036750Y-32363919D01*
X12057574Y-32358703D01*
X12078809Y-32355553D01*
X12100250Y-32354500D01*
X12537750Y-32354500D01*
X12559191Y-32355553D01*
G37*
G36*
X72147691Y-2701053D02*
G01*
X72168926Y-2704203D01*
X72189750Y-2709419D01*
X72209962Y-2716651D01*
X72229368Y-2725830D01*
X72247781Y-2736866D01*
X72265024Y-2749654D01*
X72280930Y-2764070D01*
X72295346Y-2779976D01*
X72308134Y-2797219D01*
X72319170Y-2815632D01*
X72328349Y-2835038D01*
X72335581Y-2855250D01*
X72340797Y-2876074D01*
X72343947Y-2897309D01*
X72345000Y-2918750D01*
X72345000Y-3431250D01*
X72343947Y-3452691D01*
X72340797Y-3473926D01*
X72335581Y-3494750D01*
X72328349Y-3514962D01*
X72319170Y-3534368D01*
X72308134Y-3552781D01*
X72295346Y-3570024D01*
X72280930Y-3585930D01*
X72265024Y-3600346D01*
X72247781Y-3613134D01*
X72229368Y-3624170D01*
X72209962Y-3633349D01*
X72189750Y-3640581D01*
X72168926Y-3645797D01*
X72147691Y-3648947D01*
X72126250Y-3650000D01*
X71688750Y-3650000D01*
X71667309Y-3648947D01*
X71646074Y-3645797D01*
X71625250Y-3640581D01*
X71605038Y-3633349D01*
X71585632Y-3624170D01*
X71567219Y-3613134D01*
X71549976Y-3600346D01*
X71534070Y-3585930D01*
X71519654Y-3570024D01*
X71506866Y-3552781D01*
X71495830Y-3534368D01*
X71486651Y-3514962D01*
X71479419Y-3494750D01*
X71474203Y-3473926D01*
X71471053Y-3452691D01*
X71470000Y-3431250D01*
X71470000Y-2918750D01*
X71471053Y-2897309D01*
X71474203Y-2876074D01*
X71479419Y-2855250D01*
X71486651Y-2835038D01*
X71495830Y-2815632D01*
X71506866Y-2797219D01*
X71519654Y-2779976D01*
X71534070Y-2764070D01*
X71549976Y-2749654D01*
X71567219Y-2736866D01*
X71585632Y-2725830D01*
X71605038Y-2716651D01*
X71625250Y-2709419D01*
X71646074Y-2704203D01*
X71667309Y-2701053D01*
X71688750Y-2700000D01*
X72126250Y-2700000D01*
X72147691Y-2701053D01*
G37*
G36*
X70572691Y-2701053D02*
G01*
X70593926Y-2704203D01*
X70614750Y-2709419D01*
X70634962Y-2716651D01*
X70654368Y-2725830D01*
X70672781Y-2736866D01*
X70690024Y-2749654D01*
X70705930Y-2764070D01*
X70720346Y-2779976D01*
X70733134Y-2797219D01*
X70744170Y-2815632D01*
X70753349Y-2835038D01*
X70760581Y-2855250D01*
X70765797Y-2876074D01*
X70768947Y-2897309D01*
X70770000Y-2918750D01*
X70770000Y-3431250D01*
X70768947Y-3452691D01*
X70765797Y-3473926D01*
X70760581Y-3494750D01*
X70753349Y-3514962D01*
X70744170Y-3534368D01*
X70733134Y-3552781D01*
X70720346Y-3570024D01*
X70705930Y-3585930D01*
X70690024Y-3600346D01*
X70672781Y-3613134D01*
X70654368Y-3624170D01*
X70634962Y-3633349D01*
X70614750Y-3640581D01*
X70593926Y-3645797D01*
X70572691Y-3648947D01*
X70551250Y-3650000D01*
X70113750Y-3650000D01*
X70092309Y-3648947D01*
X70071074Y-3645797D01*
X70050250Y-3640581D01*
X70030038Y-3633349D01*
X70010632Y-3624170D01*
X69992219Y-3613134D01*
X69974976Y-3600346D01*
X69959070Y-3585930D01*
X69944654Y-3570024D01*
X69931866Y-3552781D01*
X69920830Y-3534368D01*
X69911651Y-3514962D01*
X69904419Y-3494750D01*
X69899203Y-3473926D01*
X69896053Y-3452691D01*
X69895000Y-3431250D01*
X69895000Y-2918750D01*
X69896053Y-2897309D01*
X69899203Y-2876074D01*
X69904419Y-2855250D01*
X69911651Y-2835038D01*
X69920830Y-2815632D01*
X69931866Y-2797219D01*
X69944654Y-2779976D01*
X69959070Y-2764070D01*
X69974976Y-2749654D01*
X69992219Y-2736866D01*
X70010632Y-2725830D01*
X70030038Y-2716651D01*
X70050250Y-2709419D01*
X70071074Y-2704203D01*
X70092309Y-2701053D01*
X70113750Y-2700000D01*
X70551250Y-2700000D01*
X70572691Y-2701053D01*
G37*
G36*
X72452142Y-4762174D02*
G01*
X72475803Y-4765684D01*
X72499007Y-4771496D01*
X72521529Y-4779554D01*
X72543153Y-4789782D01*
X72563670Y-4802079D01*
X72582883Y-4816329D01*
X72600607Y-4832393D01*
X72616671Y-4850117D01*
X72630921Y-4869330D01*
X72643218Y-4889847D01*
X72653446Y-4911471D01*
X72661504Y-4933993D01*
X72667316Y-4957197D01*
X72670826Y-4980858D01*
X72672000Y-5004750D01*
X72672000Y-5917250D01*
X72670826Y-5941142D01*
X72667316Y-5964803D01*
X72661504Y-5988007D01*
X72653446Y-6010529D01*
X72643218Y-6032153D01*
X72630921Y-6052670D01*
X72616671Y-6071883D01*
X72600607Y-6089607D01*
X72582883Y-6105671D01*
X72563670Y-6119921D01*
X72543153Y-6132218D01*
X72521529Y-6142446D01*
X72499007Y-6150504D01*
X72475803Y-6156316D01*
X72452142Y-6159826D01*
X72428250Y-6161000D01*
X71940750Y-6161000D01*
X71916858Y-6159826D01*
X71893197Y-6156316D01*
X71869993Y-6150504D01*
X71847471Y-6142446D01*
X71825847Y-6132218D01*
X71805330Y-6119921D01*
X71786117Y-6105671D01*
X71768393Y-6089607D01*
X71752329Y-6071883D01*
X71738079Y-6052670D01*
X71725782Y-6032153D01*
X71715554Y-6010529D01*
X71707496Y-5988007D01*
X71701684Y-5964803D01*
X71698174Y-5941142D01*
X71697000Y-5917250D01*
X71697000Y-5004750D01*
X71698174Y-4980858D01*
X71701684Y-4957197D01*
X71707496Y-4933993D01*
X71715554Y-4911471D01*
X71725782Y-4889847D01*
X71738079Y-4869330D01*
X71752329Y-4850117D01*
X71768393Y-4832393D01*
X71786117Y-4816329D01*
X71805330Y-4802079D01*
X71825847Y-4789782D01*
X71847471Y-4779554D01*
X71869993Y-4771496D01*
X71893197Y-4765684D01*
X71916858Y-4762174D01*
X71940750Y-4761000D01*
X72428250Y-4761000D01*
X72452142Y-4762174D01*
G37*
G36*
X70577142Y-4762174D02*
G01*
X70600803Y-4765684D01*
X70624007Y-4771496D01*
X70646529Y-4779554D01*
X70668153Y-4789782D01*
X70688670Y-4802079D01*
X70707883Y-4816329D01*
X70725607Y-4832393D01*
X70741671Y-4850117D01*
X70755921Y-4869330D01*
X70768218Y-4889847D01*
X70778446Y-4911471D01*
X70786504Y-4933993D01*
X70792316Y-4957197D01*
X70795826Y-4980858D01*
X70797000Y-5004750D01*
X70797000Y-5917250D01*
X70795826Y-5941142D01*
X70792316Y-5964803D01*
X70786504Y-5988007D01*
X70778446Y-6010529D01*
X70768218Y-6032153D01*
X70755921Y-6052670D01*
X70741671Y-6071883D01*
X70725607Y-6089607D01*
X70707883Y-6105671D01*
X70688670Y-6119921D01*
X70668153Y-6132218D01*
X70646529Y-6142446D01*
X70624007Y-6150504D01*
X70600803Y-6156316D01*
X70577142Y-6159826D01*
X70553250Y-6161000D01*
X70065750Y-6161000D01*
X70041858Y-6159826D01*
X70018197Y-6156316D01*
X69994993Y-6150504D01*
X69972471Y-6142446D01*
X69950847Y-6132218D01*
X69930330Y-6119921D01*
X69911117Y-6105671D01*
X69893393Y-6089607D01*
X69877329Y-6071883D01*
X69863079Y-6052670D01*
X69850782Y-6032153D01*
X69840554Y-6010529D01*
X69832496Y-5988007D01*
X69826684Y-5964803D01*
X69823174Y-5941142D01*
X69822000Y-5917250D01*
X69822000Y-5004750D01*
X69823174Y-4980858D01*
X69826684Y-4957197D01*
X69832496Y-4933993D01*
X69840554Y-4911471D01*
X69850782Y-4889847D01*
X69863079Y-4869330D01*
X69877329Y-4850117D01*
X69893393Y-4832393D01*
X69911117Y-4816329D01*
X69930330Y-4802079D01*
X69950847Y-4789782D01*
X69972471Y-4779554D01*
X69994993Y-4771496D01*
X70018197Y-4765684D01*
X70041858Y-4762174D01*
X70065750Y-4761000D01*
X70553250Y-4761000D01*
X70577142Y-4762174D01*
G37*
D20*
X47320200Y-47167800D03*
X49199800Y-47167800D03*
X49199800Y-49606200D03*
X48260000Y-49606200D03*
X47320200Y-49606200D03*
D21*
X10795000Y-43009000D03*
X12065000Y-43009000D03*
X13335000Y-43009000D03*
X14605000Y-43009000D03*
X14605000Y-48431000D03*
X13335000Y-48431000D03*
X12065000Y-48431000D03*
X10795000Y-48431000D03*
D22*
X59512000Y-6538500D03*
X59512000Y-3138500D03*
X64655500Y-6538500D03*
X64655500Y-3138500D03*
D12*
G36*
X69124191Y-50833553D02*
G01*
X69145426Y-50836703D01*
X69166250Y-50841919D01*
X69186462Y-50849151D01*
X69205868Y-50858330D01*
X69224281Y-50869366D01*
X69241524Y-50882154D01*
X69257430Y-50896570D01*
X69271846Y-50912476D01*
X69284634Y-50929719D01*
X69295670Y-50948132D01*
X69304849Y-50967538D01*
X69312081Y-50987750D01*
X69317297Y-51008574D01*
X69320447Y-51029809D01*
X69321500Y-51051250D01*
X69321500Y-51488750D01*
X69320447Y-51510191D01*
X69317297Y-51531426D01*
X69312081Y-51552250D01*
X69304849Y-51572462D01*
X69295670Y-51591868D01*
X69284634Y-51610281D01*
X69271846Y-51627524D01*
X69257430Y-51643430D01*
X69241524Y-51657846D01*
X69224281Y-51670634D01*
X69205868Y-51681670D01*
X69186462Y-51690849D01*
X69166250Y-51698081D01*
X69145426Y-51703297D01*
X69124191Y-51706447D01*
X69102750Y-51707500D01*
X68590250Y-51707500D01*
X68568809Y-51706447D01*
X68547574Y-51703297D01*
X68526750Y-51698081D01*
X68506538Y-51690849D01*
X68487132Y-51681670D01*
X68468719Y-51670634D01*
X68451476Y-51657846D01*
X68435570Y-51643430D01*
X68421154Y-51627524D01*
X68408366Y-51610281D01*
X68397330Y-51591868D01*
X68388151Y-51572462D01*
X68380919Y-51552250D01*
X68375703Y-51531426D01*
X68372553Y-51510191D01*
X68371500Y-51488750D01*
X68371500Y-51051250D01*
X68372553Y-51029809D01*
X68375703Y-51008574D01*
X68380919Y-50987750D01*
X68388151Y-50967538D01*
X68397330Y-50948132D01*
X68408366Y-50929719D01*
X68421154Y-50912476D01*
X68435570Y-50896570D01*
X68451476Y-50882154D01*
X68468719Y-50869366D01*
X68487132Y-50858330D01*
X68506538Y-50849151D01*
X68526750Y-50841919D01*
X68547574Y-50836703D01*
X68568809Y-50833553D01*
X68590250Y-50832500D01*
X69102750Y-50832500D01*
X69124191Y-50833553D01*
G37*
G36*
X69124191Y-49258553D02*
G01*
X69145426Y-49261703D01*
X69166250Y-49266919D01*
X69186462Y-49274151D01*
X69205868Y-49283330D01*
X69224281Y-49294366D01*
X69241524Y-49307154D01*
X69257430Y-49321570D01*
X69271846Y-49337476D01*
X69284634Y-49354719D01*
X69295670Y-49373132D01*
X69304849Y-49392538D01*
X69312081Y-49412750D01*
X69317297Y-49433574D01*
X69320447Y-49454809D01*
X69321500Y-49476250D01*
X69321500Y-49913750D01*
X69320447Y-49935191D01*
X69317297Y-49956426D01*
X69312081Y-49977250D01*
X69304849Y-49997462D01*
X69295670Y-50016868D01*
X69284634Y-50035281D01*
X69271846Y-50052524D01*
X69257430Y-50068430D01*
X69241524Y-50082846D01*
X69224281Y-50095634D01*
X69205868Y-50106670D01*
X69186462Y-50115849D01*
X69166250Y-50123081D01*
X69145426Y-50128297D01*
X69124191Y-50131447D01*
X69102750Y-50132500D01*
X68590250Y-50132500D01*
X68568809Y-50131447D01*
X68547574Y-50128297D01*
X68526750Y-50123081D01*
X68506538Y-50115849D01*
X68487132Y-50106670D01*
X68468719Y-50095634D01*
X68451476Y-50082846D01*
X68435570Y-50068430D01*
X68421154Y-50052524D01*
X68408366Y-50035281D01*
X68397330Y-50016868D01*
X68388151Y-49997462D01*
X68380919Y-49977250D01*
X68375703Y-49956426D01*
X68372553Y-49935191D01*
X68371500Y-49913750D01*
X68371500Y-49476250D01*
X68372553Y-49454809D01*
X68375703Y-49433574D01*
X68380919Y-49412750D01*
X68388151Y-49392538D01*
X68397330Y-49373132D01*
X68408366Y-49354719D01*
X68421154Y-49337476D01*
X68435570Y-49321570D01*
X68451476Y-49307154D01*
X68468719Y-49294366D01*
X68487132Y-49283330D01*
X68506538Y-49274151D01*
X68526750Y-49266919D01*
X68547574Y-49261703D01*
X68568809Y-49258553D01*
X68590250Y-49257500D01*
X69102750Y-49257500D01*
X69124191Y-49258553D01*
G37*
G36*
X58939691Y-46719053D02*
G01*
X58960926Y-46722203D01*
X58981750Y-46727419D01*
X59001962Y-46734651D01*
X59021368Y-46743830D01*
X59039781Y-46754866D01*
X59057024Y-46767654D01*
X59072930Y-46782070D01*
X59087346Y-46797976D01*
X59100134Y-46815219D01*
X59111170Y-46833632D01*
X59120349Y-46853038D01*
X59127581Y-46873250D01*
X59132797Y-46894074D01*
X59135947Y-46915309D01*
X59137000Y-46936750D01*
X59137000Y-47449250D01*
X59135947Y-47470691D01*
X59132797Y-47491926D01*
X59127581Y-47512750D01*
X59120349Y-47532962D01*
X59111170Y-47552368D01*
X59100134Y-47570781D01*
X59087346Y-47588024D01*
X59072930Y-47603930D01*
X59057024Y-47618346D01*
X59039781Y-47631134D01*
X59021368Y-47642170D01*
X59001962Y-47651349D01*
X58981750Y-47658581D01*
X58960926Y-47663797D01*
X58939691Y-47666947D01*
X58918250Y-47668000D01*
X58480750Y-47668000D01*
X58459309Y-47666947D01*
X58438074Y-47663797D01*
X58417250Y-47658581D01*
X58397038Y-47651349D01*
X58377632Y-47642170D01*
X58359219Y-47631134D01*
X58341976Y-47618346D01*
X58326070Y-47603930D01*
X58311654Y-47588024D01*
X58298866Y-47570781D01*
X58287830Y-47552368D01*
X58278651Y-47532962D01*
X58271419Y-47512750D01*
X58266203Y-47491926D01*
X58263053Y-47470691D01*
X58262000Y-47449250D01*
X58262000Y-46936750D01*
X58263053Y-46915309D01*
X58266203Y-46894074D01*
X58271419Y-46873250D01*
X58278651Y-46853038D01*
X58287830Y-46833632D01*
X58298866Y-46815219D01*
X58311654Y-46797976D01*
X58326070Y-46782070D01*
X58341976Y-46767654D01*
X58359219Y-46754866D01*
X58377632Y-46743830D01*
X58397038Y-46734651D01*
X58417250Y-46727419D01*
X58438074Y-46722203D01*
X58459309Y-46719053D01*
X58480750Y-46718000D01*
X58918250Y-46718000D01*
X58939691Y-46719053D01*
G37*
G36*
X57364691Y-46719053D02*
G01*
X57385926Y-46722203D01*
X57406750Y-46727419D01*
X57426962Y-46734651D01*
X57446368Y-46743830D01*
X57464781Y-46754866D01*
X57482024Y-46767654D01*
X57497930Y-46782070D01*
X57512346Y-46797976D01*
X57525134Y-46815219D01*
X57536170Y-46833632D01*
X57545349Y-46853038D01*
X57552581Y-46873250D01*
X57557797Y-46894074D01*
X57560947Y-46915309D01*
X57562000Y-46936750D01*
X57562000Y-47449250D01*
X57560947Y-47470691D01*
X57557797Y-47491926D01*
X57552581Y-47512750D01*
X57545349Y-47532962D01*
X57536170Y-47552368D01*
X57525134Y-47570781D01*
X57512346Y-47588024D01*
X57497930Y-47603930D01*
X57482024Y-47618346D01*
X57464781Y-47631134D01*
X57446368Y-47642170D01*
X57426962Y-47651349D01*
X57406750Y-47658581D01*
X57385926Y-47663797D01*
X57364691Y-47666947D01*
X57343250Y-47668000D01*
X56905750Y-47668000D01*
X56884309Y-47666947D01*
X56863074Y-47663797D01*
X56842250Y-47658581D01*
X56822038Y-47651349D01*
X56802632Y-47642170D01*
X56784219Y-47631134D01*
X56766976Y-47618346D01*
X56751070Y-47603930D01*
X56736654Y-47588024D01*
X56723866Y-47570781D01*
X56712830Y-47552368D01*
X56703651Y-47532962D01*
X56696419Y-47512750D01*
X56691203Y-47491926D01*
X56688053Y-47470691D01*
X56687000Y-47449250D01*
X56687000Y-46936750D01*
X56688053Y-46915309D01*
X56691203Y-46894074D01*
X56696419Y-46873250D01*
X56703651Y-46853038D01*
X56712830Y-46833632D01*
X56723866Y-46815219D01*
X56736654Y-46797976D01*
X56751070Y-46782070D01*
X56766976Y-46767654D01*
X56784219Y-46754866D01*
X56802632Y-46743830D01*
X56822038Y-46734651D01*
X56842250Y-46727419D01*
X56863074Y-46722203D01*
X56884309Y-46719053D01*
X56905750Y-46718000D01*
X57343250Y-46718000D01*
X57364691Y-46719053D01*
G37*
G36*
X58952191Y-48433553D02*
G01*
X58973426Y-48436703D01*
X58994250Y-48441919D01*
X59014462Y-48449151D01*
X59033868Y-48458330D01*
X59052281Y-48469366D01*
X59069524Y-48482154D01*
X59085430Y-48496570D01*
X59099846Y-48512476D01*
X59112634Y-48529719D01*
X59123670Y-48548132D01*
X59132849Y-48567538D01*
X59140081Y-48587750D01*
X59145297Y-48608574D01*
X59148447Y-48629809D01*
X59149500Y-48651250D01*
X59149500Y-49163750D01*
X59148447Y-49185191D01*
X59145297Y-49206426D01*
X59140081Y-49227250D01*
X59132849Y-49247462D01*
X59123670Y-49266868D01*
X59112634Y-49285281D01*
X59099846Y-49302524D01*
X59085430Y-49318430D01*
X59069524Y-49332846D01*
X59052281Y-49345634D01*
X59033868Y-49356670D01*
X59014462Y-49365849D01*
X58994250Y-49373081D01*
X58973426Y-49378297D01*
X58952191Y-49381447D01*
X58930750Y-49382500D01*
X58493250Y-49382500D01*
X58471809Y-49381447D01*
X58450574Y-49378297D01*
X58429750Y-49373081D01*
X58409538Y-49365849D01*
X58390132Y-49356670D01*
X58371719Y-49345634D01*
X58354476Y-49332846D01*
X58338570Y-49318430D01*
X58324154Y-49302524D01*
X58311366Y-49285281D01*
X58300330Y-49266868D01*
X58291151Y-49247462D01*
X58283919Y-49227250D01*
X58278703Y-49206426D01*
X58275553Y-49185191D01*
X58274500Y-49163750D01*
X58274500Y-48651250D01*
X58275553Y-48629809D01*
X58278703Y-48608574D01*
X58283919Y-48587750D01*
X58291151Y-48567538D01*
X58300330Y-48548132D01*
X58311366Y-48529719D01*
X58324154Y-48512476D01*
X58338570Y-48496570D01*
X58354476Y-48482154D01*
X58371719Y-48469366D01*
X58390132Y-48458330D01*
X58409538Y-48449151D01*
X58429750Y-48441919D01*
X58450574Y-48436703D01*
X58471809Y-48433553D01*
X58493250Y-48432500D01*
X58930750Y-48432500D01*
X58952191Y-48433553D01*
G37*
G36*
X57377191Y-48433553D02*
G01*
X57398426Y-48436703D01*
X57419250Y-48441919D01*
X57439462Y-48449151D01*
X57458868Y-48458330D01*
X57477281Y-48469366D01*
X57494524Y-48482154D01*
X57510430Y-48496570D01*
X57524846Y-48512476D01*
X57537634Y-48529719D01*
X57548670Y-48548132D01*
X57557849Y-48567538D01*
X57565081Y-48587750D01*
X57570297Y-48608574D01*
X57573447Y-48629809D01*
X57574500Y-48651250D01*
X57574500Y-49163750D01*
X57573447Y-49185191D01*
X57570297Y-49206426D01*
X57565081Y-49227250D01*
X57557849Y-49247462D01*
X57548670Y-49266868D01*
X57537634Y-49285281D01*
X57524846Y-49302524D01*
X57510430Y-49318430D01*
X57494524Y-49332846D01*
X57477281Y-49345634D01*
X57458868Y-49356670D01*
X57439462Y-49365849D01*
X57419250Y-49373081D01*
X57398426Y-49378297D01*
X57377191Y-49381447D01*
X57355750Y-49382500D01*
X56918250Y-49382500D01*
X56896809Y-49381447D01*
X56875574Y-49378297D01*
X56854750Y-49373081D01*
X56834538Y-49365849D01*
X56815132Y-49356670D01*
X56796719Y-49345634D01*
X56779476Y-49332846D01*
X56763570Y-49318430D01*
X56749154Y-49302524D01*
X56736366Y-49285281D01*
X56725330Y-49266868D01*
X56716151Y-49247462D01*
X56708919Y-49227250D01*
X56703703Y-49206426D01*
X56700553Y-49185191D01*
X56699500Y-49163750D01*
X56699500Y-48651250D01*
X56700553Y-48629809D01*
X56703703Y-48608574D01*
X56708919Y-48587750D01*
X56716151Y-48567538D01*
X56725330Y-48548132D01*
X56736366Y-48529719D01*
X56749154Y-48512476D01*
X56763570Y-48496570D01*
X56779476Y-48482154D01*
X56796719Y-48469366D01*
X56815132Y-48458330D01*
X56834538Y-48449151D01*
X56854750Y-48441919D01*
X56875574Y-48436703D01*
X56896809Y-48433553D01*
X56918250Y-48432500D01*
X57355750Y-48432500D01*
X57377191Y-48433553D01*
G37*
G36*
X55142191Y-40750053D02*
G01*
X55163426Y-40753203D01*
X55184250Y-40758419D01*
X55204462Y-40765651D01*
X55223868Y-40774830D01*
X55242281Y-40785866D01*
X55259524Y-40798654D01*
X55275430Y-40813070D01*
X55289846Y-40828976D01*
X55302634Y-40846219D01*
X55313670Y-40864632D01*
X55322849Y-40884038D01*
X55330081Y-40904250D01*
X55335297Y-40925074D01*
X55338447Y-40946309D01*
X55339500Y-40967750D01*
X55339500Y-41480250D01*
X55338447Y-41501691D01*
X55335297Y-41522926D01*
X55330081Y-41543750D01*
X55322849Y-41563962D01*
X55313670Y-41583368D01*
X55302634Y-41601781D01*
X55289846Y-41619024D01*
X55275430Y-41634930D01*
X55259524Y-41649346D01*
X55242281Y-41662134D01*
X55223868Y-41673170D01*
X55204462Y-41682349D01*
X55184250Y-41689581D01*
X55163426Y-41694797D01*
X55142191Y-41697947D01*
X55120750Y-41699000D01*
X54683250Y-41699000D01*
X54661809Y-41697947D01*
X54640574Y-41694797D01*
X54619750Y-41689581D01*
X54599538Y-41682349D01*
X54580132Y-41673170D01*
X54561719Y-41662134D01*
X54544476Y-41649346D01*
X54528570Y-41634930D01*
X54514154Y-41619024D01*
X54501366Y-41601781D01*
X54490330Y-41583368D01*
X54481151Y-41563962D01*
X54473919Y-41543750D01*
X54468703Y-41522926D01*
X54465553Y-41501691D01*
X54464500Y-41480250D01*
X54464500Y-40967750D01*
X54465553Y-40946309D01*
X54468703Y-40925074D01*
X54473919Y-40904250D01*
X54481151Y-40884038D01*
X54490330Y-40864632D01*
X54501366Y-40846219D01*
X54514154Y-40828976D01*
X54528570Y-40813070D01*
X54544476Y-40798654D01*
X54561719Y-40785866D01*
X54580132Y-40774830D01*
X54599538Y-40765651D01*
X54619750Y-40758419D01*
X54640574Y-40753203D01*
X54661809Y-40750053D01*
X54683250Y-40749000D01*
X55120750Y-40749000D01*
X55142191Y-40750053D01*
G37*
G36*
X53567191Y-40750053D02*
G01*
X53588426Y-40753203D01*
X53609250Y-40758419D01*
X53629462Y-40765651D01*
X53648868Y-40774830D01*
X53667281Y-40785866D01*
X53684524Y-40798654D01*
X53700430Y-40813070D01*
X53714846Y-40828976D01*
X53727634Y-40846219D01*
X53738670Y-40864632D01*
X53747849Y-40884038D01*
X53755081Y-40904250D01*
X53760297Y-40925074D01*
X53763447Y-40946309D01*
X53764500Y-40967750D01*
X53764500Y-41480250D01*
X53763447Y-41501691D01*
X53760297Y-41522926D01*
X53755081Y-41543750D01*
X53747849Y-41563962D01*
X53738670Y-41583368D01*
X53727634Y-41601781D01*
X53714846Y-41619024D01*
X53700430Y-41634930D01*
X53684524Y-41649346D01*
X53667281Y-41662134D01*
X53648868Y-41673170D01*
X53629462Y-41682349D01*
X53609250Y-41689581D01*
X53588426Y-41694797D01*
X53567191Y-41697947D01*
X53545750Y-41699000D01*
X53108250Y-41699000D01*
X53086809Y-41697947D01*
X53065574Y-41694797D01*
X53044750Y-41689581D01*
X53024538Y-41682349D01*
X53005132Y-41673170D01*
X52986719Y-41662134D01*
X52969476Y-41649346D01*
X52953570Y-41634930D01*
X52939154Y-41619024D01*
X52926366Y-41601781D01*
X52915330Y-41583368D01*
X52906151Y-41563962D01*
X52898919Y-41543750D01*
X52893703Y-41522926D01*
X52890553Y-41501691D01*
X52889500Y-41480250D01*
X52889500Y-40967750D01*
X52890553Y-40946309D01*
X52893703Y-40925074D01*
X52898919Y-40904250D01*
X52906151Y-40884038D01*
X52915330Y-40864632D01*
X52926366Y-40846219D01*
X52939154Y-40828976D01*
X52953570Y-40813070D01*
X52969476Y-40798654D01*
X52986719Y-40785866D01*
X53005132Y-40774830D01*
X53024538Y-40765651D01*
X53044750Y-40758419D01*
X53065574Y-40753203D01*
X53086809Y-40750053D01*
X53108250Y-40749000D01*
X53545750Y-40749000D01*
X53567191Y-40750053D01*
G37*
G36*
X49734504Y-43478204D02*
G01*
X49758773Y-43481804D01*
X49782571Y-43487765D01*
X49805671Y-43496030D01*
X49827849Y-43506520D01*
X49848893Y-43519133D01*
X49868598Y-43533747D01*
X49886777Y-43550223D01*
X49903253Y-43568402D01*
X49917867Y-43588107D01*
X49930480Y-43609151D01*
X49940970Y-43631329D01*
X49949235Y-43654429D01*
X49955196Y-43678227D01*
X49958796Y-43702496D01*
X49960000Y-43727000D01*
X49960000Y-45427000D01*
X49958796Y-45451504D01*
X49955196Y-45475773D01*
X49949235Y-45499571D01*
X49940970Y-45522671D01*
X49930480Y-45544849D01*
X49917867Y-45565893D01*
X49903253Y-45585598D01*
X49886777Y-45603777D01*
X49868598Y-45620253D01*
X49848893Y-45634867D01*
X49827849Y-45647480D01*
X49805671Y-45657970D01*
X49782571Y-45666235D01*
X49758773Y-45672196D01*
X49734504Y-45675796D01*
X49710000Y-45677000D01*
X48960000Y-45677000D01*
X48935496Y-45675796D01*
X48911227Y-45672196D01*
X48887429Y-45666235D01*
X48864329Y-45657970D01*
X48842151Y-45647480D01*
X48821107Y-45634867D01*
X48801402Y-45620253D01*
X48783223Y-45603777D01*
X48766747Y-45585598D01*
X48752133Y-45565893D01*
X48739520Y-45544849D01*
X48729030Y-45522671D01*
X48720765Y-45499571D01*
X48714804Y-45475773D01*
X48711204Y-45451504D01*
X48710000Y-45427000D01*
X48710000Y-43727000D01*
X48711204Y-43702496D01*
X48714804Y-43678227D01*
X48720765Y-43654429D01*
X48729030Y-43631329D01*
X48739520Y-43609151D01*
X48752133Y-43588107D01*
X48766747Y-43568402D01*
X48783223Y-43550223D01*
X48801402Y-43533747D01*
X48821107Y-43519133D01*
X48842151Y-43506520D01*
X48864329Y-43496030D01*
X48887429Y-43487765D01*
X48911227Y-43481804D01*
X48935496Y-43478204D01*
X48960000Y-43477000D01*
X49710000Y-43477000D01*
X49734504Y-43478204D01*
G37*
G36*
X47584504Y-43478204D02*
G01*
X47608773Y-43481804D01*
X47632571Y-43487765D01*
X47655671Y-43496030D01*
X47677849Y-43506520D01*
X47698893Y-43519133D01*
X47718598Y-43533747D01*
X47736777Y-43550223D01*
X47753253Y-43568402D01*
X47767867Y-43588107D01*
X47780480Y-43609151D01*
X47790970Y-43631329D01*
X47799235Y-43654429D01*
X47805196Y-43678227D01*
X47808796Y-43702496D01*
X47810000Y-43727000D01*
X47810000Y-45427000D01*
X47808796Y-45451504D01*
X47805196Y-45475773D01*
X47799235Y-45499571D01*
X47790970Y-45522671D01*
X47780480Y-45544849D01*
X47767867Y-45565893D01*
X47753253Y-45585598D01*
X47736777Y-45603777D01*
X47718598Y-45620253D01*
X47698893Y-45634867D01*
X47677849Y-45647480D01*
X47655671Y-45657970D01*
X47632571Y-45666235D01*
X47608773Y-45672196D01*
X47584504Y-45675796D01*
X47560000Y-45677000D01*
X46810000Y-45677000D01*
X46785496Y-45675796D01*
X46761227Y-45672196D01*
X46737429Y-45666235D01*
X46714329Y-45657970D01*
X46692151Y-45647480D01*
X46671107Y-45634867D01*
X46651402Y-45620253D01*
X46633223Y-45603777D01*
X46616747Y-45585598D01*
X46602133Y-45565893D01*
X46589520Y-45544849D01*
X46579030Y-45522671D01*
X46570765Y-45499571D01*
X46564804Y-45475773D01*
X46561204Y-45451504D01*
X46560000Y-45427000D01*
X46560000Y-43727000D01*
X46561204Y-43702496D01*
X46564804Y-43678227D01*
X46570765Y-43654429D01*
X46579030Y-43631329D01*
X46589520Y-43609151D01*
X46602133Y-43588107D01*
X46616747Y-43568402D01*
X46633223Y-43550223D01*
X46651402Y-43533747D01*
X46671107Y-43519133D01*
X46692151Y-43506520D01*
X46714329Y-43496030D01*
X46737429Y-43487765D01*
X46761227Y-43481804D01*
X46785496Y-43478204D01*
X46810000Y-43477000D01*
X47560000Y-43477000D01*
X47584504Y-43478204D01*
G37*
D23*
X4953000Y-43697000D03*
X4953000Y-47997000D03*
D24*
X10427500Y-40589000D03*
X13727500Y-40589000D03*
D12*
G36*
X51077691Y-48865053D02*
G01*
X51098926Y-48868203D01*
X51119750Y-48873419D01*
X51139962Y-48880651D01*
X51159368Y-48889830D01*
X51177781Y-48900866D01*
X51195024Y-48913654D01*
X51210930Y-48928070D01*
X51225346Y-48943976D01*
X51238134Y-48961219D01*
X51249170Y-48979632D01*
X51258349Y-48999038D01*
X51265581Y-49019250D01*
X51270797Y-49040074D01*
X51273947Y-49061309D01*
X51275000Y-49082750D01*
X51275000Y-49520250D01*
X51273947Y-49541691D01*
X51270797Y-49562926D01*
X51265581Y-49583750D01*
X51258349Y-49603962D01*
X51249170Y-49623368D01*
X51238134Y-49641781D01*
X51225346Y-49659024D01*
X51210930Y-49674930D01*
X51195024Y-49689346D01*
X51177781Y-49702134D01*
X51159368Y-49713170D01*
X51139962Y-49722349D01*
X51119750Y-49729581D01*
X51098926Y-49734797D01*
X51077691Y-49737947D01*
X51056250Y-49739000D01*
X50543750Y-49739000D01*
X50522309Y-49737947D01*
X50501074Y-49734797D01*
X50480250Y-49729581D01*
X50460038Y-49722349D01*
X50440632Y-49713170D01*
X50422219Y-49702134D01*
X50404976Y-49689346D01*
X50389070Y-49674930D01*
X50374654Y-49659024D01*
X50361866Y-49641781D01*
X50350830Y-49623368D01*
X50341651Y-49603962D01*
X50334419Y-49583750D01*
X50329203Y-49562926D01*
X50326053Y-49541691D01*
X50325000Y-49520250D01*
X50325000Y-49082750D01*
X50326053Y-49061309D01*
X50329203Y-49040074D01*
X50334419Y-49019250D01*
X50341651Y-48999038D01*
X50350830Y-48979632D01*
X50361866Y-48961219D01*
X50374654Y-48943976D01*
X50389070Y-48928070D01*
X50404976Y-48913654D01*
X50422219Y-48900866D01*
X50440632Y-48889830D01*
X50460038Y-48880651D01*
X50480250Y-48873419D01*
X50501074Y-48868203D01*
X50522309Y-48865053D01*
X50543750Y-48864000D01*
X51056250Y-48864000D01*
X51077691Y-48865053D01*
G37*
G36*
X51077691Y-47290053D02*
G01*
X51098926Y-47293203D01*
X51119750Y-47298419D01*
X51139962Y-47305651D01*
X51159368Y-47314830D01*
X51177781Y-47325866D01*
X51195024Y-47338654D01*
X51210930Y-47353070D01*
X51225346Y-47368976D01*
X51238134Y-47386219D01*
X51249170Y-47404632D01*
X51258349Y-47424038D01*
X51265581Y-47444250D01*
X51270797Y-47465074D01*
X51273947Y-47486309D01*
X51275000Y-47507750D01*
X51275000Y-47945250D01*
X51273947Y-47966691D01*
X51270797Y-47987926D01*
X51265581Y-48008750D01*
X51258349Y-48028962D01*
X51249170Y-48048368D01*
X51238134Y-48066781D01*
X51225346Y-48084024D01*
X51210930Y-48099930D01*
X51195024Y-48114346D01*
X51177781Y-48127134D01*
X51159368Y-48138170D01*
X51139962Y-48147349D01*
X51119750Y-48154581D01*
X51098926Y-48159797D01*
X51077691Y-48162947D01*
X51056250Y-48164000D01*
X50543750Y-48164000D01*
X50522309Y-48162947D01*
X50501074Y-48159797D01*
X50480250Y-48154581D01*
X50460038Y-48147349D01*
X50440632Y-48138170D01*
X50422219Y-48127134D01*
X50404976Y-48114346D01*
X50389070Y-48099930D01*
X50374654Y-48084024D01*
X50361866Y-48066781D01*
X50350830Y-48048368D01*
X50341651Y-48028962D01*
X50334419Y-48008750D01*
X50329203Y-47987926D01*
X50326053Y-47966691D01*
X50325000Y-47945250D01*
X50325000Y-47507750D01*
X50326053Y-47486309D01*
X50329203Y-47465074D01*
X50334419Y-47444250D01*
X50341651Y-47424038D01*
X50350830Y-47404632D01*
X50361866Y-47386219D01*
X50374654Y-47368976D01*
X50389070Y-47353070D01*
X50404976Y-47338654D01*
X50422219Y-47325866D01*
X50440632Y-47314830D01*
X50460038Y-47305651D01*
X50480250Y-47298419D01*
X50501074Y-47293203D01*
X50522309Y-47290053D01*
X50543750Y-47289000D01*
X51056250Y-47289000D01*
X51077691Y-47290053D01*
G37*
G36*
X48525691Y-51215053D02*
G01*
X48546926Y-51218203D01*
X48567750Y-51223419D01*
X48587962Y-51230651D01*
X48607368Y-51239830D01*
X48625781Y-51250866D01*
X48643024Y-51263654D01*
X48658930Y-51278070D01*
X48673346Y-51293976D01*
X48686134Y-51311219D01*
X48697170Y-51329632D01*
X48706349Y-51349038D01*
X48713581Y-51369250D01*
X48718797Y-51390074D01*
X48721947Y-51411309D01*
X48723000Y-51432750D01*
X48723000Y-51945250D01*
X48721947Y-51966691D01*
X48718797Y-51987926D01*
X48713581Y-52008750D01*
X48706349Y-52028962D01*
X48697170Y-52048368D01*
X48686134Y-52066781D01*
X48673346Y-52084024D01*
X48658930Y-52099930D01*
X48643024Y-52114346D01*
X48625781Y-52127134D01*
X48607368Y-52138170D01*
X48587962Y-52147349D01*
X48567750Y-52154581D01*
X48546926Y-52159797D01*
X48525691Y-52162947D01*
X48504250Y-52164000D01*
X48066750Y-52164000D01*
X48045309Y-52162947D01*
X48024074Y-52159797D01*
X48003250Y-52154581D01*
X47983038Y-52147349D01*
X47963632Y-52138170D01*
X47945219Y-52127134D01*
X47927976Y-52114346D01*
X47912070Y-52099930D01*
X47897654Y-52084024D01*
X47884866Y-52066781D01*
X47873830Y-52048368D01*
X47864651Y-52028962D01*
X47857419Y-52008750D01*
X47852203Y-51987926D01*
X47849053Y-51966691D01*
X47848000Y-51945250D01*
X47848000Y-51432750D01*
X47849053Y-51411309D01*
X47852203Y-51390074D01*
X47857419Y-51369250D01*
X47864651Y-51349038D01*
X47873830Y-51329632D01*
X47884866Y-51311219D01*
X47897654Y-51293976D01*
X47912070Y-51278070D01*
X47927976Y-51263654D01*
X47945219Y-51250866D01*
X47963632Y-51239830D01*
X47983038Y-51230651D01*
X48003250Y-51223419D01*
X48024074Y-51218203D01*
X48045309Y-51215053D01*
X48066750Y-51214000D01*
X48504250Y-51214000D01*
X48525691Y-51215053D01*
G37*
G36*
X46950691Y-51215053D02*
G01*
X46971926Y-51218203D01*
X46992750Y-51223419D01*
X47012962Y-51230651D01*
X47032368Y-51239830D01*
X47050781Y-51250866D01*
X47068024Y-51263654D01*
X47083930Y-51278070D01*
X47098346Y-51293976D01*
X47111134Y-51311219D01*
X47122170Y-51329632D01*
X47131349Y-51349038D01*
X47138581Y-51369250D01*
X47143797Y-51390074D01*
X47146947Y-51411309D01*
X47148000Y-51432750D01*
X47148000Y-51945250D01*
X47146947Y-51966691D01*
X47143797Y-51987926D01*
X47138581Y-52008750D01*
X47131349Y-52028962D01*
X47122170Y-52048368D01*
X47111134Y-52066781D01*
X47098346Y-52084024D01*
X47083930Y-52099930D01*
X47068024Y-52114346D01*
X47050781Y-52127134D01*
X47032368Y-52138170D01*
X47012962Y-52147349D01*
X46992750Y-52154581D01*
X46971926Y-52159797D01*
X46950691Y-52162947D01*
X46929250Y-52164000D01*
X46491750Y-52164000D01*
X46470309Y-52162947D01*
X46449074Y-52159797D01*
X46428250Y-52154581D01*
X46408038Y-52147349D01*
X46388632Y-52138170D01*
X46370219Y-52127134D01*
X46352976Y-52114346D01*
X46337070Y-52099930D01*
X46322654Y-52084024D01*
X46309866Y-52066781D01*
X46298830Y-52048368D01*
X46289651Y-52028962D01*
X46282419Y-52008750D01*
X46277203Y-51987926D01*
X46274053Y-51966691D01*
X46273000Y-51945250D01*
X46273000Y-51432750D01*
X46274053Y-51411309D01*
X46277203Y-51390074D01*
X46282419Y-51369250D01*
X46289651Y-51349038D01*
X46298830Y-51329632D01*
X46309866Y-51311219D01*
X46322654Y-51293976D01*
X46337070Y-51278070D01*
X46352976Y-51263654D01*
X46370219Y-51250866D01*
X46388632Y-51239830D01*
X46408038Y-51230651D01*
X46428250Y-51223419D01*
X46449074Y-51218203D01*
X46470309Y-51215053D01*
X46491750Y-51214000D01*
X46929250Y-51214000D01*
X46950691Y-51215053D01*
G37*
G36*
X9421691Y-44877053D02*
G01*
X9442926Y-44880203D01*
X9463750Y-44885419D01*
X9483962Y-44892651D01*
X9503368Y-44901830D01*
X9521781Y-44912866D01*
X9539024Y-44925654D01*
X9554930Y-44940070D01*
X9569346Y-44955976D01*
X9582134Y-44973219D01*
X9593170Y-44991632D01*
X9602349Y-45011038D01*
X9609581Y-45031250D01*
X9614797Y-45052074D01*
X9617947Y-45073309D01*
X9619000Y-45094750D01*
X9619000Y-45532250D01*
X9617947Y-45553691D01*
X9614797Y-45574926D01*
X9609581Y-45595750D01*
X9602349Y-45615962D01*
X9593170Y-45635368D01*
X9582134Y-45653781D01*
X9569346Y-45671024D01*
X9554930Y-45686930D01*
X9539024Y-45701346D01*
X9521781Y-45714134D01*
X9503368Y-45725170D01*
X9483962Y-45734349D01*
X9463750Y-45741581D01*
X9442926Y-45746797D01*
X9421691Y-45749947D01*
X9400250Y-45751000D01*
X8887750Y-45751000D01*
X8866309Y-45749947D01*
X8845074Y-45746797D01*
X8824250Y-45741581D01*
X8804038Y-45734349D01*
X8784632Y-45725170D01*
X8766219Y-45714134D01*
X8748976Y-45701346D01*
X8733070Y-45686930D01*
X8718654Y-45671024D01*
X8705866Y-45653781D01*
X8694830Y-45635368D01*
X8685651Y-45615962D01*
X8678419Y-45595750D01*
X8673203Y-45574926D01*
X8670053Y-45553691D01*
X8669000Y-45532250D01*
X8669000Y-45094750D01*
X8670053Y-45073309D01*
X8673203Y-45052074D01*
X8678419Y-45031250D01*
X8685651Y-45011038D01*
X8694830Y-44991632D01*
X8705866Y-44973219D01*
X8718654Y-44955976D01*
X8733070Y-44940070D01*
X8748976Y-44925654D01*
X8766219Y-44912866D01*
X8784632Y-44901830D01*
X8804038Y-44892651D01*
X8824250Y-44885419D01*
X8845074Y-44880203D01*
X8866309Y-44877053D01*
X8887750Y-44876000D01*
X9400250Y-44876000D01*
X9421691Y-44877053D01*
G37*
G36*
X9421691Y-46452053D02*
G01*
X9442926Y-46455203D01*
X9463750Y-46460419D01*
X9483962Y-46467651D01*
X9503368Y-46476830D01*
X9521781Y-46487866D01*
X9539024Y-46500654D01*
X9554930Y-46515070D01*
X9569346Y-46530976D01*
X9582134Y-46548219D01*
X9593170Y-46566632D01*
X9602349Y-46586038D01*
X9609581Y-46606250D01*
X9614797Y-46627074D01*
X9617947Y-46648309D01*
X9619000Y-46669750D01*
X9619000Y-47107250D01*
X9617947Y-47128691D01*
X9614797Y-47149926D01*
X9609581Y-47170750D01*
X9602349Y-47190962D01*
X9593170Y-47210368D01*
X9582134Y-47228781D01*
X9569346Y-47246024D01*
X9554930Y-47261930D01*
X9539024Y-47276346D01*
X9521781Y-47289134D01*
X9503368Y-47300170D01*
X9483962Y-47309349D01*
X9463750Y-47316581D01*
X9442926Y-47321797D01*
X9421691Y-47324947D01*
X9400250Y-47326000D01*
X8887750Y-47326000D01*
X8866309Y-47324947D01*
X8845074Y-47321797D01*
X8824250Y-47316581D01*
X8804038Y-47309349D01*
X8784632Y-47300170D01*
X8766219Y-47289134D01*
X8748976Y-47276346D01*
X8733070Y-47261930D01*
X8718654Y-47246024D01*
X8705866Y-47228781D01*
X8694830Y-47210368D01*
X8685651Y-47190962D01*
X8678419Y-47170750D01*
X8673203Y-47149926D01*
X8670053Y-47128691D01*
X8669000Y-47107250D01*
X8669000Y-46669750D01*
X8670053Y-46648309D01*
X8673203Y-46627074D01*
X8678419Y-46606250D01*
X8685651Y-46586038D01*
X8694830Y-46566632D01*
X8705866Y-46548219D01*
X8718654Y-46530976D01*
X8733070Y-46515070D01*
X8748976Y-46500654D01*
X8766219Y-46487866D01*
X8784632Y-46476830D01*
X8804038Y-46467651D01*
X8824250Y-46460419D01*
X8845074Y-46455203D01*
X8866309Y-46452053D01*
X8887750Y-46451000D01*
X9400250Y-46451000D01*
X9421691Y-46452053D01*
G37*
G36*
X18602504Y-45142204D02*
G01*
X18626773Y-45145804D01*
X18650571Y-45151765D01*
X18673671Y-45160030D01*
X18695849Y-45170520D01*
X18716893Y-45183133D01*
X18736598Y-45197747D01*
X18754777Y-45214223D01*
X18771253Y-45232402D01*
X18785867Y-45252107D01*
X18798480Y-45273151D01*
X18808970Y-45295329D01*
X18817235Y-45318429D01*
X18823196Y-45342227D01*
X18826796Y-45366496D01*
X18828000Y-45391000D01*
X18828000Y-46966000D01*
X18826796Y-46990504D01*
X18823196Y-47014773D01*
X18817235Y-47038571D01*
X18808970Y-47061671D01*
X18798480Y-47083849D01*
X18785867Y-47104893D01*
X18771253Y-47124598D01*
X18754777Y-47142777D01*
X18736598Y-47159253D01*
X18716893Y-47173867D01*
X18695849Y-47186480D01*
X18673671Y-47196970D01*
X18650571Y-47205235D01*
X18626773Y-47211196D01*
X18602504Y-47214796D01*
X18578000Y-47216000D01*
X16728000Y-47216000D01*
X16703496Y-47214796D01*
X16679227Y-47211196D01*
X16655429Y-47205235D01*
X16632329Y-47196970D01*
X16610151Y-47186480D01*
X16589107Y-47173867D01*
X16569402Y-47159253D01*
X16551223Y-47142777D01*
X16534747Y-47124598D01*
X16520133Y-47104893D01*
X16507520Y-47083849D01*
X16497030Y-47061671D01*
X16488765Y-47038571D01*
X16482804Y-47014773D01*
X16479204Y-46990504D01*
X16478000Y-46966000D01*
X16478000Y-45391000D01*
X16479204Y-45366496D01*
X16482804Y-45342227D01*
X16488765Y-45318429D01*
X16497030Y-45295329D01*
X16507520Y-45273151D01*
X16520133Y-45252107D01*
X16534747Y-45232402D01*
X16551223Y-45214223D01*
X16569402Y-45197747D01*
X16589107Y-45183133D01*
X16610151Y-45170520D01*
X16632329Y-45160030D01*
X16655429Y-45151765D01*
X16679227Y-45145804D01*
X16703496Y-45142204D01*
X16728000Y-45141000D01*
X18578000Y-45141000D01*
X18602504Y-45142204D01*
G37*
G36*
X18602504Y-50067204D02*
G01*
X18626773Y-50070804D01*
X18650571Y-50076765D01*
X18673671Y-50085030D01*
X18695849Y-50095520D01*
X18716893Y-50108133D01*
X18736598Y-50122747D01*
X18754777Y-50139223D01*
X18771253Y-50157402D01*
X18785867Y-50177107D01*
X18798480Y-50198151D01*
X18808970Y-50220329D01*
X18817235Y-50243429D01*
X18823196Y-50267227D01*
X18826796Y-50291496D01*
X18828000Y-50316000D01*
X18828000Y-51891000D01*
X18826796Y-51915504D01*
X18823196Y-51939773D01*
X18817235Y-51963571D01*
X18808970Y-51986671D01*
X18798480Y-52008849D01*
X18785867Y-52029893D01*
X18771253Y-52049598D01*
X18754777Y-52067777D01*
X18736598Y-52084253D01*
X18716893Y-52098867D01*
X18695849Y-52111480D01*
X18673671Y-52121970D01*
X18650571Y-52130235D01*
X18626773Y-52136196D01*
X18602504Y-52139796D01*
X18578000Y-52141000D01*
X16728000Y-52141000D01*
X16703496Y-52139796D01*
X16679227Y-52136196D01*
X16655429Y-52130235D01*
X16632329Y-52121970D01*
X16610151Y-52111480D01*
X16589107Y-52098867D01*
X16569402Y-52084253D01*
X16551223Y-52067777D01*
X16534747Y-52049598D01*
X16520133Y-52029893D01*
X16507520Y-52008849D01*
X16497030Y-51986671D01*
X16488765Y-51963571D01*
X16482804Y-51939773D01*
X16479204Y-51915504D01*
X16478000Y-51891000D01*
X16478000Y-50316000D01*
X16479204Y-50291496D01*
X16482804Y-50267227D01*
X16488765Y-50243429D01*
X16497030Y-50220329D01*
X16507520Y-50198151D01*
X16520133Y-50177107D01*
X16534747Y-50157402D01*
X16551223Y-50139223D01*
X16569402Y-50122747D01*
X16589107Y-50108133D01*
X16610151Y-50095520D01*
X16632329Y-50085030D01*
X16655429Y-50076765D01*
X16679227Y-50070804D01*
X16703496Y-50067204D01*
X16728000Y-50066000D01*
X18578000Y-50066000D01*
X18602504Y-50067204D01*
G37*
G36*
X17340505Y-42561204D02*
G01*
X17364773Y-42564804D01*
X17388572Y-42570765D01*
X17411671Y-42579030D01*
X17433850Y-42589520D01*
X17454893Y-42602132D01*
X17474599Y-42616747D01*
X17492777Y-42633223D01*
X17509253Y-42651401D01*
X17523868Y-42671107D01*
X17536480Y-42692150D01*
X17546970Y-42714329D01*
X17555235Y-42737428D01*
X17561196Y-42761227D01*
X17564796Y-42785495D01*
X17566000Y-42809999D01*
X17566000Y-43710001D01*
X17564796Y-43734505D01*
X17561196Y-43758773D01*
X17555235Y-43782572D01*
X17546970Y-43805671D01*
X17536480Y-43827850D01*
X17523868Y-43848893D01*
X17509253Y-43868599D01*
X17492777Y-43886777D01*
X17474599Y-43903253D01*
X17454893Y-43917868D01*
X17433850Y-43930480D01*
X17411671Y-43940970D01*
X17388572Y-43949235D01*
X17364773Y-43955196D01*
X17340505Y-43958796D01*
X17316001Y-43960000D01*
X16465999Y-43960000D01*
X16441495Y-43958796D01*
X16417227Y-43955196D01*
X16393428Y-43949235D01*
X16370329Y-43940970D01*
X16348150Y-43930480D01*
X16327107Y-43917868D01*
X16307401Y-43903253D01*
X16289223Y-43886777D01*
X16272747Y-43868599D01*
X16258132Y-43848893D01*
X16245520Y-43827850D01*
X16235030Y-43805671D01*
X16226765Y-43782572D01*
X16220804Y-43758773D01*
X16217204Y-43734505D01*
X16216000Y-43710001D01*
X16216000Y-42809999D01*
X16217204Y-42785495D01*
X16220804Y-42761227D01*
X16226765Y-42737428D01*
X16235030Y-42714329D01*
X16245520Y-42692150D01*
X16258132Y-42671107D01*
X16272747Y-42651401D01*
X16289223Y-42633223D01*
X16307401Y-42616747D01*
X16327107Y-42602132D01*
X16348150Y-42589520D01*
X16370329Y-42579030D01*
X16393428Y-42570765D01*
X16417227Y-42564804D01*
X16441495Y-42561204D01*
X16465999Y-42560000D01*
X17316001Y-42560000D01*
X17340505Y-42561204D01*
G37*
G36*
X17340505Y-39861204D02*
G01*
X17364773Y-39864804D01*
X17388572Y-39870765D01*
X17411671Y-39879030D01*
X17433850Y-39889520D01*
X17454893Y-39902132D01*
X17474599Y-39916747D01*
X17492777Y-39933223D01*
X17509253Y-39951401D01*
X17523868Y-39971107D01*
X17536480Y-39992150D01*
X17546970Y-40014329D01*
X17555235Y-40037428D01*
X17561196Y-40061227D01*
X17564796Y-40085495D01*
X17566000Y-40109999D01*
X17566000Y-41010001D01*
X17564796Y-41034505D01*
X17561196Y-41058773D01*
X17555235Y-41082572D01*
X17546970Y-41105671D01*
X17536480Y-41127850D01*
X17523868Y-41148893D01*
X17509253Y-41168599D01*
X17492777Y-41186777D01*
X17474599Y-41203253D01*
X17454893Y-41217868D01*
X17433850Y-41230480D01*
X17411671Y-41240970D01*
X17388572Y-41249235D01*
X17364773Y-41255196D01*
X17340505Y-41258796D01*
X17316001Y-41260000D01*
X16465999Y-41260000D01*
X16441495Y-41258796D01*
X16417227Y-41255196D01*
X16393428Y-41249235D01*
X16370329Y-41240970D01*
X16348150Y-41230480D01*
X16327107Y-41217868D01*
X16307401Y-41203253D01*
X16289223Y-41186777D01*
X16272747Y-41168599D01*
X16258132Y-41148893D01*
X16245520Y-41127850D01*
X16235030Y-41105671D01*
X16226765Y-41082572D01*
X16220804Y-41058773D01*
X16217204Y-41034505D01*
X16216000Y-41010001D01*
X16216000Y-40109999D01*
X16217204Y-40085495D01*
X16220804Y-40061227D01*
X16226765Y-40037428D01*
X16235030Y-40014329D01*
X16245520Y-39992150D01*
X16258132Y-39971107D01*
X16272747Y-39951401D01*
X16289223Y-39933223D01*
X16307401Y-39916747D01*
X16327107Y-39902132D01*
X16348150Y-39889520D01*
X16370329Y-39879030D01*
X16393428Y-39870765D01*
X16417227Y-39864804D01*
X16441495Y-39861204D01*
X16465999Y-39860000D01*
X17316001Y-39860000D01*
X17340505Y-39861204D01*
G37*
G36*
X73925691Y-45500053D02*
G01*
X73946926Y-45503203D01*
X73967750Y-45508419D01*
X73987962Y-45515651D01*
X74007368Y-45524830D01*
X74025781Y-45535866D01*
X74043024Y-45548654D01*
X74058930Y-45563070D01*
X74073346Y-45578976D01*
X74086134Y-45596219D01*
X74097170Y-45614632D01*
X74106349Y-45634038D01*
X74113581Y-45654250D01*
X74118797Y-45675074D01*
X74121947Y-45696309D01*
X74123000Y-45717750D01*
X74123000Y-46230250D01*
X74121947Y-46251691D01*
X74118797Y-46272926D01*
X74113581Y-46293750D01*
X74106349Y-46313962D01*
X74097170Y-46333368D01*
X74086134Y-46351781D01*
X74073346Y-46369024D01*
X74058930Y-46384930D01*
X74043024Y-46399346D01*
X74025781Y-46412134D01*
X74007368Y-46423170D01*
X73987962Y-46432349D01*
X73967750Y-46439581D01*
X73946926Y-46444797D01*
X73925691Y-46447947D01*
X73904250Y-46449000D01*
X73466750Y-46449000D01*
X73445309Y-46447947D01*
X73424074Y-46444797D01*
X73403250Y-46439581D01*
X73383038Y-46432349D01*
X73363632Y-46423170D01*
X73345219Y-46412134D01*
X73327976Y-46399346D01*
X73312070Y-46384930D01*
X73297654Y-46369024D01*
X73284866Y-46351781D01*
X73273830Y-46333368D01*
X73264651Y-46313962D01*
X73257419Y-46293750D01*
X73252203Y-46272926D01*
X73249053Y-46251691D01*
X73248000Y-46230250D01*
X73248000Y-45717750D01*
X73249053Y-45696309D01*
X73252203Y-45675074D01*
X73257419Y-45654250D01*
X73264651Y-45634038D01*
X73273830Y-45614632D01*
X73284866Y-45596219D01*
X73297654Y-45578976D01*
X73312070Y-45563070D01*
X73327976Y-45548654D01*
X73345219Y-45535866D01*
X73363632Y-45524830D01*
X73383038Y-45515651D01*
X73403250Y-45508419D01*
X73424074Y-45503203D01*
X73445309Y-45500053D01*
X73466750Y-45499000D01*
X73904250Y-45499000D01*
X73925691Y-45500053D01*
G37*
G36*
X72350691Y-45500053D02*
G01*
X72371926Y-45503203D01*
X72392750Y-45508419D01*
X72412962Y-45515651D01*
X72432368Y-45524830D01*
X72450781Y-45535866D01*
X72468024Y-45548654D01*
X72483930Y-45563070D01*
X72498346Y-45578976D01*
X72511134Y-45596219D01*
X72522170Y-45614632D01*
X72531349Y-45634038D01*
X72538581Y-45654250D01*
X72543797Y-45675074D01*
X72546947Y-45696309D01*
X72548000Y-45717750D01*
X72548000Y-46230250D01*
X72546947Y-46251691D01*
X72543797Y-46272926D01*
X72538581Y-46293750D01*
X72531349Y-46313962D01*
X72522170Y-46333368D01*
X72511134Y-46351781D01*
X72498346Y-46369024D01*
X72483930Y-46384930D01*
X72468024Y-46399346D01*
X72450781Y-46412134D01*
X72432368Y-46423170D01*
X72412962Y-46432349D01*
X72392750Y-46439581D01*
X72371926Y-46444797D01*
X72350691Y-46447947D01*
X72329250Y-46449000D01*
X71891750Y-46449000D01*
X71870309Y-46447947D01*
X71849074Y-46444797D01*
X71828250Y-46439581D01*
X71808038Y-46432349D01*
X71788632Y-46423170D01*
X71770219Y-46412134D01*
X71752976Y-46399346D01*
X71737070Y-46384930D01*
X71722654Y-46369024D01*
X71709866Y-46351781D01*
X71698830Y-46333368D01*
X71689651Y-46313962D01*
X71682419Y-46293750D01*
X71677203Y-46272926D01*
X71674053Y-46251691D01*
X71673000Y-46230250D01*
X71673000Y-45717750D01*
X71674053Y-45696309D01*
X71677203Y-45675074D01*
X71682419Y-45654250D01*
X71689651Y-45634038D01*
X71698830Y-45614632D01*
X71709866Y-45596219D01*
X71722654Y-45578976D01*
X71737070Y-45563070D01*
X71752976Y-45548654D01*
X71770219Y-45535866D01*
X71788632Y-45524830D01*
X71808038Y-45515651D01*
X71828250Y-45508419D01*
X71849074Y-45503203D01*
X71870309Y-45500053D01*
X71891750Y-45499000D01*
X72329250Y-45499000D01*
X72350691Y-45500053D01*
G37*
G36*
X73925691Y-43976053D02*
G01*
X73946926Y-43979203D01*
X73967750Y-43984419D01*
X73987962Y-43991651D01*
X74007368Y-44000830D01*
X74025781Y-44011866D01*
X74043024Y-44024654D01*
X74058930Y-44039070D01*
X74073346Y-44054976D01*
X74086134Y-44072219D01*
X74097170Y-44090632D01*
X74106349Y-44110038D01*
X74113581Y-44130250D01*
X74118797Y-44151074D01*
X74121947Y-44172309D01*
X74123000Y-44193750D01*
X74123000Y-44706250D01*
X74121947Y-44727691D01*
X74118797Y-44748926D01*
X74113581Y-44769750D01*
X74106349Y-44789962D01*
X74097170Y-44809368D01*
X74086134Y-44827781D01*
X74073346Y-44845024D01*
X74058930Y-44860930D01*
X74043024Y-44875346D01*
X74025781Y-44888134D01*
X74007368Y-44899170D01*
X73987962Y-44908349D01*
X73967750Y-44915581D01*
X73946926Y-44920797D01*
X73925691Y-44923947D01*
X73904250Y-44925000D01*
X73466750Y-44925000D01*
X73445309Y-44923947D01*
X73424074Y-44920797D01*
X73403250Y-44915581D01*
X73383038Y-44908349D01*
X73363632Y-44899170D01*
X73345219Y-44888134D01*
X73327976Y-44875346D01*
X73312070Y-44860930D01*
X73297654Y-44845024D01*
X73284866Y-44827781D01*
X73273830Y-44809368D01*
X73264651Y-44789962D01*
X73257419Y-44769750D01*
X73252203Y-44748926D01*
X73249053Y-44727691D01*
X73248000Y-44706250D01*
X73248000Y-44193750D01*
X73249053Y-44172309D01*
X73252203Y-44151074D01*
X73257419Y-44130250D01*
X73264651Y-44110038D01*
X73273830Y-44090632D01*
X73284866Y-44072219D01*
X73297654Y-44054976D01*
X73312070Y-44039070D01*
X73327976Y-44024654D01*
X73345219Y-44011866D01*
X73363632Y-44000830D01*
X73383038Y-43991651D01*
X73403250Y-43984419D01*
X73424074Y-43979203D01*
X73445309Y-43976053D01*
X73466750Y-43975000D01*
X73904250Y-43975000D01*
X73925691Y-43976053D01*
G37*
G36*
X72350691Y-43976053D02*
G01*
X72371926Y-43979203D01*
X72392750Y-43984419D01*
X72412962Y-43991651D01*
X72432368Y-44000830D01*
X72450781Y-44011866D01*
X72468024Y-44024654D01*
X72483930Y-44039070D01*
X72498346Y-44054976D01*
X72511134Y-44072219D01*
X72522170Y-44090632D01*
X72531349Y-44110038D01*
X72538581Y-44130250D01*
X72543797Y-44151074D01*
X72546947Y-44172309D01*
X72548000Y-44193750D01*
X72548000Y-44706250D01*
X72546947Y-44727691D01*
X72543797Y-44748926D01*
X72538581Y-44769750D01*
X72531349Y-44789962D01*
X72522170Y-44809368D01*
X72511134Y-44827781D01*
X72498346Y-44845024D01*
X72483930Y-44860930D01*
X72468024Y-44875346D01*
X72450781Y-44888134D01*
X72432368Y-44899170D01*
X72412962Y-44908349D01*
X72392750Y-44915581D01*
X72371926Y-44920797D01*
X72350691Y-44923947D01*
X72329250Y-44925000D01*
X71891750Y-44925000D01*
X71870309Y-44923947D01*
X71849074Y-44920797D01*
X71828250Y-44915581D01*
X71808038Y-44908349D01*
X71788632Y-44899170D01*
X71770219Y-44888134D01*
X71752976Y-44875346D01*
X71737070Y-44860930D01*
X71722654Y-44845024D01*
X71709866Y-44827781D01*
X71698830Y-44809368D01*
X71689651Y-44789962D01*
X71682419Y-44769750D01*
X71677203Y-44748926D01*
X71674053Y-44727691D01*
X71673000Y-44706250D01*
X71673000Y-44193750D01*
X71674053Y-44172309D01*
X71677203Y-44151074D01*
X71682419Y-44130250D01*
X71689651Y-44110038D01*
X71698830Y-44090632D01*
X71709866Y-44072219D01*
X71722654Y-44054976D01*
X71737070Y-44039070D01*
X71752976Y-44024654D01*
X71770219Y-44011866D01*
X71788632Y-44000830D01*
X71808038Y-43991651D01*
X71828250Y-43984419D01*
X71849074Y-43979203D01*
X71870309Y-43976053D01*
X71891750Y-43975000D01*
X72329250Y-43975000D01*
X72350691Y-43976053D01*
G37*
G36*
X67663691Y-50833553D02*
G01*
X67684926Y-50836703D01*
X67705750Y-50841919D01*
X67725962Y-50849151D01*
X67745368Y-50858330D01*
X67763781Y-50869366D01*
X67781024Y-50882154D01*
X67796930Y-50896570D01*
X67811346Y-50912476D01*
X67824134Y-50929719D01*
X67835170Y-50948132D01*
X67844349Y-50967538D01*
X67851581Y-50987750D01*
X67856797Y-51008574D01*
X67859947Y-51029809D01*
X67861000Y-51051250D01*
X67861000Y-51488750D01*
X67859947Y-51510191D01*
X67856797Y-51531426D01*
X67851581Y-51552250D01*
X67844349Y-51572462D01*
X67835170Y-51591868D01*
X67824134Y-51610281D01*
X67811346Y-51627524D01*
X67796930Y-51643430D01*
X67781024Y-51657846D01*
X67763781Y-51670634D01*
X67745368Y-51681670D01*
X67725962Y-51690849D01*
X67705750Y-51698081D01*
X67684926Y-51703297D01*
X67663691Y-51706447D01*
X67642250Y-51707500D01*
X67129750Y-51707500D01*
X67108309Y-51706447D01*
X67087074Y-51703297D01*
X67066250Y-51698081D01*
X67046038Y-51690849D01*
X67026632Y-51681670D01*
X67008219Y-51670634D01*
X66990976Y-51657846D01*
X66975070Y-51643430D01*
X66960654Y-51627524D01*
X66947866Y-51610281D01*
X66936830Y-51591868D01*
X66927651Y-51572462D01*
X66920419Y-51552250D01*
X66915203Y-51531426D01*
X66912053Y-51510191D01*
X66911000Y-51488750D01*
X66911000Y-51051250D01*
X66912053Y-51029809D01*
X66915203Y-51008574D01*
X66920419Y-50987750D01*
X66927651Y-50967538D01*
X66936830Y-50948132D01*
X66947866Y-50929719D01*
X66960654Y-50912476D01*
X66975070Y-50896570D01*
X66990976Y-50882154D01*
X67008219Y-50869366D01*
X67026632Y-50858330D01*
X67046038Y-50849151D01*
X67066250Y-50841919D01*
X67087074Y-50836703D01*
X67108309Y-50833553D01*
X67129750Y-50832500D01*
X67642250Y-50832500D01*
X67663691Y-50833553D01*
G37*
G36*
X67663691Y-49258553D02*
G01*
X67684926Y-49261703D01*
X67705750Y-49266919D01*
X67725962Y-49274151D01*
X67745368Y-49283330D01*
X67763781Y-49294366D01*
X67781024Y-49307154D01*
X67796930Y-49321570D01*
X67811346Y-49337476D01*
X67824134Y-49354719D01*
X67835170Y-49373132D01*
X67844349Y-49392538D01*
X67851581Y-49412750D01*
X67856797Y-49433574D01*
X67859947Y-49454809D01*
X67861000Y-49476250D01*
X67861000Y-49913750D01*
X67859947Y-49935191D01*
X67856797Y-49956426D01*
X67851581Y-49977250D01*
X67844349Y-49997462D01*
X67835170Y-50016868D01*
X67824134Y-50035281D01*
X67811346Y-50052524D01*
X67796930Y-50068430D01*
X67781024Y-50082846D01*
X67763781Y-50095634D01*
X67745368Y-50106670D01*
X67725962Y-50115849D01*
X67705750Y-50123081D01*
X67684926Y-50128297D01*
X67663691Y-50131447D01*
X67642250Y-50132500D01*
X67129750Y-50132500D01*
X67108309Y-50131447D01*
X67087074Y-50128297D01*
X67066250Y-50123081D01*
X67046038Y-50115849D01*
X67026632Y-50106670D01*
X67008219Y-50095634D01*
X66990976Y-50082846D01*
X66975070Y-50068430D01*
X66960654Y-50052524D01*
X66947866Y-50035281D01*
X66936830Y-50016868D01*
X66927651Y-49997462D01*
X66920419Y-49977250D01*
X66915203Y-49956426D01*
X66912053Y-49935191D01*
X66911000Y-49913750D01*
X66911000Y-49476250D01*
X66912053Y-49454809D01*
X66915203Y-49433574D01*
X66920419Y-49412750D01*
X66927651Y-49392538D01*
X66936830Y-49373132D01*
X66947866Y-49354719D01*
X66960654Y-49337476D01*
X66975070Y-49321570D01*
X66990976Y-49307154D01*
X67008219Y-49294366D01*
X67026632Y-49283330D01*
X67046038Y-49274151D01*
X67066250Y-49266919D01*
X67087074Y-49261703D01*
X67108309Y-49258553D01*
X67129750Y-49257500D01*
X67642250Y-49257500D01*
X67663691Y-49258553D01*
G37*
G36*
X61758191Y-50833553D02*
G01*
X61779426Y-50836703D01*
X61800250Y-50841919D01*
X61820462Y-50849151D01*
X61839868Y-50858330D01*
X61858281Y-50869366D01*
X61875524Y-50882154D01*
X61891430Y-50896570D01*
X61905846Y-50912476D01*
X61918634Y-50929719D01*
X61929670Y-50948132D01*
X61938849Y-50967538D01*
X61946081Y-50987750D01*
X61951297Y-51008574D01*
X61954447Y-51029809D01*
X61955500Y-51051250D01*
X61955500Y-51488750D01*
X61954447Y-51510191D01*
X61951297Y-51531426D01*
X61946081Y-51552250D01*
X61938849Y-51572462D01*
X61929670Y-51591868D01*
X61918634Y-51610281D01*
X61905846Y-51627524D01*
X61891430Y-51643430D01*
X61875524Y-51657846D01*
X61858281Y-51670634D01*
X61839868Y-51681670D01*
X61820462Y-51690849D01*
X61800250Y-51698081D01*
X61779426Y-51703297D01*
X61758191Y-51706447D01*
X61736750Y-51707500D01*
X61224250Y-51707500D01*
X61202809Y-51706447D01*
X61181574Y-51703297D01*
X61160750Y-51698081D01*
X61140538Y-51690849D01*
X61121132Y-51681670D01*
X61102719Y-51670634D01*
X61085476Y-51657846D01*
X61069570Y-51643430D01*
X61055154Y-51627524D01*
X61042366Y-51610281D01*
X61031330Y-51591868D01*
X61022151Y-51572462D01*
X61014919Y-51552250D01*
X61009703Y-51531426D01*
X61006553Y-51510191D01*
X61005500Y-51488750D01*
X61005500Y-51051250D01*
X61006553Y-51029809D01*
X61009703Y-51008574D01*
X61014919Y-50987750D01*
X61022151Y-50967538D01*
X61031330Y-50948132D01*
X61042366Y-50929719D01*
X61055154Y-50912476D01*
X61069570Y-50896570D01*
X61085476Y-50882154D01*
X61102719Y-50869366D01*
X61121132Y-50858330D01*
X61140538Y-50849151D01*
X61160750Y-50841919D01*
X61181574Y-50836703D01*
X61202809Y-50833553D01*
X61224250Y-50832500D01*
X61736750Y-50832500D01*
X61758191Y-50833553D01*
G37*
G36*
X61758191Y-49258553D02*
G01*
X61779426Y-49261703D01*
X61800250Y-49266919D01*
X61820462Y-49274151D01*
X61839868Y-49283330D01*
X61858281Y-49294366D01*
X61875524Y-49307154D01*
X61891430Y-49321570D01*
X61905846Y-49337476D01*
X61918634Y-49354719D01*
X61929670Y-49373132D01*
X61938849Y-49392538D01*
X61946081Y-49412750D01*
X61951297Y-49433574D01*
X61954447Y-49454809D01*
X61955500Y-49476250D01*
X61955500Y-49913750D01*
X61954447Y-49935191D01*
X61951297Y-49956426D01*
X61946081Y-49977250D01*
X61938849Y-49997462D01*
X61929670Y-50016868D01*
X61918634Y-50035281D01*
X61905846Y-50052524D01*
X61891430Y-50068430D01*
X61875524Y-50082846D01*
X61858281Y-50095634D01*
X61839868Y-50106670D01*
X61820462Y-50115849D01*
X61800250Y-50123081D01*
X61779426Y-50128297D01*
X61758191Y-50131447D01*
X61736750Y-50132500D01*
X61224250Y-50132500D01*
X61202809Y-50131447D01*
X61181574Y-50128297D01*
X61160750Y-50123081D01*
X61140538Y-50115849D01*
X61121132Y-50106670D01*
X61102719Y-50095634D01*
X61085476Y-50082846D01*
X61069570Y-50068430D01*
X61055154Y-50052524D01*
X61042366Y-50035281D01*
X61031330Y-50016868D01*
X61022151Y-49997462D01*
X61014919Y-49977250D01*
X61009703Y-49956426D01*
X61006553Y-49935191D01*
X61005500Y-49913750D01*
X61005500Y-49476250D01*
X61006553Y-49454809D01*
X61009703Y-49433574D01*
X61014919Y-49412750D01*
X61022151Y-49392538D01*
X61031330Y-49373132D01*
X61042366Y-49354719D01*
X61055154Y-49337476D01*
X61069570Y-49321570D01*
X61085476Y-49307154D01*
X61102719Y-49294366D01*
X61121132Y-49283330D01*
X61140538Y-49274151D01*
X61160750Y-49266919D01*
X61181574Y-49261703D01*
X61202809Y-49258553D01*
X61224250Y-49257500D01*
X61736750Y-49257500D01*
X61758191Y-49258553D01*
G37*
G36*
X57364691Y-44750553D02*
G01*
X57385926Y-44753703D01*
X57406750Y-44758919D01*
X57426962Y-44766151D01*
X57446368Y-44775330D01*
X57464781Y-44786366D01*
X57482024Y-44799154D01*
X57497930Y-44813570D01*
X57512346Y-44829476D01*
X57525134Y-44846719D01*
X57536170Y-44865132D01*
X57545349Y-44884538D01*
X57552581Y-44904750D01*
X57557797Y-44925574D01*
X57560947Y-44946809D01*
X57562000Y-44968250D01*
X57562000Y-45480750D01*
X57560947Y-45502191D01*
X57557797Y-45523426D01*
X57552581Y-45544250D01*
X57545349Y-45564462D01*
X57536170Y-45583868D01*
X57525134Y-45602281D01*
X57512346Y-45619524D01*
X57497930Y-45635430D01*
X57482024Y-45649846D01*
X57464781Y-45662634D01*
X57446368Y-45673670D01*
X57426962Y-45682849D01*
X57406750Y-45690081D01*
X57385926Y-45695297D01*
X57364691Y-45698447D01*
X57343250Y-45699500D01*
X56905750Y-45699500D01*
X56884309Y-45698447D01*
X56863074Y-45695297D01*
X56842250Y-45690081D01*
X56822038Y-45682849D01*
X56802632Y-45673670D01*
X56784219Y-45662634D01*
X56766976Y-45649846D01*
X56751070Y-45635430D01*
X56736654Y-45619524D01*
X56723866Y-45602281D01*
X56712830Y-45583868D01*
X56703651Y-45564462D01*
X56696419Y-45544250D01*
X56691203Y-45523426D01*
X56688053Y-45502191D01*
X56687000Y-45480750D01*
X56687000Y-44968250D01*
X56688053Y-44946809D01*
X56691203Y-44925574D01*
X56696419Y-44904750D01*
X56703651Y-44884538D01*
X56712830Y-44865132D01*
X56723866Y-44846719D01*
X56736654Y-44829476D01*
X56751070Y-44813570D01*
X56766976Y-44799154D01*
X56784219Y-44786366D01*
X56802632Y-44775330D01*
X56822038Y-44766151D01*
X56842250Y-44758919D01*
X56863074Y-44753703D01*
X56884309Y-44750553D01*
X56905750Y-44749500D01*
X57343250Y-44749500D01*
X57364691Y-44750553D01*
G37*
G36*
X58939691Y-44750553D02*
G01*
X58960926Y-44753703D01*
X58981750Y-44758919D01*
X59001962Y-44766151D01*
X59021368Y-44775330D01*
X59039781Y-44786366D01*
X59057024Y-44799154D01*
X59072930Y-44813570D01*
X59087346Y-44829476D01*
X59100134Y-44846719D01*
X59111170Y-44865132D01*
X59120349Y-44884538D01*
X59127581Y-44904750D01*
X59132797Y-44925574D01*
X59135947Y-44946809D01*
X59137000Y-44968250D01*
X59137000Y-45480750D01*
X59135947Y-45502191D01*
X59132797Y-45523426D01*
X59127581Y-45544250D01*
X59120349Y-45564462D01*
X59111170Y-45583868D01*
X59100134Y-45602281D01*
X59087346Y-45619524D01*
X59072930Y-45635430D01*
X59057024Y-45649846D01*
X59039781Y-45662634D01*
X59021368Y-45673670D01*
X59001962Y-45682849D01*
X58981750Y-45690081D01*
X58960926Y-45695297D01*
X58939691Y-45698447D01*
X58918250Y-45699500D01*
X58480750Y-45699500D01*
X58459309Y-45698447D01*
X58438074Y-45695297D01*
X58417250Y-45690081D01*
X58397038Y-45682849D01*
X58377632Y-45673670D01*
X58359219Y-45662634D01*
X58341976Y-45649846D01*
X58326070Y-45635430D01*
X58311654Y-45619524D01*
X58298866Y-45602281D01*
X58287830Y-45583868D01*
X58278651Y-45564462D01*
X58271419Y-45544250D01*
X58266203Y-45523426D01*
X58263053Y-45502191D01*
X58262000Y-45480750D01*
X58262000Y-44968250D01*
X58263053Y-44946809D01*
X58266203Y-44925574D01*
X58271419Y-44904750D01*
X58278651Y-44884538D01*
X58287830Y-44865132D01*
X58298866Y-44846719D01*
X58311654Y-44829476D01*
X58326070Y-44813570D01*
X58341976Y-44799154D01*
X58359219Y-44786366D01*
X58377632Y-44775330D01*
X58397038Y-44766151D01*
X58417250Y-44758919D01*
X58438074Y-44753703D01*
X58459309Y-44750553D01*
X58480750Y-44749500D01*
X58918250Y-44749500D01*
X58939691Y-44750553D01*
G37*
G36*
X61186691Y-35860053D02*
G01*
X61207926Y-35863203D01*
X61228750Y-35868419D01*
X61248962Y-35875651D01*
X61268368Y-35884830D01*
X61286781Y-35895866D01*
X61304024Y-35908654D01*
X61319930Y-35923070D01*
X61334346Y-35938976D01*
X61347134Y-35956219D01*
X61358170Y-35974632D01*
X61367349Y-35994038D01*
X61374581Y-36014250D01*
X61379797Y-36035074D01*
X61382947Y-36056309D01*
X61384000Y-36077750D01*
X61384000Y-36515250D01*
X61382947Y-36536691D01*
X61379797Y-36557926D01*
X61374581Y-36578750D01*
X61367349Y-36598962D01*
X61358170Y-36618368D01*
X61347134Y-36636781D01*
X61334346Y-36654024D01*
X61319930Y-36669930D01*
X61304024Y-36684346D01*
X61286781Y-36697134D01*
X61268368Y-36708170D01*
X61248962Y-36717349D01*
X61228750Y-36724581D01*
X61207926Y-36729797D01*
X61186691Y-36732947D01*
X61165250Y-36734000D01*
X60652750Y-36734000D01*
X60631309Y-36732947D01*
X60610074Y-36729797D01*
X60589250Y-36724581D01*
X60569038Y-36717349D01*
X60549632Y-36708170D01*
X60531219Y-36697134D01*
X60513976Y-36684346D01*
X60498070Y-36669930D01*
X60483654Y-36654024D01*
X60470866Y-36636781D01*
X60459830Y-36618368D01*
X60450651Y-36598962D01*
X60443419Y-36578750D01*
X60438203Y-36557926D01*
X60435053Y-36536691D01*
X60434000Y-36515250D01*
X60434000Y-36077750D01*
X60435053Y-36056309D01*
X60438203Y-36035074D01*
X60443419Y-36014250D01*
X60450651Y-35994038D01*
X60459830Y-35974632D01*
X60470866Y-35956219D01*
X60483654Y-35938976D01*
X60498070Y-35923070D01*
X60513976Y-35908654D01*
X60531219Y-35895866D01*
X60549632Y-35884830D01*
X60569038Y-35875651D01*
X60589250Y-35868419D01*
X60610074Y-35863203D01*
X60631309Y-35860053D01*
X60652750Y-35859000D01*
X61165250Y-35859000D01*
X61186691Y-35860053D01*
G37*
G36*
X61186691Y-37435053D02*
G01*
X61207926Y-37438203D01*
X61228750Y-37443419D01*
X61248962Y-37450651D01*
X61268368Y-37459830D01*
X61286781Y-37470866D01*
X61304024Y-37483654D01*
X61319930Y-37498070D01*
X61334346Y-37513976D01*
X61347134Y-37531219D01*
X61358170Y-37549632D01*
X61367349Y-37569038D01*
X61374581Y-37589250D01*
X61379797Y-37610074D01*
X61382947Y-37631309D01*
X61384000Y-37652750D01*
X61384000Y-38090250D01*
X61382947Y-38111691D01*
X61379797Y-38132926D01*
X61374581Y-38153750D01*
X61367349Y-38173962D01*
X61358170Y-38193368D01*
X61347134Y-38211781D01*
X61334346Y-38229024D01*
X61319930Y-38244930D01*
X61304024Y-38259346D01*
X61286781Y-38272134D01*
X61268368Y-38283170D01*
X61248962Y-38292349D01*
X61228750Y-38299581D01*
X61207926Y-38304797D01*
X61186691Y-38307947D01*
X61165250Y-38309000D01*
X60652750Y-38309000D01*
X60631309Y-38307947D01*
X60610074Y-38304797D01*
X60589250Y-38299581D01*
X60569038Y-38292349D01*
X60549632Y-38283170D01*
X60531219Y-38272134D01*
X60513976Y-38259346D01*
X60498070Y-38244930D01*
X60483654Y-38229024D01*
X60470866Y-38211781D01*
X60459830Y-38193368D01*
X60450651Y-38173962D01*
X60443419Y-38153750D01*
X60438203Y-38132926D01*
X60435053Y-38111691D01*
X60434000Y-38090250D01*
X60434000Y-37652750D01*
X60435053Y-37631309D01*
X60438203Y-37610074D01*
X60443419Y-37589250D01*
X60450651Y-37569038D01*
X60459830Y-37549632D01*
X60470866Y-37531219D01*
X60483654Y-37513976D01*
X60498070Y-37498070D01*
X60513976Y-37483654D01*
X60531219Y-37470866D01*
X60549632Y-37459830D01*
X60569038Y-37450651D01*
X60589250Y-37443419D01*
X60610074Y-37438203D01*
X60631309Y-37435053D01*
X60652750Y-37434000D01*
X61165250Y-37434000D01*
X61186691Y-37435053D01*
G37*
G36*
X57364691Y-43277553D02*
G01*
X57385926Y-43280703D01*
X57406750Y-43285919D01*
X57426962Y-43293151D01*
X57446368Y-43302330D01*
X57464781Y-43313366D01*
X57482024Y-43326154D01*
X57497930Y-43340570D01*
X57512346Y-43356476D01*
X57525134Y-43373719D01*
X57536170Y-43392132D01*
X57545349Y-43411538D01*
X57552581Y-43431750D01*
X57557797Y-43452574D01*
X57560947Y-43473809D01*
X57562000Y-43495250D01*
X57562000Y-44007750D01*
X57560947Y-44029191D01*
X57557797Y-44050426D01*
X57552581Y-44071250D01*
X57545349Y-44091462D01*
X57536170Y-44110868D01*
X57525134Y-44129281D01*
X57512346Y-44146524D01*
X57497930Y-44162430D01*
X57482024Y-44176846D01*
X57464781Y-44189634D01*
X57446368Y-44200670D01*
X57426962Y-44209849D01*
X57406750Y-44217081D01*
X57385926Y-44222297D01*
X57364691Y-44225447D01*
X57343250Y-44226500D01*
X56905750Y-44226500D01*
X56884309Y-44225447D01*
X56863074Y-44222297D01*
X56842250Y-44217081D01*
X56822038Y-44209849D01*
X56802632Y-44200670D01*
X56784219Y-44189634D01*
X56766976Y-44176846D01*
X56751070Y-44162430D01*
X56736654Y-44146524D01*
X56723866Y-44129281D01*
X56712830Y-44110868D01*
X56703651Y-44091462D01*
X56696419Y-44071250D01*
X56691203Y-44050426D01*
X56688053Y-44029191D01*
X56687000Y-44007750D01*
X56687000Y-43495250D01*
X56688053Y-43473809D01*
X56691203Y-43452574D01*
X56696419Y-43431750D01*
X56703651Y-43411538D01*
X56712830Y-43392132D01*
X56723866Y-43373719D01*
X56736654Y-43356476D01*
X56751070Y-43340570D01*
X56766976Y-43326154D01*
X56784219Y-43313366D01*
X56802632Y-43302330D01*
X56822038Y-43293151D01*
X56842250Y-43285919D01*
X56863074Y-43280703D01*
X56884309Y-43277553D01*
X56905750Y-43276500D01*
X57343250Y-43276500D01*
X57364691Y-43277553D01*
G37*
G36*
X58939691Y-43277553D02*
G01*
X58960926Y-43280703D01*
X58981750Y-43285919D01*
X59001962Y-43293151D01*
X59021368Y-43302330D01*
X59039781Y-43313366D01*
X59057024Y-43326154D01*
X59072930Y-43340570D01*
X59087346Y-43356476D01*
X59100134Y-43373719D01*
X59111170Y-43392132D01*
X59120349Y-43411538D01*
X59127581Y-43431750D01*
X59132797Y-43452574D01*
X59135947Y-43473809D01*
X59137000Y-43495250D01*
X59137000Y-44007750D01*
X59135947Y-44029191D01*
X59132797Y-44050426D01*
X59127581Y-44071250D01*
X59120349Y-44091462D01*
X59111170Y-44110868D01*
X59100134Y-44129281D01*
X59087346Y-44146524D01*
X59072930Y-44162430D01*
X59057024Y-44176846D01*
X59039781Y-44189634D01*
X59021368Y-44200670D01*
X59001962Y-44209849D01*
X58981750Y-44217081D01*
X58960926Y-44222297D01*
X58939691Y-44225447D01*
X58918250Y-44226500D01*
X58480750Y-44226500D01*
X58459309Y-44225447D01*
X58438074Y-44222297D01*
X58417250Y-44217081D01*
X58397038Y-44209849D01*
X58377632Y-44200670D01*
X58359219Y-44189634D01*
X58341976Y-44176846D01*
X58326070Y-44162430D01*
X58311654Y-44146524D01*
X58298866Y-44129281D01*
X58287830Y-44110868D01*
X58278651Y-44091462D01*
X58271419Y-44071250D01*
X58266203Y-44050426D01*
X58263053Y-44029191D01*
X58262000Y-44007750D01*
X58262000Y-43495250D01*
X58263053Y-43473809D01*
X58266203Y-43452574D01*
X58271419Y-43431750D01*
X58278651Y-43411538D01*
X58287830Y-43392132D01*
X58298866Y-43373719D01*
X58311654Y-43356476D01*
X58326070Y-43340570D01*
X58341976Y-43326154D01*
X58359219Y-43313366D01*
X58377632Y-43302330D01*
X58397038Y-43293151D01*
X58417250Y-43285919D01*
X58438074Y-43280703D01*
X58459309Y-43277553D01*
X58480750Y-43276500D01*
X58918250Y-43276500D01*
X58939691Y-43277553D01*
G37*
G36*
X63218691Y-50833553D02*
G01*
X63239926Y-50836703D01*
X63260750Y-50841919D01*
X63280962Y-50849151D01*
X63300368Y-50858330D01*
X63318781Y-50869366D01*
X63336024Y-50882154D01*
X63351930Y-50896570D01*
X63366346Y-50912476D01*
X63379134Y-50929719D01*
X63390170Y-50948132D01*
X63399349Y-50967538D01*
X63406581Y-50987750D01*
X63411797Y-51008574D01*
X63414947Y-51029809D01*
X63416000Y-51051250D01*
X63416000Y-51488750D01*
X63414947Y-51510191D01*
X63411797Y-51531426D01*
X63406581Y-51552250D01*
X63399349Y-51572462D01*
X63390170Y-51591868D01*
X63379134Y-51610281D01*
X63366346Y-51627524D01*
X63351930Y-51643430D01*
X63336024Y-51657846D01*
X63318781Y-51670634D01*
X63300368Y-51681670D01*
X63280962Y-51690849D01*
X63260750Y-51698081D01*
X63239926Y-51703297D01*
X63218691Y-51706447D01*
X63197250Y-51707500D01*
X62684750Y-51707500D01*
X62663309Y-51706447D01*
X62642074Y-51703297D01*
X62621250Y-51698081D01*
X62601038Y-51690849D01*
X62581632Y-51681670D01*
X62563219Y-51670634D01*
X62545976Y-51657846D01*
X62530070Y-51643430D01*
X62515654Y-51627524D01*
X62502866Y-51610281D01*
X62491830Y-51591868D01*
X62482651Y-51572462D01*
X62475419Y-51552250D01*
X62470203Y-51531426D01*
X62467053Y-51510191D01*
X62466000Y-51488750D01*
X62466000Y-51051250D01*
X62467053Y-51029809D01*
X62470203Y-51008574D01*
X62475419Y-50987750D01*
X62482651Y-50967538D01*
X62491830Y-50948132D01*
X62502866Y-50929719D01*
X62515654Y-50912476D01*
X62530070Y-50896570D01*
X62545976Y-50882154D01*
X62563219Y-50869366D01*
X62581632Y-50858330D01*
X62601038Y-50849151D01*
X62621250Y-50841919D01*
X62642074Y-50836703D01*
X62663309Y-50833553D01*
X62684750Y-50832500D01*
X63197250Y-50832500D01*
X63218691Y-50833553D01*
G37*
G36*
X63218691Y-49258553D02*
G01*
X63239926Y-49261703D01*
X63260750Y-49266919D01*
X63280962Y-49274151D01*
X63300368Y-49283330D01*
X63318781Y-49294366D01*
X63336024Y-49307154D01*
X63351930Y-49321570D01*
X63366346Y-49337476D01*
X63379134Y-49354719D01*
X63390170Y-49373132D01*
X63399349Y-49392538D01*
X63406581Y-49412750D01*
X63411797Y-49433574D01*
X63414947Y-49454809D01*
X63416000Y-49476250D01*
X63416000Y-49913750D01*
X63414947Y-49935191D01*
X63411797Y-49956426D01*
X63406581Y-49977250D01*
X63399349Y-49997462D01*
X63390170Y-50016868D01*
X63379134Y-50035281D01*
X63366346Y-50052524D01*
X63351930Y-50068430D01*
X63336024Y-50082846D01*
X63318781Y-50095634D01*
X63300368Y-50106670D01*
X63280962Y-50115849D01*
X63260750Y-50123081D01*
X63239926Y-50128297D01*
X63218691Y-50131447D01*
X63197250Y-50132500D01*
X62684750Y-50132500D01*
X62663309Y-50131447D01*
X62642074Y-50128297D01*
X62621250Y-50123081D01*
X62601038Y-50115849D01*
X62581632Y-50106670D01*
X62563219Y-50095634D01*
X62545976Y-50082846D01*
X62530070Y-50068430D01*
X62515654Y-50052524D01*
X62502866Y-50035281D01*
X62491830Y-50016868D01*
X62482651Y-49997462D01*
X62475419Y-49977250D01*
X62470203Y-49956426D01*
X62467053Y-49935191D01*
X62466000Y-49913750D01*
X62466000Y-49476250D01*
X62467053Y-49454809D01*
X62470203Y-49433574D01*
X62475419Y-49412750D01*
X62482651Y-49392538D01*
X62491830Y-49373132D01*
X62502866Y-49354719D01*
X62515654Y-49337476D01*
X62530070Y-49321570D01*
X62545976Y-49307154D01*
X62563219Y-49294366D01*
X62581632Y-49283330D01*
X62601038Y-49274151D01*
X62621250Y-49266919D01*
X62642074Y-49261703D01*
X62663309Y-49258553D01*
X62684750Y-49257500D01*
X63197250Y-49257500D01*
X63218691Y-49258553D01*
G37*
G36*
X64730191Y-50833553D02*
G01*
X64751426Y-50836703D01*
X64772250Y-50841919D01*
X64792462Y-50849151D01*
X64811868Y-50858330D01*
X64830281Y-50869366D01*
X64847524Y-50882154D01*
X64863430Y-50896570D01*
X64877846Y-50912476D01*
X64890634Y-50929719D01*
X64901670Y-50948132D01*
X64910849Y-50967538D01*
X64918081Y-50987750D01*
X64923297Y-51008574D01*
X64926447Y-51029809D01*
X64927500Y-51051250D01*
X64927500Y-51488750D01*
X64926447Y-51510191D01*
X64923297Y-51531426D01*
X64918081Y-51552250D01*
X64910849Y-51572462D01*
X64901670Y-51591868D01*
X64890634Y-51610281D01*
X64877846Y-51627524D01*
X64863430Y-51643430D01*
X64847524Y-51657846D01*
X64830281Y-51670634D01*
X64811868Y-51681670D01*
X64792462Y-51690849D01*
X64772250Y-51698081D01*
X64751426Y-51703297D01*
X64730191Y-51706447D01*
X64708750Y-51707500D01*
X64196250Y-51707500D01*
X64174809Y-51706447D01*
X64153574Y-51703297D01*
X64132750Y-51698081D01*
X64112538Y-51690849D01*
X64093132Y-51681670D01*
X64074719Y-51670634D01*
X64057476Y-51657846D01*
X64041570Y-51643430D01*
X64027154Y-51627524D01*
X64014366Y-51610281D01*
X64003330Y-51591868D01*
X63994151Y-51572462D01*
X63986919Y-51552250D01*
X63981703Y-51531426D01*
X63978553Y-51510191D01*
X63977500Y-51488750D01*
X63977500Y-51051250D01*
X63978553Y-51029809D01*
X63981703Y-51008574D01*
X63986919Y-50987750D01*
X63994151Y-50967538D01*
X64003330Y-50948132D01*
X64014366Y-50929719D01*
X64027154Y-50912476D01*
X64041570Y-50896570D01*
X64057476Y-50882154D01*
X64074719Y-50869366D01*
X64093132Y-50858330D01*
X64112538Y-50849151D01*
X64132750Y-50841919D01*
X64153574Y-50836703D01*
X64174809Y-50833553D01*
X64196250Y-50832500D01*
X64708750Y-50832500D01*
X64730191Y-50833553D01*
G37*
G36*
X64730191Y-49258553D02*
G01*
X64751426Y-49261703D01*
X64772250Y-49266919D01*
X64792462Y-49274151D01*
X64811868Y-49283330D01*
X64830281Y-49294366D01*
X64847524Y-49307154D01*
X64863430Y-49321570D01*
X64877846Y-49337476D01*
X64890634Y-49354719D01*
X64901670Y-49373132D01*
X64910849Y-49392538D01*
X64918081Y-49412750D01*
X64923297Y-49433574D01*
X64926447Y-49454809D01*
X64927500Y-49476250D01*
X64927500Y-49913750D01*
X64926447Y-49935191D01*
X64923297Y-49956426D01*
X64918081Y-49977250D01*
X64910849Y-49997462D01*
X64901670Y-50016868D01*
X64890634Y-50035281D01*
X64877846Y-50052524D01*
X64863430Y-50068430D01*
X64847524Y-50082846D01*
X64830281Y-50095634D01*
X64811868Y-50106670D01*
X64792462Y-50115849D01*
X64772250Y-50123081D01*
X64751426Y-50128297D01*
X64730191Y-50131447D01*
X64708750Y-50132500D01*
X64196250Y-50132500D01*
X64174809Y-50131447D01*
X64153574Y-50128297D01*
X64132750Y-50123081D01*
X64112538Y-50115849D01*
X64093132Y-50106670D01*
X64074719Y-50095634D01*
X64057476Y-50082846D01*
X64041570Y-50068430D01*
X64027154Y-50052524D01*
X64014366Y-50035281D01*
X64003330Y-50016868D01*
X63994151Y-49997462D01*
X63986919Y-49977250D01*
X63981703Y-49956426D01*
X63978553Y-49935191D01*
X63977500Y-49913750D01*
X63977500Y-49476250D01*
X63978553Y-49454809D01*
X63981703Y-49433574D01*
X63986919Y-49412750D01*
X63994151Y-49392538D01*
X64003330Y-49373132D01*
X64014366Y-49354719D01*
X64027154Y-49337476D01*
X64041570Y-49321570D01*
X64057476Y-49307154D01*
X64074719Y-49294366D01*
X64093132Y-49283330D01*
X64112538Y-49274151D01*
X64132750Y-49266919D01*
X64153574Y-49261703D01*
X64174809Y-49258553D01*
X64196250Y-49257500D01*
X64708750Y-49257500D01*
X64730191Y-49258553D01*
G37*
G36*
X66203191Y-50833553D02*
G01*
X66224426Y-50836703D01*
X66245250Y-50841919D01*
X66265462Y-50849151D01*
X66284868Y-50858330D01*
X66303281Y-50869366D01*
X66320524Y-50882154D01*
X66336430Y-50896570D01*
X66350846Y-50912476D01*
X66363634Y-50929719D01*
X66374670Y-50948132D01*
X66383849Y-50967538D01*
X66391081Y-50987750D01*
X66396297Y-51008574D01*
X66399447Y-51029809D01*
X66400500Y-51051250D01*
X66400500Y-51488750D01*
X66399447Y-51510191D01*
X66396297Y-51531426D01*
X66391081Y-51552250D01*
X66383849Y-51572462D01*
X66374670Y-51591868D01*
X66363634Y-51610281D01*
X66350846Y-51627524D01*
X66336430Y-51643430D01*
X66320524Y-51657846D01*
X66303281Y-51670634D01*
X66284868Y-51681670D01*
X66265462Y-51690849D01*
X66245250Y-51698081D01*
X66224426Y-51703297D01*
X66203191Y-51706447D01*
X66181750Y-51707500D01*
X65669250Y-51707500D01*
X65647809Y-51706447D01*
X65626574Y-51703297D01*
X65605750Y-51698081D01*
X65585538Y-51690849D01*
X65566132Y-51681670D01*
X65547719Y-51670634D01*
X65530476Y-51657846D01*
X65514570Y-51643430D01*
X65500154Y-51627524D01*
X65487366Y-51610281D01*
X65476330Y-51591868D01*
X65467151Y-51572462D01*
X65459919Y-51552250D01*
X65454703Y-51531426D01*
X65451553Y-51510191D01*
X65450500Y-51488750D01*
X65450500Y-51051250D01*
X65451553Y-51029809D01*
X65454703Y-51008574D01*
X65459919Y-50987750D01*
X65467151Y-50967538D01*
X65476330Y-50948132D01*
X65487366Y-50929719D01*
X65500154Y-50912476D01*
X65514570Y-50896570D01*
X65530476Y-50882154D01*
X65547719Y-50869366D01*
X65566132Y-50858330D01*
X65585538Y-50849151D01*
X65605750Y-50841919D01*
X65626574Y-50836703D01*
X65647809Y-50833553D01*
X65669250Y-50832500D01*
X66181750Y-50832500D01*
X66203191Y-50833553D01*
G37*
G36*
X66203191Y-49258553D02*
G01*
X66224426Y-49261703D01*
X66245250Y-49266919D01*
X66265462Y-49274151D01*
X66284868Y-49283330D01*
X66303281Y-49294366D01*
X66320524Y-49307154D01*
X66336430Y-49321570D01*
X66350846Y-49337476D01*
X66363634Y-49354719D01*
X66374670Y-49373132D01*
X66383849Y-49392538D01*
X66391081Y-49412750D01*
X66396297Y-49433574D01*
X66399447Y-49454809D01*
X66400500Y-49476250D01*
X66400500Y-49913750D01*
X66399447Y-49935191D01*
X66396297Y-49956426D01*
X66391081Y-49977250D01*
X66383849Y-49997462D01*
X66374670Y-50016868D01*
X66363634Y-50035281D01*
X66350846Y-50052524D01*
X66336430Y-50068430D01*
X66320524Y-50082846D01*
X66303281Y-50095634D01*
X66284868Y-50106670D01*
X66265462Y-50115849D01*
X66245250Y-50123081D01*
X66224426Y-50128297D01*
X66203191Y-50131447D01*
X66181750Y-50132500D01*
X65669250Y-50132500D01*
X65647809Y-50131447D01*
X65626574Y-50128297D01*
X65605750Y-50123081D01*
X65585538Y-50115849D01*
X65566132Y-50106670D01*
X65547719Y-50095634D01*
X65530476Y-50082846D01*
X65514570Y-50068430D01*
X65500154Y-50052524D01*
X65487366Y-50035281D01*
X65476330Y-50016868D01*
X65467151Y-49997462D01*
X65459919Y-49977250D01*
X65454703Y-49956426D01*
X65451553Y-49935191D01*
X65450500Y-49913750D01*
X65450500Y-49476250D01*
X65451553Y-49454809D01*
X65454703Y-49433574D01*
X65459919Y-49412750D01*
X65467151Y-49392538D01*
X65476330Y-49373132D01*
X65487366Y-49354719D01*
X65500154Y-49337476D01*
X65514570Y-49321570D01*
X65530476Y-49307154D01*
X65547719Y-49294366D01*
X65566132Y-49283330D01*
X65585538Y-49274151D01*
X65605750Y-49266919D01*
X65626574Y-49261703D01*
X65647809Y-49258553D01*
X65669250Y-49257500D01*
X66181750Y-49257500D01*
X66203191Y-49258553D01*
G37*
G36*
X73925691Y-40928053D02*
G01*
X73946926Y-40931203D01*
X73967750Y-40936419D01*
X73987962Y-40943651D01*
X74007368Y-40952830D01*
X74025781Y-40963866D01*
X74043024Y-40976654D01*
X74058930Y-40991070D01*
X74073346Y-41006976D01*
X74086134Y-41024219D01*
X74097170Y-41042632D01*
X74106349Y-41062038D01*
X74113581Y-41082250D01*
X74118797Y-41103074D01*
X74121947Y-41124309D01*
X74123000Y-41145750D01*
X74123000Y-41658250D01*
X74121947Y-41679691D01*
X74118797Y-41700926D01*
X74113581Y-41721750D01*
X74106349Y-41741962D01*
X74097170Y-41761368D01*
X74086134Y-41779781D01*
X74073346Y-41797024D01*
X74058930Y-41812930D01*
X74043024Y-41827346D01*
X74025781Y-41840134D01*
X74007368Y-41851170D01*
X73987962Y-41860349D01*
X73967750Y-41867581D01*
X73946926Y-41872797D01*
X73925691Y-41875947D01*
X73904250Y-41877000D01*
X73466750Y-41877000D01*
X73445309Y-41875947D01*
X73424074Y-41872797D01*
X73403250Y-41867581D01*
X73383038Y-41860349D01*
X73363632Y-41851170D01*
X73345219Y-41840134D01*
X73327976Y-41827346D01*
X73312070Y-41812930D01*
X73297654Y-41797024D01*
X73284866Y-41779781D01*
X73273830Y-41761368D01*
X73264651Y-41741962D01*
X73257419Y-41721750D01*
X73252203Y-41700926D01*
X73249053Y-41679691D01*
X73248000Y-41658250D01*
X73248000Y-41145750D01*
X73249053Y-41124309D01*
X73252203Y-41103074D01*
X73257419Y-41082250D01*
X73264651Y-41062038D01*
X73273830Y-41042632D01*
X73284866Y-41024219D01*
X73297654Y-41006976D01*
X73312070Y-40991070D01*
X73327976Y-40976654D01*
X73345219Y-40963866D01*
X73363632Y-40952830D01*
X73383038Y-40943651D01*
X73403250Y-40936419D01*
X73424074Y-40931203D01*
X73445309Y-40928053D01*
X73466750Y-40927000D01*
X73904250Y-40927000D01*
X73925691Y-40928053D01*
G37*
G36*
X72350691Y-40928053D02*
G01*
X72371926Y-40931203D01*
X72392750Y-40936419D01*
X72412962Y-40943651D01*
X72432368Y-40952830D01*
X72450781Y-40963866D01*
X72468024Y-40976654D01*
X72483930Y-40991070D01*
X72498346Y-41006976D01*
X72511134Y-41024219D01*
X72522170Y-41042632D01*
X72531349Y-41062038D01*
X72538581Y-41082250D01*
X72543797Y-41103074D01*
X72546947Y-41124309D01*
X72548000Y-41145750D01*
X72548000Y-41658250D01*
X72546947Y-41679691D01*
X72543797Y-41700926D01*
X72538581Y-41721750D01*
X72531349Y-41741962D01*
X72522170Y-41761368D01*
X72511134Y-41779781D01*
X72498346Y-41797024D01*
X72483930Y-41812930D01*
X72468024Y-41827346D01*
X72450781Y-41840134D01*
X72432368Y-41851170D01*
X72412962Y-41860349D01*
X72392750Y-41867581D01*
X72371926Y-41872797D01*
X72350691Y-41875947D01*
X72329250Y-41877000D01*
X71891750Y-41877000D01*
X71870309Y-41875947D01*
X71849074Y-41872797D01*
X71828250Y-41867581D01*
X71808038Y-41860349D01*
X71788632Y-41851170D01*
X71770219Y-41840134D01*
X71752976Y-41827346D01*
X71737070Y-41812930D01*
X71722654Y-41797024D01*
X71709866Y-41779781D01*
X71698830Y-41761368D01*
X71689651Y-41741962D01*
X71682419Y-41721750D01*
X71677203Y-41700926D01*
X71674053Y-41679691D01*
X71673000Y-41658250D01*
X71673000Y-41145750D01*
X71674053Y-41124309D01*
X71677203Y-41103074D01*
X71682419Y-41082250D01*
X71689651Y-41062038D01*
X71698830Y-41042632D01*
X71709866Y-41024219D01*
X71722654Y-41006976D01*
X71737070Y-40991070D01*
X71752976Y-40976654D01*
X71770219Y-40963866D01*
X71788632Y-40952830D01*
X71808038Y-40943651D01*
X71828250Y-40936419D01*
X71849074Y-40931203D01*
X71870309Y-40928053D01*
X71891750Y-40927000D01*
X72329250Y-40927000D01*
X72350691Y-40928053D01*
G37*
G36*
X73925691Y-42452053D02*
G01*
X73946926Y-42455203D01*
X73967750Y-42460419D01*
X73987962Y-42467651D01*
X74007368Y-42476830D01*
X74025781Y-42487866D01*
X74043024Y-42500654D01*
X74058930Y-42515070D01*
X74073346Y-42530976D01*
X74086134Y-42548219D01*
X74097170Y-42566632D01*
X74106349Y-42586038D01*
X74113581Y-42606250D01*
X74118797Y-42627074D01*
X74121947Y-42648309D01*
X74123000Y-42669750D01*
X74123000Y-43182250D01*
X74121947Y-43203691D01*
X74118797Y-43224926D01*
X74113581Y-43245750D01*
X74106349Y-43265962D01*
X74097170Y-43285368D01*
X74086134Y-43303781D01*
X74073346Y-43321024D01*
X74058930Y-43336930D01*
X74043024Y-43351346D01*
X74025781Y-43364134D01*
X74007368Y-43375170D01*
X73987962Y-43384349D01*
X73967750Y-43391581D01*
X73946926Y-43396797D01*
X73925691Y-43399947D01*
X73904250Y-43401000D01*
X73466750Y-43401000D01*
X73445309Y-43399947D01*
X73424074Y-43396797D01*
X73403250Y-43391581D01*
X73383038Y-43384349D01*
X73363632Y-43375170D01*
X73345219Y-43364134D01*
X73327976Y-43351346D01*
X73312070Y-43336930D01*
X73297654Y-43321024D01*
X73284866Y-43303781D01*
X73273830Y-43285368D01*
X73264651Y-43265962D01*
X73257419Y-43245750D01*
X73252203Y-43224926D01*
X73249053Y-43203691D01*
X73248000Y-43182250D01*
X73248000Y-42669750D01*
X73249053Y-42648309D01*
X73252203Y-42627074D01*
X73257419Y-42606250D01*
X73264651Y-42586038D01*
X73273830Y-42566632D01*
X73284866Y-42548219D01*
X73297654Y-42530976D01*
X73312070Y-42515070D01*
X73327976Y-42500654D01*
X73345219Y-42487866D01*
X73363632Y-42476830D01*
X73383038Y-42467651D01*
X73403250Y-42460419D01*
X73424074Y-42455203D01*
X73445309Y-42452053D01*
X73466750Y-42451000D01*
X73904250Y-42451000D01*
X73925691Y-42452053D01*
G37*
G36*
X72350691Y-42452053D02*
G01*
X72371926Y-42455203D01*
X72392750Y-42460419D01*
X72412962Y-42467651D01*
X72432368Y-42476830D01*
X72450781Y-42487866D01*
X72468024Y-42500654D01*
X72483930Y-42515070D01*
X72498346Y-42530976D01*
X72511134Y-42548219D01*
X72522170Y-42566632D01*
X72531349Y-42586038D01*
X72538581Y-42606250D01*
X72543797Y-42627074D01*
X72546947Y-42648309D01*
X72548000Y-42669750D01*
X72548000Y-43182250D01*
X72546947Y-43203691D01*
X72543797Y-43224926D01*
X72538581Y-43245750D01*
X72531349Y-43265962D01*
X72522170Y-43285368D01*
X72511134Y-43303781D01*
X72498346Y-43321024D01*
X72483930Y-43336930D01*
X72468024Y-43351346D01*
X72450781Y-43364134D01*
X72432368Y-43375170D01*
X72412962Y-43384349D01*
X72392750Y-43391581D01*
X72371926Y-43396797D01*
X72350691Y-43399947D01*
X72329250Y-43401000D01*
X71891750Y-43401000D01*
X71870309Y-43399947D01*
X71849074Y-43396797D01*
X71828250Y-43391581D01*
X71808038Y-43384349D01*
X71788632Y-43375170D01*
X71770219Y-43364134D01*
X71752976Y-43351346D01*
X71737070Y-43336930D01*
X71722654Y-43321024D01*
X71709866Y-43303781D01*
X71698830Y-43285368D01*
X71689651Y-43265962D01*
X71682419Y-43245750D01*
X71677203Y-43224926D01*
X71674053Y-43203691D01*
X71673000Y-43182250D01*
X71673000Y-42669750D01*
X71674053Y-42648309D01*
X71677203Y-42627074D01*
X71682419Y-42606250D01*
X71689651Y-42586038D01*
X71698830Y-42566632D01*
X71709866Y-42548219D01*
X71722654Y-42530976D01*
X71737070Y-42515070D01*
X71752976Y-42500654D01*
X71770219Y-42487866D01*
X71788632Y-42476830D01*
X71808038Y-42467651D01*
X71828250Y-42460419D01*
X71849074Y-42455203D01*
X71870309Y-42452053D01*
X71891750Y-42451000D01*
X72329250Y-42451000D01*
X72350691Y-42452053D01*
G37*
G36*
X70889691Y-40940053D02*
G01*
X70910926Y-40943203D01*
X70931750Y-40948419D01*
X70951962Y-40955651D01*
X70971368Y-40964830D01*
X70989781Y-40975866D01*
X71007024Y-40988654D01*
X71022930Y-41003070D01*
X71037346Y-41018976D01*
X71050134Y-41036219D01*
X71061170Y-41054632D01*
X71070349Y-41074038D01*
X71077581Y-41094250D01*
X71082797Y-41115074D01*
X71085947Y-41136309D01*
X71087000Y-41157750D01*
X71087000Y-41595250D01*
X71085947Y-41616691D01*
X71082797Y-41637926D01*
X71077581Y-41658750D01*
X71070349Y-41678962D01*
X71061170Y-41698368D01*
X71050134Y-41716781D01*
X71037346Y-41734024D01*
X71022930Y-41749930D01*
X71007024Y-41764346D01*
X70989781Y-41777134D01*
X70971368Y-41788170D01*
X70951962Y-41797349D01*
X70931750Y-41804581D01*
X70910926Y-41809797D01*
X70889691Y-41812947D01*
X70868250Y-41814000D01*
X70355750Y-41814000D01*
X70334309Y-41812947D01*
X70313074Y-41809797D01*
X70292250Y-41804581D01*
X70272038Y-41797349D01*
X70252632Y-41788170D01*
X70234219Y-41777134D01*
X70216976Y-41764346D01*
X70201070Y-41749930D01*
X70186654Y-41734024D01*
X70173866Y-41716781D01*
X70162830Y-41698368D01*
X70153651Y-41678962D01*
X70146419Y-41658750D01*
X70141203Y-41637926D01*
X70138053Y-41616691D01*
X70137000Y-41595250D01*
X70137000Y-41157750D01*
X70138053Y-41136309D01*
X70141203Y-41115074D01*
X70146419Y-41094250D01*
X70153651Y-41074038D01*
X70162830Y-41054632D01*
X70173866Y-41036219D01*
X70186654Y-41018976D01*
X70201070Y-41003070D01*
X70216976Y-40988654D01*
X70234219Y-40975866D01*
X70252632Y-40964830D01*
X70272038Y-40955651D01*
X70292250Y-40948419D01*
X70313074Y-40943203D01*
X70334309Y-40940053D01*
X70355750Y-40939000D01*
X70868250Y-40939000D01*
X70889691Y-40940053D01*
G37*
G36*
X70889691Y-42515053D02*
G01*
X70910926Y-42518203D01*
X70931750Y-42523419D01*
X70951962Y-42530651D01*
X70971368Y-42539830D01*
X70989781Y-42550866D01*
X71007024Y-42563654D01*
X71022930Y-42578070D01*
X71037346Y-42593976D01*
X71050134Y-42611219D01*
X71061170Y-42629632D01*
X71070349Y-42649038D01*
X71077581Y-42669250D01*
X71082797Y-42690074D01*
X71085947Y-42711309D01*
X71087000Y-42732750D01*
X71087000Y-43170250D01*
X71085947Y-43191691D01*
X71082797Y-43212926D01*
X71077581Y-43233750D01*
X71070349Y-43253962D01*
X71061170Y-43273368D01*
X71050134Y-43291781D01*
X71037346Y-43309024D01*
X71022930Y-43324930D01*
X71007024Y-43339346D01*
X70989781Y-43352134D01*
X70971368Y-43363170D01*
X70951962Y-43372349D01*
X70931750Y-43379581D01*
X70910926Y-43384797D01*
X70889691Y-43387947D01*
X70868250Y-43389000D01*
X70355750Y-43389000D01*
X70334309Y-43387947D01*
X70313074Y-43384797D01*
X70292250Y-43379581D01*
X70272038Y-43372349D01*
X70252632Y-43363170D01*
X70234219Y-43352134D01*
X70216976Y-43339346D01*
X70201070Y-43324930D01*
X70186654Y-43309024D01*
X70173866Y-43291781D01*
X70162830Y-43273368D01*
X70153651Y-43253962D01*
X70146419Y-43233750D01*
X70141203Y-43212926D01*
X70138053Y-43191691D01*
X70137000Y-43170250D01*
X70137000Y-42732750D01*
X70138053Y-42711309D01*
X70141203Y-42690074D01*
X70146419Y-42669250D01*
X70153651Y-42649038D01*
X70162830Y-42629632D01*
X70173866Y-42611219D01*
X70186654Y-42593976D01*
X70201070Y-42578070D01*
X70216976Y-42563654D01*
X70234219Y-42550866D01*
X70252632Y-42539830D01*
X70272038Y-42530651D01*
X70292250Y-42523419D01*
X70313074Y-42518203D01*
X70334309Y-42515053D01*
X70355750Y-42514000D01*
X70868250Y-42514000D01*
X70889691Y-42515053D01*
G37*
G36*
X57364691Y-40801053D02*
G01*
X57385926Y-40804203D01*
X57406750Y-40809419D01*
X57426962Y-40816651D01*
X57446368Y-40825830D01*
X57464781Y-40836866D01*
X57482024Y-40849654D01*
X57497930Y-40864070D01*
X57512346Y-40879976D01*
X57525134Y-40897219D01*
X57536170Y-40915632D01*
X57545349Y-40935038D01*
X57552581Y-40955250D01*
X57557797Y-40976074D01*
X57560947Y-40997309D01*
X57562000Y-41018750D01*
X57562000Y-41531250D01*
X57560947Y-41552691D01*
X57557797Y-41573926D01*
X57552581Y-41594750D01*
X57545349Y-41614962D01*
X57536170Y-41634368D01*
X57525134Y-41652781D01*
X57512346Y-41670024D01*
X57497930Y-41685930D01*
X57482024Y-41700346D01*
X57464781Y-41713134D01*
X57446368Y-41724170D01*
X57426962Y-41733349D01*
X57406750Y-41740581D01*
X57385926Y-41745797D01*
X57364691Y-41748947D01*
X57343250Y-41750000D01*
X56905750Y-41750000D01*
X56884309Y-41748947D01*
X56863074Y-41745797D01*
X56842250Y-41740581D01*
X56822038Y-41733349D01*
X56802632Y-41724170D01*
X56784219Y-41713134D01*
X56766976Y-41700346D01*
X56751070Y-41685930D01*
X56736654Y-41670024D01*
X56723866Y-41652781D01*
X56712830Y-41634368D01*
X56703651Y-41614962D01*
X56696419Y-41594750D01*
X56691203Y-41573926D01*
X56688053Y-41552691D01*
X56687000Y-41531250D01*
X56687000Y-41018750D01*
X56688053Y-40997309D01*
X56691203Y-40976074D01*
X56696419Y-40955250D01*
X56703651Y-40935038D01*
X56712830Y-40915632D01*
X56723866Y-40897219D01*
X56736654Y-40879976D01*
X56751070Y-40864070D01*
X56766976Y-40849654D01*
X56784219Y-40836866D01*
X56802632Y-40825830D01*
X56822038Y-40816651D01*
X56842250Y-40809419D01*
X56863074Y-40804203D01*
X56884309Y-40801053D01*
X56905750Y-40800000D01*
X57343250Y-40800000D01*
X57364691Y-40801053D01*
G37*
G36*
X58939691Y-40801053D02*
G01*
X58960926Y-40804203D01*
X58981750Y-40809419D01*
X59001962Y-40816651D01*
X59021368Y-40825830D01*
X59039781Y-40836866D01*
X59057024Y-40849654D01*
X59072930Y-40864070D01*
X59087346Y-40879976D01*
X59100134Y-40897219D01*
X59111170Y-40915632D01*
X59120349Y-40935038D01*
X59127581Y-40955250D01*
X59132797Y-40976074D01*
X59135947Y-40997309D01*
X59137000Y-41018750D01*
X59137000Y-41531250D01*
X59135947Y-41552691D01*
X59132797Y-41573926D01*
X59127581Y-41594750D01*
X59120349Y-41614962D01*
X59111170Y-41634368D01*
X59100134Y-41652781D01*
X59087346Y-41670024D01*
X59072930Y-41685930D01*
X59057024Y-41700346D01*
X59039781Y-41713134D01*
X59021368Y-41724170D01*
X59001962Y-41733349D01*
X58981750Y-41740581D01*
X58960926Y-41745797D01*
X58939691Y-41748947D01*
X58918250Y-41750000D01*
X58480750Y-41750000D01*
X58459309Y-41748947D01*
X58438074Y-41745797D01*
X58417250Y-41740581D01*
X58397038Y-41733349D01*
X58377632Y-41724170D01*
X58359219Y-41713134D01*
X58341976Y-41700346D01*
X58326070Y-41685930D01*
X58311654Y-41670024D01*
X58298866Y-41652781D01*
X58287830Y-41634368D01*
X58278651Y-41614962D01*
X58271419Y-41594750D01*
X58266203Y-41573926D01*
X58263053Y-41552691D01*
X58262000Y-41531250D01*
X58262000Y-41018750D01*
X58263053Y-40997309D01*
X58266203Y-40976074D01*
X58271419Y-40955250D01*
X58278651Y-40935038D01*
X58287830Y-40915632D01*
X58298866Y-40897219D01*
X58311654Y-40879976D01*
X58326070Y-40864070D01*
X58341976Y-40849654D01*
X58359219Y-40836866D01*
X58377632Y-40825830D01*
X58397038Y-40816651D01*
X58417250Y-40809419D01*
X58438074Y-40804203D01*
X58459309Y-40801053D01*
X58480750Y-40800000D01*
X58918250Y-40800000D01*
X58939691Y-40801053D01*
G37*
G36*
X72363191Y-38832553D02*
G01*
X72384426Y-38835703D01*
X72405250Y-38840919D01*
X72425462Y-38848151D01*
X72444868Y-38857330D01*
X72463281Y-38868366D01*
X72480524Y-38881154D01*
X72496430Y-38895570D01*
X72510846Y-38911476D01*
X72523634Y-38928719D01*
X72534670Y-38947132D01*
X72543849Y-38966538D01*
X72551081Y-38986750D01*
X72556297Y-39007574D01*
X72559447Y-39028809D01*
X72560500Y-39050250D01*
X72560500Y-39562750D01*
X72559447Y-39584191D01*
X72556297Y-39605426D01*
X72551081Y-39626250D01*
X72543849Y-39646462D01*
X72534670Y-39665868D01*
X72523634Y-39684281D01*
X72510846Y-39701524D01*
X72496430Y-39717430D01*
X72480524Y-39731846D01*
X72463281Y-39744634D01*
X72444868Y-39755670D01*
X72425462Y-39764849D01*
X72405250Y-39772081D01*
X72384426Y-39777297D01*
X72363191Y-39780447D01*
X72341750Y-39781500D01*
X71904250Y-39781500D01*
X71882809Y-39780447D01*
X71861574Y-39777297D01*
X71840750Y-39772081D01*
X71820538Y-39764849D01*
X71801132Y-39755670D01*
X71782719Y-39744634D01*
X71765476Y-39731846D01*
X71749570Y-39717430D01*
X71735154Y-39701524D01*
X71722366Y-39684281D01*
X71711330Y-39665868D01*
X71702151Y-39646462D01*
X71694919Y-39626250D01*
X71689703Y-39605426D01*
X71686553Y-39584191D01*
X71685500Y-39562750D01*
X71685500Y-39050250D01*
X71686553Y-39028809D01*
X71689703Y-39007574D01*
X71694919Y-38986750D01*
X71702151Y-38966538D01*
X71711330Y-38947132D01*
X71722366Y-38928719D01*
X71735154Y-38911476D01*
X71749570Y-38895570D01*
X71765476Y-38881154D01*
X71782719Y-38868366D01*
X71801132Y-38857330D01*
X71820538Y-38848151D01*
X71840750Y-38840919D01*
X71861574Y-38835703D01*
X71882809Y-38832553D01*
X71904250Y-38831500D01*
X72341750Y-38831500D01*
X72363191Y-38832553D01*
G37*
G36*
X70788191Y-38832553D02*
G01*
X70809426Y-38835703D01*
X70830250Y-38840919D01*
X70850462Y-38848151D01*
X70869868Y-38857330D01*
X70888281Y-38868366D01*
X70905524Y-38881154D01*
X70921430Y-38895570D01*
X70935846Y-38911476D01*
X70948634Y-38928719D01*
X70959670Y-38947132D01*
X70968849Y-38966538D01*
X70976081Y-38986750D01*
X70981297Y-39007574D01*
X70984447Y-39028809D01*
X70985500Y-39050250D01*
X70985500Y-39562750D01*
X70984447Y-39584191D01*
X70981297Y-39605426D01*
X70976081Y-39626250D01*
X70968849Y-39646462D01*
X70959670Y-39665868D01*
X70948634Y-39684281D01*
X70935846Y-39701524D01*
X70921430Y-39717430D01*
X70905524Y-39731846D01*
X70888281Y-39744634D01*
X70869868Y-39755670D01*
X70850462Y-39764849D01*
X70830250Y-39772081D01*
X70809426Y-39777297D01*
X70788191Y-39780447D01*
X70766750Y-39781500D01*
X70329250Y-39781500D01*
X70307809Y-39780447D01*
X70286574Y-39777297D01*
X70265750Y-39772081D01*
X70245538Y-39764849D01*
X70226132Y-39755670D01*
X70207719Y-39744634D01*
X70190476Y-39731846D01*
X70174570Y-39717430D01*
X70160154Y-39701524D01*
X70147366Y-39684281D01*
X70136330Y-39665868D01*
X70127151Y-39646462D01*
X70119919Y-39626250D01*
X70114703Y-39605426D01*
X70111553Y-39584191D01*
X70110500Y-39562750D01*
X70110500Y-39050250D01*
X70111553Y-39028809D01*
X70114703Y-39007574D01*
X70119919Y-38986750D01*
X70127151Y-38966538D01*
X70136330Y-38947132D01*
X70147366Y-38928719D01*
X70160154Y-38911476D01*
X70174570Y-38895570D01*
X70190476Y-38881154D01*
X70207719Y-38868366D01*
X70226132Y-38857330D01*
X70245538Y-38848151D01*
X70265750Y-38840919D01*
X70286574Y-38835703D01*
X70307809Y-38832553D01*
X70329250Y-38831500D01*
X70766750Y-38831500D01*
X70788191Y-38832553D01*
G37*
G36*
X72363191Y-37308553D02*
G01*
X72384426Y-37311703D01*
X72405250Y-37316919D01*
X72425462Y-37324151D01*
X72444868Y-37333330D01*
X72463281Y-37344366D01*
X72480524Y-37357154D01*
X72496430Y-37371570D01*
X72510846Y-37387476D01*
X72523634Y-37404719D01*
X72534670Y-37423132D01*
X72543849Y-37442538D01*
X72551081Y-37462750D01*
X72556297Y-37483574D01*
X72559447Y-37504809D01*
X72560500Y-37526250D01*
X72560500Y-38038750D01*
X72559447Y-38060191D01*
X72556297Y-38081426D01*
X72551081Y-38102250D01*
X72543849Y-38122462D01*
X72534670Y-38141868D01*
X72523634Y-38160281D01*
X72510846Y-38177524D01*
X72496430Y-38193430D01*
X72480524Y-38207846D01*
X72463281Y-38220634D01*
X72444868Y-38231670D01*
X72425462Y-38240849D01*
X72405250Y-38248081D01*
X72384426Y-38253297D01*
X72363191Y-38256447D01*
X72341750Y-38257500D01*
X71904250Y-38257500D01*
X71882809Y-38256447D01*
X71861574Y-38253297D01*
X71840750Y-38248081D01*
X71820538Y-38240849D01*
X71801132Y-38231670D01*
X71782719Y-38220634D01*
X71765476Y-38207846D01*
X71749570Y-38193430D01*
X71735154Y-38177524D01*
X71722366Y-38160281D01*
X71711330Y-38141868D01*
X71702151Y-38122462D01*
X71694919Y-38102250D01*
X71689703Y-38081426D01*
X71686553Y-38060191D01*
X71685500Y-38038750D01*
X71685500Y-37526250D01*
X71686553Y-37504809D01*
X71689703Y-37483574D01*
X71694919Y-37462750D01*
X71702151Y-37442538D01*
X71711330Y-37423132D01*
X71722366Y-37404719D01*
X71735154Y-37387476D01*
X71749570Y-37371570D01*
X71765476Y-37357154D01*
X71782719Y-37344366D01*
X71801132Y-37333330D01*
X71820538Y-37324151D01*
X71840750Y-37316919D01*
X71861574Y-37311703D01*
X71882809Y-37308553D01*
X71904250Y-37307500D01*
X72341750Y-37307500D01*
X72363191Y-37308553D01*
G37*
G36*
X70788191Y-37308553D02*
G01*
X70809426Y-37311703D01*
X70830250Y-37316919D01*
X70850462Y-37324151D01*
X70869868Y-37333330D01*
X70888281Y-37344366D01*
X70905524Y-37357154D01*
X70921430Y-37371570D01*
X70935846Y-37387476D01*
X70948634Y-37404719D01*
X70959670Y-37423132D01*
X70968849Y-37442538D01*
X70976081Y-37462750D01*
X70981297Y-37483574D01*
X70984447Y-37504809D01*
X70985500Y-37526250D01*
X70985500Y-38038750D01*
X70984447Y-38060191D01*
X70981297Y-38081426D01*
X70976081Y-38102250D01*
X70968849Y-38122462D01*
X70959670Y-38141868D01*
X70948634Y-38160281D01*
X70935846Y-38177524D01*
X70921430Y-38193430D01*
X70905524Y-38207846D01*
X70888281Y-38220634D01*
X70869868Y-38231670D01*
X70850462Y-38240849D01*
X70830250Y-38248081D01*
X70809426Y-38253297D01*
X70788191Y-38256447D01*
X70766750Y-38257500D01*
X70329250Y-38257500D01*
X70307809Y-38256447D01*
X70286574Y-38253297D01*
X70265750Y-38248081D01*
X70245538Y-38240849D01*
X70226132Y-38231670D01*
X70207719Y-38220634D01*
X70190476Y-38207846D01*
X70174570Y-38193430D01*
X70160154Y-38177524D01*
X70147366Y-38160281D01*
X70136330Y-38141868D01*
X70127151Y-38122462D01*
X70119919Y-38102250D01*
X70114703Y-38081426D01*
X70111553Y-38060191D01*
X70110500Y-38038750D01*
X70110500Y-37526250D01*
X70111553Y-37504809D01*
X70114703Y-37483574D01*
X70119919Y-37462750D01*
X70127151Y-37442538D01*
X70136330Y-37423132D01*
X70147366Y-37404719D01*
X70160154Y-37387476D01*
X70174570Y-37371570D01*
X70190476Y-37357154D01*
X70207719Y-37344366D01*
X70226132Y-37333330D01*
X70245538Y-37324151D01*
X70265750Y-37316919D01*
X70286574Y-37311703D01*
X70307809Y-37308553D01*
X70329250Y-37307500D01*
X70766750Y-37307500D01*
X70788191Y-37308553D01*
G37*
D25*
X14000000Y-6650000D03*
X12000000Y-6650000D03*
X12000000Y-1350000D03*
X10000000Y-1350000D03*
X10000000Y-6650000D03*
X16000000Y-6650000D03*
X18000000Y-6650000D03*
X20000000Y-6650000D03*
X22000000Y-6650000D03*
X24000000Y-6650000D03*
X26000000Y-6650000D03*
X28000000Y-6650000D03*
X30000000Y-6650000D03*
X32000000Y-6650000D03*
X34000000Y-6650000D03*
X36000000Y-6650000D03*
X38000000Y-6650000D03*
X40000000Y-6650000D03*
X42000000Y-6650000D03*
X44000000Y-6650000D03*
X46000000Y-6650000D03*
X48000000Y-6650000D03*
X14000000Y-1350000D03*
X16000000Y-1350000D03*
X18000000Y-1350000D03*
X20000000Y-1350000D03*
X22000000Y-1350000D03*
X24000000Y-1350000D03*
X26000000Y-1350000D03*
X28000000Y-1350000D03*
X30000000Y-1350000D03*
X32000000Y-1350000D03*
X34000000Y-1350000D03*
X36000000Y-1350000D03*
X38000000Y-1350000D03*
X40000000Y-1350000D03*
X42000000Y-1350000D03*
X44000000Y-1350000D03*
X46000000Y-1350000D03*
X48000000Y-1350000D03*
M02*
