G04 #@! TF.GenerationSoftware,KiCad,Pcbnew,5.1.5-52549c5~84~ubuntu18.04.1*
G04 #@! TF.CreationDate,2020-02-13T10:06:29-08:00*
G04 #@! TF.ProjectId,EthernetBoard,45746865-726e-4657-9442-6f6172642e6b,A*
G04 #@! TF.SameCoordinates,PX5f5e100PY5f5e100*
G04 #@! TF.FileFunction,Paste,Bot*
G04 #@! TF.FilePolarity,Positive*
%FSLAX46Y46*%
G04 Gerber Fmt 4.6, Leading zero omitted, Abs format (unit mm)*
G04 Created by KiCad (PCBNEW 5.1.5-52549c5~84~ubuntu18.04.1) date 2020-02-13 10:06:29*
%MOMM*%
%LPD*%
G04 APERTURE LIST*
%ADD10C,0.100000*%
%ADD11C,0.150000*%
%ADD12R,0.800000X1.700000*%
%ADD13R,0.500000X2.000000*%
%ADD14R,0.890000X3.000000*%
G04 APERTURE END LIST*
D10*
X0Y-54000000D02*
X84999492Y-54000000D01*
X84999492Y0D02*
X84999492Y-54000000D01*
X0Y-54000000D02*
X0Y0D01*
X0Y0D02*
X84999492Y0D01*
D11*
G36*
X30362158Y-31262810D02*
G01*
X30376476Y-31264934D01*
X30390517Y-31268451D01*
X30404146Y-31273328D01*
X30417231Y-31279517D01*
X30429647Y-31286958D01*
X30441273Y-31295581D01*
X30451998Y-31305302D01*
X30461719Y-31316027D01*
X30470342Y-31327653D01*
X30477783Y-31340069D01*
X30483972Y-31353154D01*
X30488849Y-31366783D01*
X30492366Y-31380824D01*
X30494490Y-31395142D01*
X30495200Y-31409600D01*
X30495200Y-31704600D01*
X30494490Y-31719058D01*
X30492366Y-31733376D01*
X30488849Y-31747417D01*
X30483972Y-31761046D01*
X30477783Y-31774131D01*
X30470342Y-31786547D01*
X30461719Y-31798173D01*
X30451998Y-31808898D01*
X30441273Y-31818619D01*
X30429647Y-31827242D01*
X30417231Y-31834683D01*
X30404146Y-31840872D01*
X30390517Y-31845749D01*
X30376476Y-31849266D01*
X30362158Y-31851390D01*
X30347700Y-31852100D01*
X30002700Y-31852100D01*
X29988242Y-31851390D01*
X29973924Y-31849266D01*
X29959883Y-31845749D01*
X29946254Y-31840872D01*
X29933169Y-31834683D01*
X29920753Y-31827242D01*
X29909127Y-31818619D01*
X29898402Y-31808898D01*
X29888681Y-31798173D01*
X29880058Y-31786547D01*
X29872617Y-31774131D01*
X29866428Y-31761046D01*
X29861551Y-31747417D01*
X29858034Y-31733376D01*
X29855910Y-31719058D01*
X29855200Y-31704600D01*
X29855200Y-31409600D01*
X29855910Y-31395142D01*
X29858034Y-31380824D01*
X29861551Y-31366783D01*
X29866428Y-31353154D01*
X29872617Y-31340069D01*
X29880058Y-31327653D01*
X29888681Y-31316027D01*
X29898402Y-31305302D01*
X29909127Y-31295581D01*
X29920753Y-31286958D01*
X29933169Y-31279517D01*
X29946254Y-31273328D01*
X29959883Y-31268451D01*
X29973924Y-31264934D01*
X29988242Y-31262810D01*
X30002700Y-31262100D01*
X30347700Y-31262100D01*
X30362158Y-31262810D01*
G37*
G36*
X30362158Y-32232810D02*
G01*
X30376476Y-32234934D01*
X30390517Y-32238451D01*
X30404146Y-32243328D01*
X30417231Y-32249517D01*
X30429647Y-32256958D01*
X30441273Y-32265581D01*
X30451998Y-32275302D01*
X30461719Y-32286027D01*
X30470342Y-32297653D01*
X30477783Y-32310069D01*
X30483972Y-32323154D01*
X30488849Y-32336783D01*
X30492366Y-32350824D01*
X30494490Y-32365142D01*
X30495200Y-32379600D01*
X30495200Y-32674600D01*
X30494490Y-32689058D01*
X30492366Y-32703376D01*
X30488849Y-32717417D01*
X30483972Y-32731046D01*
X30477783Y-32744131D01*
X30470342Y-32756547D01*
X30461719Y-32768173D01*
X30451998Y-32778898D01*
X30441273Y-32788619D01*
X30429647Y-32797242D01*
X30417231Y-32804683D01*
X30404146Y-32810872D01*
X30390517Y-32815749D01*
X30376476Y-32819266D01*
X30362158Y-32821390D01*
X30347700Y-32822100D01*
X30002700Y-32822100D01*
X29988242Y-32821390D01*
X29973924Y-32819266D01*
X29959883Y-32815749D01*
X29946254Y-32810872D01*
X29933169Y-32804683D01*
X29920753Y-32797242D01*
X29909127Y-32788619D01*
X29898402Y-32778898D01*
X29888681Y-32768173D01*
X29880058Y-32756547D01*
X29872617Y-32744131D01*
X29866428Y-32731046D01*
X29861551Y-32717417D01*
X29858034Y-32703376D01*
X29855910Y-32689058D01*
X29855200Y-32674600D01*
X29855200Y-32379600D01*
X29855910Y-32365142D01*
X29858034Y-32350824D01*
X29861551Y-32336783D01*
X29866428Y-32323154D01*
X29872617Y-32310069D01*
X29880058Y-32297653D01*
X29888681Y-32286027D01*
X29898402Y-32275302D01*
X29909127Y-32265581D01*
X29920753Y-32256958D01*
X29933169Y-32249517D01*
X29946254Y-32243328D01*
X29959883Y-32238451D01*
X29973924Y-32234934D01*
X29988242Y-32232810D01*
X30002700Y-32232100D01*
X30347700Y-32232100D01*
X30362158Y-32232810D01*
G37*
G36*
X31377958Y-31262810D02*
G01*
X31392276Y-31264934D01*
X31406317Y-31268451D01*
X31419946Y-31273328D01*
X31433031Y-31279517D01*
X31445447Y-31286958D01*
X31457073Y-31295581D01*
X31467798Y-31305302D01*
X31477519Y-31316027D01*
X31486142Y-31327653D01*
X31493583Y-31340069D01*
X31499772Y-31353154D01*
X31504649Y-31366783D01*
X31508166Y-31380824D01*
X31510290Y-31395142D01*
X31511000Y-31409600D01*
X31511000Y-31704600D01*
X31510290Y-31719058D01*
X31508166Y-31733376D01*
X31504649Y-31747417D01*
X31499772Y-31761046D01*
X31493583Y-31774131D01*
X31486142Y-31786547D01*
X31477519Y-31798173D01*
X31467798Y-31808898D01*
X31457073Y-31818619D01*
X31445447Y-31827242D01*
X31433031Y-31834683D01*
X31419946Y-31840872D01*
X31406317Y-31845749D01*
X31392276Y-31849266D01*
X31377958Y-31851390D01*
X31363500Y-31852100D01*
X31018500Y-31852100D01*
X31004042Y-31851390D01*
X30989724Y-31849266D01*
X30975683Y-31845749D01*
X30962054Y-31840872D01*
X30948969Y-31834683D01*
X30936553Y-31827242D01*
X30924927Y-31818619D01*
X30914202Y-31808898D01*
X30904481Y-31798173D01*
X30895858Y-31786547D01*
X30888417Y-31774131D01*
X30882228Y-31761046D01*
X30877351Y-31747417D01*
X30873834Y-31733376D01*
X30871710Y-31719058D01*
X30871000Y-31704600D01*
X30871000Y-31409600D01*
X30871710Y-31395142D01*
X30873834Y-31380824D01*
X30877351Y-31366783D01*
X30882228Y-31353154D01*
X30888417Y-31340069D01*
X30895858Y-31327653D01*
X30904481Y-31316027D01*
X30914202Y-31305302D01*
X30924927Y-31295581D01*
X30936553Y-31286958D01*
X30948969Y-31279517D01*
X30962054Y-31273328D01*
X30975683Y-31268451D01*
X30989724Y-31264934D01*
X31004042Y-31262810D01*
X31018500Y-31262100D01*
X31363500Y-31262100D01*
X31377958Y-31262810D01*
G37*
G36*
X31377958Y-32232810D02*
G01*
X31392276Y-32234934D01*
X31406317Y-32238451D01*
X31419946Y-32243328D01*
X31433031Y-32249517D01*
X31445447Y-32256958D01*
X31457073Y-32265581D01*
X31467798Y-32275302D01*
X31477519Y-32286027D01*
X31486142Y-32297653D01*
X31493583Y-32310069D01*
X31499772Y-32323154D01*
X31504649Y-32336783D01*
X31508166Y-32350824D01*
X31510290Y-32365142D01*
X31511000Y-32379600D01*
X31511000Y-32674600D01*
X31510290Y-32689058D01*
X31508166Y-32703376D01*
X31504649Y-32717417D01*
X31499772Y-32731046D01*
X31493583Y-32744131D01*
X31486142Y-32756547D01*
X31477519Y-32768173D01*
X31467798Y-32778898D01*
X31457073Y-32788619D01*
X31445447Y-32797242D01*
X31433031Y-32804683D01*
X31419946Y-32810872D01*
X31406317Y-32815749D01*
X31392276Y-32819266D01*
X31377958Y-32821390D01*
X31363500Y-32822100D01*
X31018500Y-32822100D01*
X31004042Y-32821390D01*
X30989724Y-32819266D01*
X30975683Y-32815749D01*
X30962054Y-32810872D01*
X30948969Y-32804683D01*
X30936553Y-32797242D01*
X30924927Y-32788619D01*
X30914202Y-32778898D01*
X30904481Y-32768173D01*
X30895858Y-32756547D01*
X30888417Y-32744131D01*
X30882228Y-32731046D01*
X30877351Y-32717417D01*
X30873834Y-32703376D01*
X30871710Y-32689058D01*
X30871000Y-32674600D01*
X30871000Y-32379600D01*
X30871710Y-32365142D01*
X30873834Y-32350824D01*
X30877351Y-32336783D01*
X30882228Y-32323154D01*
X30888417Y-32310069D01*
X30895858Y-32297653D01*
X30904481Y-32286027D01*
X30914202Y-32275302D01*
X30924927Y-32265581D01*
X30936553Y-32256958D01*
X30948969Y-32249517D01*
X30962054Y-32243328D01*
X30975683Y-32238451D01*
X30989724Y-32234934D01*
X31004042Y-32232810D01*
X31018500Y-32232100D01*
X31363500Y-32232100D01*
X31377958Y-32232810D01*
G37*
D12*
X34353500Y-25243000D03*
X33083500Y-25243000D03*
X31813500Y-25243000D03*
X31813500Y-27843000D03*
X33083500Y-27843000D03*
X34353500Y-27843000D03*
D11*
G36*
X15708691Y-9178053D02*
G01*
X15729926Y-9181203D01*
X15750750Y-9186419D01*
X15770962Y-9193651D01*
X15790368Y-9202830D01*
X15808781Y-9213866D01*
X15826024Y-9226654D01*
X15841930Y-9241070D01*
X15856346Y-9256976D01*
X15869134Y-9274219D01*
X15880170Y-9292632D01*
X15889349Y-9312038D01*
X15896581Y-9332250D01*
X15901797Y-9353074D01*
X15904947Y-9374309D01*
X15906000Y-9395750D01*
X15906000Y-9908250D01*
X15904947Y-9929691D01*
X15901797Y-9950926D01*
X15896581Y-9971750D01*
X15889349Y-9991962D01*
X15880170Y-10011368D01*
X15869134Y-10029781D01*
X15856346Y-10047024D01*
X15841930Y-10062930D01*
X15826024Y-10077346D01*
X15808781Y-10090134D01*
X15790368Y-10101170D01*
X15770962Y-10110349D01*
X15750750Y-10117581D01*
X15729926Y-10122797D01*
X15708691Y-10125947D01*
X15687250Y-10127000D01*
X15249750Y-10127000D01*
X15228309Y-10125947D01*
X15207074Y-10122797D01*
X15186250Y-10117581D01*
X15166038Y-10110349D01*
X15146632Y-10101170D01*
X15128219Y-10090134D01*
X15110976Y-10077346D01*
X15095070Y-10062930D01*
X15080654Y-10047024D01*
X15067866Y-10029781D01*
X15056830Y-10011368D01*
X15047651Y-9991962D01*
X15040419Y-9971750D01*
X15035203Y-9950926D01*
X15032053Y-9929691D01*
X15031000Y-9908250D01*
X15031000Y-9395750D01*
X15032053Y-9374309D01*
X15035203Y-9353074D01*
X15040419Y-9332250D01*
X15047651Y-9312038D01*
X15056830Y-9292632D01*
X15067866Y-9274219D01*
X15080654Y-9256976D01*
X15095070Y-9241070D01*
X15110976Y-9226654D01*
X15128219Y-9213866D01*
X15146632Y-9202830D01*
X15166038Y-9193651D01*
X15186250Y-9186419D01*
X15207074Y-9181203D01*
X15228309Y-9178053D01*
X15249750Y-9177000D01*
X15687250Y-9177000D01*
X15708691Y-9178053D01*
G37*
G36*
X17283691Y-9178053D02*
G01*
X17304926Y-9181203D01*
X17325750Y-9186419D01*
X17345962Y-9193651D01*
X17365368Y-9202830D01*
X17383781Y-9213866D01*
X17401024Y-9226654D01*
X17416930Y-9241070D01*
X17431346Y-9256976D01*
X17444134Y-9274219D01*
X17455170Y-9292632D01*
X17464349Y-9312038D01*
X17471581Y-9332250D01*
X17476797Y-9353074D01*
X17479947Y-9374309D01*
X17481000Y-9395750D01*
X17481000Y-9908250D01*
X17479947Y-9929691D01*
X17476797Y-9950926D01*
X17471581Y-9971750D01*
X17464349Y-9991962D01*
X17455170Y-10011368D01*
X17444134Y-10029781D01*
X17431346Y-10047024D01*
X17416930Y-10062930D01*
X17401024Y-10077346D01*
X17383781Y-10090134D01*
X17365368Y-10101170D01*
X17345962Y-10110349D01*
X17325750Y-10117581D01*
X17304926Y-10122797D01*
X17283691Y-10125947D01*
X17262250Y-10127000D01*
X16824750Y-10127000D01*
X16803309Y-10125947D01*
X16782074Y-10122797D01*
X16761250Y-10117581D01*
X16741038Y-10110349D01*
X16721632Y-10101170D01*
X16703219Y-10090134D01*
X16685976Y-10077346D01*
X16670070Y-10062930D01*
X16655654Y-10047024D01*
X16642866Y-10029781D01*
X16631830Y-10011368D01*
X16622651Y-9991962D01*
X16615419Y-9971750D01*
X16610203Y-9950926D01*
X16607053Y-9929691D01*
X16606000Y-9908250D01*
X16606000Y-9395750D01*
X16607053Y-9374309D01*
X16610203Y-9353074D01*
X16615419Y-9332250D01*
X16622651Y-9312038D01*
X16631830Y-9292632D01*
X16642866Y-9274219D01*
X16655654Y-9256976D01*
X16670070Y-9241070D01*
X16685976Y-9226654D01*
X16703219Y-9213866D01*
X16721632Y-9202830D01*
X16741038Y-9193651D01*
X16761250Y-9186419D01*
X16782074Y-9181203D01*
X16803309Y-9178053D01*
X16824750Y-9177000D01*
X17262250Y-9177000D01*
X17283691Y-9178053D01*
G37*
G36*
X15708691Y-10702053D02*
G01*
X15729926Y-10705203D01*
X15750750Y-10710419D01*
X15770962Y-10717651D01*
X15790368Y-10726830D01*
X15808781Y-10737866D01*
X15826024Y-10750654D01*
X15841930Y-10765070D01*
X15856346Y-10780976D01*
X15869134Y-10798219D01*
X15880170Y-10816632D01*
X15889349Y-10836038D01*
X15896581Y-10856250D01*
X15901797Y-10877074D01*
X15904947Y-10898309D01*
X15906000Y-10919750D01*
X15906000Y-11432250D01*
X15904947Y-11453691D01*
X15901797Y-11474926D01*
X15896581Y-11495750D01*
X15889349Y-11515962D01*
X15880170Y-11535368D01*
X15869134Y-11553781D01*
X15856346Y-11571024D01*
X15841930Y-11586930D01*
X15826024Y-11601346D01*
X15808781Y-11614134D01*
X15790368Y-11625170D01*
X15770962Y-11634349D01*
X15750750Y-11641581D01*
X15729926Y-11646797D01*
X15708691Y-11649947D01*
X15687250Y-11651000D01*
X15249750Y-11651000D01*
X15228309Y-11649947D01*
X15207074Y-11646797D01*
X15186250Y-11641581D01*
X15166038Y-11634349D01*
X15146632Y-11625170D01*
X15128219Y-11614134D01*
X15110976Y-11601346D01*
X15095070Y-11586930D01*
X15080654Y-11571024D01*
X15067866Y-11553781D01*
X15056830Y-11535368D01*
X15047651Y-11515962D01*
X15040419Y-11495750D01*
X15035203Y-11474926D01*
X15032053Y-11453691D01*
X15031000Y-11432250D01*
X15031000Y-10919750D01*
X15032053Y-10898309D01*
X15035203Y-10877074D01*
X15040419Y-10856250D01*
X15047651Y-10836038D01*
X15056830Y-10816632D01*
X15067866Y-10798219D01*
X15080654Y-10780976D01*
X15095070Y-10765070D01*
X15110976Y-10750654D01*
X15128219Y-10737866D01*
X15146632Y-10726830D01*
X15166038Y-10717651D01*
X15186250Y-10710419D01*
X15207074Y-10705203D01*
X15228309Y-10702053D01*
X15249750Y-10701000D01*
X15687250Y-10701000D01*
X15708691Y-10702053D01*
G37*
G36*
X17283691Y-10702053D02*
G01*
X17304926Y-10705203D01*
X17325750Y-10710419D01*
X17345962Y-10717651D01*
X17365368Y-10726830D01*
X17383781Y-10737866D01*
X17401024Y-10750654D01*
X17416930Y-10765070D01*
X17431346Y-10780976D01*
X17444134Y-10798219D01*
X17455170Y-10816632D01*
X17464349Y-10836038D01*
X17471581Y-10856250D01*
X17476797Y-10877074D01*
X17479947Y-10898309D01*
X17481000Y-10919750D01*
X17481000Y-11432250D01*
X17479947Y-11453691D01*
X17476797Y-11474926D01*
X17471581Y-11495750D01*
X17464349Y-11515962D01*
X17455170Y-11535368D01*
X17444134Y-11553781D01*
X17431346Y-11571024D01*
X17416930Y-11586930D01*
X17401024Y-11601346D01*
X17383781Y-11614134D01*
X17365368Y-11625170D01*
X17345962Y-11634349D01*
X17325750Y-11641581D01*
X17304926Y-11646797D01*
X17283691Y-11649947D01*
X17262250Y-11651000D01*
X16824750Y-11651000D01*
X16803309Y-11649947D01*
X16782074Y-11646797D01*
X16761250Y-11641581D01*
X16741038Y-11634349D01*
X16721632Y-11625170D01*
X16703219Y-11614134D01*
X16685976Y-11601346D01*
X16670070Y-11586930D01*
X16655654Y-11571024D01*
X16642866Y-11553781D01*
X16631830Y-11535368D01*
X16622651Y-11515962D01*
X16615419Y-11495750D01*
X16610203Y-11474926D01*
X16607053Y-11453691D01*
X16606000Y-11432250D01*
X16606000Y-10919750D01*
X16607053Y-10898309D01*
X16610203Y-10877074D01*
X16615419Y-10856250D01*
X16622651Y-10836038D01*
X16631830Y-10816632D01*
X16642866Y-10798219D01*
X16655654Y-10780976D01*
X16670070Y-10765070D01*
X16685976Y-10750654D01*
X16703219Y-10737866D01*
X16721632Y-10726830D01*
X16741038Y-10717651D01*
X16761250Y-10710419D01*
X16782074Y-10705203D01*
X16803309Y-10702053D01*
X16824750Y-10701000D01*
X17262250Y-10701000D01*
X17283691Y-10702053D01*
G37*
G36*
X17283691Y-12226053D02*
G01*
X17304926Y-12229203D01*
X17325750Y-12234419D01*
X17345962Y-12241651D01*
X17365368Y-12250830D01*
X17383781Y-12261866D01*
X17401024Y-12274654D01*
X17416930Y-12289070D01*
X17431346Y-12304976D01*
X17444134Y-12322219D01*
X17455170Y-12340632D01*
X17464349Y-12360038D01*
X17471581Y-12380250D01*
X17476797Y-12401074D01*
X17479947Y-12422309D01*
X17481000Y-12443750D01*
X17481000Y-12956250D01*
X17479947Y-12977691D01*
X17476797Y-12998926D01*
X17471581Y-13019750D01*
X17464349Y-13039962D01*
X17455170Y-13059368D01*
X17444134Y-13077781D01*
X17431346Y-13095024D01*
X17416930Y-13110930D01*
X17401024Y-13125346D01*
X17383781Y-13138134D01*
X17365368Y-13149170D01*
X17345962Y-13158349D01*
X17325750Y-13165581D01*
X17304926Y-13170797D01*
X17283691Y-13173947D01*
X17262250Y-13175000D01*
X16824750Y-13175000D01*
X16803309Y-13173947D01*
X16782074Y-13170797D01*
X16761250Y-13165581D01*
X16741038Y-13158349D01*
X16721632Y-13149170D01*
X16703219Y-13138134D01*
X16685976Y-13125346D01*
X16670070Y-13110930D01*
X16655654Y-13095024D01*
X16642866Y-13077781D01*
X16631830Y-13059368D01*
X16622651Y-13039962D01*
X16615419Y-13019750D01*
X16610203Y-12998926D01*
X16607053Y-12977691D01*
X16606000Y-12956250D01*
X16606000Y-12443750D01*
X16607053Y-12422309D01*
X16610203Y-12401074D01*
X16615419Y-12380250D01*
X16622651Y-12360038D01*
X16631830Y-12340632D01*
X16642866Y-12322219D01*
X16655654Y-12304976D01*
X16670070Y-12289070D01*
X16685976Y-12274654D01*
X16703219Y-12261866D01*
X16721632Y-12250830D01*
X16741038Y-12241651D01*
X16761250Y-12234419D01*
X16782074Y-12229203D01*
X16803309Y-12226053D01*
X16824750Y-12225000D01*
X17262250Y-12225000D01*
X17283691Y-12226053D01*
G37*
G36*
X15708691Y-12226053D02*
G01*
X15729926Y-12229203D01*
X15750750Y-12234419D01*
X15770962Y-12241651D01*
X15790368Y-12250830D01*
X15808781Y-12261866D01*
X15826024Y-12274654D01*
X15841930Y-12289070D01*
X15856346Y-12304976D01*
X15869134Y-12322219D01*
X15880170Y-12340632D01*
X15889349Y-12360038D01*
X15896581Y-12380250D01*
X15901797Y-12401074D01*
X15904947Y-12422309D01*
X15906000Y-12443750D01*
X15906000Y-12956250D01*
X15904947Y-12977691D01*
X15901797Y-12998926D01*
X15896581Y-13019750D01*
X15889349Y-13039962D01*
X15880170Y-13059368D01*
X15869134Y-13077781D01*
X15856346Y-13095024D01*
X15841930Y-13110930D01*
X15826024Y-13125346D01*
X15808781Y-13138134D01*
X15790368Y-13149170D01*
X15770962Y-13158349D01*
X15750750Y-13165581D01*
X15729926Y-13170797D01*
X15708691Y-13173947D01*
X15687250Y-13175000D01*
X15249750Y-13175000D01*
X15228309Y-13173947D01*
X15207074Y-13170797D01*
X15186250Y-13165581D01*
X15166038Y-13158349D01*
X15146632Y-13149170D01*
X15128219Y-13138134D01*
X15110976Y-13125346D01*
X15095070Y-13110930D01*
X15080654Y-13095024D01*
X15067866Y-13077781D01*
X15056830Y-13059368D01*
X15047651Y-13039962D01*
X15040419Y-13019750D01*
X15035203Y-12998926D01*
X15032053Y-12977691D01*
X15031000Y-12956250D01*
X15031000Y-12443750D01*
X15032053Y-12422309D01*
X15035203Y-12401074D01*
X15040419Y-12380250D01*
X15047651Y-12360038D01*
X15056830Y-12340632D01*
X15067866Y-12322219D01*
X15080654Y-12304976D01*
X15095070Y-12289070D01*
X15110976Y-12274654D01*
X15128219Y-12261866D01*
X15146632Y-12250830D01*
X15166038Y-12241651D01*
X15186250Y-12234419D01*
X15207074Y-12229203D01*
X15228309Y-12226053D01*
X15249750Y-12225000D01*
X15687250Y-12225000D01*
X15708691Y-12226053D01*
G37*
G36*
X20331691Y-9178053D02*
G01*
X20352926Y-9181203D01*
X20373750Y-9186419D01*
X20393962Y-9193651D01*
X20413368Y-9202830D01*
X20431781Y-9213866D01*
X20449024Y-9226654D01*
X20464930Y-9241070D01*
X20479346Y-9256976D01*
X20492134Y-9274219D01*
X20503170Y-9292632D01*
X20512349Y-9312038D01*
X20519581Y-9332250D01*
X20524797Y-9353074D01*
X20527947Y-9374309D01*
X20529000Y-9395750D01*
X20529000Y-9908250D01*
X20527947Y-9929691D01*
X20524797Y-9950926D01*
X20519581Y-9971750D01*
X20512349Y-9991962D01*
X20503170Y-10011368D01*
X20492134Y-10029781D01*
X20479346Y-10047024D01*
X20464930Y-10062930D01*
X20449024Y-10077346D01*
X20431781Y-10090134D01*
X20413368Y-10101170D01*
X20393962Y-10110349D01*
X20373750Y-10117581D01*
X20352926Y-10122797D01*
X20331691Y-10125947D01*
X20310250Y-10127000D01*
X19872750Y-10127000D01*
X19851309Y-10125947D01*
X19830074Y-10122797D01*
X19809250Y-10117581D01*
X19789038Y-10110349D01*
X19769632Y-10101170D01*
X19751219Y-10090134D01*
X19733976Y-10077346D01*
X19718070Y-10062930D01*
X19703654Y-10047024D01*
X19690866Y-10029781D01*
X19679830Y-10011368D01*
X19670651Y-9991962D01*
X19663419Y-9971750D01*
X19658203Y-9950926D01*
X19655053Y-9929691D01*
X19654000Y-9908250D01*
X19654000Y-9395750D01*
X19655053Y-9374309D01*
X19658203Y-9353074D01*
X19663419Y-9332250D01*
X19670651Y-9312038D01*
X19679830Y-9292632D01*
X19690866Y-9274219D01*
X19703654Y-9256976D01*
X19718070Y-9241070D01*
X19733976Y-9226654D01*
X19751219Y-9213866D01*
X19769632Y-9202830D01*
X19789038Y-9193651D01*
X19809250Y-9186419D01*
X19830074Y-9181203D01*
X19851309Y-9178053D01*
X19872750Y-9177000D01*
X20310250Y-9177000D01*
X20331691Y-9178053D01*
G37*
G36*
X18756691Y-9178053D02*
G01*
X18777926Y-9181203D01*
X18798750Y-9186419D01*
X18818962Y-9193651D01*
X18838368Y-9202830D01*
X18856781Y-9213866D01*
X18874024Y-9226654D01*
X18889930Y-9241070D01*
X18904346Y-9256976D01*
X18917134Y-9274219D01*
X18928170Y-9292632D01*
X18937349Y-9312038D01*
X18944581Y-9332250D01*
X18949797Y-9353074D01*
X18952947Y-9374309D01*
X18954000Y-9395750D01*
X18954000Y-9908250D01*
X18952947Y-9929691D01*
X18949797Y-9950926D01*
X18944581Y-9971750D01*
X18937349Y-9991962D01*
X18928170Y-10011368D01*
X18917134Y-10029781D01*
X18904346Y-10047024D01*
X18889930Y-10062930D01*
X18874024Y-10077346D01*
X18856781Y-10090134D01*
X18838368Y-10101170D01*
X18818962Y-10110349D01*
X18798750Y-10117581D01*
X18777926Y-10122797D01*
X18756691Y-10125947D01*
X18735250Y-10127000D01*
X18297750Y-10127000D01*
X18276309Y-10125947D01*
X18255074Y-10122797D01*
X18234250Y-10117581D01*
X18214038Y-10110349D01*
X18194632Y-10101170D01*
X18176219Y-10090134D01*
X18158976Y-10077346D01*
X18143070Y-10062930D01*
X18128654Y-10047024D01*
X18115866Y-10029781D01*
X18104830Y-10011368D01*
X18095651Y-9991962D01*
X18088419Y-9971750D01*
X18083203Y-9950926D01*
X18080053Y-9929691D01*
X18079000Y-9908250D01*
X18079000Y-9395750D01*
X18080053Y-9374309D01*
X18083203Y-9353074D01*
X18088419Y-9332250D01*
X18095651Y-9312038D01*
X18104830Y-9292632D01*
X18115866Y-9274219D01*
X18128654Y-9256976D01*
X18143070Y-9241070D01*
X18158976Y-9226654D01*
X18176219Y-9213866D01*
X18194632Y-9202830D01*
X18214038Y-9193651D01*
X18234250Y-9186419D01*
X18255074Y-9181203D01*
X18276309Y-9178053D01*
X18297750Y-9177000D01*
X18735250Y-9177000D01*
X18756691Y-9178053D01*
G37*
G36*
X20331691Y-10702053D02*
G01*
X20352926Y-10705203D01*
X20373750Y-10710419D01*
X20393962Y-10717651D01*
X20413368Y-10726830D01*
X20431781Y-10737866D01*
X20449024Y-10750654D01*
X20464930Y-10765070D01*
X20479346Y-10780976D01*
X20492134Y-10798219D01*
X20503170Y-10816632D01*
X20512349Y-10836038D01*
X20519581Y-10856250D01*
X20524797Y-10877074D01*
X20527947Y-10898309D01*
X20529000Y-10919750D01*
X20529000Y-11432250D01*
X20527947Y-11453691D01*
X20524797Y-11474926D01*
X20519581Y-11495750D01*
X20512349Y-11515962D01*
X20503170Y-11535368D01*
X20492134Y-11553781D01*
X20479346Y-11571024D01*
X20464930Y-11586930D01*
X20449024Y-11601346D01*
X20431781Y-11614134D01*
X20413368Y-11625170D01*
X20393962Y-11634349D01*
X20373750Y-11641581D01*
X20352926Y-11646797D01*
X20331691Y-11649947D01*
X20310250Y-11651000D01*
X19872750Y-11651000D01*
X19851309Y-11649947D01*
X19830074Y-11646797D01*
X19809250Y-11641581D01*
X19789038Y-11634349D01*
X19769632Y-11625170D01*
X19751219Y-11614134D01*
X19733976Y-11601346D01*
X19718070Y-11586930D01*
X19703654Y-11571024D01*
X19690866Y-11553781D01*
X19679830Y-11535368D01*
X19670651Y-11515962D01*
X19663419Y-11495750D01*
X19658203Y-11474926D01*
X19655053Y-11453691D01*
X19654000Y-11432250D01*
X19654000Y-10919750D01*
X19655053Y-10898309D01*
X19658203Y-10877074D01*
X19663419Y-10856250D01*
X19670651Y-10836038D01*
X19679830Y-10816632D01*
X19690866Y-10798219D01*
X19703654Y-10780976D01*
X19718070Y-10765070D01*
X19733976Y-10750654D01*
X19751219Y-10737866D01*
X19769632Y-10726830D01*
X19789038Y-10717651D01*
X19809250Y-10710419D01*
X19830074Y-10705203D01*
X19851309Y-10702053D01*
X19872750Y-10701000D01*
X20310250Y-10701000D01*
X20331691Y-10702053D01*
G37*
G36*
X18756691Y-10702053D02*
G01*
X18777926Y-10705203D01*
X18798750Y-10710419D01*
X18818962Y-10717651D01*
X18838368Y-10726830D01*
X18856781Y-10737866D01*
X18874024Y-10750654D01*
X18889930Y-10765070D01*
X18904346Y-10780976D01*
X18917134Y-10798219D01*
X18928170Y-10816632D01*
X18937349Y-10836038D01*
X18944581Y-10856250D01*
X18949797Y-10877074D01*
X18952947Y-10898309D01*
X18954000Y-10919750D01*
X18954000Y-11432250D01*
X18952947Y-11453691D01*
X18949797Y-11474926D01*
X18944581Y-11495750D01*
X18937349Y-11515962D01*
X18928170Y-11535368D01*
X18917134Y-11553781D01*
X18904346Y-11571024D01*
X18889930Y-11586930D01*
X18874024Y-11601346D01*
X18856781Y-11614134D01*
X18838368Y-11625170D01*
X18818962Y-11634349D01*
X18798750Y-11641581D01*
X18777926Y-11646797D01*
X18756691Y-11649947D01*
X18735250Y-11651000D01*
X18297750Y-11651000D01*
X18276309Y-11649947D01*
X18255074Y-11646797D01*
X18234250Y-11641581D01*
X18214038Y-11634349D01*
X18194632Y-11625170D01*
X18176219Y-11614134D01*
X18158976Y-11601346D01*
X18143070Y-11586930D01*
X18128654Y-11571024D01*
X18115866Y-11553781D01*
X18104830Y-11535368D01*
X18095651Y-11515962D01*
X18088419Y-11495750D01*
X18083203Y-11474926D01*
X18080053Y-11453691D01*
X18079000Y-11432250D01*
X18079000Y-10919750D01*
X18080053Y-10898309D01*
X18083203Y-10877074D01*
X18088419Y-10856250D01*
X18095651Y-10836038D01*
X18104830Y-10816632D01*
X18115866Y-10798219D01*
X18128654Y-10780976D01*
X18143070Y-10765070D01*
X18158976Y-10750654D01*
X18176219Y-10737866D01*
X18194632Y-10726830D01*
X18214038Y-10717651D01*
X18234250Y-10710419D01*
X18255074Y-10705203D01*
X18276309Y-10702053D01*
X18297750Y-10701000D01*
X18735250Y-10701000D01*
X18756691Y-10702053D01*
G37*
G36*
X48779691Y-32546053D02*
G01*
X48800926Y-32549203D01*
X48821750Y-32554419D01*
X48841962Y-32561651D01*
X48861368Y-32570830D01*
X48879781Y-32581866D01*
X48897024Y-32594654D01*
X48912930Y-32609070D01*
X48927346Y-32624976D01*
X48940134Y-32642219D01*
X48951170Y-32660632D01*
X48960349Y-32680038D01*
X48967581Y-32700250D01*
X48972797Y-32721074D01*
X48975947Y-32742309D01*
X48977000Y-32763750D01*
X48977000Y-33276250D01*
X48975947Y-33297691D01*
X48972797Y-33318926D01*
X48967581Y-33339750D01*
X48960349Y-33359962D01*
X48951170Y-33379368D01*
X48940134Y-33397781D01*
X48927346Y-33415024D01*
X48912930Y-33430930D01*
X48897024Y-33445346D01*
X48879781Y-33458134D01*
X48861368Y-33469170D01*
X48841962Y-33478349D01*
X48821750Y-33485581D01*
X48800926Y-33490797D01*
X48779691Y-33493947D01*
X48758250Y-33495000D01*
X48320750Y-33495000D01*
X48299309Y-33493947D01*
X48278074Y-33490797D01*
X48257250Y-33485581D01*
X48237038Y-33478349D01*
X48217632Y-33469170D01*
X48199219Y-33458134D01*
X48181976Y-33445346D01*
X48166070Y-33430930D01*
X48151654Y-33415024D01*
X48138866Y-33397781D01*
X48127830Y-33379368D01*
X48118651Y-33359962D01*
X48111419Y-33339750D01*
X48106203Y-33318926D01*
X48103053Y-33297691D01*
X48102000Y-33276250D01*
X48102000Y-32763750D01*
X48103053Y-32742309D01*
X48106203Y-32721074D01*
X48111419Y-32700250D01*
X48118651Y-32680038D01*
X48127830Y-32660632D01*
X48138866Y-32642219D01*
X48151654Y-32624976D01*
X48166070Y-32609070D01*
X48181976Y-32594654D01*
X48199219Y-32581866D01*
X48217632Y-32570830D01*
X48237038Y-32561651D01*
X48257250Y-32554419D01*
X48278074Y-32549203D01*
X48299309Y-32546053D01*
X48320750Y-32545000D01*
X48758250Y-32545000D01*
X48779691Y-32546053D01*
G37*
G36*
X47204691Y-32546053D02*
G01*
X47225926Y-32549203D01*
X47246750Y-32554419D01*
X47266962Y-32561651D01*
X47286368Y-32570830D01*
X47304781Y-32581866D01*
X47322024Y-32594654D01*
X47337930Y-32609070D01*
X47352346Y-32624976D01*
X47365134Y-32642219D01*
X47376170Y-32660632D01*
X47385349Y-32680038D01*
X47392581Y-32700250D01*
X47397797Y-32721074D01*
X47400947Y-32742309D01*
X47402000Y-32763750D01*
X47402000Y-33276250D01*
X47400947Y-33297691D01*
X47397797Y-33318926D01*
X47392581Y-33339750D01*
X47385349Y-33359962D01*
X47376170Y-33379368D01*
X47365134Y-33397781D01*
X47352346Y-33415024D01*
X47337930Y-33430930D01*
X47322024Y-33445346D01*
X47304781Y-33458134D01*
X47286368Y-33469170D01*
X47266962Y-33478349D01*
X47246750Y-33485581D01*
X47225926Y-33490797D01*
X47204691Y-33493947D01*
X47183250Y-33495000D01*
X46745750Y-33495000D01*
X46724309Y-33493947D01*
X46703074Y-33490797D01*
X46682250Y-33485581D01*
X46662038Y-33478349D01*
X46642632Y-33469170D01*
X46624219Y-33458134D01*
X46606976Y-33445346D01*
X46591070Y-33430930D01*
X46576654Y-33415024D01*
X46563866Y-33397781D01*
X46552830Y-33379368D01*
X46543651Y-33359962D01*
X46536419Y-33339750D01*
X46531203Y-33318926D01*
X46528053Y-33297691D01*
X46527000Y-33276250D01*
X46527000Y-32763750D01*
X46528053Y-32742309D01*
X46531203Y-32721074D01*
X46536419Y-32700250D01*
X46543651Y-32680038D01*
X46552830Y-32660632D01*
X46563866Y-32642219D01*
X46576654Y-32624976D01*
X46591070Y-32609070D01*
X46606976Y-32594654D01*
X46624219Y-32581866D01*
X46642632Y-32570830D01*
X46662038Y-32561651D01*
X46682250Y-32554419D01*
X46703074Y-32549203D01*
X46724309Y-32546053D01*
X46745750Y-32545000D01*
X47183250Y-32545000D01*
X47204691Y-32546053D01*
G37*
G36*
X48779691Y-31022053D02*
G01*
X48800926Y-31025203D01*
X48821750Y-31030419D01*
X48841962Y-31037651D01*
X48861368Y-31046830D01*
X48879781Y-31057866D01*
X48897024Y-31070654D01*
X48912930Y-31085070D01*
X48927346Y-31100976D01*
X48940134Y-31118219D01*
X48951170Y-31136632D01*
X48960349Y-31156038D01*
X48967581Y-31176250D01*
X48972797Y-31197074D01*
X48975947Y-31218309D01*
X48977000Y-31239750D01*
X48977000Y-31752250D01*
X48975947Y-31773691D01*
X48972797Y-31794926D01*
X48967581Y-31815750D01*
X48960349Y-31835962D01*
X48951170Y-31855368D01*
X48940134Y-31873781D01*
X48927346Y-31891024D01*
X48912930Y-31906930D01*
X48897024Y-31921346D01*
X48879781Y-31934134D01*
X48861368Y-31945170D01*
X48841962Y-31954349D01*
X48821750Y-31961581D01*
X48800926Y-31966797D01*
X48779691Y-31969947D01*
X48758250Y-31971000D01*
X48320750Y-31971000D01*
X48299309Y-31969947D01*
X48278074Y-31966797D01*
X48257250Y-31961581D01*
X48237038Y-31954349D01*
X48217632Y-31945170D01*
X48199219Y-31934134D01*
X48181976Y-31921346D01*
X48166070Y-31906930D01*
X48151654Y-31891024D01*
X48138866Y-31873781D01*
X48127830Y-31855368D01*
X48118651Y-31835962D01*
X48111419Y-31815750D01*
X48106203Y-31794926D01*
X48103053Y-31773691D01*
X48102000Y-31752250D01*
X48102000Y-31239750D01*
X48103053Y-31218309D01*
X48106203Y-31197074D01*
X48111419Y-31176250D01*
X48118651Y-31156038D01*
X48127830Y-31136632D01*
X48138866Y-31118219D01*
X48151654Y-31100976D01*
X48166070Y-31085070D01*
X48181976Y-31070654D01*
X48199219Y-31057866D01*
X48217632Y-31046830D01*
X48237038Y-31037651D01*
X48257250Y-31030419D01*
X48278074Y-31025203D01*
X48299309Y-31022053D01*
X48320750Y-31021000D01*
X48758250Y-31021000D01*
X48779691Y-31022053D01*
G37*
G36*
X47204691Y-31022053D02*
G01*
X47225926Y-31025203D01*
X47246750Y-31030419D01*
X47266962Y-31037651D01*
X47286368Y-31046830D01*
X47304781Y-31057866D01*
X47322024Y-31070654D01*
X47337930Y-31085070D01*
X47352346Y-31100976D01*
X47365134Y-31118219D01*
X47376170Y-31136632D01*
X47385349Y-31156038D01*
X47392581Y-31176250D01*
X47397797Y-31197074D01*
X47400947Y-31218309D01*
X47402000Y-31239750D01*
X47402000Y-31752250D01*
X47400947Y-31773691D01*
X47397797Y-31794926D01*
X47392581Y-31815750D01*
X47385349Y-31835962D01*
X47376170Y-31855368D01*
X47365134Y-31873781D01*
X47352346Y-31891024D01*
X47337930Y-31906930D01*
X47322024Y-31921346D01*
X47304781Y-31934134D01*
X47286368Y-31945170D01*
X47266962Y-31954349D01*
X47246750Y-31961581D01*
X47225926Y-31966797D01*
X47204691Y-31969947D01*
X47183250Y-31971000D01*
X46745750Y-31971000D01*
X46724309Y-31969947D01*
X46703074Y-31966797D01*
X46682250Y-31961581D01*
X46662038Y-31954349D01*
X46642632Y-31945170D01*
X46624219Y-31934134D01*
X46606976Y-31921346D01*
X46591070Y-31906930D01*
X46576654Y-31891024D01*
X46563866Y-31873781D01*
X46552830Y-31855368D01*
X46543651Y-31835962D01*
X46536419Y-31815750D01*
X46531203Y-31794926D01*
X46528053Y-31773691D01*
X46527000Y-31752250D01*
X46527000Y-31239750D01*
X46528053Y-31218309D01*
X46531203Y-31197074D01*
X46536419Y-31176250D01*
X46543651Y-31156038D01*
X46552830Y-31136632D01*
X46563866Y-31118219D01*
X46576654Y-31100976D01*
X46591070Y-31085070D01*
X46606976Y-31070654D01*
X46624219Y-31057866D01*
X46642632Y-31046830D01*
X46662038Y-31037651D01*
X46682250Y-31030419D01*
X46703074Y-31025203D01*
X46724309Y-31022053D01*
X46745750Y-31021000D01*
X47183250Y-31021000D01*
X47204691Y-31022053D01*
G37*
G36*
X47204691Y-29498053D02*
G01*
X47225926Y-29501203D01*
X47246750Y-29506419D01*
X47266962Y-29513651D01*
X47286368Y-29522830D01*
X47304781Y-29533866D01*
X47322024Y-29546654D01*
X47337930Y-29561070D01*
X47352346Y-29576976D01*
X47365134Y-29594219D01*
X47376170Y-29612632D01*
X47385349Y-29632038D01*
X47392581Y-29652250D01*
X47397797Y-29673074D01*
X47400947Y-29694309D01*
X47402000Y-29715750D01*
X47402000Y-30228250D01*
X47400947Y-30249691D01*
X47397797Y-30270926D01*
X47392581Y-30291750D01*
X47385349Y-30311962D01*
X47376170Y-30331368D01*
X47365134Y-30349781D01*
X47352346Y-30367024D01*
X47337930Y-30382930D01*
X47322024Y-30397346D01*
X47304781Y-30410134D01*
X47286368Y-30421170D01*
X47266962Y-30430349D01*
X47246750Y-30437581D01*
X47225926Y-30442797D01*
X47204691Y-30445947D01*
X47183250Y-30447000D01*
X46745750Y-30447000D01*
X46724309Y-30445947D01*
X46703074Y-30442797D01*
X46682250Y-30437581D01*
X46662038Y-30430349D01*
X46642632Y-30421170D01*
X46624219Y-30410134D01*
X46606976Y-30397346D01*
X46591070Y-30382930D01*
X46576654Y-30367024D01*
X46563866Y-30349781D01*
X46552830Y-30331368D01*
X46543651Y-30311962D01*
X46536419Y-30291750D01*
X46531203Y-30270926D01*
X46528053Y-30249691D01*
X46527000Y-30228250D01*
X46527000Y-29715750D01*
X46528053Y-29694309D01*
X46531203Y-29673074D01*
X46536419Y-29652250D01*
X46543651Y-29632038D01*
X46552830Y-29612632D01*
X46563866Y-29594219D01*
X46576654Y-29576976D01*
X46591070Y-29561070D01*
X46606976Y-29546654D01*
X46624219Y-29533866D01*
X46642632Y-29522830D01*
X46662038Y-29513651D01*
X46682250Y-29506419D01*
X46703074Y-29501203D01*
X46724309Y-29498053D01*
X46745750Y-29497000D01*
X47183250Y-29497000D01*
X47204691Y-29498053D01*
G37*
G36*
X48779691Y-29498053D02*
G01*
X48800926Y-29501203D01*
X48821750Y-29506419D01*
X48841962Y-29513651D01*
X48861368Y-29522830D01*
X48879781Y-29533866D01*
X48897024Y-29546654D01*
X48912930Y-29561070D01*
X48927346Y-29576976D01*
X48940134Y-29594219D01*
X48951170Y-29612632D01*
X48960349Y-29632038D01*
X48967581Y-29652250D01*
X48972797Y-29673074D01*
X48975947Y-29694309D01*
X48977000Y-29715750D01*
X48977000Y-30228250D01*
X48975947Y-30249691D01*
X48972797Y-30270926D01*
X48967581Y-30291750D01*
X48960349Y-30311962D01*
X48951170Y-30331368D01*
X48940134Y-30349781D01*
X48927346Y-30367024D01*
X48912930Y-30382930D01*
X48897024Y-30397346D01*
X48879781Y-30410134D01*
X48861368Y-30421170D01*
X48841962Y-30430349D01*
X48821750Y-30437581D01*
X48800926Y-30442797D01*
X48779691Y-30445947D01*
X48758250Y-30447000D01*
X48320750Y-30447000D01*
X48299309Y-30445947D01*
X48278074Y-30442797D01*
X48257250Y-30437581D01*
X48237038Y-30430349D01*
X48217632Y-30421170D01*
X48199219Y-30410134D01*
X48181976Y-30397346D01*
X48166070Y-30382930D01*
X48151654Y-30367024D01*
X48138866Y-30349781D01*
X48127830Y-30331368D01*
X48118651Y-30311962D01*
X48111419Y-30291750D01*
X48106203Y-30270926D01*
X48103053Y-30249691D01*
X48102000Y-30228250D01*
X48102000Y-29715750D01*
X48103053Y-29694309D01*
X48106203Y-29673074D01*
X48111419Y-29652250D01*
X48118651Y-29632038D01*
X48127830Y-29612632D01*
X48138866Y-29594219D01*
X48151654Y-29576976D01*
X48166070Y-29561070D01*
X48181976Y-29546654D01*
X48199219Y-29533866D01*
X48217632Y-29522830D01*
X48237038Y-29513651D01*
X48257250Y-29506419D01*
X48278074Y-29501203D01*
X48299309Y-29498053D01*
X48320750Y-29497000D01*
X48758250Y-29497000D01*
X48779691Y-29498053D01*
G37*
G36*
X44131191Y-32546053D02*
G01*
X44152426Y-32549203D01*
X44173250Y-32554419D01*
X44193462Y-32561651D01*
X44212868Y-32570830D01*
X44231281Y-32581866D01*
X44248524Y-32594654D01*
X44264430Y-32609070D01*
X44278846Y-32624976D01*
X44291634Y-32642219D01*
X44302670Y-32660632D01*
X44311849Y-32680038D01*
X44319081Y-32700250D01*
X44324297Y-32721074D01*
X44327447Y-32742309D01*
X44328500Y-32763750D01*
X44328500Y-33276250D01*
X44327447Y-33297691D01*
X44324297Y-33318926D01*
X44319081Y-33339750D01*
X44311849Y-33359962D01*
X44302670Y-33379368D01*
X44291634Y-33397781D01*
X44278846Y-33415024D01*
X44264430Y-33430930D01*
X44248524Y-33445346D01*
X44231281Y-33458134D01*
X44212868Y-33469170D01*
X44193462Y-33478349D01*
X44173250Y-33485581D01*
X44152426Y-33490797D01*
X44131191Y-33493947D01*
X44109750Y-33495000D01*
X43672250Y-33495000D01*
X43650809Y-33493947D01*
X43629574Y-33490797D01*
X43608750Y-33485581D01*
X43588538Y-33478349D01*
X43569132Y-33469170D01*
X43550719Y-33458134D01*
X43533476Y-33445346D01*
X43517570Y-33430930D01*
X43503154Y-33415024D01*
X43490366Y-33397781D01*
X43479330Y-33379368D01*
X43470151Y-33359962D01*
X43462919Y-33339750D01*
X43457703Y-33318926D01*
X43454553Y-33297691D01*
X43453500Y-33276250D01*
X43453500Y-32763750D01*
X43454553Y-32742309D01*
X43457703Y-32721074D01*
X43462919Y-32700250D01*
X43470151Y-32680038D01*
X43479330Y-32660632D01*
X43490366Y-32642219D01*
X43503154Y-32624976D01*
X43517570Y-32609070D01*
X43533476Y-32594654D01*
X43550719Y-32581866D01*
X43569132Y-32570830D01*
X43588538Y-32561651D01*
X43608750Y-32554419D01*
X43629574Y-32549203D01*
X43650809Y-32546053D01*
X43672250Y-32545000D01*
X44109750Y-32545000D01*
X44131191Y-32546053D01*
G37*
G36*
X45706191Y-32546053D02*
G01*
X45727426Y-32549203D01*
X45748250Y-32554419D01*
X45768462Y-32561651D01*
X45787868Y-32570830D01*
X45806281Y-32581866D01*
X45823524Y-32594654D01*
X45839430Y-32609070D01*
X45853846Y-32624976D01*
X45866634Y-32642219D01*
X45877670Y-32660632D01*
X45886849Y-32680038D01*
X45894081Y-32700250D01*
X45899297Y-32721074D01*
X45902447Y-32742309D01*
X45903500Y-32763750D01*
X45903500Y-33276250D01*
X45902447Y-33297691D01*
X45899297Y-33318926D01*
X45894081Y-33339750D01*
X45886849Y-33359962D01*
X45877670Y-33379368D01*
X45866634Y-33397781D01*
X45853846Y-33415024D01*
X45839430Y-33430930D01*
X45823524Y-33445346D01*
X45806281Y-33458134D01*
X45787868Y-33469170D01*
X45768462Y-33478349D01*
X45748250Y-33485581D01*
X45727426Y-33490797D01*
X45706191Y-33493947D01*
X45684750Y-33495000D01*
X45247250Y-33495000D01*
X45225809Y-33493947D01*
X45204574Y-33490797D01*
X45183750Y-33485581D01*
X45163538Y-33478349D01*
X45144132Y-33469170D01*
X45125719Y-33458134D01*
X45108476Y-33445346D01*
X45092570Y-33430930D01*
X45078154Y-33415024D01*
X45065366Y-33397781D01*
X45054330Y-33379368D01*
X45045151Y-33359962D01*
X45037919Y-33339750D01*
X45032703Y-33318926D01*
X45029553Y-33297691D01*
X45028500Y-33276250D01*
X45028500Y-32763750D01*
X45029553Y-32742309D01*
X45032703Y-32721074D01*
X45037919Y-32700250D01*
X45045151Y-32680038D01*
X45054330Y-32660632D01*
X45065366Y-32642219D01*
X45078154Y-32624976D01*
X45092570Y-32609070D01*
X45108476Y-32594654D01*
X45125719Y-32581866D01*
X45144132Y-32570830D01*
X45163538Y-32561651D01*
X45183750Y-32554419D01*
X45204574Y-32549203D01*
X45225809Y-32546053D01*
X45247250Y-32545000D01*
X45684750Y-32545000D01*
X45706191Y-32546053D01*
G37*
G36*
X44156691Y-31022053D02*
G01*
X44177926Y-31025203D01*
X44198750Y-31030419D01*
X44218962Y-31037651D01*
X44238368Y-31046830D01*
X44256781Y-31057866D01*
X44274024Y-31070654D01*
X44289930Y-31085070D01*
X44304346Y-31100976D01*
X44317134Y-31118219D01*
X44328170Y-31136632D01*
X44337349Y-31156038D01*
X44344581Y-31176250D01*
X44349797Y-31197074D01*
X44352947Y-31218309D01*
X44354000Y-31239750D01*
X44354000Y-31752250D01*
X44352947Y-31773691D01*
X44349797Y-31794926D01*
X44344581Y-31815750D01*
X44337349Y-31835962D01*
X44328170Y-31855368D01*
X44317134Y-31873781D01*
X44304346Y-31891024D01*
X44289930Y-31906930D01*
X44274024Y-31921346D01*
X44256781Y-31934134D01*
X44238368Y-31945170D01*
X44218962Y-31954349D01*
X44198750Y-31961581D01*
X44177926Y-31966797D01*
X44156691Y-31969947D01*
X44135250Y-31971000D01*
X43697750Y-31971000D01*
X43676309Y-31969947D01*
X43655074Y-31966797D01*
X43634250Y-31961581D01*
X43614038Y-31954349D01*
X43594632Y-31945170D01*
X43576219Y-31934134D01*
X43558976Y-31921346D01*
X43543070Y-31906930D01*
X43528654Y-31891024D01*
X43515866Y-31873781D01*
X43504830Y-31855368D01*
X43495651Y-31835962D01*
X43488419Y-31815750D01*
X43483203Y-31794926D01*
X43480053Y-31773691D01*
X43479000Y-31752250D01*
X43479000Y-31239750D01*
X43480053Y-31218309D01*
X43483203Y-31197074D01*
X43488419Y-31176250D01*
X43495651Y-31156038D01*
X43504830Y-31136632D01*
X43515866Y-31118219D01*
X43528654Y-31100976D01*
X43543070Y-31085070D01*
X43558976Y-31070654D01*
X43576219Y-31057866D01*
X43594632Y-31046830D01*
X43614038Y-31037651D01*
X43634250Y-31030419D01*
X43655074Y-31025203D01*
X43676309Y-31022053D01*
X43697750Y-31021000D01*
X44135250Y-31021000D01*
X44156691Y-31022053D01*
G37*
G36*
X45731691Y-31022053D02*
G01*
X45752926Y-31025203D01*
X45773750Y-31030419D01*
X45793962Y-31037651D01*
X45813368Y-31046830D01*
X45831781Y-31057866D01*
X45849024Y-31070654D01*
X45864930Y-31085070D01*
X45879346Y-31100976D01*
X45892134Y-31118219D01*
X45903170Y-31136632D01*
X45912349Y-31156038D01*
X45919581Y-31176250D01*
X45924797Y-31197074D01*
X45927947Y-31218309D01*
X45929000Y-31239750D01*
X45929000Y-31752250D01*
X45927947Y-31773691D01*
X45924797Y-31794926D01*
X45919581Y-31815750D01*
X45912349Y-31835962D01*
X45903170Y-31855368D01*
X45892134Y-31873781D01*
X45879346Y-31891024D01*
X45864930Y-31906930D01*
X45849024Y-31921346D01*
X45831781Y-31934134D01*
X45813368Y-31945170D01*
X45793962Y-31954349D01*
X45773750Y-31961581D01*
X45752926Y-31966797D01*
X45731691Y-31969947D01*
X45710250Y-31971000D01*
X45272750Y-31971000D01*
X45251309Y-31969947D01*
X45230074Y-31966797D01*
X45209250Y-31961581D01*
X45189038Y-31954349D01*
X45169632Y-31945170D01*
X45151219Y-31934134D01*
X45133976Y-31921346D01*
X45118070Y-31906930D01*
X45103654Y-31891024D01*
X45090866Y-31873781D01*
X45079830Y-31855368D01*
X45070651Y-31835962D01*
X45063419Y-31815750D01*
X45058203Y-31794926D01*
X45055053Y-31773691D01*
X45054000Y-31752250D01*
X45054000Y-31239750D01*
X45055053Y-31218309D01*
X45058203Y-31197074D01*
X45063419Y-31176250D01*
X45070651Y-31156038D01*
X45079830Y-31136632D01*
X45090866Y-31118219D01*
X45103654Y-31100976D01*
X45118070Y-31085070D01*
X45133976Y-31070654D01*
X45151219Y-31057866D01*
X45169632Y-31046830D01*
X45189038Y-31037651D01*
X45209250Y-31030419D01*
X45230074Y-31025203D01*
X45251309Y-31022053D01*
X45272750Y-31021000D01*
X45710250Y-31021000D01*
X45731691Y-31022053D01*
G37*
G36*
X15454691Y-30323553D02*
G01*
X15475926Y-30326703D01*
X15496750Y-30331919D01*
X15516962Y-30339151D01*
X15536368Y-30348330D01*
X15554781Y-30359366D01*
X15572024Y-30372154D01*
X15587930Y-30386570D01*
X15602346Y-30402476D01*
X15615134Y-30419719D01*
X15626170Y-30438132D01*
X15635349Y-30457538D01*
X15642581Y-30477750D01*
X15647797Y-30498574D01*
X15650947Y-30519809D01*
X15652000Y-30541250D01*
X15652000Y-31053750D01*
X15650947Y-31075191D01*
X15647797Y-31096426D01*
X15642581Y-31117250D01*
X15635349Y-31137462D01*
X15626170Y-31156868D01*
X15615134Y-31175281D01*
X15602346Y-31192524D01*
X15587930Y-31208430D01*
X15572024Y-31222846D01*
X15554781Y-31235634D01*
X15536368Y-31246670D01*
X15516962Y-31255849D01*
X15496750Y-31263081D01*
X15475926Y-31268297D01*
X15454691Y-31271447D01*
X15433250Y-31272500D01*
X14995750Y-31272500D01*
X14974309Y-31271447D01*
X14953074Y-31268297D01*
X14932250Y-31263081D01*
X14912038Y-31255849D01*
X14892632Y-31246670D01*
X14874219Y-31235634D01*
X14856976Y-31222846D01*
X14841070Y-31208430D01*
X14826654Y-31192524D01*
X14813866Y-31175281D01*
X14802830Y-31156868D01*
X14793651Y-31137462D01*
X14786419Y-31117250D01*
X14781203Y-31096426D01*
X14778053Y-31075191D01*
X14777000Y-31053750D01*
X14777000Y-30541250D01*
X14778053Y-30519809D01*
X14781203Y-30498574D01*
X14786419Y-30477750D01*
X14793651Y-30457538D01*
X14802830Y-30438132D01*
X14813866Y-30419719D01*
X14826654Y-30402476D01*
X14841070Y-30386570D01*
X14856976Y-30372154D01*
X14874219Y-30359366D01*
X14892632Y-30348330D01*
X14912038Y-30339151D01*
X14932250Y-30331919D01*
X14953074Y-30326703D01*
X14974309Y-30323553D01*
X14995750Y-30322500D01*
X15433250Y-30322500D01*
X15454691Y-30323553D01*
G37*
G36*
X17029691Y-30323553D02*
G01*
X17050926Y-30326703D01*
X17071750Y-30331919D01*
X17091962Y-30339151D01*
X17111368Y-30348330D01*
X17129781Y-30359366D01*
X17147024Y-30372154D01*
X17162930Y-30386570D01*
X17177346Y-30402476D01*
X17190134Y-30419719D01*
X17201170Y-30438132D01*
X17210349Y-30457538D01*
X17217581Y-30477750D01*
X17222797Y-30498574D01*
X17225947Y-30519809D01*
X17227000Y-30541250D01*
X17227000Y-31053750D01*
X17225947Y-31075191D01*
X17222797Y-31096426D01*
X17217581Y-31117250D01*
X17210349Y-31137462D01*
X17201170Y-31156868D01*
X17190134Y-31175281D01*
X17177346Y-31192524D01*
X17162930Y-31208430D01*
X17147024Y-31222846D01*
X17129781Y-31235634D01*
X17111368Y-31246670D01*
X17091962Y-31255849D01*
X17071750Y-31263081D01*
X17050926Y-31268297D01*
X17029691Y-31271447D01*
X17008250Y-31272500D01*
X16570750Y-31272500D01*
X16549309Y-31271447D01*
X16528074Y-31268297D01*
X16507250Y-31263081D01*
X16487038Y-31255849D01*
X16467632Y-31246670D01*
X16449219Y-31235634D01*
X16431976Y-31222846D01*
X16416070Y-31208430D01*
X16401654Y-31192524D01*
X16388866Y-31175281D01*
X16377830Y-31156868D01*
X16368651Y-31137462D01*
X16361419Y-31117250D01*
X16356203Y-31096426D01*
X16353053Y-31075191D01*
X16352000Y-31053750D01*
X16352000Y-30541250D01*
X16353053Y-30519809D01*
X16356203Y-30498574D01*
X16361419Y-30477750D01*
X16368651Y-30457538D01*
X16377830Y-30438132D01*
X16388866Y-30419719D01*
X16401654Y-30402476D01*
X16416070Y-30386570D01*
X16431976Y-30372154D01*
X16449219Y-30359366D01*
X16467632Y-30348330D01*
X16487038Y-30339151D01*
X16507250Y-30331919D01*
X16528074Y-30326703D01*
X16549309Y-30323553D01*
X16570750Y-30322500D01*
X17008250Y-30322500D01*
X17029691Y-30323553D01*
G37*
G36*
X15454691Y-31847553D02*
G01*
X15475926Y-31850703D01*
X15496750Y-31855919D01*
X15516962Y-31863151D01*
X15536368Y-31872330D01*
X15554781Y-31883366D01*
X15572024Y-31896154D01*
X15587930Y-31910570D01*
X15602346Y-31926476D01*
X15615134Y-31943719D01*
X15626170Y-31962132D01*
X15635349Y-31981538D01*
X15642581Y-32001750D01*
X15647797Y-32022574D01*
X15650947Y-32043809D01*
X15652000Y-32065250D01*
X15652000Y-32577750D01*
X15650947Y-32599191D01*
X15647797Y-32620426D01*
X15642581Y-32641250D01*
X15635349Y-32661462D01*
X15626170Y-32680868D01*
X15615134Y-32699281D01*
X15602346Y-32716524D01*
X15587930Y-32732430D01*
X15572024Y-32746846D01*
X15554781Y-32759634D01*
X15536368Y-32770670D01*
X15516962Y-32779849D01*
X15496750Y-32787081D01*
X15475926Y-32792297D01*
X15454691Y-32795447D01*
X15433250Y-32796500D01*
X14995750Y-32796500D01*
X14974309Y-32795447D01*
X14953074Y-32792297D01*
X14932250Y-32787081D01*
X14912038Y-32779849D01*
X14892632Y-32770670D01*
X14874219Y-32759634D01*
X14856976Y-32746846D01*
X14841070Y-32732430D01*
X14826654Y-32716524D01*
X14813866Y-32699281D01*
X14802830Y-32680868D01*
X14793651Y-32661462D01*
X14786419Y-32641250D01*
X14781203Y-32620426D01*
X14778053Y-32599191D01*
X14777000Y-32577750D01*
X14777000Y-32065250D01*
X14778053Y-32043809D01*
X14781203Y-32022574D01*
X14786419Y-32001750D01*
X14793651Y-31981538D01*
X14802830Y-31962132D01*
X14813866Y-31943719D01*
X14826654Y-31926476D01*
X14841070Y-31910570D01*
X14856976Y-31896154D01*
X14874219Y-31883366D01*
X14892632Y-31872330D01*
X14912038Y-31863151D01*
X14932250Y-31855919D01*
X14953074Y-31850703D01*
X14974309Y-31847553D01*
X14995750Y-31846500D01*
X15433250Y-31846500D01*
X15454691Y-31847553D01*
G37*
G36*
X17029691Y-31847553D02*
G01*
X17050926Y-31850703D01*
X17071750Y-31855919D01*
X17091962Y-31863151D01*
X17111368Y-31872330D01*
X17129781Y-31883366D01*
X17147024Y-31896154D01*
X17162930Y-31910570D01*
X17177346Y-31926476D01*
X17190134Y-31943719D01*
X17201170Y-31962132D01*
X17210349Y-31981538D01*
X17217581Y-32001750D01*
X17222797Y-32022574D01*
X17225947Y-32043809D01*
X17227000Y-32065250D01*
X17227000Y-32577750D01*
X17225947Y-32599191D01*
X17222797Y-32620426D01*
X17217581Y-32641250D01*
X17210349Y-32661462D01*
X17201170Y-32680868D01*
X17190134Y-32699281D01*
X17177346Y-32716524D01*
X17162930Y-32732430D01*
X17147024Y-32746846D01*
X17129781Y-32759634D01*
X17111368Y-32770670D01*
X17091962Y-32779849D01*
X17071750Y-32787081D01*
X17050926Y-32792297D01*
X17029691Y-32795447D01*
X17008250Y-32796500D01*
X16570750Y-32796500D01*
X16549309Y-32795447D01*
X16528074Y-32792297D01*
X16507250Y-32787081D01*
X16487038Y-32779849D01*
X16467632Y-32770670D01*
X16449219Y-32759634D01*
X16431976Y-32746846D01*
X16416070Y-32732430D01*
X16401654Y-32716524D01*
X16388866Y-32699281D01*
X16377830Y-32680868D01*
X16368651Y-32661462D01*
X16361419Y-32641250D01*
X16356203Y-32620426D01*
X16353053Y-32599191D01*
X16352000Y-32577750D01*
X16352000Y-32065250D01*
X16353053Y-32043809D01*
X16356203Y-32022574D01*
X16361419Y-32001750D01*
X16368651Y-31981538D01*
X16377830Y-31962132D01*
X16388866Y-31943719D01*
X16401654Y-31926476D01*
X16416070Y-31910570D01*
X16431976Y-31896154D01*
X16449219Y-31883366D01*
X16467632Y-31872330D01*
X16487038Y-31863151D01*
X16507250Y-31855919D01*
X16528074Y-31850703D01*
X16549309Y-31847553D01*
X16570750Y-31846500D01*
X17008250Y-31846500D01*
X17029691Y-31847553D01*
G37*
G36*
X17029691Y-33371553D02*
G01*
X17050926Y-33374703D01*
X17071750Y-33379919D01*
X17091962Y-33387151D01*
X17111368Y-33396330D01*
X17129781Y-33407366D01*
X17147024Y-33420154D01*
X17162930Y-33434570D01*
X17177346Y-33450476D01*
X17190134Y-33467719D01*
X17201170Y-33486132D01*
X17210349Y-33505538D01*
X17217581Y-33525750D01*
X17222797Y-33546574D01*
X17225947Y-33567809D01*
X17227000Y-33589250D01*
X17227000Y-34101750D01*
X17225947Y-34123191D01*
X17222797Y-34144426D01*
X17217581Y-34165250D01*
X17210349Y-34185462D01*
X17201170Y-34204868D01*
X17190134Y-34223281D01*
X17177346Y-34240524D01*
X17162930Y-34256430D01*
X17147024Y-34270846D01*
X17129781Y-34283634D01*
X17111368Y-34294670D01*
X17091962Y-34303849D01*
X17071750Y-34311081D01*
X17050926Y-34316297D01*
X17029691Y-34319447D01*
X17008250Y-34320500D01*
X16570750Y-34320500D01*
X16549309Y-34319447D01*
X16528074Y-34316297D01*
X16507250Y-34311081D01*
X16487038Y-34303849D01*
X16467632Y-34294670D01*
X16449219Y-34283634D01*
X16431976Y-34270846D01*
X16416070Y-34256430D01*
X16401654Y-34240524D01*
X16388866Y-34223281D01*
X16377830Y-34204868D01*
X16368651Y-34185462D01*
X16361419Y-34165250D01*
X16356203Y-34144426D01*
X16353053Y-34123191D01*
X16352000Y-34101750D01*
X16352000Y-33589250D01*
X16353053Y-33567809D01*
X16356203Y-33546574D01*
X16361419Y-33525750D01*
X16368651Y-33505538D01*
X16377830Y-33486132D01*
X16388866Y-33467719D01*
X16401654Y-33450476D01*
X16416070Y-33434570D01*
X16431976Y-33420154D01*
X16449219Y-33407366D01*
X16467632Y-33396330D01*
X16487038Y-33387151D01*
X16507250Y-33379919D01*
X16528074Y-33374703D01*
X16549309Y-33371553D01*
X16570750Y-33370500D01*
X17008250Y-33370500D01*
X17029691Y-33371553D01*
G37*
G36*
X15454691Y-33371553D02*
G01*
X15475926Y-33374703D01*
X15496750Y-33379919D01*
X15516962Y-33387151D01*
X15536368Y-33396330D01*
X15554781Y-33407366D01*
X15572024Y-33420154D01*
X15587930Y-33434570D01*
X15602346Y-33450476D01*
X15615134Y-33467719D01*
X15626170Y-33486132D01*
X15635349Y-33505538D01*
X15642581Y-33525750D01*
X15647797Y-33546574D01*
X15650947Y-33567809D01*
X15652000Y-33589250D01*
X15652000Y-34101750D01*
X15650947Y-34123191D01*
X15647797Y-34144426D01*
X15642581Y-34165250D01*
X15635349Y-34185462D01*
X15626170Y-34204868D01*
X15615134Y-34223281D01*
X15602346Y-34240524D01*
X15587930Y-34256430D01*
X15572024Y-34270846D01*
X15554781Y-34283634D01*
X15536368Y-34294670D01*
X15516962Y-34303849D01*
X15496750Y-34311081D01*
X15475926Y-34316297D01*
X15454691Y-34319447D01*
X15433250Y-34320500D01*
X14995750Y-34320500D01*
X14974309Y-34319447D01*
X14953074Y-34316297D01*
X14932250Y-34311081D01*
X14912038Y-34303849D01*
X14892632Y-34294670D01*
X14874219Y-34283634D01*
X14856976Y-34270846D01*
X14841070Y-34256430D01*
X14826654Y-34240524D01*
X14813866Y-34223281D01*
X14802830Y-34204868D01*
X14793651Y-34185462D01*
X14786419Y-34165250D01*
X14781203Y-34144426D01*
X14778053Y-34123191D01*
X14777000Y-34101750D01*
X14777000Y-33589250D01*
X14778053Y-33567809D01*
X14781203Y-33546574D01*
X14786419Y-33525750D01*
X14793651Y-33505538D01*
X14802830Y-33486132D01*
X14813866Y-33467719D01*
X14826654Y-33450476D01*
X14841070Y-33434570D01*
X14856976Y-33420154D01*
X14874219Y-33407366D01*
X14892632Y-33396330D01*
X14912038Y-33387151D01*
X14932250Y-33379919D01*
X14953074Y-33374703D01*
X14974309Y-33371553D01*
X14995750Y-33370500D01*
X15433250Y-33370500D01*
X15454691Y-33371553D01*
G37*
G36*
X20077691Y-30323553D02*
G01*
X20098926Y-30326703D01*
X20119750Y-30331919D01*
X20139962Y-30339151D01*
X20159368Y-30348330D01*
X20177781Y-30359366D01*
X20195024Y-30372154D01*
X20210930Y-30386570D01*
X20225346Y-30402476D01*
X20238134Y-30419719D01*
X20249170Y-30438132D01*
X20258349Y-30457538D01*
X20265581Y-30477750D01*
X20270797Y-30498574D01*
X20273947Y-30519809D01*
X20275000Y-30541250D01*
X20275000Y-31053750D01*
X20273947Y-31075191D01*
X20270797Y-31096426D01*
X20265581Y-31117250D01*
X20258349Y-31137462D01*
X20249170Y-31156868D01*
X20238134Y-31175281D01*
X20225346Y-31192524D01*
X20210930Y-31208430D01*
X20195024Y-31222846D01*
X20177781Y-31235634D01*
X20159368Y-31246670D01*
X20139962Y-31255849D01*
X20119750Y-31263081D01*
X20098926Y-31268297D01*
X20077691Y-31271447D01*
X20056250Y-31272500D01*
X19618750Y-31272500D01*
X19597309Y-31271447D01*
X19576074Y-31268297D01*
X19555250Y-31263081D01*
X19535038Y-31255849D01*
X19515632Y-31246670D01*
X19497219Y-31235634D01*
X19479976Y-31222846D01*
X19464070Y-31208430D01*
X19449654Y-31192524D01*
X19436866Y-31175281D01*
X19425830Y-31156868D01*
X19416651Y-31137462D01*
X19409419Y-31117250D01*
X19404203Y-31096426D01*
X19401053Y-31075191D01*
X19400000Y-31053750D01*
X19400000Y-30541250D01*
X19401053Y-30519809D01*
X19404203Y-30498574D01*
X19409419Y-30477750D01*
X19416651Y-30457538D01*
X19425830Y-30438132D01*
X19436866Y-30419719D01*
X19449654Y-30402476D01*
X19464070Y-30386570D01*
X19479976Y-30372154D01*
X19497219Y-30359366D01*
X19515632Y-30348330D01*
X19535038Y-30339151D01*
X19555250Y-30331919D01*
X19576074Y-30326703D01*
X19597309Y-30323553D01*
X19618750Y-30322500D01*
X20056250Y-30322500D01*
X20077691Y-30323553D01*
G37*
G36*
X18502691Y-30323553D02*
G01*
X18523926Y-30326703D01*
X18544750Y-30331919D01*
X18564962Y-30339151D01*
X18584368Y-30348330D01*
X18602781Y-30359366D01*
X18620024Y-30372154D01*
X18635930Y-30386570D01*
X18650346Y-30402476D01*
X18663134Y-30419719D01*
X18674170Y-30438132D01*
X18683349Y-30457538D01*
X18690581Y-30477750D01*
X18695797Y-30498574D01*
X18698947Y-30519809D01*
X18700000Y-30541250D01*
X18700000Y-31053750D01*
X18698947Y-31075191D01*
X18695797Y-31096426D01*
X18690581Y-31117250D01*
X18683349Y-31137462D01*
X18674170Y-31156868D01*
X18663134Y-31175281D01*
X18650346Y-31192524D01*
X18635930Y-31208430D01*
X18620024Y-31222846D01*
X18602781Y-31235634D01*
X18584368Y-31246670D01*
X18564962Y-31255849D01*
X18544750Y-31263081D01*
X18523926Y-31268297D01*
X18502691Y-31271447D01*
X18481250Y-31272500D01*
X18043750Y-31272500D01*
X18022309Y-31271447D01*
X18001074Y-31268297D01*
X17980250Y-31263081D01*
X17960038Y-31255849D01*
X17940632Y-31246670D01*
X17922219Y-31235634D01*
X17904976Y-31222846D01*
X17889070Y-31208430D01*
X17874654Y-31192524D01*
X17861866Y-31175281D01*
X17850830Y-31156868D01*
X17841651Y-31137462D01*
X17834419Y-31117250D01*
X17829203Y-31096426D01*
X17826053Y-31075191D01*
X17825000Y-31053750D01*
X17825000Y-30541250D01*
X17826053Y-30519809D01*
X17829203Y-30498574D01*
X17834419Y-30477750D01*
X17841651Y-30457538D01*
X17850830Y-30438132D01*
X17861866Y-30419719D01*
X17874654Y-30402476D01*
X17889070Y-30386570D01*
X17904976Y-30372154D01*
X17922219Y-30359366D01*
X17940632Y-30348330D01*
X17960038Y-30339151D01*
X17980250Y-30331919D01*
X18001074Y-30326703D01*
X18022309Y-30323553D01*
X18043750Y-30322500D01*
X18481250Y-30322500D01*
X18502691Y-30323553D01*
G37*
G36*
X20077691Y-31847553D02*
G01*
X20098926Y-31850703D01*
X20119750Y-31855919D01*
X20139962Y-31863151D01*
X20159368Y-31872330D01*
X20177781Y-31883366D01*
X20195024Y-31896154D01*
X20210930Y-31910570D01*
X20225346Y-31926476D01*
X20238134Y-31943719D01*
X20249170Y-31962132D01*
X20258349Y-31981538D01*
X20265581Y-32001750D01*
X20270797Y-32022574D01*
X20273947Y-32043809D01*
X20275000Y-32065250D01*
X20275000Y-32577750D01*
X20273947Y-32599191D01*
X20270797Y-32620426D01*
X20265581Y-32641250D01*
X20258349Y-32661462D01*
X20249170Y-32680868D01*
X20238134Y-32699281D01*
X20225346Y-32716524D01*
X20210930Y-32732430D01*
X20195024Y-32746846D01*
X20177781Y-32759634D01*
X20159368Y-32770670D01*
X20139962Y-32779849D01*
X20119750Y-32787081D01*
X20098926Y-32792297D01*
X20077691Y-32795447D01*
X20056250Y-32796500D01*
X19618750Y-32796500D01*
X19597309Y-32795447D01*
X19576074Y-32792297D01*
X19555250Y-32787081D01*
X19535038Y-32779849D01*
X19515632Y-32770670D01*
X19497219Y-32759634D01*
X19479976Y-32746846D01*
X19464070Y-32732430D01*
X19449654Y-32716524D01*
X19436866Y-32699281D01*
X19425830Y-32680868D01*
X19416651Y-32661462D01*
X19409419Y-32641250D01*
X19404203Y-32620426D01*
X19401053Y-32599191D01*
X19400000Y-32577750D01*
X19400000Y-32065250D01*
X19401053Y-32043809D01*
X19404203Y-32022574D01*
X19409419Y-32001750D01*
X19416651Y-31981538D01*
X19425830Y-31962132D01*
X19436866Y-31943719D01*
X19449654Y-31926476D01*
X19464070Y-31910570D01*
X19479976Y-31896154D01*
X19497219Y-31883366D01*
X19515632Y-31872330D01*
X19535038Y-31863151D01*
X19555250Y-31855919D01*
X19576074Y-31850703D01*
X19597309Y-31847553D01*
X19618750Y-31846500D01*
X20056250Y-31846500D01*
X20077691Y-31847553D01*
G37*
G36*
X18502691Y-31847553D02*
G01*
X18523926Y-31850703D01*
X18544750Y-31855919D01*
X18564962Y-31863151D01*
X18584368Y-31872330D01*
X18602781Y-31883366D01*
X18620024Y-31896154D01*
X18635930Y-31910570D01*
X18650346Y-31926476D01*
X18663134Y-31943719D01*
X18674170Y-31962132D01*
X18683349Y-31981538D01*
X18690581Y-32001750D01*
X18695797Y-32022574D01*
X18698947Y-32043809D01*
X18700000Y-32065250D01*
X18700000Y-32577750D01*
X18698947Y-32599191D01*
X18695797Y-32620426D01*
X18690581Y-32641250D01*
X18683349Y-32661462D01*
X18674170Y-32680868D01*
X18663134Y-32699281D01*
X18650346Y-32716524D01*
X18635930Y-32732430D01*
X18620024Y-32746846D01*
X18602781Y-32759634D01*
X18584368Y-32770670D01*
X18564962Y-32779849D01*
X18544750Y-32787081D01*
X18523926Y-32792297D01*
X18502691Y-32795447D01*
X18481250Y-32796500D01*
X18043750Y-32796500D01*
X18022309Y-32795447D01*
X18001074Y-32792297D01*
X17980250Y-32787081D01*
X17960038Y-32779849D01*
X17940632Y-32770670D01*
X17922219Y-32759634D01*
X17904976Y-32746846D01*
X17889070Y-32732430D01*
X17874654Y-32716524D01*
X17861866Y-32699281D01*
X17850830Y-32680868D01*
X17841651Y-32661462D01*
X17834419Y-32641250D01*
X17829203Y-32620426D01*
X17826053Y-32599191D01*
X17825000Y-32577750D01*
X17825000Y-32065250D01*
X17826053Y-32043809D01*
X17829203Y-32022574D01*
X17834419Y-32001750D01*
X17841651Y-31981538D01*
X17850830Y-31962132D01*
X17861866Y-31943719D01*
X17874654Y-31926476D01*
X17889070Y-31910570D01*
X17904976Y-31896154D01*
X17922219Y-31883366D01*
X17940632Y-31872330D01*
X17960038Y-31863151D01*
X17980250Y-31855919D01*
X18001074Y-31850703D01*
X18022309Y-31847553D01*
X18043750Y-31846500D01*
X18481250Y-31846500D01*
X18502691Y-31847553D01*
G37*
G36*
X45096691Y-17814053D02*
G01*
X45117926Y-17817203D01*
X45138750Y-17822419D01*
X45158962Y-17829651D01*
X45178368Y-17838830D01*
X45196781Y-17849866D01*
X45214024Y-17862654D01*
X45229930Y-17877070D01*
X45244346Y-17892976D01*
X45257134Y-17910219D01*
X45268170Y-17928632D01*
X45277349Y-17948038D01*
X45284581Y-17968250D01*
X45289797Y-17989074D01*
X45292947Y-18010309D01*
X45294000Y-18031750D01*
X45294000Y-18544250D01*
X45292947Y-18565691D01*
X45289797Y-18586926D01*
X45284581Y-18607750D01*
X45277349Y-18627962D01*
X45268170Y-18647368D01*
X45257134Y-18665781D01*
X45244346Y-18683024D01*
X45229930Y-18698930D01*
X45214024Y-18713346D01*
X45196781Y-18726134D01*
X45178368Y-18737170D01*
X45158962Y-18746349D01*
X45138750Y-18753581D01*
X45117926Y-18758797D01*
X45096691Y-18761947D01*
X45075250Y-18763000D01*
X44637750Y-18763000D01*
X44616309Y-18761947D01*
X44595074Y-18758797D01*
X44574250Y-18753581D01*
X44554038Y-18746349D01*
X44534632Y-18737170D01*
X44516219Y-18726134D01*
X44498976Y-18713346D01*
X44483070Y-18698930D01*
X44468654Y-18683024D01*
X44455866Y-18665781D01*
X44444830Y-18647368D01*
X44435651Y-18627962D01*
X44428419Y-18607750D01*
X44423203Y-18586926D01*
X44420053Y-18565691D01*
X44419000Y-18544250D01*
X44419000Y-18031750D01*
X44420053Y-18010309D01*
X44423203Y-17989074D01*
X44428419Y-17968250D01*
X44435651Y-17948038D01*
X44444830Y-17928632D01*
X44455866Y-17910219D01*
X44468654Y-17892976D01*
X44483070Y-17877070D01*
X44498976Y-17862654D01*
X44516219Y-17849866D01*
X44534632Y-17838830D01*
X44554038Y-17829651D01*
X44574250Y-17822419D01*
X44595074Y-17817203D01*
X44616309Y-17814053D01*
X44637750Y-17813000D01*
X45075250Y-17813000D01*
X45096691Y-17814053D01*
G37*
G36*
X43521691Y-17814053D02*
G01*
X43542926Y-17817203D01*
X43563750Y-17822419D01*
X43583962Y-17829651D01*
X43603368Y-17838830D01*
X43621781Y-17849866D01*
X43639024Y-17862654D01*
X43654930Y-17877070D01*
X43669346Y-17892976D01*
X43682134Y-17910219D01*
X43693170Y-17928632D01*
X43702349Y-17948038D01*
X43709581Y-17968250D01*
X43714797Y-17989074D01*
X43717947Y-18010309D01*
X43719000Y-18031750D01*
X43719000Y-18544250D01*
X43717947Y-18565691D01*
X43714797Y-18586926D01*
X43709581Y-18607750D01*
X43702349Y-18627962D01*
X43693170Y-18647368D01*
X43682134Y-18665781D01*
X43669346Y-18683024D01*
X43654930Y-18698930D01*
X43639024Y-18713346D01*
X43621781Y-18726134D01*
X43603368Y-18737170D01*
X43583962Y-18746349D01*
X43563750Y-18753581D01*
X43542926Y-18758797D01*
X43521691Y-18761947D01*
X43500250Y-18763000D01*
X43062750Y-18763000D01*
X43041309Y-18761947D01*
X43020074Y-18758797D01*
X42999250Y-18753581D01*
X42979038Y-18746349D01*
X42959632Y-18737170D01*
X42941219Y-18726134D01*
X42923976Y-18713346D01*
X42908070Y-18698930D01*
X42893654Y-18683024D01*
X42880866Y-18665781D01*
X42869830Y-18647368D01*
X42860651Y-18627962D01*
X42853419Y-18607750D01*
X42848203Y-18586926D01*
X42845053Y-18565691D01*
X42844000Y-18544250D01*
X42844000Y-18031750D01*
X42845053Y-18010309D01*
X42848203Y-17989074D01*
X42853419Y-17968250D01*
X42860651Y-17948038D01*
X42869830Y-17928632D01*
X42880866Y-17910219D01*
X42893654Y-17892976D01*
X42908070Y-17877070D01*
X42923976Y-17862654D01*
X42941219Y-17849866D01*
X42959632Y-17838830D01*
X42979038Y-17829651D01*
X42999250Y-17822419D01*
X43020074Y-17817203D01*
X43041309Y-17814053D01*
X43062750Y-17813000D01*
X43500250Y-17813000D01*
X43521691Y-17814053D01*
G37*
G36*
X45096691Y-16290053D02*
G01*
X45117926Y-16293203D01*
X45138750Y-16298419D01*
X45158962Y-16305651D01*
X45178368Y-16314830D01*
X45196781Y-16325866D01*
X45214024Y-16338654D01*
X45229930Y-16353070D01*
X45244346Y-16368976D01*
X45257134Y-16386219D01*
X45268170Y-16404632D01*
X45277349Y-16424038D01*
X45284581Y-16444250D01*
X45289797Y-16465074D01*
X45292947Y-16486309D01*
X45294000Y-16507750D01*
X45294000Y-17020250D01*
X45292947Y-17041691D01*
X45289797Y-17062926D01*
X45284581Y-17083750D01*
X45277349Y-17103962D01*
X45268170Y-17123368D01*
X45257134Y-17141781D01*
X45244346Y-17159024D01*
X45229930Y-17174930D01*
X45214024Y-17189346D01*
X45196781Y-17202134D01*
X45178368Y-17213170D01*
X45158962Y-17222349D01*
X45138750Y-17229581D01*
X45117926Y-17234797D01*
X45096691Y-17237947D01*
X45075250Y-17239000D01*
X44637750Y-17239000D01*
X44616309Y-17237947D01*
X44595074Y-17234797D01*
X44574250Y-17229581D01*
X44554038Y-17222349D01*
X44534632Y-17213170D01*
X44516219Y-17202134D01*
X44498976Y-17189346D01*
X44483070Y-17174930D01*
X44468654Y-17159024D01*
X44455866Y-17141781D01*
X44444830Y-17123368D01*
X44435651Y-17103962D01*
X44428419Y-17083750D01*
X44423203Y-17062926D01*
X44420053Y-17041691D01*
X44419000Y-17020250D01*
X44419000Y-16507750D01*
X44420053Y-16486309D01*
X44423203Y-16465074D01*
X44428419Y-16444250D01*
X44435651Y-16424038D01*
X44444830Y-16404632D01*
X44455866Y-16386219D01*
X44468654Y-16368976D01*
X44483070Y-16353070D01*
X44498976Y-16338654D01*
X44516219Y-16325866D01*
X44534632Y-16314830D01*
X44554038Y-16305651D01*
X44574250Y-16298419D01*
X44595074Y-16293203D01*
X44616309Y-16290053D01*
X44637750Y-16289000D01*
X45075250Y-16289000D01*
X45096691Y-16290053D01*
G37*
G36*
X43521691Y-16290053D02*
G01*
X43542926Y-16293203D01*
X43563750Y-16298419D01*
X43583962Y-16305651D01*
X43603368Y-16314830D01*
X43621781Y-16325866D01*
X43639024Y-16338654D01*
X43654930Y-16353070D01*
X43669346Y-16368976D01*
X43682134Y-16386219D01*
X43693170Y-16404632D01*
X43702349Y-16424038D01*
X43709581Y-16444250D01*
X43714797Y-16465074D01*
X43717947Y-16486309D01*
X43719000Y-16507750D01*
X43719000Y-17020250D01*
X43717947Y-17041691D01*
X43714797Y-17062926D01*
X43709581Y-17083750D01*
X43702349Y-17103962D01*
X43693170Y-17123368D01*
X43682134Y-17141781D01*
X43669346Y-17159024D01*
X43654930Y-17174930D01*
X43639024Y-17189346D01*
X43621781Y-17202134D01*
X43603368Y-17213170D01*
X43583962Y-17222349D01*
X43563750Y-17229581D01*
X43542926Y-17234797D01*
X43521691Y-17237947D01*
X43500250Y-17239000D01*
X43062750Y-17239000D01*
X43041309Y-17237947D01*
X43020074Y-17234797D01*
X42999250Y-17229581D01*
X42979038Y-17222349D01*
X42959632Y-17213170D01*
X42941219Y-17202134D01*
X42923976Y-17189346D01*
X42908070Y-17174930D01*
X42893654Y-17159024D01*
X42880866Y-17141781D01*
X42869830Y-17123368D01*
X42860651Y-17103962D01*
X42853419Y-17083750D01*
X42848203Y-17062926D01*
X42845053Y-17041691D01*
X42844000Y-17020250D01*
X42844000Y-16507750D01*
X42845053Y-16486309D01*
X42848203Y-16465074D01*
X42853419Y-16444250D01*
X42860651Y-16424038D01*
X42869830Y-16404632D01*
X42880866Y-16386219D01*
X42893654Y-16368976D01*
X42908070Y-16353070D01*
X42923976Y-16338654D01*
X42941219Y-16325866D01*
X42959632Y-16314830D01*
X42979038Y-16305651D01*
X42999250Y-16298419D01*
X43020074Y-16293203D01*
X43041309Y-16290053D01*
X43062750Y-16289000D01*
X43500250Y-16289000D01*
X43521691Y-16290053D01*
G37*
G36*
X45096691Y-14766053D02*
G01*
X45117926Y-14769203D01*
X45138750Y-14774419D01*
X45158962Y-14781651D01*
X45178368Y-14790830D01*
X45196781Y-14801866D01*
X45214024Y-14814654D01*
X45229930Y-14829070D01*
X45244346Y-14844976D01*
X45257134Y-14862219D01*
X45268170Y-14880632D01*
X45277349Y-14900038D01*
X45284581Y-14920250D01*
X45289797Y-14941074D01*
X45292947Y-14962309D01*
X45294000Y-14983750D01*
X45294000Y-15496250D01*
X45292947Y-15517691D01*
X45289797Y-15538926D01*
X45284581Y-15559750D01*
X45277349Y-15579962D01*
X45268170Y-15599368D01*
X45257134Y-15617781D01*
X45244346Y-15635024D01*
X45229930Y-15650930D01*
X45214024Y-15665346D01*
X45196781Y-15678134D01*
X45178368Y-15689170D01*
X45158962Y-15698349D01*
X45138750Y-15705581D01*
X45117926Y-15710797D01*
X45096691Y-15713947D01*
X45075250Y-15715000D01*
X44637750Y-15715000D01*
X44616309Y-15713947D01*
X44595074Y-15710797D01*
X44574250Y-15705581D01*
X44554038Y-15698349D01*
X44534632Y-15689170D01*
X44516219Y-15678134D01*
X44498976Y-15665346D01*
X44483070Y-15650930D01*
X44468654Y-15635024D01*
X44455866Y-15617781D01*
X44444830Y-15599368D01*
X44435651Y-15579962D01*
X44428419Y-15559750D01*
X44423203Y-15538926D01*
X44420053Y-15517691D01*
X44419000Y-15496250D01*
X44419000Y-14983750D01*
X44420053Y-14962309D01*
X44423203Y-14941074D01*
X44428419Y-14920250D01*
X44435651Y-14900038D01*
X44444830Y-14880632D01*
X44455866Y-14862219D01*
X44468654Y-14844976D01*
X44483070Y-14829070D01*
X44498976Y-14814654D01*
X44516219Y-14801866D01*
X44534632Y-14790830D01*
X44554038Y-14781651D01*
X44574250Y-14774419D01*
X44595074Y-14769203D01*
X44616309Y-14766053D01*
X44637750Y-14765000D01*
X45075250Y-14765000D01*
X45096691Y-14766053D01*
G37*
G36*
X43521691Y-14766053D02*
G01*
X43542926Y-14769203D01*
X43563750Y-14774419D01*
X43583962Y-14781651D01*
X43603368Y-14790830D01*
X43621781Y-14801866D01*
X43639024Y-14814654D01*
X43654930Y-14829070D01*
X43669346Y-14844976D01*
X43682134Y-14862219D01*
X43693170Y-14880632D01*
X43702349Y-14900038D01*
X43709581Y-14920250D01*
X43714797Y-14941074D01*
X43717947Y-14962309D01*
X43719000Y-14983750D01*
X43719000Y-15496250D01*
X43717947Y-15517691D01*
X43714797Y-15538926D01*
X43709581Y-15559750D01*
X43702349Y-15579962D01*
X43693170Y-15599368D01*
X43682134Y-15617781D01*
X43669346Y-15635024D01*
X43654930Y-15650930D01*
X43639024Y-15665346D01*
X43621781Y-15678134D01*
X43603368Y-15689170D01*
X43583962Y-15698349D01*
X43563750Y-15705581D01*
X43542926Y-15710797D01*
X43521691Y-15713947D01*
X43500250Y-15715000D01*
X43062750Y-15715000D01*
X43041309Y-15713947D01*
X43020074Y-15710797D01*
X42999250Y-15705581D01*
X42979038Y-15698349D01*
X42959632Y-15689170D01*
X42941219Y-15678134D01*
X42923976Y-15665346D01*
X42908070Y-15650930D01*
X42893654Y-15635024D01*
X42880866Y-15617781D01*
X42869830Y-15599368D01*
X42860651Y-15579962D01*
X42853419Y-15559750D01*
X42848203Y-15538926D01*
X42845053Y-15517691D01*
X42844000Y-15496250D01*
X42844000Y-14983750D01*
X42845053Y-14962309D01*
X42848203Y-14941074D01*
X42853419Y-14920250D01*
X42860651Y-14900038D01*
X42869830Y-14880632D01*
X42880866Y-14862219D01*
X42893654Y-14844976D01*
X42908070Y-14829070D01*
X42923976Y-14814654D01*
X42941219Y-14801866D01*
X42959632Y-14790830D01*
X42979038Y-14781651D01*
X42999250Y-14774419D01*
X43020074Y-14769203D01*
X43041309Y-14766053D01*
X43062750Y-14765000D01*
X43500250Y-14765000D01*
X43521691Y-14766053D01*
G37*
G36*
X49668691Y-11591053D02*
G01*
X49689926Y-11594203D01*
X49710750Y-11599419D01*
X49730962Y-11606651D01*
X49750368Y-11615830D01*
X49768781Y-11626866D01*
X49786024Y-11639654D01*
X49801930Y-11654070D01*
X49816346Y-11669976D01*
X49829134Y-11687219D01*
X49840170Y-11705632D01*
X49849349Y-11725038D01*
X49856581Y-11745250D01*
X49861797Y-11766074D01*
X49864947Y-11787309D01*
X49866000Y-11808750D01*
X49866000Y-12321250D01*
X49864947Y-12342691D01*
X49861797Y-12363926D01*
X49856581Y-12384750D01*
X49849349Y-12404962D01*
X49840170Y-12424368D01*
X49829134Y-12442781D01*
X49816346Y-12460024D01*
X49801930Y-12475930D01*
X49786024Y-12490346D01*
X49768781Y-12503134D01*
X49750368Y-12514170D01*
X49730962Y-12523349D01*
X49710750Y-12530581D01*
X49689926Y-12535797D01*
X49668691Y-12538947D01*
X49647250Y-12540000D01*
X49209750Y-12540000D01*
X49188309Y-12538947D01*
X49167074Y-12535797D01*
X49146250Y-12530581D01*
X49126038Y-12523349D01*
X49106632Y-12514170D01*
X49088219Y-12503134D01*
X49070976Y-12490346D01*
X49055070Y-12475930D01*
X49040654Y-12460024D01*
X49027866Y-12442781D01*
X49016830Y-12424368D01*
X49007651Y-12404962D01*
X49000419Y-12384750D01*
X48995203Y-12363926D01*
X48992053Y-12342691D01*
X48991000Y-12321250D01*
X48991000Y-11808750D01*
X48992053Y-11787309D01*
X48995203Y-11766074D01*
X49000419Y-11745250D01*
X49007651Y-11725038D01*
X49016830Y-11705632D01*
X49027866Y-11687219D01*
X49040654Y-11669976D01*
X49055070Y-11654070D01*
X49070976Y-11639654D01*
X49088219Y-11626866D01*
X49106632Y-11615830D01*
X49126038Y-11606651D01*
X49146250Y-11599419D01*
X49167074Y-11594203D01*
X49188309Y-11591053D01*
X49209750Y-11590000D01*
X49647250Y-11590000D01*
X49668691Y-11591053D01*
G37*
G36*
X48093691Y-11591053D02*
G01*
X48114926Y-11594203D01*
X48135750Y-11599419D01*
X48155962Y-11606651D01*
X48175368Y-11615830D01*
X48193781Y-11626866D01*
X48211024Y-11639654D01*
X48226930Y-11654070D01*
X48241346Y-11669976D01*
X48254134Y-11687219D01*
X48265170Y-11705632D01*
X48274349Y-11725038D01*
X48281581Y-11745250D01*
X48286797Y-11766074D01*
X48289947Y-11787309D01*
X48291000Y-11808750D01*
X48291000Y-12321250D01*
X48289947Y-12342691D01*
X48286797Y-12363926D01*
X48281581Y-12384750D01*
X48274349Y-12404962D01*
X48265170Y-12424368D01*
X48254134Y-12442781D01*
X48241346Y-12460024D01*
X48226930Y-12475930D01*
X48211024Y-12490346D01*
X48193781Y-12503134D01*
X48175368Y-12514170D01*
X48155962Y-12523349D01*
X48135750Y-12530581D01*
X48114926Y-12535797D01*
X48093691Y-12538947D01*
X48072250Y-12540000D01*
X47634750Y-12540000D01*
X47613309Y-12538947D01*
X47592074Y-12535797D01*
X47571250Y-12530581D01*
X47551038Y-12523349D01*
X47531632Y-12514170D01*
X47513219Y-12503134D01*
X47495976Y-12490346D01*
X47480070Y-12475930D01*
X47465654Y-12460024D01*
X47452866Y-12442781D01*
X47441830Y-12424368D01*
X47432651Y-12404962D01*
X47425419Y-12384750D01*
X47420203Y-12363926D01*
X47417053Y-12342691D01*
X47416000Y-12321250D01*
X47416000Y-11808750D01*
X47417053Y-11787309D01*
X47420203Y-11766074D01*
X47425419Y-11745250D01*
X47432651Y-11725038D01*
X47441830Y-11705632D01*
X47452866Y-11687219D01*
X47465654Y-11669976D01*
X47480070Y-11654070D01*
X47495976Y-11639654D01*
X47513219Y-11626866D01*
X47531632Y-11615830D01*
X47551038Y-11606651D01*
X47571250Y-11599419D01*
X47592074Y-11594203D01*
X47613309Y-11591053D01*
X47634750Y-11590000D01*
X48072250Y-11590000D01*
X48093691Y-11591053D01*
G37*
G36*
X45096691Y-11591053D02*
G01*
X45117926Y-11594203D01*
X45138750Y-11599419D01*
X45158962Y-11606651D01*
X45178368Y-11615830D01*
X45196781Y-11626866D01*
X45214024Y-11639654D01*
X45229930Y-11654070D01*
X45244346Y-11669976D01*
X45257134Y-11687219D01*
X45268170Y-11705632D01*
X45277349Y-11725038D01*
X45284581Y-11745250D01*
X45289797Y-11766074D01*
X45292947Y-11787309D01*
X45294000Y-11808750D01*
X45294000Y-12321250D01*
X45292947Y-12342691D01*
X45289797Y-12363926D01*
X45284581Y-12384750D01*
X45277349Y-12404962D01*
X45268170Y-12424368D01*
X45257134Y-12442781D01*
X45244346Y-12460024D01*
X45229930Y-12475930D01*
X45214024Y-12490346D01*
X45196781Y-12503134D01*
X45178368Y-12514170D01*
X45158962Y-12523349D01*
X45138750Y-12530581D01*
X45117926Y-12535797D01*
X45096691Y-12538947D01*
X45075250Y-12540000D01*
X44637750Y-12540000D01*
X44616309Y-12538947D01*
X44595074Y-12535797D01*
X44574250Y-12530581D01*
X44554038Y-12523349D01*
X44534632Y-12514170D01*
X44516219Y-12503134D01*
X44498976Y-12490346D01*
X44483070Y-12475930D01*
X44468654Y-12460024D01*
X44455866Y-12442781D01*
X44444830Y-12424368D01*
X44435651Y-12404962D01*
X44428419Y-12384750D01*
X44423203Y-12363926D01*
X44420053Y-12342691D01*
X44419000Y-12321250D01*
X44419000Y-11808750D01*
X44420053Y-11787309D01*
X44423203Y-11766074D01*
X44428419Y-11745250D01*
X44435651Y-11725038D01*
X44444830Y-11705632D01*
X44455866Y-11687219D01*
X44468654Y-11669976D01*
X44483070Y-11654070D01*
X44498976Y-11639654D01*
X44516219Y-11626866D01*
X44534632Y-11615830D01*
X44554038Y-11606651D01*
X44574250Y-11599419D01*
X44595074Y-11594203D01*
X44616309Y-11591053D01*
X44637750Y-11590000D01*
X45075250Y-11590000D01*
X45096691Y-11591053D01*
G37*
G36*
X43521691Y-11591053D02*
G01*
X43542926Y-11594203D01*
X43563750Y-11599419D01*
X43583962Y-11606651D01*
X43603368Y-11615830D01*
X43621781Y-11626866D01*
X43639024Y-11639654D01*
X43654930Y-11654070D01*
X43669346Y-11669976D01*
X43682134Y-11687219D01*
X43693170Y-11705632D01*
X43702349Y-11725038D01*
X43709581Y-11745250D01*
X43714797Y-11766074D01*
X43717947Y-11787309D01*
X43719000Y-11808750D01*
X43719000Y-12321250D01*
X43717947Y-12342691D01*
X43714797Y-12363926D01*
X43709581Y-12384750D01*
X43702349Y-12404962D01*
X43693170Y-12424368D01*
X43682134Y-12442781D01*
X43669346Y-12460024D01*
X43654930Y-12475930D01*
X43639024Y-12490346D01*
X43621781Y-12503134D01*
X43603368Y-12514170D01*
X43583962Y-12523349D01*
X43563750Y-12530581D01*
X43542926Y-12535797D01*
X43521691Y-12538947D01*
X43500250Y-12540000D01*
X43062750Y-12540000D01*
X43041309Y-12538947D01*
X43020074Y-12535797D01*
X42999250Y-12530581D01*
X42979038Y-12523349D01*
X42959632Y-12514170D01*
X42941219Y-12503134D01*
X42923976Y-12490346D01*
X42908070Y-12475930D01*
X42893654Y-12460024D01*
X42880866Y-12442781D01*
X42869830Y-12424368D01*
X42860651Y-12404962D01*
X42853419Y-12384750D01*
X42848203Y-12363926D01*
X42845053Y-12342691D01*
X42844000Y-12321250D01*
X42844000Y-11808750D01*
X42845053Y-11787309D01*
X42848203Y-11766074D01*
X42853419Y-11745250D01*
X42860651Y-11725038D01*
X42869830Y-11705632D01*
X42880866Y-11687219D01*
X42893654Y-11669976D01*
X42908070Y-11654070D01*
X42923976Y-11639654D01*
X42941219Y-11626866D01*
X42959632Y-11615830D01*
X42979038Y-11606651D01*
X42999250Y-11599419D01*
X43020074Y-11594203D01*
X43041309Y-11591053D01*
X43062750Y-11590000D01*
X43500250Y-11590000D01*
X43521691Y-11591053D01*
G37*
G36*
X44969691Y-27466053D02*
G01*
X44990926Y-27469203D01*
X45011750Y-27474419D01*
X45031962Y-27481651D01*
X45051368Y-27490830D01*
X45069781Y-27501866D01*
X45087024Y-27514654D01*
X45102930Y-27529070D01*
X45117346Y-27544976D01*
X45130134Y-27562219D01*
X45141170Y-27580632D01*
X45150349Y-27600038D01*
X45157581Y-27620250D01*
X45162797Y-27641074D01*
X45165947Y-27662309D01*
X45167000Y-27683750D01*
X45167000Y-28196250D01*
X45165947Y-28217691D01*
X45162797Y-28238926D01*
X45157581Y-28259750D01*
X45150349Y-28279962D01*
X45141170Y-28299368D01*
X45130134Y-28317781D01*
X45117346Y-28335024D01*
X45102930Y-28350930D01*
X45087024Y-28365346D01*
X45069781Y-28378134D01*
X45051368Y-28389170D01*
X45031962Y-28398349D01*
X45011750Y-28405581D01*
X44990926Y-28410797D01*
X44969691Y-28413947D01*
X44948250Y-28415000D01*
X44510750Y-28415000D01*
X44489309Y-28413947D01*
X44468074Y-28410797D01*
X44447250Y-28405581D01*
X44427038Y-28398349D01*
X44407632Y-28389170D01*
X44389219Y-28378134D01*
X44371976Y-28365346D01*
X44356070Y-28350930D01*
X44341654Y-28335024D01*
X44328866Y-28317781D01*
X44317830Y-28299368D01*
X44308651Y-28279962D01*
X44301419Y-28259750D01*
X44296203Y-28238926D01*
X44293053Y-28217691D01*
X44292000Y-28196250D01*
X44292000Y-27683750D01*
X44293053Y-27662309D01*
X44296203Y-27641074D01*
X44301419Y-27620250D01*
X44308651Y-27600038D01*
X44317830Y-27580632D01*
X44328866Y-27562219D01*
X44341654Y-27544976D01*
X44356070Y-27529070D01*
X44371976Y-27514654D01*
X44389219Y-27501866D01*
X44407632Y-27490830D01*
X44427038Y-27481651D01*
X44447250Y-27474419D01*
X44468074Y-27469203D01*
X44489309Y-27466053D01*
X44510750Y-27465000D01*
X44948250Y-27465000D01*
X44969691Y-27466053D01*
G37*
G36*
X43394691Y-27466053D02*
G01*
X43415926Y-27469203D01*
X43436750Y-27474419D01*
X43456962Y-27481651D01*
X43476368Y-27490830D01*
X43494781Y-27501866D01*
X43512024Y-27514654D01*
X43527930Y-27529070D01*
X43542346Y-27544976D01*
X43555134Y-27562219D01*
X43566170Y-27580632D01*
X43575349Y-27600038D01*
X43582581Y-27620250D01*
X43587797Y-27641074D01*
X43590947Y-27662309D01*
X43592000Y-27683750D01*
X43592000Y-28196250D01*
X43590947Y-28217691D01*
X43587797Y-28238926D01*
X43582581Y-28259750D01*
X43575349Y-28279962D01*
X43566170Y-28299368D01*
X43555134Y-28317781D01*
X43542346Y-28335024D01*
X43527930Y-28350930D01*
X43512024Y-28365346D01*
X43494781Y-28378134D01*
X43476368Y-28389170D01*
X43456962Y-28398349D01*
X43436750Y-28405581D01*
X43415926Y-28410797D01*
X43394691Y-28413947D01*
X43373250Y-28415000D01*
X42935750Y-28415000D01*
X42914309Y-28413947D01*
X42893074Y-28410797D01*
X42872250Y-28405581D01*
X42852038Y-28398349D01*
X42832632Y-28389170D01*
X42814219Y-28378134D01*
X42796976Y-28365346D01*
X42781070Y-28350930D01*
X42766654Y-28335024D01*
X42753866Y-28317781D01*
X42742830Y-28299368D01*
X42733651Y-28279962D01*
X42726419Y-28259750D01*
X42721203Y-28238926D01*
X42718053Y-28217691D01*
X42717000Y-28196250D01*
X42717000Y-27683750D01*
X42718053Y-27662309D01*
X42721203Y-27641074D01*
X42726419Y-27620250D01*
X42733651Y-27600038D01*
X42742830Y-27580632D01*
X42753866Y-27562219D01*
X42766654Y-27544976D01*
X42781070Y-27529070D01*
X42796976Y-27514654D01*
X42814219Y-27501866D01*
X42832632Y-27490830D01*
X42852038Y-27481651D01*
X42872250Y-27474419D01*
X42893074Y-27469203D01*
X42914309Y-27466053D01*
X42935750Y-27465000D01*
X43373250Y-27465000D01*
X43394691Y-27466053D01*
G37*
G36*
X44969691Y-25942053D02*
G01*
X44990926Y-25945203D01*
X45011750Y-25950419D01*
X45031962Y-25957651D01*
X45051368Y-25966830D01*
X45069781Y-25977866D01*
X45087024Y-25990654D01*
X45102930Y-26005070D01*
X45117346Y-26020976D01*
X45130134Y-26038219D01*
X45141170Y-26056632D01*
X45150349Y-26076038D01*
X45157581Y-26096250D01*
X45162797Y-26117074D01*
X45165947Y-26138309D01*
X45167000Y-26159750D01*
X45167000Y-26672250D01*
X45165947Y-26693691D01*
X45162797Y-26714926D01*
X45157581Y-26735750D01*
X45150349Y-26755962D01*
X45141170Y-26775368D01*
X45130134Y-26793781D01*
X45117346Y-26811024D01*
X45102930Y-26826930D01*
X45087024Y-26841346D01*
X45069781Y-26854134D01*
X45051368Y-26865170D01*
X45031962Y-26874349D01*
X45011750Y-26881581D01*
X44990926Y-26886797D01*
X44969691Y-26889947D01*
X44948250Y-26891000D01*
X44510750Y-26891000D01*
X44489309Y-26889947D01*
X44468074Y-26886797D01*
X44447250Y-26881581D01*
X44427038Y-26874349D01*
X44407632Y-26865170D01*
X44389219Y-26854134D01*
X44371976Y-26841346D01*
X44356070Y-26826930D01*
X44341654Y-26811024D01*
X44328866Y-26793781D01*
X44317830Y-26775368D01*
X44308651Y-26755962D01*
X44301419Y-26735750D01*
X44296203Y-26714926D01*
X44293053Y-26693691D01*
X44292000Y-26672250D01*
X44292000Y-26159750D01*
X44293053Y-26138309D01*
X44296203Y-26117074D01*
X44301419Y-26096250D01*
X44308651Y-26076038D01*
X44317830Y-26056632D01*
X44328866Y-26038219D01*
X44341654Y-26020976D01*
X44356070Y-26005070D01*
X44371976Y-25990654D01*
X44389219Y-25977866D01*
X44407632Y-25966830D01*
X44427038Y-25957651D01*
X44447250Y-25950419D01*
X44468074Y-25945203D01*
X44489309Y-25942053D01*
X44510750Y-25941000D01*
X44948250Y-25941000D01*
X44969691Y-25942053D01*
G37*
G36*
X43394691Y-25942053D02*
G01*
X43415926Y-25945203D01*
X43436750Y-25950419D01*
X43456962Y-25957651D01*
X43476368Y-25966830D01*
X43494781Y-25977866D01*
X43512024Y-25990654D01*
X43527930Y-26005070D01*
X43542346Y-26020976D01*
X43555134Y-26038219D01*
X43566170Y-26056632D01*
X43575349Y-26076038D01*
X43582581Y-26096250D01*
X43587797Y-26117074D01*
X43590947Y-26138309D01*
X43592000Y-26159750D01*
X43592000Y-26672250D01*
X43590947Y-26693691D01*
X43587797Y-26714926D01*
X43582581Y-26735750D01*
X43575349Y-26755962D01*
X43566170Y-26775368D01*
X43555134Y-26793781D01*
X43542346Y-26811024D01*
X43527930Y-26826930D01*
X43512024Y-26841346D01*
X43494781Y-26854134D01*
X43476368Y-26865170D01*
X43456962Y-26874349D01*
X43436750Y-26881581D01*
X43415926Y-26886797D01*
X43394691Y-26889947D01*
X43373250Y-26891000D01*
X42935750Y-26891000D01*
X42914309Y-26889947D01*
X42893074Y-26886797D01*
X42872250Y-26881581D01*
X42852038Y-26874349D01*
X42832632Y-26865170D01*
X42814219Y-26854134D01*
X42796976Y-26841346D01*
X42781070Y-26826930D01*
X42766654Y-26811024D01*
X42753866Y-26793781D01*
X42742830Y-26775368D01*
X42733651Y-26755962D01*
X42726419Y-26735750D01*
X42721203Y-26714926D01*
X42718053Y-26693691D01*
X42717000Y-26672250D01*
X42717000Y-26159750D01*
X42718053Y-26138309D01*
X42721203Y-26117074D01*
X42726419Y-26096250D01*
X42733651Y-26076038D01*
X42742830Y-26056632D01*
X42753866Y-26038219D01*
X42766654Y-26020976D01*
X42781070Y-26005070D01*
X42796976Y-25990654D01*
X42814219Y-25977866D01*
X42832632Y-25966830D01*
X42852038Y-25957651D01*
X42872250Y-25950419D01*
X42893074Y-25945203D01*
X42914309Y-25942053D01*
X42935750Y-25941000D01*
X43373250Y-25941000D01*
X43394691Y-25942053D01*
G37*
G36*
X44969691Y-24418053D02*
G01*
X44990926Y-24421203D01*
X45011750Y-24426419D01*
X45031962Y-24433651D01*
X45051368Y-24442830D01*
X45069781Y-24453866D01*
X45087024Y-24466654D01*
X45102930Y-24481070D01*
X45117346Y-24496976D01*
X45130134Y-24514219D01*
X45141170Y-24532632D01*
X45150349Y-24552038D01*
X45157581Y-24572250D01*
X45162797Y-24593074D01*
X45165947Y-24614309D01*
X45167000Y-24635750D01*
X45167000Y-25148250D01*
X45165947Y-25169691D01*
X45162797Y-25190926D01*
X45157581Y-25211750D01*
X45150349Y-25231962D01*
X45141170Y-25251368D01*
X45130134Y-25269781D01*
X45117346Y-25287024D01*
X45102930Y-25302930D01*
X45087024Y-25317346D01*
X45069781Y-25330134D01*
X45051368Y-25341170D01*
X45031962Y-25350349D01*
X45011750Y-25357581D01*
X44990926Y-25362797D01*
X44969691Y-25365947D01*
X44948250Y-25367000D01*
X44510750Y-25367000D01*
X44489309Y-25365947D01*
X44468074Y-25362797D01*
X44447250Y-25357581D01*
X44427038Y-25350349D01*
X44407632Y-25341170D01*
X44389219Y-25330134D01*
X44371976Y-25317346D01*
X44356070Y-25302930D01*
X44341654Y-25287024D01*
X44328866Y-25269781D01*
X44317830Y-25251368D01*
X44308651Y-25231962D01*
X44301419Y-25211750D01*
X44296203Y-25190926D01*
X44293053Y-25169691D01*
X44292000Y-25148250D01*
X44292000Y-24635750D01*
X44293053Y-24614309D01*
X44296203Y-24593074D01*
X44301419Y-24572250D01*
X44308651Y-24552038D01*
X44317830Y-24532632D01*
X44328866Y-24514219D01*
X44341654Y-24496976D01*
X44356070Y-24481070D01*
X44371976Y-24466654D01*
X44389219Y-24453866D01*
X44407632Y-24442830D01*
X44427038Y-24433651D01*
X44447250Y-24426419D01*
X44468074Y-24421203D01*
X44489309Y-24418053D01*
X44510750Y-24417000D01*
X44948250Y-24417000D01*
X44969691Y-24418053D01*
G37*
G36*
X43394691Y-24418053D02*
G01*
X43415926Y-24421203D01*
X43436750Y-24426419D01*
X43456962Y-24433651D01*
X43476368Y-24442830D01*
X43494781Y-24453866D01*
X43512024Y-24466654D01*
X43527930Y-24481070D01*
X43542346Y-24496976D01*
X43555134Y-24514219D01*
X43566170Y-24532632D01*
X43575349Y-24552038D01*
X43582581Y-24572250D01*
X43587797Y-24593074D01*
X43590947Y-24614309D01*
X43592000Y-24635750D01*
X43592000Y-25148250D01*
X43590947Y-25169691D01*
X43587797Y-25190926D01*
X43582581Y-25211750D01*
X43575349Y-25231962D01*
X43566170Y-25251368D01*
X43555134Y-25269781D01*
X43542346Y-25287024D01*
X43527930Y-25302930D01*
X43512024Y-25317346D01*
X43494781Y-25330134D01*
X43476368Y-25341170D01*
X43456962Y-25350349D01*
X43436750Y-25357581D01*
X43415926Y-25362797D01*
X43394691Y-25365947D01*
X43373250Y-25367000D01*
X42935750Y-25367000D01*
X42914309Y-25365947D01*
X42893074Y-25362797D01*
X42872250Y-25357581D01*
X42852038Y-25350349D01*
X42832632Y-25341170D01*
X42814219Y-25330134D01*
X42796976Y-25317346D01*
X42781070Y-25302930D01*
X42766654Y-25287024D01*
X42753866Y-25269781D01*
X42742830Y-25251368D01*
X42733651Y-25231962D01*
X42726419Y-25211750D01*
X42721203Y-25190926D01*
X42718053Y-25169691D01*
X42717000Y-25148250D01*
X42717000Y-24635750D01*
X42718053Y-24614309D01*
X42721203Y-24593074D01*
X42726419Y-24572250D01*
X42733651Y-24552038D01*
X42742830Y-24532632D01*
X42753866Y-24514219D01*
X42766654Y-24496976D01*
X42781070Y-24481070D01*
X42796976Y-24466654D01*
X42814219Y-24453866D01*
X42832632Y-24442830D01*
X42852038Y-24433651D01*
X42872250Y-24426419D01*
X42893074Y-24421203D01*
X42914309Y-24418053D01*
X42935750Y-24417000D01*
X43373250Y-24417000D01*
X43394691Y-24418053D01*
G37*
G36*
X49541691Y-21243053D02*
G01*
X49562926Y-21246203D01*
X49583750Y-21251419D01*
X49603962Y-21258651D01*
X49623368Y-21267830D01*
X49641781Y-21278866D01*
X49659024Y-21291654D01*
X49674930Y-21306070D01*
X49689346Y-21321976D01*
X49702134Y-21339219D01*
X49713170Y-21357632D01*
X49722349Y-21377038D01*
X49729581Y-21397250D01*
X49734797Y-21418074D01*
X49737947Y-21439309D01*
X49739000Y-21460750D01*
X49739000Y-21973250D01*
X49737947Y-21994691D01*
X49734797Y-22015926D01*
X49729581Y-22036750D01*
X49722349Y-22056962D01*
X49713170Y-22076368D01*
X49702134Y-22094781D01*
X49689346Y-22112024D01*
X49674930Y-22127930D01*
X49659024Y-22142346D01*
X49641781Y-22155134D01*
X49623368Y-22166170D01*
X49603962Y-22175349D01*
X49583750Y-22182581D01*
X49562926Y-22187797D01*
X49541691Y-22190947D01*
X49520250Y-22192000D01*
X49082750Y-22192000D01*
X49061309Y-22190947D01*
X49040074Y-22187797D01*
X49019250Y-22182581D01*
X48999038Y-22175349D01*
X48979632Y-22166170D01*
X48961219Y-22155134D01*
X48943976Y-22142346D01*
X48928070Y-22127930D01*
X48913654Y-22112024D01*
X48900866Y-22094781D01*
X48889830Y-22076368D01*
X48880651Y-22056962D01*
X48873419Y-22036750D01*
X48868203Y-22015926D01*
X48865053Y-21994691D01*
X48864000Y-21973250D01*
X48864000Y-21460750D01*
X48865053Y-21439309D01*
X48868203Y-21418074D01*
X48873419Y-21397250D01*
X48880651Y-21377038D01*
X48889830Y-21357632D01*
X48900866Y-21339219D01*
X48913654Y-21321976D01*
X48928070Y-21306070D01*
X48943976Y-21291654D01*
X48961219Y-21278866D01*
X48979632Y-21267830D01*
X48999038Y-21258651D01*
X49019250Y-21251419D01*
X49040074Y-21246203D01*
X49061309Y-21243053D01*
X49082750Y-21242000D01*
X49520250Y-21242000D01*
X49541691Y-21243053D01*
G37*
G36*
X47966691Y-21243053D02*
G01*
X47987926Y-21246203D01*
X48008750Y-21251419D01*
X48028962Y-21258651D01*
X48048368Y-21267830D01*
X48066781Y-21278866D01*
X48084024Y-21291654D01*
X48099930Y-21306070D01*
X48114346Y-21321976D01*
X48127134Y-21339219D01*
X48138170Y-21357632D01*
X48147349Y-21377038D01*
X48154581Y-21397250D01*
X48159797Y-21418074D01*
X48162947Y-21439309D01*
X48164000Y-21460750D01*
X48164000Y-21973250D01*
X48162947Y-21994691D01*
X48159797Y-22015926D01*
X48154581Y-22036750D01*
X48147349Y-22056962D01*
X48138170Y-22076368D01*
X48127134Y-22094781D01*
X48114346Y-22112024D01*
X48099930Y-22127930D01*
X48084024Y-22142346D01*
X48066781Y-22155134D01*
X48048368Y-22166170D01*
X48028962Y-22175349D01*
X48008750Y-22182581D01*
X47987926Y-22187797D01*
X47966691Y-22190947D01*
X47945250Y-22192000D01*
X47507750Y-22192000D01*
X47486309Y-22190947D01*
X47465074Y-22187797D01*
X47444250Y-22182581D01*
X47424038Y-22175349D01*
X47404632Y-22166170D01*
X47386219Y-22155134D01*
X47368976Y-22142346D01*
X47353070Y-22127930D01*
X47338654Y-22112024D01*
X47325866Y-22094781D01*
X47314830Y-22076368D01*
X47305651Y-22056962D01*
X47298419Y-22036750D01*
X47293203Y-22015926D01*
X47290053Y-21994691D01*
X47289000Y-21973250D01*
X47289000Y-21460750D01*
X47290053Y-21439309D01*
X47293203Y-21418074D01*
X47298419Y-21397250D01*
X47305651Y-21377038D01*
X47314830Y-21357632D01*
X47325866Y-21339219D01*
X47338654Y-21321976D01*
X47353070Y-21306070D01*
X47368976Y-21291654D01*
X47386219Y-21278866D01*
X47404632Y-21267830D01*
X47424038Y-21258651D01*
X47444250Y-21251419D01*
X47465074Y-21246203D01*
X47486309Y-21243053D01*
X47507750Y-21242000D01*
X47945250Y-21242000D01*
X47966691Y-21243053D01*
G37*
G36*
X43394691Y-21243053D02*
G01*
X43415926Y-21246203D01*
X43436750Y-21251419D01*
X43456962Y-21258651D01*
X43476368Y-21267830D01*
X43494781Y-21278866D01*
X43512024Y-21291654D01*
X43527930Y-21306070D01*
X43542346Y-21321976D01*
X43555134Y-21339219D01*
X43566170Y-21357632D01*
X43575349Y-21377038D01*
X43582581Y-21397250D01*
X43587797Y-21418074D01*
X43590947Y-21439309D01*
X43592000Y-21460750D01*
X43592000Y-21973250D01*
X43590947Y-21994691D01*
X43587797Y-22015926D01*
X43582581Y-22036750D01*
X43575349Y-22056962D01*
X43566170Y-22076368D01*
X43555134Y-22094781D01*
X43542346Y-22112024D01*
X43527930Y-22127930D01*
X43512024Y-22142346D01*
X43494781Y-22155134D01*
X43476368Y-22166170D01*
X43456962Y-22175349D01*
X43436750Y-22182581D01*
X43415926Y-22187797D01*
X43394691Y-22190947D01*
X43373250Y-22192000D01*
X42935750Y-22192000D01*
X42914309Y-22190947D01*
X42893074Y-22187797D01*
X42872250Y-22182581D01*
X42852038Y-22175349D01*
X42832632Y-22166170D01*
X42814219Y-22155134D01*
X42796976Y-22142346D01*
X42781070Y-22127930D01*
X42766654Y-22112024D01*
X42753866Y-22094781D01*
X42742830Y-22076368D01*
X42733651Y-22056962D01*
X42726419Y-22036750D01*
X42721203Y-22015926D01*
X42718053Y-21994691D01*
X42717000Y-21973250D01*
X42717000Y-21460750D01*
X42718053Y-21439309D01*
X42721203Y-21418074D01*
X42726419Y-21397250D01*
X42733651Y-21377038D01*
X42742830Y-21357632D01*
X42753866Y-21339219D01*
X42766654Y-21321976D01*
X42781070Y-21306070D01*
X42796976Y-21291654D01*
X42814219Y-21278866D01*
X42832632Y-21267830D01*
X42852038Y-21258651D01*
X42872250Y-21251419D01*
X42893074Y-21246203D01*
X42914309Y-21243053D01*
X42935750Y-21242000D01*
X43373250Y-21242000D01*
X43394691Y-21243053D01*
G37*
G36*
X44969691Y-21243053D02*
G01*
X44990926Y-21246203D01*
X45011750Y-21251419D01*
X45031962Y-21258651D01*
X45051368Y-21267830D01*
X45069781Y-21278866D01*
X45087024Y-21291654D01*
X45102930Y-21306070D01*
X45117346Y-21321976D01*
X45130134Y-21339219D01*
X45141170Y-21357632D01*
X45150349Y-21377038D01*
X45157581Y-21397250D01*
X45162797Y-21418074D01*
X45165947Y-21439309D01*
X45167000Y-21460750D01*
X45167000Y-21973250D01*
X45165947Y-21994691D01*
X45162797Y-22015926D01*
X45157581Y-22036750D01*
X45150349Y-22056962D01*
X45141170Y-22076368D01*
X45130134Y-22094781D01*
X45117346Y-22112024D01*
X45102930Y-22127930D01*
X45087024Y-22142346D01*
X45069781Y-22155134D01*
X45051368Y-22166170D01*
X45031962Y-22175349D01*
X45011750Y-22182581D01*
X44990926Y-22187797D01*
X44969691Y-22190947D01*
X44948250Y-22192000D01*
X44510750Y-22192000D01*
X44489309Y-22190947D01*
X44468074Y-22187797D01*
X44447250Y-22182581D01*
X44427038Y-22175349D01*
X44407632Y-22166170D01*
X44389219Y-22155134D01*
X44371976Y-22142346D01*
X44356070Y-22127930D01*
X44341654Y-22112024D01*
X44328866Y-22094781D01*
X44317830Y-22076368D01*
X44308651Y-22056962D01*
X44301419Y-22036750D01*
X44296203Y-22015926D01*
X44293053Y-21994691D01*
X44292000Y-21973250D01*
X44292000Y-21460750D01*
X44293053Y-21439309D01*
X44296203Y-21418074D01*
X44301419Y-21397250D01*
X44308651Y-21377038D01*
X44317830Y-21357632D01*
X44328866Y-21339219D01*
X44341654Y-21321976D01*
X44356070Y-21306070D01*
X44371976Y-21291654D01*
X44389219Y-21278866D01*
X44407632Y-21267830D01*
X44427038Y-21258651D01*
X44447250Y-21251419D01*
X44468074Y-21246203D01*
X44489309Y-21243053D01*
X44510750Y-21242000D01*
X44948250Y-21242000D01*
X44969691Y-21243053D01*
G37*
G36*
X20331691Y-12226053D02*
G01*
X20352926Y-12229203D01*
X20373750Y-12234419D01*
X20393962Y-12241651D01*
X20413368Y-12250830D01*
X20431781Y-12261866D01*
X20449024Y-12274654D01*
X20464930Y-12289070D01*
X20479346Y-12304976D01*
X20492134Y-12322219D01*
X20503170Y-12340632D01*
X20512349Y-12360038D01*
X20519581Y-12380250D01*
X20524797Y-12401074D01*
X20527947Y-12422309D01*
X20529000Y-12443750D01*
X20529000Y-12956250D01*
X20527947Y-12977691D01*
X20524797Y-12998926D01*
X20519581Y-13019750D01*
X20512349Y-13039962D01*
X20503170Y-13059368D01*
X20492134Y-13077781D01*
X20479346Y-13095024D01*
X20464930Y-13110930D01*
X20449024Y-13125346D01*
X20431781Y-13138134D01*
X20413368Y-13149170D01*
X20393962Y-13158349D01*
X20373750Y-13165581D01*
X20352926Y-13170797D01*
X20331691Y-13173947D01*
X20310250Y-13175000D01*
X19872750Y-13175000D01*
X19851309Y-13173947D01*
X19830074Y-13170797D01*
X19809250Y-13165581D01*
X19789038Y-13158349D01*
X19769632Y-13149170D01*
X19751219Y-13138134D01*
X19733976Y-13125346D01*
X19718070Y-13110930D01*
X19703654Y-13095024D01*
X19690866Y-13077781D01*
X19679830Y-13059368D01*
X19670651Y-13039962D01*
X19663419Y-13019750D01*
X19658203Y-12998926D01*
X19655053Y-12977691D01*
X19654000Y-12956250D01*
X19654000Y-12443750D01*
X19655053Y-12422309D01*
X19658203Y-12401074D01*
X19663419Y-12380250D01*
X19670651Y-12360038D01*
X19679830Y-12340632D01*
X19690866Y-12322219D01*
X19703654Y-12304976D01*
X19718070Y-12289070D01*
X19733976Y-12274654D01*
X19751219Y-12261866D01*
X19769632Y-12250830D01*
X19789038Y-12241651D01*
X19809250Y-12234419D01*
X19830074Y-12229203D01*
X19851309Y-12226053D01*
X19872750Y-12225000D01*
X20310250Y-12225000D01*
X20331691Y-12226053D01*
G37*
G36*
X18756691Y-12226053D02*
G01*
X18777926Y-12229203D01*
X18798750Y-12234419D01*
X18818962Y-12241651D01*
X18838368Y-12250830D01*
X18856781Y-12261866D01*
X18874024Y-12274654D01*
X18889930Y-12289070D01*
X18904346Y-12304976D01*
X18917134Y-12322219D01*
X18928170Y-12340632D01*
X18937349Y-12360038D01*
X18944581Y-12380250D01*
X18949797Y-12401074D01*
X18952947Y-12422309D01*
X18954000Y-12443750D01*
X18954000Y-12956250D01*
X18952947Y-12977691D01*
X18949797Y-12998926D01*
X18944581Y-13019750D01*
X18937349Y-13039962D01*
X18928170Y-13059368D01*
X18917134Y-13077781D01*
X18904346Y-13095024D01*
X18889930Y-13110930D01*
X18874024Y-13125346D01*
X18856781Y-13138134D01*
X18838368Y-13149170D01*
X18818962Y-13158349D01*
X18798750Y-13165581D01*
X18777926Y-13170797D01*
X18756691Y-13173947D01*
X18735250Y-13175000D01*
X18297750Y-13175000D01*
X18276309Y-13173947D01*
X18255074Y-13170797D01*
X18234250Y-13165581D01*
X18214038Y-13158349D01*
X18194632Y-13149170D01*
X18176219Y-13138134D01*
X18158976Y-13125346D01*
X18143070Y-13110930D01*
X18128654Y-13095024D01*
X18115866Y-13077781D01*
X18104830Y-13059368D01*
X18095651Y-13039962D01*
X18088419Y-13019750D01*
X18083203Y-12998926D01*
X18080053Y-12977691D01*
X18079000Y-12956250D01*
X18079000Y-12443750D01*
X18080053Y-12422309D01*
X18083203Y-12401074D01*
X18088419Y-12380250D01*
X18095651Y-12360038D01*
X18104830Y-12340632D01*
X18115866Y-12322219D01*
X18128654Y-12304976D01*
X18143070Y-12289070D01*
X18158976Y-12274654D01*
X18176219Y-12261866D01*
X18194632Y-12250830D01*
X18214038Y-12241651D01*
X18234250Y-12234419D01*
X18255074Y-12229203D01*
X18276309Y-12226053D01*
X18297750Y-12225000D01*
X18735250Y-12225000D01*
X18756691Y-12226053D01*
G37*
G36*
X44156691Y-29498053D02*
G01*
X44177926Y-29501203D01*
X44198750Y-29506419D01*
X44218962Y-29513651D01*
X44238368Y-29522830D01*
X44256781Y-29533866D01*
X44274024Y-29546654D01*
X44289930Y-29561070D01*
X44304346Y-29576976D01*
X44317134Y-29594219D01*
X44328170Y-29612632D01*
X44337349Y-29632038D01*
X44344581Y-29652250D01*
X44349797Y-29673074D01*
X44352947Y-29694309D01*
X44354000Y-29715750D01*
X44354000Y-30228250D01*
X44352947Y-30249691D01*
X44349797Y-30270926D01*
X44344581Y-30291750D01*
X44337349Y-30311962D01*
X44328170Y-30331368D01*
X44317134Y-30349781D01*
X44304346Y-30367024D01*
X44289930Y-30382930D01*
X44274024Y-30397346D01*
X44256781Y-30410134D01*
X44238368Y-30421170D01*
X44218962Y-30430349D01*
X44198750Y-30437581D01*
X44177926Y-30442797D01*
X44156691Y-30445947D01*
X44135250Y-30447000D01*
X43697750Y-30447000D01*
X43676309Y-30445947D01*
X43655074Y-30442797D01*
X43634250Y-30437581D01*
X43614038Y-30430349D01*
X43594632Y-30421170D01*
X43576219Y-30410134D01*
X43558976Y-30397346D01*
X43543070Y-30382930D01*
X43528654Y-30367024D01*
X43515866Y-30349781D01*
X43504830Y-30331368D01*
X43495651Y-30311962D01*
X43488419Y-30291750D01*
X43483203Y-30270926D01*
X43480053Y-30249691D01*
X43479000Y-30228250D01*
X43479000Y-29715750D01*
X43480053Y-29694309D01*
X43483203Y-29673074D01*
X43488419Y-29652250D01*
X43495651Y-29632038D01*
X43504830Y-29612632D01*
X43515866Y-29594219D01*
X43528654Y-29576976D01*
X43543070Y-29561070D01*
X43558976Y-29546654D01*
X43576219Y-29533866D01*
X43594632Y-29522830D01*
X43614038Y-29513651D01*
X43634250Y-29506419D01*
X43655074Y-29501203D01*
X43676309Y-29498053D01*
X43697750Y-29497000D01*
X44135250Y-29497000D01*
X44156691Y-29498053D01*
G37*
G36*
X45731691Y-29498053D02*
G01*
X45752926Y-29501203D01*
X45773750Y-29506419D01*
X45793962Y-29513651D01*
X45813368Y-29522830D01*
X45831781Y-29533866D01*
X45849024Y-29546654D01*
X45864930Y-29561070D01*
X45879346Y-29576976D01*
X45892134Y-29594219D01*
X45903170Y-29612632D01*
X45912349Y-29632038D01*
X45919581Y-29652250D01*
X45924797Y-29673074D01*
X45927947Y-29694309D01*
X45929000Y-29715750D01*
X45929000Y-30228250D01*
X45927947Y-30249691D01*
X45924797Y-30270926D01*
X45919581Y-30291750D01*
X45912349Y-30311962D01*
X45903170Y-30331368D01*
X45892134Y-30349781D01*
X45879346Y-30367024D01*
X45864930Y-30382930D01*
X45849024Y-30397346D01*
X45831781Y-30410134D01*
X45813368Y-30421170D01*
X45793962Y-30430349D01*
X45773750Y-30437581D01*
X45752926Y-30442797D01*
X45731691Y-30445947D01*
X45710250Y-30447000D01*
X45272750Y-30447000D01*
X45251309Y-30445947D01*
X45230074Y-30442797D01*
X45209250Y-30437581D01*
X45189038Y-30430349D01*
X45169632Y-30421170D01*
X45151219Y-30410134D01*
X45133976Y-30397346D01*
X45118070Y-30382930D01*
X45103654Y-30367024D01*
X45090866Y-30349781D01*
X45079830Y-30331368D01*
X45070651Y-30311962D01*
X45063419Y-30291750D01*
X45058203Y-30270926D01*
X45055053Y-30249691D01*
X45054000Y-30228250D01*
X45054000Y-29715750D01*
X45055053Y-29694309D01*
X45058203Y-29673074D01*
X45063419Y-29652250D01*
X45070651Y-29632038D01*
X45079830Y-29612632D01*
X45090866Y-29594219D01*
X45103654Y-29576976D01*
X45118070Y-29561070D01*
X45133976Y-29546654D01*
X45151219Y-29533866D01*
X45169632Y-29522830D01*
X45189038Y-29513651D01*
X45209250Y-29506419D01*
X45230074Y-29501203D01*
X45251309Y-29498053D01*
X45272750Y-29497000D01*
X45710250Y-29497000D01*
X45731691Y-29498053D01*
G37*
G36*
X20077691Y-33371553D02*
G01*
X20098926Y-33374703D01*
X20119750Y-33379919D01*
X20139962Y-33387151D01*
X20159368Y-33396330D01*
X20177781Y-33407366D01*
X20195024Y-33420154D01*
X20210930Y-33434570D01*
X20225346Y-33450476D01*
X20238134Y-33467719D01*
X20249170Y-33486132D01*
X20258349Y-33505538D01*
X20265581Y-33525750D01*
X20270797Y-33546574D01*
X20273947Y-33567809D01*
X20275000Y-33589250D01*
X20275000Y-34101750D01*
X20273947Y-34123191D01*
X20270797Y-34144426D01*
X20265581Y-34165250D01*
X20258349Y-34185462D01*
X20249170Y-34204868D01*
X20238134Y-34223281D01*
X20225346Y-34240524D01*
X20210930Y-34256430D01*
X20195024Y-34270846D01*
X20177781Y-34283634D01*
X20159368Y-34294670D01*
X20139962Y-34303849D01*
X20119750Y-34311081D01*
X20098926Y-34316297D01*
X20077691Y-34319447D01*
X20056250Y-34320500D01*
X19618750Y-34320500D01*
X19597309Y-34319447D01*
X19576074Y-34316297D01*
X19555250Y-34311081D01*
X19535038Y-34303849D01*
X19515632Y-34294670D01*
X19497219Y-34283634D01*
X19479976Y-34270846D01*
X19464070Y-34256430D01*
X19449654Y-34240524D01*
X19436866Y-34223281D01*
X19425830Y-34204868D01*
X19416651Y-34185462D01*
X19409419Y-34165250D01*
X19404203Y-34144426D01*
X19401053Y-34123191D01*
X19400000Y-34101750D01*
X19400000Y-33589250D01*
X19401053Y-33567809D01*
X19404203Y-33546574D01*
X19409419Y-33525750D01*
X19416651Y-33505538D01*
X19425830Y-33486132D01*
X19436866Y-33467719D01*
X19449654Y-33450476D01*
X19464070Y-33434570D01*
X19479976Y-33420154D01*
X19497219Y-33407366D01*
X19515632Y-33396330D01*
X19535038Y-33387151D01*
X19555250Y-33379919D01*
X19576074Y-33374703D01*
X19597309Y-33371553D01*
X19618750Y-33370500D01*
X20056250Y-33370500D01*
X20077691Y-33371553D01*
G37*
G36*
X18502691Y-33371553D02*
G01*
X18523926Y-33374703D01*
X18544750Y-33379919D01*
X18564962Y-33387151D01*
X18584368Y-33396330D01*
X18602781Y-33407366D01*
X18620024Y-33420154D01*
X18635930Y-33434570D01*
X18650346Y-33450476D01*
X18663134Y-33467719D01*
X18674170Y-33486132D01*
X18683349Y-33505538D01*
X18690581Y-33525750D01*
X18695797Y-33546574D01*
X18698947Y-33567809D01*
X18700000Y-33589250D01*
X18700000Y-34101750D01*
X18698947Y-34123191D01*
X18695797Y-34144426D01*
X18690581Y-34165250D01*
X18683349Y-34185462D01*
X18674170Y-34204868D01*
X18663134Y-34223281D01*
X18650346Y-34240524D01*
X18635930Y-34256430D01*
X18620024Y-34270846D01*
X18602781Y-34283634D01*
X18584368Y-34294670D01*
X18564962Y-34303849D01*
X18544750Y-34311081D01*
X18523926Y-34316297D01*
X18502691Y-34319447D01*
X18481250Y-34320500D01*
X18043750Y-34320500D01*
X18022309Y-34319447D01*
X18001074Y-34316297D01*
X17980250Y-34311081D01*
X17960038Y-34303849D01*
X17940632Y-34294670D01*
X17922219Y-34283634D01*
X17904976Y-34270846D01*
X17889070Y-34256430D01*
X17874654Y-34240524D01*
X17861866Y-34223281D01*
X17850830Y-34204868D01*
X17841651Y-34185462D01*
X17834419Y-34165250D01*
X17829203Y-34144426D01*
X17826053Y-34123191D01*
X17825000Y-34101750D01*
X17825000Y-33589250D01*
X17826053Y-33567809D01*
X17829203Y-33546574D01*
X17834419Y-33525750D01*
X17841651Y-33505538D01*
X17850830Y-33486132D01*
X17861866Y-33467719D01*
X17874654Y-33450476D01*
X17889070Y-33434570D01*
X17904976Y-33420154D01*
X17922219Y-33407366D01*
X17940632Y-33396330D01*
X17960038Y-33387151D01*
X17980250Y-33379919D01*
X18001074Y-33374703D01*
X18022309Y-33371553D01*
X18043750Y-33370500D01*
X18481250Y-33370500D01*
X18502691Y-33371553D01*
G37*
G36*
X48093691Y-10067053D02*
G01*
X48114926Y-10070203D01*
X48135750Y-10075419D01*
X48155962Y-10082651D01*
X48175368Y-10091830D01*
X48193781Y-10102866D01*
X48211024Y-10115654D01*
X48226930Y-10130070D01*
X48241346Y-10145976D01*
X48254134Y-10163219D01*
X48265170Y-10181632D01*
X48274349Y-10201038D01*
X48281581Y-10221250D01*
X48286797Y-10242074D01*
X48289947Y-10263309D01*
X48291000Y-10284750D01*
X48291000Y-10797250D01*
X48289947Y-10818691D01*
X48286797Y-10839926D01*
X48281581Y-10860750D01*
X48274349Y-10880962D01*
X48265170Y-10900368D01*
X48254134Y-10918781D01*
X48241346Y-10936024D01*
X48226930Y-10951930D01*
X48211024Y-10966346D01*
X48193781Y-10979134D01*
X48175368Y-10990170D01*
X48155962Y-10999349D01*
X48135750Y-11006581D01*
X48114926Y-11011797D01*
X48093691Y-11014947D01*
X48072250Y-11016000D01*
X47634750Y-11016000D01*
X47613309Y-11014947D01*
X47592074Y-11011797D01*
X47571250Y-11006581D01*
X47551038Y-10999349D01*
X47531632Y-10990170D01*
X47513219Y-10979134D01*
X47495976Y-10966346D01*
X47480070Y-10951930D01*
X47465654Y-10936024D01*
X47452866Y-10918781D01*
X47441830Y-10900368D01*
X47432651Y-10880962D01*
X47425419Y-10860750D01*
X47420203Y-10839926D01*
X47417053Y-10818691D01*
X47416000Y-10797250D01*
X47416000Y-10284750D01*
X47417053Y-10263309D01*
X47420203Y-10242074D01*
X47425419Y-10221250D01*
X47432651Y-10201038D01*
X47441830Y-10181632D01*
X47452866Y-10163219D01*
X47465654Y-10145976D01*
X47480070Y-10130070D01*
X47495976Y-10115654D01*
X47513219Y-10102866D01*
X47531632Y-10091830D01*
X47551038Y-10082651D01*
X47571250Y-10075419D01*
X47592074Y-10070203D01*
X47613309Y-10067053D01*
X47634750Y-10066000D01*
X48072250Y-10066000D01*
X48093691Y-10067053D01*
G37*
G36*
X49668691Y-10067053D02*
G01*
X49689926Y-10070203D01*
X49710750Y-10075419D01*
X49730962Y-10082651D01*
X49750368Y-10091830D01*
X49768781Y-10102866D01*
X49786024Y-10115654D01*
X49801930Y-10130070D01*
X49816346Y-10145976D01*
X49829134Y-10163219D01*
X49840170Y-10181632D01*
X49849349Y-10201038D01*
X49856581Y-10221250D01*
X49861797Y-10242074D01*
X49864947Y-10263309D01*
X49866000Y-10284750D01*
X49866000Y-10797250D01*
X49864947Y-10818691D01*
X49861797Y-10839926D01*
X49856581Y-10860750D01*
X49849349Y-10880962D01*
X49840170Y-10900368D01*
X49829134Y-10918781D01*
X49816346Y-10936024D01*
X49801930Y-10951930D01*
X49786024Y-10966346D01*
X49768781Y-10979134D01*
X49750368Y-10990170D01*
X49730962Y-10999349D01*
X49710750Y-11006581D01*
X49689926Y-11011797D01*
X49668691Y-11014947D01*
X49647250Y-11016000D01*
X49209750Y-11016000D01*
X49188309Y-11014947D01*
X49167074Y-11011797D01*
X49146250Y-11006581D01*
X49126038Y-10999349D01*
X49106632Y-10990170D01*
X49088219Y-10979134D01*
X49070976Y-10966346D01*
X49055070Y-10951930D01*
X49040654Y-10936024D01*
X49027866Y-10918781D01*
X49016830Y-10900368D01*
X49007651Y-10880962D01*
X49000419Y-10860750D01*
X48995203Y-10839926D01*
X48992053Y-10818691D01*
X48991000Y-10797250D01*
X48991000Y-10284750D01*
X48992053Y-10263309D01*
X48995203Y-10242074D01*
X49000419Y-10221250D01*
X49007651Y-10201038D01*
X49016830Y-10181632D01*
X49027866Y-10163219D01*
X49040654Y-10145976D01*
X49055070Y-10130070D01*
X49070976Y-10115654D01*
X49088219Y-10102866D01*
X49106632Y-10091830D01*
X49126038Y-10082651D01*
X49146250Y-10075419D01*
X49167074Y-10070203D01*
X49188309Y-10067053D01*
X49209750Y-10066000D01*
X49647250Y-10066000D01*
X49668691Y-10067053D01*
G37*
G36*
X45096691Y-10067053D02*
G01*
X45117926Y-10070203D01*
X45138750Y-10075419D01*
X45158962Y-10082651D01*
X45178368Y-10091830D01*
X45196781Y-10102866D01*
X45214024Y-10115654D01*
X45229930Y-10130070D01*
X45244346Y-10145976D01*
X45257134Y-10163219D01*
X45268170Y-10181632D01*
X45277349Y-10201038D01*
X45284581Y-10221250D01*
X45289797Y-10242074D01*
X45292947Y-10263309D01*
X45294000Y-10284750D01*
X45294000Y-10797250D01*
X45292947Y-10818691D01*
X45289797Y-10839926D01*
X45284581Y-10860750D01*
X45277349Y-10880962D01*
X45268170Y-10900368D01*
X45257134Y-10918781D01*
X45244346Y-10936024D01*
X45229930Y-10951930D01*
X45214024Y-10966346D01*
X45196781Y-10979134D01*
X45178368Y-10990170D01*
X45158962Y-10999349D01*
X45138750Y-11006581D01*
X45117926Y-11011797D01*
X45096691Y-11014947D01*
X45075250Y-11016000D01*
X44637750Y-11016000D01*
X44616309Y-11014947D01*
X44595074Y-11011797D01*
X44574250Y-11006581D01*
X44554038Y-10999349D01*
X44534632Y-10990170D01*
X44516219Y-10979134D01*
X44498976Y-10966346D01*
X44483070Y-10951930D01*
X44468654Y-10936024D01*
X44455866Y-10918781D01*
X44444830Y-10900368D01*
X44435651Y-10880962D01*
X44428419Y-10860750D01*
X44423203Y-10839926D01*
X44420053Y-10818691D01*
X44419000Y-10797250D01*
X44419000Y-10284750D01*
X44420053Y-10263309D01*
X44423203Y-10242074D01*
X44428419Y-10221250D01*
X44435651Y-10201038D01*
X44444830Y-10181632D01*
X44455866Y-10163219D01*
X44468654Y-10145976D01*
X44483070Y-10130070D01*
X44498976Y-10115654D01*
X44516219Y-10102866D01*
X44534632Y-10091830D01*
X44554038Y-10082651D01*
X44574250Y-10075419D01*
X44595074Y-10070203D01*
X44616309Y-10067053D01*
X44637750Y-10066000D01*
X45075250Y-10066000D01*
X45096691Y-10067053D01*
G37*
G36*
X43521691Y-10067053D02*
G01*
X43542926Y-10070203D01*
X43563750Y-10075419D01*
X43583962Y-10082651D01*
X43603368Y-10091830D01*
X43621781Y-10102866D01*
X43639024Y-10115654D01*
X43654930Y-10130070D01*
X43669346Y-10145976D01*
X43682134Y-10163219D01*
X43693170Y-10181632D01*
X43702349Y-10201038D01*
X43709581Y-10221250D01*
X43714797Y-10242074D01*
X43717947Y-10263309D01*
X43719000Y-10284750D01*
X43719000Y-10797250D01*
X43717947Y-10818691D01*
X43714797Y-10839926D01*
X43709581Y-10860750D01*
X43702349Y-10880962D01*
X43693170Y-10900368D01*
X43682134Y-10918781D01*
X43669346Y-10936024D01*
X43654930Y-10951930D01*
X43639024Y-10966346D01*
X43621781Y-10979134D01*
X43603368Y-10990170D01*
X43583962Y-10999349D01*
X43563750Y-11006581D01*
X43542926Y-11011797D01*
X43521691Y-11014947D01*
X43500250Y-11016000D01*
X43062750Y-11016000D01*
X43041309Y-11014947D01*
X43020074Y-11011797D01*
X42999250Y-11006581D01*
X42979038Y-10999349D01*
X42959632Y-10990170D01*
X42941219Y-10979134D01*
X42923976Y-10966346D01*
X42908070Y-10951930D01*
X42893654Y-10936024D01*
X42880866Y-10918781D01*
X42869830Y-10900368D01*
X42860651Y-10880962D01*
X42853419Y-10860750D01*
X42848203Y-10839926D01*
X42845053Y-10818691D01*
X42844000Y-10797250D01*
X42844000Y-10284750D01*
X42845053Y-10263309D01*
X42848203Y-10242074D01*
X42853419Y-10221250D01*
X42860651Y-10201038D01*
X42869830Y-10181632D01*
X42880866Y-10163219D01*
X42893654Y-10145976D01*
X42908070Y-10130070D01*
X42923976Y-10115654D01*
X42941219Y-10102866D01*
X42959632Y-10091830D01*
X42979038Y-10082651D01*
X42999250Y-10075419D01*
X43020074Y-10070203D01*
X43041309Y-10067053D01*
X43062750Y-10066000D01*
X43500250Y-10066000D01*
X43521691Y-10067053D01*
G37*
G36*
X32548691Y-29320053D02*
G01*
X32569926Y-29323203D01*
X32590750Y-29328419D01*
X32610962Y-29335651D01*
X32630368Y-29344830D01*
X32648781Y-29355866D01*
X32666024Y-29368654D01*
X32681930Y-29383070D01*
X32696346Y-29398976D01*
X32709134Y-29416219D01*
X32720170Y-29434632D01*
X32729349Y-29454038D01*
X32736581Y-29474250D01*
X32741797Y-29495074D01*
X32744947Y-29516309D01*
X32746000Y-29537750D01*
X32746000Y-30050250D01*
X32744947Y-30071691D01*
X32741797Y-30092926D01*
X32736581Y-30113750D01*
X32729349Y-30133962D01*
X32720170Y-30153368D01*
X32709134Y-30171781D01*
X32696346Y-30189024D01*
X32681930Y-30204930D01*
X32666024Y-30219346D01*
X32648781Y-30232134D01*
X32630368Y-30243170D01*
X32610962Y-30252349D01*
X32590750Y-30259581D01*
X32569926Y-30264797D01*
X32548691Y-30267947D01*
X32527250Y-30269000D01*
X32089750Y-30269000D01*
X32068309Y-30267947D01*
X32047074Y-30264797D01*
X32026250Y-30259581D01*
X32006038Y-30252349D01*
X31986632Y-30243170D01*
X31968219Y-30232134D01*
X31950976Y-30219346D01*
X31935070Y-30204930D01*
X31920654Y-30189024D01*
X31907866Y-30171781D01*
X31896830Y-30153368D01*
X31887651Y-30133962D01*
X31880419Y-30113750D01*
X31875203Y-30092926D01*
X31872053Y-30071691D01*
X31871000Y-30050250D01*
X31871000Y-29537750D01*
X31872053Y-29516309D01*
X31875203Y-29495074D01*
X31880419Y-29474250D01*
X31887651Y-29454038D01*
X31896830Y-29434632D01*
X31907866Y-29416219D01*
X31920654Y-29398976D01*
X31935070Y-29383070D01*
X31950976Y-29368654D01*
X31968219Y-29355866D01*
X31986632Y-29344830D01*
X32006038Y-29335651D01*
X32026250Y-29328419D01*
X32047074Y-29323203D01*
X32068309Y-29320053D01*
X32089750Y-29319000D01*
X32527250Y-29319000D01*
X32548691Y-29320053D01*
G37*
G36*
X34123691Y-29320053D02*
G01*
X34144926Y-29323203D01*
X34165750Y-29328419D01*
X34185962Y-29335651D01*
X34205368Y-29344830D01*
X34223781Y-29355866D01*
X34241024Y-29368654D01*
X34256930Y-29383070D01*
X34271346Y-29398976D01*
X34284134Y-29416219D01*
X34295170Y-29434632D01*
X34304349Y-29454038D01*
X34311581Y-29474250D01*
X34316797Y-29495074D01*
X34319947Y-29516309D01*
X34321000Y-29537750D01*
X34321000Y-30050250D01*
X34319947Y-30071691D01*
X34316797Y-30092926D01*
X34311581Y-30113750D01*
X34304349Y-30133962D01*
X34295170Y-30153368D01*
X34284134Y-30171781D01*
X34271346Y-30189024D01*
X34256930Y-30204930D01*
X34241024Y-30219346D01*
X34223781Y-30232134D01*
X34205368Y-30243170D01*
X34185962Y-30252349D01*
X34165750Y-30259581D01*
X34144926Y-30264797D01*
X34123691Y-30267947D01*
X34102250Y-30269000D01*
X33664750Y-30269000D01*
X33643309Y-30267947D01*
X33622074Y-30264797D01*
X33601250Y-30259581D01*
X33581038Y-30252349D01*
X33561632Y-30243170D01*
X33543219Y-30232134D01*
X33525976Y-30219346D01*
X33510070Y-30204930D01*
X33495654Y-30189024D01*
X33482866Y-30171781D01*
X33471830Y-30153368D01*
X33462651Y-30133962D01*
X33455419Y-30113750D01*
X33450203Y-30092926D01*
X33447053Y-30071691D01*
X33446000Y-30050250D01*
X33446000Y-29537750D01*
X33447053Y-29516309D01*
X33450203Y-29495074D01*
X33455419Y-29474250D01*
X33462651Y-29454038D01*
X33471830Y-29434632D01*
X33482866Y-29416219D01*
X33495654Y-29398976D01*
X33510070Y-29383070D01*
X33525976Y-29368654D01*
X33543219Y-29355866D01*
X33561632Y-29344830D01*
X33581038Y-29335651D01*
X33601250Y-29328419D01*
X33622074Y-29323203D01*
X33643309Y-29320053D01*
X33664750Y-29319000D01*
X34102250Y-29319000D01*
X34123691Y-29320053D01*
G37*
G36*
X16394691Y-17814053D02*
G01*
X16415926Y-17817203D01*
X16436750Y-17822419D01*
X16456962Y-17829651D01*
X16476368Y-17838830D01*
X16494781Y-17849866D01*
X16512024Y-17862654D01*
X16527930Y-17877070D01*
X16542346Y-17892976D01*
X16555134Y-17910219D01*
X16566170Y-17928632D01*
X16575349Y-17948038D01*
X16582581Y-17968250D01*
X16587797Y-17989074D01*
X16590947Y-18010309D01*
X16592000Y-18031750D01*
X16592000Y-18544250D01*
X16590947Y-18565691D01*
X16587797Y-18586926D01*
X16582581Y-18607750D01*
X16575349Y-18627962D01*
X16566170Y-18647368D01*
X16555134Y-18665781D01*
X16542346Y-18683024D01*
X16527930Y-18698930D01*
X16512024Y-18713346D01*
X16494781Y-18726134D01*
X16476368Y-18737170D01*
X16456962Y-18746349D01*
X16436750Y-18753581D01*
X16415926Y-18758797D01*
X16394691Y-18761947D01*
X16373250Y-18763000D01*
X15935750Y-18763000D01*
X15914309Y-18761947D01*
X15893074Y-18758797D01*
X15872250Y-18753581D01*
X15852038Y-18746349D01*
X15832632Y-18737170D01*
X15814219Y-18726134D01*
X15796976Y-18713346D01*
X15781070Y-18698930D01*
X15766654Y-18683024D01*
X15753866Y-18665781D01*
X15742830Y-18647368D01*
X15733651Y-18627962D01*
X15726419Y-18607750D01*
X15721203Y-18586926D01*
X15718053Y-18565691D01*
X15717000Y-18544250D01*
X15717000Y-18031750D01*
X15718053Y-18010309D01*
X15721203Y-17989074D01*
X15726419Y-17968250D01*
X15733651Y-17948038D01*
X15742830Y-17928632D01*
X15753866Y-17910219D01*
X15766654Y-17892976D01*
X15781070Y-17877070D01*
X15796976Y-17862654D01*
X15814219Y-17849866D01*
X15832632Y-17838830D01*
X15852038Y-17829651D01*
X15872250Y-17822419D01*
X15893074Y-17817203D01*
X15914309Y-17814053D01*
X15935750Y-17813000D01*
X16373250Y-17813000D01*
X16394691Y-17814053D01*
G37*
G36*
X14819691Y-17814053D02*
G01*
X14840926Y-17817203D01*
X14861750Y-17822419D01*
X14881962Y-17829651D01*
X14901368Y-17838830D01*
X14919781Y-17849866D01*
X14937024Y-17862654D01*
X14952930Y-17877070D01*
X14967346Y-17892976D01*
X14980134Y-17910219D01*
X14991170Y-17928632D01*
X15000349Y-17948038D01*
X15007581Y-17968250D01*
X15012797Y-17989074D01*
X15015947Y-18010309D01*
X15017000Y-18031750D01*
X15017000Y-18544250D01*
X15015947Y-18565691D01*
X15012797Y-18586926D01*
X15007581Y-18607750D01*
X15000349Y-18627962D01*
X14991170Y-18647368D01*
X14980134Y-18665781D01*
X14967346Y-18683024D01*
X14952930Y-18698930D01*
X14937024Y-18713346D01*
X14919781Y-18726134D01*
X14901368Y-18737170D01*
X14881962Y-18746349D01*
X14861750Y-18753581D01*
X14840926Y-18758797D01*
X14819691Y-18761947D01*
X14798250Y-18763000D01*
X14360750Y-18763000D01*
X14339309Y-18761947D01*
X14318074Y-18758797D01*
X14297250Y-18753581D01*
X14277038Y-18746349D01*
X14257632Y-18737170D01*
X14239219Y-18726134D01*
X14221976Y-18713346D01*
X14206070Y-18698930D01*
X14191654Y-18683024D01*
X14178866Y-18665781D01*
X14167830Y-18647368D01*
X14158651Y-18627962D01*
X14151419Y-18607750D01*
X14146203Y-18586926D01*
X14143053Y-18565691D01*
X14142000Y-18544250D01*
X14142000Y-18031750D01*
X14143053Y-18010309D01*
X14146203Y-17989074D01*
X14151419Y-17968250D01*
X14158651Y-17948038D01*
X14167830Y-17928632D01*
X14178866Y-17910219D01*
X14191654Y-17892976D01*
X14206070Y-17877070D01*
X14221976Y-17862654D01*
X14239219Y-17849866D01*
X14257632Y-17838830D01*
X14277038Y-17829651D01*
X14297250Y-17822419D01*
X14318074Y-17817203D01*
X14339309Y-17814053D01*
X14360750Y-17813000D01*
X14798250Y-17813000D01*
X14819691Y-17814053D01*
G37*
G36*
X16394691Y-16290053D02*
G01*
X16415926Y-16293203D01*
X16436750Y-16298419D01*
X16456962Y-16305651D01*
X16476368Y-16314830D01*
X16494781Y-16325866D01*
X16512024Y-16338654D01*
X16527930Y-16353070D01*
X16542346Y-16368976D01*
X16555134Y-16386219D01*
X16566170Y-16404632D01*
X16575349Y-16424038D01*
X16582581Y-16444250D01*
X16587797Y-16465074D01*
X16590947Y-16486309D01*
X16592000Y-16507750D01*
X16592000Y-17020250D01*
X16590947Y-17041691D01*
X16587797Y-17062926D01*
X16582581Y-17083750D01*
X16575349Y-17103962D01*
X16566170Y-17123368D01*
X16555134Y-17141781D01*
X16542346Y-17159024D01*
X16527930Y-17174930D01*
X16512024Y-17189346D01*
X16494781Y-17202134D01*
X16476368Y-17213170D01*
X16456962Y-17222349D01*
X16436750Y-17229581D01*
X16415926Y-17234797D01*
X16394691Y-17237947D01*
X16373250Y-17239000D01*
X15935750Y-17239000D01*
X15914309Y-17237947D01*
X15893074Y-17234797D01*
X15872250Y-17229581D01*
X15852038Y-17222349D01*
X15832632Y-17213170D01*
X15814219Y-17202134D01*
X15796976Y-17189346D01*
X15781070Y-17174930D01*
X15766654Y-17159024D01*
X15753866Y-17141781D01*
X15742830Y-17123368D01*
X15733651Y-17103962D01*
X15726419Y-17083750D01*
X15721203Y-17062926D01*
X15718053Y-17041691D01*
X15717000Y-17020250D01*
X15717000Y-16507750D01*
X15718053Y-16486309D01*
X15721203Y-16465074D01*
X15726419Y-16444250D01*
X15733651Y-16424038D01*
X15742830Y-16404632D01*
X15753866Y-16386219D01*
X15766654Y-16368976D01*
X15781070Y-16353070D01*
X15796976Y-16338654D01*
X15814219Y-16325866D01*
X15832632Y-16314830D01*
X15852038Y-16305651D01*
X15872250Y-16298419D01*
X15893074Y-16293203D01*
X15914309Y-16290053D01*
X15935750Y-16289000D01*
X16373250Y-16289000D01*
X16394691Y-16290053D01*
G37*
G36*
X14819691Y-16290053D02*
G01*
X14840926Y-16293203D01*
X14861750Y-16298419D01*
X14881962Y-16305651D01*
X14901368Y-16314830D01*
X14919781Y-16325866D01*
X14937024Y-16338654D01*
X14952930Y-16353070D01*
X14967346Y-16368976D01*
X14980134Y-16386219D01*
X14991170Y-16404632D01*
X15000349Y-16424038D01*
X15007581Y-16444250D01*
X15012797Y-16465074D01*
X15015947Y-16486309D01*
X15017000Y-16507750D01*
X15017000Y-17020250D01*
X15015947Y-17041691D01*
X15012797Y-17062926D01*
X15007581Y-17083750D01*
X15000349Y-17103962D01*
X14991170Y-17123368D01*
X14980134Y-17141781D01*
X14967346Y-17159024D01*
X14952930Y-17174930D01*
X14937024Y-17189346D01*
X14919781Y-17202134D01*
X14901368Y-17213170D01*
X14881962Y-17222349D01*
X14861750Y-17229581D01*
X14840926Y-17234797D01*
X14819691Y-17237947D01*
X14798250Y-17239000D01*
X14360750Y-17239000D01*
X14339309Y-17237947D01*
X14318074Y-17234797D01*
X14297250Y-17229581D01*
X14277038Y-17222349D01*
X14257632Y-17213170D01*
X14239219Y-17202134D01*
X14221976Y-17189346D01*
X14206070Y-17174930D01*
X14191654Y-17159024D01*
X14178866Y-17141781D01*
X14167830Y-17123368D01*
X14158651Y-17103962D01*
X14151419Y-17083750D01*
X14146203Y-17062926D01*
X14143053Y-17041691D01*
X14142000Y-17020250D01*
X14142000Y-16507750D01*
X14143053Y-16486309D01*
X14146203Y-16465074D01*
X14151419Y-16444250D01*
X14158651Y-16424038D01*
X14167830Y-16404632D01*
X14178866Y-16386219D01*
X14191654Y-16368976D01*
X14206070Y-16353070D01*
X14221976Y-16338654D01*
X14239219Y-16325866D01*
X14257632Y-16314830D01*
X14277038Y-16305651D01*
X14297250Y-16298419D01*
X14318074Y-16293203D01*
X14339309Y-16290053D01*
X14360750Y-16289000D01*
X14798250Y-16289000D01*
X14819691Y-16290053D01*
G37*
G36*
X19645691Y-17814053D02*
G01*
X19666926Y-17817203D01*
X19687750Y-17822419D01*
X19707962Y-17829651D01*
X19727368Y-17838830D01*
X19745781Y-17849866D01*
X19763024Y-17862654D01*
X19778930Y-17877070D01*
X19793346Y-17892976D01*
X19806134Y-17910219D01*
X19817170Y-17928632D01*
X19826349Y-17948038D01*
X19833581Y-17968250D01*
X19838797Y-17989074D01*
X19841947Y-18010309D01*
X19843000Y-18031750D01*
X19843000Y-18544250D01*
X19841947Y-18565691D01*
X19838797Y-18586926D01*
X19833581Y-18607750D01*
X19826349Y-18627962D01*
X19817170Y-18647368D01*
X19806134Y-18665781D01*
X19793346Y-18683024D01*
X19778930Y-18698930D01*
X19763024Y-18713346D01*
X19745781Y-18726134D01*
X19727368Y-18737170D01*
X19707962Y-18746349D01*
X19687750Y-18753581D01*
X19666926Y-18758797D01*
X19645691Y-18761947D01*
X19624250Y-18763000D01*
X19186750Y-18763000D01*
X19165309Y-18761947D01*
X19144074Y-18758797D01*
X19123250Y-18753581D01*
X19103038Y-18746349D01*
X19083632Y-18737170D01*
X19065219Y-18726134D01*
X19047976Y-18713346D01*
X19032070Y-18698930D01*
X19017654Y-18683024D01*
X19004866Y-18665781D01*
X18993830Y-18647368D01*
X18984651Y-18627962D01*
X18977419Y-18607750D01*
X18972203Y-18586926D01*
X18969053Y-18565691D01*
X18968000Y-18544250D01*
X18968000Y-18031750D01*
X18969053Y-18010309D01*
X18972203Y-17989074D01*
X18977419Y-17968250D01*
X18984651Y-17948038D01*
X18993830Y-17928632D01*
X19004866Y-17910219D01*
X19017654Y-17892976D01*
X19032070Y-17877070D01*
X19047976Y-17862654D01*
X19065219Y-17849866D01*
X19083632Y-17838830D01*
X19103038Y-17829651D01*
X19123250Y-17822419D01*
X19144074Y-17817203D01*
X19165309Y-17814053D01*
X19186750Y-17813000D01*
X19624250Y-17813000D01*
X19645691Y-17814053D01*
G37*
G36*
X21220691Y-17814053D02*
G01*
X21241926Y-17817203D01*
X21262750Y-17822419D01*
X21282962Y-17829651D01*
X21302368Y-17838830D01*
X21320781Y-17849866D01*
X21338024Y-17862654D01*
X21353930Y-17877070D01*
X21368346Y-17892976D01*
X21381134Y-17910219D01*
X21392170Y-17928632D01*
X21401349Y-17948038D01*
X21408581Y-17968250D01*
X21413797Y-17989074D01*
X21416947Y-18010309D01*
X21418000Y-18031750D01*
X21418000Y-18544250D01*
X21416947Y-18565691D01*
X21413797Y-18586926D01*
X21408581Y-18607750D01*
X21401349Y-18627962D01*
X21392170Y-18647368D01*
X21381134Y-18665781D01*
X21368346Y-18683024D01*
X21353930Y-18698930D01*
X21338024Y-18713346D01*
X21320781Y-18726134D01*
X21302368Y-18737170D01*
X21282962Y-18746349D01*
X21262750Y-18753581D01*
X21241926Y-18758797D01*
X21220691Y-18761947D01*
X21199250Y-18763000D01*
X20761750Y-18763000D01*
X20740309Y-18761947D01*
X20719074Y-18758797D01*
X20698250Y-18753581D01*
X20678038Y-18746349D01*
X20658632Y-18737170D01*
X20640219Y-18726134D01*
X20622976Y-18713346D01*
X20607070Y-18698930D01*
X20592654Y-18683024D01*
X20579866Y-18665781D01*
X20568830Y-18647368D01*
X20559651Y-18627962D01*
X20552419Y-18607750D01*
X20547203Y-18586926D01*
X20544053Y-18565691D01*
X20543000Y-18544250D01*
X20543000Y-18031750D01*
X20544053Y-18010309D01*
X20547203Y-17989074D01*
X20552419Y-17968250D01*
X20559651Y-17948038D01*
X20568830Y-17928632D01*
X20579866Y-17910219D01*
X20592654Y-17892976D01*
X20607070Y-17877070D01*
X20622976Y-17862654D01*
X20640219Y-17849866D01*
X20658632Y-17838830D01*
X20678038Y-17829651D01*
X20698250Y-17822419D01*
X20719074Y-17817203D01*
X20740309Y-17814053D01*
X20761750Y-17813000D01*
X21199250Y-17813000D01*
X21220691Y-17814053D01*
G37*
G36*
X19645691Y-16290053D02*
G01*
X19666926Y-16293203D01*
X19687750Y-16298419D01*
X19707962Y-16305651D01*
X19727368Y-16314830D01*
X19745781Y-16325866D01*
X19763024Y-16338654D01*
X19778930Y-16353070D01*
X19793346Y-16368976D01*
X19806134Y-16386219D01*
X19817170Y-16404632D01*
X19826349Y-16424038D01*
X19833581Y-16444250D01*
X19838797Y-16465074D01*
X19841947Y-16486309D01*
X19843000Y-16507750D01*
X19843000Y-17020250D01*
X19841947Y-17041691D01*
X19838797Y-17062926D01*
X19833581Y-17083750D01*
X19826349Y-17103962D01*
X19817170Y-17123368D01*
X19806134Y-17141781D01*
X19793346Y-17159024D01*
X19778930Y-17174930D01*
X19763024Y-17189346D01*
X19745781Y-17202134D01*
X19727368Y-17213170D01*
X19707962Y-17222349D01*
X19687750Y-17229581D01*
X19666926Y-17234797D01*
X19645691Y-17237947D01*
X19624250Y-17239000D01*
X19186750Y-17239000D01*
X19165309Y-17237947D01*
X19144074Y-17234797D01*
X19123250Y-17229581D01*
X19103038Y-17222349D01*
X19083632Y-17213170D01*
X19065219Y-17202134D01*
X19047976Y-17189346D01*
X19032070Y-17174930D01*
X19017654Y-17159024D01*
X19004866Y-17141781D01*
X18993830Y-17123368D01*
X18984651Y-17103962D01*
X18977419Y-17083750D01*
X18972203Y-17062926D01*
X18969053Y-17041691D01*
X18968000Y-17020250D01*
X18968000Y-16507750D01*
X18969053Y-16486309D01*
X18972203Y-16465074D01*
X18977419Y-16444250D01*
X18984651Y-16424038D01*
X18993830Y-16404632D01*
X19004866Y-16386219D01*
X19017654Y-16368976D01*
X19032070Y-16353070D01*
X19047976Y-16338654D01*
X19065219Y-16325866D01*
X19083632Y-16314830D01*
X19103038Y-16305651D01*
X19123250Y-16298419D01*
X19144074Y-16293203D01*
X19165309Y-16290053D01*
X19186750Y-16289000D01*
X19624250Y-16289000D01*
X19645691Y-16290053D01*
G37*
G36*
X21220691Y-16290053D02*
G01*
X21241926Y-16293203D01*
X21262750Y-16298419D01*
X21282962Y-16305651D01*
X21302368Y-16314830D01*
X21320781Y-16325866D01*
X21338024Y-16338654D01*
X21353930Y-16353070D01*
X21368346Y-16368976D01*
X21381134Y-16386219D01*
X21392170Y-16404632D01*
X21401349Y-16424038D01*
X21408581Y-16444250D01*
X21413797Y-16465074D01*
X21416947Y-16486309D01*
X21418000Y-16507750D01*
X21418000Y-17020250D01*
X21416947Y-17041691D01*
X21413797Y-17062926D01*
X21408581Y-17083750D01*
X21401349Y-17103962D01*
X21392170Y-17123368D01*
X21381134Y-17141781D01*
X21368346Y-17159024D01*
X21353930Y-17174930D01*
X21338024Y-17189346D01*
X21320781Y-17202134D01*
X21302368Y-17213170D01*
X21282962Y-17222349D01*
X21262750Y-17229581D01*
X21241926Y-17234797D01*
X21220691Y-17237947D01*
X21199250Y-17239000D01*
X20761750Y-17239000D01*
X20740309Y-17237947D01*
X20719074Y-17234797D01*
X20698250Y-17229581D01*
X20678038Y-17222349D01*
X20658632Y-17213170D01*
X20640219Y-17202134D01*
X20622976Y-17189346D01*
X20607070Y-17174930D01*
X20592654Y-17159024D01*
X20579866Y-17141781D01*
X20568830Y-17123368D01*
X20559651Y-17103962D01*
X20552419Y-17083750D01*
X20547203Y-17062926D01*
X20544053Y-17041691D01*
X20543000Y-17020250D01*
X20543000Y-16507750D01*
X20544053Y-16486309D01*
X20547203Y-16465074D01*
X20552419Y-16444250D01*
X20559651Y-16424038D01*
X20568830Y-16404632D01*
X20579866Y-16386219D01*
X20592654Y-16368976D01*
X20607070Y-16353070D01*
X20622976Y-16338654D01*
X20640219Y-16325866D01*
X20658632Y-16314830D01*
X20678038Y-16305651D01*
X20698250Y-16298419D01*
X20719074Y-16293203D01*
X20740309Y-16290053D01*
X20761750Y-16289000D01*
X21199250Y-16289000D01*
X21220691Y-16290053D01*
G37*
G36*
X16394691Y-25307053D02*
G01*
X16415926Y-25310203D01*
X16436750Y-25315419D01*
X16456962Y-25322651D01*
X16476368Y-25331830D01*
X16494781Y-25342866D01*
X16512024Y-25355654D01*
X16527930Y-25370070D01*
X16542346Y-25385976D01*
X16555134Y-25403219D01*
X16566170Y-25421632D01*
X16575349Y-25441038D01*
X16582581Y-25461250D01*
X16587797Y-25482074D01*
X16590947Y-25503309D01*
X16592000Y-25524750D01*
X16592000Y-26037250D01*
X16590947Y-26058691D01*
X16587797Y-26079926D01*
X16582581Y-26100750D01*
X16575349Y-26120962D01*
X16566170Y-26140368D01*
X16555134Y-26158781D01*
X16542346Y-26176024D01*
X16527930Y-26191930D01*
X16512024Y-26206346D01*
X16494781Y-26219134D01*
X16476368Y-26230170D01*
X16456962Y-26239349D01*
X16436750Y-26246581D01*
X16415926Y-26251797D01*
X16394691Y-26254947D01*
X16373250Y-26256000D01*
X15935750Y-26256000D01*
X15914309Y-26254947D01*
X15893074Y-26251797D01*
X15872250Y-26246581D01*
X15852038Y-26239349D01*
X15832632Y-26230170D01*
X15814219Y-26219134D01*
X15796976Y-26206346D01*
X15781070Y-26191930D01*
X15766654Y-26176024D01*
X15753866Y-26158781D01*
X15742830Y-26140368D01*
X15733651Y-26120962D01*
X15726419Y-26100750D01*
X15721203Y-26079926D01*
X15718053Y-26058691D01*
X15717000Y-26037250D01*
X15717000Y-25524750D01*
X15718053Y-25503309D01*
X15721203Y-25482074D01*
X15726419Y-25461250D01*
X15733651Y-25441038D01*
X15742830Y-25421632D01*
X15753866Y-25403219D01*
X15766654Y-25385976D01*
X15781070Y-25370070D01*
X15796976Y-25355654D01*
X15814219Y-25342866D01*
X15832632Y-25331830D01*
X15852038Y-25322651D01*
X15872250Y-25315419D01*
X15893074Y-25310203D01*
X15914309Y-25307053D01*
X15935750Y-25306000D01*
X16373250Y-25306000D01*
X16394691Y-25307053D01*
G37*
G36*
X14819691Y-25307053D02*
G01*
X14840926Y-25310203D01*
X14861750Y-25315419D01*
X14881962Y-25322651D01*
X14901368Y-25331830D01*
X14919781Y-25342866D01*
X14937024Y-25355654D01*
X14952930Y-25370070D01*
X14967346Y-25385976D01*
X14980134Y-25403219D01*
X14991170Y-25421632D01*
X15000349Y-25441038D01*
X15007581Y-25461250D01*
X15012797Y-25482074D01*
X15015947Y-25503309D01*
X15017000Y-25524750D01*
X15017000Y-26037250D01*
X15015947Y-26058691D01*
X15012797Y-26079926D01*
X15007581Y-26100750D01*
X15000349Y-26120962D01*
X14991170Y-26140368D01*
X14980134Y-26158781D01*
X14967346Y-26176024D01*
X14952930Y-26191930D01*
X14937024Y-26206346D01*
X14919781Y-26219134D01*
X14901368Y-26230170D01*
X14881962Y-26239349D01*
X14861750Y-26246581D01*
X14840926Y-26251797D01*
X14819691Y-26254947D01*
X14798250Y-26256000D01*
X14360750Y-26256000D01*
X14339309Y-26254947D01*
X14318074Y-26251797D01*
X14297250Y-26246581D01*
X14277038Y-26239349D01*
X14257632Y-26230170D01*
X14239219Y-26219134D01*
X14221976Y-26206346D01*
X14206070Y-26191930D01*
X14191654Y-26176024D01*
X14178866Y-26158781D01*
X14167830Y-26140368D01*
X14158651Y-26120962D01*
X14151419Y-26100750D01*
X14146203Y-26079926D01*
X14143053Y-26058691D01*
X14142000Y-26037250D01*
X14142000Y-25524750D01*
X14143053Y-25503309D01*
X14146203Y-25482074D01*
X14151419Y-25461250D01*
X14158651Y-25441038D01*
X14167830Y-25421632D01*
X14178866Y-25403219D01*
X14191654Y-25385976D01*
X14206070Y-25370070D01*
X14221976Y-25355654D01*
X14239219Y-25342866D01*
X14257632Y-25331830D01*
X14277038Y-25322651D01*
X14297250Y-25315419D01*
X14318074Y-25310203D01*
X14339309Y-25307053D01*
X14360750Y-25306000D01*
X14798250Y-25306000D01*
X14819691Y-25307053D01*
G37*
G36*
X16394691Y-23783053D02*
G01*
X16415926Y-23786203D01*
X16436750Y-23791419D01*
X16456962Y-23798651D01*
X16476368Y-23807830D01*
X16494781Y-23818866D01*
X16512024Y-23831654D01*
X16527930Y-23846070D01*
X16542346Y-23861976D01*
X16555134Y-23879219D01*
X16566170Y-23897632D01*
X16575349Y-23917038D01*
X16582581Y-23937250D01*
X16587797Y-23958074D01*
X16590947Y-23979309D01*
X16592000Y-24000750D01*
X16592000Y-24513250D01*
X16590947Y-24534691D01*
X16587797Y-24555926D01*
X16582581Y-24576750D01*
X16575349Y-24596962D01*
X16566170Y-24616368D01*
X16555134Y-24634781D01*
X16542346Y-24652024D01*
X16527930Y-24667930D01*
X16512024Y-24682346D01*
X16494781Y-24695134D01*
X16476368Y-24706170D01*
X16456962Y-24715349D01*
X16436750Y-24722581D01*
X16415926Y-24727797D01*
X16394691Y-24730947D01*
X16373250Y-24732000D01*
X15935750Y-24732000D01*
X15914309Y-24730947D01*
X15893074Y-24727797D01*
X15872250Y-24722581D01*
X15852038Y-24715349D01*
X15832632Y-24706170D01*
X15814219Y-24695134D01*
X15796976Y-24682346D01*
X15781070Y-24667930D01*
X15766654Y-24652024D01*
X15753866Y-24634781D01*
X15742830Y-24616368D01*
X15733651Y-24596962D01*
X15726419Y-24576750D01*
X15721203Y-24555926D01*
X15718053Y-24534691D01*
X15717000Y-24513250D01*
X15717000Y-24000750D01*
X15718053Y-23979309D01*
X15721203Y-23958074D01*
X15726419Y-23937250D01*
X15733651Y-23917038D01*
X15742830Y-23897632D01*
X15753866Y-23879219D01*
X15766654Y-23861976D01*
X15781070Y-23846070D01*
X15796976Y-23831654D01*
X15814219Y-23818866D01*
X15832632Y-23807830D01*
X15852038Y-23798651D01*
X15872250Y-23791419D01*
X15893074Y-23786203D01*
X15914309Y-23783053D01*
X15935750Y-23782000D01*
X16373250Y-23782000D01*
X16394691Y-23783053D01*
G37*
G36*
X14819691Y-23783053D02*
G01*
X14840926Y-23786203D01*
X14861750Y-23791419D01*
X14881962Y-23798651D01*
X14901368Y-23807830D01*
X14919781Y-23818866D01*
X14937024Y-23831654D01*
X14952930Y-23846070D01*
X14967346Y-23861976D01*
X14980134Y-23879219D01*
X14991170Y-23897632D01*
X15000349Y-23917038D01*
X15007581Y-23937250D01*
X15012797Y-23958074D01*
X15015947Y-23979309D01*
X15017000Y-24000750D01*
X15017000Y-24513250D01*
X15015947Y-24534691D01*
X15012797Y-24555926D01*
X15007581Y-24576750D01*
X15000349Y-24596962D01*
X14991170Y-24616368D01*
X14980134Y-24634781D01*
X14967346Y-24652024D01*
X14952930Y-24667930D01*
X14937024Y-24682346D01*
X14919781Y-24695134D01*
X14901368Y-24706170D01*
X14881962Y-24715349D01*
X14861750Y-24722581D01*
X14840926Y-24727797D01*
X14819691Y-24730947D01*
X14798250Y-24732000D01*
X14360750Y-24732000D01*
X14339309Y-24730947D01*
X14318074Y-24727797D01*
X14297250Y-24722581D01*
X14277038Y-24715349D01*
X14257632Y-24706170D01*
X14239219Y-24695134D01*
X14221976Y-24682346D01*
X14206070Y-24667930D01*
X14191654Y-24652024D01*
X14178866Y-24634781D01*
X14167830Y-24616368D01*
X14158651Y-24596962D01*
X14151419Y-24576750D01*
X14146203Y-24555926D01*
X14143053Y-24534691D01*
X14142000Y-24513250D01*
X14142000Y-24000750D01*
X14143053Y-23979309D01*
X14146203Y-23958074D01*
X14151419Y-23937250D01*
X14158651Y-23917038D01*
X14167830Y-23897632D01*
X14178866Y-23879219D01*
X14191654Y-23861976D01*
X14206070Y-23846070D01*
X14221976Y-23831654D01*
X14239219Y-23818866D01*
X14257632Y-23807830D01*
X14277038Y-23798651D01*
X14297250Y-23791419D01*
X14318074Y-23786203D01*
X14339309Y-23783053D01*
X14360750Y-23782000D01*
X14798250Y-23782000D01*
X14819691Y-23783053D01*
G37*
G36*
X19645691Y-25307053D02*
G01*
X19666926Y-25310203D01*
X19687750Y-25315419D01*
X19707962Y-25322651D01*
X19727368Y-25331830D01*
X19745781Y-25342866D01*
X19763024Y-25355654D01*
X19778930Y-25370070D01*
X19793346Y-25385976D01*
X19806134Y-25403219D01*
X19817170Y-25421632D01*
X19826349Y-25441038D01*
X19833581Y-25461250D01*
X19838797Y-25482074D01*
X19841947Y-25503309D01*
X19843000Y-25524750D01*
X19843000Y-26037250D01*
X19841947Y-26058691D01*
X19838797Y-26079926D01*
X19833581Y-26100750D01*
X19826349Y-26120962D01*
X19817170Y-26140368D01*
X19806134Y-26158781D01*
X19793346Y-26176024D01*
X19778930Y-26191930D01*
X19763024Y-26206346D01*
X19745781Y-26219134D01*
X19727368Y-26230170D01*
X19707962Y-26239349D01*
X19687750Y-26246581D01*
X19666926Y-26251797D01*
X19645691Y-26254947D01*
X19624250Y-26256000D01*
X19186750Y-26256000D01*
X19165309Y-26254947D01*
X19144074Y-26251797D01*
X19123250Y-26246581D01*
X19103038Y-26239349D01*
X19083632Y-26230170D01*
X19065219Y-26219134D01*
X19047976Y-26206346D01*
X19032070Y-26191930D01*
X19017654Y-26176024D01*
X19004866Y-26158781D01*
X18993830Y-26140368D01*
X18984651Y-26120962D01*
X18977419Y-26100750D01*
X18972203Y-26079926D01*
X18969053Y-26058691D01*
X18968000Y-26037250D01*
X18968000Y-25524750D01*
X18969053Y-25503309D01*
X18972203Y-25482074D01*
X18977419Y-25461250D01*
X18984651Y-25441038D01*
X18993830Y-25421632D01*
X19004866Y-25403219D01*
X19017654Y-25385976D01*
X19032070Y-25370070D01*
X19047976Y-25355654D01*
X19065219Y-25342866D01*
X19083632Y-25331830D01*
X19103038Y-25322651D01*
X19123250Y-25315419D01*
X19144074Y-25310203D01*
X19165309Y-25307053D01*
X19186750Y-25306000D01*
X19624250Y-25306000D01*
X19645691Y-25307053D01*
G37*
G36*
X21220691Y-25307053D02*
G01*
X21241926Y-25310203D01*
X21262750Y-25315419D01*
X21282962Y-25322651D01*
X21302368Y-25331830D01*
X21320781Y-25342866D01*
X21338024Y-25355654D01*
X21353930Y-25370070D01*
X21368346Y-25385976D01*
X21381134Y-25403219D01*
X21392170Y-25421632D01*
X21401349Y-25441038D01*
X21408581Y-25461250D01*
X21413797Y-25482074D01*
X21416947Y-25503309D01*
X21418000Y-25524750D01*
X21418000Y-26037250D01*
X21416947Y-26058691D01*
X21413797Y-26079926D01*
X21408581Y-26100750D01*
X21401349Y-26120962D01*
X21392170Y-26140368D01*
X21381134Y-26158781D01*
X21368346Y-26176024D01*
X21353930Y-26191930D01*
X21338024Y-26206346D01*
X21320781Y-26219134D01*
X21302368Y-26230170D01*
X21282962Y-26239349D01*
X21262750Y-26246581D01*
X21241926Y-26251797D01*
X21220691Y-26254947D01*
X21199250Y-26256000D01*
X20761750Y-26256000D01*
X20740309Y-26254947D01*
X20719074Y-26251797D01*
X20698250Y-26246581D01*
X20678038Y-26239349D01*
X20658632Y-26230170D01*
X20640219Y-26219134D01*
X20622976Y-26206346D01*
X20607070Y-26191930D01*
X20592654Y-26176024D01*
X20579866Y-26158781D01*
X20568830Y-26140368D01*
X20559651Y-26120962D01*
X20552419Y-26100750D01*
X20547203Y-26079926D01*
X20544053Y-26058691D01*
X20543000Y-26037250D01*
X20543000Y-25524750D01*
X20544053Y-25503309D01*
X20547203Y-25482074D01*
X20552419Y-25461250D01*
X20559651Y-25441038D01*
X20568830Y-25421632D01*
X20579866Y-25403219D01*
X20592654Y-25385976D01*
X20607070Y-25370070D01*
X20622976Y-25355654D01*
X20640219Y-25342866D01*
X20658632Y-25331830D01*
X20678038Y-25322651D01*
X20698250Y-25315419D01*
X20719074Y-25310203D01*
X20740309Y-25307053D01*
X20761750Y-25306000D01*
X21199250Y-25306000D01*
X21220691Y-25307053D01*
G37*
G36*
X19645691Y-23783053D02*
G01*
X19666926Y-23786203D01*
X19687750Y-23791419D01*
X19707962Y-23798651D01*
X19727368Y-23807830D01*
X19745781Y-23818866D01*
X19763024Y-23831654D01*
X19778930Y-23846070D01*
X19793346Y-23861976D01*
X19806134Y-23879219D01*
X19817170Y-23897632D01*
X19826349Y-23917038D01*
X19833581Y-23937250D01*
X19838797Y-23958074D01*
X19841947Y-23979309D01*
X19843000Y-24000750D01*
X19843000Y-24513250D01*
X19841947Y-24534691D01*
X19838797Y-24555926D01*
X19833581Y-24576750D01*
X19826349Y-24596962D01*
X19817170Y-24616368D01*
X19806134Y-24634781D01*
X19793346Y-24652024D01*
X19778930Y-24667930D01*
X19763024Y-24682346D01*
X19745781Y-24695134D01*
X19727368Y-24706170D01*
X19707962Y-24715349D01*
X19687750Y-24722581D01*
X19666926Y-24727797D01*
X19645691Y-24730947D01*
X19624250Y-24732000D01*
X19186750Y-24732000D01*
X19165309Y-24730947D01*
X19144074Y-24727797D01*
X19123250Y-24722581D01*
X19103038Y-24715349D01*
X19083632Y-24706170D01*
X19065219Y-24695134D01*
X19047976Y-24682346D01*
X19032070Y-24667930D01*
X19017654Y-24652024D01*
X19004866Y-24634781D01*
X18993830Y-24616368D01*
X18984651Y-24596962D01*
X18977419Y-24576750D01*
X18972203Y-24555926D01*
X18969053Y-24534691D01*
X18968000Y-24513250D01*
X18968000Y-24000750D01*
X18969053Y-23979309D01*
X18972203Y-23958074D01*
X18977419Y-23937250D01*
X18984651Y-23917038D01*
X18993830Y-23897632D01*
X19004866Y-23879219D01*
X19017654Y-23861976D01*
X19032070Y-23846070D01*
X19047976Y-23831654D01*
X19065219Y-23818866D01*
X19083632Y-23807830D01*
X19103038Y-23798651D01*
X19123250Y-23791419D01*
X19144074Y-23786203D01*
X19165309Y-23783053D01*
X19186750Y-23782000D01*
X19624250Y-23782000D01*
X19645691Y-23783053D01*
G37*
G36*
X21220691Y-23783053D02*
G01*
X21241926Y-23786203D01*
X21262750Y-23791419D01*
X21282962Y-23798651D01*
X21302368Y-23807830D01*
X21320781Y-23818866D01*
X21338024Y-23831654D01*
X21353930Y-23846070D01*
X21368346Y-23861976D01*
X21381134Y-23879219D01*
X21392170Y-23897632D01*
X21401349Y-23917038D01*
X21408581Y-23937250D01*
X21413797Y-23958074D01*
X21416947Y-23979309D01*
X21418000Y-24000750D01*
X21418000Y-24513250D01*
X21416947Y-24534691D01*
X21413797Y-24555926D01*
X21408581Y-24576750D01*
X21401349Y-24596962D01*
X21392170Y-24616368D01*
X21381134Y-24634781D01*
X21368346Y-24652024D01*
X21353930Y-24667930D01*
X21338024Y-24682346D01*
X21320781Y-24695134D01*
X21302368Y-24706170D01*
X21282962Y-24715349D01*
X21262750Y-24722581D01*
X21241926Y-24727797D01*
X21220691Y-24730947D01*
X21199250Y-24732000D01*
X20761750Y-24732000D01*
X20740309Y-24730947D01*
X20719074Y-24727797D01*
X20698250Y-24722581D01*
X20678038Y-24715349D01*
X20658632Y-24706170D01*
X20640219Y-24695134D01*
X20622976Y-24682346D01*
X20607070Y-24667930D01*
X20592654Y-24652024D01*
X20579866Y-24634781D01*
X20568830Y-24616368D01*
X20559651Y-24596962D01*
X20552419Y-24576750D01*
X20547203Y-24555926D01*
X20544053Y-24534691D01*
X20543000Y-24513250D01*
X20543000Y-24000750D01*
X20544053Y-23979309D01*
X20547203Y-23958074D01*
X20552419Y-23937250D01*
X20559651Y-23917038D01*
X20568830Y-23897632D01*
X20579866Y-23879219D01*
X20592654Y-23861976D01*
X20607070Y-23846070D01*
X20622976Y-23831654D01*
X20640219Y-23818866D01*
X20658632Y-23807830D01*
X20678038Y-23798651D01*
X20698250Y-23791419D01*
X20719074Y-23786203D01*
X20740309Y-23783053D01*
X20761750Y-23782000D01*
X21199250Y-23782000D01*
X21220691Y-23783053D01*
G37*
G36*
X47966691Y-19719053D02*
G01*
X47987926Y-19722203D01*
X48008750Y-19727419D01*
X48028962Y-19734651D01*
X48048368Y-19743830D01*
X48066781Y-19754866D01*
X48084024Y-19767654D01*
X48099930Y-19782070D01*
X48114346Y-19797976D01*
X48127134Y-19815219D01*
X48138170Y-19833632D01*
X48147349Y-19853038D01*
X48154581Y-19873250D01*
X48159797Y-19894074D01*
X48162947Y-19915309D01*
X48164000Y-19936750D01*
X48164000Y-20449250D01*
X48162947Y-20470691D01*
X48159797Y-20491926D01*
X48154581Y-20512750D01*
X48147349Y-20532962D01*
X48138170Y-20552368D01*
X48127134Y-20570781D01*
X48114346Y-20588024D01*
X48099930Y-20603930D01*
X48084024Y-20618346D01*
X48066781Y-20631134D01*
X48048368Y-20642170D01*
X48028962Y-20651349D01*
X48008750Y-20658581D01*
X47987926Y-20663797D01*
X47966691Y-20666947D01*
X47945250Y-20668000D01*
X47507750Y-20668000D01*
X47486309Y-20666947D01*
X47465074Y-20663797D01*
X47444250Y-20658581D01*
X47424038Y-20651349D01*
X47404632Y-20642170D01*
X47386219Y-20631134D01*
X47368976Y-20618346D01*
X47353070Y-20603930D01*
X47338654Y-20588024D01*
X47325866Y-20570781D01*
X47314830Y-20552368D01*
X47305651Y-20532962D01*
X47298419Y-20512750D01*
X47293203Y-20491926D01*
X47290053Y-20470691D01*
X47289000Y-20449250D01*
X47289000Y-19936750D01*
X47290053Y-19915309D01*
X47293203Y-19894074D01*
X47298419Y-19873250D01*
X47305651Y-19853038D01*
X47314830Y-19833632D01*
X47325866Y-19815219D01*
X47338654Y-19797976D01*
X47353070Y-19782070D01*
X47368976Y-19767654D01*
X47386219Y-19754866D01*
X47404632Y-19743830D01*
X47424038Y-19734651D01*
X47444250Y-19727419D01*
X47465074Y-19722203D01*
X47486309Y-19719053D01*
X47507750Y-19718000D01*
X47945250Y-19718000D01*
X47966691Y-19719053D01*
G37*
G36*
X49541691Y-19719053D02*
G01*
X49562926Y-19722203D01*
X49583750Y-19727419D01*
X49603962Y-19734651D01*
X49623368Y-19743830D01*
X49641781Y-19754866D01*
X49659024Y-19767654D01*
X49674930Y-19782070D01*
X49689346Y-19797976D01*
X49702134Y-19815219D01*
X49713170Y-19833632D01*
X49722349Y-19853038D01*
X49729581Y-19873250D01*
X49734797Y-19894074D01*
X49737947Y-19915309D01*
X49739000Y-19936750D01*
X49739000Y-20449250D01*
X49737947Y-20470691D01*
X49734797Y-20491926D01*
X49729581Y-20512750D01*
X49722349Y-20532962D01*
X49713170Y-20552368D01*
X49702134Y-20570781D01*
X49689346Y-20588024D01*
X49674930Y-20603930D01*
X49659024Y-20618346D01*
X49641781Y-20631134D01*
X49623368Y-20642170D01*
X49603962Y-20651349D01*
X49583750Y-20658581D01*
X49562926Y-20663797D01*
X49541691Y-20666947D01*
X49520250Y-20668000D01*
X49082750Y-20668000D01*
X49061309Y-20666947D01*
X49040074Y-20663797D01*
X49019250Y-20658581D01*
X48999038Y-20651349D01*
X48979632Y-20642170D01*
X48961219Y-20631134D01*
X48943976Y-20618346D01*
X48928070Y-20603930D01*
X48913654Y-20588024D01*
X48900866Y-20570781D01*
X48889830Y-20552368D01*
X48880651Y-20532962D01*
X48873419Y-20512750D01*
X48868203Y-20491926D01*
X48865053Y-20470691D01*
X48864000Y-20449250D01*
X48864000Y-19936750D01*
X48865053Y-19915309D01*
X48868203Y-19894074D01*
X48873419Y-19873250D01*
X48880651Y-19853038D01*
X48889830Y-19833632D01*
X48900866Y-19815219D01*
X48913654Y-19797976D01*
X48928070Y-19782070D01*
X48943976Y-19767654D01*
X48961219Y-19754866D01*
X48979632Y-19743830D01*
X48999038Y-19734651D01*
X49019250Y-19727419D01*
X49040074Y-19722203D01*
X49061309Y-19719053D01*
X49082750Y-19718000D01*
X49520250Y-19718000D01*
X49541691Y-19719053D01*
G37*
G36*
X44969691Y-19719053D02*
G01*
X44990926Y-19722203D01*
X45011750Y-19727419D01*
X45031962Y-19734651D01*
X45051368Y-19743830D01*
X45069781Y-19754866D01*
X45087024Y-19767654D01*
X45102930Y-19782070D01*
X45117346Y-19797976D01*
X45130134Y-19815219D01*
X45141170Y-19833632D01*
X45150349Y-19853038D01*
X45157581Y-19873250D01*
X45162797Y-19894074D01*
X45165947Y-19915309D01*
X45167000Y-19936750D01*
X45167000Y-20449250D01*
X45165947Y-20470691D01*
X45162797Y-20491926D01*
X45157581Y-20512750D01*
X45150349Y-20532962D01*
X45141170Y-20552368D01*
X45130134Y-20570781D01*
X45117346Y-20588024D01*
X45102930Y-20603930D01*
X45087024Y-20618346D01*
X45069781Y-20631134D01*
X45051368Y-20642170D01*
X45031962Y-20651349D01*
X45011750Y-20658581D01*
X44990926Y-20663797D01*
X44969691Y-20666947D01*
X44948250Y-20668000D01*
X44510750Y-20668000D01*
X44489309Y-20666947D01*
X44468074Y-20663797D01*
X44447250Y-20658581D01*
X44427038Y-20651349D01*
X44407632Y-20642170D01*
X44389219Y-20631134D01*
X44371976Y-20618346D01*
X44356070Y-20603930D01*
X44341654Y-20588024D01*
X44328866Y-20570781D01*
X44317830Y-20552368D01*
X44308651Y-20532962D01*
X44301419Y-20512750D01*
X44296203Y-20491926D01*
X44293053Y-20470691D01*
X44292000Y-20449250D01*
X44292000Y-19936750D01*
X44293053Y-19915309D01*
X44296203Y-19894074D01*
X44301419Y-19873250D01*
X44308651Y-19853038D01*
X44317830Y-19833632D01*
X44328866Y-19815219D01*
X44341654Y-19797976D01*
X44356070Y-19782070D01*
X44371976Y-19767654D01*
X44389219Y-19754866D01*
X44407632Y-19743830D01*
X44427038Y-19734651D01*
X44447250Y-19727419D01*
X44468074Y-19722203D01*
X44489309Y-19719053D01*
X44510750Y-19718000D01*
X44948250Y-19718000D01*
X44969691Y-19719053D01*
G37*
G36*
X43394691Y-19719053D02*
G01*
X43415926Y-19722203D01*
X43436750Y-19727419D01*
X43456962Y-19734651D01*
X43476368Y-19743830D01*
X43494781Y-19754866D01*
X43512024Y-19767654D01*
X43527930Y-19782070D01*
X43542346Y-19797976D01*
X43555134Y-19815219D01*
X43566170Y-19833632D01*
X43575349Y-19853038D01*
X43582581Y-19873250D01*
X43587797Y-19894074D01*
X43590947Y-19915309D01*
X43592000Y-19936750D01*
X43592000Y-20449250D01*
X43590947Y-20470691D01*
X43587797Y-20491926D01*
X43582581Y-20512750D01*
X43575349Y-20532962D01*
X43566170Y-20552368D01*
X43555134Y-20570781D01*
X43542346Y-20588024D01*
X43527930Y-20603930D01*
X43512024Y-20618346D01*
X43494781Y-20631134D01*
X43476368Y-20642170D01*
X43456962Y-20651349D01*
X43436750Y-20658581D01*
X43415926Y-20663797D01*
X43394691Y-20666947D01*
X43373250Y-20668000D01*
X42935750Y-20668000D01*
X42914309Y-20666947D01*
X42893074Y-20663797D01*
X42872250Y-20658581D01*
X42852038Y-20651349D01*
X42832632Y-20642170D01*
X42814219Y-20631134D01*
X42796976Y-20618346D01*
X42781070Y-20603930D01*
X42766654Y-20588024D01*
X42753866Y-20570781D01*
X42742830Y-20552368D01*
X42733651Y-20532962D01*
X42726419Y-20512750D01*
X42721203Y-20491926D01*
X42718053Y-20470691D01*
X42717000Y-20449250D01*
X42717000Y-19936750D01*
X42718053Y-19915309D01*
X42721203Y-19894074D01*
X42726419Y-19873250D01*
X42733651Y-19853038D01*
X42742830Y-19833632D01*
X42753866Y-19815219D01*
X42766654Y-19797976D01*
X42781070Y-19782070D01*
X42796976Y-19767654D01*
X42814219Y-19754866D01*
X42832632Y-19743830D01*
X42852038Y-19734651D01*
X42872250Y-19727419D01*
X42893074Y-19722203D01*
X42914309Y-19719053D01*
X42935750Y-19718000D01*
X43373250Y-19718000D01*
X43394691Y-19719053D01*
G37*
D13*
X31550000Y-40750000D03*
X31550000Y-36350000D03*
X32350000Y-36350000D03*
X32350000Y-40750000D03*
X30750000Y-40750000D03*
X30750000Y-36350000D03*
X29950000Y-36350000D03*
X29950000Y-40750000D03*
X29150000Y-36350000D03*
X29150000Y-40750000D03*
X28350000Y-40750000D03*
X28350000Y-36350000D03*
X27550000Y-40750000D03*
X27550000Y-36350000D03*
X26750000Y-36350000D03*
X26750000Y-40750000D03*
X25950000Y-36350000D03*
X25950000Y-40750000D03*
X25150000Y-36350000D03*
X25150000Y-40750000D03*
X24350000Y-36350000D03*
X24350000Y-40750000D03*
X23550000Y-40750000D03*
X23550000Y-36350000D03*
X22750000Y-40750000D03*
X22750000Y-36350000D03*
X21950000Y-40750000D03*
X21950000Y-36350000D03*
X21150000Y-36350000D03*
X21150000Y-40750000D03*
X39550000Y-40750000D03*
X44350000Y-40750000D03*
X34750000Y-36350000D03*
X40350000Y-36350000D03*
X42750000Y-36350000D03*
X44350000Y-36350000D03*
X41150000Y-36350000D03*
X40350000Y-40750000D03*
X38750000Y-40750000D03*
X38750000Y-36350000D03*
X42750000Y-40750000D03*
X43550000Y-36350000D03*
X33150000Y-40750000D03*
X35550000Y-36350000D03*
X34750000Y-40750000D03*
X41950000Y-40750000D03*
X35550000Y-40750000D03*
X37150000Y-40750000D03*
X41150000Y-40750000D03*
X33950000Y-40750000D03*
X39550000Y-36350000D03*
X36350000Y-36350000D03*
X37150000Y-36350000D03*
X33150000Y-36350000D03*
X36350000Y-40750000D03*
X37950000Y-40750000D03*
X37950000Y-36350000D03*
X33950000Y-36350000D03*
X41950000Y-36350000D03*
X43550000Y-40750000D03*
D14*
X10000000Y-6250000D03*
X10000000Y-1750000D03*
X12000000Y-1750000D03*
X14000000Y-1750000D03*
X16000000Y-1750000D03*
X18000000Y-1750000D03*
X20000000Y-1750000D03*
X22000000Y-1750000D03*
X24000000Y-1750000D03*
X26000000Y-1750000D03*
X28000000Y-1750000D03*
X30000000Y-1750000D03*
X32000000Y-1750000D03*
X34000000Y-1750000D03*
X36000000Y-1750000D03*
X38000000Y-1750000D03*
X40000000Y-1750000D03*
X42000000Y-1750000D03*
X44000000Y-1750000D03*
X46000000Y-1750000D03*
X48000000Y-1750000D03*
X12000000Y-6250000D03*
X14000000Y-6250000D03*
X16000000Y-6250000D03*
X18000000Y-6250000D03*
X20000000Y-6250000D03*
X22000000Y-6250000D03*
X24000000Y-6250000D03*
X26000000Y-6250000D03*
X28000000Y-6250000D03*
X30000000Y-6250000D03*
X32000000Y-6250000D03*
X34000000Y-6250000D03*
X36000000Y-6250000D03*
X38000000Y-6250000D03*
X40000000Y-6250000D03*
X42000000Y-6250000D03*
X44000000Y-6250000D03*
X46000000Y-6250000D03*
X48000000Y-6250000D03*
M02*
