G04 #@! TF.GenerationSoftware,KiCad,Pcbnew,5.1.5-52549c5~84~ubuntu18.04.1*
G04 #@! TF.CreationDate,2020-02-13T10:06:29-08:00*
G04 #@! TF.ProjectId,EthernetBoard,45746865-726e-4657-9442-6f6172642e6b,A*
G04 #@! TF.SameCoordinates,PX5f5e100PY5f5e100*
G04 #@! TF.FileFunction,Legend,Bot*
G04 #@! TF.FilePolarity,Positive*
%FSLAX46Y46*%
G04 Gerber Fmt 4.6, Leading zero omitted, Abs format (unit mm)*
G04 Created by KiCad (PCBNEW 5.1.5-52549c5~84~ubuntu18.04.1) date 2020-02-13 10:06:29*
%MOMM*%
%LPD*%
G04 APERTURE LIST*
%ADD10C,0.100000*%
%ADD11C,0.254000*%
%ADD12C,0.200000*%
%ADD13C,0.120000*%
%ADD14C,0.152400*%
%ADD15C,0.150000*%
%ADD16C,0.153000*%
G04 APERTURE END LIST*
D10*
X0Y-54000000D02*
X84999492Y-54000000D01*
X84999492Y0D02*
X84999492Y-54000000D01*
X0Y-54000000D02*
X0Y0D01*
X0Y0D02*
X84999492Y0D01*
D11*
X34422500Y-29106000D02*
G75*
G03X34422500Y-29106000I-52000J0D01*
G01*
D12*
X30583500Y-24943000D02*
X30583500Y-28143000D01*
X35583500Y-28143000D02*
X35583500Y-24943000D01*
D13*
X16418779Y-10162000D02*
X16093221Y-10162000D01*
X16418779Y-9142000D02*
X16093221Y-9142000D01*
X16418779Y-11686000D02*
X16093221Y-11686000D01*
X16418779Y-10666000D02*
X16093221Y-10666000D01*
X16093221Y-12190000D02*
X16418779Y-12190000D01*
X16093221Y-13210000D02*
X16418779Y-13210000D01*
X19141221Y-9142000D02*
X19466779Y-9142000D01*
X19141221Y-10162000D02*
X19466779Y-10162000D01*
X19141221Y-10666000D02*
X19466779Y-10666000D01*
X19141221Y-11686000D02*
X19466779Y-11686000D01*
X47589221Y-32510000D02*
X47914779Y-32510000D01*
X47589221Y-33530000D02*
X47914779Y-33530000D01*
X47589221Y-30986000D02*
X47914779Y-30986000D01*
X47589221Y-32006000D02*
X47914779Y-32006000D01*
X47914779Y-30482000D02*
X47589221Y-30482000D01*
X47914779Y-29462000D02*
X47589221Y-29462000D01*
X44841279Y-33530000D02*
X44515721Y-33530000D01*
X44841279Y-32510000D02*
X44515721Y-32510000D01*
X44866779Y-32006000D02*
X44541221Y-32006000D01*
X44866779Y-30986000D02*
X44541221Y-30986000D01*
X16164779Y-31307500D02*
X15839221Y-31307500D01*
X16164779Y-30287500D02*
X15839221Y-30287500D01*
X16164779Y-32831500D02*
X15839221Y-32831500D01*
X16164779Y-31811500D02*
X15839221Y-31811500D01*
X15839221Y-33335500D02*
X16164779Y-33335500D01*
X15839221Y-34355500D02*
X16164779Y-34355500D01*
X18887221Y-30287500D02*
X19212779Y-30287500D01*
X18887221Y-31307500D02*
X19212779Y-31307500D01*
X18887221Y-31811500D02*
X19212779Y-31811500D01*
X18887221Y-32831500D02*
X19212779Y-32831500D01*
X43906221Y-17778000D02*
X44231779Y-17778000D01*
X43906221Y-18798000D02*
X44231779Y-18798000D01*
X43906221Y-16254000D02*
X44231779Y-16254000D01*
X43906221Y-17274000D02*
X44231779Y-17274000D01*
X43906221Y-14730000D02*
X44231779Y-14730000D01*
X43906221Y-15750000D02*
X44231779Y-15750000D01*
X48478221Y-11555000D02*
X48803779Y-11555000D01*
X48478221Y-12575000D02*
X48803779Y-12575000D01*
X43906221Y-11555000D02*
X44231779Y-11555000D01*
X43906221Y-12575000D02*
X44231779Y-12575000D01*
X43779221Y-27430000D02*
X44104779Y-27430000D01*
X43779221Y-28450000D02*
X44104779Y-28450000D01*
X43779221Y-25906000D02*
X44104779Y-25906000D01*
X43779221Y-26926000D02*
X44104779Y-26926000D01*
X43779221Y-24382000D02*
X44104779Y-24382000D01*
X43779221Y-25402000D02*
X44104779Y-25402000D01*
X48351221Y-21207000D02*
X48676779Y-21207000D01*
X48351221Y-22227000D02*
X48676779Y-22227000D01*
X44104779Y-22227000D02*
X43779221Y-22227000D01*
X44104779Y-21207000D02*
X43779221Y-21207000D01*
X19141221Y-12190000D02*
X19466779Y-12190000D01*
X19141221Y-13210000D02*
X19466779Y-13210000D01*
X44866779Y-30482000D02*
X44541221Y-30482000D01*
X44866779Y-29462000D02*
X44541221Y-29462000D01*
X18887221Y-33335500D02*
X19212779Y-33335500D01*
X18887221Y-34355500D02*
X19212779Y-34355500D01*
X48803779Y-11051000D02*
X48478221Y-11051000D01*
X48803779Y-10031000D02*
X48478221Y-10031000D01*
X43906221Y-10031000D02*
X44231779Y-10031000D01*
X43906221Y-11051000D02*
X44231779Y-11051000D01*
X33258779Y-30304000D02*
X32933221Y-30304000D01*
X33258779Y-29284000D02*
X32933221Y-29284000D01*
X15204221Y-17778000D02*
X15529779Y-17778000D01*
X15204221Y-18798000D02*
X15529779Y-18798000D01*
X15204221Y-16254000D02*
X15529779Y-16254000D01*
X15204221Y-17274000D02*
X15529779Y-17274000D01*
X20355779Y-18798000D02*
X20030221Y-18798000D01*
X20355779Y-17778000D02*
X20030221Y-17778000D01*
X20355779Y-17274000D02*
X20030221Y-17274000D01*
X20355779Y-16254000D02*
X20030221Y-16254000D01*
X15204221Y-25271000D02*
X15529779Y-25271000D01*
X15204221Y-26291000D02*
X15529779Y-26291000D01*
X15204221Y-23747000D02*
X15529779Y-23747000D01*
X15204221Y-24767000D02*
X15529779Y-24767000D01*
X20355779Y-26291000D02*
X20030221Y-26291000D01*
X20355779Y-25271000D02*
X20030221Y-25271000D01*
X20355779Y-24767000D02*
X20030221Y-24767000D01*
X20355779Y-23747000D02*
X20030221Y-23747000D01*
X48676779Y-20703000D02*
X48351221Y-20703000D01*
X48676779Y-19683000D02*
X48351221Y-19683000D01*
X43779221Y-19683000D02*
X44104779Y-19683000D01*
X43779221Y-20703000D02*
X44104779Y-20703000D01*
D14*
X17750000Y-41550000D02*
X17750000Y-35550000D01*
X47750000Y-41550000D02*
X47750000Y-35550000D01*
X47750000Y-41550000D02*
X44750000Y-41550000D01*
X47750000Y-35550000D02*
X44750000Y-35550000D01*
X17750000Y-35550000D02*
X20750000Y-35550000D01*
X17750000Y-41550000D02*
X20750000Y-41550000D01*
X20750000Y-42550000D02*
X21150000Y-42150000D01*
X21150000Y-42150000D02*
X21550000Y-42550000D01*
X21550000Y-42550000D02*
X20750000Y-42550000D01*
D15*
X9400000Y-50000D02*
X48700000Y-50000D01*
X48700000Y-50000D02*
X48700000Y-7950000D01*
X9400000Y-50000D02*
X9400000Y-7950000D01*
X9400000Y-7950000D02*
X48700000Y-7950000D01*
D16*
X29262142Y-31945142D02*
X29309761Y-31897523D01*
X29357380Y-31754666D01*
X29357380Y-31659428D01*
X29309761Y-31516571D01*
X29214523Y-31421333D01*
X29119285Y-31373714D01*
X28928809Y-31326095D01*
X28785952Y-31326095D01*
X28595476Y-31373714D01*
X28500238Y-31421333D01*
X28405000Y-31516571D01*
X28357380Y-31659428D01*
X28357380Y-31754666D01*
X28405000Y-31897523D01*
X28452619Y-31945142D01*
X28690714Y-32802285D02*
X29357380Y-32802285D01*
X28309761Y-32564190D02*
X29024047Y-32326095D01*
X29024047Y-32945142D01*
X28357380Y-33230857D02*
X28357380Y-33849904D01*
X28738333Y-33516571D01*
X28738333Y-33659428D01*
X28785952Y-33754666D01*
X28833571Y-33802285D01*
X28928809Y-33849904D01*
X29166904Y-33849904D01*
X29262142Y-33802285D01*
X29309761Y-33754666D01*
X29357380Y-33659428D01*
X29357380Y-33373714D01*
X29309761Y-33278476D01*
X29262142Y-33230857D01*
X32945142Y-31945142D02*
X32992761Y-31897523D01*
X33040380Y-31754666D01*
X33040380Y-31659428D01*
X32992761Y-31516571D01*
X32897523Y-31421333D01*
X32802285Y-31373714D01*
X32611809Y-31326095D01*
X32468952Y-31326095D01*
X32278476Y-31373714D01*
X32183238Y-31421333D01*
X32088000Y-31516571D01*
X32040380Y-31659428D01*
X32040380Y-31754666D01*
X32088000Y-31897523D01*
X32135619Y-31945142D01*
X32373714Y-32802285D02*
X33040380Y-32802285D01*
X31992761Y-32564190D02*
X32707047Y-32326095D01*
X32707047Y-32945142D01*
X32135619Y-33278476D02*
X32088000Y-33326095D01*
X32040380Y-33421333D01*
X32040380Y-33659428D01*
X32088000Y-33754666D01*
X32135619Y-33802285D01*
X32230857Y-33849904D01*
X32326095Y-33849904D01*
X32468952Y-33802285D01*
X33040380Y-33230857D01*
X33040380Y-33849904D01*
X29246380Y-25984095D02*
X30055904Y-25984095D01*
X30151142Y-26031714D01*
X30198761Y-26079333D01*
X30246380Y-26174571D01*
X30246380Y-26365047D01*
X30198761Y-26460285D01*
X30151142Y-26507904D01*
X30055904Y-26555523D01*
X29246380Y-26555523D01*
X30246380Y-27555523D02*
X30246380Y-26984095D01*
X30246380Y-27269809D02*
X29246380Y-27269809D01*
X29389238Y-27174571D01*
X29484476Y-27079333D01*
X29532095Y-26984095D01*
X13926857Y-10180380D02*
X14260190Y-9704190D01*
X14498285Y-10180380D02*
X14498285Y-9180380D01*
X14117333Y-9180380D01*
X14022095Y-9228000D01*
X13974476Y-9275619D01*
X13926857Y-9370857D01*
X13926857Y-9513714D01*
X13974476Y-9608952D01*
X14022095Y-9656571D01*
X14117333Y-9704190D01*
X14498285Y-9704190D01*
X13593523Y-9180380D02*
X12974476Y-9180380D01*
X13307809Y-9561333D01*
X13164952Y-9561333D01*
X13069714Y-9608952D01*
X13022095Y-9656571D01*
X12974476Y-9751809D01*
X12974476Y-9989904D01*
X13022095Y-10085142D01*
X13069714Y-10132761D01*
X13164952Y-10180380D01*
X13450666Y-10180380D01*
X13545904Y-10132761D01*
X13593523Y-10085142D01*
X12117333Y-9513714D02*
X12117333Y-10180380D01*
X12355428Y-9132761D02*
X12593523Y-9847047D01*
X11974476Y-9847047D01*
X13926857Y-11704380D02*
X14260190Y-11228190D01*
X14498285Y-11704380D02*
X14498285Y-10704380D01*
X14117333Y-10704380D01*
X14022095Y-10752000D01*
X13974476Y-10799619D01*
X13926857Y-10894857D01*
X13926857Y-11037714D01*
X13974476Y-11132952D01*
X14022095Y-11180571D01*
X14117333Y-11228190D01*
X14498285Y-11228190D01*
X13593523Y-10704380D02*
X12974476Y-10704380D01*
X13307809Y-11085333D01*
X13164952Y-11085333D01*
X13069714Y-11132952D01*
X13022095Y-11180571D01*
X12974476Y-11275809D01*
X12974476Y-11513904D01*
X13022095Y-11609142D01*
X13069714Y-11656761D01*
X13164952Y-11704380D01*
X13450666Y-11704380D01*
X13545904Y-11656761D01*
X13593523Y-11609142D01*
X12641142Y-10704380D02*
X12022095Y-10704380D01*
X12355428Y-11085333D01*
X12212571Y-11085333D01*
X12117333Y-11132952D01*
X12069714Y-11180571D01*
X12022095Y-11275809D01*
X12022095Y-11513904D01*
X12069714Y-11609142D01*
X12117333Y-11656761D01*
X12212571Y-11704380D01*
X12498285Y-11704380D01*
X12593523Y-11656761D01*
X12641142Y-11609142D01*
X13926857Y-13228380D02*
X14260190Y-12752190D01*
X14498285Y-13228380D02*
X14498285Y-12228380D01*
X14117333Y-12228380D01*
X14022095Y-12276000D01*
X13974476Y-12323619D01*
X13926857Y-12418857D01*
X13926857Y-12561714D01*
X13974476Y-12656952D01*
X14022095Y-12704571D01*
X14117333Y-12752190D01*
X14498285Y-12752190D01*
X13593523Y-12228380D02*
X12974476Y-12228380D01*
X13307809Y-12609333D01*
X13164952Y-12609333D01*
X13069714Y-12656952D01*
X13022095Y-12704571D01*
X12974476Y-12799809D01*
X12974476Y-13037904D01*
X13022095Y-13133142D01*
X13069714Y-13180761D01*
X13164952Y-13228380D01*
X13450666Y-13228380D01*
X13545904Y-13180761D01*
X13593523Y-13133142D01*
X12593523Y-12323619D02*
X12545904Y-12276000D01*
X12450666Y-12228380D01*
X12212571Y-12228380D01*
X12117333Y-12276000D01*
X12069714Y-12323619D01*
X12022095Y-12418857D01*
X12022095Y-12514095D01*
X12069714Y-12656952D01*
X12641142Y-13228380D01*
X12022095Y-13228380D01*
X22816857Y-10180380D02*
X23150190Y-9704190D01*
X23388285Y-10180380D02*
X23388285Y-9180380D01*
X23007333Y-9180380D01*
X22912095Y-9228000D01*
X22864476Y-9275619D01*
X22816857Y-9370857D01*
X22816857Y-9513714D01*
X22864476Y-9608952D01*
X22912095Y-9656571D01*
X23007333Y-9704190D01*
X23388285Y-9704190D01*
X22483523Y-9180380D02*
X21864476Y-9180380D01*
X22197809Y-9561333D01*
X22054952Y-9561333D01*
X21959714Y-9608952D01*
X21912095Y-9656571D01*
X21864476Y-9751809D01*
X21864476Y-9989904D01*
X21912095Y-10085142D01*
X21959714Y-10132761D01*
X22054952Y-10180380D01*
X22340666Y-10180380D01*
X22435904Y-10132761D01*
X22483523Y-10085142D01*
X20912095Y-10180380D02*
X21483523Y-10180380D01*
X21197809Y-10180380D02*
X21197809Y-9180380D01*
X21293047Y-9323238D01*
X21388285Y-9418476D01*
X21483523Y-9466095D01*
X22816857Y-11704380D02*
X23150190Y-11228190D01*
X23388285Y-11704380D02*
X23388285Y-10704380D01*
X23007333Y-10704380D01*
X22912095Y-10752000D01*
X22864476Y-10799619D01*
X22816857Y-10894857D01*
X22816857Y-11037714D01*
X22864476Y-11132952D01*
X22912095Y-11180571D01*
X23007333Y-11228190D01*
X23388285Y-11228190D01*
X22483523Y-10704380D02*
X21864476Y-10704380D01*
X22197809Y-11085333D01*
X22054952Y-11085333D01*
X21959714Y-11132952D01*
X21912095Y-11180571D01*
X21864476Y-11275809D01*
X21864476Y-11513904D01*
X21912095Y-11609142D01*
X21959714Y-11656761D01*
X22054952Y-11704380D01*
X22340666Y-11704380D01*
X22435904Y-11656761D01*
X22483523Y-11609142D01*
X21245428Y-10704380D02*
X21150190Y-10704380D01*
X21054952Y-10752000D01*
X21007333Y-10799619D01*
X20959714Y-10894857D01*
X20912095Y-11085333D01*
X20912095Y-11323428D01*
X20959714Y-11513904D01*
X21007333Y-11609142D01*
X21054952Y-11656761D01*
X21150190Y-11704380D01*
X21245428Y-11704380D01*
X21340666Y-11656761D01*
X21388285Y-11609142D01*
X21435904Y-11513904D01*
X21483523Y-11323428D01*
X21483523Y-11085333D01*
X21435904Y-10894857D01*
X21388285Y-10799619D01*
X21340666Y-10752000D01*
X21245428Y-10704380D01*
X51518857Y-33548380D02*
X51852190Y-33072190D01*
X52090285Y-33548380D02*
X52090285Y-32548380D01*
X51709333Y-32548380D01*
X51614095Y-32596000D01*
X51566476Y-32643619D01*
X51518857Y-32738857D01*
X51518857Y-32881714D01*
X51566476Y-32976952D01*
X51614095Y-33024571D01*
X51709333Y-33072190D01*
X52090285Y-33072190D01*
X51137904Y-32643619D02*
X51090285Y-32596000D01*
X50995047Y-32548380D01*
X50756952Y-32548380D01*
X50661714Y-32596000D01*
X50614095Y-32643619D01*
X50566476Y-32738857D01*
X50566476Y-32834095D01*
X50614095Y-32976952D01*
X51185523Y-33548380D01*
X50566476Y-33548380D01*
X50090285Y-33548380D02*
X49899809Y-33548380D01*
X49804571Y-33500761D01*
X49756952Y-33453142D01*
X49661714Y-33310285D01*
X49614095Y-33119809D01*
X49614095Y-32738857D01*
X49661714Y-32643619D01*
X49709333Y-32596000D01*
X49804571Y-32548380D01*
X49995047Y-32548380D01*
X50090285Y-32596000D01*
X50137904Y-32643619D01*
X50185523Y-32738857D01*
X50185523Y-32976952D01*
X50137904Y-33072190D01*
X50090285Y-33119809D01*
X49995047Y-33167428D01*
X49804571Y-33167428D01*
X49709333Y-33119809D01*
X49661714Y-33072190D01*
X49614095Y-32976952D01*
X51518857Y-32024380D02*
X51852190Y-31548190D01*
X52090285Y-32024380D02*
X52090285Y-31024380D01*
X51709333Y-31024380D01*
X51614095Y-31072000D01*
X51566476Y-31119619D01*
X51518857Y-31214857D01*
X51518857Y-31357714D01*
X51566476Y-31452952D01*
X51614095Y-31500571D01*
X51709333Y-31548190D01*
X52090285Y-31548190D01*
X51137904Y-31119619D02*
X51090285Y-31072000D01*
X50995047Y-31024380D01*
X50756952Y-31024380D01*
X50661714Y-31072000D01*
X50614095Y-31119619D01*
X50566476Y-31214857D01*
X50566476Y-31310095D01*
X50614095Y-31452952D01*
X51185523Y-32024380D01*
X50566476Y-32024380D01*
X49995047Y-31452952D02*
X50090285Y-31405333D01*
X50137904Y-31357714D01*
X50185523Y-31262476D01*
X50185523Y-31214857D01*
X50137904Y-31119619D01*
X50090285Y-31072000D01*
X49995047Y-31024380D01*
X49804571Y-31024380D01*
X49709333Y-31072000D01*
X49661714Y-31119619D01*
X49614095Y-31214857D01*
X49614095Y-31262476D01*
X49661714Y-31357714D01*
X49709333Y-31405333D01*
X49804571Y-31452952D01*
X49995047Y-31452952D01*
X50090285Y-31500571D01*
X50137904Y-31548190D01*
X50185523Y-31643428D01*
X50185523Y-31833904D01*
X50137904Y-31929142D01*
X50090285Y-31976761D01*
X49995047Y-32024380D01*
X49804571Y-32024380D01*
X49709333Y-31976761D01*
X49661714Y-31929142D01*
X49614095Y-31833904D01*
X49614095Y-31643428D01*
X49661714Y-31548190D01*
X49709333Y-31500571D01*
X49804571Y-31452952D01*
X51518857Y-30500380D02*
X51852190Y-30024190D01*
X52090285Y-30500380D02*
X52090285Y-29500380D01*
X51709333Y-29500380D01*
X51614095Y-29548000D01*
X51566476Y-29595619D01*
X51518857Y-29690857D01*
X51518857Y-29833714D01*
X51566476Y-29928952D01*
X51614095Y-29976571D01*
X51709333Y-30024190D01*
X52090285Y-30024190D01*
X51137904Y-29595619D02*
X51090285Y-29548000D01*
X50995047Y-29500380D01*
X50756952Y-29500380D01*
X50661714Y-29548000D01*
X50614095Y-29595619D01*
X50566476Y-29690857D01*
X50566476Y-29786095D01*
X50614095Y-29928952D01*
X51185523Y-30500380D01*
X50566476Y-30500380D01*
X50233142Y-29500380D02*
X49566476Y-29500380D01*
X49995047Y-30500380D01*
X42374857Y-33548380D02*
X42708190Y-33072190D01*
X42946285Y-33548380D02*
X42946285Y-32548380D01*
X42565333Y-32548380D01*
X42470095Y-32596000D01*
X42422476Y-32643619D01*
X42374857Y-32738857D01*
X42374857Y-32881714D01*
X42422476Y-32976952D01*
X42470095Y-33024571D01*
X42565333Y-33072190D01*
X42946285Y-33072190D01*
X41993904Y-32643619D02*
X41946285Y-32596000D01*
X41851047Y-32548380D01*
X41612952Y-32548380D01*
X41517714Y-32596000D01*
X41470095Y-32643619D01*
X41422476Y-32738857D01*
X41422476Y-32834095D01*
X41470095Y-32976952D01*
X42041523Y-33548380D01*
X41422476Y-33548380D01*
X40565333Y-32548380D02*
X40755809Y-32548380D01*
X40851047Y-32596000D01*
X40898666Y-32643619D01*
X40993904Y-32786476D01*
X41041523Y-32976952D01*
X41041523Y-33357904D01*
X40993904Y-33453142D01*
X40946285Y-33500761D01*
X40851047Y-33548380D01*
X40660571Y-33548380D01*
X40565333Y-33500761D01*
X40517714Y-33453142D01*
X40470095Y-33357904D01*
X40470095Y-33119809D01*
X40517714Y-33024571D01*
X40565333Y-32976952D01*
X40660571Y-32929333D01*
X40851047Y-32929333D01*
X40946285Y-32976952D01*
X40993904Y-33024571D01*
X41041523Y-33119809D01*
X42374857Y-32024380D02*
X42708190Y-31548190D01*
X42946285Y-32024380D02*
X42946285Y-31024380D01*
X42565333Y-31024380D01*
X42470095Y-31072000D01*
X42422476Y-31119619D01*
X42374857Y-31214857D01*
X42374857Y-31357714D01*
X42422476Y-31452952D01*
X42470095Y-31500571D01*
X42565333Y-31548190D01*
X42946285Y-31548190D01*
X41993904Y-31119619D02*
X41946285Y-31072000D01*
X41851047Y-31024380D01*
X41612952Y-31024380D01*
X41517714Y-31072000D01*
X41470095Y-31119619D01*
X41422476Y-31214857D01*
X41422476Y-31310095D01*
X41470095Y-31452952D01*
X42041523Y-32024380D01*
X41422476Y-32024380D01*
X40517714Y-31024380D02*
X40993904Y-31024380D01*
X41041523Y-31500571D01*
X40993904Y-31452952D01*
X40898666Y-31405333D01*
X40660571Y-31405333D01*
X40565333Y-31452952D01*
X40517714Y-31500571D01*
X40470095Y-31595809D01*
X40470095Y-31833904D01*
X40517714Y-31929142D01*
X40565333Y-31976761D01*
X40660571Y-32024380D01*
X40898666Y-32024380D01*
X40993904Y-31976761D01*
X41041523Y-31929142D01*
X13418857Y-31262380D02*
X13752190Y-30786190D01*
X13990285Y-31262380D02*
X13990285Y-30262380D01*
X13609333Y-30262380D01*
X13514095Y-30310000D01*
X13466476Y-30357619D01*
X13418857Y-30452857D01*
X13418857Y-30595714D01*
X13466476Y-30690952D01*
X13514095Y-30738571D01*
X13609333Y-30786190D01*
X13990285Y-30786190D01*
X13037904Y-30357619D02*
X12990285Y-30310000D01*
X12895047Y-30262380D01*
X12656952Y-30262380D01*
X12561714Y-30310000D01*
X12514095Y-30357619D01*
X12466476Y-30452857D01*
X12466476Y-30548095D01*
X12514095Y-30690952D01*
X13085523Y-31262380D01*
X12466476Y-31262380D01*
X11609333Y-30595714D02*
X11609333Y-31262380D01*
X11847428Y-30214761D02*
X12085523Y-30929047D01*
X11466476Y-30929047D01*
X13418857Y-32786380D02*
X13752190Y-32310190D01*
X13990285Y-32786380D02*
X13990285Y-31786380D01*
X13609333Y-31786380D01*
X13514095Y-31834000D01*
X13466476Y-31881619D01*
X13418857Y-31976857D01*
X13418857Y-32119714D01*
X13466476Y-32214952D01*
X13514095Y-32262571D01*
X13609333Y-32310190D01*
X13990285Y-32310190D01*
X13037904Y-31881619D02*
X12990285Y-31834000D01*
X12895047Y-31786380D01*
X12656952Y-31786380D01*
X12561714Y-31834000D01*
X12514095Y-31881619D01*
X12466476Y-31976857D01*
X12466476Y-32072095D01*
X12514095Y-32214952D01*
X13085523Y-32786380D01*
X12466476Y-32786380D01*
X12133142Y-31786380D02*
X11514095Y-31786380D01*
X11847428Y-32167333D01*
X11704571Y-32167333D01*
X11609333Y-32214952D01*
X11561714Y-32262571D01*
X11514095Y-32357809D01*
X11514095Y-32595904D01*
X11561714Y-32691142D01*
X11609333Y-32738761D01*
X11704571Y-32786380D01*
X11990285Y-32786380D01*
X12085523Y-32738761D01*
X12133142Y-32691142D01*
X13418857Y-34310380D02*
X13752190Y-33834190D01*
X13990285Y-34310380D02*
X13990285Y-33310380D01*
X13609333Y-33310380D01*
X13514095Y-33358000D01*
X13466476Y-33405619D01*
X13418857Y-33500857D01*
X13418857Y-33643714D01*
X13466476Y-33738952D01*
X13514095Y-33786571D01*
X13609333Y-33834190D01*
X13990285Y-33834190D01*
X13037904Y-33405619D02*
X12990285Y-33358000D01*
X12895047Y-33310380D01*
X12656952Y-33310380D01*
X12561714Y-33358000D01*
X12514095Y-33405619D01*
X12466476Y-33500857D01*
X12466476Y-33596095D01*
X12514095Y-33738952D01*
X13085523Y-34310380D01*
X12466476Y-34310380D01*
X12085523Y-33405619D02*
X12037904Y-33358000D01*
X11942666Y-33310380D01*
X11704571Y-33310380D01*
X11609333Y-33358000D01*
X11561714Y-33405619D01*
X11514095Y-33500857D01*
X11514095Y-33596095D01*
X11561714Y-33738952D01*
X12133142Y-34310380D01*
X11514095Y-34310380D01*
X22562857Y-31262380D02*
X22896190Y-30786190D01*
X23134285Y-31262380D02*
X23134285Y-30262380D01*
X22753333Y-30262380D01*
X22658095Y-30310000D01*
X22610476Y-30357619D01*
X22562857Y-30452857D01*
X22562857Y-30595714D01*
X22610476Y-30690952D01*
X22658095Y-30738571D01*
X22753333Y-30786190D01*
X23134285Y-30786190D01*
X22181904Y-30357619D02*
X22134285Y-30310000D01*
X22039047Y-30262380D01*
X21800952Y-30262380D01*
X21705714Y-30310000D01*
X21658095Y-30357619D01*
X21610476Y-30452857D01*
X21610476Y-30548095D01*
X21658095Y-30690952D01*
X22229523Y-31262380D01*
X21610476Y-31262380D01*
X20658095Y-31262380D02*
X21229523Y-31262380D01*
X20943809Y-31262380D02*
X20943809Y-30262380D01*
X21039047Y-30405238D01*
X21134285Y-30500476D01*
X21229523Y-30548095D01*
X22562857Y-32786380D02*
X22896190Y-32310190D01*
X23134285Y-32786380D02*
X23134285Y-31786380D01*
X22753333Y-31786380D01*
X22658095Y-31834000D01*
X22610476Y-31881619D01*
X22562857Y-31976857D01*
X22562857Y-32119714D01*
X22610476Y-32214952D01*
X22658095Y-32262571D01*
X22753333Y-32310190D01*
X23134285Y-32310190D01*
X22181904Y-31881619D02*
X22134285Y-31834000D01*
X22039047Y-31786380D01*
X21800952Y-31786380D01*
X21705714Y-31834000D01*
X21658095Y-31881619D01*
X21610476Y-31976857D01*
X21610476Y-32072095D01*
X21658095Y-32214952D01*
X22229523Y-32786380D01*
X21610476Y-32786380D01*
X20991428Y-31786380D02*
X20896190Y-31786380D01*
X20800952Y-31834000D01*
X20753333Y-31881619D01*
X20705714Y-31976857D01*
X20658095Y-32167333D01*
X20658095Y-32405428D01*
X20705714Y-32595904D01*
X20753333Y-32691142D01*
X20800952Y-32738761D01*
X20896190Y-32786380D01*
X20991428Y-32786380D01*
X21086666Y-32738761D01*
X21134285Y-32691142D01*
X21181904Y-32595904D01*
X21229523Y-32405428D01*
X21229523Y-32167333D01*
X21181904Y-31976857D01*
X21134285Y-31881619D01*
X21086666Y-31834000D01*
X20991428Y-31786380D01*
X41358857Y-18816380D02*
X41692190Y-18340190D01*
X41930285Y-18816380D02*
X41930285Y-17816380D01*
X41549333Y-17816380D01*
X41454095Y-17864000D01*
X41406476Y-17911619D01*
X41358857Y-18006857D01*
X41358857Y-18149714D01*
X41406476Y-18244952D01*
X41454095Y-18292571D01*
X41549333Y-18340190D01*
X41930285Y-18340190D01*
X40406476Y-18816380D02*
X40977904Y-18816380D01*
X40692190Y-18816380D02*
X40692190Y-17816380D01*
X40787428Y-17959238D01*
X40882666Y-18054476D01*
X40977904Y-18102095D01*
X39501714Y-17816380D02*
X39977904Y-17816380D01*
X40025523Y-18292571D01*
X39977904Y-18244952D01*
X39882666Y-18197333D01*
X39644571Y-18197333D01*
X39549333Y-18244952D01*
X39501714Y-18292571D01*
X39454095Y-18387809D01*
X39454095Y-18625904D01*
X39501714Y-18721142D01*
X39549333Y-18768761D01*
X39644571Y-18816380D01*
X39882666Y-18816380D01*
X39977904Y-18768761D01*
X40025523Y-18721142D01*
X41358857Y-17292380D02*
X41692190Y-16816190D01*
X41930285Y-17292380D02*
X41930285Y-16292380D01*
X41549333Y-16292380D01*
X41454095Y-16340000D01*
X41406476Y-16387619D01*
X41358857Y-16482857D01*
X41358857Y-16625714D01*
X41406476Y-16720952D01*
X41454095Y-16768571D01*
X41549333Y-16816190D01*
X41930285Y-16816190D01*
X40406476Y-17292380D02*
X40977904Y-17292380D01*
X40692190Y-17292380D02*
X40692190Y-16292380D01*
X40787428Y-16435238D01*
X40882666Y-16530476D01*
X40977904Y-16578095D01*
X39549333Y-16625714D02*
X39549333Y-17292380D01*
X39787428Y-16244761D02*
X40025523Y-16959047D01*
X39406476Y-16959047D01*
X41358857Y-15768380D02*
X41692190Y-15292190D01*
X41930285Y-15768380D02*
X41930285Y-14768380D01*
X41549333Y-14768380D01*
X41454095Y-14816000D01*
X41406476Y-14863619D01*
X41358857Y-14958857D01*
X41358857Y-15101714D01*
X41406476Y-15196952D01*
X41454095Y-15244571D01*
X41549333Y-15292190D01*
X41930285Y-15292190D01*
X40406476Y-15768380D02*
X40977904Y-15768380D01*
X40692190Y-15768380D02*
X40692190Y-14768380D01*
X40787428Y-14911238D01*
X40882666Y-15006476D01*
X40977904Y-15054095D01*
X40073142Y-14768380D02*
X39454095Y-14768380D01*
X39787428Y-15149333D01*
X39644571Y-15149333D01*
X39549333Y-15196952D01*
X39501714Y-15244571D01*
X39454095Y-15339809D01*
X39454095Y-15577904D01*
X39501714Y-15673142D01*
X39549333Y-15720761D01*
X39644571Y-15768380D01*
X39930285Y-15768380D01*
X40025523Y-15720761D01*
X40073142Y-15673142D01*
X52534857Y-12466380D02*
X52868190Y-11990190D01*
X53106285Y-12466380D02*
X53106285Y-11466380D01*
X52725333Y-11466380D01*
X52630095Y-11514000D01*
X52582476Y-11561619D01*
X52534857Y-11656857D01*
X52534857Y-11799714D01*
X52582476Y-11894952D01*
X52630095Y-11942571D01*
X52725333Y-11990190D01*
X53106285Y-11990190D01*
X51582476Y-12466380D02*
X52153904Y-12466380D01*
X51868190Y-12466380D02*
X51868190Y-11466380D01*
X51963428Y-11609238D01*
X52058666Y-11704476D01*
X52153904Y-11752095D01*
X51201523Y-11561619D02*
X51153904Y-11514000D01*
X51058666Y-11466380D01*
X50820571Y-11466380D01*
X50725333Y-11514000D01*
X50677714Y-11561619D01*
X50630095Y-11656857D01*
X50630095Y-11752095D01*
X50677714Y-11894952D01*
X51249142Y-12466380D01*
X50630095Y-12466380D01*
X41358857Y-12720380D02*
X41692190Y-12244190D01*
X41930285Y-12720380D02*
X41930285Y-11720380D01*
X41549333Y-11720380D01*
X41454095Y-11768000D01*
X41406476Y-11815619D01*
X41358857Y-11910857D01*
X41358857Y-12053714D01*
X41406476Y-12148952D01*
X41454095Y-12196571D01*
X41549333Y-12244190D01*
X41930285Y-12244190D01*
X40406476Y-12720380D02*
X40977904Y-12720380D01*
X40692190Y-12720380D02*
X40692190Y-11720380D01*
X40787428Y-11863238D01*
X40882666Y-11958476D01*
X40977904Y-12006095D01*
X39454095Y-12720380D02*
X40025523Y-12720380D01*
X39739809Y-12720380D02*
X39739809Y-11720380D01*
X39835047Y-11863238D01*
X39930285Y-11958476D01*
X40025523Y-12006095D01*
X41358857Y-28468380D02*
X41692190Y-27992190D01*
X41930285Y-28468380D02*
X41930285Y-27468380D01*
X41549333Y-27468380D01*
X41454095Y-27516000D01*
X41406476Y-27563619D01*
X41358857Y-27658857D01*
X41358857Y-27801714D01*
X41406476Y-27896952D01*
X41454095Y-27944571D01*
X41549333Y-27992190D01*
X41930285Y-27992190D01*
X40406476Y-28468380D02*
X40977904Y-28468380D01*
X40692190Y-28468380D02*
X40692190Y-27468380D01*
X40787428Y-27611238D01*
X40882666Y-27706476D01*
X40977904Y-27754095D01*
X39787428Y-27468380D02*
X39692190Y-27468380D01*
X39596952Y-27516000D01*
X39549333Y-27563619D01*
X39501714Y-27658857D01*
X39454095Y-27849333D01*
X39454095Y-28087428D01*
X39501714Y-28277904D01*
X39549333Y-28373142D01*
X39596952Y-28420761D01*
X39692190Y-28468380D01*
X39787428Y-28468380D01*
X39882666Y-28420761D01*
X39930285Y-28373142D01*
X39977904Y-28277904D01*
X40025523Y-28087428D01*
X40025523Y-27849333D01*
X39977904Y-27658857D01*
X39930285Y-27563619D01*
X39882666Y-27516000D01*
X39787428Y-27468380D01*
X41390666Y-26944380D02*
X41724000Y-26468190D01*
X41962095Y-26944380D02*
X41962095Y-25944380D01*
X41581142Y-25944380D01*
X41485904Y-25992000D01*
X41438285Y-26039619D01*
X41390666Y-26134857D01*
X41390666Y-26277714D01*
X41438285Y-26372952D01*
X41485904Y-26420571D01*
X41581142Y-26468190D01*
X41962095Y-26468190D01*
X40914476Y-26944380D02*
X40724000Y-26944380D01*
X40628761Y-26896761D01*
X40581142Y-26849142D01*
X40485904Y-26706285D01*
X40438285Y-26515809D01*
X40438285Y-26134857D01*
X40485904Y-26039619D01*
X40533523Y-25992000D01*
X40628761Y-25944380D01*
X40819238Y-25944380D01*
X40914476Y-25992000D01*
X40962095Y-26039619D01*
X41009714Y-26134857D01*
X41009714Y-26372952D01*
X40962095Y-26468190D01*
X40914476Y-26515809D01*
X40819238Y-26563428D01*
X40628761Y-26563428D01*
X40533523Y-26515809D01*
X40485904Y-26468190D01*
X40438285Y-26372952D01*
X41390666Y-25420380D02*
X41724000Y-24944190D01*
X41962095Y-25420380D02*
X41962095Y-24420380D01*
X41581142Y-24420380D01*
X41485904Y-24468000D01*
X41438285Y-24515619D01*
X41390666Y-24610857D01*
X41390666Y-24753714D01*
X41438285Y-24848952D01*
X41485904Y-24896571D01*
X41581142Y-24944190D01*
X41962095Y-24944190D01*
X40819238Y-24848952D02*
X40914476Y-24801333D01*
X40962095Y-24753714D01*
X41009714Y-24658476D01*
X41009714Y-24610857D01*
X40962095Y-24515619D01*
X40914476Y-24468000D01*
X40819238Y-24420380D01*
X40628761Y-24420380D01*
X40533523Y-24468000D01*
X40485904Y-24515619D01*
X40438285Y-24610857D01*
X40438285Y-24658476D01*
X40485904Y-24753714D01*
X40533523Y-24801333D01*
X40628761Y-24848952D01*
X40819238Y-24848952D01*
X40914476Y-24896571D01*
X40962095Y-24944190D01*
X41009714Y-25039428D01*
X41009714Y-25229904D01*
X40962095Y-25325142D01*
X40914476Y-25372761D01*
X40819238Y-25420380D01*
X40628761Y-25420380D01*
X40533523Y-25372761D01*
X40485904Y-25325142D01*
X40438285Y-25229904D01*
X40438285Y-25039428D01*
X40485904Y-24944190D01*
X40533523Y-24896571D01*
X40628761Y-24848952D01*
X52312666Y-22372380D02*
X52646000Y-21896190D01*
X52884095Y-22372380D02*
X52884095Y-21372380D01*
X52503142Y-21372380D01*
X52407904Y-21420000D01*
X52360285Y-21467619D01*
X52312666Y-21562857D01*
X52312666Y-21705714D01*
X52360285Y-21800952D01*
X52407904Y-21848571D01*
X52503142Y-21896190D01*
X52884095Y-21896190D01*
X51979333Y-21372380D02*
X51312666Y-21372380D01*
X51741238Y-22372380D01*
X41390666Y-22372380D02*
X41724000Y-21896190D01*
X41962095Y-22372380D02*
X41962095Y-21372380D01*
X41581142Y-21372380D01*
X41485904Y-21420000D01*
X41438285Y-21467619D01*
X41390666Y-21562857D01*
X41390666Y-21705714D01*
X41438285Y-21800952D01*
X41485904Y-21848571D01*
X41581142Y-21896190D01*
X41962095Y-21896190D01*
X40533523Y-21372380D02*
X40724000Y-21372380D01*
X40819238Y-21420000D01*
X40866857Y-21467619D01*
X40962095Y-21610476D01*
X41009714Y-21800952D01*
X41009714Y-22181904D01*
X40962095Y-22277142D01*
X40914476Y-22324761D01*
X40819238Y-22372380D01*
X40628761Y-22372380D01*
X40533523Y-22324761D01*
X40485904Y-22277142D01*
X40438285Y-22181904D01*
X40438285Y-21943809D01*
X40485904Y-21848571D01*
X40533523Y-21800952D01*
X40628761Y-21753333D01*
X40819238Y-21753333D01*
X40914476Y-21800952D01*
X40962095Y-21848571D01*
X41009714Y-21943809D01*
X22816857Y-13133142D02*
X22864476Y-13180761D01*
X23007333Y-13228380D01*
X23102571Y-13228380D01*
X23245428Y-13180761D01*
X23340666Y-13085523D01*
X23388285Y-12990285D01*
X23435904Y-12799809D01*
X23435904Y-12656952D01*
X23388285Y-12466476D01*
X23340666Y-12371238D01*
X23245428Y-12276000D01*
X23102571Y-12228380D01*
X23007333Y-12228380D01*
X22864476Y-12276000D01*
X22816857Y-12323619D01*
X21959714Y-12561714D02*
X21959714Y-13228380D01*
X22197809Y-12180761D02*
X22435904Y-12895047D01*
X21816857Y-12895047D01*
X21245428Y-12228380D02*
X21150190Y-12228380D01*
X21054952Y-12276000D01*
X21007333Y-12323619D01*
X20959714Y-12418857D01*
X20912095Y-12609333D01*
X20912095Y-12847428D01*
X20959714Y-13037904D01*
X21007333Y-13133142D01*
X21054952Y-13180761D01*
X21150190Y-13228380D01*
X21245428Y-13228380D01*
X21340666Y-13180761D01*
X21388285Y-13133142D01*
X21435904Y-13037904D01*
X21483523Y-12847428D01*
X21483523Y-12609333D01*
X21435904Y-12418857D01*
X21388285Y-12323619D01*
X21340666Y-12276000D01*
X21245428Y-12228380D01*
X42374857Y-30405142D02*
X42422476Y-30452761D01*
X42565333Y-30500380D01*
X42660571Y-30500380D01*
X42803428Y-30452761D01*
X42898666Y-30357523D01*
X42946285Y-30262285D01*
X42993904Y-30071809D01*
X42993904Y-29928952D01*
X42946285Y-29738476D01*
X42898666Y-29643238D01*
X42803428Y-29548000D01*
X42660571Y-29500380D01*
X42565333Y-29500380D01*
X42422476Y-29548000D01*
X42374857Y-29595619D01*
X42041523Y-29500380D02*
X41422476Y-29500380D01*
X41755809Y-29881333D01*
X41612952Y-29881333D01*
X41517714Y-29928952D01*
X41470095Y-29976571D01*
X41422476Y-30071809D01*
X41422476Y-30309904D01*
X41470095Y-30405142D01*
X41517714Y-30452761D01*
X41612952Y-30500380D01*
X41898666Y-30500380D01*
X41993904Y-30452761D01*
X42041523Y-30405142D01*
X40946285Y-30500380D02*
X40755809Y-30500380D01*
X40660571Y-30452761D01*
X40612952Y-30405142D01*
X40517714Y-30262285D01*
X40470095Y-30071809D01*
X40470095Y-29690857D01*
X40517714Y-29595619D01*
X40565333Y-29548000D01*
X40660571Y-29500380D01*
X40851047Y-29500380D01*
X40946285Y-29548000D01*
X40993904Y-29595619D01*
X41041523Y-29690857D01*
X41041523Y-29928952D01*
X40993904Y-30024190D01*
X40946285Y-30071809D01*
X40851047Y-30119428D01*
X40660571Y-30119428D01*
X40565333Y-30071809D01*
X40517714Y-30024190D01*
X40470095Y-29928952D01*
X22562857Y-34215142D02*
X22610476Y-34262761D01*
X22753333Y-34310380D01*
X22848571Y-34310380D01*
X22991428Y-34262761D01*
X23086666Y-34167523D01*
X23134285Y-34072285D01*
X23181904Y-33881809D01*
X23181904Y-33738952D01*
X23134285Y-33548476D01*
X23086666Y-33453238D01*
X22991428Y-33358000D01*
X22848571Y-33310380D01*
X22753333Y-33310380D01*
X22610476Y-33358000D01*
X22562857Y-33405619D01*
X22229523Y-33310380D02*
X21610476Y-33310380D01*
X21943809Y-33691333D01*
X21800952Y-33691333D01*
X21705714Y-33738952D01*
X21658095Y-33786571D01*
X21610476Y-33881809D01*
X21610476Y-34119904D01*
X21658095Y-34215142D01*
X21705714Y-34262761D01*
X21800952Y-34310380D01*
X22086666Y-34310380D01*
X22181904Y-34262761D01*
X22229523Y-34215142D01*
X21039047Y-33738952D02*
X21134285Y-33691333D01*
X21181904Y-33643714D01*
X21229523Y-33548476D01*
X21229523Y-33500857D01*
X21181904Y-33405619D01*
X21134285Y-33358000D01*
X21039047Y-33310380D01*
X20848571Y-33310380D01*
X20753333Y-33358000D01*
X20705714Y-33405619D01*
X20658095Y-33500857D01*
X20658095Y-33548476D01*
X20705714Y-33643714D01*
X20753333Y-33691333D01*
X20848571Y-33738952D01*
X21039047Y-33738952D01*
X21134285Y-33786571D01*
X21181904Y-33834190D01*
X21229523Y-33929428D01*
X21229523Y-34119904D01*
X21181904Y-34215142D01*
X21134285Y-34262761D01*
X21039047Y-34310380D01*
X20848571Y-34310380D01*
X20753333Y-34262761D01*
X20705714Y-34215142D01*
X20658095Y-34119904D01*
X20658095Y-33929428D01*
X20705714Y-33834190D01*
X20753333Y-33786571D01*
X20848571Y-33738952D01*
X52534857Y-10847142D02*
X52582476Y-10894761D01*
X52725333Y-10942380D01*
X52820571Y-10942380D01*
X52963428Y-10894761D01*
X53058666Y-10799523D01*
X53106285Y-10704285D01*
X53153904Y-10513809D01*
X53153904Y-10370952D01*
X53106285Y-10180476D01*
X53058666Y-10085238D01*
X52963428Y-9990000D01*
X52820571Y-9942380D01*
X52725333Y-9942380D01*
X52582476Y-9990000D01*
X52534857Y-10037619D01*
X52153904Y-10037619D02*
X52106285Y-9990000D01*
X52011047Y-9942380D01*
X51772952Y-9942380D01*
X51677714Y-9990000D01*
X51630095Y-10037619D01*
X51582476Y-10132857D01*
X51582476Y-10228095D01*
X51630095Y-10370952D01*
X52201523Y-10942380D01*
X51582476Y-10942380D01*
X51106285Y-10942380D02*
X50915809Y-10942380D01*
X50820571Y-10894761D01*
X50772952Y-10847142D01*
X50677714Y-10704285D01*
X50630095Y-10513809D01*
X50630095Y-10132857D01*
X50677714Y-10037619D01*
X50725333Y-9990000D01*
X50820571Y-9942380D01*
X51011047Y-9942380D01*
X51106285Y-9990000D01*
X51153904Y-10037619D01*
X51201523Y-10132857D01*
X51201523Y-10370952D01*
X51153904Y-10466190D01*
X51106285Y-10513809D01*
X51011047Y-10561428D01*
X50820571Y-10561428D01*
X50725333Y-10513809D01*
X50677714Y-10466190D01*
X50630095Y-10370952D01*
X41358857Y-11101142D02*
X41406476Y-11148761D01*
X41549333Y-11196380D01*
X41644571Y-11196380D01*
X41787428Y-11148761D01*
X41882666Y-11053523D01*
X41930285Y-10958285D01*
X41977904Y-10767809D01*
X41977904Y-10624952D01*
X41930285Y-10434476D01*
X41882666Y-10339238D01*
X41787428Y-10244000D01*
X41644571Y-10196380D01*
X41549333Y-10196380D01*
X41406476Y-10244000D01*
X41358857Y-10291619D01*
X40977904Y-10291619D02*
X40930285Y-10244000D01*
X40835047Y-10196380D01*
X40596952Y-10196380D01*
X40501714Y-10244000D01*
X40454095Y-10291619D01*
X40406476Y-10386857D01*
X40406476Y-10482095D01*
X40454095Y-10624952D01*
X41025523Y-11196380D01*
X40406476Y-11196380D01*
X39835047Y-10624952D02*
X39930285Y-10577333D01*
X39977904Y-10529714D01*
X40025523Y-10434476D01*
X40025523Y-10386857D01*
X39977904Y-10291619D01*
X39930285Y-10244000D01*
X39835047Y-10196380D01*
X39644571Y-10196380D01*
X39549333Y-10244000D01*
X39501714Y-10291619D01*
X39454095Y-10386857D01*
X39454095Y-10434476D01*
X39501714Y-10529714D01*
X39549333Y-10577333D01*
X39644571Y-10624952D01*
X39835047Y-10624952D01*
X39930285Y-10672571D01*
X39977904Y-10720190D01*
X40025523Y-10815428D01*
X40025523Y-11005904D01*
X39977904Y-11101142D01*
X39930285Y-11148761D01*
X39835047Y-11196380D01*
X39644571Y-11196380D01*
X39549333Y-11148761D01*
X39501714Y-11101142D01*
X39454095Y-11005904D01*
X39454095Y-10815428D01*
X39501714Y-10720190D01*
X39549333Y-10672571D01*
X39644571Y-10624952D01*
X30690857Y-30278142D02*
X30738476Y-30325761D01*
X30881333Y-30373380D01*
X30976571Y-30373380D01*
X31119428Y-30325761D01*
X31214666Y-30230523D01*
X31262285Y-30135285D01*
X31309904Y-29944809D01*
X31309904Y-29801952D01*
X31262285Y-29611476D01*
X31214666Y-29516238D01*
X31119428Y-29421000D01*
X30976571Y-29373380D01*
X30881333Y-29373380D01*
X30738476Y-29421000D01*
X30690857Y-29468619D01*
X29833714Y-29706714D02*
X29833714Y-30373380D01*
X30071809Y-29325761D02*
X30309904Y-30040047D01*
X29690857Y-30040047D01*
X28786095Y-30373380D02*
X29357523Y-30373380D01*
X29071809Y-30373380D02*
X29071809Y-29373380D01*
X29167047Y-29516238D01*
X29262285Y-29611476D01*
X29357523Y-29659095D01*
X12910857Y-18721142D02*
X12958476Y-18768761D01*
X13101333Y-18816380D01*
X13196571Y-18816380D01*
X13339428Y-18768761D01*
X13434666Y-18673523D01*
X13482285Y-18578285D01*
X13529904Y-18387809D01*
X13529904Y-18244952D01*
X13482285Y-18054476D01*
X13434666Y-17959238D01*
X13339428Y-17864000D01*
X13196571Y-17816380D01*
X13101333Y-17816380D01*
X12958476Y-17864000D01*
X12910857Y-17911619D01*
X12577523Y-17816380D02*
X11958476Y-17816380D01*
X12291809Y-18197333D01*
X12148952Y-18197333D01*
X12053714Y-18244952D01*
X12006095Y-18292571D01*
X11958476Y-18387809D01*
X11958476Y-18625904D01*
X12006095Y-18721142D01*
X12053714Y-18768761D01*
X12148952Y-18816380D01*
X12434666Y-18816380D01*
X12529904Y-18768761D01*
X12577523Y-18721142D01*
X11625142Y-17816380D02*
X10958476Y-17816380D01*
X11387047Y-18816380D01*
X12910857Y-17121142D02*
X12958476Y-17168761D01*
X13101333Y-17216380D01*
X13196571Y-17216380D01*
X13339428Y-17168761D01*
X13434666Y-17073523D01*
X13482285Y-16978285D01*
X13529904Y-16787809D01*
X13529904Y-16644952D01*
X13482285Y-16454476D01*
X13434666Y-16359238D01*
X13339428Y-16264000D01*
X13196571Y-16216380D01*
X13101333Y-16216380D01*
X12958476Y-16264000D01*
X12910857Y-16311619D01*
X12577523Y-16216380D02*
X11958476Y-16216380D01*
X12291809Y-16597333D01*
X12148952Y-16597333D01*
X12053714Y-16644952D01*
X12006095Y-16692571D01*
X11958476Y-16787809D01*
X11958476Y-17025904D01*
X12006095Y-17121142D01*
X12053714Y-17168761D01*
X12148952Y-17216380D01*
X12434666Y-17216380D01*
X12529904Y-17168761D01*
X12577523Y-17121142D01*
X11101333Y-16216380D02*
X11291809Y-16216380D01*
X11387047Y-16264000D01*
X11434666Y-16311619D01*
X11529904Y-16454476D01*
X11577523Y-16644952D01*
X11577523Y-17025904D01*
X11529904Y-17121142D01*
X11482285Y-17168761D01*
X11387047Y-17216380D01*
X11196571Y-17216380D01*
X11101333Y-17168761D01*
X11053714Y-17121142D01*
X11006095Y-17025904D01*
X11006095Y-16787809D01*
X11053714Y-16692571D01*
X11101333Y-16644952D01*
X11196571Y-16597333D01*
X11387047Y-16597333D01*
X11482285Y-16644952D01*
X11529904Y-16692571D01*
X11577523Y-16787809D01*
X23832857Y-18721142D02*
X23880476Y-18768761D01*
X24023333Y-18816380D01*
X24118571Y-18816380D01*
X24261428Y-18768761D01*
X24356666Y-18673523D01*
X24404285Y-18578285D01*
X24451904Y-18387809D01*
X24451904Y-18244952D01*
X24404285Y-18054476D01*
X24356666Y-17959238D01*
X24261428Y-17864000D01*
X24118571Y-17816380D01*
X24023333Y-17816380D01*
X23880476Y-17864000D01*
X23832857Y-17911619D01*
X23499523Y-17816380D02*
X22880476Y-17816380D01*
X23213809Y-18197333D01*
X23070952Y-18197333D01*
X22975714Y-18244952D01*
X22928095Y-18292571D01*
X22880476Y-18387809D01*
X22880476Y-18625904D01*
X22928095Y-18721142D01*
X22975714Y-18768761D01*
X23070952Y-18816380D01*
X23356666Y-18816380D01*
X23451904Y-18768761D01*
X23499523Y-18721142D01*
X21975714Y-17816380D02*
X22451904Y-17816380D01*
X22499523Y-18292571D01*
X22451904Y-18244952D01*
X22356666Y-18197333D01*
X22118571Y-18197333D01*
X22023333Y-18244952D01*
X21975714Y-18292571D01*
X21928095Y-18387809D01*
X21928095Y-18625904D01*
X21975714Y-18721142D01*
X22023333Y-18768761D01*
X22118571Y-18816380D01*
X22356666Y-18816380D01*
X22451904Y-18768761D01*
X22499523Y-18721142D01*
X23832857Y-17121142D02*
X23880476Y-17168761D01*
X24023333Y-17216380D01*
X24118571Y-17216380D01*
X24261428Y-17168761D01*
X24356666Y-17073523D01*
X24404285Y-16978285D01*
X24451904Y-16787809D01*
X24451904Y-16644952D01*
X24404285Y-16454476D01*
X24356666Y-16359238D01*
X24261428Y-16264000D01*
X24118571Y-16216380D01*
X24023333Y-16216380D01*
X23880476Y-16264000D01*
X23832857Y-16311619D01*
X23499523Y-16216380D02*
X22880476Y-16216380D01*
X23213809Y-16597333D01*
X23070952Y-16597333D01*
X22975714Y-16644952D01*
X22928095Y-16692571D01*
X22880476Y-16787809D01*
X22880476Y-17025904D01*
X22928095Y-17121142D01*
X22975714Y-17168761D01*
X23070952Y-17216380D01*
X23356666Y-17216380D01*
X23451904Y-17168761D01*
X23499523Y-17121142D01*
X22023333Y-16549714D02*
X22023333Y-17216380D01*
X22261428Y-16168761D02*
X22499523Y-16883047D01*
X21880476Y-16883047D01*
X12910857Y-26341142D02*
X12958476Y-26388761D01*
X13101333Y-26436380D01*
X13196571Y-26436380D01*
X13339428Y-26388761D01*
X13434666Y-26293523D01*
X13482285Y-26198285D01*
X13529904Y-26007809D01*
X13529904Y-25864952D01*
X13482285Y-25674476D01*
X13434666Y-25579238D01*
X13339428Y-25484000D01*
X13196571Y-25436380D01*
X13101333Y-25436380D01*
X12958476Y-25484000D01*
X12910857Y-25531619D01*
X12577523Y-25436380D02*
X11958476Y-25436380D01*
X12291809Y-25817333D01*
X12148952Y-25817333D01*
X12053714Y-25864952D01*
X12006095Y-25912571D01*
X11958476Y-26007809D01*
X11958476Y-26245904D01*
X12006095Y-26341142D01*
X12053714Y-26388761D01*
X12148952Y-26436380D01*
X12434666Y-26436380D01*
X12529904Y-26388761D01*
X12577523Y-26341142D01*
X11625142Y-25436380D02*
X11006095Y-25436380D01*
X11339428Y-25817333D01*
X11196571Y-25817333D01*
X11101333Y-25864952D01*
X11053714Y-25912571D01*
X11006095Y-26007809D01*
X11006095Y-26245904D01*
X11053714Y-26341142D01*
X11101333Y-26388761D01*
X11196571Y-26436380D01*
X11482285Y-26436380D01*
X11577523Y-26388761D01*
X11625142Y-26341142D01*
X12910857Y-24563142D02*
X12958476Y-24610761D01*
X13101333Y-24658380D01*
X13196571Y-24658380D01*
X13339428Y-24610761D01*
X13434666Y-24515523D01*
X13482285Y-24420285D01*
X13529904Y-24229809D01*
X13529904Y-24086952D01*
X13482285Y-23896476D01*
X13434666Y-23801238D01*
X13339428Y-23706000D01*
X13196571Y-23658380D01*
X13101333Y-23658380D01*
X12958476Y-23706000D01*
X12910857Y-23753619D01*
X12577523Y-23658380D02*
X11958476Y-23658380D01*
X12291809Y-24039333D01*
X12148952Y-24039333D01*
X12053714Y-24086952D01*
X12006095Y-24134571D01*
X11958476Y-24229809D01*
X11958476Y-24467904D01*
X12006095Y-24563142D01*
X12053714Y-24610761D01*
X12148952Y-24658380D01*
X12434666Y-24658380D01*
X12529904Y-24610761D01*
X12577523Y-24563142D01*
X11577523Y-23753619D02*
X11529904Y-23706000D01*
X11434666Y-23658380D01*
X11196571Y-23658380D01*
X11101333Y-23706000D01*
X11053714Y-23753619D01*
X11006095Y-23848857D01*
X11006095Y-23944095D01*
X11053714Y-24086952D01*
X11625142Y-24658380D01*
X11006095Y-24658380D01*
X23832857Y-26341142D02*
X23880476Y-26388761D01*
X24023333Y-26436380D01*
X24118571Y-26436380D01*
X24261428Y-26388761D01*
X24356666Y-26293523D01*
X24404285Y-26198285D01*
X24451904Y-26007809D01*
X24451904Y-25864952D01*
X24404285Y-25674476D01*
X24356666Y-25579238D01*
X24261428Y-25484000D01*
X24118571Y-25436380D01*
X24023333Y-25436380D01*
X23880476Y-25484000D01*
X23832857Y-25531619D01*
X23499523Y-25436380D02*
X22880476Y-25436380D01*
X23213809Y-25817333D01*
X23070952Y-25817333D01*
X22975714Y-25864952D01*
X22928095Y-25912571D01*
X22880476Y-26007809D01*
X22880476Y-26245904D01*
X22928095Y-26341142D01*
X22975714Y-26388761D01*
X23070952Y-26436380D01*
X23356666Y-26436380D01*
X23451904Y-26388761D01*
X23499523Y-26341142D01*
X21928095Y-26436380D02*
X22499523Y-26436380D01*
X22213809Y-26436380D02*
X22213809Y-25436380D01*
X22309047Y-25579238D01*
X22404285Y-25674476D01*
X22499523Y-25722095D01*
X23832857Y-24563142D02*
X23880476Y-24610761D01*
X24023333Y-24658380D01*
X24118571Y-24658380D01*
X24261428Y-24610761D01*
X24356666Y-24515523D01*
X24404285Y-24420285D01*
X24451904Y-24229809D01*
X24451904Y-24086952D01*
X24404285Y-23896476D01*
X24356666Y-23801238D01*
X24261428Y-23706000D01*
X24118571Y-23658380D01*
X24023333Y-23658380D01*
X23880476Y-23706000D01*
X23832857Y-23753619D01*
X23499523Y-23658380D02*
X22880476Y-23658380D01*
X23213809Y-24039333D01*
X23070952Y-24039333D01*
X22975714Y-24086952D01*
X22928095Y-24134571D01*
X22880476Y-24229809D01*
X22880476Y-24467904D01*
X22928095Y-24563142D01*
X22975714Y-24610761D01*
X23070952Y-24658380D01*
X23356666Y-24658380D01*
X23451904Y-24610761D01*
X23499523Y-24563142D01*
X22261428Y-23658380D02*
X22166190Y-23658380D01*
X22070952Y-23706000D01*
X22023333Y-23753619D01*
X21975714Y-23848857D01*
X21928095Y-24039333D01*
X21928095Y-24277428D01*
X21975714Y-24467904D01*
X22023333Y-24563142D01*
X22070952Y-24610761D01*
X22166190Y-24658380D01*
X22261428Y-24658380D01*
X22356666Y-24610761D01*
X22404285Y-24563142D01*
X22451904Y-24467904D01*
X22499523Y-24277428D01*
X22499523Y-24039333D01*
X22451904Y-23848857D01*
X22404285Y-23753619D01*
X22356666Y-23706000D01*
X22261428Y-23658380D01*
X52280857Y-20550142D02*
X52328476Y-20597761D01*
X52471333Y-20645380D01*
X52566571Y-20645380D01*
X52709428Y-20597761D01*
X52804666Y-20502523D01*
X52852285Y-20407285D01*
X52899904Y-20216809D01*
X52899904Y-20073952D01*
X52852285Y-19883476D01*
X52804666Y-19788238D01*
X52709428Y-19693000D01*
X52566571Y-19645380D01*
X52471333Y-19645380D01*
X52328476Y-19693000D01*
X52280857Y-19740619D01*
X51899904Y-19740619D02*
X51852285Y-19693000D01*
X51757047Y-19645380D01*
X51518952Y-19645380D01*
X51423714Y-19693000D01*
X51376095Y-19740619D01*
X51328476Y-19835857D01*
X51328476Y-19931095D01*
X51376095Y-20073952D01*
X51947523Y-20645380D01*
X51328476Y-20645380D01*
X50995142Y-19645380D02*
X50328476Y-19645380D01*
X50757047Y-20645380D01*
X41358857Y-20499142D02*
X41406476Y-20546761D01*
X41549333Y-20594380D01*
X41644571Y-20594380D01*
X41787428Y-20546761D01*
X41882666Y-20451523D01*
X41930285Y-20356285D01*
X41977904Y-20165809D01*
X41977904Y-20022952D01*
X41930285Y-19832476D01*
X41882666Y-19737238D01*
X41787428Y-19642000D01*
X41644571Y-19594380D01*
X41549333Y-19594380D01*
X41406476Y-19642000D01*
X41358857Y-19689619D01*
X40977904Y-19689619D02*
X40930285Y-19642000D01*
X40835047Y-19594380D01*
X40596952Y-19594380D01*
X40501714Y-19642000D01*
X40454095Y-19689619D01*
X40406476Y-19784857D01*
X40406476Y-19880095D01*
X40454095Y-20022952D01*
X41025523Y-20594380D01*
X40406476Y-20594380D01*
X39549333Y-19594380D02*
X39739809Y-19594380D01*
X39835047Y-19642000D01*
X39882666Y-19689619D01*
X39977904Y-19832476D01*
X40025523Y-20022952D01*
X40025523Y-20403904D01*
X39977904Y-20499142D01*
X39930285Y-20546761D01*
X39835047Y-20594380D01*
X39644571Y-20594380D01*
X39549333Y-20546761D01*
X39501714Y-20499142D01*
X39454095Y-20403904D01*
X39454095Y-20165809D01*
X39501714Y-20070571D01*
X39549333Y-20022952D01*
X39644571Y-19975333D01*
X39835047Y-19975333D01*
X39930285Y-20022952D01*
X39977904Y-20070571D01*
X40025523Y-20165809D01*
X16454380Y-38216666D02*
X17168666Y-38216666D01*
X17311523Y-38169047D01*
X17406761Y-38073809D01*
X17454380Y-37930952D01*
X17454380Y-37835714D01*
X16454380Y-38597619D02*
X16454380Y-39216666D01*
X16835333Y-38883333D01*
X16835333Y-39026190D01*
X16882952Y-39121428D01*
X16930571Y-39169047D01*
X17025809Y-39216666D01*
X17263904Y-39216666D01*
X17359142Y-39169047D01*
X17406761Y-39121428D01*
X17454380Y-39026190D01*
X17454380Y-38740476D01*
X17406761Y-38645238D01*
X17359142Y-38597619D01*
X7910380Y-3806666D02*
X8624666Y-3806666D01*
X8767523Y-3759047D01*
X8862761Y-3663809D01*
X8910380Y-3520952D01*
X8910380Y-3425714D01*
X8910380Y-4806666D02*
X8910380Y-4235238D01*
X8910380Y-4520952D02*
X7910380Y-4520952D01*
X8053238Y-4425714D01*
X8148476Y-4330476D01*
X8196095Y-4235238D01*
M02*
