M48
INCH,TZ
T1C0.0118
T2C0.0157
T3C0.0382
T4C0.0433
T5C0.0650
T6C0.1063
T7C0.1280
%
G90
G05
T1
X51250Y-54775
X51800Y-54775
X52425Y-56250
X52607Y-56016
X53050Y-54775
X53600Y-54775
X53775Y-56575
X54275Y-56575
X55528Y-49307
X55600Y-43975
X55675Y-49050
X55725Y-48275
X55900Y-47525
X55900Y-48025
X55950Y-46450
X55955Y-45970
X56400Y-50775
X56500Y-56047
X56575Y-56925
X56850Y-56047
X57025Y-57168
X57425Y-48800
X57625Y-45375
X57625Y-45975
X57750Y-48550
X58525Y-52850
X58725Y-50725
X58875Y-51325
X61597Y-58290
X62175Y-58300
X63000Y-58800
X63450Y-58500
X63575Y-59975
X63950Y-57575
X64025Y-58500
X64150Y-59975
X64350Y-57575
X64450Y-53300
X64575Y-58500
X64900Y-58500
X65275Y-57575
X65414Y-58503
X65650Y-57575
X65975Y-58500
X66325Y-58075
T2
X39925Y-52000
X40925Y-51525
X41325Y-59000
X42000Y-52000
X42825Y-39900
X42825Y-41975
X43225Y-42850
X43725Y-40000
X43725Y-41925
X43725Y-42850
X44525Y-40000
X44525Y-41925
X44700Y-46275
X44715Y-49210
X44925Y-54325
X44950Y-51525
X44950Y-52050
X44953Y-52640
X45050Y-43250
X45050Y-43725
X45050Y-44350
X45125Y-58975
X45300Y-40000
X45300Y-54825
X45325Y-41925
X45450Y-42750
X45550Y-59475
X45700Y-53075
X45792Y-44801
X45975Y-51100
X46025Y-54700
X46100Y-40000
X46100Y-41925
X46125Y-46275
X46125Y-49225
X46325Y-58225
X46495Y-46995
X46495Y-47445
X46495Y-49995
X46520Y-45120
X46520Y-45495
X46520Y-48070
X46520Y-48470
X46600Y-46275
X46600Y-49225
X46670Y-50320
X46725Y-55800
X46900Y-40025
X46900Y-41925
X47075Y-51075
X47275Y-42750
X47575Y-51600
X47575Y-52050
X47575Y-52550
X47675Y-40025
X47675Y-41925
X47675Y-43250
X47675Y-43750
X47675Y-44350
X47695Y-50745
X48020Y-50020
X48025Y-46275
X48025Y-49225
X48325Y-54325
X48475Y-40000
X48475Y-41925
X48575Y-45375
X48575Y-45900
X48600Y-46925
X48625Y-47725
X48645Y-49320
X48650Y-48575
X49250Y-40025
X49250Y-41925
X49275Y-54325
X49600Y-54775
X50050Y-40025
X50050Y-41925
X50225Y-54325
X50550Y-54775
X50825Y-40025
X50825Y-41925
X51175Y-54325
X51625Y-40025
X51625Y-41925
X52100Y-51550
X52125Y-54325
X52400Y-40000
X52400Y-41925
X52411Y-52627
X52425Y-54775
X52700Y-51550
X52720Y-52495
X53045Y-53020
X53175Y-40000
X53200Y-41925
X53345Y-52670
X53700Y-54325
X53975Y-40000
X53975Y-41925
X54325Y-54775
X54625Y-54325
X54750Y-40000
X54775Y-41925
X55275Y-54775
X55550Y-40000
X55575Y-54325
X55675Y-41068
X55750Y-49887
X55875Y-49575
X55875Y-50200
X55950Y-43525
X55950Y-46950
X56200Y-54775
X56250Y-51850
X56250Y-52250
X56275Y-51300
X56525Y-54325
X56650Y-40975
X57025Y-43150
X57075Y-41900
X57175Y-40975
X57250Y-52775
X57300Y-53650
X57375Y-47825
X57425Y-47325
X57425Y-49475
X57425Y-50375
X57450Y-46575
X57675Y-53425
X57750Y-47625
X57775Y-59350
X57875Y-41900
X58150Y-46575
X58150Y-50375
X58175Y-50750
X58227Y-43152
X58375Y-59350
X58750Y-39925
X58750Y-41950
X58800Y-59725
X58867Y-52258
X58875Y-51850
X59250Y-47375
X59250Y-47975
X59275Y-43625
X59275Y-44175
X59275Y-46550
X59307Y-55600
X59375Y-59175
X61850Y-57550
X62100Y-55100
X62800Y-40200
X62850Y-56700
X62925Y-53525
X62925Y-54050
X63058Y-57975
X63825Y-56231
X63825Y-56575
X63825Y-56925
X64750Y-59975
X64825Y-40200
X65325Y-59975
X65683Y-57000
X65900Y-59975
X66475Y-59975
X66625Y-40625
X66625Y-41525
X66750Y-55518
X66750Y-56034
X67225Y-58475
X67325Y-57350
X67775Y-55275
X68225Y-54250
X68225Y-54850
X68825Y-55675
X68825Y-56275
X68825Y-56875
X68825Y-57475
X70725Y-59525
T3
X65025Y-45625
X65025Y-46625
X65025Y-47625
X65025Y-48625
X65025Y-49625
X66025Y-45125
X66025Y-46125
X66025Y-47125
X66025Y-48125
X66025Y-49125
T4
X63123Y-45223
X63123Y-46223
X63123Y-48527
X63123Y-49527
T5
X67320Y-44326
X67320Y-50424
T6
X40945Y-53346
X71260Y-40945
X71260Y-53346
X40945Y-40945
T7
X68525Y-45125
X68525Y-49625
T0
M30
