G04 #@! TF.GenerationSoftware,KiCad,Pcbnew,5.1.6-c6e7f7d~87~ubuntu18.04.1*
G04 #@! TF.CreationDate,2021-07-06T00:26:10-07:00*
G04 #@! TF.ProjectId,EthernetBoard,45746865-726e-4657-9442-6f6172642e6b,A*
G04 #@! TF.SameCoordinates,Original*
G04 #@! TF.FileFunction,Paste,Top*
G04 #@! TF.FilePolarity,Positive*
%FSLAX46Y46*%
G04 Gerber Fmt 4.6, Leading zero omitted, Abs format (unit mm)*
G04 Created by KiCad (PCBNEW 5.1.6-c6e7f7d~87~ubuntu18.04.1) date 2021-07-06 00:26:10*
%MOMM*%
%LPD*%
G01*
G04 APERTURE LIST*
G04 #@! TA.AperFunction,Profile*
%ADD10C,0.100000*%
G04 #@! TD*
%ADD11C,0.010000*%
%ADD12R,0.260000X0.840000*%
%ADD13R,0.840000X0.260000*%
%ADD14R,1.480000X0.410000*%
%ADD15R,2.100000X0.890000*%
%ADD16R,1.600000X1.300000*%
%ADD17R,1.100000X0.450000*%
%ADD18R,1.475000X0.450000*%
%ADD19R,0.533400X1.270000*%
%ADD20R,0.650000X1.528000*%
%ADD21R,1.700000X0.800000*%
%ADD22R,6.000000X2.010000*%
%ADD23R,0.900000X1.200000*%
%ADD24R,0.890000X2.100000*%
G04 APERTURE END LIST*
D10*
X100000000Y-154000000D02*
X184999492Y-154000000D01*
X184999492Y-100000000D02*
X184999492Y-154000000D01*
X100000000Y-154000000D02*
X100000000Y-100000000D01*
X100000000Y-100000000D02*
X184999492Y-100000000D01*
D11*
G36*
X164648200Y-142670600D02*
G01*
X165748200Y-142670600D01*
X165748200Y-143770600D01*
X164648200Y-143770600D01*
X164648200Y-142670600D01*
G37*
X164648200Y-142670600D02*
X165748200Y-142670600D01*
X165748200Y-143770600D01*
X164648200Y-143770600D01*
X164648200Y-142670600D01*
G36*
X163248200Y-142670600D02*
G01*
X164348200Y-142670600D01*
X164348200Y-143770600D01*
X163248200Y-143770600D01*
X163248200Y-142670600D01*
G37*
X163248200Y-142670600D02*
X164348200Y-142670600D01*
X164348200Y-143770600D01*
X163248200Y-143770600D01*
X163248200Y-142670600D01*
G36*
X163248200Y-144070600D02*
G01*
X164348200Y-144070600D01*
X164348200Y-145170600D01*
X163248200Y-145170600D01*
X163248200Y-144070600D01*
G37*
X163248200Y-144070600D02*
X164348200Y-144070600D01*
X164348200Y-145170600D01*
X163248200Y-145170600D01*
X163248200Y-144070600D01*
G36*
X164648200Y-144070600D02*
G01*
X165748200Y-144070600D01*
X165748200Y-145170600D01*
X164648200Y-145170600D01*
X164648200Y-144070600D01*
G37*
X164648200Y-144070600D02*
X165748200Y-144070600D01*
X165748200Y-145170600D01*
X164648200Y-145170600D01*
X164648200Y-144070600D01*
G36*
G01*
X163959250Y-136734000D02*
X163446750Y-136734000D01*
G75*
G02*
X163228000Y-136515250I0J218750D01*
G01*
X163228000Y-136077750D01*
G75*
G02*
X163446750Y-135859000I218750J0D01*
G01*
X163959250Y-135859000D01*
G75*
G02*
X164178000Y-136077750I0J-218750D01*
G01*
X164178000Y-136515250D01*
G75*
G02*
X163959250Y-136734000I-218750J0D01*
G01*
G37*
G36*
G01*
X163959250Y-138309000D02*
X163446750Y-138309000D01*
G75*
G02*
X163228000Y-138090250I0J218750D01*
G01*
X163228000Y-137652750D01*
G75*
G02*
X163446750Y-137434000I218750J0D01*
G01*
X163959250Y-137434000D01*
G75*
G02*
X164178000Y-137652750I0J-218750D01*
G01*
X164178000Y-138090250D01*
G75*
G02*
X163959250Y-138309000I-218750J0D01*
G01*
G37*
D12*
X161748200Y-140485600D03*
X162248200Y-140485600D03*
X162748200Y-140485600D03*
X163248200Y-140485600D03*
X163748200Y-140485600D03*
X164248200Y-140485600D03*
X164748200Y-140485600D03*
X165248200Y-140485600D03*
X165748200Y-140485600D03*
X166248200Y-140485600D03*
X166748200Y-140485600D03*
X167248200Y-140485600D03*
D13*
X167933200Y-141170600D03*
X167933200Y-141670600D03*
X167933200Y-142170600D03*
X167933200Y-142670600D03*
X167933200Y-143170600D03*
X167933200Y-143670600D03*
X167933200Y-144170600D03*
X167933200Y-144670600D03*
X167933200Y-145170600D03*
X167933200Y-145670600D03*
X167933200Y-146170600D03*
X167933200Y-146670600D03*
D12*
X167248200Y-147355600D03*
X166748200Y-147355600D03*
X166248200Y-147355600D03*
X165748200Y-147355600D03*
X165248200Y-147355600D03*
X164748200Y-147355600D03*
X164248200Y-147355600D03*
X163748200Y-147355600D03*
X163248200Y-147355600D03*
X162748200Y-147355600D03*
X162248200Y-147355600D03*
X161748200Y-147355600D03*
D13*
X161063200Y-146670600D03*
X161063200Y-146170600D03*
X161063200Y-145670600D03*
X161063200Y-145170600D03*
X161063200Y-144670600D03*
X161063200Y-144170600D03*
X161063200Y-143670600D03*
X161063200Y-143170600D03*
X161063200Y-142670600D03*
X161063200Y-142170600D03*
X161063200Y-141670600D03*
X161063200Y-141170600D03*
D14*
X114915000Y-120451000D03*
X114915000Y-119801000D03*
X114915000Y-119151000D03*
X114915000Y-118501000D03*
X114915000Y-117851000D03*
X114915000Y-117201000D03*
X114915000Y-116551000D03*
X114915000Y-115901000D03*
X114915000Y-115251000D03*
X114915000Y-114601000D03*
X120645000Y-114601000D03*
X120645000Y-115251000D03*
X120645000Y-115901000D03*
X120645000Y-116551000D03*
X120645000Y-117201000D03*
X120645000Y-117851000D03*
X120645000Y-118501000D03*
X120645000Y-119151000D03*
X120645000Y-119801000D03*
X120645000Y-120451000D03*
D15*
X106698000Y-130890000D03*
X106698000Y-128890000D03*
X106698000Y-126890000D03*
X106698000Y-124890000D03*
X106698000Y-122890000D03*
X106698000Y-120890000D03*
X106698000Y-118890000D03*
X106698000Y-116890000D03*
X106698000Y-114890000D03*
X106698000Y-112890000D03*
X101398000Y-130890000D03*
X101398000Y-128890000D03*
X101398000Y-126890000D03*
X101398000Y-124890000D03*
X101398000Y-122890000D03*
X101398000Y-120890000D03*
X101398000Y-118890000D03*
X101398000Y-116890000D03*
X101398000Y-114890000D03*
X101398000Y-108890000D03*
X106698000Y-108890000D03*
X106698000Y-110890000D03*
X101398000Y-110890000D03*
X101398000Y-112890000D03*
G36*
G01*
X179385250Y-149638500D02*
X179897750Y-149638500D01*
G75*
G02*
X180116500Y-149857250I0J-218750D01*
G01*
X180116500Y-150294750D01*
G75*
G02*
X179897750Y-150513500I-218750J0D01*
G01*
X179385250Y-150513500D01*
G75*
G02*
X179166500Y-150294750I0J218750D01*
G01*
X179166500Y-149857250D01*
G75*
G02*
X179385250Y-149638500I218750J0D01*
G01*
G37*
G36*
G01*
X179385250Y-148063500D02*
X179897750Y-148063500D01*
G75*
G02*
X180116500Y-148282250I0J-218750D01*
G01*
X180116500Y-148719750D01*
G75*
G02*
X179897750Y-148938500I-218750J0D01*
G01*
X179385250Y-148938500D01*
G75*
G02*
X179166500Y-148719750I0J218750D01*
G01*
X179166500Y-148282250D01*
G75*
G02*
X179385250Y-148063500I218750J0D01*
G01*
G37*
G36*
G01*
X171007750Y-150107000D02*
X170495250Y-150107000D01*
G75*
G02*
X170276500Y-149888250I0J218750D01*
G01*
X170276500Y-149450750D01*
G75*
G02*
X170495250Y-149232000I218750J0D01*
G01*
X171007750Y-149232000D01*
G75*
G02*
X171226500Y-149450750I0J-218750D01*
G01*
X171226500Y-149888250D01*
G75*
G02*
X171007750Y-150107000I-218750J0D01*
G01*
G37*
G36*
G01*
X171007750Y-151682000D02*
X170495250Y-151682000D01*
G75*
G02*
X170276500Y-151463250I0J218750D01*
G01*
X170276500Y-151025750D01*
G75*
G02*
X170495250Y-150807000I218750J0D01*
G01*
X171007750Y-150807000D01*
G75*
G02*
X171226500Y-151025750I0J-218750D01*
G01*
X171226500Y-151463250D01*
G75*
G02*
X171007750Y-151682000I-218750J0D01*
G01*
G37*
D16*
X173284000Y-148507000D03*
X177084000Y-148507000D03*
X177084000Y-150807000D03*
X173284000Y-150807000D03*
D17*
X115830000Y-112151000D03*
X115830000Y-111501000D03*
X115830000Y-110851000D03*
X115830000Y-110201000D03*
X119730000Y-110201000D03*
X119730000Y-110851000D03*
X119730000Y-111501000D03*
X119730000Y-112151000D03*
X148178000Y-130521000D03*
X148178000Y-131171000D03*
X148178000Y-131821000D03*
X148178000Y-132471000D03*
X144278000Y-132471000D03*
X144278000Y-131821000D03*
X144278000Y-131171000D03*
X144278000Y-130521000D03*
X115576000Y-133296500D03*
X115576000Y-132646500D03*
X115576000Y-131996500D03*
X115576000Y-131346500D03*
X119476000Y-131346500D03*
X119476000Y-131996500D03*
X119476000Y-132646500D03*
X119476000Y-133296500D03*
D14*
X114915000Y-127944000D03*
X114915000Y-127294000D03*
X114915000Y-126644000D03*
X114915000Y-125994000D03*
X114915000Y-125344000D03*
X114915000Y-124694000D03*
X114915000Y-124044000D03*
X114915000Y-123394000D03*
X114915000Y-122744000D03*
X114915000Y-122094000D03*
X120645000Y-122094000D03*
X120645000Y-122744000D03*
X120645000Y-123394000D03*
X120645000Y-124044000D03*
X120645000Y-124694000D03*
X120645000Y-125344000D03*
X120645000Y-125994000D03*
X120645000Y-126644000D03*
X120645000Y-127294000D03*
X120645000Y-127944000D03*
D18*
X149293000Y-111030000D03*
X149293000Y-111680000D03*
X149293000Y-112330000D03*
X149293000Y-112980000D03*
X149293000Y-113630000D03*
X149293000Y-114280000D03*
X149293000Y-114930000D03*
X149293000Y-115580000D03*
X149293000Y-116230000D03*
X149293000Y-116880000D03*
X149293000Y-117530000D03*
X149293000Y-118180000D03*
X143417000Y-118180000D03*
X143417000Y-117530000D03*
X143417000Y-116880000D03*
X143417000Y-116230000D03*
X143417000Y-115580000D03*
X143417000Y-114930000D03*
X143417000Y-114280000D03*
X143417000Y-113630000D03*
X143417000Y-112980000D03*
X143417000Y-112330000D03*
X143417000Y-111680000D03*
X143417000Y-111030000D03*
X149166000Y-120682000D03*
X149166000Y-121332000D03*
X149166000Y-121982000D03*
X149166000Y-122632000D03*
X149166000Y-123282000D03*
X149166000Y-123932000D03*
X149166000Y-124582000D03*
X149166000Y-125232000D03*
X149166000Y-125882000D03*
X149166000Y-126532000D03*
X149166000Y-127182000D03*
X149166000Y-127832000D03*
X143290000Y-127832000D03*
X143290000Y-127182000D03*
X143290000Y-126532000D03*
X143290000Y-125882000D03*
X143290000Y-125232000D03*
X143290000Y-124582000D03*
X143290000Y-123932000D03*
X143290000Y-123282000D03*
X143290000Y-122632000D03*
X143290000Y-121982000D03*
X143290000Y-121332000D03*
X143290000Y-120682000D03*
G36*
G01*
X111907000Y-130037750D02*
X111907000Y-129525250D01*
G75*
G02*
X112125750Y-129306500I218750J0D01*
G01*
X112563250Y-129306500D01*
G75*
G02*
X112782000Y-129525250I0J-218750D01*
G01*
X112782000Y-130037750D01*
G75*
G02*
X112563250Y-130256500I-218750J0D01*
G01*
X112125750Y-130256500D01*
G75*
G02*
X111907000Y-130037750I0J218750D01*
G01*
G37*
G36*
G01*
X110332000Y-130037750D02*
X110332000Y-129525250D01*
G75*
G02*
X110550750Y-129306500I218750J0D01*
G01*
X110988250Y-129306500D01*
G75*
G02*
X111207000Y-129525250I0J-218750D01*
G01*
X111207000Y-130037750D01*
G75*
G02*
X110988250Y-130256500I-218750J0D01*
G01*
X110550750Y-130256500D01*
G75*
G02*
X110332000Y-130037750I0J218750D01*
G01*
G37*
G36*
G01*
X111207000Y-131049250D02*
X111207000Y-131561750D01*
G75*
G02*
X110988250Y-131780500I-218750J0D01*
G01*
X110550750Y-131780500D01*
G75*
G02*
X110332000Y-131561750I0J218750D01*
G01*
X110332000Y-131049250D01*
G75*
G02*
X110550750Y-130830500I218750J0D01*
G01*
X110988250Y-130830500D01*
G75*
G02*
X111207000Y-131049250I0J-218750D01*
G01*
G37*
G36*
G01*
X112782000Y-131049250D02*
X112782000Y-131561750D01*
G75*
G02*
X112563250Y-131780500I-218750J0D01*
G01*
X112125750Y-131780500D01*
G75*
G02*
X111907000Y-131561750I0J218750D01*
G01*
X111907000Y-131049250D01*
G75*
G02*
X112125750Y-130830500I218750J0D01*
G01*
X112563250Y-130830500D01*
G75*
G02*
X112782000Y-131049250I0J-218750D01*
G01*
G37*
G36*
G01*
X111907000Y-134609750D02*
X111907000Y-134097250D01*
G75*
G02*
X112125750Y-133878500I218750J0D01*
G01*
X112563250Y-133878500D01*
G75*
G02*
X112782000Y-134097250I0J-218750D01*
G01*
X112782000Y-134609750D01*
G75*
G02*
X112563250Y-134828500I-218750J0D01*
G01*
X112125750Y-134828500D01*
G75*
G02*
X111907000Y-134609750I0J218750D01*
G01*
G37*
G36*
G01*
X110332000Y-134609750D02*
X110332000Y-134097250D01*
G75*
G02*
X110550750Y-133878500I218750J0D01*
G01*
X110988250Y-133878500D01*
G75*
G02*
X111207000Y-134097250I0J-218750D01*
G01*
X111207000Y-134609750D01*
G75*
G02*
X110988250Y-134828500I-218750J0D01*
G01*
X110550750Y-134828500D01*
G75*
G02*
X110332000Y-134609750I0J218750D01*
G01*
G37*
G36*
G01*
X111181500Y-132573250D02*
X111181500Y-133085750D01*
G75*
G02*
X110962750Y-133304500I-218750J0D01*
G01*
X110525250Y-133304500D01*
G75*
G02*
X110306500Y-133085750I0J218750D01*
G01*
X110306500Y-132573250D01*
G75*
G02*
X110525250Y-132354500I218750J0D01*
G01*
X110962750Y-132354500D01*
G75*
G02*
X111181500Y-132573250I0J-218750D01*
G01*
G37*
G36*
G01*
X112756500Y-132573250D02*
X112756500Y-133085750D01*
G75*
G02*
X112537750Y-133304500I-218750J0D01*
G01*
X112100250Y-133304500D01*
G75*
G02*
X111881500Y-133085750I0J218750D01*
G01*
X111881500Y-132573250D01*
G75*
G02*
X112100250Y-132354500I218750J0D01*
G01*
X112537750Y-132354500D01*
G75*
G02*
X112756500Y-132573250I0J-218750D01*
G01*
G37*
G36*
G01*
X171470000Y-103431250D02*
X171470000Y-102918750D01*
G75*
G02*
X171688750Y-102700000I218750J0D01*
G01*
X172126250Y-102700000D01*
G75*
G02*
X172345000Y-102918750I0J-218750D01*
G01*
X172345000Y-103431250D01*
G75*
G02*
X172126250Y-103650000I-218750J0D01*
G01*
X171688750Y-103650000D01*
G75*
G02*
X171470000Y-103431250I0J218750D01*
G01*
G37*
G36*
G01*
X169895000Y-103431250D02*
X169895000Y-102918750D01*
G75*
G02*
X170113750Y-102700000I218750J0D01*
G01*
X170551250Y-102700000D01*
G75*
G02*
X170770000Y-102918750I0J-218750D01*
G01*
X170770000Y-103431250D01*
G75*
G02*
X170551250Y-103650000I-218750J0D01*
G01*
X170113750Y-103650000D01*
G75*
G02*
X169895000Y-103431250I0J218750D01*
G01*
G37*
G36*
G01*
X171697000Y-105917250D02*
X171697000Y-105004750D01*
G75*
G02*
X171940750Y-104761000I243750J0D01*
G01*
X172428250Y-104761000D01*
G75*
G02*
X172672000Y-105004750I0J-243750D01*
G01*
X172672000Y-105917250D01*
G75*
G02*
X172428250Y-106161000I-243750J0D01*
G01*
X171940750Y-106161000D01*
G75*
G02*
X171697000Y-105917250I0J243750D01*
G01*
G37*
G36*
G01*
X169822000Y-105917250D02*
X169822000Y-105004750D01*
G75*
G02*
X170065750Y-104761000I243750J0D01*
G01*
X170553250Y-104761000D01*
G75*
G02*
X170797000Y-105004750I0J-243750D01*
G01*
X170797000Y-105917250D01*
G75*
G02*
X170553250Y-106161000I-243750J0D01*
G01*
X170065750Y-106161000D01*
G75*
G02*
X169822000Y-105917250I0J243750D01*
G01*
G37*
D19*
X147320200Y-147167800D03*
X149199800Y-147167800D03*
X149199800Y-149606200D03*
X148260000Y-149606200D03*
X147320200Y-149606200D03*
D20*
X110795000Y-143009000D03*
X112065000Y-143009000D03*
X113335000Y-143009000D03*
X114605000Y-143009000D03*
X114605000Y-148431000D03*
X113335000Y-148431000D03*
X112065000Y-148431000D03*
X110795000Y-148431000D03*
D21*
X159512000Y-106538500D03*
X159512000Y-103138500D03*
X164655500Y-106538500D03*
X164655500Y-103138500D03*
G36*
G01*
X168590250Y-150832500D02*
X169102750Y-150832500D01*
G75*
G02*
X169321500Y-151051250I0J-218750D01*
G01*
X169321500Y-151488750D01*
G75*
G02*
X169102750Y-151707500I-218750J0D01*
G01*
X168590250Y-151707500D01*
G75*
G02*
X168371500Y-151488750I0J218750D01*
G01*
X168371500Y-151051250D01*
G75*
G02*
X168590250Y-150832500I218750J0D01*
G01*
G37*
G36*
G01*
X168590250Y-149257500D02*
X169102750Y-149257500D01*
G75*
G02*
X169321500Y-149476250I0J-218750D01*
G01*
X169321500Y-149913750D01*
G75*
G02*
X169102750Y-150132500I-218750J0D01*
G01*
X168590250Y-150132500D01*
G75*
G02*
X168371500Y-149913750I0J218750D01*
G01*
X168371500Y-149476250D01*
G75*
G02*
X168590250Y-149257500I218750J0D01*
G01*
G37*
G36*
G01*
X158262000Y-147449250D02*
X158262000Y-146936750D01*
G75*
G02*
X158480750Y-146718000I218750J0D01*
G01*
X158918250Y-146718000D01*
G75*
G02*
X159137000Y-146936750I0J-218750D01*
G01*
X159137000Y-147449250D01*
G75*
G02*
X158918250Y-147668000I-218750J0D01*
G01*
X158480750Y-147668000D01*
G75*
G02*
X158262000Y-147449250I0J218750D01*
G01*
G37*
G36*
G01*
X156687000Y-147449250D02*
X156687000Y-146936750D01*
G75*
G02*
X156905750Y-146718000I218750J0D01*
G01*
X157343250Y-146718000D01*
G75*
G02*
X157562000Y-146936750I0J-218750D01*
G01*
X157562000Y-147449250D01*
G75*
G02*
X157343250Y-147668000I-218750J0D01*
G01*
X156905750Y-147668000D01*
G75*
G02*
X156687000Y-147449250I0J218750D01*
G01*
G37*
G36*
G01*
X158274500Y-149163750D02*
X158274500Y-148651250D01*
G75*
G02*
X158493250Y-148432500I218750J0D01*
G01*
X158930750Y-148432500D01*
G75*
G02*
X159149500Y-148651250I0J-218750D01*
G01*
X159149500Y-149163750D01*
G75*
G02*
X158930750Y-149382500I-218750J0D01*
G01*
X158493250Y-149382500D01*
G75*
G02*
X158274500Y-149163750I0J218750D01*
G01*
G37*
G36*
G01*
X156699500Y-149163750D02*
X156699500Y-148651250D01*
G75*
G02*
X156918250Y-148432500I218750J0D01*
G01*
X157355750Y-148432500D01*
G75*
G02*
X157574500Y-148651250I0J-218750D01*
G01*
X157574500Y-149163750D01*
G75*
G02*
X157355750Y-149382500I-218750J0D01*
G01*
X156918250Y-149382500D01*
G75*
G02*
X156699500Y-149163750I0J218750D01*
G01*
G37*
G36*
G01*
X154464500Y-141480250D02*
X154464500Y-140967750D01*
G75*
G02*
X154683250Y-140749000I218750J0D01*
G01*
X155120750Y-140749000D01*
G75*
G02*
X155339500Y-140967750I0J-218750D01*
G01*
X155339500Y-141480250D01*
G75*
G02*
X155120750Y-141699000I-218750J0D01*
G01*
X154683250Y-141699000D01*
G75*
G02*
X154464500Y-141480250I0J218750D01*
G01*
G37*
G36*
G01*
X152889500Y-141480250D02*
X152889500Y-140967750D01*
G75*
G02*
X153108250Y-140749000I218750J0D01*
G01*
X153545750Y-140749000D01*
G75*
G02*
X153764500Y-140967750I0J-218750D01*
G01*
X153764500Y-141480250D01*
G75*
G02*
X153545750Y-141699000I-218750J0D01*
G01*
X153108250Y-141699000D01*
G75*
G02*
X152889500Y-141480250I0J218750D01*
G01*
G37*
G36*
G01*
X148710000Y-145427000D02*
X148710000Y-143727000D01*
G75*
G02*
X148960000Y-143477000I250000J0D01*
G01*
X149710000Y-143477000D01*
G75*
G02*
X149960000Y-143727000I0J-250000D01*
G01*
X149960000Y-145427000D01*
G75*
G02*
X149710000Y-145677000I-250000J0D01*
G01*
X148960000Y-145677000D01*
G75*
G02*
X148710000Y-145427000I0J250000D01*
G01*
G37*
G36*
G01*
X146560000Y-145427000D02*
X146560000Y-143727000D01*
G75*
G02*
X146810000Y-143477000I250000J0D01*
G01*
X147560000Y-143477000D01*
G75*
G02*
X147810000Y-143727000I0J-250000D01*
G01*
X147810000Y-145427000D01*
G75*
G02*
X147560000Y-145677000I-250000J0D01*
G01*
X146810000Y-145677000D01*
G75*
G02*
X146560000Y-145427000I0J250000D01*
G01*
G37*
D22*
X104953000Y-143697000D03*
X104953000Y-147997000D03*
D23*
X110427500Y-140589000D03*
X113727500Y-140589000D03*
G36*
G01*
X150543750Y-148864000D02*
X151056250Y-148864000D01*
G75*
G02*
X151275000Y-149082750I0J-218750D01*
G01*
X151275000Y-149520250D01*
G75*
G02*
X151056250Y-149739000I-218750J0D01*
G01*
X150543750Y-149739000D01*
G75*
G02*
X150325000Y-149520250I0J218750D01*
G01*
X150325000Y-149082750D01*
G75*
G02*
X150543750Y-148864000I218750J0D01*
G01*
G37*
G36*
G01*
X150543750Y-147289000D02*
X151056250Y-147289000D01*
G75*
G02*
X151275000Y-147507750I0J-218750D01*
G01*
X151275000Y-147945250D01*
G75*
G02*
X151056250Y-148164000I-218750J0D01*
G01*
X150543750Y-148164000D01*
G75*
G02*
X150325000Y-147945250I0J218750D01*
G01*
X150325000Y-147507750D01*
G75*
G02*
X150543750Y-147289000I218750J0D01*
G01*
G37*
G36*
G01*
X147848000Y-151945250D02*
X147848000Y-151432750D01*
G75*
G02*
X148066750Y-151214000I218750J0D01*
G01*
X148504250Y-151214000D01*
G75*
G02*
X148723000Y-151432750I0J-218750D01*
G01*
X148723000Y-151945250D01*
G75*
G02*
X148504250Y-152164000I-218750J0D01*
G01*
X148066750Y-152164000D01*
G75*
G02*
X147848000Y-151945250I0J218750D01*
G01*
G37*
G36*
G01*
X146273000Y-151945250D02*
X146273000Y-151432750D01*
G75*
G02*
X146491750Y-151214000I218750J0D01*
G01*
X146929250Y-151214000D01*
G75*
G02*
X147148000Y-151432750I0J-218750D01*
G01*
X147148000Y-151945250D01*
G75*
G02*
X146929250Y-152164000I-218750J0D01*
G01*
X146491750Y-152164000D01*
G75*
G02*
X146273000Y-151945250I0J218750D01*
G01*
G37*
G36*
G01*
X109400250Y-145751000D02*
X108887750Y-145751000D01*
G75*
G02*
X108669000Y-145532250I0J218750D01*
G01*
X108669000Y-145094750D01*
G75*
G02*
X108887750Y-144876000I218750J0D01*
G01*
X109400250Y-144876000D01*
G75*
G02*
X109619000Y-145094750I0J-218750D01*
G01*
X109619000Y-145532250D01*
G75*
G02*
X109400250Y-145751000I-218750J0D01*
G01*
G37*
G36*
G01*
X109400250Y-147326000D02*
X108887750Y-147326000D01*
G75*
G02*
X108669000Y-147107250I0J218750D01*
G01*
X108669000Y-146669750D01*
G75*
G02*
X108887750Y-146451000I218750J0D01*
G01*
X109400250Y-146451000D01*
G75*
G02*
X109619000Y-146669750I0J-218750D01*
G01*
X109619000Y-147107250D01*
G75*
G02*
X109400250Y-147326000I-218750J0D01*
G01*
G37*
G36*
G01*
X118578000Y-147216000D02*
X116728000Y-147216000D01*
G75*
G02*
X116478000Y-146966000I0J250000D01*
G01*
X116478000Y-145391000D01*
G75*
G02*
X116728000Y-145141000I250000J0D01*
G01*
X118578000Y-145141000D01*
G75*
G02*
X118828000Y-145391000I0J-250000D01*
G01*
X118828000Y-146966000D01*
G75*
G02*
X118578000Y-147216000I-250000J0D01*
G01*
G37*
G36*
G01*
X118578000Y-152141000D02*
X116728000Y-152141000D01*
G75*
G02*
X116478000Y-151891000I0J250000D01*
G01*
X116478000Y-150316000D01*
G75*
G02*
X116728000Y-150066000I250000J0D01*
G01*
X118578000Y-150066000D01*
G75*
G02*
X118828000Y-150316000I0J-250000D01*
G01*
X118828000Y-151891000D01*
G75*
G02*
X118578000Y-152141000I-250000J0D01*
G01*
G37*
G36*
G01*
X116465999Y-142560000D02*
X117316001Y-142560000D01*
G75*
G02*
X117566000Y-142809999I0J-249999D01*
G01*
X117566000Y-143710001D01*
G75*
G02*
X117316001Y-143960000I-249999J0D01*
G01*
X116465999Y-143960000D01*
G75*
G02*
X116216000Y-143710001I0J249999D01*
G01*
X116216000Y-142809999D01*
G75*
G02*
X116465999Y-142560000I249999J0D01*
G01*
G37*
G36*
G01*
X116465999Y-139860000D02*
X117316001Y-139860000D01*
G75*
G02*
X117566000Y-140109999I0J-249999D01*
G01*
X117566000Y-141010001D01*
G75*
G02*
X117316001Y-141260000I-249999J0D01*
G01*
X116465999Y-141260000D01*
G75*
G02*
X116216000Y-141010001I0J249999D01*
G01*
X116216000Y-140109999D01*
G75*
G02*
X116465999Y-139860000I249999J0D01*
G01*
G37*
G36*
G01*
X173248000Y-146230250D02*
X173248000Y-145717750D01*
G75*
G02*
X173466750Y-145499000I218750J0D01*
G01*
X173904250Y-145499000D01*
G75*
G02*
X174123000Y-145717750I0J-218750D01*
G01*
X174123000Y-146230250D01*
G75*
G02*
X173904250Y-146449000I-218750J0D01*
G01*
X173466750Y-146449000D01*
G75*
G02*
X173248000Y-146230250I0J218750D01*
G01*
G37*
G36*
G01*
X171673000Y-146230250D02*
X171673000Y-145717750D01*
G75*
G02*
X171891750Y-145499000I218750J0D01*
G01*
X172329250Y-145499000D01*
G75*
G02*
X172548000Y-145717750I0J-218750D01*
G01*
X172548000Y-146230250D01*
G75*
G02*
X172329250Y-146449000I-218750J0D01*
G01*
X171891750Y-146449000D01*
G75*
G02*
X171673000Y-146230250I0J218750D01*
G01*
G37*
G36*
G01*
X173248000Y-144706250D02*
X173248000Y-144193750D01*
G75*
G02*
X173466750Y-143975000I218750J0D01*
G01*
X173904250Y-143975000D01*
G75*
G02*
X174123000Y-144193750I0J-218750D01*
G01*
X174123000Y-144706250D01*
G75*
G02*
X173904250Y-144925000I-218750J0D01*
G01*
X173466750Y-144925000D01*
G75*
G02*
X173248000Y-144706250I0J218750D01*
G01*
G37*
G36*
G01*
X171673000Y-144706250D02*
X171673000Y-144193750D01*
G75*
G02*
X171891750Y-143975000I218750J0D01*
G01*
X172329250Y-143975000D01*
G75*
G02*
X172548000Y-144193750I0J-218750D01*
G01*
X172548000Y-144706250D01*
G75*
G02*
X172329250Y-144925000I-218750J0D01*
G01*
X171891750Y-144925000D01*
G75*
G02*
X171673000Y-144706250I0J218750D01*
G01*
G37*
G36*
G01*
X167129750Y-150832500D02*
X167642250Y-150832500D01*
G75*
G02*
X167861000Y-151051250I0J-218750D01*
G01*
X167861000Y-151488750D01*
G75*
G02*
X167642250Y-151707500I-218750J0D01*
G01*
X167129750Y-151707500D01*
G75*
G02*
X166911000Y-151488750I0J218750D01*
G01*
X166911000Y-151051250D01*
G75*
G02*
X167129750Y-150832500I218750J0D01*
G01*
G37*
G36*
G01*
X167129750Y-149257500D02*
X167642250Y-149257500D01*
G75*
G02*
X167861000Y-149476250I0J-218750D01*
G01*
X167861000Y-149913750D01*
G75*
G02*
X167642250Y-150132500I-218750J0D01*
G01*
X167129750Y-150132500D01*
G75*
G02*
X166911000Y-149913750I0J218750D01*
G01*
X166911000Y-149476250D01*
G75*
G02*
X167129750Y-149257500I218750J0D01*
G01*
G37*
G36*
G01*
X161224250Y-150832500D02*
X161736750Y-150832500D01*
G75*
G02*
X161955500Y-151051250I0J-218750D01*
G01*
X161955500Y-151488750D01*
G75*
G02*
X161736750Y-151707500I-218750J0D01*
G01*
X161224250Y-151707500D01*
G75*
G02*
X161005500Y-151488750I0J218750D01*
G01*
X161005500Y-151051250D01*
G75*
G02*
X161224250Y-150832500I218750J0D01*
G01*
G37*
G36*
G01*
X161224250Y-149257500D02*
X161736750Y-149257500D01*
G75*
G02*
X161955500Y-149476250I0J-218750D01*
G01*
X161955500Y-149913750D01*
G75*
G02*
X161736750Y-150132500I-218750J0D01*
G01*
X161224250Y-150132500D01*
G75*
G02*
X161005500Y-149913750I0J218750D01*
G01*
X161005500Y-149476250D01*
G75*
G02*
X161224250Y-149257500I218750J0D01*
G01*
G37*
G36*
G01*
X157562000Y-144968250D02*
X157562000Y-145480750D01*
G75*
G02*
X157343250Y-145699500I-218750J0D01*
G01*
X156905750Y-145699500D01*
G75*
G02*
X156687000Y-145480750I0J218750D01*
G01*
X156687000Y-144968250D01*
G75*
G02*
X156905750Y-144749500I218750J0D01*
G01*
X157343250Y-144749500D01*
G75*
G02*
X157562000Y-144968250I0J-218750D01*
G01*
G37*
G36*
G01*
X159137000Y-144968250D02*
X159137000Y-145480750D01*
G75*
G02*
X158918250Y-145699500I-218750J0D01*
G01*
X158480750Y-145699500D01*
G75*
G02*
X158262000Y-145480750I0J218750D01*
G01*
X158262000Y-144968250D01*
G75*
G02*
X158480750Y-144749500I218750J0D01*
G01*
X158918250Y-144749500D01*
G75*
G02*
X159137000Y-144968250I0J-218750D01*
G01*
G37*
G36*
G01*
X161165250Y-136734000D02*
X160652750Y-136734000D01*
G75*
G02*
X160434000Y-136515250I0J218750D01*
G01*
X160434000Y-136077750D01*
G75*
G02*
X160652750Y-135859000I218750J0D01*
G01*
X161165250Y-135859000D01*
G75*
G02*
X161384000Y-136077750I0J-218750D01*
G01*
X161384000Y-136515250D01*
G75*
G02*
X161165250Y-136734000I-218750J0D01*
G01*
G37*
G36*
G01*
X161165250Y-138309000D02*
X160652750Y-138309000D01*
G75*
G02*
X160434000Y-138090250I0J218750D01*
G01*
X160434000Y-137652750D01*
G75*
G02*
X160652750Y-137434000I218750J0D01*
G01*
X161165250Y-137434000D01*
G75*
G02*
X161384000Y-137652750I0J-218750D01*
G01*
X161384000Y-138090250D01*
G75*
G02*
X161165250Y-138309000I-218750J0D01*
G01*
G37*
G36*
G01*
X157562000Y-143495250D02*
X157562000Y-144007750D01*
G75*
G02*
X157343250Y-144226500I-218750J0D01*
G01*
X156905750Y-144226500D01*
G75*
G02*
X156687000Y-144007750I0J218750D01*
G01*
X156687000Y-143495250D01*
G75*
G02*
X156905750Y-143276500I218750J0D01*
G01*
X157343250Y-143276500D01*
G75*
G02*
X157562000Y-143495250I0J-218750D01*
G01*
G37*
G36*
G01*
X159137000Y-143495250D02*
X159137000Y-144007750D01*
G75*
G02*
X158918250Y-144226500I-218750J0D01*
G01*
X158480750Y-144226500D01*
G75*
G02*
X158262000Y-144007750I0J218750D01*
G01*
X158262000Y-143495250D01*
G75*
G02*
X158480750Y-143276500I218750J0D01*
G01*
X158918250Y-143276500D01*
G75*
G02*
X159137000Y-143495250I0J-218750D01*
G01*
G37*
G36*
G01*
X162684750Y-150832500D02*
X163197250Y-150832500D01*
G75*
G02*
X163416000Y-151051250I0J-218750D01*
G01*
X163416000Y-151488750D01*
G75*
G02*
X163197250Y-151707500I-218750J0D01*
G01*
X162684750Y-151707500D01*
G75*
G02*
X162466000Y-151488750I0J218750D01*
G01*
X162466000Y-151051250D01*
G75*
G02*
X162684750Y-150832500I218750J0D01*
G01*
G37*
G36*
G01*
X162684750Y-149257500D02*
X163197250Y-149257500D01*
G75*
G02*
X163416000Y-149476250I0J-218750D01*
G01*
X163416000Y-149913750D01*
G75*
G02*
X163197250Y-150132500I-218750J0D01*
G01*
X162684750Y-150132500D01*
G75*
G02*
X162466000Y-149913750I0J218750D01*
G01*
X162466000Y-149476250D01*
G75*
G02*
X162684750Y-149257500I218750J0D01*
G01*
G37*
G36*
G01*
X164196250Y-150832500D02*
X164708750Y-150832500D01*
G75*
G02*
X164927500Y-151051250I0J-218750D01*
G01*
X164927500Y-151488750D01*
G75*
G02*
X164708750Y-151707500I-218750J0D01*
G01*
X164196250Y-151707500D01*
G75*
G02*
X163977500Y-151488750I0J218750D01*
G01*
X163977500Y-151051250D01*
G75*
G02*
X164196250Y-150832500I218750J0D01*
G01*
G37*
G36*
G01*
X164196250Y-149257500D02*
X164708750Y-149257500D01*
G75*
G02*
X164927500Y-149476250I0J-218750D01*
G01*
X164927500Y-149913750D01*
G75*
G02*
X164708750Y-150132500I-218750J0D01*
G01*
X164196250Y-150132500D01*
G75*
G02*
X163977500Y-149913750I0J218750D01*
G01*
X163977500Y-149476250D01*
G75*
G02*
X164196250Y-149257500I218750J0D01*
G01*
G37*
G36*
G01*
X165669250Y-150832500D02*
X166181750Y-150832500D01*
G75*
G02*
X166400500Y-151051250I0J-218750D01*
G01*
X166400500Y-151488750D01*
G75*
G02*
X166181750Y-151707500I-218750J0D01*
G01*
X165669250Y-151707500D01*
G75*
G02*
X165450500Y-151488750I0J218750D01*
G01*
X165450500Y-151051250D01*
G75*
G02*
X165669250Y-150832500I218750J0D01*
G01*
G37*
G36*
G01*
X165669250Y-149257500D02*
X166181750Y-149257500D01*
G75*
G02*
X166400500Y-149476250I0J-218750D01*
G01*
X166400500Y-149913750D01*
G75*
G02*
X166181750Y-150132500I-218750J0D01*
G01*
X165669250Y-150132500D01*
G75*
G02*
X165450500Y-149913750I0J218750D01*
G01*
X165450500Y-149476250D01*
G75*
G02*
X165669250Y-149257500I218750J0D01*
G01*
G37*
G36*
G01*
X173248000Y-141658250D02*
X173248000Y-141145750D01*
G75*
G02*
X173466750Y-140927000I218750J0D01*
G01*
X173904250Y-140927000D01*
G75*
G02*
X174123000Y-141145750I0J-218750D01*
G01*
X174123000Y-141658250D01*
G75*
G02*
X173904250Y-141877000I-218750J0D01*
G01*
X173466750Y-141877000D01*
G75*
G02*
X173248000Y-141658250I0J218750D01*
G01*
G37*
G36*
G01*
X171673000Y-141658250D02*
X171673000Y-141145750D01*
G75*
G02*
X171891750Y-140927000I218750J0D01*
G01*
X172329250Y-140927000D01*
G75*
G02*
X172548000Y-141145750I0J-218750D01*
G01*
X172548000Y-141658250D01*
G75*
G02*
X172329250Y-141877000I-218750J0D01*
G01*
X171891750Y-141877000D01*
G75*
G02*
X171673000Y-141658250I0J218750D01*
G01*
G37*
G36*
G01*
X173248000Y-143182250D02*
X173248000Y-142669750D01*
G75*
G02*
X173466750Y-142451000I218750J0D01*
G01*
X173904250Y-142451000D01*
G75*
G02*
X174123000Y-142669750I0J-218750D01*
G01*
X174123000Y-143182250D01*
G75*
G02*
X173904250Y-143401000I-218750J0D01*
G01*
X173466750Y-143401000D01*
G75*
G02*
X173248000Y-143182250I0J218750D01*
G01*
G37*
G36*
G01*
X171673000Y-143182250D02*
X171673000Y-142669750D01*
G75*
G02*
X171891750Y-142451000I218750J0D01*
G01*
X172329250Y-142451000D01*
G75*
G02*
X172548000Y-142669750I0J-218750D01*
G01*
X172548000Y-143182250D01*
G75*
G02*
X172329250Y-143401000I-218750J0D01*
G01*
X171891750Y-143401000D01*
G75*
G02*
X171673000Y-143182250I0J218750D01*
G01*
G37*
G36*
G01*
X170868250Y-141814000D02*
X170355750Y-141814000D01*
G75*
G02*
X170137000Y-141595250I0J218750D01*
G01*
X170137000Y-141157750D01*
G75*
G02*
X170355750Y-140939000I218750J0D01*
G01*
X170868250Y-140939000D01*
G75*
G02*
X171087000Y-141157750I0J-218750D01*
G01*
X171087000Y-141595250D01*
G75*
G02*
X170868250Y-141814000I-218750J0D01*
G01*
G37*
G36*
G01*
X170868250Y-143389000D02*
X170355750Y-143389000D01*
G75*
G02*
X170137000Y-143170250I0J218750D01*
G01*
X170137000Y-142732750D01*
G75*
G02*
X170355750Y-142514000I218750J0D01*
G01*
X170868250Y-142514000D01*
G75*
G02*
X171087000Y-142732750I0J-218750D01*
G01*
X171087000Y-143170250D01*
G75*
G02*
X170868250Y-143389000I-218750J0D01*
G01*
G37*
G36*
G01*
X157562000Y-141018750D02*
X157562000Y-141531250D01*
G75*
G02*
X157343250Y-141750000I-218750J0D01*
G01*
X156905750Y-141750000D01*
G75*
G02*
X156687000Y-141531250I0J218750D01*
G01*
X156687000Y-141018750D01*
G75*
G02*
X156905750Y-140800000I218750J0D01*
G01*
X157343250Y-140800000D01*
G75*
G02*
X157562000Y-141018750I0J-218750D01*
G01*
G37*
G36*
G01*
X159137000Y-141018750D02*
X159137000Y-141531250D01*
G75*
G02*
X158918250Y-141750000I-218750J0D01*
G01*
X158480750Y-141750000D01*
G75*
G02*
X158262000Y-141531250I0J218750D01*
G01*
X158262000Y-141018750D01*
G75*
G02*
X158480750Y-140800000I218750J0D01*
G01*
X158918250Y-140800000D01*
G75*
G02*
X159137000Y-141018750I0J-218750D01*
G01*
G37*
G36*
G01*
X171685500Y-139562750D02*
X171685500Y-139050250D01*
G75*
G02*
X171904250Y-138831500I218750J0D01*
G01*
X172341750Y-138831500D01*
G75*
G02*
X172560500Y-139050250I0J-218750D01*
G01*
X172560500Y-139562750D01*
G75*
G02*
X172341750Y-139781500I-218750J0D01*
G01*
X171904250Y-139781500D01*
G75*
G02*
X171685500Y-139562750I0J218750D01*
G01*
G37*
G36*
G01*
X170110500Y-139562750D02*
X170110500Y-139050250D01*
G75*
G02*
X170329250Y-138831500I218750J0D01*
G01*
X170766750Y-138831500D01*
G75*
G02*
X170985500Y-139050250I0J-218750D01*
G01*
X170985500Y-139562750D01*
G75*
G02*
X170766750Y-139781500I-218750J0D01*
G01*
X170329250Y-139781500D01*
G75*
G02*
X170110500Y-139562750I0J218750D01*
G01*
G37*
G36*
G01*
X171685500Y-138038750D02*
X171685500Y-137526250D01*
G75*
G02*
X171904250Y-137307500I218750J0D01*
G01*
X172341750Y-137307500D01*
G75*
G02*
X172560500Y-137526250I0J-218750D01*
G01*
X172560500Y-138038750D01*
G75*
G02*
X172341750Y-138257500I-218750J0D01*
G01*
X171904250Y-138257500D01*
G75*
G02*
X171685500Y-138038750I0J218750D01*
G01*
G37*
G36*
G01*
X170110500Y-138038750D02*
X170110500Y-137526250D01*
G75*
G02*
X170329250Y-137307500I218750J0D01*
G01*
X170766750Y-137307500D01*
G75*
G02*
X170985500Y-137526250I0J-218750D01*
G01*
X170985500Y-138038750D01*
G75*
G02*
X170766750Y-138257500I-218750J0D01*
G01*
X170329250Y-138257500D01*
G75*
G02*
X170110500Y-138038750I0J218750D01*
G01*
G37*
D24*
X114000000Y-106650000D03*
X112000000Y-106650000D03*
X112000000Y-101350000D03*
X110000000Y-101350000D03*
X110000000Y-106650000D03*
X116000000Y-106650000D03*
X118000000Y-106650000D03*
X120000000Y-106650000D03*
X122000000Y-106650000D03*
X124000000Y-106650000D03*
X126000000Y-106650000D03*
X128000000Y-106650000D03*
X130000000Y-106650000D03*
X132000000Y-106650000D03*
X134000000Y-106650000D03*
X136000000Y-106650000D03*
X138000000Y-106650000D03*
X140000000Y-106650000D03*
X142000000Y-106650000D03*
X144000000Y-106650000D03*
X146000000Y-106650000D03*
X148000000Y-106650000D03*
X114000000Y-101350000D03*
X116000000Y-101350000D03*
X118000000Y-101350000D03*
X120000000Y-101350000D03*
X122000000Y-101350000D03*
X124000000Y-101350000D03*
X126000000Y-101350000D03*
X128000000Y-101350000D03*
X130000000Y-101350000D03*
X132000000Y-101350000D03*
X134000000Y-101350000D03*
X136000000Y-101350000D03*
X138000000Y-101350000D03*
X140000000Y-101350000D03*
X142000000Y-101350000D03*
X144000000Y-101350000D03*
X146000000Y-101350000D03*
X148000000Y-101350000D03*
M02*
