G04 #@! TF.GenerationSoftware,KiCad,Pcbnew,5.1.6-c6e7f7d~87~ubuntu18.04.1*
G04 #@! TF.CreationDate,2021-07-06T00:26:10-07:00*
G04 #@! TF.ProjectId,EthernetBoard,45746865-726e-4657-9442-6f6172642e6b,A*
G04 #@! TF.SameCoordinates,Original*
G04 #@! TF.FileFunction,Legend,Top*
G04 #@! TF.FilePolarity,Positive*
%FSLAX46Y46*%
G04 Gerber Fmt 4.6, Leading zero omitted, Abs format (unit mm)*
G04 Created by KiCad (PCBNEW 5.1.6-c6e7f7d~87~ubuntu18.04.1) date 2021-07-06 00:26:10*
%MOMM*%
%LPD*%
G01*
G04 APERTURE LIST*
G04 #@! TA.AperFunction,Profile*
%ADD10C,0.100000*%
G04 #@! TD*
%ADD11C,0.100000*%
%ADD12C,0.300000*%
%ADD13C,0.120000*%
%ADD14C,0.127000*%
%ADD15C,0.200000*%
%ADD16C,0.150000*%
%ADD17C,0.152400*%
%ADD18C,0.254000*%
%ADD19C,0.153000*%
G04 APERTURE END LIST*
D10*
X100000000Y-154000000D02*
X184999492Y-154000000D01*
X184999492Y-100000000D02*
X184999492Y-154000000D01*
X100000000Y-154000000D02*
X100000000Y-100000000D01*
X100000000Y-100000000D02*
X184999492Y-100000000D01*
D11*
X173053500Y-128397500D02*
X184553500Y-128397500D01*
X184843500Y-128117500D02*
X184843500Y-112267500D01*
X184843500Y-112267500D02*
X173553500Y-112267500D01*
D12*
X167553500Y-111617500D02*
X167553500Y-111617500D01*
X167553500Y-111417500D02*
X167553500Y-111417500D01*
X167553500Y-111617500D02*
G75*
G02*
X167553500Y-111417500I0J100000D01*
G01*
X167553500Y-111417500D02*
G75*
G02*
X167553500Y-111617500I0J-100000D01*
G01*
D13*
X163193000Y-137246779D02*
X163193000Y-136921221D01*
X164213000Y-137246779D02*
X164213000Y-136921221D01*
D14*
X160998200Y-140720600D02*
X160998200Y-140420600D01*
X160998200Y-140420600D02*
X161298200Y-140420600D01*
X167698200Y-140420600D02*
X167998200Y-140420600D01*
X167998200Y-140420600D02*
X167998200Y-140720600D01*
X161298200Y-147420600D02*
X160998200Y-147420600D01*
X160998200Y-147420600D02*
X160998200Y-147120600D01*
X167998200Y-147120600D02*
X167998200Y-147420600D01*
X167998200Y-147420600D02*
X167698200Y-147420600D01*
D15*
X160198200Y-141120600D02*
G75*
G03*
X160198200Y-141120600I-100000J0D01*
G01*
X122130000Y-120776000D02*
G75*
G03*
X122130000Y-120776000I-100000J0D01*
G01*
D14*
X119980000Y-120969500D02*
X115580000Y-120969500D01*
X119980000Y-114082500D02*
X115580000Y-114082500D01*
D16*
X100048000Y-108140000D02*
X100050800Y-131648400D01*
X108048000Y-131648400D02*
X108048000Y-108140000D01*
X108048000Y-108140000D02*
X100048000Y-108140000D01*
X108026400Y-131648400D02*
X100050800Y-131648400D01*
D13*
X180151500Y-149125721D02*
X180151500Y-149451279D01*
X179131500Y-149125721D02*
X179131500Y-149451279D01*
X170241500Y-150619779D02*
X170241500Y-150294221D01*
X171261500Y-150619779D02*
X171261500Y-150294221D01*
D11*
X174684000Y-148057000D02*
X175684000Y-148057000D01*
X174684000Y-151257000D02*
X175684000Y-151257000D01*
D15*
X118830000Y-112651000D02*
X116730000Y-112651000D01*
X116730000Y-112651000D02*
X116730000Y-109701000D01*
X116730000Y-109701000D02*
X118830000Y-109701000D01*
X118830000Y-109701000D02*
X118830000Y-112651000D01*
X120280000Y-112726000D02*
X119180000Y-112726000D01*
X145178000Y-130021000D02*
X147278000Y-130021000D01*
X147278000Y-130021000D02*
X147278000Y-132971000D01*
X147278000Y-132971000D02*
X145178000Y-132971000D01*
X145178000Y-132971000D02*
X145178000Y-130021000D01*
X143728000Y-129946000D02*
X144828000Y-129946000D01*
X118576000Y-133796500D02*
X116476000Y-133796500D01*
X116476000Y-133796500D02*
X116476000Y-130846500D01*
X116476000Y-130846500D02*
X118576000Y-130846500D01*
X118576000Y-130846500D02*
X118576000Y-133796500D01*
X120026000Y-133871500D02*
X118926000Y-133871500D01*
X122130000Y-128269000D02*
G75*
G03*
X122130000Y-128269000I-100000J0D01*
G01*
D14*
X119980000Y-128462500D02*
X115580000Y-128462500D01*
X119980000Y-121575500D02*
X115580000Y-121575500D01*
D15*
X144505000Y-110705000D02*
X148205000Y-110705000D01*
X148205000Y-110705000D02*
X148205000Y-118505000D01*
X148205000Y-118505000D02*
X144505000Y-118505000D01*
X144505000Y-118505000D02*
X144505000Y-110705000D01*
X142680000Y-110455000D02*
X144155000Y-110455000D01*
X144378000Y-120357000D02*
X148078000Y-120357000D01*
X148078000Y-120357000D02*
X148078000Y-128157000D01*
X148078000Y-128157000D02*
X144378000Y-128157000D01*
X144378000Y-128157000D02*
X144378000Y-120357000D01*
X142553000Y-120107000D02*
X144028000Y-120107000D01*
D13*
X111394221Y-129271500D02*
X111719779Y-129271500D01*
X111394221Y-130291500D02*
X111719779Y-130291500D01*
X111719779Y-131815500D02*
X111394221Y-131815500D01*
X111719779Y-130795500D02*
X111394221Y-130795500D01*
X111394221Y-133843500D02*
X111719779Y-133843500D01*
X111394221Y-134863500D02*
X111719779Y-134863500D01*
X111694279Y-133339500D02*
X111368721Y-133339500D01*
X111694279Y-132319500D02*
X111368721Y-132319500D01*
X170957221Y-102665000D02*
X171282779Y-102665000D01*
X170957221Y-103685000D02*
X171282779Y-103685000D01*
X170988422Y-104751000D02*
X171505578Y-104751000D01*
X170988422Y-106171000D02*
X171505578Y-106171000D01*
D17*
X149707800Y-148742600D02*
X149707800Y-148031400D01*
X148615600Y-147599600D02*
X147904400Y-147599600D01*
X146812200Y-148031400D02*
X146812200Y-148742600D01*
D15*
X110248000Y-147318000D02*
X110248000Y-144122000D01*
X110248000Y-144122000D02*
X115152000Y-144122000D01*
X115152000Y-144122000D02*
X115152000Y-147318000D01*
X115152000Y-147318000D02*
X110248000Y-147318000D01*
X110120000Y-149195000D02*
X110120000Y-147668000D01*
X158262000Y-106338500D02*
X158262000Y-103338500D01*
X160762000Y-106338500D02*
X160762000Y-103338500D01*
D18*
X158641000Y-102443500D02*
G75*
G03*
X158641000Y-102443500I-100000J0D01*
G01*
D15*
X163405500Y-106338500D02*
X163405500Y-103338500D01*
X165905500Y-106338500D02*
X165905500Y-103338500D01*
D18*
X163784500Y-102443500D02*
G75*
G03*
X163784500Y-102443500I-100000J0D01*
G01*
D13*
X169356500Y-150319721D02*
X169356500Y-150645279D01*
X168336500Y-150319721D02*
X168336500Y-150645279D01*
X157749221Y-146683000D02*
X158074779Y-146683000D01*
X157749221Y-147703000D02*
X158074779Y-147703000D01*
X157761721Y-148397500D02*
X158087279Y-148397500D01*
X157761721Y-149417500D02*
X158087279Y-149417500D01*
X153951721Y-140714000D02*
X154277279Y-140714000D01*
X153951721Y-141734000D02*
X154277279Y-141734000D01*
X147998748Y-143467000D02*
X148521252Y-143467000D01*
X147998748Y-145687000D02*
X148521252Y-145687000D01*
D15*
X101953000Y-144997000D02*
X101953000Y-146697000D01*
X107953000Y-144997000D02*
X107953000Y-146697000D01*
D13*
X114327500Y-141589000D02*
X114327500Y-139589000D01*
X114327500Y-139589000D02*
X110427500Y-139589000D01*
X114327500Y-141589000D02*
X110427500Y-141589000D01*
X151310000Y-148351221D02*
X151310000Y-148676779D01*
X150290000Y-148351221D02*
X150290000Y-148676779D01*
X147335221Y-151179000D02*
X147660779Y-151179000D01*
X147335221Y-152199000D02*
X147660779Y-152199000D01*
X108634000Y-146263779D02*
X108634000Y-145938221D01*
X109654000Y-146263779D02*
X109654000Y-145938221D01*
X115943000Y-145641000D02*
X115943000Y-152401000D01*
X115943000Y-152401000D02*
X119363000Y-152401000D01*
X119363000Y-152401000D02*
X119363000Y-145641000D01*
X117826000Y-143510000D02*
X117826000Y-139600000D01*
X117826000Y-139600000D02*
X115956000Y-139600000D01*
X115956000Y-139600000D02*
X115956000Y-143510000D01*
X172735221Y-145464000D02*
X173060779Y-145464000D01*
X172735221Y-146484000D02*
X173060779Y-146484000D01*
X172735221Y-143940000D02*
X173060779Y-143940000D01*
X172735221Y-144960000D02*
X173060779Y-144960000D01*
X167896000Y-150319721D02*
X167896000Y-150645279D01*
X166876000Y-150319721D02*
X166876000Y-150645279D01*
X161990500Y-150319721D02*
X161990500Y-150645279D01*
X160970500Y-150319721D02*
X160970500Y-150645279D01*
X158074779Y-145734500D02*
X157749221Y-145734500D01*
X158074779Y-144714500D02*
X157749221Y-144714500D01*
X160399000Y-137246779D02*
X160399000Y-136921221D01*
X161419000Y-137246779D02*
X161419000Y-136921221D01*
X158074779Y-144261500D02*
X157749221Y-144261500D01*
X158074779Y-143241500D02*
X157749221Y-143241500D01*
X163451000Y-150319721D02*
X163451000Y-150645279D01*
X162431000Y-150319721D02*
X162431000Y-150645279D01*
X164962500Y-150319721D02*
X164962500Y-150645279D01*
X163942500Y-150319721D02*
X163942500Y-150645279D01*
X166435500Y-150319721D02*
X166435500Y-150645279D01*
X165415500Y-150319721D02*
X165415500Y-150645279D01*
X172735221Y-140892000D02*
X173060779Y-140892000D01*
X172735221Y-141912000D02*
X173060779Y-141912000D01*
X172735221Y-142416000D02*
X173060779Y-142416000D01*
X172735221Y-143436000D02*
X173060779Y-143436000D01*
X170102000Y-142326779D02*
X170102000Y-142001221D01*
X171122000Y-142326779D02*
X171122000Y-142001221D01*
X158074779Y-141785000D02*
X157749221Y-141785000D01*
X158074779Y-140765000D02*
X157749221Y-140765000D01*
X171172721Y-138796500D02*
X171498279Y-138796500D01*
X171172721Y-139816500D02*
X171498279Y-139816500D01*
X171172721Y-137272500D02*
X171498279Y-137272500D01*
X171172721Y-138292500D02*
X171498279Y-138292500D01*
D16*
X148750000Y-100000000D02*
X148750000Y-108000000D01*
X109250000Y-100000000D02*
X109250000Y-108000000D01*
X148750000Y-100000000D02*
X109250000Y-100000000D01*
X109250000Y-108000000D02*
X148750000Y-108000000D01*
D19*
X157376880Y-121110333D02*
X158091166Y-121110333D01*
X158234023Y-121157952D01*
X158329261Y-121253190D01*
X158376880Y-121396047D01*
X158376880Y-121491285D01*
X157710214Y-120205571D02*
X158376880Y-120205571D01*
X157329261Y-120443666D02*
X158043547Y-120681761D01*
X158043547Y-120062714D01*
X162630142Y-137726857D02*
X162677761Y-137774476D01*
X162725380Y-137917333D01*
X162725380Y-138012571D01*
X162677761Y-138155428D01*
X162582523Y-138250666D01*
X162487285Y-138298285D01*
X162296809Y-138345904D01*
X162153952Y-138345904D01*
X161963476Y-138298285D01*
X161868238Y-138250666D01*
X161773000Y-138155428D01*
X161725380Y-138012571D01*
X161725380Y-137917333D01*
X161773000Y-137774476D01*
X161820619Y-137726857D01*
X162725380Y-136774476D02*
X162725380Y-137345904D01*
X162725380Y-137060190D02*
X161725380Y-137060190D01*
X161868238Y-137155428D01*
X161963476Y-137250666D01*
X162011095Y-137345904D01*
X162058714Y-135917333D02*
X162725380Y-135917333D01*
X161677761Y-136155428D02*
X162392047Y-136393523D01*
X162392047Y-135774476D01*
X163711295Y-138537980D02*
X163711295Y-139347504D01*
X163758914Y-139442742D01*
X163806533Y-139490361D01*
X163901771Y-139537980D01*
X164092247Y-139537980D01*
X164187485Y-139490361D01*
X164235104Y-139442742D01*
X164282723Y-139347504D01*
X164282723Y-138537980D01*
X164711295Y-138633219D02*
X164758914Y-138585600D01*
X164854152Y-138537980D01*
X165092247Y-138537980D01*
X165187485Y-138585600D01*
X165235104Y-138633219D01*
X165282723Y-138728457D01*
X165282723Y-138823695D01*
X165235104Y-138966552D01*
X164663676Y-139537980D01*
X165282723Y-139537980D01*
X117094095Y-112990380D02*
X117094095Y-113799904D01*
X117141714Y-113895142D01*
X117189333Y-113942761D01*
X117284571Y-113990380D01*
X117475047Y-113990380D01*
X117570285Y-113942761D01*
X117617904Y-113895142D01*
X117665523Y-113799904D01*
X117665523Y-112990380D01*
X118046476Y-112990380D02*
X118713142Y-112990380D01*
X118284571Y-113990380D01*
X103806666Y-106894380D02*
X103806666Y-107608666D01*
X103759047Y-107751523D01*
X103663809Y-107846761D01*
X103520952Y-107894380D01*
X103425714Y-107894380D01*
X104759047Y-106894380D02*
X104282857Y-106894380D01*
X104235238Y-107370571D01*
X104282857Y-107322952D01*
X104378095Y-107275333D01*
X104616190Y-107275333D01*
X104711428Y-107322952D01*
X104759047Y-107370571D01*
X104806666Y-107465809D01*
X104806666Y-107703904D01*
X104759047Y-107799142D01*
X104711428Y-107846761D01*
X104616190Y-107894380D01*
X104378095Y-107894380D01*
X104282857Y-107846761D01*
X104235238Y-107799142D01*
X180189142Y-146724666D02*
X180236761Y-146772285D01*
X180284380Y-146915142D01*
X180284380Y-147010380D01*
X180236761Y-147153238D01*
X180141523Y-147248476D01*
X180046285Y-147296095D01*
X179855809Y-147343714D01*
X179712952Y-147343714D01*
X179522476Y-147296095D01*
X179427238Y-147248476D01*
X179332000Y-147153238D01*
X179284380Y-147010380D01*
X179284380Y-146915142D01*
X179332000Y-146772285D01*
X179379619Y-146724666D01*
X179284380Y-145819904D02*
X179284380Y-146296095D01*
X179760571Y-146343714D01*
X179712952Y-146296095D01*
X179665333Y-146200857D01*
X179665333Y-145962761D01*
X179712952Y-145867523D01*
X179760571Y-145819904D01*
X179855809Y-145772285D01*
X180093904Y-145772285D01*
X180189142Y-145819904D01*
X180236761Y-145867523D01*
X180284380Y-145962761D01*
X180284380Y-146200857D01*
X180236761Y-146296095D01*
X180189142Y-146343714D01*
X171045142Y-147740666D02*
X171092761Y-147788285D01*
X171140380Y-147931142D01*
X171140380Y-148026380D01*
X171092761Y-148169238D01*
X170997523Y-148264476D01*
X170902285Y-148312095D01*
X170711809Y-148359714D01*
X170568952Y-148359714D01*
X170378476Y-148312095D01*
X170283238Y-148264476D01*
X170188000Y-148169238D01*
X170140380Y-148026380D01*
X170140380Y-147931142D01*
X170188000Y-147788285D01*
X170235619Y-147740666D01*
X170473714Y-146883523D02*
X171140380Y-146883523D01*
X170092761Y-147121619D02*
X170807047Y-147359714D01*
X170807047Y-146740666D01*
X174244095Y-146772380D02*
X174244095Y-147581904D01*
X174291714Y-147677142D01*
X174339333Y-147724761D01*
X174434571Y-147772380D01*
X174625047Y-147772380D01*
X174720285Y-147724761D01*
X174767904Y-147677142D01*
X174815523Y-147581904D01*
X174815523Y-146772380D01*
X175196476Y-146772380D02*
X175815523Y-146772380D01*
X175482190Y-147153333D01*
X175625047Y-147153333D01*
X175720285Y-147200952D01*
X175767904Y-147248571D01*
X175815523Y-147343809D01*
X175815523Y-147581904D01*
X175767904Y-147677142D01*
X175720285Y-147724761D01*
X175625047Y-147772380D01*
X175339333Y-147772380D01*
X175244095Y-147724761D01*
X175196476Y-147677142D01*
X116617904Y-108164380D02*
X116617904Y-108973904D01*
X116665523Y-109069142D01*
X116713142Y-109116761D01*
X116808380Y-109164380D01*
X116998857Y-109164380D01*
X117094095Y-109116761D01*
X117141714Y-109069142D01*
X117189333Y-108973904D01*
X117189333Y-108164380D01*
X118189333Y-109164380D02*
X117617904Y-109164380D01*
X117903619Y-109164380D02*
X117903619Y-108164380D01*
X117808380Y-108307238D01*
X117713142Y-108402476D01*
X117617904Y-108450095D01*
X118570285Y-108259619D02*
X118617904Y-108212000D01*
X118713142Y-108164380D01*
X118951238Y-108164380D01*
X119046476Y-108212000D01*
X119094095Y-108259619D01*
X119141714Y-108354857D01*
X119141714Y-108450095D01*
X119094095Y-108592952D01*
X118522666Y-109164380D01*
X119141714Y-109164380D01*
X144989904Y-128484380D02*
X144989904Y-129293904D01*
X145037523Y-129389142D01*
X145085142Y-129436761D01*
X145180380Y-129484380D01*
X145370857Y-129484380D01*
X145466095Y-129436761D01*
X145513714Y-129389142D01*
X145561333Y-129293904D01*
X145561333Y-128484380D01*
X146561333Y-129484380D02*
X145989904Y-129484380D01*
X146275619Y-129484380D02*
X146275619Y-128484380D01*
X146180380Y-128627238D01*
X146085142Y-128722476D01*
X145989904Y-128770095D01*
X147513714Y-129484380D02*
X146942285Y-129484380D01*
X147228000Y-129484380D02*
X147228000Y-128484380D01*
X147132761Y-128627238D01*
X147037523Y-128722476D01*
X146942285Y-128770095D01*
X116287904Y-134326380D02*
X116287904Y-135135904D01*
X116335523Y-135231142D01*
X116383142Y-135278761D01*
X116478380Y-135326380D01*
X116668857Y-135326380D01*
X116764095Y-135278761D01*
X116811714Y-135231142D01*
X116859333Y-135135904D01*
X116859333Y-134326380D01*
X117859333Y-135326380D02*
X117287904Y-135326380D01*
X117573619Y-135326380D02*
X117573619Y-134326380D01*
X117478380Y-134469238D01*
X117383142Y-134564476D01*
X117287904Y-134612095D01*
X118478380Y-134326380D02*
X118573619Y-134326380D01*
X118668857Y-134374000D01*
X118716476Y-134421619D01*
X118764095Y-134516857D01*
X118811714Y-134707333D01*
X118811714Y-134945428D01*
X118764095Y-135135904D01*
X118716476Y-135231142D01*
X118668857Y-135278761D01*
X118573619Y-135326380D01*
X118478380Y-135326380D01*
X118383142Y-135278761D01*
X118335523Y-135231142D01*
X118287904Y-135135904D01*
X118240285Y-134945428D01*
X118240285Y-134707333D01*
X118287904Y-134516857D01*
X118335523Y-134421619D01*
X118383142Y-134374000D01*
X118478380Y-134326380D01*
X117094095Y-128738380D02*
X117094095Y-129547904D01*
X117141714Y-129643142D01*
X117189333Y-129690761D01*
X117284571Y-129738380D01*
X117475047Y-129738380D01*
X117570285Y-129690761D01*
X117617904Y-129643142D01*
X117665523Y-129547904D01*
X117665523Y-128738380D01*
X118570285Y-128738380D02*
X118379809Y-128738380D01*
X118284571Y-128786000D01*
X118236952Y-128833619D01*
X118141714Y-128976476D01*
X118094095Y-129166952D01*
X118094095Y-129547904D01*
X118141714Y-129643142D01*
X118189333Y-129690761D01*
X118284571Y-129738380D01*
X118475047Y-129738380D01*
X118570285Y-129690761D01*
X118617904Y-129643142D01*
X118665523Y-129547904D01*
X118665523Y-129309809D01*
X118617904Y-129214571D01*
X118570285Y-129166952D01*
X118475047Y-129119333D01*
X118284571Y-129119333D01*
X118189333Y-129166952D01*
X118141714Y-129214571D01*
X118094095Y-129309809D01*
X145542095Y-109180380D02*
X145542095Y-109989904D01*
X145589714Y-110085142D01*
X145637333Y-110132761D01*
X145732571Y-110180380D01*
X145923047Y-110180380D01*
X146018285Y-110132761D01*
X146065904Y-110085142D01*
X146113523Y-109989904D01*
X146113523Y-109180380D01*
X147065904Y-109180380D02*
X146589714Y-109180380D01*
X146542095Y-109656571D01*
X146589714Y-109608952D01*
X146684952Y-109561333D01*
X146923047Y-109561333D01*
X147018285Y-109608952D01*
X147065904Y-109656571D01*
X147113523Y-109751809D01*
X147113523Y-109989904D01*
X147065904Y-110085142D01*
X147018285Y-110132761D01*
X146923047Y-110180380D01*
X146684952Y-110180380D01*
X146589714Y-110132761D01*
X146542095Y-110085142D01*
X145466095Y-118832380D02*
X145466095Y-119641904D01*
X145513714Y-119737142D01*
X145561333Y-119784761D01*
X145656571Y-119832380D01*
X145847047Y-119832380D01*
X145942285Y-119784761D01*
X145989904Y-119737142D01*
X146037523Y-119641904D01*
X146037523Y-118832380D01*
X146942285Y-119165714D02*
X146942285Y-119832380D01*
X146704190Y-118784761D02*
X146466095Y-119499047D01*
X147085142Y-119499047D01*
X110914142Y-128803880D02*
X110580809Y-128327690D01*
X110342714Y-128803880D02*
X110342714Y-127803880D01*
X110723666Y-127803880D01*
X110818904Y-127851500D01*
X110866523Y-127899119D01*
X110914142Y-127994357D01*
X110914142Y-128137214D01*
X110866523Y-128232452D01*
X110818904Y-128280071D01*
X110723666Y-128327690D01*
X110342714Y-128327690D01*
X111866523Y-128803880D02*
X111295095Y-128803880D01*
X111580809Y-128803880D02*
X111580809Y-127803880D01*
X111485571Y-127946738D01*
X111390333Y-128041976D01*
X111295095Y-128089595D01*
X112342714Y-128803880D02*
X112533190Y-128803880D01*
X112628428Y-128756261D01*
X112676047Y-128708642D01*
X112771285Y-128565785D01*
X112818904Y-128375309D01*
X112818904Y-127994357D01*
X112771285Y-127899119D01*
X112723666Y-127851500D01*
X112628428Y-127803880D01*
X112437952Y-127803880D01*
X112342714Y-127851500D01*
X112295095Y-127899119D01*
X112247476Y-127994357D01*
X112247476Y-128232452D01*
X112295095Y-128327690D01*
X112342714Y-128375309D01*
X112437952Y-128422928D01*
X112628428Y-128422928D01*
X112723666Y-128375309D01*
X112771285Y-128327690D01*
X112818904Y-128232452D01*
X107561142Y-133802380D02*
X107227809Y-133326190D01*
X106989714Y-133802380D02*
X106989714Y-132802380D01*
X107370666Y-132802380D01*
X107465904Y-132850000D01*
X107513523Y-132897619D01*
X107561142Y-132992857D01*
X107561142Y-133135714D01*
X107513523Y-133230952D01*
X107465904Y-133278571D01*
X107370666Y-133326190D01*
X106989714Y-133326190D01*
X108513523Y-133802380D02*
X107942095Y-133802380D01*
X108227809Y-133802380D02*
X108227809Y-132802380D01*
X108132571Y-132945238D01*
X108037333Y-133040476D01*
X107942095Y-133088095D01*
X109084952Y-133230952D02*
X108989714Y-133183333D01*
X108942095Y-133135714D01*
X108894476Y-133040476D01*
X108894476Y-132992857D01*
X108942095Y-132897619D01*
X108989714Y-132850000D01*
X109084952Y-132802380D01*
X109275428Y-132802380D01*
X109370666Y-132850000D01*
X109418285Y-132897619D01*
X109465904Y-132992857D01*
X109465904Y-133040476D01*
X109418285Y-133135714D01*
X109370666Y-133183333D01*
X109275428Y-133230952D01*
X109084952Y-133230952D01*
X108989714Y-133278571D01*
X108942095Y-133326190D01*
X108894476Y-133421428D01*
X108894476Y-133611904D01*
X108942095Y-133707142D01*
X108989714Y-133754761D01*
X109084952Y-133802380D01*
X109275428Y-133802380D01*
X109370666Y-133754761D01*
X109418285Y-133707142D01*
X109465904Y-133611904D01*
X109465904Y-133421428D01*
X109418285Y-133326190D01*
X109370666Y-133278571D01*
X109275428Y-133230952D01*
X107561142Y-136342380D02*
X107227809Y-135866190D01*
X106989714Y-136342380D02*
X106989714Y-135342380D01*
X107370666Y-135342380D01*
X107465904Y-135390000D01*
X107513523Y-135437619D01*
X107561142Y-135532857D01*
X107561142Y-135675714D01*
X107513523Y-135770952D01*
X107465904Y-135818571D01*
X107370666Y-135866190D01*
X106989714Y-135866190D01*
X108513523Y-136342380D02*
X107942095Y-136342380D01*
X108227809Y-136342380D02*
X108227809Y-135342380D01*
X108132571Y-135485238D01*
X108037333Y-135580476D01*
X107942095Y-135628095D01*
X109370666Y-135342380D02*
X109180190Y-135342380D01*
X109084952Y-135390000D01*
X109037333Y-135437619D01*
X108942095Y-135580476D01*
X108894476Y-135770952D01*
X108894476Y-136151904D01*
X108942095Y-136247142D01*
X108989714Y-136294761D01*
X109084952Y-136342380D01*
X109275428Y-136342380D01*
X109370666Y-136294761D01*
X109418285Y-136247142D01*
X109465904Y-136151904D01*
X109465904Y-135913809D01*
X109418285Y-135818571D01*
X109370666Y-135770952D01*
X109275428Y-135723333D01*
X109084952Y-135723333D01*
X108989714Y-135770952D01*
X108942095Y-135818571D01*
X108894476Y-135913809D01*
X107561142Y-135072380D02*
X107227809Y-134596190D01*
X106989714Y-135072380D02*
X106989714Y-134072380D01*
X107370666Y-134072380D01*
X107465904Y-134120000D01*
X107513523Y-134167619D01*
X107561142Y-134262857D01*
X107561142Y-134405714D01*
X107513523Y-134500952D01*
X107465904Y-134548571D01*
X107370666Y-134596190D01*
X106989714Y-134596190D01*
X108513523Y-135072380D02*
X107942095Y-135072380D01*
X108227809Y-135072380D02*
X108227809Y-134072380D01*
X108132571Y-134215238D01*
X108037333Y-134310476D01*
X107942095Y-134358095D01*
X108846857Y-134072380D02*
X109513523Y-134072380D01*
X109084952Y-135072380D01*
X173569333Y-103830380D02*
X173236000Y-103354190D01*
X172997904Y-103830380D02*
X172997904Y-102830380D01*
X173378857Y-102830380D01*
X173474095Y-102878000D01*
X173521714Y-102925619D01*
X173569333Y-103020857D01*
X173569333Y-103163714D01*
X173521714Y-103258952D01*
X173474095Y-103306571D01*
X173378857Y-103354190D01*
X172997904Y-103354190D01*
X174474095Y-102830380D02*
X173997904Y-102830380D01*
X173950285Y-103306571D01*
X173997904Y-103258952D01*
X174093142Y-103211333D01*
X174331238Y-103211333D01*
X174426476Y-103258952D01*
X174474095Y-103306571D01*
X174521714Y-103401809D01*
X174521714Y-103639904D01*
X174474095Y-103735142D01*
X174426476Y-103782761D01*
X174331238Y-103830380D01*
X174093142Y-103830380D01*
X173997904Y-103782761D01*
X173950285Y-103735142D01*
X173855142Y-105767142D02*
X173807523Y-105814761D01*
X173664666Y-105862380D01*
X173569428Y-105862380D01*
X173426571Y-105814761D01*
X173331333Y-105719523D01*
X173283714Y-105624285D01*
X173236095Y-105433809D01*
X173236095Y-105290952D01*
X173283714Y-105100476D01*
X173331333Y-105005238D01*
X173426571Y-104910000D01*
X173569428Y-104862380D01*
X173664666Y-104862380D01*
X173807523Y-104910000D01*
X173855142Y-104957619D01*
X174236095Y-104957619D02*
X174283714Y-104910000D01*
X174378952Y-104862380D01*
X174617047Y-104862380D01*
X174712285Y-104910000D01*
X174759904Y-104957619D01*
X174807523Y-105052857D01*
X174807523Y-105148095D01*
X174759904Y-105290952D01*
X174188476Y-105862380D01*
X174807523Y-105862380D01*
X175426571Y-104862380D02*
X175521809Y-104862380D01*
X175617047Y-104910000D01*
X175664666Y-104957619D01*
X175712285Y-105052857D01*
X175759904Y-105243333D01*
X175759904Y-105481428D01*
X175712285Y-105671904D01*
X175664666Y-105767142D01*
X175617047Y-105814761D01*
X175521809Y-105862380D01*
X175426571Y-105862380D01*
X175331333Y-105814761D01*
X175283714Y-105767142D01*
X175236095Y-105671904D01*
X175188476Y-105481428D01*
X175188476Y-105243333D01*
X175236095Y-105052857D01*
X175283714Y-104957619D01*
X175331333Y-104910000D01*
X175426571Y-104862380D01*
X145375580Y-149047304D02*
X146185104Y-149047304D01*
X146280342Y-148999685D01*
X146327961Y-148952066D01*
X146375580Y-148856828D01*
X146375580Y-148666352D01*
X146327961Y-148571114D01*
X146280342Y-148523495D01*
X146185104Y-148475876D01*
X145375580Y-148475876D01*
X146375580Y-147952066D02*
X146375580Y-147761590D01*
X146327961Y-147666352D01*
X146280342Y-147618733D01*
X146137485Y-147523495D01*
X145947009Y-147475876D01*
X145566057Y-147475876D01*
X145470819Y-147523495D01*
X145423200Y-147571114D01*
X145375580Y-147666352D01*
X145375580Y-147856828D01*
X145423200Y-147952066D01*
X145470819Y-147999685D01*
X145566057Y-148047304D01*
X145804152Y-148047304D01*
X145899390Y-147999685D01*
X145947009Y-147952066D01*
X145994628Y-147856828D01*
X145994628Y-147666352D01*
X145947009Y-147571114D01*
X145899390Y-147523495D01*
X145804152Y-147475876D01*
X111760095Y-149820380D02*
X111760095Y-150629904D01*
X111807714Y-150725142D01*
X111855333Y-150772761D01*
X111950571Y-150820380D01*
X112141047Y-150820380D01*
X112236285Y-150772761D01*
X112283904Y-150725142D01*
X112331523Y-150629904D01*
X112331523Y-149820380D01*
X112950571Y-150248952D02*
X112855333Y-150201333D01*
X112807714Y-150153714D01*
X112760095Y-150058476D01*
X112760095Y-150010857D01*
X112807714Y-149915619D01*
X112855333Y-149868000D01*
X112950571Y-149820380D01*
X113141047Y-149820380D01*
X113236285Y-149868000D01*
X113283904Y-149915619D01*
X113331523Y-150010857D01*
X113331523Y-150058476D01*
X113283904Y-150153714D01*
X113236285Y-150201333D01*
X113141047Y-150248952D01*
X112950571Y-150248952D01*
X112855333Y-150296571D01*
X112807714Y-150344190D01*
X112760095Y-150439428D01*
X112760095Y-150629904D01*
X112807714Y-150725142D01*
X112855333Y-150772761D01*
X112950571Y-150820380D01*
X113141047Y-150820380D01*
X113236285Y-150772761D01*
X113283904Y-150725142D01*
X113331523Y-150629904D01*
X113331523Y-150439428D01*
X113283904Y-150344190D01*
X113236285Y-150296571D01*
X113141047Y-150248952D01*
X157884761Y-105663904D02*
X157932380Y-105521047D01*
X157932380Y-105282952D01*
X157884761Y-105187714D01*
X157837142Y-105140095D01*
X157741904Y-105092476D01*
X157646666Y-105092476D01*
X157551428Y-105140095D01*
X157503809Y-105187714D01*
X157456190Y-105282952D01*
X157408571Y-105473428D01*
X157360952Y-105568666D01*
X157313333Y-105616285D01*
X157218095Y-105663904D01*
X157122857Y-105663904D01*
X157027619Y-105616285D01*
X156980000Y-105568666D01*
X156932380Y-105473428D01*
X156932380Y-105235333D01*
X156980000Y-105092476D01*
X157027619Y-104711523D02*
X156980000Y-104663904D01*
X156932380Y-104568666D01*
X156932380Y-104330571D01*
X156980000Y-104235333D01*
X157027619Y-104187714D01*
X157122857Y-104140095D01*
X157218095Y-104140095D01*
X157360952Y-104187714D01*
X157932380Y-104759142D01*
X157932380Y-104140095D01*
X158964380Y-101544380D02*
X158631047Y-101068190D01*
X158392952Y-101544380D02*
X158392952Y-100544380D01*
X158773904Y-100544380D01*
X158869142Y-100592000D01*
X158916761Y-100639619D01*
X158964380Y-100734857D01*
X158964380Y-100877714D01*
X158916761Y-100972952D01*
X158869142Y-101020571D01*
X158773904Y-101068190D01*
X158392952Y-101068190D01*
X159345333Y-101496761D02*
X159488190Y-101544380D01*
X159726285Y-101544380D01*
X159821523Y-101496761D01*
X159869142Y-101449142D01*
X159916761Y-101353904D01*
X159916761Y-101258666D01*
X159869142Y-101163428D01*
X159821523Y-101115809D01*
X159726285Y-101068190D01*
X159535809Y-101020571D01*
X159440571Y-100972952D01*
X159392952Y-100925333D01*
X159345333Y-100830095D01*
X159345333Y-100734857D01*
X159392952Y-100639619D01*
X159440571Y-100592000D01*
X159535809Y-100544380D01*
X159773904Y-100544380D01*
X159916761Y-100592000D01*
X160202476Y-100544380D02*
X160773904Y-100544380D01*
X160488190Y-101544380D02*
X160488190Y-100544380D01*
X163002861Y-105663904D02*
X163050480Y-105521047D01*
X163050480Y-105282952D01*
X163002861Y-105187714D01*
X162955242Y-105140095D01*
X162860004Y-105092476D01*
X162764766Y-105092476D01*
X162669528Y-105140095D01*
X162621909Y-105187714D01*
X162574290Y-105282952D01*
X162526671Y-105473428D01*
X162479052Y-105568666D01*
X162431433Y-105616285D01*
X162336195Y-105663904D01*
X162240957Y-105663904D01*
X162145719Y-105616285D01*
X162098100Y-105568666D01*
X162050480Y-105473428D01*
X162050480Y-105235333D01*
X162098100Y-105092476D01*
X163050480Y-104140095D02*
X163050480Y-104711523D01*
X163050480Y-104425809D02*
X162050480Y-104425809D01*
X162193338Y-104521047D01*
X162288576Y-104616285D01*
X162336195Y-104711523D01*
X163385666Y-101544380D02*
X163385666Y-100544380D01*
X163766619Y-100544380D01*
X163861857Y-100592000D01*
X163909476Y-100639619D01*
X163957095Y-100734857D01*
X163957095Y-100877714D01*
X163909476Y-100972952D01*
X163861857Y-101020571D01*
X163766619Y-101068190D01*
X163385666Y-101068190D01*
X164290428Y-100544380D02*
X164528523Y-101544380D01*
X164719000Y-100830095D01*
X164909476Y-101544380D01*
X165147571Y-100544380D01*
X166099952Y-101544380D02*
X165766619Y-101068190D01*
X165528523Y-101544380D02*
X165528523Y-100544380D01*
X165909476Y-100544380D01*
X166004714Y-100592000D01*
X166052333Y-100639619D01*
X166099952Y-100734857D01*
X166099952Y-100877714D01*
X166052333Y-100972952D01*
X166004714Y-101020571D01*
X165909476Y-101068190D01*
X165528523Y-101068190D01*
X160218380Y-152820666D02*
X159742190Y-153154000D01*
X160218380Y-153392095D02*
X159218380Y-153392095D01*
X159218380Y-153011142D01*
X159266000Y-152915904D01*
X159313619Y-152868285D01*
X159408857Y-152820666D01*
X159551714Y-152820666D01*
X159646952Y-152868285D01*
X159694571Y-152915904D01*
X159742190Y-153011142D01*
X159742190Y-153392095D01*
X159551714Y-151963523D02*
X160218380Y-151963523D01*
X159170761Y-152201619D02*
X159885047Y-152439714D01*
X159885047Y-151820666D01*
X155027333Y-147772380D02*
X154694000Y-147296190D01*
X154455904Y-147772380D02*
X154455904Y-146772380D01*
X154836857Y-146772380D01*
X154932095Y-146820000D01*
X154979714Y-146867619D01*
X155027333Y-146962857D01*
X155027333Y-147105714D01*
X154979714Y-147200952D01*
X154932095Y-147248571D01*
X154836857Y-147296190D01*
X154455904Y-147296190D01*
X155360666Y-146772380D02*
X155979714Y-146772380D01*
X155646380Y-147153333D01*
X155789238Y-147153333D01*
X155884476Y-147200952D01*
X155932095Y-147248571D01*
X155979714Y-147343809D01*
X155979714Y-147581904D01*
X155932095Y-147677142D01*
X155884476Y-147724761D01*
X155789238Y-147772380D01*
X155503523Y-147772380D01*
X155408285Y-147724761D01*
X155360666Y-147677142D01*
X155039833Y-149550380D02*
X154706500Y-149074190D01*
X154468404Y-149550380D02*
X154468404Y-148550380D01*
X154849357Y-148550380D01*
X154944595Y-148598000D01*
X154992214Y-148645619D01*
X155039833Y-148740857D01*
X155039833Y-148883714D01*
X154992214Y-148978952D01*
X154944595Y-149026571D01*
X154849357Y-149074190D01*
X154468404Y-149074190D01*
X155420785Y-148645619D02*
X155468404Y-148598000D01*
X155563642Y-148550380D01*
X155801738Y-148550380D01*
X155896976Y-148598000D01*
X155944595Y-148645619D01*
X155992214Y-148740857D01*
X155992214Y-148836095D01*
X155944595Y-148978952D01*
X155373166Y-149550380D01*
X155992214Y-149550380D01*
X153947833Y-140246380D02*
X153614500Y-139770190D01*
X153376404Y-140246380D02*
X153376404Y-139246380D01*
X153757357Y-139246380D01*
X153852595Y-139294000D01*
X153900214Y-139341619D01*
X153947833Y-139436857D01*
X153947833Y-139579714D01*
X153900214Y-139674952D01*
X153852595Y-139722571D01*
X153757357Y-139770190D01*
X153376404Y-139770190D01*
X154900214Y-140246380D02*
X154328785Y-140246380D01*
X154614500Y-140246380D02*
X154614500Y-139246380D01*
X154519261Y-139389238D01*
X154424023Y-139484476D01*
X154328785Y-139532095D01*
X148093333Y-142979380D02*
X147617142Y-142979380D01*
X147617142Y-141979380D01*
X148379047Y-142074619D02*
X148426666Y-142027000D01*
X148521904Y-141979380D01*
X148760000Y-141979380D01*
X148855238Y-142027000D01*
X148902857Y-142074619D01*
X148950476Y-142169857D01*
X148950476Y-142265095D01*
X148902857Y-142407952D01*
X148331428Y-142979380D01*
X148950476Y-142979380D01*
X101544380Y-145962666D02*
X101544380Y-146438857D01*
X100544380Y-146438857D01*
X101544380Y-145105523D02*
X101544380Y-145676952D01*
X101544380Y-145391238D02*
X100544380Y-145391238D01*
X100687238Y-145486476D01*
X100782476Y-145581714D01*
X100830095Y-145676952D01*
X111529904Y-139136380D02*
X111529904Y-138136380D01*
X111768000Y-138136380D01*
X111910857Y-138184000D01*
X112006095Y-138279238D01*
X112053714Y-138374476D01*
X112101333Y-138564952D01*
X112101333Y-138707809D01*
X112053714Y-138898285D01*
X112006095Y-138993523D01*
X111910857Y-139088761D01*
X111768000Y-139136380D01*
X111529904Y-139136380D01*
X113053714Y-139136380D02*
X112482285Y-139136380D01*
X112768000Y-139136380D02*
X112768000Y-138136380D01*
X112672761Y-138279238D01*
X112577523Y-138374476D01*
X112482285Y-138422095D01*
X152587142Y-149156857D02*
X152634761Y-149204476D01*
X152682380Y-149347333D01*
X152682380Y-149442571D01*
X152634761Y-149585428D01*
X152539523Y-149680666D01*
X152444285Y-149728285D01*
X152253809Y-149775904D01*
X152110952Y-149775904D01*
X151920476Y-149728285D01*
X151825238Y-149680666D01*
X151730000Y-149585428D01*
X151682380Y-149442571D01*
X151682380Y-149347333D01*
X151730000Y-149204476D01*
X151777619Y-149156857D01*
X151777619Y-148775904D02*
X151730000Y-148728285D01*
X151682380Y-148633047D01*
X151682380Y-148394952D01*
X151730000Y-148299714D01*
X151777619Y-148252095D01*
X151872857Y-148204476D01*
X151968095Y-148204476D01*
X152110952Y-148252095D01*
X152682380Y-148823523D01*
X152682380Y-148204476D01*
X151682380Y-147299714D02*
X151682380Y-147775904D01*
X152158571Y-147823523D01*
X152110952Y-147775904D01*
X152063333Y-147680666D01*
X152063333Y-147442571D01*
X152110952Y-147347333D01*
X152158571Y-147299714D01*
X152253809Y-147252095D01*
X152491904Y-147252095D01*
X152587142Y-147299714D01*
X152634761Y-147347333D01*
X152682380Y-147442571D01*
X152682380Y-147680666D01*
X152634761Y-147775904D01*
X152587142Y-147823523D01*
X143883142Y-151995142D02*
X143835523Y-152042761D01*
X143692666Y-152090380D01*
X143597428Y-152090380D01*
X143454571Y-152042761D01*
X143359333Y-151947523D01*
X143311714Y-151852285D01*
X143264095Y-151661809D01*
X143264095Y-151518952D01*
X143311714Y-151328476D01*
X143359333Y-151233238D01*
X143454571Y-151138000D01*
X143597428Y-151090380D01*
X143692666Y-151090380D01*
X143835523Y-151138000D01*
X143883142Y-151185619D01*
X144264095Y-151185619D02*
X144311714Y-151138000D01*
X144406952Y-151090380D01*
X144645047Y-151090380D01*
X144740285Y-151138000D01*
X144787904Y-151185619D01*
X144835523Y-151280857D01*
X144835523Y-151376095D01*
X144787904Y-151518952D01*
X144216476Y-152090380D01*
X144835523Y-152090380D01*
X145692666Y-151423714D02*
X145692666Y-152090380D01*
X145454571Y-151042761D02*
X145216476Y-151757047D01*
X145835523Y-151757047D01*
X109323142Y-143390857D02*
X109370761Y-143438476D01*
X109418380Y-143581333D01*
X109418380Y-143676571D01*
X109370761Y-143819428D01*
X109275523Y-143914666D01*
X109180285Y-143962285D01*
X108989809Y-144009904D01*
X108846952Y-144009904D01*
X108656476Y-143962285D01*
X108561238Y-143914666D01*
X108466000Y-143819428D01*
X108418380Y-143676571D01*
X108418380Y-143581333D01*
X108466000Y-143438476D01*
X108513619Y-143390857D01*
X108513619Y-143009904D02*
X108466000Y-142962285D01*
X108418380Y-142867047D01*
X108418380Y-142628952D01*
X108466000Y-142533714D01*
X108513619Y-142486095D01*
X108608857Y-142438476D01*
X108704095Y-142438476D01*
X108846952Y-142486095D01*
X109418380Y-143057523D01*
X109418380Y-142438476D01*
X108513619Y-142057523D02*
X108466000Y-142009904D01*
X108418380Y-141914666D01*
X108418380Y-141676571D01*
X108466000Y-141581333D01*
X108513619Y-141533714D01*
X108608857Y-141486095D01*
X108704095Y-141486095D01*
X108846952Y-141533714D01*
X109418380Y-142105142D01*
X109418380Y-141486095D01*
X115460142Y-149283857D02*
X115507761Y-149331476D01*
X115555380Y-149474333D01*
X115555380Y-149569571D01*
X115507761Y-149712428D01*
X115412523Y-149807666D01*
X115317285Y-149855285D01*
X115126809Y-149902904D01*
X114983952Y-149902904D01*
X114793476Y-149855285D01*
X114698238Y-149807666D01*
X114603000Y-149712428D01*
X114555380Y-149569571D01*
X114555380Y-149474333D01*
X114603000Y-149331476D01*
X114650619Y-149283857D01*
X114650619Y-148902904D02*
X114603000Y-148855285D01*
X114555380Y-148760047D01*
X114555380Y-148521952D01*
X114603000Y-148426714D01*
X114650619Y-148379095D01*
X114745857Y-148331476D01*
X114841095Y-148331476D01*
X114983952Y-148379095D01*
X115555380Y-148950523D01*
X115555380Y-148331476D01*
X115555380Y-147379095D02*
X115555380Y-147950523D01*
X115555380Y-147664809D02*
X114555380Y-147664809D01*
X114698238Y-147760047D01*
X114793476Y-147855285D01*
X114841095Y-147950523D01*
X118998142Y-142552857D02*
X119045761Y-142600476D01*
X119093380Y-142743333D01*
X119093380Y-142838571D01*
X119045761Y-142981428D01*
X118950523Y-143076666D01*
X118855285Y-143124285D01*
X118664809Y-143171904D01*
X118521952Y-143171904D01*
X118331476Y-143124285D01*
X118236238Y-143076666D01*
X118141000Y-142981428D01*
X118093380Y-142838571D01*
X118093380Y-142743333D01*
X118141000Y-142600476D01*
X118188619Y-142552857D01*
X118188619Y-142171904D02*
X118141000Y-142124285D01*
X118093380Y-142029047D01*
X118093380Y-141790952D01*
X118141000Y-141695714D01*
X118188619Y-141648095D01*
X118283857Y-141600476D01*
X118379095Y-141600476D01*
X118521952Y-141648095D01*
X119093380Y-142219523D01*
X119093380Y-141600476D01*
X118093380Y-141267142D02*
X118093380Y-140648095D01*
X118474333Y-140981428D01*
X118474333Y-140838571D01*
X118521952Y-140743333D01*
X118569571Y-140695714D01*
X118664809Y-140648095D01*
X118902904Y-140648095D01*
X118998142Y-140695714D01*
X119045761Y-140743333D01*
X119093380Y-140838571D01*
X119093380Y-141124285D01*
X119045761Y-141219523D01*
X118998142Y-141267142D01*
X175379142Y-146153142D02*
X175331523Y-146200761D01*
X175188666Y-146248380D01*
X175093428Y-146248380D01*
X174950571Y-146200761D01*
X174855333Y-146105523D01*
X174807714Y-146010285D01*
X174760095Y-145819809D01*
X174760095Y-145676952D01*
X174807714Y-145486476D01*
X174855333Y-145391238D01*
X174950571Y-145296000D01*
X175093428Y-145248380D01*
X175188666Y-145248380D01*
X175331523Y-145296000D01*
X175379142Y-145343619D01*
X176331523Y-146248380D02*
X175760095Y-146248380D01*
X176045809Y-146248380D02*
X176045809Y-145248380D01*
X175950571Y-145391238D01*
X175855333Y-145486476D01*
X175760095Y-145534095D01*
X176807714Y-146248380D02*
X176998190Y-146248380D01*
X177093428Y-146200761D01*
X177141047Y-146153142D01*
X177236285Y-146010285D01*
X177283904Y-145819809D01*
X177283904Y-145438857D01*
X177236285Y-145343619D01*
X177188666Y-145296000D01*
X177093428Y-145248380D01*
X176902952Y-145248380D01*
X176807714Y-145296000D01*
X176760095Y-145343619D01*
X176712476Y-145438857D01*
X176712476Y-145676952D01*
X176760095Y-145772190D01*
X176807714Y-145819809D01*
X176902952Y-145867428D01*
X177093428Y-145867428D01*
X177188666Y-145819809D01*
X177236285Y-145772190D01*
X177283904Y-145676952D01*
X175379142Y-144629142D02*
X175331523Y-144676761D01*
X175188666Y-144724380D01*
X175093428Y-144724380D01*
X174950571Y-144676761D01*
X174855333Y-144581523D01*
X174807714Y-144486285D01*
X174760095Y-144295809D01*
X174760095Y-144152952D01*
X174807714Y-143962476D01*
X174855333Y-143867238D01*
X174950571Y-143772000D01*
X175093428Y-143724380D01*
X175188666Y-143724380D01*
X175331523Y-143772000D01*
X175379142Y-143819619D01*
X176331523Y-144724380D02*
X175760095Y-144724380D01*
X176045809Y-144724380D02*
X176045809Y-143724380D01*
X175950571Y-143867238D01*
X175855333Y-143962476D01*
X175760095Y-144010095D01*
X176902952Y-144152952D02*
X176807714Y-144105333D01*
X176760095Y-144057714D01*
X176712476Y-143962476D01*
X176712476Y-143914857D01*
X176760095Y-143819619D01*
X176807714Y-143772000D01*
X176902952Y-143724380D01*
X177093428Y-143724380D01*
X177188666Y-143772000D01*
X177236285Y-143819619D01*
X177283904Y-143914857D01*
X177283904Y-143962476D01*
X177236285Y-144057714D01*
X177188666Y-144105333D01*
X177093428Y-144152952D01*
X176902952Y-144152952D01*
X176807714Y-144200571D01*
X176760095Y-144248190D01*
X176712476Y-144343428D01*
X176712476Y-144533904D01*
X176760095Y-144629142D01*
X176807714Y-144676761D01*
X176902952Y-144724380D01*
X177093428Y-144724380D01*
X177188666Y-144676761D01*
X177236285Y-144629142D01*
X177283904Y-144533904D01*
X177283904Y-144343428D01*
X177236285Y-144248190D01*
X177188666Y-144200571D01*
X177093428Y-144152952D01*
X158853142Y-152788857D02*
X158900761Y-152836476D01*
X158948380Y-152979333D01*
X158948380Y-153074571D01*
X158900761Y-153217428D01*
X158805523Y-153312666D01*
X158710285Y-153360285D01*
X158519809Y-153407904D01*
X158376952Y-153407904D01*
X158186476Y-153360285D01*
X158091238Y-153312666D01*
X157996000Y-153217428D01*
X157948380Y-153074571D01*
X157948380Y-152979333D01*
X157996000Y-152836476D01*
X158043619Y-152788857D01*
X158948380Y-151836476D02*
X158948380Y-152407904D01*
X158948380Y-152122190D02*
X157948380Y-152122190D01*
X158091238Y-152217428D01*
X158186476Y-152312666D01*
X158234095Y-152407904D01*
X157948380Y-151503142D02*
X157948380Y-150836476D01*
X158948380Y-151265047D01*
X153773142Y-152788857D02*
X153820761Y-152836476D01*
X153868380Y-152979333D01*
X153868380Y-153074571D01*
X153820761Y-153217428D01*
X153725523Y-153312666D01*
X153630285Y-153360285D01*
X153439809Y-153407904D01*
X153296952Y-153407904D01*
X153106476Y-153360285D01*
X153011238Y-153312666D01*
X152916000Y-153217428D01*
X152868380Y-153074571D01*
X152868380Y-152979333D01*
X152916000Y-152836476D01*
X152963619Y-152788857D01*
X153868380Y-151836476D02*
X153868380Y-152407904D01*
X153868380Y-152122190D02*
X152868380Y-152122190D01*
X153011238Y-152217428D01*
X153106476Y-152312666D01*
X153154095Y-152407904D01*
X152868380Y-150979333D02*
X152868380Y-151169809D01*
X152916000Y-151265047D01*
X152963619Y-151312666D01*
X153106476Y-151407904D01*
X153296952Y-151455523D01*
X153677904Y-151455523D01*
X153773142Y-151407904D01*
X153820761Y-151360285D01*
X153868380Y-151265047D01*
X153868380Y-151074571D01*
X153820761Y-150979333D01*
X153773142Y-150931714D01*
X153677904Y-150884095D01*
X153439809Y-150884095D01*
X153344571Y-150931714D01*
X153296952Y-150979333D01*
X153249333Y-151074571D01*
X153249333Y-151265047D01*
X153296952Y-151360285D01*
X153344571Y-151407904D01*
X153439809Y-151455523D01*
X154297142Y-145645142D02*
X154249523Y-145692761D01*
X154106666Y-145740380D01*
X154011428Y-145740380D01*
X153868571Y-145692761D01*
X153773333Y-145597523D01*
X153725714Y-145502285D01*
X153678095Y-145311809D01*
X153678095Y-145168952D01*
X153725714Y-144978476D01*
X153773333Y-144883238D01*
X153868571Y-144788000D01*
X154011428Y-144740380D01*
X154106666Y-144740380D01*
X154249523Y-144788000D01*
X154297142Y-144835619D01*
X155249523Y-145740380D02*
X154678095Y-145740380D01*
X154963809Y-145740380D02*
X154963809Y-144740380D01*
X154868571Y-144883238D01*
X154773333Y-144978476D01*
X154678095Y-145026095D01*
X156154285Y-144740380D02*
X155678095Y-144740380D01*
X155630476Y-145216571D01*
X155678095Y-145168952D01*
X155773333Y-145121333D01*
X156011428Y-145121333D01*
X156106666Y-145168952D01*
X156154285Y-145216571D01*
X156201904Y-145311809D01*
X156201904Y-145549904D01*
X156154285Y-145645142D01*
X156106666Y-145692761D01*
X156011428Y-145740380D01*
X155773333Y-145740380D01*
X155678095Y-145692761D01*
X155630476Y-145645142D01*
X159836142Y-137726857D02*
X159883761Y-137774476D01*
X159931380Y-137917333D01*
X159931380Y-138012571D01*
X159883761Y-138155428D01*
X159788523Y-138250666D01*
X159693285Y-138298285D01*
X159502809Y-138345904D01*
X159359952Y-138345904D01*
X159169476Y-138298285D01*
X159074238Y-138250666D01*
X158979000Y-138155428D01*
X158931380Y-138012571D01*
X158931380Y-137917333D01*
X158979000Y-137774476D01*
X159026619Y-137726857D01*
X159931380Y-136774476D02*
X159931380Y-137345904D01*
X159931380Y-137060190D02*
X158931380Y-137060190D01*
X159074238Y-137155428D01*
X159169476Y-137250666D01*
X159217095Y-137345904D01*
X158931380Y-136441142D02*
X158931380Y-135822095D01*
X159312333Y-136155428D01*
X159312333Y-136012571D01*
X159359952Y-135917333D01*
X159407571Y-135869714D01*
X159502809Y-135822095D01*
X159740904Y-135822095D01*
X159836142Y-135869714D01*
X159883761Y-135917333D01*
X159931380Y-136012571D01*
X159931380Y-136298285D01*
X159883761Y-136393523D01*
X159836142Y-136441142D01*
X154297142Y-144121142D02*
X154249523Y-144168761D01*
X154106666Y-144216380D01*
X154011428Y-144216380D01*
X153868571Y-144168761D01*
X153773333Y-144073523D01*
X153725714Y-143978285D01*
X153678095Y-143787809D01*
X153678095Y-143644952D01*
X153725714Y-143454476D01*
X153773333Y-143359238D01*
X153868571Y-143264000D01*
X154011428Y-143216380D01*
X154106666Y-143216380D01*
X154249523Y-143264000D01*
X154297142Y-143311619D01*
X155249523Y-144216380D02*
X154678095Y-144216380D01*
X154963809Y-144216380D02*
X154963809Y-143216380D01*
X154868571Y-143359238D01*
X154773333Y-143454476D01*
X154678095Y-143502095D01*
X155630476Y-143311619D02*
X155678095Y-143264000D01*
X155773333Y-143216380D01*
X156011428Y-143216380D01*
X156106666Y-143264000D01*
X156154285Y-143311619D01*
X156201904Y-143406857D01*
X156201904Y-143502095D01*
X156154285Y-143644952D01*
X155582857Y-144216380D01*
X156201904Y-144216380D01*
X155043142Y-152788857D02*
X155090761Y-152836476D01*
X155138380Y-152979333D01*
X155138380Y-153074571D01*
X155090761Y-153217428D01*
X154995523Y-153312666D01*
X154900285Y-153360285D01*
X154709809Y-153407904D01*
X154566952Y-153407904D01*
X154376476Y-153360285D01*
X154281238Y-153312666D01*
X154186000Y-153217428D01*
X154138380Y-153074571D01*
X154138380Y-152979333D01*
X154186000Y-152836476D01*
X154233619Y-152788857D01*
X155138380Y-151836476D02*
X155138380Y-152407904D01*
X155138380Y-152122190D02*
X154138380Y-152122190D01*
X154281238Y-152217428D01*
X154376476Y-152312666D01*
X154424095Y-152407904D01*
X155138380Y-150884095D02*
X155138380Y-151455523D01*
X155138380Y-151169809D02*
X154138380Y-151169809D01*
X154281238Y-151265047D01*
X154376476Y-151360285D01*
X154424095Y-151455523D01*
X156313142Y-152788857D02*
X156360761Y-152836476D01*
X156408380Y-152979333D01*
X156408380Y-153074571D01*
X156360761Y-153217428D01*
X156265523Y-153312666D01*
X156170285Y-153360285D01*
X155979809Y-153407904D01*
X155836952Y-153407904D01*
X155646476Y-153360285D01*
X155551238Y-153312666D01*
X155456000Y-153217428D01*
X155408380Y-153074571D01*
X155408380Y-152979333D01*
X155456000Y-152836476D01*
X155503619Y-152788857D01*
X156408380Y-151836476D02*
X156408380Y-152407904D01*
X156408380Y-152122190D02*
X155408380Y-152122190D01*
X155551238Y-152217428D01*
X155646476Y-152312666D01*
X155694095Y-152407904D01*
X155408380Y-151217428D02*
X155408380Y-151122190D01*
X155456000Y-151026952D01*
X155503619Y-150979333D01*
X155598857Y-150931714D01*
X155789333Y-150884095D01*
X156027428Y-150884095D01*
X156217904Y-150931714D01*
X156313142Y-150979333D01*
X156360761Y-151026952D01*
X156408380Y-151122190D01*
X156408380Y-151217428D01*
X156360761Y-151312666D01*
X156313142Y-151360285D01*
X156217904Y-151407904D01*
X156027428Y-151455523D01*
X155789333Y-151455523D01*
X155598857Y-151407904D01*
X155503619Y-151360285D01*
X155456000Y-151312666D01*
X155408380Y-151217428D01*
X157583142Y-152820666D02*
X157630761Y-152868285D01*
X157678380Y-153011142D01*
X157678380Y-153106380D01*
X157630761Y-153249238D01*
X157535523Y-153344476D01*
X157440285Y-153392095D01*
X157249809Y-153439714D01*
X157106952Y-153439714D01*
X156916476Y-153392095D01*
X156821238Y-153344476D01*
X156726000Y-153249238D01*
X156678380Y-153106380D01*
X156678380Y-153011142D01*
X156726000Y-152868285D01*
X156773619Y-152820666D01*
X157678380Y-152344476D02*
X157678380Y-152154000D01*
X157630761Y-152058761D01*
X157583142Y-152011142D01*
X157440285Y-151915904D01*
X157249809Y-151868285D01*
X156868857Y-151868285D01*
X156773619Y-151915904D01*
X156726000Y-151963523D01*
X156678380Y-152058761D01*
X156678380Y-152249238D01*
X156726000Y-152344476D01*
X156773619Y-152392095D01*
X156868857Y-152439714D01*
X157106952Y-152439714D01*
X157202190Y-152392095D01*
X157249809Y-152344476D01*
X157297428Y-152249238D01*
X157297428Y-152058761D01*
X157249809Y-151963523D01*
X157202190Y-151915904D01*
X157106952Y-151868285D01*
X175347333Y-141581142D02*
X175299714Y-141628761D01*
X175156857Y-141676380D01*
X175061619Y-141676380D01*
X174918761Y-141628761D01*
X174823523Y-141533523D01*
X174775904Y-141438285D01*
X174728285Y-141247809D01*
X174728285Y-141104952D01*
X174775904Y-140914476D01*
X174823523Y-140819238D01*
X174918761Y-140724000D01*
X175061619Y-140676380D01*
X175156857Y-140676380D01*
X175299714Y-140724000D01*
X175347333Y-140771619D01*
X175918761Y-141104952D02*
X175823523Y-141057333D01*
X175775904Y-141009714D01*
X175728285Y-140914476D01*
X175728285Y-140866857D01*
X175775904Y-140771619D01*
X175823523Y-140724000D01*
X175918761Y-140676380D01*
X176109238Y-140676380D01*
X176204476Y-140724000D01*
X176252095Y-140771619D01*
X176299714Y-140866857D01*
X176299714Y-140914476D01*
X176252095Y-141009714D01*
X176204476Y-141057333D01*
X176109238Y-141104952D01*
X175918761Y-141104952D01*
X175823523Y-141152571D01*
X175775904Y-141200190D01*
X175728285Y-141295428D01*
X175728285Y-141485904D01*
X175775904Y-141581142D01*
X175823523Y-141628761D01*
X175918761Y-141676380D01*
X176109238Y-141676380D01*
X176204476Y-141628761D01*
X176252095Y-141581142D01*
X176299714Y-141485904D01*
X176299714Y-141295428D01*
X176252095Y-141200190D01*
X176204476Y-141152571D01*
X176109238Y-141104952D01*
X175347333Y-143105142D02*
X175299714Y-143152761D01*
X175156857Y-143200380D01*
X175061619Y-143200380D01*
X174918761Y-143152761D01*
X174823523Y-143057523D01*
X174775904Y-142962285D01*
X174728285Y-142771809D01*
X174728285Y-142628952D01*
X174775904Y-142438476D01*
X174823523Y-142343238D01*
X174918761Y-142248000D01*
X175061619Y-142200380D01*
X175156857Y-142200380D01*
X175299714Y-142248000D01*
X175347333Y-142295619D01*
X175680666Y-142200380D02*
X176347333Y-142200380D01*
X175918761Y-143200380D01*
X169539142Y-142330666D02*
X169586761Y-142378285D01*
X169634380Y-142521142D01*
X169634380Y-142616380D01*
X169586761Y-142759238D01*
X169491523Y-142854476D01*
X169396285Y-142902095D01*
X169205809Y-142949714D01*
X169062952Y-142949714D01*
X168872476Y-142902095D01*
X168777238Y-142854476D01*
X168682000Y-142759238D01*
X168634380Y-142616380D01*
X168634380Y-142521142D01*
X168682000Y-142378285D01*
X168729619Y-142330666D01*
X168634380Y-141473523D02*
X168634380Y-141664000D01*
X168682000Y-141759238D01*
X168729619Y-141806857D01*
X168872476Y-141902095D01*
X169062952Y-141949714D01*
X169443904Y-141949714D01*
X169539142Y-141902095D01*
X169586761Y-141854476D01*
X169634380Y-141759238D01*
X169634380Y-141568761D01*
X169586761Y-141473523D01*
X169539142Y-141425904D01*
X169443904Y-141378285D01*
X169205809Y-141378285D01*
X169110571Y-141425904D01*
X169062952Y-141473523D01*
X169015333Y-141568761D01*
X169015333Y-141759238D01*
X169062952Y-141854476D01*
X169110571Y-141902095D01*
X169205809Y-141949714D01*
X157745333Y-140311142D02*
X157697714Y-140358761D01*
X157554857Y-140406380D01*
X157459619Y-140406380D01*
X157316761Y-140358761D01*
X157221523Y-140263523D01*
X157173904Y-140168285D01*
X157126285Y-139977809D01*
X157126285Y-139834952D01*
X157173904Y-139644476D01*
X157221523Y-139549238D01*
X157316761Y-139454000D01*
X157459619Y-139406380D01*
X157554857Y-139406380D01*
X157697714Y-139454000D01*
X157745333Y-139501619D01*
X158078666Y-139406380D02*
X158697714Y-139406380D01*
X158364380Y-139787333D01*
X158507238Y-139787333D01*
X158602476Y-139834952D01*
X158650095Y-139882571D01*
X158697714Y-139977809D01*
X158697714Y-140215904D01*
X158650095Y-140311142D01*
X158602476Y-140358761D01*
X158507238Y-140406380D01*
X158221523Y-140406380D01*
X158126285Y-140358761D01*
X158078666Y-140311142D01*
X168489333Y-139549142D02*
X168441714Y-139596761D01*
X168298857Y-139644380D01*
X168203619Y-139644380D01*
X168060761Y-139596761D01*
X167965523Y-139501523D01*
X167917904Y-139406285D01*
X167870285Y-139215809D01*
X167870285Y-139072952D01*
X167917904Y-138882476D01*
X167965523Y-138787238D01*
X168060761Y-138692000D01*
X168203619Y-138644380D01*
X168298857Y-138644380D01*
X168441714Y-138692000D01*
X168489333Y-138739619D01*
X168870285Y-138739619D02*
X168917904Y-138692000D01*
X169013142Y-138644380D01*
X169251238Y-138644380D01*
X169346476Y-138692000D01*
X169394095Y-138739619D01*
X169441714Y-138834857D01*
X169441714Y-138930095D01*
X169394095Y-139072952D01*
X168822666Y-139644380D01*
X169441714Y-139644380D01*
X168489333Y-138025142D02*
X168441714Y-138072761D01*
X168298857Y-138120380D01*
X168203619Y-138120380D01*
X168060761Y-138072761D01*
X167965523Y-137977523D01*
X167917904Y-137882285D01*
X167870285Y-137691809D01*
X167870285Y-137548952D01*
X167917904Y-137358476D01*
X167965523Y-137263238D01*
X168060761Y-137168000D01*
X168203619Y-137120380D01*
X168298857Y-137120380D01*
X168441714Y-137168000D01*
X168489333Y-137215619D01*
X169441714Y-138120380D02*
X168870285Y-138120380D01*
X169156000Y-138120380D02*
X169156000Y-137120380D01*
X169060761Y-137263238D01*
X168965523Y-137358476D01*
X168870285Y-137406095D01*
X107910380Y-104727333D02*
X108624666Y-104727333D01*
X108767523Y-104774952D01*
X108862761Y-104870190D01*
X108910380Y-105013047D01*
X108910380Y-105108285D01*
X108005619Y-104298761D02*
X107958000Y-104251142D01*
X107910380Y-104155904D01*
X107910380Y-103917809D01*
X107958000Y-103822571D01*
X108005619Y-103774952D01*
X108100857Y-103727333D01*
X108196095Y-103727333D01*
X108338952Y-103774952D01*
X108910380Y-104346380D01*
X108910380Y-103727333D01*
M02*
