G04 #@! TF.GenerationSoftware,KiCad,Pcbnew,5.1.5-52549c5~84~ubuntu18.04.1*
G04 #@! TF.CreationDate,2020-02-13T10:06:29-08:00*
G04 #@! TF.ProjectId,EthernetBoard,45746865-726e-4657-9442-6f6172642e6b,A*
G04 #@! TF.SameCoordinates,PX5f5e100PY5f5e100*
G04 #@! TF.FileFunction,Soldermask,Top*
G04 #@! TF.FilePolarity,Negative*
%FSLAX46Y46*%
G04 Gerber Fmt 4.6, Leading zero omitted, Abs format (unit mm)*
G04 Created by KiCad (PCBNEW 5.1.5-52549c5~84~ubuntu18.04.1) date 2020-02-13 10:06:29*
%MOMM*%
%LPD*%
G04 APERTURE LIST*
%ADD10C,0.100000*%
%ADD11C,2.576600*%
%ADD12C,1.726600*%
%ADD13C,1.751600*%
%ADD14C,1.610600*%
%ADD15C,0.150000*%
%ADD16R,3.201600X3.201600*%
%ADD17R,0.361600X0.941600*%
%ADD18R,0.941600X0.361600*%
%ADD19R,1.581600X0.511600*%
%ADD20R,2.201600X0.991600*%
%ADD21C,4.601600*%
%ADD22R,1.701600X1.401600*%
%ADD23R,1.201600X0.551600*%
%ADD24R,1.576600X0.551600*%
%ADD25R,0.635000X1.371600*%
%ADD26R,0.751600X1.629600*%
%ADD27R,1.801600X0.901600*%
%ADD28R,6.101600X2.111600*%
%ADD29R,1.001600X1.301600*%
%ADD30C,0.901600*%
%ADD31C,1.301600*%
%ADD32R,0.991600X2.201600*%
G04 APERTURE END LIST*
D10*
X0Y-54000000D02*
X84999492Y-54000000D01*
X84999492Y0D02*
X84999492Y-54000000D01*
X0Y-54000000D02*
X0Y0D01*
X0Y0D02*
X84999492Y0D01*
D11*
X70993500Y-12587500D03*
X70993500Y-28077500D03*
D12*
X74053500Y-14617500D03*
X74053500Y-26047500D03*
D13*
X60333500Y-25797500D03*
X60333500Y-23257500D03*
X60333500Y-17407500D03*
X60333500Y-14867500D03*
D14*
X65163500Y-26047500D03*
X67703500Y-24777500D03*
X65163500Y-23507500D03*
X67703500Y-22237500D03*
X65163500Y-20967500D03*
X67703500Y-19697500D03*
X65163500Y-18427500D03*
X67703500Y-17157500D03*
X65163500Y-15887500D03*
X67703500Y-14617500D03*
D15*
G36*
X64008581Y-35809376D02*
G01*
X64032281Y-35812891D01*
X64055523Y-35818713D01*
X64078082Y-35826785D01*
X64099742Y-35837029D01*
X64120292Y-35849347D01*
X64139537Y-35863619D01*
X64157290Y-35879710D01*
X64173381Y-35897463D01*
X64187653Y-35916708D01*
X64199971Y-35937258D01*
X64210215Y-35958918D01*
X64218287Y-35981477D01*
X64224109Y-36004719D01*
X64227624Y-36028419D01*
X64228800Y-36052350D01*
X64228800Y-36540650D01*
X64227624Y-36564581D01*
X64224109Y-36588281D01*
X64218287Y-36611523D01*
X64210215Y-36634082D01*
X64199971Y-36655742D01*
X64187653Y-36676292D01*
X64173381Y-36695537D01*
X64157290Y-36713290D01*
X64139537Y-36729381D01*
X64120292Y-36743653D01*
X64099742Y-36755971D01*
X64078082Y-36766215D01*
X64055523Y-36774287D01*
X64032281Y-36780109D01*
X64008581Y-36783624D01*
X63984650Y-36784800D01*
X63421350Y-36784800D01*
X63397419Y-36783624D01*
X63373719Y-36780109D01*
X63350477Y-36774287D01*
X63327918Y-36766215D01*
X63306258Y-36755971D01*
X63285708Y-36743653D01*
X63266463Y-36729381D01*
X63248710Y-36713290D01*
X63232619Y-36695537D01*
X63218347Y-36676292D01*
X63206029Y-36655742D01*
X63195785Y-36634082D01*
X63187713Y-36611523D01*
X63181891Y-36588281D01*
X63178376Y-36564581D01*
X63177200Y-36540650D01*
X63177200Y-36052350D01*
X63178376Y-36028419D01*
X63181891Y-36004719D01*
X63187713Y-35981477D01*
X63195785Y-35958918D01*
X63206029Y-35937258D01*
X63218347Y-35916708D01*
X63232619Y-35897463D01*
X63248710Y-35879710D01*
X63266463Y-35863619D01*
X63285708Y-35849347D01*
X63306258Y-35837029D01*
X63327918Y-35826785D01*
X63350477Y-35818713D01*
X63373719Y-35812891D01*
X63397419Y-35809376D01*
X63421350Y-35808200D01*
X63984650Y-35808200D01*
X64008581Y-35809376D01*
G37*
G36*
X64008581Y-37384376D02*
G01*
X64032281Y-37387891D01*
X64055523Y-37393713D01*
X64078082Y-37401785D01*
X64099742Y-37412029D01*
X64120292Y-37424347D01*
X64139537Y-37438619D01*
X64157290Y-37454710D01*
X64173381Y-37472463D01*
X64187653Y-37491708D01*
X64199971Y-37512258D01*
X64210215Y-37533918D01*
X64218287Y-37556477D01*
X64224109Y-37579719D01*
X64227624Y-37603419D01*
X64228800Y-37627350D01*
X64228800Y-38115650D01*
X64227624Y-38139581D01*
X64224109Y-38163281D01*
X64218287Y-38186523D01*
X64210215Y-38209082D01*
X64199971Y-38230742D01*
X64187653Y-38251292D01*
X64173381Y-38270537D01*
X64157290Y-38288290D01*
X64139537Y-38304381D01*
X64120292Y-38318653D01*
X64099742Y-38330971D01*
X64078082Y-38341215D01*
X64055523Y-38349287D01*
X64032281Y-38355109D01*
X64008581Y-38358624D01*
X63984650Y-38359800D01*
X63421350Y-38359800D01*
X63397419Y-38358624D01*
X63373719Y-38355109D01*
X63350477Y-38349287D01*
X63327918Y-38341215D01*
X63306258Y-38330971D01*
X63285708Y-38318653D01*
X63266463Y-38304381D01*
X63248710Y-38288290D01*
X63232619Y-38270537D01*
X63218347Y-38251292D01*
X63206029Y-38230742D01*
X63195785Y-38209082D01*
X63187713Y-38186523D01*
X63181891Y-38163281D01*
X63178376Y-38139581D01*
X63177200Y-38115650D01*
X63177200Y-37627350D01*
X63178376Y-37603419D01*
X63181891Y-37579719D01*
X63187713Y-37556477D01*
X63195785Y-37533918D01*
X63206029Y-37512258D01*
X63218347Y-37491708D01*
X63232619Y-37472463D01*
X63248710Y-37454710D01*
X63266463Y-37438619D01*
X63285708Y-37424347D01*
X63306258Y-37412029D01*
X63327918Y-37401785D01*
X63350477Y-37393713D01*
X63373719Y-37387891D01*
X63397419Y-37384376D01*
X63421350Y-37383200D01*
X63984650Y-37383200D01*
X64008581Y-37384376D01*
G37*
D16*
X64498200Y-43920600D03*
D17*
X61748200Y-40485600D03*
X62248200Y-40485600D03*
X62748200Y-40485600D03*
X63248200Y-40485600D03*
X63748200Y-40485600D03*
X64248200Y-40485600D03*
X64748200Y-40485600D03*
X65248200Y-40485600D03*
X65748200Y-40485600D03*
X66248200Y-40485600D03*
X66748200Y-40485600D03*
X67248200Y-40485600D03*
D18*
X67933200Y-41170600D03*
X67933200Y-41670600D03*
X67933200Y-42170600D03*
X67933200Y-42670600D03*
X67933200Y-43170600D03*
X67933200Y-43670600D03*
X67933200Y-44170600D03*
X67933200Y-44670600D03*
X67933200Y-45170600D03*
X67933200Y-45670600D03*
X67933200Y-46170600D03*
X67933200Y-46670600D03*
D17*
X67248200Y-47355600D03*
X66748200Y-47355600D03*
X66248200Y-47355600D03*
X65748200Y-47355600D03*
X65248200Y-47355600D03*
X64748200Y-47355600D03*
X64248200Y-47355600D03*
X63748200Y-47355600D03*
X63248200Y-47355600D03*
X62748200Y-47355600D03*
X62248200Y-47355600D03*
X61748200Y-47355600D03*
D18*
X61063200Y-46670600D03*
X61063200Y-46170600D03*
X61063200Y-45670600D03*
X61063200Y-45170600D03*
X61063200Y-44670600D03*
X61063200Y-44170600D03*
X61063200Y-43670600D03*
X61063200Y-43170600D03*
X61063200Y-42670600D03*
X61063200Y-42170600D03*
X61063200Y-41670600D03*
X61063200Y-41170600D03*
D19*
X14915000Y-20451000D03*
X14915000Y-19801000D03*
X14915000Y-19151000D03*
X14915000Y-18501000D03*
X14915000Y-17851000D03*
X14915000Y-17201000D03*
X14915000Y-16551000D03*
X14915000Y-15901000D03*
X14915000Y-15251000D03*
X14915000Y-14601000D03*
X20645000Y-14601000D03*
X20645000Y-15251000D03*
X20645000Y-15901000D03*
X20645000Y-16551000D03*
X20645000Y-17201000D03*
X20645000Y-17851000D03*
X20645000Y-18501000D03*
X20645000Y-19151000D03*
X20645000Y-19801000D03*
X20645000Y-20451000D03*
D20*
X6698000Y-30890000D03*
X6698000Y-28890000D03*
X6698000Y-26890000D03*
X6698000Y-24890000D03*
X6698000Y-22890000D03*
X6698000Y-20890000D03*
X6698000Y-18890000D03*
X6698000Y-16890000D03*
X6698000Y-14890000D03*
X6698000Y-12890000D03*
X1398000Y-30890000D03*
X1398000Y-28890000D03*
X1398000Y-26890000D03*
X1398000Y-24890000D03*
X1398000Y-22890000D03*
X1398000Y-20890000D03*
X1398000Y-18890000D03*
X1398000Y-16890000D03*
X1398000Y-14890000D03*
X1398000Y-8890000D03*
X6698000Y-8890000D03*
X6698000Y-10890000D03*
X1398000Y-10890000D03*
X1398000Y-12890000D03*
D15*
G36*
X79947081Y-49588876D02*
G01*
X79970781Y-49592391D01*
X79994023Y-49598213D01*
X80016582Y-49606285D01*
X80038242Y-49616529D01*
X80058792Y-49628847D01*
X80078037Y-49643119D01*
X80095790Y-49659210D01*
X80111881Y-49676963D01*
X80126153Y-49696208D01*
X80138471Y-49716758D01*
X80148715Y-49738418D01*
X80156787Y-49760977D01*
X80162609Y-49784219D01*
X80166124Y-49807919D01*
X80167300Y-49831850D01*
X80167300Y-50320150D01*
X80166124Y-50344081D01*
X80162609Y-50367781D01*
X80156787Y-50391023D01*
X80148715Y-50413582D01*
X80138471Y-50435242D01*
X80126153Y-50455792D01*
X80111881Y-50475037D01*
X80095790Y-50492790D01*
X80078037Y-50508881D01*
X80058792Y-50523153D01*
X80038242Y-50535471D01*
X80016582Y-50545715D01*
X79994023Y-50553787D01*
X79970781Y-50559609D01*
X79947081Y-50563124D01*
X79923150Y-50564300D01*
X79359850Y-50564300D01*
X79335919Y-50563124D01*
X79312219Y-50559609D01*
X79288977Y-50553787D01*
X79266418Y-50545715D01*
X79244758Y-50535471D01*
X79224208Y-50523153D01*
X79204963Y-50508881D01*
X79187210Y-50492790D01*
X79171119Y-50475037D01*
X79156847Y-50455792D01*
X79144529Y-50435242D01*
X79134285Y-50413582D01*
X79126213Y-50391023D01*
X79120391Y-50367781D01*
X79116876Y-50344081D01*
X79115700Y-50320150D01*
X79115700Y-49831850D01*
X79116876Y-49807919D01*
X79120391Y-49784219D01*
X79126213Y-49760977D01*
X79134285Y-49738418D01*
X79144529Y-49716758D01*
X79156847Y-49696208D01*
X79171119Y-49676963D01*
X79187210Y-49659210D01*
X79204963Y-49643119D01*
X79224208Y-49628847D01*
X79244758Y-49616529D01*
X79266418Y-49606285D01*
X79288977Y-49598213D01*
X79312219Y-49592391D01*
X79335919Y-49588876D01*
X79359850Y-49587700D01*
X79923150Y-49587700D01*
X79947081Y-49588876D01*
G37*
G36*
X79947081Y-48013876D02*
G01*
X79970781Y-48017391D01*
X79994023Y-48023213D01*
X80016582Y-48031285D01*
X80038242Y-48041529D01*
X80058792Y-48053847D01*
X80078037Y-48068119D01*
X80095790Y-48084210D01*
X80111881Y-48101963D01*
X80126153Y-48121208D01*
X80138471Y-48141758D01*
X80148715Y-48163418D01*
X80156787Y-48185977D01*
X80162609Y-48209219D01*
X80166124Y-48232919D01*
X80167300Y-48256850D01*
X80167300Y-48745150D01*
X80166124Y-48769081D01*
X80162609Y-48792781D01*
X80156787Y-48816023D01*
X80148715Y-48838582D01*
X80138471Y-48860242D01*
X80126153Y-48880792D01*
X80111881Y-48900037D01*
X80095790Y-48917790D01*
X80078037Y-48933881D01*
X80058792Y-48948153D01*
X80038242Y-48960471D01*
X80016582Y-48970715D01*
X79994023Y-48978787D01*
X79970781Y-48984609D01*
X79947081Y-48988124D01*
X79923150Y-48989300D01*
X79359850Y-48989300D01*
X79335919Y-48988124D01*
X79312219Y-48984609D01*
X79288977Y-48978787D01*
X79266418Y-48970715D01*
X79244758Y-48960471D01*
X79224208Y-48948153D01*
X79204963Y-48933881D01*
X79187210Y-48917790D01*
X79171119Y-48900037D01*
X79156847Y-48880792D01*
X79144529Y-48860242D01*
X79134285Y-48838582D01*
X79126213Y-48816023D01*
X79120391Y-48792781D01*
X79116876Y-48769081D01*
X79115700Y-48745150D01*
X79115700Y-48256850D01*
X79116876Y-48232919D01*
X79120391Y-48209219D01*
X79126213Y-48185977D01*
X79134285Y-48163418D01*
X79144529Y-48141758D01*
X79156847Y-48121208D01*
X79171119Y-48101963D01*
X79187210Y-48084210D01*
X79204963Y-48068119D01*
X79224208Y-48053847D01*
X79244758Y-48041529D01*
X79266418Y-48031285D01*
X79288977Y-48023213D01*
X79312219Y-48017391D01*
X79335919Y-48013876D01*
X79359850Y-48012700D01*
X79923150Y-48012700D01*
X79947081Y-48013876D01*
G37*
G36*
X71057081Y-49182376D02*
G01*
X71080781Y-49185891D01*
X71104023Y-49191713D01*
X71126582Y-49199785D01*
X71148242Y-49210029D01*
X71168792Y-49222347D01*
X71188037Y-49236619D01*
X71205790Y-49252710D01*
X71221881Y-49270463D01*
X71236153Y-49289708D01*
X71248471Y-49310258D01*
X71258715Y-49331918D01*
X71266787Y-49354477D01*
X71272609Y-49377719D01*
X71276124Y-49401419D01*
X71277300Y-49425350D01*
X71277300Y-49913650D01*
X71276124Y-49937581D01*
X71272609Y-49961281D01*
X71266787Y-49984523D01*
X71258715Y-50007082D01*
X71248471Y-50028742D01*
X71236153Y-50049292D01*
X71221881Y-50068537D01*
X71205790Y-50086290D01*
X71188037Y-50102381D01*
X71168792Y-50116653D01*
X71148242Y-50128971D01*
X71126582Y-50139215D01*
X71104023Y-50147287D01*
X71080781Y-50153109D01*
X71057081Y-50156624D01*
X71033150Y-50157800D01*
X70469850Y-50157800D01*
X70445919Y-50156624D01*
X70422219Y-50153109D01*
X70398977Y-50147287D01*
X70376418Y-50139215D01*
X70354758Y-50128971D01*
X70334208Y-50116653D01*
X70314963Y-50102381D01*
X70297210Y-50086290D01*
X70281119Y-50068537D01*
X70266847Y-50049292D01*
X70254529Y-50028742D01*
X70244285Y-50007082D01*
X70236213Y-49984523D01*
X70230391Y-49961281D01*
X70226876Y-49937581D01*
X70225700Y-49913650D01*
X70225700Y-49425350D01*
X70226876Y-49401419D01*
X70230391Y-49377719D01*
X70236213Y-49354477D01*
X70244285Y-49331918D01*
X70254529Y-49310258D01*
X70266847Y-49289708D01*
X70281119Y-49270463D01*
X70297210Y-49252710D01*
X70314963Y-49236619D01*
X70334208Y-49222347D01*
X70354758Y-49210029D01*
X70376418Y-49199785D01*
X70398977Y-49191713D01*
X70422219Y-49185891D01*
X70445919Y-49182376D01*
X70469850Y-49181200D01*
X71033150Y-49181200D01*
X71057081Y-49182376D01*
G37*
G36*
X71057081Y-50757376D02*
G01*
X71080781Y-50760891D01*
X71104023Y-50766713D01*
X71126582Y-50774785D01*
X71148242Y-50785029D01*
X71168792Y-50797347D01*
X71188037Y-50811619D01*
X71205790Y-50827710D01*
X71221881Y-50845463D01*
X71236153Y-50864708D01*
X71248471Y-50885258D01*
X71258715Y-50906918D01*
X71266787Y-50929477D01*
X71272609Y-50952719D01*
X71276124Y-50976419D01*
X71277300Y-51000350D01*
X71277300Y-51488650D01*
X71276124Y-51512581D01*
X71272609Y-51536281D01*
X71266787Y-51559523D01*
X71258715Y-51582082D01*
X71248471Y-51603742D01*
X71236153Y-51624292D01*
X71221881Y-51643537D01*
X71205790Y-51661290D01*
X71188037Y-51677381D01*
X71168792Y-51691653D01*
X71148242Y-51703971D01*
X71126582Y-51714215D01*
X71104023Y-51722287D01*
X71080781Y-51728109D01*
X71057081Y-51731624D01*
X71033150Y-51732800D01*
X70469850Y-51732800D01*
X70445919Y-51731624D01*
X70422219Y-51728109D01*
X70398977Y-51722287D01*
X70376418Y-51714215D01*
X70354758Y-51703971D01*
X70334208Y-51691653D01*
X70314963Y-51677381D01*
X70297210Y-51661290D01*
X70281119Y-51643537D01*
X70266847Y-51624292D01*
X70254529Y-51603742D01*
X70244285Y-51582082D01*
X70236213Y-51559523D01*
X70230391Y-51536281D01*
X70226876Y-51512581D01*
X70225700Y-51488650D01*
X70225700Y-51000350D01*
X70226876Y-50976419D01*
X70230391Y-50952719D01*
X70236213Y-50929477D01*
X70244285Y-50906918D01*
X70254529Y-50885258D01*
X70266847Y-50864708D01*
X70281119Y-50845463D01*
X70297210Y-50827710D01*
X70314963Y-50811619D01*
X70334208Y-50797347D01*
X70354758Y-50785029D01*
X70376418Y-50774785D01*
X70398977Y-50766713D01*
X70422219Y-50760891D01*
X70445919Y-50757376D01*
X70469850Y-50756200D01*
X71033150Y-50756200D01*
X71057081Y-50757376D01*
G37*
D21*
X81000000Y-35500000D03*
X4000000Y-35500000D03*
X81000000Y-4000000D03*
X4000000Y-4000000D03*
D22*
X73284000Y-48507000D03*
X77084000Y-48507000D03*
X77084000Y-50807000D03*
X73284000Y-50807000D03*
D23*
X15830000Y-12151000D03*
X15830000Y-11501000D03*
X15830000Y-10851000D03*
X15830000Y-10201000D03*
X19730000Y-10201000D03*
X19730000Y-10851000D03*
X19730000Y-11501000D03*
X19730000Y-12151000D03*
X48178000Y-30521000D03*
X48178000Y-31171000D03*
X48178000Y-31821000D03*
X48178000Y-32471000D03*
X44278000Y-32471000D03*
X44278000Y-31821000D03*
X44278000Y-31171000D03*
X44278000Y-30521000D03*
X15576000Y-33296500D03*
X15576000Y-32646500D03*
X15576000Y-31996500D03*
X15576000Y-31346500D03*
X19476000Y-31346500D03*
X19476000Y-31996500D03*
X19476000Y-32646500D03*
X19476000Y-33296500D03*
D19*
X14915000Y-27944000D03*
X14915000Y-27294000D03*
X14915000Y-26644000D03*
X14915000Y-25994000D03*
X14915000Y-25344000D03*
X14915000Y-24694000D03*
X14915000Y-24044000D03*
X14915000Y-23394000D03*
X14915000Y-22744000D03*
X14915000Y-22094000D03*
X20645000Y-22094000D03*
X20645000Y-22744000D03*
X20645000Y-23394000D03*
X20645000Y-24044000D03*
X20645000Y-24694000D03*
X20645000Y-25344000D03*
X20645000Y-25994000D03*
X20645000Y-26644000D03*
X20645000Y-27294000D03*
X20645000Y-27944000D03*
D24*
X49293000Y-11030000D03*
X49293000Y-11680000D03*
X49293000Y-12330000D03*
X49293000Y-12980000D03*
X49293000Y-13630000D03*
X49293000Y-14280000D03*
X49293000Y-14930000D03*
X49293000Y-15580000D03*
X49293000Y-16230000D03*
X49293000Y-16880000D03*
X49293000Y-17530000D03*
X49293000Y-18180000D03*
X43417000Y-18180000D03*
X43417000Y-17530000D03*
X43417000Y-16880000D03*
X43417000Y-16230000D03*
X43417000Y-15580000D03*
X43417000Y-14930000D03*
X43417000Y-14280000D03*
X43417000Y-13630000D03*
X43417000Y-12980000D03*
X43417000Y-12330000D03*
X43417000Y-11680000D03*
X43417000Y-11030000D03*
X49166000Y-20682000D03*
X49166000Y-21332000D03*
X49166000Y-21982000D03*
X49166000Y-22632000D03*
X49166000Y-23282000D03*
X49166000Y-23932000D03*
X49166000Y-24582000D03*
X49166000Y-25232000D03*
X49166000Y-25882000D03*
X49166000Y-26532000D03*
X49166000Y-27182000D03*
X49166000Y-27832000D03*
X43290000Y-27832000D03*
X43290000Y-27182000D03*
X43290000Y-26532000D03*
X43290000Y-25882000D03*
X43290000Y-25232000D03*
X43290000Y-24582000D03*
X43290000Y-23932000D03*
X43290000Y-23282000D03*
X43290000Y-22632000D03*
X43290000Y-21982000D03*
X43290000Y-21332000D03*
X43290000Y-20682000D03*
D15*
G36*
X12612581Y-29256876D02*
G01*
X12636281Y-29260391D01*
X12659523Y-29266213D01*
X12682082Y-29274285D01*
X12703742Y-29284529D01*
X12724292Y-29296847D01*
X12743537Y-29311119D01*
X12761290Y-29327210D01*
X12777381Y-29344963D01*
X12791653Y-29364208D01*
X12803971Y-29384758D01*
X12814215Y-29406418D01*
X12822287Y-29428977D01*
X12828109Y-29452219D01*
X12831624Y-29475919D01*
X12832800Y-29499850D01*
X12832800Y-30063150D01*
X12831624Y-30087081D01*
X12828109Y-30110781D01*
X12822287Y-30134023D01*
X12814215Y-30156582D01*
X12803971Y-30178242D01*
X12791653Y-30198792D01*
X12777381Y-30218037D01*
X12761290Y-30235790D01*
X12743537Y-30251881D01*
X12724292Y-30266153D01*
X12703742Y-30278471D01*
X12682082Y-30288715D01*
X12659523Y-30296787D01*
X12636281Y-30302609D01*
X12612581Y-30306124D01*
X12588650Y-30307300D01*
X12100350Y-30307300D01*
X12076419Y-30306124D01*
X12052719Y-30302609D01*
X12029477Y-30296787D01*
X12006918Y-30288715D01*
X11985258Y-30278471D01*
X11964708Y-30266153D01*
X11945463Y-30251881D01*
X11927710Y-30235790D01*
X11911619Y-30218037D01*
X11897347Y-30198792D01*
X11885029Y-30178242D01*
X11874785Y-30156582D01*
X11866713Y-30134023D01*
X11860891Y-30110781D01*
X11857376Y-30087081D01*
X11856200Y-30063150D01*
X11856200Y-29499850D01*
X11857376Y-29475919D01*
X11860891Y-29452219D01*
X11866713Y-29428977D01*
X11874785Y-29406418D01*
X11885029Y-29384758D01*
X11897347Y-29364208D01*
X11911619Y-29344963D01*
X11927710Y-29327210D01*
X11945463Y-29311119D01*
X11964708Y-29296847D01*
X11985258Y-29284529D01*
X12006918Y-29274285D01*
X12029477Y-29266213D01*
X12052719Y-29260391D01*
X12076419Y-29256876D01*
X12100350Y-29255700D01*
X12588650Y-29255700D01*
X12612581Y-29256876D01*
G37*
G36*
X11037581Y-29256876D02*
G01*
X11061281Y-29260391D01*
X11084523Y-29266213D01*
X11107082Y-29274285D01*
X11128742Y-29284529D01*
X11149292Y-29296847D01*
X11168537Y-29311119D01*
X11186290Y-29327210D01*
X11202381Y-29344963D01*
X11216653Y-29364208D01*
X11228971Y-29384758D01*
X11239215Y-29406418D01*
X11247287Y-29428977D01*
X11253109Y-29452219D01*
X11256624Y-29475919D01*
X11257800Y-29499850D01*
X11257800Y-30063150D01*
X11256624Y-30087081D01*
X11253109Y-30110781D01*
X11247287Y-30134023D01*
X11239215Y-30156582D01*
X11228971Y-30178242D01*
X11216653Y-30198792D01*
X11202381Y-30218037D01*
X11186290Y-30235790D01*
X11168537Y-30251881D01*
X11149292Y-30266153D01*
X11128742Y-30278471D01*
X11107082Y-30288715D01*
X11084523Y-30296787D01*
X11061281Y-30302609D01*
X11037581Y-30306124D01*
X11013650Y-30307300D01*
X10525350Y-30307300D01*
X10501419Y-30306124D01*
X10477719Y-30302609D01*
X10454477Y-30296787D01*
X10431918Y-30288715D01*
X10410258Y-30278471D01*
X10389708Y-30266153D01*
X10370463Y-30251881D01*
X10352710Y-30235790D01*
X10336619Y-30218037D01*
X10322347Y-30198792D01*
X10310029Y-30178242D01*
X10299785Y-30156582D01*
X10291713Y-30134023D01*
X10285891Y-30110781D01*
X10282376Y-30087081D01*
X10281200Y-30063150D01*
X10281200Y-29499850D01*
X10282376Y-29475919D01*
X10285891Y-29452219D01*
X10291713Y-29428977D01*
X10299785Y-29406418D01*
X10310029Y-29384758D01*
X10322347Y-29364208D01*
X10336619Y-29344963D01*
X10352710Y-29327210D01*
X10370463Y-29311119D01*
X10389708Y-29296847D01*
X10410258Y-29284529D01*
X10431918Y-29274285D01*
X10454477Y-29266213D01*
X10477719Y-29260391D01*
X10501419Y-29256876D01*
X10525350Y-29255700D01*
X11013650Y-29255700D01*
X11037581Y-29256876D01*
G37*
G36*
X11037581Y-30780876D02*
G01*
X11061281Y-30784391D01*
X11084523Y-30790213D01*
X11107082Y-30798285D01*
X11128742Y-30808529D01*
X11149292Y-30820847D01*
X11168537Y-30835119D01*
X11186290Y-30851210D01*
X11202381Y-30868963D01*
X11216653Y-30888208D01*
X11228971Y-30908758D01*
X11239215Y-30930418D01*
X11247287Y-30952977D01*
X11253109Y-30976219D01*
X11256624Y-30999919D01*
X11257800Y-31023850D01*
X11257800Y-31587150D01*
X11256624Y-31611081D01*
X11253109Y-31634781D01*
X11247287Y-31658023D01*
X11239215Y-31680582D01*
X11228971Y-31702242D01*
X11216653Y-31722792D01*
X11202381Y-31742037D01*
X11186290Y-31759790D01*
X11168537Y-31775881D01*
X11149292Y-31790153D01*
X11128742Y-31802471D01*
X11107082Y-31812715D01*
X11084523Y-31820787D01*
X11061281Y-31826609D01*
X11037581Y-31830124D01*
X11013650Y-31831300D01*
X10525350Y-31831300D01*
X10501419Y-31830124D01*
X10477719Y-31826609D01*
X10454477Y-31820787D01*
X10431918Y-31812715D01*
X10410258Y-31802471D01*
X10389708Y-31790153D01*
X10370463Y-31775881D01*
X10352710Y-31759790D01*
X10336619Y-31742037D01*
X10322347Y-31722792D01*
X10310029Y-31702242D01*
X10299785Y-31680582D01*
X10291713Y-31658023D01*
X10285891Y-31634781D01*
X10282376Y-31611081D01*
X10281200Y-31587150D01*
X10281200Y-31023850D01*
X10282376Y-30999919D01*
X10285891Y-30976219D01*
X10291713Y-30952977D01*
X10299785Y-30930418D01*
X10310029Y-30908758D01*
X10322347Y-30888208D01*
X10336619Y-30868963D01*
X10352710Y-30851210D01*
X10370463Y-30835119D01*
X10389708Y-30820847D01*
X10410258Y-30808529D01*
X10431918Y-30798285D01*
X10454477Y-30790213D01*
X10477719Y-30784391D01*
X10501419Y-30780876D01*
X10525350Y-30779700D01*
X11013650Y-30779700D01*
X11037581Y-30780876D01*
G37*
G36*
X12612581Y-30780876D02*
G01*
X12636281Y-30784391D01*
X12659523Y-30790213D01*
X12682082Y-30798285D01*
X12703742Y-30808529D01*
X12724292Y-30820847D01*
X12743537Y-30835119D01*
X12761290Y-30851210D01*
X12777381Y-30868963D01*
X12791653Y-30888208D01*
X12803971Y-30908758D01*
X12814215Y-30930418D01*
X12822287Y-30952977D01*
X12828109Y-30976219D01*
X12831624Y-30999919D01*
X12832800Y-31023850D01*
X12832800Y-31587150D01*
X12831624Y-31611081D01*
X12828109Y-31634781D01*
X12822287Y-31658023D01*
X12814215Y-31680582D01*
X12803971Y-31702242D01*
X12791653Y-31722792D01*
X12777381Y-31742037D01*
X12761290Y-31759790D01*
X12743537Y-31775881D01*
X12724292Y-31790153D01*
X12703742Y-31802471D01*
X12682082Y-31812715D01*
X12659523Y-31820787D01*
X12636281Y-31826609D01*
X12612581Y-31830124D01*
X12588650Y-31831300D01*
X12100350Y-31831300D01*
X12076419Y-31830124D01*
X12052719Y-31826609D01*
X12029477Y-31820787D01*
X12006918Y-31812715D01*
X11985258Y-31802471D01*
X11964708Y-31790153D01*
X11945463Y-31775881D01*
X11927710Y-31759790D01*
X11911619Y-31742037D01*
X11897347Y-31722792D01*
X11885029Y-31702242D01*
X11874785Y-31680582D01*
X11866713Y-31658023D01*
X11860891Y-31634781D01*
X11857376Y-31611081D01*
X11856200Y-31587150D01*
X11856200Y-31023850D01*
X11857376Y-30999919D01*
X11860891Y-30976219D01*
X11866713Y-30952977D01*
X11874785Y-30930418D01*
X11885029Y-30908758D01*
X11897347Y-30888208D01*
X11911619Y-30868963D01*
X11927710Y-30851210D01*
X11945463Y-30835119D01*
X11964708Y-30820847D01*
X11985258Y-30808529D01*
X12006918Y-30798285D01*
X12029477Y-30790213D01*
X12052719Y-30784391D01*
X12076419Y-30780876D01*
X12100350Y-30779700D01*
X12588650Y-30779700D01*
X12612581Y-30780876D01*
G37*
G36*
X12612581Y-33828876D02*
G01*
X12636281Y-33832391D01*
X12659523Y-33838213D01*
X12682082Y-33846285D01*
X12703742Y-33856529D01*
X12724292Y-33868847D01*
X12743537Y-33883119D01*
X12761290Y-33899210D01*
X12777381Y-33916963D01*
X12791653Y-33936208D01*
X12803971Y-33956758D01*
X12814215Y-33978418D01*
X12822287Y-34000977D01*
X12828109Y-34024219D01*
X12831624Y-34047919D01*
X12832800Y-34071850D01*
X12832800Y-34635150D01*
X12831624Y-34659081D01*
X12828109Y-34682781D01*
X12822287Y-34706023D01*
X12814215Y-34728582D01*
X12803971Y-34750242D01*
X12791653Y-34770792D01*
X12777381Y-34790037D01*
X12761290Y-34807790D01*
X12743537Y-34823881D01*
X12724292Y-34838153D01*
X12703742Y-34850471D01*
X12682082Y-34860715D01*
X12659523Y-34868787D01*
X12636281Y-34874609D01*
X12612581Y-34878124D01*
X12588650Y-34879300D01*
X12100350Y-34879300D01*
X12076419Y-34878124D01*
X12052719Y-34874609D01*
X12029477Y-34868787D01*
X12006918Y-34860715D01*
X11985258Y-34850471D01*
X11964708Y-34838153D01*
X11945463Y-34823881D01*
X11927710Y-34807790D01*
X11911619Y-34790037D01*
X11897347Y-34770792D01*
X11885029Y-34750242D01*
X11874785Y-34728582D01*
X11866713Y-34706023D01*
X11860891Y-34682781D01*
X11857376Y-34659081D01*
X11856200Y-34635150D01*
X11856200Y-34071850D01*
X11857376Y-34047919D01*
X11860891Y-34024219D01*
X11866713Y-34000977D01*
X11874785Y-33978418D01*
X11885029Y-33956758D01*
X11897347Y-33936208D01*
X11911619Y-33916963D01*
X11927710Y-33899210D01*
X11945463Y-33883119D01*
X11964708Y-33868847D01*
X11985258Y-33856529D01*
X12006918Y-33846285D01*
X12029477Y-33838213D01*
X12052719Y-33832391D01*
X12076419Y-33828876D01*
X12100350Y-33827700D01*
X12588650Y-33827700D01*
X12612581Y-33828876D01*
G37*
G36*
X11037581Y-33828876D02*
G01*
X11061281Y-33832391D01*
X11084523Y-33838213D01*
X11107082Y-33846285D01*
X11128742Y-33856529D01*
X11149292Y-33868847D01*
X11168537Y-33883119D01*
X11186290Y-33899210D01*
X11202381Y-33916963D01*
X11216653Y-33936208D01*
X11228971Y-33956758D01*
X11239215Y-33978418D01*
X11247287Y-34000977D01*
X11253109Y-34024219D01*
X11256624Y-34047919D01*
X11257800Y-34071850D01*
X11257800Y-34635150D01*
X11256624Y-34659081D01*
X11253109Y-34682781D01*
X11247287Y-34706023D01*
X11239215Y-34728582D01*
X11228971Y-34750242D01*
X11216653Y-34770792D01*
X11202381Y-34790037D01*
X11186290Y-34807790D01*
X11168537Y-34823881D01*
X11149292Y-34838153D01*
X11128742Y-34850471D01*
X11107082Y-34860715D01*
X11084523Y-34868787D01*
X11061281Y-34874609D01*
X11037581Y-34878124D01*
X11013650Y-34879300D01*
X10525350Y-34879300D01*
X10501419Y-34878124D01*
X10477719Y-34874609D01*
X10454477Y-34868787D01*
X10431918Y-34860715D01*
X10410258Y-34850471D01*
X10389708Y-34838153D01*
X10370463Y-34823881D01*
X10352710Y-34807790D01*
X10336619Y-34790037D01*
X10322347Y-34770792D01*
X10310029Y-34750242D01*
X10299785Y-34728582D01*
X10291713Y-34706023D01*
X10285891Y-34682781D01*
X10282376Y-34659081D01*
X10281200Y-34635150D01*
X10281200Y-34071850D01*
X10282376Y-34047919D01*
X10285891Y-34024219D01*
X10291713Y-34000977D01*
X10299785Y-33978418D01*
X10310029Y-33956758D01*
X10322347Y-33936208D01*
X10336619Y-33916963D01*
X10352710Y-33899210D01*
X10370463Y-33883119D01*
X10389708Y-33868847D01*
X10410258Y-33856529D01*
X10431918Y-33846285D01*
X10454477Y-33838213D01*
X10477719Y-33832391D01*
X10501419Y-33828876D01*
X10525350Y-33827700D01*
X11013650Y-33827700D01*
X11037581Y-33828876D01*
G37*
G36*
X11012081Y-32304876D02*
G01*
X11035781Y-32308391D01*
X11059023Y-32314213D01*
X11081582Y-32322285D01*
X11103242Y-32332529D01*
X11123792Y-32344847D01*
X11143037Y-32359119D01*
X11160790Y-32375210D01*
X11176881Y-32392963D01*
X11191153Y-32412208D01*
X11203471Y-32432758D01*
X11213715Y-32454418D01*
X11221787Y-32476977D01*
X11227609Y-32500219D01*
X11231124Y-32523919D01*
X11232300Y-32547850D01*
X11232300Y-33111150D01*
X11231124Y-33135081D01*
X11227609Y-33158781D01*
X11221787Y-33182023D01*
X11213715Y-33204582D01*
X11203471Y-33226242D01*
X11191153Y-33246792D01*
X11176881Y-33266037D01*
X11160790Y-33283790D01*
X11143037Y-33299881D01*
X11123792Y-33314153D01*
X11103242Y-33326471D01*
X11081582Y-33336715D01*
X11059023Y-33344787D01*
X11035781Y-33350609D01*
X11012081Y-33354124D01*
X10988150Y-33355300D01*
X10499850Y-33355300D01*
X10475919Y-33354124D01*
X10452219Y-33350609D01*
X10428977Y-33344787D01*
X10406418Y-33336715D01*
X10384758Y-33326471D01*
X10364208Y-33314153D01*
X10344963Y-33299881D01*
X10327210Y-33283790D01*
X10311119Y-33266037D01*
X10296847Y-33246792D01*
X10284529Y-33226242D01*
X10274285Y-33204582D01*
X10266213Y-33182023D01*
X10260391Y-33158781D01*
X10256876Y-33135081D01*
X10255700Y-33111150D01*
X10255700Y-32547850D01*
X10256876Y-32523919D01*
X10260391Y-32500219D01*
X10266213Y-32476977D01*
X10274285Y-32454418D01*
X10284529Y-32432758D01*
X10296847Y-32412208D01*
X10311119Y-32392963D01*
X10327210Y-32375210D01*
X10344963Y-32359119D01*
X10364208Y-32344847D01*
X10384758Y-32332529D01*
X10406418Y-32322285D01*
X10428977Y-32314213D01*
X10452219Y-32308391D01*
X10475919Y-32304876D01*
X10499850Y-32303700D01*
X10988150Y-32303700D01*
X11012081Y-32304876D01*
G37*
G36*
X12587081Y-32304876D02*
G01*
X12610781Y-32308391D01*
X12634023Y-32314213D01*
X12656582Y-32322285D01*
X12678242Y-32332529D01*
X12698792Y-32344847D01*
X12718037Y-32359119D01*
X12735790Y-32375210D01*
X12751881Y-32392963D01*
X12766153Y-32412208D01*
X12778471Y-32432758D01*
X12788715Y-32454418D01*
X12796787Y-32476977D01*
X12802609Y-32500219D01*
X12806124Y-32523919D01*
X12807300Y-32547850D01*
X12807300Y-33111150D01*
X12806124Y-33135081D01*
X12802609Y-33158781D01*
X12796787Y-33182023D01*
X12788715Y-33204582D01*
X12778471Y-33226242D01*
X12766153Y-33246792D01*
X12751881Y-33266037D01*
X12735790Y-33283790D01*
X12718037Y-33299881D01*
X12698792Y-33314153D01*
X12678242Y-33326471D01*
X12656582Y-33336715D01*
X12634023Y-33344787D01*
X12610781Y-33350609D01*
X12587081Y-33354124D01*
X12563150Y-33355300D01*
X12074850Y-33355300D01*
X12050919Y-33354124D01*
X12027219Y-33350609D01*
X12003977Y-33344787D01*
X11981418Y-33336715D01*
X11959758Y-33326471D01*
X11939208Y-33314153D01*
X11919963Y-33299881D01*
X11902210Y-33283790D01*
X11886119Y-33266037D01*
X11871847Y-33246792D01*
X11859529Y-33226242D01*
X11849285Y-33204582D01*
X11841213Y-33182023D01*
X11835391Y-33158781D01*
X11831876Y-33135081D01*
X11830700Y-33111150D01*
X11830700Y-32547850D01*
X11831876Y-32523919D01*
X11835391Y-32500219D01*
X11841213Y-32476977D01*
X11849285Y-32454418D01*
X11859529Y-32432758D01*
X11871847Y-32412208D01*
X11886119Y-32392963D01*
X11902210Y-32375210D01*
X11919963Y-32359119D01*
X11939208Y-32344847D01*
X11959758Y-32332529D01*
X11981418Y-32322285D01*
X12003977Y-32314213D01*
X12027219Y-32308391D01*
X12050919Y-32304876D01*
X12074850Y-32303700D01*
X12563150Y-32303700D01*
X12587081Y-32304876D01*
G37*
G36*
X72175581Y-2650376D02*
G01*
X72199281Y-2653891D01*
X72222523Y-2659713D01*
X72245082Y-2667785D01*
X72266742Y-2678029D01*
X72287292Y-2690347D01*
X72306537Y-2704619D01*
X72324290Y-2720710D01*
X72340381Y-2738463D01*
X72354653Y-2757708D01*
X72366971Y-2778258D01*
X72377215Y-2799918D01*
X72385287Y-2822477D01*
X72391109Y-2845719D01*
X72394624Y-2869419D01*
X72395800Y-2893350D01*
X72395800Y-3456650D01*
X72394624Y-3480581D01*
X72391109Y-3504281D01*
X72385287Y-3527523D01*
X72377215Y-3550082D01*
X72366971Y-3571742D01*
X72354653Y-3592292D01*
X72340381Y-3611537D01*
X72324290Y-3629290D01*
X72306537Y-3645381D01*
X72287292Y-3659653D01*
X72266742Y-3671971D01*
X72245082Y-3682215D01*
X72222523Y-3690287D01*
X72199281Y-3696109D01*
X72175581Y-3699624D01*
X72151650Y-3700800D01*
X71663350Y-3700800D01*
X71639419Y-3699624D01*
X71615719Y-3696109D01*
X71592477Y-3690287D01*
X71569918Y-3682215D01*
X71548258Y-3671971D01*
X71527708Y-3659653D01*
X71508463Y-3645381D01*
X71490710Y-3629290D01*
X71474619Y-3611537D01*
X71460347Y-3592292D01*
X71448029Y-3571742D01*
X71437785Y-3550082D01*
X71429713Y-3527523D01*
X71423891Y-3504281D01*
X71420376Y-3480581D01*
X71419200Y-3456650D01*
X71419200Y-2893350D01*
X71420376Y-2869419D01*
X71423891Y-2845719D01*
X71429713Y-2822477D01*
X71437785Y-2799918D01*
X71448029Y-2778258D01*
X71460347Y-2757708D01*
X71474619Y-2738463D01*
X71490710Y-2720710D01*
X71508463Y-2704619D01*
X71527708Y-2690347D01*
X71548258Y-2678029D01*
X71569918Y-2667785D01*
X71592477Y-2659713D01*
X71615719Y-2653891D01*
X71639419Y-2650376D01*
X71663350Y-2649200D01*
X72151650Y-2649200D01*
X72175581Y-2650376D01*
G37*
G36*
X70600581Y-2650376D02*
G01*
X70624281Y-2653891D01*
X70647523Y-2659713D01*
X70670082Y-2667785D01*
X70691742Y-2678029D01*
X70712292Y-2690347D01*
X70731537Y-2704619D01*
X70749290Y-2720710D01*
X70765381Y-2738463D01*
X70779653Y-2757708D01*
X70791971Y-2778258D01*
X70802215Y-2799918D01*
X70810287Y-2822477D01*
X70816109Y-2845719D01*
X70819624Y-2869419D01*
X70820800Y-2893350D01*
X70820800Y-3456650D01*
X70819624Y-3480581D01*
X70816109Y-3504281D01*
X70810287Y-3527523D01*
X70802215Y-3550082D01*
X70791971Y-3571742D01*
X70779653Y-3592292D01*
X70765381Y-3611537D01*
X70749290Y-3629290D01*
X70731537Y-3645381D01*
X70712292Y-3659653D01*
X70691742Y-3671971D01*
X70670082Y-3682215D01*
X70647523Y-3690287D01*
X70624281Y-3696109D01*
X70600581Y-3699624D01*
X70576650Y-3700800D01*
X70088350Y-3700800D01*
X70064419Y-3699624D01*
X70040719Y-3696109D01*
X70017477Y-3690287D01*
X69994918Y-3682215D01*
X69973258Y-3671971D01*
X69952708Y-3659653D01*
X69933463Y-3645381D01*
X69915710Y-3629290D01*
X69899619Y-3611537D01*
X69885347Y-3592292D01*
X69873029Y-3571742D01*
X69862785Y-3550082D01*
X69854713Y-3527523D01*
X69848891Y-3504281D01*
X69845376Y-3480581D01*
X69844200Y-3456650D01*
X69844200Y-2893350D01*
X69845376Y-2869419D01*
X69848891Y-2845719D01*
X69854713Y-2822477D01*
X69862785Y-2799918D01*
X69873029Y-2778258D01*
X69885347Y-2757708D01*
X69899619Y-2738463D01*
X69915710Y-2720710D01*
X69933463Y-2704619D01*
X69952708Y-2690347D01*
X69973258Y-2678029D01*
X69994918Y-2667785D01*
X70017477Y-2659713D01*
X70040719Y-2653891D01*
X70064419Y-2650376D01*
X70088350Y-2649200D01*
X70576650Y-2649200D01*
X70600581Y-2650376D01*
G37*
G36*
X72480031Y-4711496D02*
G01*
X72506159Y-4715372D01*
X72531780Y-4721790D01*
X72556649Y-4730688D01*
X72580526Y-4741981D01*
X72603182Y-4755560D01*
X72624397Y-4771294D01*
X72643968Y-4789032D01*
X72661706Y-4808603D01*
X72677440Y-4829818D01*
X72691019Y-4852474D01*
X72702312Y-4876351D01*
X72711210Y-4901220D01*
X72717628Y-4926841D01*
X72721504Y-4952969D01*
X72722800Y-4979350D01*
X72722800Y-5942650D01*
X72721504Y-5969031D01*
X72717628Y-5995159D01*
X72711210Y-6020780D01*
X72702312Y-6045649D01*
X72691019Y-6069526D01*
X72677440Y-6092182D01*
X72661706Y-6113397D01*
X72643968Y-6132968D01*
X72624397Y-6150706D01*
X72603182Y-6166440D01*
X72580526Y-6180019D01*
X72556649Y-6191312D01*
X72531780Y-6200210D01*
X72506159Y-6206628D01*
X72480031Y-6210504D01*
X72453650Y-6211800D01*
X71915350Y-6211800D01*
X71888969Y-6210504D01*
X71862841Y-6206628D01*
X71837220Y-6200210D01*
X71812351Y-6191312D01*
X71788474Y-6180019D01*
X71765818Y-6166440D01*
X71744603Y-6150706D01*
X71725032Y-6132968D01*
X71707294Y-6113397D01*
X71691560Y-6092182D01*
X71677981Y-6069526D01*
X71666688Y-6045649D01*
X71657790Y-6020780D01*
X71651372Y-5995159D01*
X71647496Y-5969031D01*
X71646200Y-5942650D01*
X71646200Y-4979350D01*
X71647496Y-4952969D01*
X71651372Y-4926841D01*
X71657790Y-4901220D01*
X71666688Y-4876351D01*
X71677981Y-4852474D01*
X71691560Y-4829818D01*
X71707294Y-4808603D01*
X71725032Y-4789032D01*
X71744603Y-4771294D01*
X71765818Y-4755560D01*
X71788474Y-4741981D01*
X71812351Y-4730688D01*
X71837220Y-4721790D01*
X71862841Y-4715372D01*
X71888969Y-4711496D01*
X71915350Y-4710200D01*
X72453650Y-4710200D01*
X72480031Y-4711496D01*
G37*
G36*
X70605031Y-4711496D02*
G01*
X70631159Y-4715372D01*
X70656780Y-4721790D01*
X70681649Y-4730688D01*
X70705526Y-4741981D01*
X70728182Y-4755560D01*
X70749397Y-4771294D01*
X70768968Y-4789032D01*
X70786706Y-4808603D01*
X70802440Y-4829818D01*
X70816019Y-4852474D01*
X70827312Y-4876351D01*
X70836210Y-4901220D01*
X70842628Y-4926841D01*
X70846504Y-4952969D01*
X70847800Y-4979350D01*
X70847800Y-5942650D01*
X70846504Y-5969031D01*
X70842628Y-5995159D01*
X70836210Y-6020780D01*
X70827312Y-6045649D01*
X70816019Y-6069526D01*
X70802440Y-6092182D01*
X70786706Y-6113397D01*
X70768968Y-6132968D01*
X70749397Y-6150706D01*
X70728182Y-6166440D01*
X70705526Y-6180019D01*
X70681649Y-6191312D01*
X70656780Y-6200210D01*
X70631159Y-6206628D01*
X70605031Y-6210504D01*
X70578650Y-6211800D01*
X70040350Y-6211800D01*
X70013969Y-6210504D01*
X69987841Y-6206628D01*
X69962220Y-6200210D01*
X69937351Y-6191312D01*
X69913474Y-6180019D01*
X69890818Y-6166440D01*
X69869603Y-6150706D01*
X69850032Y-6132968D01*
X69832294Y-6113397D01*
X69816560Y-6092182D01*
X69802981Y-6069526D01*
X69791688Y-6045649D01*
X69782790Y-6020780D01*
X69776372Y-5995159D01*
X69772496Y-5969031D01*
X69771200Y-5942650D01*
X69771200Y-4979350D01*
X69772496Y-4952969D01*
X69776372Y-4926841D01*
X69782790Y-4901220D01*
X69791688Y-4876351D01*
X69802981Y-4852474D01*
X69816560Y-4829818D01*
X69832294Y-4808603D01*
X69850032Y-4789032D01*
X69869603Y-4771294D01*
X69890818Y-4755560D01*
X69913474Y-4741981D01*
X69937351Y-4730688D01*
X69962220Y-4721790D01*
X69987841Y-4715372D01*
X70013969Y-4711496D01*
X70040350Y-4710200D01*
X70578650Y-4710200D01*
X70605031Y-4711496D01*
G37*
D25*
X47320200Y-47167800D03*
X49199800Y-47167800D03*
X49199800Y-49606200D03*
X48260000Y-49606200D03*
X47320200Y-49606200D03*
D26*
X10795000Y-43009000D03*
X12065000Y-43009000D03*
X13335000Y-43009000D03*
X14605000Y-43009000D03*
X14605000Y-48431000D03*
X13335000Y-48431000D03*
X12065000Y-48431000D03*
X10795000Y-48431000D03*
D27*
X59512000Y-6538500D03*
X59512000Y-3138500D03*
X64655500Y-6538500D03*
X64655500Y-3138500D03*
D15*
G36*
X69152081Y-50782876D02*
G01*
X69175781Y-50786391D01*
X69199023Y-50792213D01*
X69221582Y-50800285D01*
X69243242Y-50810529D01*
X69263792Y-50822847D01*
X69283037Y-50837119D01*
X69300790Y-50853210D01*
X69316881Y-50870963D01*
X69331153Y-50890208D01*
X69343471Y-50910758D01*
X69353715Y-50932418D01*
X69361787Y-50954977D01*
X69367609Y-50978219D01*
X69371124Y-51001919D01*
X69372300Y-51025850D01*
X69372300Y-51514150D01*
X69371124Y-51538081D01*
X69367609Y-51561781D01*
X69361787Y-51585023D01*
X69353715Y-51607582D01*
X69343471Y-51629242D01*
X69331153Y-51649792D01*
X69316881Y-51669037D01*
X69300790Y-51686790D01*
X69283037Y-51702881D01*
X69263792Y-51717153D01*
X69243242Y-51729471D01*
X69221582Y-51739715D01*
X69199023Y-51747787D01*
X69175781Y-51753609D01*
X69152081Y-51757124D01*
X69128150Y-51758300D01*
X68564850Y-51758300D01*
X68540919Y-51757124D01*
X68517219Y-51753609D01*
X68493977Y-51747787D01*
X68471418Y-51739715D01*
X68449758Y-51729471D01*
X68429208Y-51717153D01*
X68409963Y-51702881D01*
X68392210Y-51686790D01*
X68376119Y-51669037D01*
X68361847Y-51649792D01*
X68349529Y-51629242D01*
X68339285Y-51607582D01*
X68331213Y-51585023D01*
X68325391Y-51561781D01*
X68321876Y-51538081D01*
X68320700Y-51514150D01*
X68320700Y-51025850D01*
X68321876Y-51001919D01*
X68325391Y-50978219D01*
X68331213Y-50954977D01*
X68339285Y-50932418D01*
X68349529Y-50910758D01*
X68361847Y-50890208D01*
X68376119Y-50870963D01*
X68392210Y-50853210D01*
X68409963Y-50837119D01*
X68429208Y-50822847D01*
X68449758Y-50810529D01*
X68471418Y-50800285D01*
X68493977Y-50792213D01*
X68517219Y-50786391D01*
X68540919Y-50782876D01*
X68564850Y-50781700D01*
X69128150Y-50781700D01*
X69152081Y-50782876D01*
G37*
G36*
X69152081Y-49207876D02*
G01*
X69175781Y-49211391D01*
X69199023Y-49217213D01*
X69221582Y-49225285D01*
X69243242Y-49235529D01*
X69263792Y-49247847D01*
X69283037Y-49262119D01*
X69300790Y-49278210D01*
X69316881Y-49295963D01*
X69331153Y-49315208D01*
X69343471Y-49335758D01*
X69353715Y-49357418D01*
X69361787Y-49379977D01*
X69367609Y-49403219D01*
X69371124Y-49426919D01*
X69372300Y-49450850D01*
X69372300Y-49939150D01*
X69371124Y-49963081D01*
X69367609Y-49986781D01*
X69361787Y-50010023D01*
X69353715Y-50032582D01*
X69343471Y-50054242D01*
X69331153Y-50074792D01*
X69316881Y-50094037D01*
X69300790Y-50111790D01*
X69283037Y-50127881D01*
X69263792Y-50142153D01*
X69243242Y-50154471D01*
X69221582Y-50164715D01*
X69199023Y-50172787D01*
X69175781Y-50178609D01*
X69152081Y-50182124D01*
X69128150Y-50183300D01*
X68564850Y-50183300D01*
X68540919Y-50182124D01*
X68517219Y-50178609D01*
X68493977Y-50172787D01*
X68471418Y-50164715D01*
X68449758Y-50154471D01*
X68429208Y-50142153D01*
X68409963Y-50127881D01*
X68392210Y-50111790D01*
X68376119Y-50094037D01*
X68361847Y-50074792D01*
X68349529Y-50054242D01*
X68339285Y-50032582D01*
X68331213Y-50010023D01*
X68325391Y-49986781D01*
X68321876Y-49963081D01*
X68320700Y-49939150D01*
X68320700Y-49450850D01*
X68321876Y-49426919D01*
X68325391Y-49403219D01*
X68331213Y-49379977D01*
X68339285Y-49357418D01*
X68349529Y-49335758D01*
X68361847Y-49315208D01*
X68376119Y-49295963D01*
X68392210Y-49278210D01*
X68409963Y-49262119D01*
X68429208Y-49247847D01*
X68449758Y-49235529D01*
X68471418Y-49225285D01*
X68493977Y-49217213D01*
X68517219Y-49211391D01*
X68540919Y-49207876D01*
X68564850Y-49206700D01*
X69128150Y-49206700D01*
X69152081Y-49207876D01*
G37*
G36*
X58967581Y-46668376D02*
G01*
X58991281Y-46671891D01*
X59014523Y-46677713D01*
X59037082Y-46685785D01*
X59058742Y-46696029D01*
X59079292Y-46708347D01*
X59098537Y-46722619D01*
X59116290Y-46738710D01*
X59132381Y-46756463D01*
X59146653Y-46775708D01*
X59158971Y-46796258D01*
X59169215Y-46817918D01*
X59177287Y-46840477D01*
X59183109Y-46863719D01*
X59186624Y-46887419D01*
X59187800Y-46911350D01*
X59187800Y-47474650D01*
X59186624Y-47498581D01*
X59183109Y-47522281D01*
X59177287Y-47545523D01*
X59169215Y-47568082D01*
X59158971Y-47589742D01*
X59146653Y-47610292D01*
X59132381Y-47629537D01*
X59116290Y-47647290D01*
X59098537Y-47663381D01*
X59079292Y-47677653D01*
X59058742Y-47689971D01*
X59037082Y-47700215D01*
X59014523Y-47708287D01*
X58991281Y-47714109D01*
X58967581Y-47717624D01*
X58943650Y-47718800D01*
X58455350Y-47718800D01*
X58431419Y-47717624D01*
X58407719Y-47714109D01*
X58384477Y-47708287D01*
X58361918Y-47700215D01*
X58340258Y-47689971D01*
X58319708Y-47677653D01*
X58300463Y-47663381D01*
X58282710Y-47647290D01*
X58266619Y-47629537D01*
X58252347Y-47610292D01*
X58240029Y-47589742D01*
X58229785Y-47568082D01*
X58221713Y-47545523D01*
X58215891Y-47522281D01*
X58212376Y-47498581D01*
X58211200Y-47474650D01*
X58211200Y-46911350D01*
X58212376Y-46887419D01*
X58215891Y-46863719D01*
X58221713Y-46840477D01*
X58229785Y-46817918D01*
X58240029Y-46796258D01*
X58252347Y-46775708D01*
X58266619Y-46756463D01*
X58282710Y-46738710D01*
X58300463Y-46722619D01*
X58319708Y-46708347D01*
X58340258Y-46696029D01*
X58361918Y-46685785D01*
X58384477Y-46677713D01*
X58407719Y-46671891D01*
X58431419Y-46668376D01*
X58455350Y-46667200D01*
X58943650Y-46667200D01*
X58967581Y-46668376D01*
G37*
G36*
X57392581Y-46668376D02*
G01*
X57416281Y-46671891D01*
X57439523Y-46677713D01*
X57462082Y-46685785D01*
X57483742Y-46696029D01*
X57504292Y-46708347D01*
X57523537Y-46722619D01*
X57541290Y-46738710D01*
X57557381Y-46756463D01*
X57571653Y-46775708D01*
X57583971Y-46796258D01*
X57594215Y-46817918D01*
X57602287Y-46840477D01*
X57608109Y-46863719D01*
X57611624Y-46887419D01*
X57612800Y-46911350D01*
X57612800Y-47474650D01*
X57611624Y-47498581D01*
X57608109Y-47522281D01*
X57602287Y-47545523D01*
X57594215Y-47568082D01*
X57583971Y-47589742D01*
X57571653Y-47610292D01*
X57557381Y-47629537D01*
X57541290Y-47647290D01*
X57523537Y-47663381D01*
X57504292Y-47677653D01*
X57483742Y-47689971D01*
X57462082Y-47700215D01*
X57439523Y-47708287D01*
X57416281Y-47714109D01*
X57392581Y-47717624D01*
X57368650Y-47718800D01*
X56880350Y-47718800D01*
X56856419Y-47717624D01*
X56832719Y-47714109D01*
X56809477Y-47708287D01*
X56786918Y-47700215D01*
X56765258Y-47689971D01*
X56744708Y-47677653D01*
X56725463Y-47663381D01*
X56707710Y-47647290D01*
X56691619Y-47629537D01*
X56677347Y-47610292D01*
X56665029Y-47589742D01*
X56654785Y-47568082D01*
X56646713Y-47545523D01*
X56640891Y-47522281D01*
X56637376Y-47498581D01*
X56636200Y-47474650D01*
X56636200Y-46911350D01*
X56637376Y-46887419D01*
X56640891Y-46863719D01*
X56646713Y-46840477D01*
X56654785Y-46817918D01*
X56665029Y-46796258D01*
X56677347Y-46775708D01*
X56691619Y-46756463D01*
X56707710Y-46738710D01*
X56725463Y-46722619D01*
X56744708Y-46708347D01*
X56765258Y-46696029D01*
X56786918Y-46685785D01*
X56809477Y-46677713D01*
X56832719Y-46671891D01*
X56856419Y-46668376D01*
X56880350Y-46667200D01*
X57368650Y-46667200D01*
X57392581Y-46668376D01*
G37*
G36*
X58980081Y-48382876D02*
G01*
X59003781Y-48386391D01*
X59027023Y-48392213D01*
X59049582Y-48400285D01*
X59071242Y-48410529D01*
X59091792Y-48422847D01*
X59111037Y-48437119D01*
X59128790Y-48453210D01*
X59144881Y-48470963D01*
X59159153Y-48490208D01*
X59171471Y-48510758D01*
X59181715Y-48532418D01*
X59189787Y-48554977D01*
X59195609Y-48578219D01*
X59199124Y-48601919D01*
X59200300Y-48625850D01*
X59200300Y-49189150D01*
X59199124Y-49213081D01*
X59195609Y-49236781D01*
X59189787Y-49260023D01*
X59181715Y-49282582D01*
X59171471Y-49304242D01*
X59159153Y-49324792D01*
X59144881Y-49344037D01*
X59128790Y-49361790D01*
X59111037Y-49377881D01*
X59091792Y-49392153D01*
X59071242Y-49404471D01*
X59049582Y-49414715D01*
X59027023Y-49422787D01*
X59003781Y-49428609D01*
X58980081Y-49432124D01*
X58956150Y-49433300D01*
X58467850Y-49433300D01*
X58443919Y-49432124D01*
X58420219Y-49428609D01*
X58396977Y-49422787D01*
X58374418Y-49414715D01*
X58352758Y-49404471D01*
X58332208Y-49392153D01*
X58312963Y-49377881D01*
X58295210Y-49361790D01*
X58279119Y-49344037D01*
X58264847Y-49324792D01*
X58252529Y-49304242D01*
X58242285Y-49282582D01*
X58234213Y-49260023D01*
X58228391Y-49236781D01*
X58224876Y-49213081D01*
X58223700Y-49189150D01*
X58223700Y-48625850D01*
X58224876Y-48601919D01*
X58228391Y-48578219D01*
X58234213Y-48554977D01*
X58242285Y-48532418D01*
X58252529Y-48510758D01*
X58264847Y-48490208D01*
X58279119Y-48470963D01*
X58295210Y-48453210D01*
X58312963Y-48437119D01*
X58332208Y-48422847D01*
X58352758Y-48410529D01*
X58374418Y-48400285D01*
X58396977Y-48392213D01*
X58420219Y-48386391D01*
X58443919Y-48382876D01*
X58467850Y-48381700D01*
X58956150Y-48381700D01*
X58980081Y-48382876D01*
G37*
G36*
X57405081Y-48382876D02*
G01*
X57428781Y-48386391D01*
X57452023Y-48392213D01*
X57474582Y-48400285D01*
X57496242Y-48410529D01*
X57516792Y-48422847D01*
X57536037Y-48437119D01*
X57553790Y-48453210D01*
X57569881Y-48470963D01*
X57584153Y-48490208D01*
X57596471Y-48510758D01*
X57606715Y-48532418D01*
X57614787Y-48554977D01*
X57620609Y-48578219D01*
X57624124Y-48601919D01*
X57625300Y-48625850D01*
X57625300Y-49189150D01*
X57624124Y-49213081D01*
X57620609Y-49236781D01*
X57614787Y-49260023D01*
X57606715Y-49282582D01*
X57596471Y-49304242D01*
X57584153Y-49324792D01*
X57569881Y-49344037D01*
X57553790Y-49361790D01*
X57536037Y-49377881D01*
X57516792Y-49392153D01*
X57496242Y-49404471D01*
X57474582Y-49414715D01*
X57452023Y-49422787D01*
X57428781Y-49428609D01*
X57405081Y-49432124D01*
X57381150Y-49433300D01*
X56892850Y-49433300D01*
X56868919Y-49432124D01*
X56845219Y-49428609D01*
X56821977Y-49422787D01*
X56799418Y-49414715D01*
X56777758Y-49404471D01*
X56757208Y-49392153D01*
X56737963Y-49377881D01*
X56720210Y-49361790D01*
X56704119Y-49344037D01*
X56689847Y-49324792D01*
X56677529Y-49304242D01*
X56667285Y-49282582D01*
X56659213Y-49260023D01*
X56653391Y-49236781D01*
X56649876Y-49213081D01*
X56648700Y-49189150D01*
X56648700Y-48625850D01*
X56649876Y-48601919D01*
X56653391Y-48578219D01*
X56659213Y-48554977D01*
X56667285Y-48532418D01*
X56677529Y-48510758D01*
X56689847Y-48490208D01*
X56704119Y-48470963D01*
X56720210Y-48453210D01*
X56737963Y-48437119D01*
X56757208Y-48422847D01*
X56777758Y-48410529D01*
X56799418Y-48400285D01*
X56821977Y-48392213D01*
X56845219Y-48386391D01*
X56868919Y-48382876D01*
X56892850Y-48381700D01*
X57381150Y-48381700D01*
X57405081Y-48382876D01*
G37*
G36*
X55170081Y-40699376D02*
G01*
X55193781Y-40702891D01*
X55217023Y-40708713D01*
X55239582Y-40716785D01*
X55261242Y-40727029D01*
X55281792Y-40739347D01*
X55301037Y-40753619D01*
X55318790Y-40769710D01*
X55334881Y-40787463D01*
X55349153Y-40806708D01*
X55361471Y-40827258D01*
X55371715Y-40848918D01*
X55379787Y-40871477D01*
X55385609Y-40894719D01*
X55389124Y-40918419D01*
X55390300Y-40942350D01*
X55390300Y-41505650D01*
X55389124Y-41529581D01*
X55385609Y-41553281D01*
X55379787Y-41576523D01*
X55371715Y-41599082D01*
X55361471Y-41620742D01*
X55349153Y-41641292D01*
X55334881Y-41660537D01*
X55318790Y-41678290D01*
X55301037Y-41694381D01*
X55281792Y-41708653D01*
X55261242Y-41720971D01*
X55239582Y-41731215D01*
X55217023Y-41739287D01*
X55193781Y-41745109D01*
X55170081Y-41748624D01*
X55146150Y-41749800D01*
X54657850Y-41749800D01*
X54633919Y-41748624D01*
X54610219Y-41745109D01*
X54586977Y-41739287D01*
X54564418Y-41731215D01*
X54542758Y-41720971D01*
X54522208Y-41708653D01*
X54502963Y-41694381D01*
X54485210Y-41678290D01*
X54469119Y-41660537D01*
X54454847Y-41641292D01*
X54442529Y-41620742D01*
X54432285Y-41599082D01*
X54424213Y-41576523D01*
X54418391Y-41553281D01*
X54414876Y-41529581D01*
X54413700Y-41505650D01*
X54413700Y-40942350D01*
X54414876Y-40918419D01*
X54418391Y-40894719D01*
X54424213Y-40871477D01*
X54432285Y-40848918D01*
X54442529Y-40827258D01*
X54454847Y-40806708D01*
X54469119Y-40787463D01*
X54485210Y-40769710D01*
X54502963Y-40753619D01*
X54522208Y-40739347D01*
X54542758Y-40727029D01*
X54564418Y-40716785D01*
X54586977Y-40708713D01*
X54610219Y-40702891D01*
X54633919Y-40699376D01*
X54657850Y-40698200D01*
X55146150Y-40698200D01*
X55170081Y-40699376D01*
G37*
G36*
X53595081Y-40699376D02*
G01*
X53618781Y-40702891D01*
X53642023Y-40708713D01*
X53664582Y-40716785D01*
X53686242Y-40727029D01*
X53706792Y-40739347D01*
X53726037Y-40753619D01*
X53743790Y-40769710D01*
X53759881Y-40787463D01*
X53774153Y-40806708D01*
X53786471Y-40827258D01*
X53796715Y-40848918D01*
X53804787Y-40871477D01*
X53810609Y-40894719D01*
X53814124Y-40918419D01*
X53815300Y-40942350D01*
X53815300Y-41505650D01*
X53814124Y-41529581D01*
X53810609Y-41553281D01*
X53804787Y-41576523D01*
X53796715Y-41599082D01*
X53786471Y-41620742D01*
X53774153Y-41641292D01*
X53759881Y-41660537D01*
X53743790Y-41678290D01*
X53726037Y-41694381D01*
X53706792Y-41708653D01*
X53686242Y-41720971D01*
X53664582Y-41731215D01*
X53642023Y-41739287D01*
X53618781Y-41745109D01*
X53595081Y-41748624D01*
X53571150Y-41749800D01*
X53082850Y-41749800D01*
X53058919Y-41748624D01*
X53035219Y-41745109D01*
X53011977Y-41739287D01*
X52989418Y-41731215D01*
X52967758Y-41720971D01*
X52947208Y-41708653D01*
X52927963Y-41694381D01*
X52910210Y-41678290D01*
X52894119Y-41660537D01*
X52879847Y-41641292D01*
X52867529Y-41620742D01*
X52857285Y-41599082D01*
X52849213Y-41576523D01*
X52843391Y-41553281D01*
X52839876Y-41529581D01*
X52838700Y-41505650D01*
X52838700Y-40942350D01*
X52839876Y-40918419D01*
X52843391Y-40894719D01*
X52849213Y-40871477D01*
X52857285Y-40848918D01*
X52867529Y-40827258D01*
X52879847Y-40806708D01*
X52894119Y-40787463D01*
X52910210Y-40769710D01*
X52927963Y-40753619D01*
X52947208Y-40739347D01*
X52967758Y-40727029D01*
X52989418Y-40716785D01*
X53011977Y-40708713D01*
X53035219Y-40702891D01*
X53058919Y-40699376D01*
X53082850Y-40698200D01*
X53571150Y-40698200D01*
X53595081Y-40699376D01*
G37*
G36*
X49766976Y-43427502D02*
G01*
X49793217Y-43431394D01*
X49818950Y-43437840D01*
X49843927Y-43446777D01*
X49867908Y-43458119D01*
X49890662Y-43471757D01*
X49911969Y-43487560D01*
X49931625Y-43505375D01*
X49949440Y-43525031D01*
X49965243Y-43546338D01*
X49978881Y-43569092D01*
X49990223Y-43593073D01*
X49999160Y-43618050D01*
X50005606Y-43643783D01*
X50009498Y-43670024D01*
X50010800Y-43696520D01*
X50010800Y-45457480D01*
X50009498Y-45483976D01*
X50005606Y-45510217D01*
X49999160Y-45535950D01*
X49990223Y-45560927D01*
X49978881Y-45584908D01*
X49965243Y-45607662D01*
X49949440Y-45628969D01*
X49931625Y-45648625D01*
X49911969Y-45666440D01*
X49890662Y-45682243D01*
X49867908Y-45695881D01*
X49843927Y-45707223D01*
X49818950Y-45716160D01*
X49793217Y-45722606D01*
X49766976Y-45726498D01*
X49740480Y-45727800D01*
X48929520Y-45727800D01*
X48903024Y-45726498D01*
X48876783Y-45722606D01*
X48851050Y-45716160D01*
X48826073Y-45707223D01*
X48802092Y-45695881D01*
X48779338Y-45682243D01*
X48758031Y-45666440D01*
X48738375Y-45648625D01*
X48720560Y-45628969D01*
X48704757Y-45607662D01*
X48691119Y-45584908D01*
X48679777Y-45560927D01*
X48670840Y-45535950D01*
X48664394Y-45510217D01*
X48660502Y-45483976D01*
X48659200Y-45457480D01*
X48659200Y-43696520D01*
X48660502Y-43670024D01*
X48664394Y-43643783D01*
X48670840Y-43618050D01*
X48679777Y-43593073D01*
X48691119Y-43569092D01*
X48704757Y-43546338D01*
X48720560Y-43525031D01*
X48738375Y-43505375D01*
X48758031Y-43487560D01*
X48779338Y-43471757D01*
X48802092Y-43458119D01*
X48826073Y-43446777D01*
X48851050Y-43437840D01*
X48876783Y-43431394D01*
X48903024Y-43427502D01*
X48929520Y-43426200D01*
X49740480Y-43426200D01*
X49766976Y-43427502D01*
G37*
G36*
X47616976Y-43427502D02*
G01*
X47643217Y-43431394D01*
X47668950Y-43437840D01*
X47693927Y-43446777D01*
X47717908Y-43458119D01*
X47740662Y-43471757D01*
X47761969Y-43487560D01*
X47781625Y-43505375D01*
X47799440Y-43525031D01*
X47815243Y-43546338D01*
X47828881Y-43569092D01*
X47840223Y-43593073D01*
X47849160Y-43618050D01*
X47855606Y-43643783D01*
X47859498Y-43670024D01*
X47860800Y-43696520D01*
X47860800Y-45457480D01*
X47859498Y-45483976D01*
X47855606Y-45510217D01*
X47849160Y-45535950D01*
X47840223Y-45560927D01*
X47828881Y-45584908D01*
X47815243Y-45607662D01*
X47799440Y-45628969D01*
X47781625Y-45648625D01*
X47761969Y-45666440D01*
X47740662Y-45682243D01*
X47717908Y-45695881D01*
X47693927Y-45707223D01*
X47668950Y-45716160D01*
X47643217Y-45722606D01*
X47616976Y-45726498D01*
X47590480Y-45727800D01*
X46779520Y-45727800D01*
X46753024Y-45726498D01*
X46726783Y-45722606D01*
X46701050Y-45716160D01*
X46676073Y-45707223D01*
X46652092Y-45695881D01*
X46629338Y-45682243D01*
X46608031Y-45666440D01*
X46588375Y-45648625D01*
X46570560Y-45628969D01*
X46554757Y-45607662D01*
X46541119Y-45584908D01*
X46529777Y-45560927D01*
X46520840Y-45535950D01*
X46514394Y-45510217D01*
X46510502Y-45483976D01*
X46509200Y-45457480D01*
X46509200Y-43696520D01*
X46510502Y-43670024D01*
X46514394Y-43643783D01*
X46520840Y-43618050D01*
X46529777Y-43593073D01*
X46541119Y-43569092D01*
X46554757Y-43546338D01*
X46570560Y-43525031D01*
X46588375Y-43505375D01*
X46608031Y-43487560D01*
X46629338Y-43471757D01*
X46652092Y-43458119D01*
X46676073Y-43446777D01*
X46701050Y-43437840D01*
X46726783Y-43431394D01*
X46753024Y-43427502D01*
X46779520Y-43426200D01*
X47590480Y-43426200D01*
X47616976Y-43427502D01*
G37*
D28*
X4953000Y-43697000D03*
X4953000Y-47997000D03*
D29*
X10427500Y-40589000D03*
X13727500Y-40589000D03*
D15*
G36*
X51105581Y-48814376D02*
G01*
X51129281Y-48817891D01*
X51152523Y-48823713D01*
X51175082Y-48831785D01*
X51196742Y-48842029D01*
X51217292Y-48854347D01*
X51236537Y-48868619D01*
X51254290Y-48884710D01*
X51270381Y-48902463D01*
X51284653Y-48921708D01*
X51296971Y-48942258D01*
X51307215Y-48963918D01*
X51315287Y-48986477D01*
X51321109Y-49009719D01*
X51324624Y-49033419D01*
X51325800Y-49057350D01*
X51325800Y-49545650D01*
X51324624Y-49569581D01*
X51321109Y-49593281D01*
X51315287Y-49616523D01*
X51307215Y-49639082D01*
X51296971Y-49660742D01*
X51284653Y-49681292D01*
X51270381Y-49700537D01*
X51254290Y-49718290D01*
X51236537Y-49734381D01*
X51217292Y-49748653D01*
X51196742Y-49760971D01*
X51175082Y-49771215D01*
X51152523Y-49779287D01*
X51129281Y-49785109D01*
X51105581Y-49788624D01*
X51081650Y-49789800D01*
X50518350Y-49789800D01*
X50494419Y-49788624D01*
X50470719Y-49785109D01*
X50447477Y-49779287D01*
X50424918Y-49771215D01*
X50403258Y-49760971D01*
X50382708Y-49748653D01*
X50363463Y-49734381D01*
X50345710Y-49718290D01*
X50329619Y-49700537D01*
X50315347Y-49681292D01*
X50303029Y-49660742D01*
X50292785Y-49639082D01*
X50284713Y-49616523D01*
X50278891Y-49593281D01*
X50275376Y-49569581D01*
X50274200Y-49545650D01*
X50274200Y-49057350D01*
X50275376Y-49033419D01*
X50278891Y-49009719D01*
X50284713Y-48986477D01*
X50292785Y-48963918D01*
X50303029Y-48942258D01*
X50315347Y-48921708D01*
X50329619Y-48902463D01*
X50345710Y-48884710D01*
X50363463Y-48868619D01*
X50382708Y-48854347D01*
X50403258Y-48842029D01*
X50424918Y-48831785D01*
X50447477Y-48823713D01*
X50470719Y-48817891D01*
X50494419Y-48814376D01*
X50518350Y-48813200D01*
X51081650Y-48813200D01*
X51105581Y-48814376D01*
G37*
G36*
X51105581Y-47239376D02*
G01*
X51129281Y-47242891D01*
X51152523Y-47248713D01*
X51175082Y-47256785D01*
X51196742Y-47267029D01*
X51217292Y-47279347D01*
X51236537Y-47293619D01*
X51254290Y-47309710D01*
X51270381Y-47327463D01*
X51284653Y-47346708D01*
X51296971Y-47367258D01*
X51307215Y-47388918D01*
X51315287Y-47411477D01*
X51321109Y-47434719D01*
X51324624Y-47458419D01*
X51325800Y-47482350D01*
X51325800Y-47970650D01*
X51324624Y-47994581D01*
X51321109Y-48018281D01*
X51315287Y-48041523D01*
X51307215Y-48064082D01*
X51296971Y-48085742D01*
X51284653Y-48106292D01*
X51270381Y-48125537D01*
X51254290Y-48143290D01*
X51236537Y-48159381D01*
X51217292Y-48173653D01*
X51196742Y-48185971D01*
X51175082Y-48196215D01*
X51152523Y-48204287D01*
X51129281Y-48210109D01*
X51105581Y-48213624D01*
X51081650Y-48214800D01*
X50518350Y-48214800D01*
X50494419Y-48213624D01*
X50470719Y-48210109D01*
X50447477Y-48204287D01*
X50424918Y-48196215D01*
X50403258Y-48185971D01*
X50382708Y-48173653D01*
X50363463Y-48159381D01*
X50345710Y-48143290D01*
X50329619Y-48125537D01*
X50315347Y-48106292D01*
X50303029Y-48085742D01*
X50292785Y-48064082D01*
X50284713Y-48041523D01*
X50278891Y-48018281D01*
X50275376Y-47994581D01*
X50274200Y-47970650D01*
X50274200Y-47482350D01*
X50275376Y-47458419D01*
X50278891Y-47434719D01*
X50284713Y-47411477D01*
X50292785Y-47388918D01*
X50303029Y-47367258D01*
X50315347Y-47346708D01*
X50329619Y-47327463D01*
X50345710Y-47309710D01*
X50363463Y-47293619D01*
X50382708Y-47279347D01*
X50403258Y-47267029D01*
X50424918Y-47256785D01*
X50447477Y-47248713D01*
X50470719Y-47242891D01*
X50494419Y-47239376D01*
X50518350Y-47238200D01*
X51081650Y-47238200D01*
X51105581Y-47239376D01*
G37*
G36*
X48553581Y-51164376D02*
G01*
X48577281Y-51167891D01*
X48600523Y-51173713D01*
X48623082Y-51181785D01*
X48644742Y-51192029D01*
X48665292Y-51204347D01*
X48684537Y-51218619D01*
X48702290Y-51234710D01*
X48718381Y-51252463D01*
X48732653Y-51271708D01*
X48744971Y-51292258D01*
X48755215Y-51313918D01*
X48763287Y-51336477D01*
X48769109Y-51359719D01*
X48772624Y-51383419D01*
X48773800Y-51407350D01*
X48773800Y-51970650D01*
X48772624Y-51994581D01*
X48769109Y-52018281D01*
X48763287Y-52041523D01*
X48755215Y-52064082D01*
X48744971Y-52085742D01*
X48732653Y-52106292D01*
X48718381Y-52125537D01*
X48702290Y-52143290D01*
X48684537Y-52159381D01*
X48665292Y-52173653D01*
X48644742Y-52185971D01*
X48623082Y-52196215D01*
X48600523Y-52204287D01*
X48577281Y-52210109D01*
X48553581Y-52213624D01*
X48529650Y-52214800D01*
X48041350Y-52214800D01*
X48017419Y-52213624D01*
X47993719Y-52210109D01*
X47970477Y-52204287D01*
X47947918Y-52196215D01*
X47926258Y-52185971D01*
X47905708Y-52173653D01*
X47886463Y-52159381D01*
X47868710Y-52143290D01*
X47852619Y-52125537D01*
X47838347Y-52106292D01*
X47826029Y-52085742D01*
X47815785Y-52064082D01*
X47807713Y-52041523D01*
X47801891Y-52018281D01*
X47798376Y-51994581D01*
X47797200Y-51970650D01*
X47797200Y-51407350D01*
X47798376Y-51383419D01*
X47801891Y-51359719D01*
X47807713Y-51336477D01*
X47815785Y-51313918D01*
X47826029Y-51292258D01*
X47838347Y-51271708D01*
X47852619Y-51252463D01*
X47868710Y-51234710D01*
X47886463Y-51218619D01*
X47905708Y-51204347D01*
X47926258Y-51192029D01*
X47947918Y-51181785D01*
X47970477Y-51173713D01*
X47993719Y-51167891D01*
X48017419Y-51164376D01*
X48041350Y-51163200D01*
X48529650Y-51163200D01*
X48553581Y-51164376D01*
G37*
G36*
X46978581Y-51164376D02*
G01*
X47002281Y-51167891D01*
X47025523Y-51173713D01*
X47048082Y-51181785D01*
X47069742Y-51192029D01*
X47090292Y-51204347D01*
X47109537Y-51218619D01*
X47127290Y-51234710D01*
X47143381Y-51252463D01*
X47157653Y-51271708D01*
X47169971Y-51292258D01*
X47180215Y-51313918D01*
X47188287Y-51336477D01*
X47194109Y-51359719D01*
X47197624Y-51383419D01*
X47198800Y-51407350D01*
X47198800Y-51970650D01*
X47197624Y-51994581D01*
X47194109Y-52018281D01*
X47188287Y-52041523D01*
X47180215Y-52064082D01*
X47169971Y-52085742D01*
X47157653Y-52106292D01*
X47143381Y-52125537D01*
X47127290Y-52143290D01*
X47109537Y-52159381D01*
X47090292Y-52173653D01*
X47069742Y-52185971D01*
X47048082Y-52196215D01*
X47025523Y-52204287D01*
X47002281Y-52210109D01*
X46978581Y-52213624D01*
X46954650Y-52214800D01*
X46466350Y-52214800D01*
X46442419Y-52213624D01*
X46418719Y-52210109D01*
X46395477Y-52204287D01*
X46372918Y-52196215D01*
X46351258Y-52185971D01*
X46330708Y-52173653D01*
X46311463Y-52159381D01*
X46293710Y-52143290D01*
X46277619Y-52125537D01*
X46263347Y-52106292D01*
X46251029Y-52085742D01*
X46240785Y-52064082D01*
X46232713Y-52041523D01*
X46226891Y-52018281D01*
X46223376Y-51994581D01*
X46222200Y-51970650D01*
X46222200Y-51407350D01*
X46223376Y-51383419D01*
X46226891Y-51359719D01*
X46232713Y-51336477D01*
X46240785Y-51313918D01*
X46251029Y-51292258D01*
X46263347Y-51271708D01*
X46277619Y-51252463D01*
X46293710Y-51234710D01*
X46311463Y-51218619D01*
X46330708Y-51204347D01*
X46351258Y-51192029D01*
X46372918Y-51181785D01*
X46395477Y-51173713D01*
X46418719Y-51167891D01*
X46442419Y-51164376D01*
X46466350Y-51163200D01*
X46954650Y-51163200D01*
X46978581Y-51164376D01*
G37*
G36*
X9449581Y-44826376D02*
G01*
X9473281Y-44829891D01*
X9496523Y-44835713D01*
X9519082Y-44843785D01*
X9540742Y-44854029D01*
X9561292Y-44866347D01*
X9580537Y-44880619D01*
X9598290Y-44896710D01*
X9614381Y-44914463D01*
X9628653Y-44933708D01*
X9640971Y-44954258D01*
X9651215Y-44975918D01*
X9659287Y-44998477D01*
X9665109Y-45021719D01*
X9668624Y-45045419D01*
X9669800Y-45069350D01*
X9669800Y-45557650D01*
X9668624Y-45581581D01*
X9665109Y-45605281D01*
X9659287Y-45628523D01*
X9651215Y-45651082D01*
X9640971Y-45672742D01*
X9628653Y-45693292D01*
X9614381Y-45712537D01*
X9598290Y-45730290D01*
X9580537Y-45746381D01*
X9561292Y-45760653D01*
X9540742Y-45772971D01*
X9519082Y-45783215D01*
X9496523Y-45791287D01*
X9473281Y-45797109D01*
X9449581Y-45800624D01*
X9425650Y-45801800D01*
X8862350Y-45801800D01*
X8838419Y-45800624D01*
X8814719Y-45797109D01*
X8791477Y-45791287D01*
X8768918Y-45783215D01*
X8747258Y-45772971D01*
X8726708Y-45760653D01*
X8707463Y-45746381D01*
X8689710Y-45730290D01*
X8673619Y-45712537D01*
X8659347Y-45693292D01*
X8647029Y-45672742D01*
X8636785Y-45651082D01*
X8628713Y-45628523D01*
X8622891Y-45605281D01*
X8619376Y-45581581D01*
X8618200Y-45557650D01*
X8618200Y-45069350D01*
X8619376Y-45045419D01*
X8622891Y-45021719D01*
X8628713Y-44998477D01*
X8636785Y-44975918D01*
X8647029Y-44954258D01*
X8659347Y-44933708D01*
X8673619Y-44914463D01*
X8689710Y-44896710D01*
X8707463Y-44880619D01*
X8726708Y-44866347D01*
X8747258Y-44854029D01*
X8768918Y-44843785D01*
X8791477Y-44835713D01*
X8814719Y-44829891D01*
X8838419Y-44826376D01*
X8862350Y-44825200D01*
X9425650Y-44825200D01*
X9449581Y-44826376D01*
G37*
G36*
X9449581Y-46401376D02*
G01*
X9473281Y-46404891D01*
X9496523Y-46410713D01*
X9519082Y-46418785D01*
X9540742Y-46429029D01*
X9561292Y-46441347D01*
X9580537Y-46455619D01*
X9598290Y-46471710D01*
X9614381Y-46489463D01*
X9628653Y-46508708D01*
X9640971Y-46529258D01*
X9651215Y-46550918D01*
X9659287Y-46573477D01*
X9665109Y-46596719D01*
X9668624Y-46620419D01*
X9669800Y-46644350D01*
X9669800Y-47132650D01*
X9668624Y-47156581D01*
X9665109Y-47180281D01*
X9659287Y-47203523D01*
X9651215Y-47226082D01*
X9640971Y-47247742D01*
X9628653Y-47268292D01*
X9614381Y-47287537D01*
X9598290Y-47305290D01*
X9580537Y-47321381D01*
X9561292Y-47335653D01*
X9540742Y-47347971D01*
X9519082Y-47358215D01*
X9496523Y-47366287D01*
X9473281Y-47372109D01*
X9449581Y-47375624D01*
X9425650Y-47376800D01*
X8862350Y-47376800D01*
X8838419Y-47375624D01*
X8814719Y-47372109D01*
X8791477Y-47366287D01*
X8768918Y-47358215D01*
X8747258Y-47347971D01*
X8726708Y-47335653D01*
X8707463Y-47321381D01*
X8689710Y-47305290D01*
X8673619Y-47287537D01*
X8659347Y-47268292D01*
X8647029Y-47247742D01*
X8636785Y-47226082D01*
X8628713Y-47203523D01*
X8622891Y-47180281D01*
X8619376Y-47156581D01*
X8618200Y-47132650D01*
X8618200Y-46644350D01*
X8619376Y-46620419D01*
X8622891Y-46596719D01*
X8628713Y-46573477D01*
X8636785Y-46550918D01*
X8647029Y-46529258D01*
X8659347Y-46508708D01*
X8673619Y-46489463D01*
X8689710Y-46471710D01*
X8707463Y-46455619D01*
X8726708Y-46441347D01*
X8747258Y-46429029D01*
X8768918Y-46418785D01*
X8791477Y-46410713D01*
X8814719Y-46404891D01*
X8838419Y-46401376D01*
X8862350Y-46400200D01*
X9425650Y-46400200D01*
X9449581Y-46401376D01*
G37*
G36*
X18642263Y-45091463D02*
G01*
X18667720Y-45095239D01*
X18692684Y-45101492D01*
X18716914Y-45110162D01*
X18740179Y-45121165D01*
X18762252Y-45134396D01*
X18782923Y-45149726D01*
X18801991Y-45167009D01*
X18819274Y-45186077D01*
X18834604Y-45206748D01*
X18847835Y-45228821D01*
X18858838Y-45252086D01*
X18867508Y-45276316D01*
X18873761Y-45301280D01*
X18877537Y-45326737D01*
X18878800Y-45352441D01*
X18878800Y-47004559D01*
X18877537Y-47030263D01*
X18873761Y-47055720D01*
X18867508Y-47080684D01*
X18858838Y-47104914D01*
X18847835Y-47128179D01*
X18834604Y-47150252D01*
X18819274Y-47170923D01*
X18801991Y-47189991D01*
X18782923Y-47207274D01*
X18762252Y-47222604D01*
X18740179Y-47235835D01*
X18716914Y-47246838D01*
X18692684Y-47255508D01*
X18667720Y-47261761D01*
X18642263Y-47265537D01*
X18616559Y-47266800D01*
X16689441Y-47266800D01*
X16663737Y-47265537D01*
X16638280Y-47261761D01*
X16613316Y-47255508D01*
X16589086Y-47246838D01*
X16565821Y-47235835D01*
X16543748Y-47222604D01*
X16523077Y-47207274D01*
X16504009Y-47189991D01*
X16486726Y-47170923D01*
X16471396Y-47150252D01*
X16458165Y-47128179D01*
X16447162Y-47104914D01*
X16438492Y-47080684D01*
X16432239Y-47055720D01*
X16428463Y-47030263D01*
X16427200Y-47004559D01*
X16427200Y-45352441D01*
X16428463Y-45326737D01*
X16432239Y-45301280D01*
X16438492Y-45276316D01*
X16447162Y-45252086D01*
X16458165Y-45228821D01*
X16471396Y-45206748D01*
X16486726Y-45186077D01*
X16504009Y-45167009D01*
X16523077Y-45149726D01*
X16543748Y-45134396D01*
X16565821Y-45121165D01*
X16589086Y-45110162D01*
X16613316Y-45101492D01*
X16638280Y-45095239D01*
X16663737Y-45091463D01*
X16689441Y-45090200D01*
X18616559Y-45090200D01*
X18642263Y-45091463D01*
G37*
G36*
X18642263Y-50016463D02*
G01*
X18667720Y-50020239D01*
X18692684Y-50026492D01*
X18716914Y-50035162D01*
X18740179Y-50046165D01*
X18762252Y-50059396D01*
X18782923Y-50074726D01*
X18801991Y-50092009D01*
X18819274Y-50111077D01*
X18834604Y-50131748D01*
X18847835Y-50153821D01*
X18858838Y-50177086D01*
X18867508Y-50201316D01*
X18873761Y-50226280D01*
X18877537Y-50251737D01*
X18878800Y-50277441D01*
X18878800Y-51929559D01*
X18877537Y-51955263D01*
X18873761Y-51980720D01*
X18867508Y-52005684D01*
X18858838Y-52029914D01*
X18847835Y-52053179D01*
X18834604Y-52075252D01*
X18819274Y-52095923D01*
X18801991Y-52114991D01*
X18782923Y-52132274D01*
X18762252Y-52147604D01*
X18740179Y-52160835D01*
X18716914Y-52171838D01*
X18692684Y-52180508D01*
X18667720Y-52186761D01*
X18642263Y-52190537D01*
X18616559Y-52191800D01*
X16689441Y-52191800D01*
X16663737Y-52190537D01*
X16638280Y-52186761D01*
X16613316Y-52180508D01*
X16589086Y-52171838D01*
X16565821Y-52160835D01*
X16543748Y-52147604D01*
X16523077Y-52132274D01*
X16504009Y-52114991D01*
X16486726Y-52095923D01*
X16471396Y-52075252D01*
X16458165Y-52053179D01*
X16447162Y-52029914D01*
X16438492Y-52005684D01*
X16432239Y-51980720D01*
X16428463Y-51955263D01*
X16427200Y-51929559D01*
X16427200Y-50277441D01*
X16428463Y-50251737D01*
X16432239Y-50226280D01*
X16438492Y-50201316D01*
X16447162Y-50177086D01*
X16458165Y-50153821D01*
X16471396Y-50131748D01*
X16486726Y-50111077D01*
X16504009Y-50092009D01*
X16523077Y-50074726D01*
X16543748Y-50059396D01*
X16565821Y-50046165D01*
X16589086Y-50035162D01*
X16613316Y-50026492D01*
X16638280Y-50020239D01*
X16663737Y-50016463D01*
X16689441Y-50015200D01*
X18616559Y-50015200D01*
X18642263Y-50016463D01*
G37*
G36*
X17374334Y-42510494D02*
G01*
X17400429Y-42514365D01*
X17426019Y-42520775D01*
X17450857Y-42529662D01*
X17474704Y-42540941D01*
X17497331Y-42554503D01*
X17518520Y-42570218D01*
X17538066Y-42587934D01*
X17555782Y-42607480D01*
X17571497Y-42628669D01*
X17585059Y-42651296D01*
X17596338Y-42675143D01*
X17605225Y-42699981D01*
X17611635Y-42725571D01*
X17615506Y-42751666D01*
X17616800Y-42778014D01*
X17616800Y-43741986D01*
X17615506Y-43768334D01*
X17611635Y-43794429D01*
X17605225Y-43820019D01*
X17596338Y-43844857D01*
X17585059Y-43868704D01*
X17571497Y-43891331D01*
X17555782Y-43912520D01*
X17538066Y-43932066D01*
X17518520Y-43949782D01*
X17497331Y-43965497D01*
X17474704Y-43979059D01*
X17450857Y-43990338D01*
X17426019Y-43999225D01*
X17400429Y-44005635D01*
X17374334Y-44009506D01*
X17347986Y-44010800D01*
X16434014Y-44010800D01*
X16407666Y-44009506D01*
X16381571Y-44005635D01*
X16355981Y-43999225D01*
X16331143Y-43990338D01*
X16307296Y-43979059D01*
X16284669Y-43965497D01*
X16263480Y-43949782D01*
X16243934Y-43932066D01*
X16226218Y-43912520D01*
X16210503Y-43891331D01*
X16196941Y-43868704D01*
X16185662Y-43844857D01*
X16176775Y-43820019D01*
X16170365Y-43794429D01*
X16166494Y-43768334D01*
X16165200Y-43741986D01*
X16165200Y-42778014D01*
X16166494Y-42751666D01*
X16170365Y-42725571D01*
X16176775Y-42699981D01*
X16185662Y-42675143D01*
X16196941Y-42651296D01*
X16210503Y-42628669D01*
X16226218Y-42607480D01*
X16243934Y-42587934D01*
X16263480Y-42570218D01*
X16284669Y-42554503D01*
X16307296Y-42540941D01*
X16331143Y-42529662D01*
X16355981Y-42520775D01*
X16381571Y-42514365D01*
X16407666Y-42510494D01*
X16434014Y-42509200D01*
X17347986Y-42509200D01*
X17374334Y-42510494D01*
G37*
G36*
X17374334Y-39810494D02*
G01*
X17400429Y-39814365D01*
X17426019Y-39820775D01*
X17450857Y-39829662D01*
X17474704Y-39840941D01*
X17497331Y-39854503D01*
X17518520Y-39870218D01*
X17538066Y-39887934D01*
X17555782Y-39907480D01*
X17571497Y-39928669D01*
X17585059Y-39951296D01*
X17596338Y-39975143D01*
X17605225Y-39999981D01*
X17611635Y-40025571D01*
X17615506Y-40051666D01*
X17616800Y-40078014D01*
X17616800Y-41041986D01*
X17615506Y-41068334D01*
X17611635Y-41094429D01*
X17605225Y-41120019D01*
X17596338Y-41144857D01*
X17585059Y-41168704D01*
X17571497Y-41191331D01*
X17555782Y-41212520D01*
X17538066Y-41232066D01*
X17518520Y-41249782D01*
X17497331Y-41265497D01*
X17474704Y-41279059D01*
X17450857Y-41290338D01*
X17426019Y-41299225D01*
X17400429Y-41305635D01*
X17374334Y-41309506D01*
X17347986Y-41310800D01*
X16434014Y-41310800D01*
X16407666Y-41309506D01*
X16381571Y-41305635D01*
X16355981Y-41299225D01*
X16331143Y-41290338D01*
X16307296Y-41279059D01*
X16284669Y-41265497D01*
X16263480Y-41249782D01*
X16243934Y-41232066D01*
X16226218Y-41212520D01*
X16210503Y-41191331D01*
X16196941Y-41168704D01*
X16185662Y-41144857D01*
X16176775Y-41120019D01*
X16170365Y-41094429D01*
X16166494Y-41068334D01*
X16165200Y-41041986D01*
X16165200Y-40078014D01*
X16166494Y-40051666D01*
X16170365Y-40025571D01*
X16176775Y-39999981D01*
X16185662Y-39975143D01*
X16196941Y-39951296D01*
X16210503Y-39928669D01*
X16226218Y-39907480D01*
X16243934Y-39887934D01*
X16263480Y-39870218D01*
X16284669Y-39854503D01*
X16307296Y-39840941D01*
X16331143Y-39829662D01*
X16355981Y-39820775D01*
X16381571Y-39814365D01*
X16407666Y-39810494D01*
X16434014Y-39809200D01*
X17347986Y-39809200D01*
X17374334Y-39810494D01*
G37*
G36*
X73953581Y-45449376D02*
G01*
X73977281Y-45452891D01*
X74000523Y-45458713D01*
X74023082Y-45466785D01*
X74044742Y-45477029D01*
X74065292Y-45489347D01*
X74084537Y-45503619D01*
X74102290Y-45519710D01*
X74118381Y-45537463D01*
X74132653Y-45556708D01*
X74144971Y-45577258D01*
X74155215Y-45598918D01*
X74163287Y-45621477D01*
X74169109Y-45644719D01*
X74172624Y-45668419D01*
X74173800Y-45692350D01*
X74173800Y-46255650D01*
X74172624Y-46279581D01*
X74169109Y-46303281D01*
X74163287Y-46326523D01*
X74155215Y-46349082D01*
X74144971Y-46370742D01*
X74132653Y-46391292D01*
X74118381Y-46410537D01*
X74102290Y-46428290D01*
X74084537Y-46444381D01*
X74065292Y-46458653D01*
X74044742Y-46470971D01*
X74023082Y-46481215D01*
X74000523Y-46489287D01*
X73977281Y-46495109D01*
X73953581Y-46498624D01*
X73929650Y-46499800D01*
X73441350Y-46499800D01*
X73417419Y-46498624D01*
X73393719Y-46495109D01*
X73370477Y-46489287D01*
X73347918Y-46481215D01*
X73326258Y-46470971D01*
X73305708Y-46458653D01*
X73286463Y-46444381D01*
X73268710Y-46428290D01*
X73252619Y-46410537D01*
X73238347Y-46391292D01*
X73226029Y-46370742D01*
X73215785Y-46349082D01*
X73207713Y-46326523D01*
X73201891Y-46303281D01*
X73198376Y-46279581D01*
X73197200Y-46255650D01*
X73197200Y-45692350D01*
X73198376Y-45668419D01*
X73201891Y-45644719D01*
X73207713Y-45621477D01*
X73215785Y-45598918D01*
X73226029Y-45577258D01*
X73238347Y-45556708D01*
X73252619Y-45537463D01*
X73268710Y-45519710D01*
X73286463Y-45503619D01*
X73305708Y-45489347D01*
X73326258Y-45477029D01*
X73347918Y-45466785D01*
X73370477Y-45458713D01*
X73393719Y-45452891D01*
X73417419Y-45449376D01*
X73441350Y-45448200D01*
X73929650Y-45448200D01*
X73953581Y-45449376D01*
G37*
G36*
X72378581Y-45449376D02*
G01*
X72402281Y-45452891D01*
X72425523Y-45458713D01*
X72448082Y-45466785D01*
X72469742Y-45477029D01*
X72490292Y-45489347D01*
X72509537Y-45503619D01*
X72527290Y-45519710D01*
X72543381Y-45537463D01*
X72557653Y-45556708D01*
X72569971Y-45577258D01*
X72580215Y-45598918D01*
X72588287Y-45621477D01*
X72594109Y-45644719D01*
X72597624Y-45668419D01*
X72598800Y-45692350D01*
X72598800Y-46255650D01*
X72597624Y-46279581D01*
X72594109Y-46303281D01*
X72588287Y-46326523D01*
X72580215Y-46349082D01*
X72569971Y-46370742D01*
X72557653Y-46391292D01*
X72543381Y-46410537D01*
X72527290Y-46428290D01*
X72509537Y-46444381D01*
X72490292Y-46458653D01*
X72469742Y-46470971D01*
X72448082Y-46481215D01*
X72425523Y-46489287D01*
X72402281Y-46495109D01*
X72378581Y-46498624D01*
X72354650Y-46499800D01*
X71866350Y-46499800D01*
X71842419Y-46498624D01*
X71818719Y-46495109D01*
X71795477Y-46489287D01*
X71772918Y-46481215D01*
X71751258Y-46470971D01*
X71730708Y-46458653D01*
X71711463Y-46444381D01*
X71693710Y-46428290D01*
X71677619Y-46410537D01*
X71663347Y-46391292D01*
X71651029Y-46370742D01*
X71640785Y-46349082D01*
X71632713Y-46326523D01*
X71626891Y-46303281D01*
X71623376Y-46279581D01*
X71622200Y-46255650D01*
X71622200Y-45692350D01*
X71623376Y-45668419D01*
X71626891Y-45644719D01*
X71632713Y-45621477D01*
X71640785Y-45598918D01*
X71651029Y-45577258D01*
X71663347Y-45556708D01*
X71677619Y-45537463D01*
X71693710Y-45519710D01*
X71711463Y-45503619D01*
X71730708Y-45489347D01*
X71751258Y-45477029D01*
X71772918Y-45466785D01*
X71795477Y-45458713D01*
X71818719Y-45452891D01*
X71842419Y-45449376D01*
X71866350Y-45448200D01*
X72354650Y-45448200D01*
X72378581Y-45449376D01*
G37*
G36*
X73953581Y-43925376D02*
G01*
X73977281Y-43928891D01*
X74000523Y-43934713D01*
X74023082Y-43942785D01*
X74044742Y-43953029D01*
X74065292Y-43965347D01*
X74084537Y-43979619D01*
X74102290Y-43995710D01*
X74118381Y-44013463D01*
X74132653Y-44032708D01*
X74144971Y-44053258D01*
X74155215Y-44074918D01*
X74163287Y-44097477D01*
X74169109Y-44120719D01*
X74172624Y-44144419D01*
X74173800Y-44168350D01*
X74173800Y-44731650D01*
X74172624Y-44755581D01*
X74169109Y-44779281D01*
X74163287Y-44802523D01*
X74155215Y-44825082D01*
X74144971Y-44846742D01*
X74132653Y-44867292D01*
X74118381Y-44886537D01*
X74102290Y-44904290D01*
X74084537Y-44920381D01*
X74065292Y-44934653D01*
X74044742Y-44946971D01*
X74023082Y-44957215D01*
X74000523Y-44965287D01*
X73977281Y-44971109D01*
X73953581Y-44974624D01*
X73929650Y-44975800D01*
X73441350Y-44975800D01*
X73417419Y-44974624D01*
X73393719Y-44971109D01*
X73370477Y-44965287D01*
X73347918Y-44957215D01*
X73326258Y-44946971D01*
X73305708Y-44934653D01*
X73286463Y-44920381D01*
X73268710Y-44904290D01*
X73252619Y-44886537D01*
X73238347Y-44867292D01*
X73226029Y-44846742D01*
X73215785Y-44825082D01*
X73207713Y-44802523D01*
X73201891Y-44779281D01*
X73198376Y-44755581D01*
X73197200Y-44731650D01*
X73197200Y-44168350D01*
X73198376Y-44144419D01*
X73201891Y-44120719D01*
X73207713Y-44097477D01*
X73215785Y-44074918D01*
X73226029Y-44053258D01*
X73238347Y-44032708D01*
X73252619Y-44013463D01*
X73268710Y-43995710D01*
X73286463Y-43979619D01*
X73305708Y-43965347D01*
X73326258Y-43953029D01*
X73347918Y-43942785D01*
X73370477Y-43934713D01*
X73393719Y-43928891D01*
X73417419Y-43925376D01*
X73441350Y-43924200D01*
X73929650Y-43924200D01*
X73953581Y-43925376D01*
G37*
G36*
X72378581Y-43925376D02*
G01*
X72402281Y-43928891D01*
X72425523Y-43934713D01*
X72448082Y-43942785D01*
X72469742Y-43953029D01*
X72490292Y-43965347D01*
X72509537Y-43979619D01*
X72527290Y-43995710D01*
X72543381Y-44013463D01*
X72557653Y-44032708D01*
X72569971Y-44053258D01*
X72580215Y-44074918D01*
X72588287Y-44097477D01*
X72594109Y-44120719D01*
X72597624Y-44144419D01*
X72598800Y-44168350D01*
X72598800Y-44731650D01*
X72597624Y-44755581D01*
X72594109Y-44779281D01*
X72588287Y-44802523D01*
X72580215Y-44825082D01*
X72569971Y-44846742D01*
X72557653Y-44867292D01*
X72543381Y-44886537D01*
X72527290Y-44904290D01*
X72509537Y-44920381D01*
X72490292Y-44934653D01*
X72469742Y-44946971D01*
X72448082Y-44957215D01*
X72425523Y-44965287D01*
X72402281Y-44971109D01*
X72378581Y-44974624D01*
X72354650Y-44975800D01*
X71866350Y-44975800D01*
X71842419Y-44974624D01*
X71818719Y-44971109D01*
X71795477Y-44965287D01*
X71772918Y-44957215D01*
X71751258Y-44946971D01*
X71730708Y-44934653D01*
X71711463Y-44920381D01*
X71693710Y-44904290D01*
X71677619Y-44886537D01*
X71663347Y-44867292D01*
X71651029Y-44846742D01*
X71640785Y-44825082D01*
X71632713Y-44802523D01*
X71626891Y-44779281D01*
X71623376Y-44755581D01*
X71622200Y-44731650D01*
X71622200Y-44168350D01*
X71623376Y-44144419D01*
X71626891Y-44120719D01*
X71632713Y-44097477D01*
X71640785Y-44074918D01*
X71651029Y-44053258D01*
X71663347Y-44032708D01*
X71677619Y-44013463D01*
X71693710Y-43995710D01*
X71711463Y-43979619D01*
X71730708Y-43965347D01*
X71751258Y-43953029D01*
X71772918Y-43942785D01*
X71795477Y-43934713D01*
X71818719Y-43928891D01*
X71842419Y-43925376D01*
X71866350Y-43924200D01*
X72354650Y-43924200D01*
X72378581Y-43925376D01*
G37*
G36*
X67691581Y-50782876D02*
G01*
X67715281Y-50786391D01*
X67738523Y-50792213D01*
X67761082Y-50800285D01*
X67782742Y-50810529D01*
X67803292Y-50822847D01*
X67822537Y-50837119D01*
X67840290Y-50853210D01*
X67856381Y-50870963D01*
X67870653Y-50890208D01*
X67882971Y-50910758D01*
X67893215Y-50932418D01*
X67901287Y-50954977D01*
X67907109Y-50978219D01*
X67910624Y-51001919D01*
X67911800Y-51025850D01*
X67911800Y-51514150D01*
X67910624Y-51538081D01*
X67907109Y-51561781D01*
X67901287Y-51585023D01*
X67893215Y-51607582D01*
X67882971Y-51629242D01*
X67870653Y-51649792D01*
X67856381Y-51669037D01*
X67840290Y-51686790D01*
X67822537Y-51702881D01*
X67803292Y-51717153D01*
X67782742Y-51729471D01*
X67761082Y-51739715D01*
X67738523Y-51747787D01*
X67715281Y-51753609D01*
X67691581Y-51757124D01*
X67667650Y-51758300D01*
X67104350Y-51758300D01*
X67080419Y-51757124D01*
X67056719Y-51753609D01*
X67033477Y-51747787D01*
X67010918Y-51739715D01*
X66989258Y-51729471D01*
X66968708Y-51717153D01*
X66949463Y-51702881D01*
X66931710Y-51686790D01*
X66915619Y-51669037D01*
X66901347Y-51649792D01*
X66889029Y-51629242D01*
X66878785Y-51607582D01*
X66870713Y-51585023D01*
X66864891Y-51561781D01*
X66861376Y-51538081D01*
X66860200Y-51514150D01*
X66860200Y-51025850D01*
X66861376Y-51001919D01*
X66864891Y-50978219D01*
X66870713Y-50954977D01*
X66878785Y-50932418D01*
X66889029Y-50910758D01*
X66901347Y-50890208D01*
X66915619Y-50870963D01*
X66931710Y-50853210D01*
X66949463Y-50837119D01*
X66968708Y-50822847D01*
X66989258Y-50810529D01*
X67010918Y-50800285D01*
X67033477Y-50792213D01*
X67056719Y-50786391D01*
X67080419Y-50782876D01*
X67104350Y-50781700D01*
X67667650Y-50781700D01*
X67691581Y-50782876D01*
G37*
G36*
X67691581Y-49207876D02*
G01*
X67715281Y-49211391D01*
X67738523Y-49217213D01*
X67761082Y-49225285D01*
X67782742Y-49235529D01*
X67803292Y-49247847D01*
X67822537Y-49262119D01*
X67840290Y-49278210D01*
X67856381Y-49295963D01*
X67870653Y-49315208D01*
X67882971Y-49335758D01*
X67893215Y-49357418D01*
X67901287Y-49379977D01*
X67907109Y-49403219D01*
X67910624Y-49426919D01*
X67911800Y-49450850D01*
X67911800Y-49939150D01*
X67910624Y-49963081D01*
X67907109Y-49986781D01*
X67901287Y-50010023D01*
X67893215Y-50032582D01*
X67882971Y-50054242D01*
X67870653Y-50074792D01*
X67856381Y-50094037D01*
X67840290Y-50111790D01*
X67822537Y-50127881D01*
X67803292Y-50142153D01*
X67782742Y-50154471D01*
X67761082Y-50164715D01*
X67738523Y-50172787D01*
X67715281Y-50178609D01*
X67691581Y-50182124D01*
X67667650Y-50183300D01*
X67104350Y-50183300D01*
X67080419Y-50182124D01*
X67056719Y-50178609D01*
X67033477Y-50172787D01*
X67010918Y-50164715D01*
X66989258Y-50154471D01*
X66968708Y-50142153D01*
X66949463Y-50127881D01*
X66931710Y-50111790D01*
X66915619Y-50094037D01*
X66901347Y-50074792D01*
X66889029Y-50054242D01*
X66878785Y-50032582D01*
X66870713Y-50010023D01*
X66864891Y-49986781D01*
X66861376Y-49963081D01*
X66860200Y-49939150D01*
X66860200Y-49450850D01*
X66861376Y-49426919D01*
X66864891Y-49403219D01*
X66870713Y-49379977D01*
X66878785Y-49357418D01*
X66889029Y-49335758D01*
X66901347Y-49315208D01*
X66915619Y-49295963D01*
X66931710Y-49278210D01*
X66949463Y-49262119D01*
X66968708Y-49247847D01*
X66989258Y-49235529D01*
X67010918Y-49225285D01*
X67033477Y-49217213D01*
X67056719Y-49211391D01*
X67080419Y-49207876D01*
X67104350Y-49206700D01*
X67667650Y-49206700D01*
X67691581Y-49207876D01*
G37*
G36*
X61786081Y-50782876D02*
G01*
X61809781Y-50786391D01*
X61833023Y-50792213D01*
X61855582Y-50800285D01*
X61877242Y-50810529D01*
X61897792Y-50822847D01*
X61917037Y-50837119D01*
X61934790Y-50853210D01*
X61950881Y-50870963D01*
X61965153Y-50890208D01*
X61977471Y-50910758D01*
X61987715Y-50932418D01*
X61995787Y-50954977D01*
X62001609Y-50978219D01*
X62005124Y-51001919D01*
X62006300Y-51025850D01*
X62006300Y-51514150D01*
X62005124Y-51538081D01*
X62001609Y-51561781D01*
X61995787Y-51585023D01*
X61987715Y-51607582D01*
X61977471Y-51629242D01*
X61965153Y-51649792D01*
X61950881Y-51669037D01*
X61934790Y-51686790D01*
X61917037Y-51702881D01*
X61897792Y-51717153D01*
X61877242Y-51729471D01*
X61855582Y-51739715D01*
X61833023Y-51747787D01*
X61809781Y-51753609D01*
X61786081Y-51757124D01*
X61762150Y-51758300D01*
X61198850Y-51758300D01*
X61174919Y-51757124D01*
X61151219Y-51753609D01*
X61127977Y-51747787D01*
X61105418Y-51739715D01*
X61083758Y-51729471D01*
X61063208Y-51717153D01*
X61043963Y-51702881D01*
X61026210Y-51686790D01*
X61010119Y-51669037D01*
X60995847Y-51649792D01*
X60983529Y-51629242D01*
X60973285Y-51607582D01*
X60965213Y-51585023D01*
X60959391Y-51561781D01*
X60955876Y-51538081D01*
X60954700Y-51514150D01*
X60954700Y-51025850D01*
X60955876Y-51001919D01*
X60959391Y-50978219D01*
X60965213Y-50954977D01*
X60973285Y-50932418D01*
X60983529Y-50910758D01*
X60995847Y-50890208D01*
X61010119Y-50870963D01*
X61026210Y-50853210D01*
X61043963Y-50837119D01*
X61063208Y-50822847D01*
X61083758Y-50810529D01*
X61105418Y-50800285D01*
X61127977Y-50792213D01*
X61151219Y-50786391D01*
X61174919Y-50782876D01*
X61198850Y-50781700D01*
X61762150Y-50781700D01*
X61786081Y-50782876D01*
G37*
G36*
X61786081Y-49207876D02*
G01*
X61809781Y-49211391D01*
X61833023Y-49217213D01*
X61855582Y-49225285D01*
X61877242Y-49235529D01*
X61897792Y-49247847D01*
X61917037Y-49262119D01*
X61934790Y-49278210D01*
X61950881Y-49295963D01*
X61965153Y-49315208D01*
X61977471Y-49335758D01*
X61987715Y-49357418D01*
X61995787Y-49379977D01*
X62001609Y-49403219D01*
X62005124Y-49426919D01*
X62006300Y-49450850D01*
X62006300Y-49939150D01*
X62005124Y-49963081D01*
X62001609Y-49986781D01*
X61995787Y-50010023D01*
X61987715Y-50032582D01*
X61977471Y-50054242D01*
X61965153Y-50074792D01*
X61950881Y-50094037D01*
X61934790Y-50111790D01*
X61917037Y-50127881D01*
X61897792Y-50142153D01*
X61877242Y-50154471D01*
X61855582Y-50164715D01*
X61833023Y-50172787D01*
X61809781Y-50178609D01*
X61786081Y-50182124D01*
X61762150Y-50183300D01*
X61198850Y-50183300D01*
X61174919Y-50182124D01*
X61151219Y-50178609D01*
X61127977Y-50172787D01*
X61105418Y-50164715D01*
X61083758Y-50154471D01*
X61063208Y-50142153D01*
X61043963Y-50127881D01*
X61026210Y-50111790D01*
X61010119Y-50094037D01*
X60995847Y-50074792D01*
X60983529Y-50054242D01*
X60973285Y-50032582D01*
X60965213Y-50010023D01*
X60959391Y-49986781D01*
X60955876Y-49963081D01*
X60954700Y-49939150D01*
X60954700Y-49450850D01*
X60955876Y-49426919D01*
X60959391Y-49403219D01*
X60965213Y-49379977D01*
X60973285Y-49357418D01*
X60983529Y-49335758D01*
X60995847Y-49315208D01*
X61010119Y-49295963D01*
X61026210Y-49278210D01*
X61043963Y-49262119D01*
X61063208Y-49247847D01*
X61083758Y-49235529D01*
X61105418Y-49225285D01*
X61127977Y-49217213D01*
X61151219Y-49211391D01*
X61174919Y-49207876D01*
X61198850Y-49206700D01*
X61762150Y-49206700D01*
X61786081Y-49207876D01*
G37*
G36*
X57392581Y-44699876D02*
G01*
X57416281Y-44703391D01*
X57439523Y-44709213D01*
X57462082Y-44717285D01*
X57483742Y-44727529D01*
X57504292Y-44739847D01*
X57523537Y-44754119D01*
X57541290Y-44770210D01*
X57557381Y-44787963D01*
X57571653Y-44807208D01*
X57583971Y-44827758D01*
X57594215Y-44849418D01*
X57602287Y-44871977D01*
X57608109Y-44895219D01*
X57611624Y-44918919D01*
X57612800Y-44942850D01*
X57612800Y-45506150D01*
X57611624Y-45530081D01*
X57608109Y-45553781D01*
X57602287Y-45577023D01*
X57594215Y-45599582D01*
X57583971Y-45621242D01*
X57571653Y-45641792D01*
X57557381Y-45661037D01*
X57541290Y-45678790D01*
X57523537Y-45694881D01*
X57504292Y-45709153D01*
X57483742Y-45721471D01*
X57462082Y-45731715D01*
X57439523Y-45739787D01*
X57416281Y-45745609D01*
X57392581Y-45749124D01*
X57368650Y-45750300D01*
X56880350Y-45750300D01*
X56856419Y-45749124D01*
X56832719Y-45745609D01*
X56809477Y-45739787D01*
X56786918Y-45731715D01*
X56765258Y-45721471D01*
X56744708Y-45709153D01*
X56725463Y-45694881D01*
X56707710Y-45678790D01*
X56691619Y-45661037D01*
X56677347Y-45641792D01*
X56665029Y-45621242D01*
X56654785Y-45599582D01*
X56646713Y-45577023D01*
X56640891Y-45553781D01*
X56637376Y-45530081D01*
X56636200Y-45506150D01*
X56636200Y-44942850D01*
X56637376Y-44918919D01*
X56640891Y-44895219D01*
X56646713Y-44871977D01*
X56654785Y-44849418D01*
X56665029Y-44827758D01*
X56677347Y-44807208D01*
X56691619Y-44787963D01*
X56707710Y-44770210D01*
X56725463Y-44754119D01*
X56744708Y-44739847D01*
X56765258Y-44727529D01*
X56786918Y-44717285D01*
X56809477Y-44709213D01*
X56832719Y-44703391D01*
X56856419Y-44699876D01*
X56880350Y-44698700D01*
X57368650Y-44698700D01*
X57392581Y-44699876D01*
G37*
G36*
X58967581Y-44699876D02*
G01*
X58991281Y-44703391D01*
X59014523Y-44709213D01*
X59037082Y-44717285D01*
X59058742Y-44727529D01*
X59079292Y-44739847D01*
X59098537Y-44754119D01*
X59116290Y-44770210D01*
X59132381Y-44787963D01*
X59146653Y-44807208D01*
X59158971Y-44827758D01*
X59169215Y-44849418D01*
X59177287Y-44871977D01*
X59183109Y-44895219D01*
X59186624Y-44918919D01*
X59187800Y-44942850D01*
X59187800Y-45506150D01*
X59186624Y-45530081D01*
X59183109Y-45553781D01*
X59177287Y-45577023D01*
X59169215Y-45599582D01*
X59158971Y-45621242D01*
X59146653Y-45641792D01*
X59132381Y-45661037D01*
X59116290Y-45678790D01*
X59098537Y-45694881D01*
X59079292Y-45709153D01*
X59058742Y-45721471D01*
X59037082Y-45731715D01*
X59014523Y-45739787D01*
X58991281Y-45745609D01*
X58967581Y-45749124D01*
X58943650Y-45750300D01*
X58455350Y-45750300D01*
X58431419Y-45749124D01*
X58407719Y-45745609D01*
X58384477Y-45739787D01*
X58361918Y-45731715D01*
X58340258Y-45721471D01*
X58319708Y-45709153D01*
X58300463Y-45694881D01*
X58282710Y-45678790D01*
X58266619Y-45661037D01*
X58252347Y-45641792D01*
X58240029Y-45621242D01*
X58229785Y-45599582D01*
X58221713Y-45577023D01*
X58215891Y-45553781D01*
X58212376Y-45530081D01*
X58211200Y-45506150D01*
X58211200Y-44942850D01*
X58212376Y-44918919D01*
X58215891Y-44895219D01*
X58221713Y-44871977D01*
X58229785Y-44849418D01*
X58240029Y-44827758D01*
X58252347Y-44807208D01*
X58266619Y-44787963D01*
X58282710Y-44770210D01*
X58300463Y-44754119D01*
X58319708Y-44739847D01*
X58340258Y-44727529D01*
X58361918Y-44717285D01*
X58384477Y-44709213D01*
X58407719Y-44703391D01*
X58431419Y-44699876D01*
X58455350Y-44698700D01*
X58943650Y-44698700D01*
X58967581Y-44699876D01*
G37*
G36*
X61214581Y-35809376D02*
G01*
X61238281Y-35812891D01*
X61261523Y-35818713D01*
X61284082Y-35826785D01*
X61305742Y-35837029D01*
X61326292Y-35849347D01*
X61345537Y-35863619D01*
X61363290Y-35879710D01*
X61379381Y-35897463D01*
X61393653Y-35916708D01*
X61405971Y-35937258D01*
X61416215Y-35958918D01*
X61424287Y-35981477D01*
X61430109Y-36004719D01*
X61433624Y-36028419D01*
X61434800Y-36052350D01*
X61434800Y-36540650D01*
X61433624Y-36564581D01*
X61430109Y-36588281D01*
X61424287Y-36611523D01*
X61416215Y-36634082D01*
X61405971Y-36655742D01*
X61393653Y-36676292D01*
X61379381Y-36695537D01*
X61363290Y-36713290D01*
X61345537Y-36729381D01*
X61326292Y-36743653D01*
X61305742Y-36755971D01*
X61284082Y-36766215D01*
X61261523Y-36774287D01*
X61238281Y-36780109D01*
X61214581Y-36783624D01*
X61190650Y-36784800D01*
X60627350Y-36784800D01*
X60603419Y-36783624D01*
X60579719Y-36780109D01*
X60556477Y-36774287D01*
X60533918Y-36766215D01*
X60512258Y-36755971D01*
X60491708Y-36743653D01*
X60472463Y-36729381D01*
X60454710Y-36713290D01*
X60438619Y-36695537D01*
X60424347Y-36676292D01*
X60412029Y-36655742D01*
X60401785Y-36634082D01*
X60393713Y-36611523D01*
X60387891Y-36588281D01*
X60384376Y-36564581D01*
X60383200Y-36540650D01*
X60383200Y-36052350D01*
X60384376Y-36028419D01*
X60387891Y-36004719D01*
X60393713Y-35981477D01*
X60401785Y-35958918D01*
X60412029Y-35937258D01*
X60424347Y-35916708D01*
X60438619Y-35897463D01*
X60454710Y-35879710D01*
X60472463Y-35863619D01*
X60491708Y-35849347D01*
X60512258Y-35837029D01*
X60533918Y-35826785D01*
X60556477Y-35818713D01*
X60579719Y-35812891D01*
X60603419Y-35809376D01*
X60627350Y-35808200D01*
X61190650Y-35808200D01*
X61214581Y-35809376D01*
G37*
G36*
X61214581Y-37384376D02*
G01*
X61238281Y-37387891D01*
X61261523Y-37393713D01*
X61284082Y-37401785D01*
X61305742Y-37412029D01*
X61326292Y-37424347D01*
X61345537Y-37438619D01*
X61363290Y-37454710D01*
X61379381Y-37472463D01*
X61393653Y-37491708D01*
X61405971Y-37512258D01*
X61416215Y-37533918D01*
X61424287Y-37556477D01*
X61430109Y-37579719D01*
X61433624Y-37603419D01*
X61434800Y-37627350D01*
X61434800Y-38115650D01*
X61433624Y-38139581D01*
X61430109Y-38163281D01*
X61424287Y-38186523D01*
X61416215Y-38209082D01*
X61405971Y-38230742D01*
X61393653Y-38251292D01*
X61379381Y-38270537D01*
X61363290Y-38288290D01*
X61345537Y-38304381D01*
X61326292Y-38318653D01*
X61305742Y-38330971D01*
X61284082Y-38341215D01*
X61261523Y-38349287D01*
X61238281Y-38355109D01*
X61214581Y-38358624D01*
X61190650Y-38359800D01*
X60627350Y-38359800D01*
X60603419Y-38358624D01*
X60579719Y-38355109D01*
X60556477Y-38349287D01*
X60533918Y-38341215D01*
X60512258Y-38330971D01*
X60491708Y-38318653D01*
X60472463Y-38304381D01*
X60454710Y-38288290D01*
X60438619Y-38270537D01*
X60424347Y-38251292D01*
X60412029Y-38230742D01*
X60401785Y-38209082D01*
X60393713Y-38186523D01*
X60387891Y-38163281D01*
X60384376Y-38139581D01*
X60383200Y-38115650D01*
X60383200Y-37627350D01*
X60384376Y-37603419D01*
X60387891Y-37579719D01*
X60393713Y-37556477D01*
X60401785Y-37533918D01*
X60412029Y-37512258D01*
X60424347Y-37491708D01*
X60438619Y-37472463D01*
X60454710Y-37454710D01*
X60472463Y-37438619D01*
X60491708Y-37424347D01*
X60512258Y-37412029D01*
X60533918Y-37401785D01*
X60556477Y-37393713D01*
X60579719Y-37387891D01*
X60603419Y-37384376D01*
X60627350Y-37383200D01*
X61190650Y-37383200D01*
X61214581Y-37384376D01*
G37*
G36*
X57392581Y-43226876D02*
G01*
X57416281Y-43230391D01*
X57439523Y-43236213D01*
X57462082Y-43244285D01*
X57483742Y-43254529D01*
X57504292Y-43266847D01*
X57523537Y-43281119D01*
X57541290Y-43297210D01*
X57557381Y-43314963D01*
X57571653Y-43334208D01*
X57583971Y-43354758D01*
X57594215Y-43376418D01*
X57602287Y-43398977D01*
X57608109Y-43422219D01*
X57611624Y-43445919D01*
X57612800Y-43469850D01*
X57612800Y-44033150D01*
X57611624Y-44057081D01*
X57608109Y-44080781D01*
X57602287Y-44104023D01*
X57594215Y-44126582D01*
X57583971Y-44148242D01*
X57571653Y-44168792D01*
X57557381Y-44188037D01*
X57541290Y-44205790D01*
X57523537Y-44221881D01*
X57504292Y-44236153D01*
X57483742Y-44248471D01*
X57462082Y-44258715D01*
X57439523Y-44266787D01*
X57416281Y-44272609D01*
X57392581Y-44276124D01*
X57368650Y-44277300D01*
X56880350Y-44277300D01*
X56856419Y-44276124D01*
X56832719Y-44272609D01*
X56809477Y-44266787D01*
X56786918Y-44258715D01*
X56765258Y-44248471D01*
X56744708Y-44236153D01*
X56725463Y-44221881D01*
X56707710Y-44205790D01*
X56691619Y-44188037D01*
X56677347Y-44168792D01*
X56665029Y-44148242D01*
X56654785Y-44126582D01*
X56646713Y-44104023D01*
X56640891Y-44080781D01*
X56637376Y-44057081D01*
X56636200Y-44033150D01*
X56636200Y-43469850D01*
X56637376Y-43445919D01*
X56640891Y-43422219D01*
X56646713Y-43398977D01*
X56654785Y-43376418D01*
X56665029Y-43354758D01*
X56677347Y-43334208D01*
X56691619Y-43314963D01*
X56707710Y-43297210D01*
X56725463Y-43281119D01*
X56744708Y-43266847D01*
X56765258Y-43254529D01*
X56786918Y-43244285D01*
X56809477Y-43236213D01*
X56832719Y-43230391D01*
X56856419Y-43226876D01*
X56880350Y-43225700D01*
X57368650Y-43225700D01*
X57392581Y-43226876D01*
G37*
G36*
X58967581Y-43226876D02*
G01*
X58991281Y-43230391D01*
X59014523Y-43236213D01*
X59037082Y-43244285D01*
X59058742Y-43254529D01*
X59079292Y-43266847D01*
X59098537Y-43281119D01*
X59116290Y-43297210D01*
X59132381Y-43314963D01*
X59146653Y-43334208D01*
X59158971Y-43354758D01*
X59169215Y-43376418D01*
X59177287Y-43398977D01*
X59183109Y-43422219D01*
X59186624Y-43445919D01*
X59187800Y-43469850D01*
X59187800Y-44033150D01*
X59186624Y-44057081D01*
X59183109Y-44080781D01*
X59177287Y-44104023D01*
X59169215Y-44126582D01*
X59158971Y-44148242D01*
X59146653Y-44168792D01*
X59132381Y-44188037D01*
X59116290Y-44205790D01*
X59098537Y-44221881D01*
X59079292Y-44236153D01*
X59058742Y-44248471D01*
X59037082Y-44258715D01*
X59014523Y-44266787D01*
X58991281Y-44272609D01*
X58967581Y-44276124D01*
X58943650Y-44277300D01*
X58455350Y-44277300D01*
X58431419Y-44276124D01*
X58407719Y-44272609D01*
X58384477Y-44266787D01*
X58361918Y-44258715D01*
X58340258Y-44248471D01*
X58319708Y-44236153D01*
X58300463Y-44221881D01*
X58282710Y-44205790D01*
X58266619Y-44188037D01*
X58252347Y-44168792D01*
X58240029Y-44148242D01*
X58229785Y-44126582D01*
X58221713Y-44104023D01*
X58215891Y-44080781D01*
X58212376Y-44057081D01*
X58211200Y-44033150D01*
X58211200Y-43469850D01*
X58212376Y-43445919D01*
X58215891Y-43422219D01*
X58221713Y-43398977D01*
X58229785Y-43376418D01*
X58240029Y-43354758D01*
X58252347Y-43334208D01*
X58266619Y-43314963D01*
X58282710Y-43297210D01*
X58300463Y-43281119D01*
X58319708Y-43266847D01*
X58340258Y-43254529D01*
X58361918Y-43244285D01*
X58384477Y-43236213D01*
X58407719Y-43230391D01*
X58431419Y-43226876D01*
X58455350Y-43225700D01*
X58943650Y-43225700D01*
X58967581Y-43226876D01*
G37*
G36*
X63246581Y-50782876D02*
G01*
X63270281Y-50786391D01*
X63293523Y-50792213D01*
X63316082Y-50800285D01*
X63337742Y-50810529D01*
X63358292Y-50822847D01*
X63377537Y-50837119D01*
X63395290Y-50853210D01*
X63411381Y-50870963D01*
X63425653Y-50890208D01*
X63437971Y-50910758D01*
X63448215Y-50932418D01*
X63456287Y-50954977D01*
X63462109Y-50978219D01*
X63465624Y-51001919D01*
X63466800Y-51025850D01*
X63466800Y-51514150D01*
X63465624Y-51538081D01*
X63462109Y-51561781D01*
X63456287Y-51585023D01*
X63448215Y-51607582D01*
X63437971Y-51629242D01*
X63425653Y-51649792D01*
X63411381Y-51669037D01*
X63395290Y-51686790D01*
X63377537Y-51702881D01*
X63358292Y-51717153D01*
X63337742Y-51729471D01*
X63316082Y-51739715D01*
X63293523Y-51747787D01*
X63270281Y-51753609D01*
X63246581Y-51757124D01*
X63222650Y-51758300D01*
X62659350Y-51758300D01*
X62635419Y-51757124D01*
X62611719Y-51753609D01*
X62588477Y-51747787D01*
X62565918Y-51739715D01*
X62544258Y-51729471D01*
X62523708Y-51717153D01*
X62504463Y-51702881D01*
X62486710Y-51686790D01*
X62470619Y-51669037D01*
X62456347Y-51649792D01*
X62444029Y-51629242D01*
X62433785Y-51607582D01*
X62425713Y-51585023D01*
X62419891Y-51561781D01*
X62416376Y-51538081D01*
X62415200Y-51514150D01*
X62415200Y-51025850D01*
X62416376Y-51001919D01*
X62419891Y-50978219D01*
X62425713Y-50954977D01*
X62433785Y-50932418D01*
X62444029Y-50910758D01*
X62456347Y-50890208D01*
X62470619Y-50870963D01*
X62486710Y-50853210D01*
X62504463Y-50837119D01*
X62523708Y-50822847D01*
X62544258Y-50810529D01*
X62565918Y-50800285D01*
X62588477Y-50792213D01*
X62611719Y-50786391D01*
X62635419Y-50782876D01*
X62659350Y-50781700D01*
X63222650Y-50781700D01*
X63246581Y-50782876D01*
G37*
G36*
X63246581Y-49207876D02*
G01*
X63270281Y-49211391D01*
X63293523Y-49217213D01*
X63316082Y-49225285D01*
X63337742Y-49235529D01*
X63358292Y-49247847D01*
X63377537Y-49262119D01*
X63395290Y-49278210D01*
X63411381Y-49295963D01*
X63425653Y-49315208D01*
X63437971Y-49335758D01*
X63448215Y-49357418D01*
X63456287Y-49379977D01*
X63462109Y-49403219D01*
X63465624Y-49426919D01*
X63466800Y-49450850D01*
X63466800Y-49939150D01*
X63465624Y-49963081D01*
X63462109Y-49986781D01*
X63456287Y-50010023D01*
X63448215Y-50032582D01*
X63437971Y-50054242D01*
X63425653Y-50074792D01*
X63411381Y-50094037D01*
X63395290Y-50111790D01*
X63377537Y-50127881D01*
X63358292Y-50142153D01*
X63337742Y-50154471D01*
X63316082Y-50164715D01*
X63293523Y-50172787D01*
X63270281Y-50178609D01*
X63246581Y-50182124D01*
X63222650Y-50183300D01*
X62659350Y-50183300D01*
X62635419Y-50182124D01*
X62611719Y-50178609D01*
X62588477Y-50172787D01*
X62565918Y-50164715D01*
X62544258Y-50154471D01*
X62523708Y-50142153D01*
X62504463Y-50127881D01*
X62486710Y-50111790D01*
X62470619Y-50094037D01*
X62456347Y-50074792D01*
X62444029Y-50054242D01*
X62433785Y-50032582D01*
X62425713Y-50010023D01*
X62419891Y-49986781D01*
X62416376Y-49963081D01*
X62415200Y-49939150D01*
X62415200Y-49450850D01*
X62416376Y-49426919D01*
X62419891Y-49403219D01*
X62425713Y-49379977D01*
X62433785Y-49357418D01*
X62444029Y-49335758D01*
X62456347Y-49315208D01*
X62470619Y-49295963D01*
X62486710Y-49278210D01*
X62504463Y-49262119D01*
X62523708Y-49247847D01*
X62544258Y-49235529D01*
X62565918Y-49225285D01*
X62588477Y-49217213D01*
X62611719Y-49211391D01*
X62635419Y-49207876D01*
X62659350Y-49206700D01*
X63222650Y-49206700D01*
X63246581Y-49207876D01*
G37*
G36*
X64758081Y-50782876D02*
G01*
X64781781Y-50786391D01*
X64805023Y-50792213D01*
X64827582Y-50800285D01*
X64849242Y-50810529D01*
X64869792Y-50822847D01*
X64889037Y-50837119D01*
X64906790Y-50853210D01*
X64922881Y-50870963D01*
X64937153Y-50890208D01*
X64949471Y-50910758D01*
X64959715Y-50932418D01*
X64967787Y-50954977D01*
X64973609Y-50978219D01*
X64977124Y-51001919D01*
X64978300Y-51025850D01*
X64978300Y-51514150D01*
X64977124Y-51538081D01*
X64973609Y-51561781D01*
X64967787Y-51585023D01*
X64959715Y-51607582D01*
X64949471Y-51629242D01*
X64937153Y-51649792D01*
X64922881Y-51669037D01*
X64906790Y-51686790D01*
X64889037Y-51702881D01*
X64869792Y-51717153D01*
X64849242Y-51729471D01*
X64827582Y-51739715D01*
X64805023Y-51747787D01*
X64781781Y-51753609D01*
X64758081Y-51757124D01*
X64734150Y-51758300D01*
X64170850Y-51758300D01*
X64146919Y-51757124D01*
X64123219Y-51753609D01*
X64099977Y-51747787D01*
X64077418Y-51739715D01*
X64055758Y-51729471D01*
X64035208Y-51717153D01*
X64015963Y-51702881D01*
X63998210Y-51686790D01*
X63982119Y-51669037D01*
X63967847Y-51649792D01*
X63955529Y-51629242D01*
X63945285Y-51607582D01*
X63937213Y-51585023D01*
X63931391Y-51561781D01*
X63927876Y-51538081D01*
X63926700Y-51514150D01*
X63926700Y-51025850D01*
X63927876Y-51001919D01*
X63931391Y-50978219D01*
X63937213Y-50954977D01*
X63945285Y-50932418D01*
X63955529Y-50910758D01*
X63967847Y-50890208D01*
X63982119Y-50870963D01*
X63998210Y-50853210D01*
X64015963Y-50837119D01*
X64035208Y-50822847D01*
X64055758Y-50810529D01*
X64077418Y-50800285D01*
X64099977Y-50792213D01*
X64123219Y-50786391D01*
X64146919Y-50782876D01*
X64170850Y-50781700D01*
X64734150Y-50781700D01*
X64758081Y-50782876D01*
G37*
G36*
X64758081Y-49207876D02*
G01*
X64781781Y-49211391D01*
X64805023Y-49217213D01*
X64827582Y-49225285D01*
X64849242Y-49235529D01*
X64869792Y-49247847D01*
X64889037Y-49262119D01*
X64906790Y-49278210D01*
X64922881Y-49295963D01*
X64937153Y-49315208D01*
X64949471Y-49335758D01*
X64959715Y-49357418D01*
X64967787Y-49379977D01*
X64973609Y-49403219D01*
X64977124Y-49426919D01*
X64978300Y-49450850D01*
X64978300Y-49939150D01*
X64977124Y-49963081D01*
X64973609Y-49986781D01*
X64967787Y-50010023D01*
X64959715Y-50032582D01*
X64949471Y-50054242D01*
X64937153Y-50074792D01*
X64922881Y-50094037D01*
X64906790Y-50111790D01*
X64889037Y-50127881D01*
X64869792Y-50142153D01*
X64849242Y-50154471D01*
X64827582Y-50164715D01*
X64805023Y-50172787D01*
X64781781Y-50178609D01*
X64758081Y-50182124D01*
X64734150Y-50183300D01*
X64170850Y-50183300D01*
X64146919Y-50182124D01*
X64123219Y-50178609D01*
X64099977Y-50172787D01*
X64077418Y-50164715D01*
X64055758Y-50154471D01*
X64035208Y-50142153D01*
X64015963Y-50127881D01*
X63998210Y-50111790D01*
X63982119Y-50094037D01*
X63967847Y-50074792D01*
X63955529Y-50054242D01*
X63945285Y-50032582D01*
X63937213Y-50010023D01*
X63931391Y-49986781D01*
X63927876Y-49963081D01*
X63926700Y-49939150D01*
X63926700Y-49450850D01*
X63927876Y-49426919D01*
X63931391Y-49403219D01*
X63937213Y-49379977D01*
X63945285Y-49357418D01*
X63955529Y-49335758D01*
X63967847Y-49315208D01*
X63982119Y-49295963D01*
X63998210Y-49278210D01*
X64015963Y-49262119D01*
X64035208Y-49247847D01*
X64055758Y-49235529D01*
X64077418Y-49225285D01*
X64099977Y-49217213D01*
X64123219Y-49211391D01*
X64146919Y-49207876D01*
X64170850Y-49206700D01*
X64734150Y-49206700D01*
X64758081Y-49207876D01*
G37*
G36*
X66231081Y-50782876D02*
G01*
X66254781Y-50786391D01*
X66278023Y-50792213D01*
X66300582Y-50800285D01*
X66322242Y-50810529D01*
X66342792Y-50822847D01*
X66362037Y-50837119D01*
X66379790Y-50853210D01*
X66395881Y-50870963D01*
X66410153Y-50890208D01*
X66422471Y-50910758D01*
X66432715Y-50932418D01*
X66440787Y-50954977D01*
X66446609Y-50978219D01*
X66450124Y-51001919D01*
X66451300Y-51025850D01*
X66451300Y-51514150D01*
X66450124Y-51538081D01*
X66446609Y-51561781D01*
X66440787Y-51585023D01*
X66432715Y-51607582D01*
X66422471Y-51629242D01*
X66410153Y-51649792D01*
X66395881Y-51669037D01*
X66379790Y-51686790D01*
X66362037Y-51702881D01*
X66342792Y-51717153D01*
X66322242Y-51729471D01*
X66300582Y-51739715D01*
X66278023Y-51747787D01*
X66254781Y-51753609D01*
X66231081Y-51757124D01*
X66207150Y-51758300D01*
X65643850Y-51758300D01*
X65619919Y-51757124D01*
X65596219Y-51753609D01*
X65572977Y-51747787D01*
X65550418Y-51739715D01*
X65528758Y-51729471D01*
X65508208Y-51717153D01*
X65488963Y-51702881D01*
X65471210Y-51686790D01*
X65455119Y-51669037D01*
X65440847Y-51649792D01*
X65428529Y-51629242D01*
X65418285Y-51607582D01*
X65410213Y-51585023D01*
X65404391Y-51561781D01*
X65400876Y-51538081D01*
X65399700Y-51514150D01*
X65399700Y-51025850D01*
X65400876Y-51001919D01*
X65404391Y-50978219D01*
X65410213Y-50954977D01*
X65418285Y-50932418D01*
X65428529Y-50910758D01*
X65440847Y-50890208D01*
X65455119Y-50870963D01*
X65471210Y-50853210D01*
X65488963Y-50837119D01*
X65508208Y-50822847D01*
X65528758Y-50810529D01*
X65550418Y-50800285D01*
X65572977Y-50792213D01*
X65596219Y-50786391D01*
X65619919Y-50782876D01*
X65643850Y-50781700D01*
X66207150Y-50781700D01*
X66231081Y-50782876D01*
G37*
G36*
X66231081Y-49207876D02*
G01*
X66254781Y-49211391D01*
X66278023Y-49217213D01*
X66300582Y-49225285D01*
X66322242Y-49235529D01*
X66342792Y-49247847D01*
X66362037Y-49262119D01*
X66379790Y-49278210D01*
X66395881Y-49295963D01*
X66410153Y-49315208D01*
X66422471Y-49335758D01*
X66432715Y-49357418D01*
X66440787Y-49379977D01*
X66446609Y-49403219D01*
X66450124Y-49426919D01*
X66451300Y-49450850D01*
X66451300Y-49939150D01*
X66450124Y-49963081D01*
X66446609Y-49986781D01*
X66440787Y-50010023D01*
X66432715Y-50032582D01*
X66422471Y-50054242D01*
X66410153Y-50074792D01*
X66395881Y-50094037D01*
X66379790Y-50111790D01*
X66362037Y-50127881D01*
X66342792Y-50142153D01*
X66322242Y-50154471D01*
X66300582Y-50164715D01*
X66278023Y-50172787D01*
X66254781Y-50178609D01*
X66231081Y-50182124D01*
X66207150Y-50183300D01*
X65643850Y-50183300D01*
X65619919Y-50182124D01*
X65596219Y-50178609D01*
X65572977Y-50172787D01*
X65550418Y-50164715D01*
X65528758Y-50154471D01*
X65508208Y-50142153D01*
X65488963Y-50127881D01*
X65471210Y-50111790D01*
X65455119Y-50094037D01*
X65440847Y-50074792D01*
X65428529Y-50054242D01*
X65418285Y-50032582D01*
X65410213Y-50010023D01*
X65404391Y-49986781D01*
X65400876Y-49963081D01*
X65399700Y-49939150D01*
X65399700Y-49450850D01*
X65400876Y-49426919D01*
X65404391Y-49403219D01*
X65410213Y-49379977D01*
X65418285Y-49357418D01*
X65428529Y-49335758D01*
X65440847Y-49315208D01*
X65455119Y-49295963D01*
X65471210Y-49278210D01*
X65488963Y-49262119D01*
X65508208Y-49247847D01*
X65528758Y-49235529D01*
X65550418Y-49225285D01*
X65572977Y-49217213D01*
X65596219Y-49211391D01*
X65619919Y-49207876D01*
X65643850Y-49206700D01*
X66207150Y-49206700D01*
X66231081Y-49207876D01*
G37*
G36*
X73953581Y-40877376D02*
G01*
X73977281Y-40880891D01*
X74000523Y-40886713D01*
X74023082Y-40894785D01*
X74044742Y-40905029D01*
X74065292Y-40917347D01*
X74084537Y-40931619D01*
X74102290Y-40947710D01*
X74118381Y-40965463D01*
X74132653Y-40984708D01*
X74144971Y-41005258D01*
X74155215Y-41026918D01*
X74163287Y-41049477D01*
X74169109Y-41072719D01*
X74172624Y-41096419D01*
X74173800Y-41120350D01*
X74173800Y-41683650D01*
X74172624Y-41707581D01*
X74169109Y-41731281D01*
X74163287Y-41754523D01*
X74155215Y-41777082D01*
X74144971Y-41798742D01*
X74132653Y-41819292D01*
X74118381Y-41838537D01*
X74102290Y-41856290D01*
X74084537Y-41872381D01*
X74065292Y-41886653D01*
X74044742Y-41898971D01*
X74023082Y-41909215D01*
X74000523Y-41917287D01*
X73977281Y-41923109D01*
X73953581Y-41926624D01*
X73929650Y-41927800D01*
X73441350Y-41927800D01*
X73417419Y-41926624D01*
X73393719Y-41923109D01*
X73370477Y-41917287D01*
X73347918Y-41909215D01*
X73326258Y-41898971D01*
X73305708Y-41886653D01*
X73286463Y-41872381D01*
X73268710Y-41856290D01*
X73252619Y-41838537D01*
X73238347Y-41819292D01*
X73226029Y-41798742D01*
X73215785Y-41777082D01*
X73207713Y-41754523D01*
X73201891Y-41731281D01*
X73198376Y-41707581D01*
X73197200Y-41683650D01*
X73197200Y-41120350D01*
X73198376Y-41096419D01*
X73201891Y-41072719D01*
X73207713Y-41049477D01*
X73215785Y-41026918D01*
X73226029Y-41005258D01*
X73238347Y-40984708D01*
X73252619Y-40965463D01*
X73268710Y-40947710D01*
X73286463Y-40931619D01*
X73305708Y-40917347D01*
X73326258Y-40905029D01*
X73347918Y-40894785D01*
X73370477Y-40886713D01*
X73393719Y-40880891D01*
X73417419Y-40877376D01*
X73441350Y-40876200D01*
X73929650Y-40876200D01*
X73953581Y-40877376D01*
G37*
G36*
X72378581Y-40877376D02*
G01*
X72402281Y-40880891D01*
X72425523Y-40886713D01*
X72448082Y-40894785D01*
X72469742Y-40905029D01*
X72490292Y-40917347D01*
X72509537Y-40931619D01*
X72527290Y-40947710D01*
X72543381Y-40965463D01*
X72557653Y-40984708D01*
X72569971Y-41005258D01*
X72580215Y-41026918D01*
X72588287Y-41049477D01*
X72594109Y-41072719D01*
X72597624Y-41096419D01*
X72598800Y-41120350D01*
X72598800Y-41683650D01*
X72597624Y-41707581D01*
X72594109Y-41731281D01*
X72588287Y-41754523D01*
X72580215Y-41777082D01*
X72569971Y-41798742D01*
X72557653Y-41819292D01*
X72543381Y-41838537D01*
X72527290Y-41856290D01*
X72509537Y-41872381D01*
X72490292Y-41886653D01*
X72469742Y-41898971D01*
X72448082Y-41909215D01*
X72425523Y-41917287D01*
X72402281Y-41923109D01*
X72378581Y-41926624D01*
X72354650Y-41927800D01*
X71866350Y-41927800D01*
X71842419Y-41926624D01*
X71818719Y-41923109D01*
X71795477Y-41917287D01*
X71772918Y-41909215D01*
X71751258Y-41898971D01*
X71730708Y-41886653D01*
X71711463Y-41872381D01*
X71693710Y-41856290D01*
X71677619Y-41838537D01*
X71663347Y-41819292D01*
X71651029Y-41798742D01*
X71640785Y-41777082D01*
X71632713Y-41754523D01*
X71626891Y-41731281D01*
X71623376Y-41707581D01*
X71622200Y-41683650D01*
X71622200Y-41120350D01*
X71623376Y-41096419D01*
X71626891Y-41072719D01*
X71632713Y-41049477D01*
X71640785Y-41026918D01*
X71651029Y-41005258D01*
X71663347Y-40984708D01*
X71677619Y-40965463D01*
X71693710Y-40947710D01*
X71711463Y-40931619D01*
X71730708Y-40917347D01*
X71751258Y-40905029D01*
X71772918Y-40894785D01*
X71795477Y-40886713D01*
X71818719Y-40880891D01*
X71842419Y-40877376D01*
X71866350Y-40876200D01*
X72354650Y-40876200D01*
X72378581Y-40877376D01*
G37*
G36*
X73953581Y-42401376D02*
G01*
X73977281Y-42404891D01*
X74000523Y-42410713D01*
X74023082Y-42418785D01*
X74044742Y-42429029D01*
X74065292Y-42441347D01*
X74084537Y-42455619D01*
X74102290Y-42471710D01*
X74118381Y-42489463D01*
X74132653Y-42508708D01*
X74144971Y-42529258D01*
X74155215Y-42550918D01*
X74163287Y-42573477D01*
X74169109Y-42596719D01*
X74172624Y-42620419D01*
X74173800Y-42644350D01*
X74173800Y-43207650D01*
X74172624Y-43231581D01*
X74169109Y-43255281D01*
X74163287Y-43278523D01*
X74155215Y-43301082D01*
X74144971Y-43322742D01*
X74132653Y-43343292D01*
X74118381Y-43362537D01*
X74102290Y-43380290D01*
X74084537Y-43396381D01*
X74065292Y-43410653D01*
X74044742Y-43422971D01*
X74023082Y-43433215D01*
X74000523Y-43441287D01*
X73977281Y-43447109D01*
X73953581Y-43450624D01*
X73929650Y-43451800D01*
X73441350Y-43451800D01*
X73417419Y-43450624D01*
X73393719Y-43447109D01*
X73370477Y-43441287D01*
X73347918Y-43433215D01*
X73326258Y-43422971D01*
X73305708Y-43410653D01*
X73286463Y-43396381D01*
X73268710Y-43380290D01*
X73252619Y-43362537D01*
X73238347Y-43343292D01*
X73226029Y-43322742D01*
X73215785Y-43301082D01*
X73207713Y-43278523D01*
X73201891Y-43255281D01*
X73198376Y-43231581D01*
X73197200Y-43207650D01*
X73197200Y-42644350D01*
X73198376Y-42620419D01*
X73201891Y-42596719D01*
X73207713Y-42573477D01*
X73215785Y-42550918D01*
X73226029Y-42529258D01*
X73238347Y-42508708D01*
X73252619Y-42489463D01*
X73268710Y-42471710D01*
X73286463Y-42455619D01*
X73305708Y-42441347D01*
X73326258Y-42429029D01*
X73347918Y-42418785D01*
X73370477Y-42410713D01*
X73393719Y-42404891D01*
X73417419Y-42401376D01*
X73441350Y-42400200D01*
X73929650Y-42400200D01*
X73953581Y-42401376D01*
G37*
G36*
X72378581Y-42401376D02*
G01*
X72402281Y-42404891D01*
X72425523Y-42410713D01*
X72448082Y-42418785D01*
X72469742Y-42429029D01*
X72490292Y-42441347D01*
X72509537Y-42455619D01*
X72527290Y-42471710D01*
X72543381Y-42489463D01*
X72557653Y-42508708D01*
X72569971Y-42529258D01*
X72580215Y-42550918D01*
X72588287Y-42573477D01*
X72594109Y-42596719D01*
X72597624Y-42620419D01*
X72598800Y-42644350D01*
X72598800Y-43207650D01*
X72597624Y-43231581D01*
X72594109Y-43255281D01*
X72588287Y-43278523D01*
X72580215Y-43301082D01*
X72569971Y-43322742D01*
X72557653Y-43343292D01*
X72543381Y-43362537D01*
X72527290Y-43380290D01*
X72509537Y-43396381D01*
X72490292Y-43410653D01*
X72469742Y-43422971D01*
X72448082Y-43433215D01*
X72425523Y-43441287D01*
X72402281Y-43447109D01*
X72378581Y-43450624D01*
X72354650Y-43451800D01*
X71866350Y-43451800D01*
X71842419Y-43450624D01*
X71818719Y-43447109D01*
X71795477Y-43441287D01*
X71772918Y-43433215D01*
X71751258Y-43422971D01*
X71730708Y-43410653D01*
X71711463Y-43396381D01*
X71693710Y-43380290D01*
X71677619Y-43362537D01*
X71663347Y-43343292D01*
X71651029Y-43322742D01*
X71640785Y-43301082D01*
X71632713Y-43278523D01*
X71626891Y-43255281D01*
X71623376Y-43231581D01*
X71622200Y-43207650D01*
X71622200Y-42644350D01*
X71623376Y-42620419D01*
X71626891Y-42596719D01*
X71632713Y-42573477D01*
X71640785Y-42550918D01*
X71651029Y-42529258D01*
X71663347Y-42508708D01*
X71677619Y-42489463D01*
X71693710Y-42471710D01*
X71711463Y-42455619D01*
X71730708Y-42441347D01*
X71751258Y-42429029D01*
X71772918Y-42418785D01*
X71795477Y-42410713D01*
X71818719Y-42404891D01*
X71842419Y-42401376D01*
X71866350Y-42400200D01*
X72354650Y-42400200D01*
X72378581Y-42401376D01*
G37*
G36*
X70917581Y-40889376D02*
G01*
X70941281Y-40892891D01*
X70964523Y-40898713D01*
X70987082Y-40906785D01*
X71008742Y-40917029D01*
X71029292Y-40929347D01*
X71048537Y-40943619D01*
X71066290Y-40959710D01*
X71082381Y-40977463D01*
X71096653Y-40996708D01*
X71108971Y-41017258D01*
X71119215Y-41038918D01*
X71127287Y-41061477D01*
X71133109Y-41084719D01*
X71136624Y-41108419D01*
X71137800Y-41132350D01*
X71137800Y-41620650D01*
X71136624Y-41644581D01*
X71133109Y-41668281D01*
X71127287Y-41691523D01*
X71119215Y-41714082D01*
X71108971Y-41735742D01*
X71096653Y-41756292D01*
X71082381Y-41775537D01*
X71066290Y-41793290D01*
X71048537Y-41809381D01*
X71029292Y-41823653D01*
X71008742Y-41835971D01*
X70987082Y-41846215D01*
X70964523Y-41854287D01*
X70941281Y-41860109D01*
X70917581Y-41863624D01*
X70893650Y-41864800D01*
X70330350Y-41864800D01*
X70306419Y-41863624D01*
X70282719Y-41860109D01*
X70259477Y-41854287D01*
X70236918Y-41846215D01*
X70215258Y-41835971D01*
X70194708Y-41823653D01*
X70175463Y-41809381D01*
X70157710Y-41793290D01*
X70141619Y-41775537D01*
X70127347Y-41756292D01*
X70115029Y-41735742D01*
X70104785Y-41714082D01*
X70096713Y-41691523D01*
X70090891Y-41668281D01*
X70087376Y-41644581D01*
X70086200Y-41620650D01*
X70086200Y-41132350D01*
X70087376Y-41108419D01*
X70090891Y-41084719D01*
X70096713Y-41061477D01*
X70104785Y-41038918D01*
X70115029Y-41017258D01*
X70127347Y-40996708D01*
X70141619Y-40977463D01*
X70157710Y-40959710D01*
X70175463Y-40943619D01*
X70194708Y-40929347D01*
X70215258Y-40917029D01*
X70236918Y-40906785D01*
X70259477Y-40898713D01*
X70282719Y-40892891D01*
X70306419Y-40889376D01*
X70330350Y-40888200D01*
X70893650Y-40888200D01*
X70917581Y-40889376D01*
G37*
G36*
X70917581Y-42464376D02*
G01*
X70941281Y-42467891D01*
X70964523Y-42473713D01*
X70987082Y-42481785D01*
X71008742Y-42492029D01*
X71029292Y-42504347D01*
X71048537Y-42518619D01*
X71066290Y-42534710D01*
X71082381Y-42552463D01*
X71096653Y-42571708D01*
X71108971Y-42592258D01*
X71119215Y-42613918D01*
X71127287Y-42636477D01*
X71133109Y-42659719D01*
X71136624Y-42683419D01*
X71137800Y-42707350D01*
X71137800Y-43195650D01*
X71136624Y-43219581D01*
X71133109Y-43243281D01*
X71127287Y-43266523D01*
X71119215Y-43289082D01*
X71108971Y-43310742D01*
X71096653Y-43331292D01*
X71082381Y-43350537D01*
X71066290Y-43368290D01*
X71048537Y-43384381D01*
X71029292Y-43398653D01*
X71008742Y-43410971D01*
X70987082Y-43421215D01*
X70964523Y-43429287D01*
X70941281Y-43435109D01*
X70917581Y-43438624D01*
X70893650Y-43439800D01*
X70330350Y-43439800D01*
X70306419Y-43438624D01*
X70282719Y-43435109D01*
X70259477Y-43429287D01*
X70236918Y-43421215D01*
X70215258Y-43410971D01*
X70194708Y-43398653D01*
X70175463Y-43384381D01*
X70157710Y-43368290D01*
X70141619Y-43350537D01*
X70127347Y-43331292D01*
X70115029Y-43310742D01*
X70104785Y-43289082D01*
X70096713Y-43266523D01*
X70090891Y-43243281D01*
X70087376Y-43219581D01*
X70086200Y-43195650D01*
X70086200Y-42707350D01*
X70087376Y-42683419D01*
X70090891Y-42659719D01*
X70096713Y-42636477D01*
X70104785Y-42613918D01*
X70115029Y-42592258D01*
X70127347Y-42571708D01*
X70141619Y-42552463D01*
X70157710Y-42534710D01*
X70175463Y-42518619D01*
X70194708Y-42504347D01*
X70215258Y-42492029D01*
X70236918Y-42481785D01*
X70259477Y-42473713D01*
X70282719Y-42467891D01*
X70306419Y-42464376D01*
X70330350Y-42463200D01*
X70893650Y-42463200D01*
X70917581Y-42464376D01*
G37*
G36*
X57392581Y-40750376D02*
G01*
X57416281Y-40753891D01*
X57439523Y-40759713D01*
X57462082Y-40767785D01*
X57483742Y-40778029D01*
X57504292Y-40790347D01*
X57523537Y-40804619D01*
X57541290Y-40820710D01*
X57557381Y-40838463D01*
X57571653Y-40857708D01*
X57583971Y-40878258D01*
X57594215Y-40899918D01*
X57602287Y-40922477D01*
X57608109Y-40945719D01*
X57611624Y-40969419D01*
X57612800Y-40993350D01*
X57612800Y-41556650D01*
X57611624Y-41580581D01*
X57608109Y-41604281D01*
X57602287Y-41627523D01*
X57594215Y-41650082D01*
X57583971Y-41671742D01*
X57571653Y-41692292D01*
X57557381Y-41711537D01*
X57541290Y-41729290D01*
X57523537Y-41745381D01*
X57504292Y-41759653D01*
X57483742Y-41771971D01*
X57462082Y-41782215D01*
X57439523Y-41790287D01*
X57416281Y-41796109D01*
X57392581Y-41799624D01*
X57368650Y-41800800D01*
X56880350Y-41800800D01*
X56856419Y-41799624D01*
X56832719Y-41796109D01*
X56809477Y-41790287D01*
X56786918Y-41782215D01*
X56765258Y-41771971D01*
X56744708Y-41759653D01*
X56725463Y-41745381D01*
X56707710Y-41729290D01*
X56691619Y-41711537D01*
X56677347Y-41692292D01*
X56665029Y-41671742D01*
X56654785Y-41650082D01*
X56646713Y-41627523D01*
X56640891Y-41604281D01*
X56637376Y-41580581D01*
X56636200Y-41556650D01*
X56636200Y-40993350D01*
X56637376Y-40969419D01*
X56640891Y-40945719D01*
X56646713Y-40922477D01*
X56654785Y-40899918D01*
X56665029Y-40878258D01*
X56677347Y-40857708D01*
X56691619Y-40838463D01*
X56707710Y-40820710D01*
X56725463Y-40804619D01*
X56744708Y-40790347D01*
X56765258Y-40778029D01*
X56786918Y-40767785D01*
X56809477Y-40759713D01*
X56832719Y-40753891D01*
X56856419Y-40750376D01*
X56880350Y-40749200D01*
X57368650Y-40749200D01*
X57392581Y-40750376D01*
G37*
G36*
X58967581Y-40750376D02*
G01*
X58991281Y-40753891D01*
X59014523Y-40759713D01*
X59037082Y-40767785D01*
X59058742Y-40778029D01*
X59079292Y-40790347D01*
X59098537Y-40804619D01*
X59116290Y-40820710D01*
X59132381Y-40838463D01*
X59146653Y-40857708D01*
X59158971Y-40878258D01*
X59169215Y-40899918D01*
X59177287Y-40922477D01*
X59183109Y-40945719D01*
X59186624Y-40969419D01*
X59187800Y-40993350D01*
X59187800Y-41556650D01*
X59186624Y-41580581D01*
X59183109Y-41604281D01*
X59177287Y-41627523D01*
X59169215Y-41650082D01*
X59158971Y-41671742D01*
X59146653Y-41692292D01*
X59132381Y-41711537D01*
X59116290Y-41729290D01*
X59098537Y-41745381D01*
X59079292Y-41759653D01*
X59058742Y-41771971D01*
X59037082Y-41782215D01*
X59014523Y-41790287D01*
X58991281Y-41796109D01*
X58967581Y-41799624D01*
X58943650Y-41800800D01*
X58455350Y-41800800D01*
X58431419Y-41799624D01*
X58407719Y-41796109D01*
X58384477Y-41790287D01*
X58361918Y-41782215D01*
X58340258Y-41771971D01*
X58319708Y-41759653D01*
X58300463Y-41745381D01*
X58282710Y-41729290D01*
X58266619Y-41711537D01*
X58252347Y-41692292D01*
X58240029Y-41671742D01*
X58229785Y-41650082D01*
X58221713Y-41627523D01*
X58215891Y-41604281D01*
X58212376Y-41580581D01*
X58211200Y-41556650D01*
X58211200Y-40993350D01*
X58212376Y-40969419D01*
X58215891Y-40945719D01*
X58221713Y-40922477D01*
X58229785Y-40899918D01*
X58240029Y-40878258D01*
X58252347Y-40857708D01*
X58266619Y-40838463D01*
X58282710Y-40820710D01*
X58300463Y-40804619D01*
X58319708Y-40790347D01*
X58340258Y-40778029D01*
X58361918Y-40767785D01*
X58384477Y-40759713D01*
X58407719Y-40753891D01*
X58431419Y-40750376D01*
X58455350Y-40749200D01*
X58943650Y-40749200D01*
X58967581Y-40750376D01*
G37*
G36*
X72391081Y-38781876D02*
G01*
X72414781Y-38785391D01*
X72438023Y-38791213D01*
X72460582Y-38799285D01*
X72482242Y-38809529D01*
X72502792Y-38821847D01*
X72522037Y-38836119D01*
X72539790Y-38852210D01*
X72555881Y-38869963D01*
X72570153Y-38889208D01*
X72582471Y-38909758D01*
X72592715Y-38931418D01*
X72600787Y-38953977D01*
X72606609Y-38977219D01*
X72610124Y-39000919D01*
X72611300Y-39024850D01*
X72611300Y-39588150D01*
X72610124Y-39612081D01*
X72606609Y-39635781D01*
X72600787Y-39659023D01*
X72592715Y-39681582D01*
X72582471Y-39703242D01*
X72570153Y-39723792D01*
X72555881Y-39743037D01*
X72539790Y-39760790D01*
X72522037Y-39776881D01*
X72502792Y-39791153D01*
X72482242Y-39803471D01*
X72460582Y-39813715D01*
X72438023Y-39821787D01*
X72414781Y-39827609D01*
X72391081Y-39831124D01*
X72367150Y-39832300D01*
X71878850Y-39832300D01*
X71854919Y-39831124D01*
X71831219Y-39827609D01*
X71807977Y-39821787D01*
X71785418Y-39813715D01*
X71763758Y-39803471D01*
X71743208Y-39791153D01*
X71723963Y-39776881D01*
X71706210Y-39760790D01*
X71690119Y-39743037D01*
X71675847Y-39723792D01*
X71663529Y-39703242D01*
X71653285Y-39681582D01*
X71645213Y-39659023D01*
X71639391Y-39635781D01*
X71635876Y-39612081D01*
X71634700Y-39588150D01*
X71634700Y-39024850D01*
X71635876Y-39000919D01*
X71639391Y-38977219D01*
X71645213Y-38953977D01*
X71653285Y-38931418D01*
X71663529Y-38909758D01*
X71675847Y-38889208D01*
X71690119Y-38869963D01*
X71706210Y-38852210D01*
X71723963Y-38836119D01*
X71743208Y-38821847D01*
X71763758Y-38809529D01*
X71785418Y-38799285D01*
X71807977Y-38791213D01*
X71831219Y-38785391D01*
X71854919Y-38781876D01*
X71878850Y-38780700D01*
X72367150Y-38780700D01*
X72391081Y-38781876D01*
G37*
G36*
X70816081Y-38781876D02*
G01*
X70839781Y-38785391D01*
X70863023Y-38791213D01*
X70885582Y-38799285D01*
X70907242Y-38809529D01*
X70927792Y-38821847D01*
X70947037Y-38836119D01*
X70964790Y-38852210D01*
X70980881Y-38869963D01*
X70995153Y-38889208D01*
X71007471Y-38909758D01*
X71017715Y-38931418D01*
X71025787Y-38953977D01*
X71031609Y-38977219D01*
X71035124Y-39000919D01*
X71036300Y-39024850D01*
X71036300Y-39588150D01*
X71035124Y-39612081D01*
X71031609Y-39635781D01*
X71025787Y-39659023D01*
X71017715Y-39681582D01*
X71007471Y-39703242D01*
X70995153Y-39723792D01*
X70980881Y-39743037D01*
X70964790Y-39760790D01*
X70947037Y-39776881D01*
X70927792Y-39791153D01*
X70907242Y-39803471D01*
X70885582Y-39813715D01*
X70863023Y-39821787D01*
X70839781Y-39827609D01*
X70816081Y-39831124D01*
X70792150Y-39832300D01*
X70303850Y-39832300D01*
X70279919Y-39831124D01*
X70256219Y-39827609D01*
X70232977Y-39821787D01*
X70210418Y-39813715D01*
X70188758Y-39803471D01*
X70168208Y-39791153D01*
X70148963Y-39776881D01*
X70131210Y-39760790D01*
X70115119Y-39743037D01*
X70100847Y-39723792D01*
X70088529Y-39703242D01*
X70078285Y-39681582D01*
X70070213Y-39659023D01*
X70064391Y-39635781D01*
X70060876Y-39612081D01*
X70059700Y-39588150D01*
X70059700Y-39024850D01*
X70060876Y-39000919D01*
X70064391Y-38977219D01*
X70070213Y-38953977D01*
X70078285Y-38931418D01*
X70088529Y-38909758D01*
X70100847Y-38889208D01*
X70115119Y-38869963D01*
X70131210Y-38852210D01*
X70148963Y-38836119D01*
X70168208Y-38821847D01*
X70188758Y-38809529D01*
X70210418Y-38799285D01*
X70232977Y-38791213D01*
X70256219Y-38785391D01*
X70279919Y-38781876D01*
X70303850Y-38780700D01*
X70792150Y-38780700D01*
X70816081Y-38781876D01*
G37*
G36*
X72391081Y-37257876D02*
G01*
X72414781Y-37261391D01*
X72438023Y-37267213D01*
X72460582Y-37275285D01*
X72482242Y-37285529D01*
X72502792Y-37297847D01*
X72522037Y-37312119D01*
X72539790Y-37328210D01*
X72555881Y-37345963D01*
X72570153Y-37365208D01*
X72582471Y-37385758D01*
X72592715Y-37407418D01*
X72600787Y-37429977D01*
X72606609Y-37453219D01*
X72610124Y-37476919D01*
X72611300Y-37500850D01*
X72611300Y-38064150D01*
X72610124Y-38088081D01*
X72606609Y-38111781D01*
X72600787Y-38135023D01*
X72592715Y-38157582D01*
X72582471Y-38179242D01*
X72570153Y-38199792D01*
X72555881Y-38219037D01*
X72539790Y-38236790D01*
X72522037Y-38252881D01*
X72502792Y-38267153D01*
X72482242Y-38279471D01*
X72460582Y-38289715D01*
X72438023Y-38297787D01*
X72414781Y-38303609D01*
X72391081Y-38307124D01*
X72367150Y-38308300D01*
X71878850Y-38308300D01*
X71854919Y-38307124D01*
X71831219Y-38303609D01*
X71807977Y-38297787D01*
X71785418Y-38289715D01*
X71763758Y-38279471D01*
X71743208Y-38267153D01*
X71723963Y-38252881D01*
X71706210Y-38236790D01*
X71690119Y-38219037D01*
X71675847Y-38199792D01*
X71663529Y-38179242D01*
X71653285Y-38157582D01*
X71645213Y-38135023D01*
X71639391Y-38111781D01*
X71635876Y-38088081D01*
X71634700Y-38064150D01*
X71634700Y-37500850D01*
X71635876Y-37476919D01*
X71639391Y-37453219D01*
X71645213Y-37429977D01*
X71653285Y-37407418D01*
X71663529Y-37385758D01*
X71675847Y-37365208D01*
X71690119Y-37345963D01*
X71706210Y-37328210D01*
X71723963Y-37312119D01*
X71743208Y-37297847D01*
X71763758Y-37285529D01*
X71785418Y-37275285D01*
X71807977Y-37267213D01*
X71831219Y-37261391D01*
X71854919Y-37257876D01*
X71878850Y-37256700D01*
X72367150Y-37256700D01*
X72391081Y-37257876D01*
G37*
G36*
X70816081Y-37257876D02*
G01*
X70839781Y-37261391D01*
X70863023Y-37267213D01*
X70885582Y-37275285D01*
X70907242Y-37285529D01*
X70927792Y-37297847D01*
X70947037Y-37312119D01*
X70964790Y-37328210D01*
X70980881Y-37345963D01*
X70995153Y-37365208D01*
X71007471Y-37385758D01*
X71017715Y-37407418D01*
X71025787Y-37429977D01*
X71031609Y-37453219D01*
X71035124Y-37476919D01*
X71036300Y-37500850D01*
X71036300Y-38064150D01*
X71035124Y-38088081D01*
X71031609Y-38111781D01*
X71025787Y-38135023D01*
X71017715Y-38157582D01*
X71007471Y-38179242D01*
X70995153Y-38199792D01*
X70980881Y-38219037D01*
X70964790Y-38236790D01*
X70947037Y-38252881D01*
X70927792Y-38267153D01*
X70907242Y-38279471D01*
X70885582Y-38289715D01*
X70863023Y-38297787D01*
X70839781Y-38303609D01*
X70816081Y-38307124D01*
X70792150Y-38308300D01*
X70303850Y-38308300D01*
X70279919Y-38307124D01*
X70256219Y-38303609D01*
X70232977Y-38297787D01*
X70210418Y-38289715D01*
X70188758Y-38279471D01*
X70168208Y-38267153D01*
X70148963Y-38252881D01*
X70131210Y-38236790D01*
X70115119Y-38219037D01*
X70100847Y-38199792D01*
X70088529Y-38179242D01*
X70078285Y-38157582D01*
X70070213Y-38135023D01*
X70064391Y-38111781D01*
X70060876Y-38088081D01*
X70059700Y-38064150D01*
X70059700Y-37500850D01*
X70060876Y-37476919D01*
X70064391Y-37453219D01*
X70070213Y-37429977D01*
X70078285Y-37407418D01*
X70088529Y-37385758D01*
X70100847Y-37365208D01*
X70115119Y-37345963D01*
X70131210Y-37328210D01*
X70148963Y-37312119D01*
X70168208Y-37297847D01*
X70188758Y-37285529D01*
X70210418Y-37275285D01*
X70232977Y-37267213D01*
X70256219Y-37261391D01*
X70279919Y-37257876D01*
X70303850Y-37256700D01*
X70792150Y-37256700D01*
X70816081Y-37257876D01*
G37*
D30*
X18650000Y-38550000D03*
D31*
X46850000Y-38550000D03*
X47000000Y-4000000D03*
X11000000Y-4000000D03*
D32*
X14000000Y-6650000D03*
X12000000Y-6650000D03*
X12000000Y-1350000D03*
X10000000Y-1350000D03*
X10000000Y-6650000D03*
X16000000Y-6650000D03*
X18000000Y-6650000D03*
X20000000Y-6650000D03*
X22000000Y-6650000D03*
X24000000Y-6650000D03*
X26000000Y-6650000D03*
X28000000Y-6650000D03*
X30000000Y-6650000D03*
X32000000Y-6650000D03*
X34000000Y-6650000D03*
X36000000Y-6650000D03*
X38000000Y-6650000D03*
X40000000Y-6650000D03*
X42000000Y-6650000D03*
X44000000Y-6650000D03*
X46000000Y-6650000D03*
X48000000Y-6650000D03*
X14000000Y-1350000D03*
X16000000Y-1350000D03*
X18000000Y-1350000D03*
X20000000Y-1350000D03*
X22000000Y-1350000D03*
X24000000Y-1350000D03*
X26000000Y-1350000D03*
X28000000Y-1350000D03*
X30000000Y-1350000D03*
X32000000Y-1350000D03*
X34000000Y-1350000D03*
X36000000Y-1350000D03*
X38000000Y-1350000D03*
X40000000Y-1350000D03*
X42000000Y-1350000D03*
X44000000Y-1350000D03*
X46000000Y-1350000D03*
X48000000Y-1350000D03*
M02*
