G04 #@! TF.GenerationSoftware,KiCad,Pcbnew,5.1.6-c6e7f7d~87~ubuntu18.04.1*
G04 #@! TF.CreationDate,2021-07-06T00:26:10-07:00*
G04 #@! TF.ProjectId,EthernetBoard,45746865-726e-4657-9442-6f6172642e6b,A*
G04 #@! TF.SameCoordinates,Original*
G04 #@! TF.FileFunction,Copper,L6,Bot*
G04 #@! TF.FilePolarity,Positive*
%FSLAX46Y46*%
G04 Gerber Fmt 4.6, Leading zero omitted, Abs format (unit mm)*
G04 Created by KiCad (PCBNEW 5.1.6-c6e7f7d~87~ubuntu18.04.1) date 2021-07-06 00:26:10*
%MOMM*%
%LPD*%
G01*
G04 APERTURE LIST*
G04 #@! TA.AperFunction,Profile*
%ADD10C,0.100000*%
G04 #@! TD*
G04 #@! TA.AperFunction,ComponentPad*
%ADD11C,2.475000*%
G04 #@! TD*
G04 #@! TA.AperFunction,ComponentPad*
%ADD12C,1.625000*%
G04 #@! TD*
G04 #@! TA.AperFunction,ComponentPad*
%ADD13C,1.650000*%
G04 #@! TD*
G04 #@! TA.AperFunction,ComponentPad*
%ADD14C,1.509000*%
G04 #@! TD*
G04 #@! TA.AperFunction,ComponentPad*
%ADD15C,4.500000*%
G04 #@! TD*
G04 #@! TA.AperFunction,SMDPad,CuDef*
%ADD16R,0.800000X1.700000*%
G04 #@! TD*
G04 #@! TA.AperFunction,SMDPad,CuDef*
%ADD17R,0.500000X2.000000*%
G04 #@! TD*
G04 #@! TA.AperFunction,SMDPad,CuDef*
%ADD18R,0.890000X3.000000*%
G04 #@! TD*
G04 #@! TA.AperFunction,ViaPad*
%ADD19C,0.600000*%
G04 #@! TD*
G04 #@! TA.AperFunction,Conductor*
%ADD20C,0.254000*%
G04 #@! TD*
G04 #@! TA.AperFunction,Conductor*
%ADD21C,0.203200*%
G04 #@! TD*
G04 #@! TA.AperFunction,Conductor*
%ADD22C,0.381000*%
G04 #@! TD*
G04 #@! TA.AperFunction,Conductor*
%ADD23C,0.635000*%
G04 #@! TD*
G04 #@! TA.AperFunction,Conductor*
%ADD24C,0.228600*%
G04 #@! TD*
G04 #@! TA.AperFunction,Conductor*
%ADD25C,0.177800*%
G04 #@! TD*
G04 #@! TA.AperFunction,Conductor*
%ADD26C,0.203000*%
G04 #@! TD*
G04 APERTURE END LIST*
D10*
X100000000Y-154000000D02*
X184999492Y-154000000D01*
X184999492Y-100000000D02*
X184999492Y-154000000D01*
X100000000Y-154000000D02*
X100000000Y-100000000D01*
X100000000Y-100000000D02*
X184999492Y-100000000D01*
D11*
X170993500Y-112587500D03*
X170993500Y-128077500D03*
D12*
X174053500Y-114617500D03*
X174053500Y-126047500D03*
D13*
X160333500Y-125797500D03*
X160333500Y-123257500D03*
X160333500Y-117407500D03*
X160333500Y-114867500D03*
D14*
X165163500Y-126047500D03*
X167703500Y-124777500D03*
X165163500Y-123507500D03*
X167703500Y-122237500D03*
X165163500Y-120967500D03*
X167703500Y-119697500D03*
X165163500Y-118427500D03*
X167703500Y-117157500D03*
X165163500Y-115887500D03*
X167703500Y-114617500D03*
G04 #@! TA.AperFunction,SMDPad,CuDef*
G36*
G01*
X130347700Y-131852100D02*
X130002700Y-131852100D01*
G75*
G02*
X129855200Y-131704600I0J147500D01*
G01*
X129855200Y-131409600D01*
G75*
G02*
X130002700Y-131262100I147500J0D01*
G01*
X130347700Y-131262100D01*
G75*
G02*
X130495200Y-131409600I0J-147500D01*
G01*
X130495200Y-131704600D01*
G75*
G02*
X130347700Y-131852100I-147500J0D01*
G01*
G37*
G04 #@! TD.AperFunction*
G04 #@! TA.AperFunction,SMDPad,CuDef*
G36*
G01*
X130347700Y-132822100D02*
X130002700Y-132822100D01*
G75*
G02*
X129855200Y-132674600I0J147500D01*
G01*
X129855200Y-132379600D01*
G75*
G02*
X130002700Y-132232100I147500J0D01*
G01*
X130347700Y-132232100D01*
G75*
G02*
X130495200Y-132379600I0J-147500D01*
G01*
X130495200Y-132674600D01*
G75*
G02*
X130347700Y-132822100I-147500J0D01*
G01*
G37*
G04 #@! TD.AperFunction*
G04 #@! TA.AperFunction,SMDPad,CuDef*
G36*
G01*
X131363500Y-131852100D02*
X131018500Y-131852100D01*
G75*
G02*
X130871000Y-131704600I0J147500D01*
G01*
X130871000Y-131409600D01*
G75*
G02*
X131018500Y-131262100I147500J0D01*
G01*
X131363500Y-131262100D01*
G75*
G02*
X131511000Y-131409600I0J-147500D01*
G01*
X131511000Y-131704600D01*
G75*
G02*
X131363500Y-131852100I-147500J0D01*
G01*
G37*
G04 #@! TD.AperFunction*
G04 #@! TA.AperFunction,SMDPad,CuDef*
G36*
G01*
X131363500Y-132822100D02*
X131018500Y-132822100D01*
G75*
G02*
X130871000Y-132674600I0J147500D01*
G01*
X130871000Y-132379600D01*
G75*
G02*
X131018500Y-132232100I147500J0D01*
G01*
X131363500Y-132232100D01*
G75*
G02*
X131511000Y-132379600I0J-147500D01*
G01*
X131511000Y-132674600D01*
G75*
G02*
X131363500Y-132822100I-147500J0D01*
G01*
G37*
G04 #@! TD.AperFunction*
D15*
X181000000Y-135500000D03*
X104000000Y-135500000D03*
X181000000Y-104000000D03*
X104000000Y-104000000D03*
D16*
X134353500Y-125243000D03*
X133083500Y-125243000D03*
X131813500Y-125243000D03*
X131813500Y-127843000D03*
X133083500Y-127843000D03*
X134353500Y-127843000D03*
G04 #@! TA.AperFunction,SMDPad,CuDef*
G36*
G01*
X115906000Y-109395750D02*
X115906000Y-109908250D01*
G75*
G02*
X115687250Y-110127000I-218750J0D01*
G01*
X115249750Y-110127000D01*
G75*
G02*
X115031000Y-109908250I0J218750D01*
G01*
X115031000Y-109395750D01*
G75*
G02*
X115249750Y-109177000I218750J0D01*
G01*
X115687250Y-109177000D01*
G75*
G02*
X115906000Y-109395750I0J-218750D01*
G01*
G37*
G04 #@! TD.AperFunction*
G04 #@! TA.AperFunction,SMDPad,CuDef*
G36*
G01*
X117481000Y-109395750D02*
X117481000Y-109908250D01*
G75*
G02*
X117262250Y-110127000I-218750J0D01*
G01*
X116824750Y-110127000D01*
G75*
G02*
X116606000Y-109908250I0J218750D01*
G01*
X116606000Y-109395750D01*
G75*
G02*
X116824750Y-109177000I218750J0D01*
G01*
X117262250Y-109177000D01*
G75*
G02*
X117481000Y-109395750I0J-218750D01*
G01*
G37*
G04 #@! TD.AperFunction*
G04 #@! TA.AperFunction,SMDPad,CuDef*
G36*
G01*
X115906000Y-110919750D02*
X115906000Y-111432250D01*
G75*
G02*
X115687250Y-111651000I-218750J0D01*
G01*
X115249750Y-111651000D01*
G75*
G02*
X115031000Y-111432250I0J218750D01*
G01*
X115031000Y-110919750D01*
G75*
G02*
X115249750Y-110701000I218750J0D01*
G01*
X115687250Y-110701000D01*
G75*
G02*
X115906000Y-110919750I0J-218750D01*
G01*
G37*
G04 #@! TD.AperFunction*
G04 #@! TA.AperFunction,SMDPad,CuDef*
G36*
G01*
X117481000Y-110919750D02*
X117481000Y-111432250D01*
G75*
G02*
X117262250Y-111651000I-218750J0D01*
G01*
X116824750Y-111651000D01*
G75*
G02*
X116606000Y-111432250I0J218750D01*
G01*
X116606000Y-110919750D01*
G75*
G02*
X116824750Y-110701000I218750J0D01*
G01*
X117262250Y-110701000D01*
G75*
G02*
X117481000Y-110919750I0J-218750D01*
G01*
G37*
G04 #@! TD.AperFunction*
G04 #@! TA.AperFunction,SMDPad,CuDef*
G36*
G01*
X116606000Y-112956250D02*
X116606000Y-112443750D01*
G75*
G02*
X116824750Y-112225000I218750J0D01*
G01*
X117262250Y-112225000D01*
G75*
G02*
X117481000Y-112443750I0J-218750D01*
G01*
X117481000Y-112956250D01*
G75*
G02*
X117262250Y-113175000I-218750J0D01*
G01*
X116824750Y-113175000D01*
G75*
G02*
X116606000Y-112956250I0J218750D01*
G01*
G37*
G04 #@! TD.AperFunction*
G04 #@! TA.AperFunction,SMDPad,CuDef*
G36*
G01*
X115031000Y-112956250D02*
X115031000Y-112443750D01*
G75*
G02*
X115249750Y-112225000I218750J0D01*
G01*
X115687250Y-112225000D01*
G75*
G02*
X115906000Y-112443750I0J-218750D01*
G01*
X115906000Y-112956250D01*
G75*
G02*
X115687250Y-113175000I-218750J0D01*
G01*
X115249750Y-113175000D01*
G75*
G02*
X115031000Y-112956250I0J218750D01*
G01*
G37*
G04 #@! TD.AperFunction*
G04 #@! TA.AperFunction,SMDPad,CuDef*
G36*
G01*
X119654000Y-109908250D02*
X119654000Y-109395750D01*
G75*
G02*
X119872750Y-109177000I218750J0D01*
G01*
X120310250Y-109177000D01*
G75*
G02*
X120529000Y-109395750I0J-218750D01*
G01*
X120529000Y-109908250D01*
G75*
G02*
X120310250Y-110127000I-218750J0D01*
G01*
X119872750Y-110127000D01*
G75*
G02*
X119654000Y-109908250I0J218750D01*
G01*
G37*
G04 #@! TD.AperFunction*
G04 #@! TA.AperFunction,SMDPad,CuDef*
G36*
G01*
X118079000Y-109908250D02*
X118079000Y-109395750D01*
G75*
G02*
X118297750Y-109177000I218750J0D01*
G01*
X118735250Y-109177000D01*
G75*
G02*
X118954000Y-109395750I0J-218750D01*
G01*
X118954000Y-109908250D01*
G75*
G02*
X118735250Y-110127000I-218750J0D01*
G01*
X118297750Y-110127000D01*
G75*
G02*
X118079000Y-109908250I0J218750D01*
G01*
G37*
G04 #@! TD.AperFunction*
G04 #@! TA.AperFunction,SMDPad,CuDef*
G36*
G01*
X119654000Y-111432250D02*
X119654000Y-110919750D01*
G75*
G02*
X119872750Y-110701000I218750J0D01*
G01*
X120310250Y-110701000D01*
G75*
G02*
X120529000Y-110919750I0J-218750D01*
G01*
X120529000Y-111432250D01*
G75*
G02*
X120310250Y-111651000I-218750J0D01*
G01*
X119872750Y-111651000D01*
G75*
G02*
X119654000Y-111432250I0J218750D01*
G01*
G37*
G04 #@! TD.AperFunction*
G04 #@! TA.AperFunction,SMDPad,CuDef*
G36*
G01*
X118079000Y-111432250D02*
X118079000Y-110919750D01*
G75*
G02*
X118297750Y-110701000I218750J0D01*
G01*
X118735250Y-110701000D01*
G75*
G02*
X118954000Y-110919750I0J-218750D01*
G01*
X118954000Y-111432250D01*
G75*
G02*
X118735250Y-111651000I-218750J0D01*
G01*
X118297750Y-111651000D01*
G75*
G02*
X118079000Y-111432250I0J218750D01*
G01*
G37*
G04 #@! TD.AperFunction*
G04 #@! TA.AperFunction,SMDPad,CuDef*
G36*
G01*
X148102000Y-133276250D02*
X148102000Y-132763750D01*
G75*
G02*
X148320750Y-132545000I218750J0D01*
G01*
X148758250Y-132545000D01*
G75*
G02*
X148977000Y-132763750I0J-218750D01*
G01*
X148977000Y-133276250D01*
G75*
G02*
X148758250Y-133495000I-218750J0D01*
G01*
X148320750Y-133495000D01*
G75*
G02*
X148102000Y-133276250I0J218750D01*
G01*
G37*
G04 #@! TD.AperFunction*
G04 #@! TA.AperFunction,SMDPad,CuDef*
G36*
G01*
X146527000Y-133276250D02*
X146527000Y-132763750D01*
G75*
G02*
X146745750Y-132545000I218750J0D01*
G01*
X147183250Y-132545000D01*
G75*
G02*
X147402000Y-132763750I0J-218750D01*
G01*
X147402000Y-133276250D01*
G75*
G02*
X147183250Y-133495000I-218750J0D01*
G01*
X146745750Y-133495000D01*
G75*
G02*
X146527000Y-133276250I0J218750D01*
G01*
G37*
G04 #@! TD.AperFunction*
G04 #@! TA.AperFunction,SMDPad,CuDef*
G36*
G01*
X148102000Y-131752250D02*
X148102000Y-131239750D01*
G75*
G02*
X148320750Y-131021000I218750J0D01*
G01*
X148758250Y-131021000D01*
G75*
G02*
X148977000Y-131239750I0J-218750D01*
G01*
X148977000Y-131752250D01*
G75*
G02*
X148758250Y-131971000I-218750J0D01*
G01*
X148320750Y-131971000D01*
G75*
G02*
X148102000Y-131752250I0J218750D01*
G01*
G37*
G04 #@! TD.AperFunction*
G04 #@! TA.AperFunction,SMDPad,CuDef*
G36*
G01*
X146527000Y-131752250D02*
X146527000Y-131239750D01*
G75*
G02*
X146745750Y-131021000I218750J0D01*
G01*
X147183250Y-131021000D01*
G75*
G02*
X147402000Y-131239750I0J-218750D01*
G01*
X147402000Y-131752250D01*
G75*
G02*
X147183250Y-131971000I-218750J0D01*
G01*
X146745750Y-131971000D01*
G75*
G02*
X146527000Y-131752250I0J218750D01*
G01*
G37*
G04 #@! TD.AperFunction*
G04 #@! TA.AperFunction,SMDPad,CuDef*
G36*
G01*
X147402000Y-129715750D02*
X147402000Y-130228250D01*
G75*
G02*
X147183250Y-130447000I-218750J0D01*
G01*
X146745750Y-130447000D01*
G75*
G02*
X146527000Y-130228250I0J218750D01*
G01*
X146527000Y-129715750D01*
G75*
G02*
X146745750Y-129497000I218750J0D01*
G01*
X147183250Y-129497000D01*
G75*
G02*
X147402000Y-129715750I0J-218750D01*
G01*
G37*
G04 #@! TD.AperFunction*
G04 #@! TA.AperFunction,SMDPad,CuDef*
G36*
G01*
X148977000Y-129715750D02*
X148977000Y-130228250D01*
G75*
G02*
X148758250Y-130447000I-218750J0D01*
G01*
X148320750Y-130447000D01*
G75*
G02*
X148102000Y-130228250I0J218750D01*
G01*
X148102000Y-129715750D01*
G75*
G02*
X148320750Y-129497000I218750J0D01*
G01*
X148758250Y-129497000D01*
G75*
G02*
X148977000Y-129715750I0J-218750D01*
G01*
G37*
G04 #@! TD.AperFunction*
G04 #@! TA.AperFunction,SMDPad,CuDef*
G36*
G01*
X144328500Y-132763750D02*
X144328500Y-133276250D01*
G75*
G02*
X144109750Y-133495000I-218750J0D01*
G01*
X143672250Y-133495000D01*
G75*
G02*
X143453500Y-133276250I0J218750D01*
G01*
X143453500Y-132763750D01*
G75*
G02*
X143672250Y-132545000I218750J0D01*
G01*
X144109750Y-132545000D01*
G75*
G02*
X144328500Y-132763750I0J-218750D01*
G01*
G37*
G04 #@! TD.AperFunction*
G04 #@! TA.AperFunction,SMDPad,CuDef*
G36*
G01*
X145903500Y-132763750D02*
X145903500Y-133276250D01*
G75*
G02*
X145684750Y-133495000I-218750J0D01*
G01*
X145247250Y-133495000D01*
G75*
G02*
X145028500Y-133276250I0J218750D01*
G01*
X145028500Y-132763750D01*
G75*
G02*
X145247250Y-132545000I218750J0D01*
G01*
X145684750Y-132545000D01*
G75*
G02*
X145903500Y-132763750I0J-218750D01*
G01*
G37*
G04 #@! TD.AperFunction*
G04 #@! TA.AperFunction,SMDPad,CuDef*
G36*
G01*
X144354000Y-131239750D02*
X144354000Y-131752250D01*
G75*
G02*
X144135250Y-131971000I-218750J0D01*
G01*
X143697750Y-131971000D01*
G75*
G02*
X143479000Y-131752250I0J218750D01*
G01*
X143479000Y-131239750D01*
G75*
G02*
X143697750Y-131021000I218750J0D01*
G01*
X144135250Y-131021000D01*
G75*
G02*
X144354000Y-131239750I0J-218750D01*
G01*
G37*
G04 #@! TD.AperFunction*
G04 #@! TA.AperFunction,SMDPad,CuDef*
G36*
G01*
X145929000Y-131239750D02*
X145929000Y-131752250D01*
G75*
G02*
X145710250Y-131971000I-218750J0D01*
G01*
X145272750Y-131971000D01*
G75*
G02*
X145054000Y-131752250I0J218750D01*
G01*
X145054000Y-131239750D01*
G75*
G02*
X145272750Y-131021000I218750J0D01*
G01*
X145710250Y-131021000D01*
G75*
G02*
X145929000Y-131239750I0J-218750D01*
G01*
G37*
G04 #@! TD.AperFunction*
G04 #@! TA.AperFunction,SMDPad,CuDef*
G36*
G01*
X115652000Y-130541250D02*
X115652000Y-131053750D01*
G75*
G02*
X115433250Y-131272500I-218750J0D01*
G01*
X114995750Y-131272500D01*
G75*
G02*
X114777000Y-131053750I0J218750D01*
G01*
X114777000Y-130541250D01*
G75*
G02*
X114995750Y-130322500I218750J0D01*
G01*
X115433250Y-130322500D01*
G75*
G02*
X115652000Y-130541250I0J-218750D01*
G01*
G37*
G04 #@! TD.AperFunction*
G04 #@! TA.AperFunction,SMDPad,CuDef*
G36*
G01*
X117227000Y-130541250D02*
X117227000Y-131053750D01*
G75*
G02*
X117008250Y-131272500I-218750J0D01*
G01*
X116570750Y-131272500D01*
G75*
G02*
X116352000Y-131053750I0J218750D01*
G01*
X116352000Y-130541250D01*
G75*
G02*
X116570750Y-130322500I218750J0D01*
G01*
X117008250Y-130322500D01*
G75*
G02*
X117227000Y-130541250I0J-218750D01*
G01*
G37*
G04 #@! TD.AperFunction*
G04 #@! TA.AperFunction,SMDPad,CuDef*
G36*
G01*
X115652000Y-132065250D02*
X115652000Y-132577750D01*
G75*
G02*
X115433250Y-132796500I-218750J0D01*
G01*
X114995750Y-132796500D01*
G75*
G02*
X114777000Y-132577750I0J218750D01*
G01*
X114777000Y-132065250D01*
G75*
G02*
X114995750Y-131846500I218750J0D01*
G01*
X115433250Y-131846500D01*
G75*
G02*
X115652000Y-132065250I0J-218750D01*
G01*
G37*
G04 #@! TD.AperFunction*
G04 #@! TA.AperFunction,SMDPad,CuDef*
G36*
G01*
X117227000Y-132065250D02*
X117227000Y-132577750D01*
G75*
G02*
X117008250Y-132796500I-218750J0D01*
G01*
X116570750Y-132796500D01*
G75*
G02*
X116352000Y-132577750I0J218750D01*
G01*
X116352000Y-132065250D01*
G75*
G02*
X116570750Y-131846500I218750J0D01*
G01*
X117008250Y-131846500D01*
G75*
G02*
X117227000Y-132065250I0J-218750D01*
G01*
G37*
G04 #@! TD.AperFunction*
G04 #@! TA.AperFunction,SMDPad,CuDef*
G36*
G01*
X116352000Y-134101750D02*
X116352000Y-133589250D01*
G75*
G02*
X116570750Y-133370500I218750J0D01*
G01*
X117008250Y-133370500D01*
G75*
G02*
X117227000Y-133589250I0J-218750D01*
G01*
X117227000Y-134101750D01*
G75*
G02*
X117008250Y-134320500I-218750J0D01*
G01*
X116570750Y-134320500D01*
G75*
G02*
X116352000Y-134101750I0J218750D01*
G01*
G37*
G04 #@! TD.AperFunction*
G04 #@! TA.AperFunction,SMDPad,CuDef*
G36*
G01*
X114777000Y-134101750D02*
X114777000Y-133589250D01*
G75*
G02*
X114995750Y-133370500I218750J0D01*
G01*
X115433250Y-133370500D01*
G75*
G02*
X115652000Y-133589250I0J-218750D01*
G01*
X115652000Y-134101750D01*
G75*
G02*
X115433250Y-134320500I-218750J0D01*
G01*
X114995750Y-134320500D01*
G75*
G02*
X114777000Y-134101750I0J218750D01*
G01*
G37*
G04 #@! TD.AperFunction*
G04 #@! TA.AperFunction,SMDPad,CuDef*
G36*
G01*
X119400000Y-131053750D02*
X119400000Y-130541250D01*
G75*
G02*
X119618750Y-130322500I218750J0D01*
G01*
X120056250Y-130322500D01*
G75*
G02*
X120275000Y-130541250I0J-218750D01*
G01*
X120275000Y-131053750D01*
G75*
G02*
X120056250Y-131272500I-218750J0D01*
G01*
X119618750Y-131272500D01*
G75*
G02*
X119400000Y-131053750I0J218750D01*
G01*
G37*
G04 #@! TD.AperFunction*
G04 #@! TA.AperFunction,SMDPad,CuDef*
G36*
G01*
X117825000Y-131053750D02*
X117825000Y-130541250D01*
G75*
G02*
X118043750Y-130322500I218750J0D01*
G01*
X118481250Y-130322500D01*
G75*
G02*
X118700000Y-130541250I0J-218750D01*
G01*
X118700000Y-131053750D01*
G75*
G02*
X118481250Y-131272500I-218750J0D01*
G01*
X118043750Y-131272500D01*
G75*
G02*
X117825000Y-131053750I0J218750D01*
G01*
G37*
G04 #@! TD.AperFunction*
G04 #@! TA.AperFunction,SMDPad,CuDef*
G36*
G01*
X119400000Y-132577750D02*
X119400000Y-132065250D01*
G75*
G02*
X119618750Y-131846500I218750J0D01*
G01*
X120056250Y-131846500D01*
G75*
G02*
X120275000Y-132065250I0J-218750D01*
G01*
X120275000Y-132577750D01*
G75*
G02*
X120056250Y-132796500I-218750J0D01*
G01*
X119618750Y-132796500D01*
G75*
G02*
X119400000Y-132577750I0J218750D01*
G01*
G37*
G04 #@! TD.AperFunction*
G04 #@! TA.AperFunction,SMDPad,CuDef*
G36*
G01*
X117825000Y-132577750D02*
X117825000Y-132065250D01*
G75*
G02*
X118043750Y-131846500I218750J0D01*
G01*
X118481250Y-131846500D01*
G75*
G02*
X118700000Y-132065250I0J-218750D01*
G01*
X118700000Y-132577750D01*
G75*
G02*
X118481250Y-132796500I-218750J0D01*
G01*
X118043750Y-132796500D01*
G75*
G02*
X117825000Y-132577750I0J218750D01*
G01*
G37*
G04 #@! TD.AperFunction*
G04 #@! TA.AperFunction,SMDPad,CuDef*
G36*
G01*
X144419000Y-118544250D02*
X144419000Y-118031750D01*
G75*
G02*
X144637750Y-117813000I218750J0D01*
G01*
X145075250Y-117813000D01*
G75*
G02*
X145294000Y-118031750I0J-218750D01*
G01*
X145294000Y-118544250D01*
G75*
G02*
X145075250Y-118763000I-218750J0D01*
G01*
X144637750Y-118763000D01*
G75*
G02*
X144419000Y-118544250I0J218750D01*
G01*
G37*
G04 #@! TD.AperFunction*
G04 #@! TA.AperFunction,SMDPad,CuDef*
G36*
G01*
X142844000Y-118544250D02*
X142844000Y-118031750D01*
G75*
G02*
X143062750Y-117813000I218750J0D01*
G01*
X143500250Y-117813000D01*
G75*
G02*
X143719000Y-118031750I0J-218750D01*
G01*
X143719000Y-118544250D01*
G75*
G02*
X143500250Y-118763000I-218750J0D01*
G01*
X143062750Y-118763000D01*
G75*
G02*
X142844000Y-118544250I0J218750D01*
G01*
G37*
G04 #@! TD.AperFunction*
G04 #@! TA.AperFunction,SMDPad,CuDef*
G36*
G01*
X144419000Y-117020250D02*
X144419000Y-116507750D01*
G75*
G02*
X144637750Y-116289000I218750J0D01*
G01*
X145075250Y-116289000D01*
G75*
G02*
X145294000Y-116507750I0J-218750D01*
G01*
X145294000Y-117020250D01*
G75*
G02*
X145075250Y-117239000I-218750J0D01*
G01*
X144637750Y-117239000D01*
G75*
G02*
X144419000Y-117020250I0J218750D01*
G01*
G37*
G04 #@! TD.AperFunction*
G04 #@! TA.AperFunction,SMDPad,CuDef*
G36*
G01*
X142844000Y-117020250D02*
X142844000Y-116507750D01*
G75*
G02*
X143062750Y-116289000I218750J0D01*
G01*
X143500250Y-116289000D01*
G75*
G02*
X143719000Y-116507750I0J-218750D01*
G01*
X143719000Y-117020250D01*
G75*
G02*
X143500250Y-117239000I-218750J0D01*
G01*
X143062750Y-117239000D01*
G75*
G02*
X142844000Y-117020250I0J218750D01*
G01*
G37*
G04 #@! TD.AperFunction*
G04 #@! TA.AperFunction,SMDPad,CuDef*
G36*
G01*
X144419000Y-115496250D02*
X144419000Y-114983750D01*
G75*
G02*
X144637750Y-114765000I218750J0D01*
G01*
X145075250Y-114765000D01*
G75*
G02*
X145294000Y-114983750I0J-218750D01*
G01*
X145294000Y-115496250D01*
G75*
G02*
X145075250Y-115715000I-218750J0D01*
G01*
X144637750Y-115715000D01*
G75*
G02*
X144419000Y-115496250I0J218750D01*
G01*
G37*
G04 #@! TD.AperFunction*
G04 #@! TA.AperFunction,SMDPad,CuDef*
G36*
G01*
X142844000Y-115496250D02*
X142844000Y-114983750D01*
G75*
G02*
X143062750Y-114765000I218750J0D01*
G01*
X143500250Y-114765000D01*
G75*
G02*
X143719000Y-114983750I0J-218750D01*
G01*
X143719000Y-115496250D01*
G75*
G02*
X143500250Y-115715000I-218750J0D01*
G01*
X143062750Y-115715000D01*
G75*
G02*
X142844000Y-115496250I0J218750D01*
G01*
G37*
G04 #@! TD.AperFunction*
G04 #@! TA.AperFunction,SMDPad,CuDef*
G36*
G01*
X148991000Y-112321250D02*
X148991000Y-111808750D01*
G75*
G02*
X149209750Y-111590000I218750J0D01*
G01*
X149647250Y-111590000D01*
G75*
G02*
X149866000Y-111808750I0J-218750D01*
G01*
X149866000Y-112321250D01*
G75*
G02*
X149647250Y-112540000I-218750J0D01*
G01*
X149209750Y-112540000D01*
G75*
G02*
X148991000Y-112321250I0J218750D01*
G01*
G37*
G04 #@! TD.AperFunction*
G04 #@! TA.AperFunction,SMDPad,CuDef*
G36*
G01*
X147416000Y-112321250D02*
X147416000Y-111808750D01*
G75*
G02*
X147634750Y-111590000I218750J0D01*
G01*
X148072250Y-111590000D01*
G75*
G02*
X148291000Y-111808750I0J-218750D01*
G01*
X148291000Y-112321250D01*
G75*
G02*
X148072250Y-112540000I-218750J0D01*
G01*
X147634750Y-112540000D01*
G75*
G02*
X147416000Y-112321250I0J218750D01*
G01*
G37*
G04 #@! TD.AperFunction*
G04 #@! TA.AperFunction,SMDPad,CuDef*
G36*
G01*
X144419000Y-112321250D02*
X144419000Y-111808750D01*
G75*
G02*
X144637750Y-111590000I218750J0D01*
G01*
X145075250Y-111590000D01*
G75*
G02*
X145294000Y-111808750I0J-218750D01*
G01*
X145294000Y-112321250D01*
G75*
G02*
X145075250Y-112540000I-218750J0D01*
G01*
X144637750Y-112540000D01*
G75*
G02*
X144419000Y-112321250I0J218750D01*
G01*
G37*
G04 #@! TD.AperFunction*
G04 #@! TA.AperFunction,SMDPad,CuDef*
G36*
G01*
X142844000Y-112321250D02*
X142844000Y-111808750D01*
G75*
G02*
X143062750Y-111590000I218750J0D01*
G01*
X143500250Y-111590000D01*
G75*
G02*
X143719000Y-111808750I0J-218750D01*
G01*
X143719000Y-112321250D01*
G75*
G02*
X143500250Y-112540000I-218750J0D01*
G01*
X143062750Y-112540000D01*
G75*
G02*
X142844000Y-112321250I0J218750D01*
G01*
G37*
G04 #@! TD.AperFunction*
G04 #@! TA.AperFunction,SMDPad,CuDef*
G36*
G01*
X144292000Y-128196250D02*
X144292000Y-127683750D01*
G75*
G02*
X144510750Y-127465000I218750J0D01*
G01*
X144948250Y-127465000D01*
G75*
G02*
X145167000Y-127683750I0J-218750D01*
G01*
X145167000Y-128196250D01*
G75*
G02*
X144948250Y-128415000I-218750J0D01*
G01*
X144510750Y-128415000D01*
G75*
G02*
X144292000Y-128196250I0J218750D01*
G01*
G37*
G04 #@! TD.AperFunction*
G04 #@! TA.AperFunction,SMDPad,CuDef*
G36*
G01*
X142717000Y-128196250D02*
X142717000Y-127683750D01*
G75*
G02*
X142935750Y-127465000I218750J0D01*
G01*
X143373250Y-127465000D01*
G75*
G02*
X143592000Y-127683750I0J-218750D01*
G01*
X143592000Y-128196250D01*
G75*
G02*
X143373250Y-128415000I-218750J0D01*
G01*
X142935750Y-128415000D01*
G75*
G02*
X142717000Y-128196250I0J218750D01*
G01*
G37*
G04 #@! TD.AperFunction*
G04 #@! TA.AperFunction,SMDPad,CuDef*
G36*
G01*
X144292000Y-126672250D02*
X144292000Y-126159750D01*
G75*
G02*
X144510750Y-125941000I218750J0D01*
G01*
X144948250Y-125941000D01*
G75*
G02*
X145167000Y-126159750I0J-218750D01*
G01*
X145167000Y-126672250D01*
G75*
G02*
X144948250Y-126891000I-218750J0D01*
G01*
X144510750Y-126891000D01*
G75*
G02*
X144292000Y-126672250I0J218750D01*
G01*
G37*
G04 #@! TD.AperFunction*
G04 #@! TA.AperFunction,SMDPad,CuDef*
G36*
G01*
X142717000Y-126672250D02*
X142717000Y-126159750D01*
G75*
G02*
X142935750Y-125941000I218750J0D01*
G01*
X143373250Y-125941000D01*
G75*
G02*
X143592000Y-126159750I0J-218750D01*
G01*
X143592000Y-126672250D01*
G75*
G02*
X143373250Y-126891000I-218750J0D01*
G01*
X142935750Y-126891000D01*
G75*
G02*
X142717000Y-126672250I0J218750D01*
G01*
G37*
G04 #@! TD.AperFunction*
G04 #@! TA.AperFunction,SMDPad,CuDef*
G36*
G01*
X144292000Y-125148250D02*
X144292000Y-124635750D01*
G75*
G02*
X144510750Y-124417000I218750J0D01*
G01*
X144948250Y-124417000D01*
G75*
G02*
X145167000Y-124635750I0J-218750D01*
G01*
X145167000Y-125148250D01*
G75*
G02*
X144948250Y-125367000I-218750J0D01*
G01*
X144510750Y-125367000D01*
G75*
G02*
X144292000Y-125148250I0J218750D01*
G01*
G37*
G04 #@! TD.AperFunction*
G04 #@! TA.AperFunction,SMDPad,CuDef*
G36*
G01*
X142717000Y-125148250D02*
X142717000Y-124635750D01*
G75*
G02*
X142935750Y-124417000I218750J0D01*
G01*
X143373250Y-124417000D01*
G75*
G02*
X143592000Y-124635750I0J-218750D01*
G01*
X143592000Y-125148250D01*
G75*
G02*
X143373250Y-125367000I-218750J0D01*
G01*
X142935750Y-125367000D01*
G75*
G02*
X142717000Y-125148250I0J218750D01*
G01*
G37*
G04 #@! TD.AperFunction*
G04 #@! TA.AperFunction,SMDPad,CuDef*
G36*
G01*
X148864000Y-121973250D02*
X148864000Y-121460750D01*
G75*
G02*
X149082750Y-121242000I218750J0D01*
G01*
X149520250Y-121242000D01*
G75*
G02*
X149739000Y-121460750I0J-218750D01*
G01*
X149739000Y-121973250D01*
G75*
G02*
X149520250Y-122192000I-218750J0D01*
G01*
X149082750Y-122192000D01*
G75*
G02*
X148864000Y-121973250I0J218750D01*
G01*
G37*
G04 #@! TD.AperFunction*
G04 #@! TA.AperFunction,SMDPad,CuDef*
G36*
G01*
X147289000Y-121973250D02*
X147289000Y-121460750D01*
G75*
G02*
X147507750Y-121242000I218750J0D01*
G01*
X147945250Y-121242000D01*
G75*
G02*
X148164000Y-121460750I0J-218750D01*
G01*
X148164000Y-121973250D01*
G75*
G02*
X147945250Y-122192000I-218750J0D01*
G01*
X147507750Y-122192000D01*
G75*
G02*
X147289000Y-121973250I0J218750D01*
G01*
G37*
G04 #@! TD.AperFunction*
G04 #@! TA.AperFunction,SMDPad,CuDef*
G36*
G01*
X143592000Y-121460750D02*
X143592000Y-121973250D01*
G75*
G02*
X143373250Y-122192000I-218750J0D01*
G01*
X142935750Y-122192000D01*
G75*
G02*
X142717000Y-121973250I0J218750D01*
G01*
X142717000Y-121460750D01*
G75*
G02*
X142935750Y-121242000I218750J0D01*
G01*
X143373250Y-121242000D01*
G75*
G02*
X143592000Y-121460750I0J-218750D01*
G01*
G37*
G04 #@! TD.AperFunction*
G04 #@! TA.AperFunction,SMDPad,CuDef*
G36*
G01*
X145167000Y-121460750D02*
X145167000Y-121973250D01*
G75*
G02*
X144948250Y-122192000I-218750J0D01*
G01*
X144510750Y-122192000D01*
G75*
G02*
X144292000Y-121973250I0J218750D01*
G01*
X144292000Y-121460750D01*
G75*
G02*
X144510750Y-121242000I218750J0D01*
G01*
X144948250Y-121242000D01*
G75*
G02*
X145167000Y-121460750I0J-218750D01*
G01*
G37*
G04 #@! TD.AperFunction*
G04 #@! TA.AperFunction,SMDPad,CuDef*
G36*
G01*
X119654000Y-112956250D02*
X119654000Y-112443750D01*
G75*
G02*
X119872750Y-112225000I218750J0D01*
G01*
X120310250Y-112225000D01*
G75*
G02*
X120529000Y-112443750I0J-218750D01*
G01*
X120529000Y-112956250D01*
G75*
G02*
X120310250Y-113175000I-218750J0D01*
G01*
X119872750Y-113175000D01*
G75*
G02*
X119654000Y-112956250I0J218750D01*
G01*
G37*
G04 #@! TD.AperFunction*
G04 #@! TA.AperFunction,SMDPad,CuDef*
G36*
G01*
X118079000Y-112956250D02*
X118079000Y-112443750D01*
G75*
G02*
X118297750Y-112225000I218750J0D01*
G01*
X118735250Y-112225000D01*
G75*
G02*
X118954000Y-112443750I0J-218750D01*
G01*
X118954000Y-112956250D01*
G75*
G02*
X118735250Y-113175000I-218750J0D01*
G01*
X118297750Y-113175000D01*
G75*
G02*
X118079000Y-112956250I0J218750D01*
G01*
G37*
G04 #@! TD.AperFunction*
G04 #@! TA.AperFunction,SMDPad,CuDef*
G36*
G01*
X144354000Y-129715750D02*
X144354000Y-130228250D01*
G75*
G02*
X144135250Y-130447000I-218750J0D01*
G01*
X143697750Y-130447000D01*
G75*
G02*
X143479000Y-130228250I0J218750D01*
G01*
X143479000Y-129715750D01*
G75*
G02*
X143697750Y-129497000I218750J0D01*
G01*
X144135250Y-129497000D01*
G75*
G02*
X144354000Y-129715750I0J-218750D01*
G01*
G37*
G04 #@! TD.AperFunction*
G04 #@! TA.AperFunction,SMDPad,CuDef*
G36*
G01*
X145929000Y-129715750D02*
X145929000Y-130228250D01*
G75*
G02*
X145710250Y-130447000I-218750J0D01*
G01*
X145272750Y-130447000D01*
G75*
G02*
X145054000Y-130228250I0J218750D01*
G01*
X145054000Y-129715750D01*
G75*
G02*
X145272750Y-129497000I218750J0D01*
G01*
X145710250Y-129497000D01*
G75*
G02*
X145929000Y-129715750I0J-218750D01*
G01*
G37*
G04 #@! TD.AperFunction*
G04 #@! TA.AperFunction,SMDPad,CuDef*
G36*
G01*
X119400000Y-134101750D02*
X119400000Y-133589250D01*
G75*
G02*
X119618750Y-133370500I218750J0D01*
G01*
X120056250Y-133370500D01*
G75*
G02*
X120275000Y-133589250I0J-218750D01*
G01*
X120275000Y-134101750D01*
G75*
G02*
X120056250Y-134320500I-218750J0D01*
G01*
X119618750Y-134320500D01*
G75*
G02*
X119400000Y-134101750I0J218750D01*
G01*
G37*
G04 #@! TD.AperFunction*
G04 #@! TA.AperFunction,SMDPad,CuDef*
G36*
G01*
X117825000Y-134101750D02*
X117825000Y-133589250D01*
G75*
G02*
X118043750Y-133370500I218750J0D01*
G01*
X118481250Y-133370500D01*
G75*
G02*
X118700000Y-133589250I0J-218750D01*
G01*
X118700000Y-134101750D01*
G75*
G02*
X118481250Y-134320500I-218750J0D01*
G01*
X118043750Y-134320500D01*
G75*
G02*
X117825000Y-134101750I0J218750D01*
G01*
G37*
G04 #@! TD.AperFunction*
G04 #@! TA.AperFunction,SMDPad,CuDef*
G36*
G01*
X148291000Y-110284750D02*
X148291000Y-110797250D01*
G75*
G02*
X148072250Y-111016000I-218750J0D01*
G01*
X147634750Y-111016000D01*
G75*
G02*
X147416000Y-110797250I0J218750D01*
G01*
X147416000Y-110284750D01*
G75*
G02*
X147634750Y-110066000I218750J0D01*
G01*
X148072250Y-110066000D01*
G75*
G02*
X148291000Y-110284750I0J-218750D01*
G01*
G37*
G04 #@! TD.AperFunction*
G04 #@! TA.AperFunction,SMDPad,CuDef*
G36*
G01*
X149866000Y-110284750D02*
X149866000Y-110797250D01*
G75*
G02*
X149647250Y-111016000I-218750J0D01*
G01*
X149209750Y-111016000D01*
G75*
G02*
X148991000Y-110797250I0J218750D01*
G01*
X148991000Y-110284750D01*
G75*
G02*
X149209750Y-110066000I218750J0D01*
G01*
X149647250Y-110066000D01*
G75*
G02*
X149866000Y-110284750I0J-218750D01*
G01*
G37*
G04 #@! TD.AperFunction*
G04 #@! TA.AperFunction,SMDPad,CuDef*
G36*
G01*
X144419000Y-110797250D02*
X144419000Y-110284750D01*
G75*
G02*
X144637750Y-110066000I218750J0D01*
G01*
X145075250Y-110066000D01*
G75*
G02*
X145294000Y-110284750I0J-218750D01*
G01*
X145294000Y-110797250D01*
G75*
G02*
X145075250Y-111016000I-218750J0D01*
G01*
X144637750Y-111016000D01*
G75*
G02*
X144419000Y-110797250I0J218750D01*
G01*
G37*
G04 #@! TD.AperFunction*
G04 #@! TA.AperFunction,SMDPad,CuDef*
G36*
G01*
X142844000Y-110797250D02*
X142844000Y-110284750D01*
G75*
G02*
X143062750Y-110066000I218750J0D01*
G01*
X143500250Y-110066000D01*
G75*
G02*
X143719000Y-110284750I0J-218750D01*
G01*
X143719000Y-110797250D01*
G75*
G02*
X143500250Y-111016000I-218750J0D01*
G01*
X143062750Y-111016000D01*
G75*
G02*
X142844000Y-110797250I0J218750D01*
G01*
G37*
G04 #@! TD.AperFunction*
G04 #@! TA.AperFunction,SMDPad,CuDef*
G36*
G01*
X132746000Y-129537750D02*
X132746000Y-130050250D01*
G75*
G02*
X132527250Y-130269000I-218750J0D01*
G01*
X132089750Y-130269000D01*
G75*
G02*
X131871000Y-130050250I0J218750D01*
G01*
X131871000Y-129537750D01*
G75*
G02*
X132089750Y-129319000I218750J0D01*
G01*
X132527250Y-129319000D01*
G75*
G02*
X132746000Y-129537750I0J-218750D01*
G01*
G37*
G04 #@! TD.AperFunction*
G04 #@! TA.AperFunction,SMDPad,CuDef*
G36*
G01*
X134321000Y-129537750D02*
X134321000Y-130050250D01*
G75*
G02*
X134102250Y-130269000I-218750J0D01*
G01*
X133664750Y-130269000D01*
G75*
G02*
X133446000Y-130050250I0J218750D01*
G01*
X133446000Y-129537750D01*
G75*
G02*
X133664750Y-129319000I218750J0D01*
G01*
X134102250Y-129319000D01*
G75*
G02*
X134321000Y-129537750I0J-218750D01*
G01*
G37*
G04 #@! TD.AperFunction*
G04 #@! TA.AperFunction,SMDPad,CuDef*
G36*
G01*
X115717000Y-118544250D02*
X115717000Y-118031750D01*
G75*
G02*
X115935750Y-117813000I218750J0D01*
G01*
X116373250Y-117813000D01*
G75*
G02*
X116592000Y-118031750I0J-218750D01*
G01*
X116592000Y-118544250D01*
G75*
G02*
X116373250Y-118763000I-218750J0D01*
G01*
X115935750Y-118763000D01*
G75*
G02*
X115717000Y-118544250I0J218750D01*
G01*
G37*
G04 #@! TD.AperFunction*
G04 #@! TA.AperFunction,SMDPad,CuDef*
G36*
G01*
X114142000Y-118544250D02*
X114142000Y-118031750D01*
G75*
G02*
X114360750Y-117813000I218750J0D01*
G01*
X114798250Y-117813000D01*
G75*
G02*
X115017000Y-118031750I0J-218750D01*
G01*
X115017000Y-118544250D01*
G75*
G02*
X114798250Y-118763000I-218750J0D01*
G01*
X114360750Y-118763000D01*
G75*
G02*
X114142000Y-118544250I0J218750D01*
G01*
G37*
G04 #@! TD.AperFunction*
G04 #@! TA.AperFunction,SMDPad,CuDef*
G36*
G01*
X115717000Y-117020250D02*
X115717000Y-116507750D01*
G75*
G02*
X115935750Y-116289000I218750J0D01*
G01*
X116373250Y-116289000D01*
G75*
G02*
X116592000Y-116507750I0J-218750D01*
G01*
X116592000Y-117020250D01*
G75*
G02*
X116373250Y-117239000I-218750J0D01*
G01*
X115935750Y-117239000D01*
G75*
G02*
X115717000Y-117020250I0J218750D01*
G01*
G37*
G04 #@! TD.AperFunction*
G04 #@! TA.AperFunction,SMDPad,CuDef*
G36*
G01*
X114142000Y-117020250D02*
X114142000Y-116507750D01*
G75*
G02*
X114360750Y-116289000I218750J0D01*
G01*
X114798250Y-116289000D01*
G75*
G02*
X115017000Y-116507750I0J-218750D01*
G01*
X115017000Y-117020250D01*
G75*
G02*
X114798250Y-117239000I-218750J0D01*
G01*
X114360750Y-117239000D01*
G75*
G02*
X114142000Y-117020250I0J218750D01*
G01*
G37*
G04 #@! TD.AperFunction*
G04 #@! TA.AperFunction,SMDPad,CuDef*
G36*
G01*
X119843000Y-118031750D02*
X119843000Y-118544250D01*
G75*
G02*
X119624250Y-118763000I-218750J0D01*
G01*
X119186750Y-118763000D01*
G75*
G02*
X118968000Y-118544250I0J218750D01*
G01*
X118968000Y-118031750D01*
G75*
G02*
X119186750Y-117813000I218750J0D01*
G01*
X119624250Y-117813000D01*
G75*
G02*
X119843000Y-118031750I0J-218750D01*
G01*
G37*
G04 #@! TD.AperFunction*
G04 #@! TA.AperFunction,SMDPad,CuDef*
G36*
G01*
X121418000Y-118031750D02*
X121418000Y-118544250D01*
G75*
G02*
X121199250Y-118763000I-218750J0D01*
G01*
X120761750Y-118763000D01*
G75*
G02*
X120543000Y-118544250I0J218750D01*
G01*
X120543000Y-118031750D01*
G75*
G02*
X120761750Y-117813000I218750J0D01*
G01*
X121199250Y-117813000D01*
G75*
G02*
X121418000Y-118031750I0J-218750D01*
G01*
G37*
G04 #@! TD.AperFunction*
G04 #@! TA.AperFunction,SMDPad,CuDef*
G36*
G01*
X119843000Y-116507750D02*
X119843000Y-117020250D01*
G75*
G02*
X119624250Y-117239000I-218750J0D01*
G01*
X119186750Y-117239000D01*
G75*
G02*
X118968000Y-117020250I0J218750D01*
G01*
X118968000Y-116507750D01*
G75*
G02*
X119186750Y-116289000I218750J0D01*
G01*
X119624250Y-116289000D01*
G75*
G02*
X119843000Y-116507750I0J-218750D01*
G01*
G37*
G04 #@! TD.AperFunction*
G04 #@! TA.AperFunction,SMDPad,CuDef*
G36*
G01*
X121418000Y-116507750D02*
X121418000Y-117020250D01*
G75*
G02*
X121199250Y-117239000I-218750J0D01*
G01*
X120761750Y-117239000D01*
G75*
G02*
X120543000Y-117020250I0J218750D01*
G01*
X120543000Y-116507750D01*
G75*
G02*
X120761750Y-116289000I218750J0D01*
G01*
X121199250Y-116289000D01*
G75*
G02*
X121418000Y-116507750I0J-218750D01*
G01*
G37*
G04 #@! TD.AperFunction*
G04 #@! TA.AperFunction,SMDPad,CuDef*
G36*
G01*
X115717000Y-126037250D02*
X115717000Y-125524750D01*
G75*
G02*
X115935750Y-125306000I218750J0D01*
G01*
X116373250Y-125306000D01*
G75*
G02*
X116592000Y-125524750I0J-218750D01*
G01*
X116592000Y-126037250D01*
G75*
G02*
X116373250Y-126256000I-218750J0D01*
G01*
X115935750Y-126256000D01*
G75*
G02*
X115717000Y-126037250I0J218750D01*
G01*
G37*
G04 #@! TD.AperFunction*
G04 #@! TA.AperFunction,SMDPad,CuDef*
G36*
G01*
X114142000Y-126037250D02*
X114142000Y-125524750D01*
G75*
G02*
X114360750Y-125306000I218750J0D01*
G01*
X114798250Y-125306000D01*
G75*
G02*
X115017000Y-125524750I0J-218750D01*
G01*
X115017000Y-126037250D01*
G75*
G02*
X114798250Y-126256000I-218750J0D01*
G01*
X114360750Y-126256000D01*
G75*
G02*
X114142000Y-126037250I0J218750D01*
G01*
G37*
G04 #@! TD.AperFunction*
G04 #@! TA.AperFunction,SMDPad,CuDef*
G36*
G01*
X115717000Y-124513250D02*
X115717000Y-124000750D01*
G75*
G02*
X115935750Y-123782000I218750J0D01*
G01*
X116373250Y-123782000D01*
G75*
G02*
X116592000Y-124000750I0J-218750D01*
G01*
X116592000Y-124513250D01*
G75*
G02*
X116373250Y-124732000I-218750J0D01*
G01*
X115935750Y-124732000D01*
G75*
G02*
X115717000Y-124513250I0J218750D01*
G01*
G37*
G04 #@! TD.AperFunction*
G04 #@! TA.AperFunction,SMDPad,CuDef*
G36*
G01*
X114142000Y-124513250D02*
X114142000Y-124000750D01*
G75*
G02*
X114360750Y-123782000I218750J0D01*
G01*
X114798250Y-123782000D01*
G75*
G02*
X115017000Y-124000750I0J-218750D01*
G01*
X115017000Y-124513250D01*
G75*
G02*
X114798250Y-124732000I-218750J0D01*
G01*
X114360750Y-124732000D01*
G75*
G02*
X114142000Y-124513250I0J218750D01*
G01*
G37*
G04 #@! TD.AperFunction*
G04 #@! TA.AperFunction,SMDPad,CuDef*
G36*
G01*
X119843000Y-125524750D02*
X119843000Y-126037250D01*
G75*
G02*
X119624250Y-126256000I-218750J0D01*
G01*
X119186750Y-126256000D01*
G75*
G02*
X118968000Y-126037250I0J218750D01*
G01*
X118968000Y-125524750D01*
G75*
G02*
X119186750Y-125306000I218750J0D01*
G01*
X119624250Y-125306000D01*
G75*
G02*
X119843000Y-125524750I0J-218750D01*
G01*
G37*
G04 #@! TD.AperFunction*
G04 #@! TA.AperFunction,SMDPad,CuDef*
G36*
G01*
X121418000Y-125524750D02*
X121418000Y-126037250D01*
G75*
G02*
X121199250Y-126256000I-218750J0D01*
G01*
X120761750Y-126256000D01*
G75*
G02*
X120543000Y-126037250I0J218750D01*
G01*
X120543000Y-125524750D01*
G75*
G02*
X120761750Y-125306000I218750J0D01*
G01*
X121199250Y-125306000D01*
G75*
G02*
X121418000Y-125524750I0J-218750D01*
G01*
G37*
G04 #@! TD.AperFunction*
G04 #@! TA.AperFunction,SMDPad,CuDef*
G36*
G01*
X119843000Y-124000750D02*
X119843000Y-124513250D01*
G75*
G02*
X119624250Y-124732000I-218750J0D01*
G01*
X119186750Y-124732000D01*
G75*
G02*
X118968000Y-124513250I0J218750D01*
G01*
X118968000Y-124000750D01*
G75*
G02*
X119186750Y-123782000I218750J0D01*
G01*
X119624250Y-123782000D01*
G75*
G02*
X119843000Y-124000750I0J-218750D01*
G01*
G37*
G04 #@! TD.AperFunction*
G04 #@! TA.AperFunction,SMDPad,CuDef*
G36*
G01*
X121418000Y-124000750D02*
X121418000Y-124513250D01*
G75*
G02*
X121199250Y-124732000I-218750J0D01*
G01*
X120761750Y-124732000D01*
G75*
G02*
X120543000Y-124513250I0J218750D01*
G01*
X120543000Y-124000750D01*
G75*
G02*
X120761750Y-123782000I218750J0D01*
G01*
X121199250Y-123782000D01*
G75*
G02*
X121418000Y-124000750I0J-218750D01*
G01*
G37*
G04 #@! TD.AperFunction*
G04 #@! TA.AperFunction,SMDPad,CuDef*
G36*
G01*
X148164000Y-119936750D02*
X148164000Y-120449250D01*
G75*
G02*
X147945250Y-120668000I-218750J0D01*
G01*
X147507750Y-120668000D01*
G75*
G02*
X147289000Y-120449250I0J218750D01*
G01*
X147289000Y-119936750D01*
G75*
G02*
X147507750Y-119718000I218750J0D01*
G01*
X147945250Y-119718000D01*
G75*
G02*
X148164000Y-119936750I0J-218750D01*
G01*
G37*
G04 #@! TD.AperFunction*
G04 #@! TA.AperFunction,SMDPad,CuDef*
G36*
G01*
X149739000Y-119936750D02*
X149739000Y-120449250D01*
G75*
G02*
X149520250Y-120668000I-218750J0D01*
G01*
X149082750Y-120668000D01*
G75*
G02*
X148864000Y-120449250I0J218750D01*
G01*
X148864000Y-119936750D01*
G75*
G02*
X149082750Y-119718000I218750J0D01*
G01*
X149520250Y-119718000D01*
G75*
G02*
X149739000Y-119936750I0J-218750D01*
G01*
G37*
G04 #@! TD.AperFunction*
G04 #@! TA.AperFunction,SMDPad,CuDef*
G36*
G01*
X144292000Y-120449250D02*
X144292000Y-119936750D01*
G75*
G02*
X144510750Y-119718000I218750J0D01*
G01*
X144948250Y-119718000D01*
G75*
G02*
X145167000Y-119936750I0J-218750D01*
G01*
X145167000Y-120449250D01*
G75*
G02*
X144948250Y-120668000I-218750J0D01*
G01*
X144510750Y-120668000D01*
G75*
G02*
X144292000Y-120449250I0J218750D01*
G01*
G37*
G04 #@! TD.AperFunction*
G04 #@! TA.AperFunction,SMDPad,CuDef*
G36*
G01*
X142717000Y-120449250D02*
X142717000Y-119936750D01*
G75*
G02*
X142935750Y-119718000I218750J0D01*
G01*
X143373250Y-119718000D01*
G75*
G02*
X143592000Y-119936750I0J-218750D01*
G01*
X143592000Y-120449250D01*
G75*
G02*
X143373250Y-120668000I-218750J0D01*
G01*
X142935750Y-120668000D01*
G75*
G02*
X142717000Y-120449250I0J218750D01*
G01*
G37*
G04 #@! TD.AperFunction*
D17*
X131550000Y-140750000D03*
X131550000Y-136350000D03*
X132350000Y-136350000D03*
X132350000Y-140750000D03*
X130750000Y-140750000D03*
X130750000Y-136350000D03*
X129950000Y-136350000D03*
X129950000Y-140750000D03*
X129150000Y-136350000D03*
X129150000Y-140750000D03*
X128350000Y-140750000D03*
X128350000Y-136350000D03*
X127550000Y-140750000D03*
X127550000Y-136350000D03*
X126750000Y-136350000D03*
X126750000Y-140750000D03*
X125950000Y-136350000D03*
X125950000Y-140750000D03*
X125150000Y-136350000D03*
X125150000Y-140750000D03*
X124350000Y-136350000D03*
X124350000Y-140750000D03*
X123550000Y-140750000D03*
X123550000Y-136350000D03*
X122750000Y-140750000D03*
X122750000Y-136350000D03*
X121950000Y-140750000D03*
X121950000Y-136350000D03*
X121150000Y-136350000D03*
X121150000Y-140750000D03*
X139550000Y-140750000D03*
X144350000Y-140750000D03*
X134750000Y-136350000D03*
X140350000Y-136350000D03*
X142750000Y-136350000D03*
X144350000Y-136350000D03*
X141150000Y-136350000D03*
X140350000Y-140750000D03*
X138750000Y-140750000D03*
X138750000Y-136350000D03*
X142750000Y-140750000D03*
X143550000Y-136350000D03*
X133150000Y-140750000D03*
X135550000Y-136350000D03*
X134750000Y-140750000D03*
X141950000Y-140750000D03*
X135550000Y-140750000D03*
X137150000Y-140750000D03*
X141150000Y-140750000D03*
X133950000Y-140750000D03*
X139550000Y-136350000D03*
X136350000Y-136350000D03*
X137150000Y-136350000D03*
X133150000Y-136350000D03*
X136350000Y-140750000D03*
X137950000Y-140750000D03*
X137950000Y-136350000D03*
X133950000Y-136350000D03*
X141950000Y-136350000D03*
X143550000Y-140750000D03*
D18*
X110000000Y-106250000D03*
X110000000Y-101750000D03*
X112000000Y-101750000D03*
X114000000Y-101750000D03*
X116000000Y-101750000D03*
X118000000Y-101750000D03*
X120000000Y-101750000D03*
X122000000Y-101750000D03*
X124000000Y-101750000D03*
X126000000Y-101750000D03*
X128000000Y-101750000D03*
X130000000Y-101750000D03*
X132000000Y-101750000D03*
X134000000Y-101750000D03*
X136000000Y-101750000D03*
X138000000Y-101750000D03*
X140000000Y-101750000D03*
X142000000Y-101750000D03*
X144000000Y-101750000D03*
X146000000Y-101750000D03*
X148000000Y-101750000D03*
X112000000Y-106250000D03*
X114000000Y-106250000D03*
X116000000Y-106250000D03*
X118000000Y-106250000D03*
X120000000Y-106250000D03*
X122000000Y-106250000D03*
X124000000Y-106250000D03*
X126000000Y-106250000D03*
X128000000Y-106250000D03*
X130000000Y-106250000D03*
X132000000Y-106250000D03*
X134000000Y-106250000D03*
X136000000Y-106250000D03*
X138000000Y-106250000D03*
X140000000Y-106250000D03*
X142000000Y-106250000D03*
X144000000Y-106250000D03*
X146000000Y-106250000D03*
X148000000Y-106250000D03*
D19*
X120840500Y-133477000D03*
X142938500Y-130302000D03*
X117157500Y-117538500D03*
X118364000Y-117538500D03*
X117157500Y-125031500D03*
X118364000Y-125031500D03*
X132334000Y-130937000D03*
X108775500Y-101346000D03*
X108775500Y-106616500D03*
X149225000Y-101409500D03*
X149225000Y-106553000D03*
X103949500Y-130873500D03*
X101409500Y-132080000D03*
X106680000Y-132080000D03*
X117665500Y-147891500D03*
X118681500Y-141732000D03*
X122745500Y-137985500D03*
X125158500Y-137985500D03*
X125984000Y-139128500D03*
X127571500Y-137985500D03*
X128397000Y-139128500D03*
X129984500Y-137985500D03*
X132397500Y-137985500D03*
X133159500Y-139128500D03*
X136398000Y-137985500D03*
X137985500Y-139128500D03*
X138747500Y-137985500D03*
X140398500Y-139128500D03*
X141160500Y-137985500D03*
X142748000Y-139128500D03*
X143573500Y-137985500D03*
X159512000Y-102108000D03*
X164655500Y-102108000D03*
X169227500Y-103187500D03*
X169227500Y-105473500D03*
X145923000Y-118300500D03*
X145859500Y-120205500D03*
X146685000Y-120967500D03*
X145859500Y-125666500D03*
X145859500Y-127952500D03*
X147701000Y-127952500D03*
X147701000Y-118300500D03*
X157734000Y-139954000D03*
X157099000Y-146177000D03*
X149352000Y-151701500D03*
X150812500Y-150304500D03*
X166835100Y-144780000D03*
X164465000Y-152336500D03*
X165925500Y-152336500D03*
X167386000Y-152336500D03*
X168846500Y-152336500D03*
X170751500Y-148526500D03*
X173291500Y-137795000D03*
X173291500Y-139319000D03*
X174815500Y-141414500D03*
X174815500Y-142938500D03*
X174815500Y-144462500D03*
X174815500Y-145986500D03*
X179641500Y-151193500D03*
X115062000Y-139255500D03*
X150558500Y-118237000D03*
X148272500Y-150749000D03*
X147896791Y-109606290D03*
X144843500Y-109600999D03*
X162115500Y-144589500D03*
X162115500Y-143700500D03*
X162115500Y-142826200D03*
X159829500Y-135953500D03*
X160167600Y-147256500D03*
X142113000Y-119253000D03*
X121094500Y-112649000D03*
X143256000Y-128968500D03*
X149161500Y-128841500D03*
X130175000Y-139128500D03*
X136144000Y-139128500D03*
X163703000Y-135382000D03*
X161480500Y-152336500D03*
X162941000Y-152336500D03*
X142125500Y-116764000D03*
X147002500Y-106426000D03*
X123126500Y-106489500D03*
X125095000Y-106489500D03*
X127127000Y-106489500D03*
X129095500Y-106489500D03*
X111061500Y-101600000D03*
X113093500Y-101600000D03*
X145224500Y-104076500D03*
X143891000Y-104076500D03*
X116903500Y-138938000D03*
X114109500Y-137985500D03*
X131127500Y-101663500D03*
X131127500Y-106489500D03*
X115062000Y-101600000D03*
X117094000Y-101600000D03*
X119126000Y-101663500D03*
X121094500Y-101663500D03*
X123126500Y-101600000D03*
X125095000Y-101663500D03*
X127127000Y-101663500D03*
X129095500Y-101663500D03*
X133096000Y-101600000D03*
X135064500Y-101600000D03*
X137096500Y-101600000D03*
X139065000Y-101600000D03*
X141097000Y-101600000D03*
X119126000Y-106489500D03*
X121094500Y-106489500D03*
X133096000Y-106489500D03*
X135128000Y-106489500D03*
X137096500Y-106489500D03*
X139128500Y-106489500D03*
X141414500Y-104313000D03*
X111061500Y-106489500D03*
X113093500Y-106489500D03*
X115125500Y-106489500D03*
X117094000Y-106489500D03*
X131572000Y-139128500D03*
X133159500Y-142875000D03*
X118161000Y-114605000D03*
X123380500Y-115252500D03*
X118161000Y-115557500D03*
X123380500Y-116586000D03*
X123444000Y-119189500D03*
X123507500Y-121221500D03*
X123571000Y-123380500D03*
X123558500Y-125273000D03*
X121971000Y-127051000D03*
X121145500Y-128892500D03*
X145859500Y-123952000D03*
X121094500Y-109855000D03*
X146494500Y-135699500D03*
X144399000Y-142359100D03*
X144843500Y-145206999D03*
X134734500Y-134671000D03*
X141041400Y-125240378D03*
X142875000Y-132715000D03*
X146685000Y-123317000D03*
X135496500Y-133782000D03*
X134747000Y-139128500D03*
X137858500Y-143700500D03*
X133621430Y-142281090D03*
X141414500Y-124587000D03*
X141986000Y-121983500D03*
X133123447Y-133672500D03*
X120840500Y-132207000D03*
X136588500Y-143700500D03*
X141541500Y-122618500D03*
X133909000Y-133337500D03*
X120840500Y-131064000D03*
X142875000Y-131699000D03*
X121094500Y-111125000D03*
X145542000Y-136271000D03*
X143510000Y-142359100D03*
X143700500Y-144589500D03*
X172148500Y-140398500D03*
X104965500Y-149860000D03*
X114617500Y-149796500D03*
X115697000Y-151066500D03*
X146748500Y-150749000D03*
X133858000Y-130937000D03*
X162623500Y-148590000D03*
X166151576Y-148598708D03*
X150558500Y-110807500D03*
X150495000Y-120332500D03*
X171005500Y-145669000D03*
X159639000Y-144018000D03*
X150639410Y-141224000D03*
X159829500Y-137287000D03*
X119570500Y-129730500D03*
X149542500Y-130365500D03*
X148653500Y-134239000D03*
X160020000Y-149352000D03*
X168465500Y-147510500D03*
X113538000Y-117538500D03*
X113575040Y-124994460D03*
X114427000Y-112649000D03*
X116776500Y-129794000D03*
X114181134Y-133706056D03*
X109791500Y-108839000D03*
X111061500Y-108839000D03*
X115443000Y-108585000D03*
X118097500Y-119367500D03*
X118097500Y-120510500D03*
X118161000Y-122098000D03*
X118161000Y-123114000D03*
X118097500Y-126987500D03*
X118542000Y-127813000D03*
X167576500Y-148590000D03*
X166751000Y-146240500D03*
X165798500Y-146240500D03*
X164846000Y-148590000D03*
X164020500Y-148590000D03*
X163449000Y-146240500D03*
X162433000Y-146240500D03*
X161163000Y-148590000D03*
X149523420Y-132734080D03*
X149542500Y-131699000D03*
X169545000Y-141015000D03*
X169545000Y-142326200D03*
X145415000Y-134048500D03*
X121983500Y-117538500D03*
X121983500Y-125031500D03*
X142113000Y-110553500D03*
X120078500Y-108585000D03*
X141986000Y-120713500D03*
X116078000Y-134810500D03*
X147764500Y-128905000D03*
X116311725Y-113794994D03*
X144970500Y-106426000D03*
X157924500Y-148082000D03*
X156457147Y-148056970D03*
X114427000Y-111061500D03*
X114427000Y-109855000D03*
X145732500Y-121475500D03*
X150495000Y-121856500D03*
X141922500Y-125920500D03*
X141605332Y-126713421D03*
X141922500Y-127508000D03*
X141224000Y-111696500D03*
X150558500Y-112204500D03*
X142113000Y-117983000D03*
X114173000Y-132207000D03*
X114173000Y-130873500D03*
X146367500Y-115252500D03*
X146367500Y-116776500D03*
D20*
X120472000Y-133845500D02*
X120840500Y-133477000D01*
X119837500Y-133845500D02*
X120472000Y-133845500D01*
D21*
X143268500Y-129972000D02*
X142938500Y-130302000D01*
X143916500Y-129972000D02*
X143268500Y-129972000D01*
D22*
X116383000Y-116764000D02*
X117157500Y-117538500D01*
X116154500Y-116764000D02*
X116383000Y-116764000D01*
X116408000Y-118288000D02*
X117157500Y-117538500D01*
X116154500Y-118288000D02*
X116408000Y-118288000D01*
X119405500Y-116764000D02*
X119138500Y-116764000D01*
X119138500Y-116764000D02*
X118364000Y-117538500D01*
X119113500Y-118288000D02*
X118364000Y-117538500D01*
X119405500Y-118288000D02*
X119113500Y-118288000D01*
X116383000Y-124257000D02*
X117157500Y-125031500D01*
X116154500Y-124257000D02*
X116383000Y-124257000D01*
X116408000Y-125781000D02*
X117157500Y-125031500D01*
X116154500Y-125781000D02*
X116408000Y-125781000D01*
X119405500Y-125781000D02*
X119113500Y-125781000D01*
X119113500Y-125781000D02*
X118364000Y-125031500D01*
X119138500Y-124257000D02*
X118364000Y-125031500D01*
X119405500Y-124257000D02*
X119138500Y-124257000D01*
D23*
X131813500Y-129299000D02*
X132308500Y-129794000D01*
X131813500Y-127843000D02*
X131813500Y-129299000D01*
X132308500Y-129794000D02*
X132308500Y-130911500D01*
X132308500Y-130911500D02*
X132334000Y-130937000D01*
X109179500Y-101750000D02*
X108775500Y-101346000D01*
X110000000Y-101750000D02*
X109179500Y-101750000D01*
X109142000Y-106250000D02*
X108775500Y-106616500D01*
X110000000Y-106250000D02*
X109142000Y-106250000D01*
X148884500Y-101750000D02*
X149225000Y-101409500D01*
X148000000Y-101750000D02*
X148884500Y-101750000D01*
X148922000Y-106250000D02*
X149225000Y-106553000D01*
X148000000Y-106250000D02*
X148922000Y-106250000D01*
D22*
X122750000Y-136350000D02*
X122750000Y-137981000D01*
X122750000Y-137981000D02*
X122745500Y-137985500D01*
X125150000Y-136350000D02*
X125150000Y-137977000D01*
X125150000Y-137977000D02*
X125158500Y-137985500D01*
X125950000Y-140750000D02*
X125950000Y-139162500D01*
X125950000Y-139162500D02*
X125984000Y-139128500D01*
X127550000Y-136350000D02*
X127550000Y-137964000D01*
X127550000Y-137964000D02*
X127571500Y-137985500D01*
X128350000Y-140750000D02*
X128350000Y-139175500D01*
X128350000Y-139175500D02*
X128397000Y-139128500D01*
X129950000Y-136350000D02*
X129950000Y-137951000D01*
X129950000Y-137951000D02*
X129984500Y-137985500D01*
X132350000Y-136350000D02*
X132350000Y-137938000D01*
X132350000Y-137938000D02*
X132397500Y-137985500D01*
X133150000Y-140750000D02*
X133150000Y-139138000D01*
X133150000Y-139138000D02*
X133159500Y-139128500D01*
X136350000Y-136350000D02*
X136350000Y-137937500D01*
X136350000Y-137937500D02*
X136398000Y-137985500D01*
X137950000Y-140750000D02*
X137950000Y-139164000D01*
X137950000Y-139164000D02*
X137985500Y-139128500D01*
X138750000Y-136350000D02*
X138750000Y-137983000D01*
X138750000Y-137983000D02*
X138747500Y-137985500D01*
X140350000Y-140750000D02*
X140350000Y-139177000D01*
X140350000Y-139177000D02*
X140398500Y-139128500D01*
X141150000Y-136350000D02*
X141150000Y-137975000D01*
X141150000Y-137975000D02*
X141160500Y-137985500D01*
X142750000Y-140750000D02*
X142750000Y-139130500D01*
X142750000Y-139130500D02*
X142748000Y-139128500D01*
X143550000Y-136350000D02*
X143550000Y-137962000D01*
X143550000Y-137962000D02*
X143573500Y-137985500D01*
D20*
X147853500Y-110541000D02*
X147853500Y-110066000D01*
D23*
X144856500Y-112065000D02*
X144856500Y-110541000D01*
X147853500Y-112065000D02*
X147853500Y-110541000D01*
X144856500Y-118288000D02*
X145910500Y-118288000D01*
X145910500Y-118288000D02*
X145923000Y-118300500D01*
X144729500Y-120193000D02*
X145847000Y-120193000D01*
X145847000Y-120193000D02*
X145859500Y-120205500D01*
X147726500Y-120193000D02*
X147459500Y-120193000D01*
X147459500Y-120193000D02*
X146685000Y-120967500D01*
X147434500Y-121717000D02*
X146685000Y-120967500D01*
X147726500Y-121717000D02*
X147434500Y-121717000D01*
X144729500Y-124892000D02*
X145085000Y-124892000D01*
X145085000Y-124892000D02*
X145859500Y-125666500D01*
X145110000Y-126416000D02*
X145859500Y-125666500D01*
X144729500Y-126416000D02*
X145110000Y-126416000D01*
X144729500Y-127940000D02*
X145847000Y-127940000D01*
X145847000Y-127940000D02*
X145859500Y-127952500D01*
D20*
X147853500Y-110066000D02*
X147853500Y-109649581D01*
X147853500Y-109649581D02*
X147896791Y-109606290D01*
X144856500Y-110541000D02*
X144856500Y-109613999D01*
X144856500Y-109613999D02*
X144843500Y-109600999D01*
D21*
X121043500Y-112700000D02*
X121094500Y-112649000D01*
X120091500Y-112700000D02*
X121043500Y-112700000D01*
D22*
X135550000Y-140750000D02*
X135550000Y-139722500D01*
X130750000Y-140750000D02*
X130750000Y-139703500D01*
X130750000Y-139703500D02*
X130175000Y-139128500D01*
X135550000Y-139722500D02*
X136144000Y-139128500D01*
D20*
X143281500Y-115240000D02*
X143078000Y-115240000D01*
D23*
X143281500Y-115240000D02*
X143281500Y-116764000D01*
X143281500Y-116764000D02*
X142125500Y-116764000D01*
X146826500Y-106250000D02*
X147002500Y-106426000D01*
X146000000Y-106250000D02*
X146826500Y-106250000D01*
X123366000Y-106250000D02*
X123126500Y-106489500D01*
X124000000Y-106250000D02*
X123366000Y-106250000D01*
X125334500Y-106250000D02*
X125095000Y-106489500D01*
X126000000Y-106250000D02*
X125334500Y-106250000D01*
X127366500Y-106250000D02*
X127127000Y-106489500D01*
X128000000Y-106250000D02*
X127366500Y-106250000D01*
X129335000Y-106250000D02*
X129095500Y-106489500D01*
X130000000Y-106250000D02*
X129335000Y-106250000D01*
X111211500Y-101750000D02*
X111061500Y-101600000D01*
X112000000Y-101750000D02*
X111211500Y-101750000D01*
X113243500Y-101750000D02*
X113093500Y-101600000D01*
X114000000Y-101750000D02*
X113243500Y-101750000D01*
X146000000Y-103301000D02*
X145224500Y-104076500D01*
X146000000Y-101750000D02*
X146000000Y-103301000D01*
X144000000Y-103967500D02*
X143891000Y-104076500D01*
X144000000Y-101750000D02*
X144000000Y-103967500D01*
X131214000Y-101750000D02*
X131127500Y-101663500D01*
X132000000Y-101750000D02*
X131214000Y-101750000D01*
X131367000Y-106250000D02*
X131127500Y-106489500D01*
X132000000Y-106250000D02*
X131367000Y-106250000D01*
X115212000Y-101750000D02*
X115062000Y-101600000D01*
X116000000Y-101750000D02*
X115212000Y-101750000D01*
X117244000Y-101750000D02*
X117094000Y-101600000D01*
X118000000Y-101750000D02*
X117244000Y-101750000D01*
X119212500Y-101750000D02*
X119126000Y-101663500D01*
X120000000Y-101750000D02*
X119212500Y-101750000D01*
X121181000Y-101750000D02*
X121094500Y-101663500D01*
X122000000Y-101750000D02*
X121181000Y-101750000D01*
X123276500Y-101750000D02*
X123126500Y-101600000D01*
X124000000Y-101750000D02*
X123276500Y-101750000D01*
X125181500Y-101750000D02*
X125095000Y-101663500D01*
X126000000Y-101750000D02*
X125181500Y-101750000D01*
X127213500Y-101750000D02*
X127127000Y-101663500D01*
X128000000Y-101750000D02*
X127213500Y-101750000D01*
X129182000Y-101750000D02*
X129095500Y-101663500D01*
X130000000Y-101750000D02*
X129182000Y-101750000D01*
X133246000Y-101750000D02*
X133096000Y-101600000D01*
X134000000Y-101750000D02*
X133246000Y-101750000D01*
X135214500Y-101750000D02*
X135064500Y-101600000D01*
X136000000Y-101750000D02*
X135214500Y-101750000D01*
X137246500Y-101750000D02*
X137096500Y-101600000D01*
X138000000Y-101750000D02*
X137246500Y-101750000D01*
X139215000Y-101750000D02*
X139065000Y-101600000D01*
X140000000Y-101750000D02*
X139215000Y-101750000D01*
X141247000Y-101750000D02*
X141097000Y-101600000D01*
X142000000Y-101750000D02*
X141247000Y-101750000D01*
X119365500Y-106250000D02*
X119126000Y-106489500D01*
X120000000Y-106250000D02*
X119365500Y-106250000D01*
X121334000Y-106250000D02*
X121094500Y-106489500D01*
X122000000Y-106250000D02*
X121334000Y-106250000D01*
X133335500Y-106250000D02*
X133096000Y-106489500D01*
X134000000Y-106250000D02*
X133335500Y-106250000D01*
X135367500Y-106250000D02*
X135128000Y-106489500D01*
X136000000Y-106250000D02*
X135367500Y-106250000D01*
X137336000Y-106250000D02*
X137096500Y-106489500D01*
X138000000Y-106250000D02*
X137336000Y-106250000D01*
X139368000Y-106250000D02*
X139128500Y-106489500D01*
X140000000Y-106250000D02*
X139368000Y-106250000D01*
X142000000Y-106250000D02*
X142000000Y-104898500D01*
X142000000Y-104898500D02*
X141414500Y-104313000D01*
X111301000Y-106250000D02*
X111061500Y-106489500D01*
X112000000Y-106250000D02*
X111301000Y-106250000D01*
X113333000Y-106250000D02*
X113093500Y-106489500D01*
X114000000Y-106250000D02*
X113333000Y-106250000D01*
X115365000Y-106250000D02*
X115125500Y-106489500D01*
X116000000Y-106250000D02*
X115365000Y-106250000D01*
X117333500Y-106250000D02*
X117094000Y-106489500D01*
X118000000Y-106250000D02*
X117333500Y-106250000D01*
D20*
X131572000Y-140728000D02*
X131550000Y-140750000D01*
X131550000Y-140750000D02*
X131550000Y-139150500D01*
X131550000Y-139150500D02*
X131572000Y-139128500D01*
D24*
X131550000Y-134849999D02*
X131353200Y-134653199D01*
X131550000Y-136350000D02*
X131550000Y-134849999D01*
X131191000Y-132968163D02*
X131191000Y-132527100D01*
X131353200Y-133130363D02*
X131191000Y-132968163D01*
X131353200Y-134653199D02*
X131353200Y-133130363D01*
D20*
X132350000Y-142065500D02*
X133159500Y-142875000D01*
X132350000Y-140750000D02*
X132350000Y-142065500D01*
D24*
X130750000Y-136350000D02*
X130750000Y-134849999D01*
X130750000Y-134849999D02*
X130946800Y-134653199D01*
X130903632Y-133255532D02*
X130175200Y-132527100D01*
X130946800Y-134653199D02*
X130946800Y-133298700D01*
X130946800Y-133298700D02*
X130903632Y-133255532D01*
D20*
X113843000Y-114605000D02*
X118161000Y-114605000D01*
X129950000Y-142948000D02*
X126098500Y-146799500D01*
X113970000Y-146799500D02*
X107569000Y-140398500D01*
X107569000Y-140398500D02*
X107569000Y-120879000D01*
X129950000Y-140750000D02*
X129950000Y-142948000D01*
X126098500Y-146799500D02*
X113970000Y-146799500D01*
X107569000Y-120879000D02*
X113843000Y-114605000D01*
X129150000Y-136350000D02*
X129150000Y-121022000D01*
X129150000Y-121022000D02*
X123380500Y-115252500D01*
X113970000Y-115557500D02*
X118161000Y-115557500D01*
X129150000Y-142605000D02*
X125717500Y-146037500D01*
X125717500Y-146037500D02*
X114287500Y-146037500D01*
X108204010Y-121323490D02*
X113970000Y-115557500D01*
X129150000Y-140750000D02*
X129150000Y-142605000D01*
X108204010Y-139954010D02*
X108204010Y-121323490D01*
X114287500Y-146037500D02*
X108204010Y-139954010D01*
X128350000Y-136350000D02*
X128350000Y-122000000D01*
X128350000Y-122000000D02*
X128350000Y-121555500D01*
X128350000Y-121555500D02*
X123380500Y-116586000D01*
X126750000Y-136350000D02*
X126750000Y-122559000D01*
X126750000Y-122559000D02*
X126733500Y-122542500D01*
X126750000Y-122559000D02*
X126750000Y-122495500D01*
X126750000Y-122495500D02*
X123444000Y-119189500D01*
X125950000Y-136350000D02*
X125950000Y-123791000D01*
X125950000Y-123791000D02*
X125908000Y-123749000D01*
X125950000Y-123791000D02*
X125950000Y-123664000D01*
X125950000Y-123664000D02*
X123507500Y-121221500D01*
X124350000Y-136350000D02*
X124350000Y-124350000D01*
X124350000Y-124350000D02*
X124350000Y-124159500D01*
X124350000Y-124159500D02*
X123571000Y-123380500D01*
X123550000Y-136350000D02*
X123550000Y-125281500D01*
X123550000Y-125281500D02*
X123558500Y-125273000D01*
D22*
X121950000Y-127072000D02*
X121971000Y-127051000D01*
D20*
X122270999Y-127350999D02*
X121971000Y-127051000D01*
X121950000Y-134717000D02*
X122270999Y-134396001D01*
X122270999Y-134396001D02*
X122270999Y-127350999D01*
X121950000Y-136350000D02*
X121950000Y-134717000D01*
X121150000Y-128897000D02*
X121145500Y-128892500D01*
X121150000Y-136350000D02*
X121150000Y-134437500D01*
X121445499Y-129192499D02*
X121145500Y-128892500D01*
X121521501Y-129268501D02*
X121445499Y-129192499D01*
X121521501Y-134065999D02*
X121521501Y-129268501D01*
X121150000Y-134437500D02*
X121521501Y-134065999D01*
X146050000Y-123952000D02*
X145859500Y-123952000D01*
X150558500Y-128460500D02*
X146050000Y-123952000D01*
X150558500Y-134239000D02*
X150558500Y-128460500D01*
X147320000Y-135572500D02*
X147955000Y-134937500D01*
X147955000Y-134937500D02*
X149987000Y-134937500D01*
X147320000Y-137096500D02*
X147320000Y-135572500D01*
X148209000Y-137985500D02*
X147320000Y-137096500D01*
X139550000Y-140750000D02*
X139550000Y-142471000D01*
X149987000Y-134937500D02*
X150558500Y-134239000D01*
X139550000Y-142471000D02*
X140017500Y-142938500D01*
X148209000Y-139573000D02*
X144843500Y-142938500D01*
X140017500Y-142938500D02*
X144843500Y-142938500D01*
X148209000Y-137985500D02*
X148209000Y-139573000D01*
X144350000Y-139343000D02*
X144350000Y-140750000D01*
X146482000Y-137211000D02*
X144350000Y-139343000D01*
X120891500Y-109652000D02*
X121094500Y-109855000D01*
X120091500Y-109652000D02*
X120891500Y-109652000D01*
X146482000Y-137211000D02*
X146482000Y-135712000D01*
X146482000Y-135712000D02*
X146494500Y-135699500D01*
X153733500Y-142430500D02*
X153733500Y-109982000D01*
X144843500Y-145161000D02*
X151003000Y-145161000D01*
X151003000Y-145161000D02*
X153733500Y-142430500D01*
X121094500Y-109855000D02*
X121539000Y-109855000D01*
X121539000Y-109855000D02*
X123063000Y-108331000D01*
X152082500Y-108331000D02*
X152146000Y-108394500D01*
X123063000Y-108331000D02*
X152082500Y-108331000D01*
X153733500Y-109982000D02*
X152146000Y-108394500D01*
X144350000Y-140750000D02*
X144350000Y-142310100D01*
X144350000Y-142310100D02*
X144399000Y-142359100D01*
X134734500Y-136334500D02*
X134750000Y-136350000D01*
X134734500Y-134671000D02*
X134734500Y-136334500D01*
X140989000Y-125222000D02*
X141033500Y-125222000D01*
X140350000Y-125461000D02*
X140589000Y-125222000D01*
X140342479Y-126082756D02*
X140350000Y-126016000D01*
X140320291Y-126146165D02*
X140342479Y-126082756D01*
X140284550Y-126203046D02*
X140320291Y-126146165D01*
X140116757Y-126308478D02*
X140180166Y-126286290D01*
X140050000Y-126316000D02*
X140116757Y-126308478D01*
X139519835Y-126345709D02*
X139583244Y-126323521D01*
X139462954Y-126381450D02*
X139519835Y-126345709D01*
X139415451Y-126428953D02*
X139462954Y-126381450D01*
X139379710Y-126485834D02*
X139415451Y-126428953D01*
X139357522Y-126682756D02*
X139350000Y-126616000D01*
X139379710Y-126746165D02*
X139357522Y-126682756D01*
X139415451Y-126803046D02*
X139379710Y-126746165D01*
X139462954Y-126850549D02*
X139415451Y-126803046D01*
X139650000Y-126916000D02*
X139583244Y-126908478D01*
X140850000Y-126916000D02*
X139650000Y-126916000D01*
X140916756Y-126923521D02*
X140850000Y-126916000D01*
X141037046Y-126981450D02*
X140980165Y-126945709D01*
X141142478Y-127149243D02*
X141120290Y-127085834D01*
X141150000Y-127216000D02*
X141142478Y-127149243D01*
X141142478Y-127282756D02*
X141150000Y-127216000D01*
X140980165Y-127486290D02*
X141037046Y-127450549D01*
X140916756Y-127508478D02*
X140980165Y-127486290D01*
X140850000Y-127516000D02*
X140916756Y-127508478D01*
X139650000Y-127516000D02*
X140850000Y-127516000D01*
X139415451Y-127628953D02*
X139462954Y-127581450D01*
X139379710Y-127685834D02*
X139415451Y-127628953D01*
X139379710Y-127946165D02*
X139357522Y-127882756D01*
X139519835Y-128086290D02*
X139462954Y-128050549D01*
X141237046Y-128181450D02*
X141180165Y-128145709D01*
X141284549Y-128228953D02*
X141237046Y-128181450D01*
X141320290Y-128285834D02*
X141284549Y-128228953D01*
X141342478Y-128349243D02*
X141320290Y-128285834D01*
X141320290Y-132146165D02*
X141342478Y-132082756D01*
X139583244Y-126908478D02*
X139519835Y-126886290D01*
X141320290Y-134546165D02*
X141342478Y-134482756D01*
X139350000Y-132616000D02*
X139357522Y-132549243D01*
X139357522Y-132682756D02*
X139350000Y-132616000D01*
X139712954Y-134050549D02*
X139665451Y-134003046D01*
X141237046Y-131050549D02*
X141284549Y-131003046D01*
X139462954Y-132850549D02*
X139415451Y-132803046D01*
X140180166Y-126286290D02*
X140237047Y-126250549D01*
X141237046Y-132250549D02*
X141284549Y-132203046D01*
X141180165Y-131086290D02*
X141237046Y-131050549D01*
X141116756Y-132923521D02*
X141050000Y-132916000D01*
X141180165Y-132945709D02*
X141116756Y-132923521D01*
X141342478Y-132082756D02*
X141350000Y-132016000D01*
X141050000Y-134716000D02*
X141116756Y-134708478D01*
X140980165Y-126945709D02*
X140916756Y-126923521D01*
X141284549Y-133028953D02*
X141237046Y-132981450D01*
X141320290Y-133085834D02*
X141284549Y-133028953D01*
X141320290Y-133346165D02*
X141342478Y-133282756D01*
X141116756Y-128123521D02*
X141050000Y-128116000D01*
X141284549Y-129428953D02*
X141237046Y-129381450D01*
X141237046Y-133450549D02*
X141284549Y-133403046D01*
X141116756Y-129908478D02*
X141180165Y-129886290D01*
X141284549Y-133403046D02*
X141320290Y-133346165D01*
X141284549Y-134228953D02*
X141237046Y-134181450D01*
X141180165Y-133486290D02*
X141237046Y-133450549D01*
X141284549Y-132203046D02*
X141320290Y-132146165D01*
X141116756Y-133508478D02*
X141180165Y-133486290D01*
X139415451Y-128003046D02*
X139379710Y-127946165D01*
X141342478Y-131949243D02*
X141320290Y-131885834D01*
X139462954Y-131650549D02*
X139415451Y-131603046D01*
X139769835Y-133545709D02*
X139833244Y-133523521D01*
X139350000Y-129016000D02*
X139357522Y-128949243D01*
X139519835Y-132886290D02*
X139462954Y-132850549D01*
X141237046Y-134650549D02*
X141284549Y-134603046D01*
X141350000Y-132016000D02*
X141342478Y-131949243D01*
X140519834Y-134745709D02*
X140583243Y-134723521D01*
X140462953Y-134781450D02*
X140519834Y-134745709D01*
X141180165Y-130545709D02*
X141116756Y-130523521D01*
X139665451Y-133628953D02*
X139712954Y-133581450D01*
X141320290Y-128546165D02*
X141342478Y-128482756D01*
X139650000Y-132916000D02*
X139583244Y-132908478D01*
X141284549Y-128603046D02*
X141320290Y-128546165D01*
X139379710Y-130346165D02*
X139357522Y-130282756D01*
X141120290Y-127346165D02*
X141142478Y-127282756D01*
X141180165Y-128686290D02*
X141237046Y-128650549D01*
X139357522Y-126549243D02*
X139379710Y-126485834D01*
X141180165Y-134145709D02*
X141116756Y-134123521D01*
X139357522Y-131482756D02*
X139350000Y-131416000D01*
X141342478Y-128482756D02*
X141350000Y-128416000D01*
X139665451Y-134003046D02*
X139629710Y-133946165D01*
X141284549Y-134603046D02*
X141320290Y-134546165D01*
X139607522Y-133749243D02*
X139629710Y-133685834D01*
X139650000Y-126316000D02*
X140050000Y-126316000D01*
X141050000Y-132916000D02*
X139650000Y-132916000D01*
X141320290Y-129746165D02*
X141342478Y-129682756D01*
X140350000Y-136350000D02*
X140350000Y-135016000D01*
X141120290Y-127085834D02*
X141084549Y-127028953D01*
X139607522Y-133882756D02*
X139600000Y-133816000D01*
X140379709Y-134885834D02*
X140415450Y-134828953D01*
X141342478Y-133282756D02*
X141350000Y-133216000D01*
X141116756Y-134123521D02*
X141050000Y-134116000D01*
X139350000Y-126616000D02*
X139357522Y-126549243D01*
X139415451Y-130403046D02*
X139379710Y-130346165D01*
X141237046Y-128650549D02*
X141284549Y-128603046D01*
X140589000Y-125222000D02*
X140989000Y-125222000D01*
X141116756Y-134708478D02*
X141180165Y-134686290D01*
X141237046Y-132981450D02*
X141180165Y-132945709D01*
X139415451Y-132803046D02*
X139379710Y-132746165D01*
X140415450Y-134828953D02*
X140462953Y-134781450D01*
X141284549Y-130628953D02*
X141237046Y-130581450D01*
X140350000Y-135016000D02*
X140357521Y-134949243D01*
X141050000Y-133516000D02*
X141116756Y-133508478D01*
X139462954Y-129981450D02*
X139519835Y-129945709D01*
X139583244Y-129308478D02*
X139519835Y-129286290D01*
X139583244Y-130508478D02*
X139519835Y-130486290D01*
X139833244Y-133523521D02*
X139900000Y-133516000D01*
X141050000Y-134116000D02*
X139900000Y-134116000D01*
X139519835Y-127545709D02*
X139583244Y-127523521D01*
X139379710Y-128885834D02*
X139415451Y-128828953D01*
X139519835Y-129945709D02*
X139583244Y-129923521D01*
X140237047Y-126250549D02*
X140284550Y-126203046D01*
X141180165Y-131745709D02*
X141116756Y-131723521D01*
X139462954Y-128050549D02*
X139415451Y-128003046D01*
X139712954Y-133581450D02*
X139769835Y-133545709D01*
X141350000Y-128416000D02*
X141342478Y-128349243D01*
X139357522Y-132549243D02*
X139379710Y-132485834D01*
X141284549Y-131828953D02*
X141237046Y-131781450D01*
X139833244Y-134108478D02*
X139769835Y-134086290D01*
X141180165Y-134686290D02*
X141237046Y-134650549D01*
X140357521Y-134949243D02*
X140379709Y-134885834D01*
X139357522Y-130282756D02*
X139350000Y-130216000D01*
X139629710Y-133946165D02*
X139607522Y-133882756D01*
X141180165Y-129886290D02*
X141237046Y-129850549D01*
X139519835Y-132345709D02*
X139583244Y-132323521D01*
X139583244Y-126323521D02*
X139650000Y-126316000D01*
X141237046Y-130581450D02*
X141180165Y-130545709D01*
X139350000Y-127816000D02*
X139357522Y-127749243D01*
X141116756Y-130523521D02*
X141050000Y-130516000D01*
X139415451Y-129203046D02*
X139379710Y-129146165D01*
X139629710Y-133685834D02*
X139665451Y-133628953D01*
X141342478Y-129682756D02*
X141350000Y-129616000D01*
X141320290Y-131885834D02*
X141284549Y-131828953D01*
X141116756Y-131723521D02*
X141050000Y-131716000D01*
X139600000Y-133816000D02*
X139607522Y-133749243D01*
X139462954Y-130450549D02*
X139415451Y-130403046D01*
X141284549Y-129803046D02*
X141320290Y-129746165D01*
X141350000Y-133216000D02*
X141342478Y-133149243D01*
X141050000Y-131716000D02*
X139650000Y-131716000D01*
X139583244Y-128108478D02*
X139519835Y-128086290D01*
X141116756Y-129323521D02*
X141050000Y-129316000D01*
X139583244Y-131708478D02*
X139519835Y-131686290D01*
X139357522Y-127749243D02*
X139379710Y-127685834D01*
X139583244Y-132908478D02*
X139519835Y-132886290D01*
X140583243Y-134723521D02*
X140650000Y-134716000D01*
X139379710Y-129146165D02*
X139357522Y-129082756D01*
X139519835Y-131686290D02*
X139462954Y-131650549D01*
X141084549Y-127028953D02*
X141037046Y-126981450D01*
X139415451Y-131603046D02*
X139379710Y-131546165D01*
X139379710Y-131546165D02*
X139357522Y-131482756D01*
X139350000Y-131416000D02*
X139357522Y-131349243D01*
X141342478Y-133149243D02*
X141320290Y-133085834D01*
X139650000Y-131716000D02*
X139583244Y-131708478D01*
X139462954Y-128781450D02*
X139519835Y-128745709D01*
X139379710Y-132485834D02*
X139415451Y-132428953D01*
X139357522Y-131349243D02*
X139379710Y-131285834D01*
X141342478Y-134349243D02*
X141320290Y-134285834D01*
X139415451Y-132428953D02*
X139462954Y-132381450D01*
X139379710Y-131285834D02*
X139415451Y-131228953D01*
X139769835Y-134086290D02*
X139712954Y-134050549D01*
X139462954Y-132381450D02*
X139519835Y-132345709D01*
X139415451Y-131228953D02*
X139462954Y-131181450D01*
X139415451Y-130028953D02*
X139462954Y-129981450D01*
X139462954Y-131181450D02*
X139519835Y-131145709D01*
X139650000Y-132316000D02*
X141050000Y-132316000D01*
X139583244Y-131123521D02*
X139650000Y-131116000D01*
X139519835Y-126886290D02*
X139462954Y-126850549D01*
X141050000Y-132316000D02*
X141116756Y-132308478D01*
X139650000Y-131116000D02*
X141050000Y-131116000D01*
X141116756Y-132308478D02*
X141180165Y-132286290D01*
X141050000Y-131116000D02*
X141116756Y-131108478D01*
X141180165Y-132286290D02*
X141237046Y-132250549D01*
X141116756Y-131108478D02*
X141180165Y-131086290D01*
X139357522Y-129082756D02*
X139350000Y-129016000D01*
X141284549Y-131003046D02*
X141320290Y-130946165D01*
X141342478Y-130882756D02*
X141350000Y-130816000D01*
X141237046Y-134181450D02*
X141180165Y-134145709D01*
X140650000Y-134716000D02*
X141050000Y-134716000D01*
X141350000Y-130816000D02*
X141342478Y-130749243D01*
X141342478Y-130749243D02*
X141320290Y-130685834D01*
X141320290Y-130685834D02*
X141284549Y-130628953D01*
X141180165Y-128145709D02*
X141116756Y-128123521D01*
X141237046Y-131781450D02*
X141180165Y-131745709D01*
X141320290Y-129485834D02*
X141284549Y-129428953D01*
X141050000Y-130516000D02*
X139650000Y-130516000D01*
X139650000Y-130516000D02*
X139583244Y-130508478D01*
X139650000Y-129916000D02*
X141050000Y-129916000D01*
X139519835Y-130486290D02*
X139462954Y-130450549D01*
X140350000Y-126016000D02*
X140350000Y-125461000D01*
X139350000Y-130216000D02*
X139357522Y-130149243D01*
X139357522Y-130149243D02*
X139379710Y-130085834D01*
X139379710Y-130085834D02*
X139415451Y-130028953D01*
X139583244Y-129923521D02*
X139650000Y-129916000D01*
X139379710Y-132746165D02*
X139357522Y-132682756D01*
X139900000Y-134116000D02*
X139833244Y-134108478D01*
X141050000Y-129916000D02*
X141116756Y-129908478D01*
X141237046Y-129850549D02*
X141284549Y-129803046D01*
X141350000Y-129616000D02*
X141342478Y-129549243D01*
X141342478Y-129549243D02*
X141320290Y-129485834D01*
X141050000Y-128116000D02*
X139650000Y-128116000D01*
X141350000Y-134416000D02*
X141342478Y-134349243D01*
X141237046Y-129381450D02*
X141180165Y-129345709D01*
X139650000Y-128116000D02*
X139583244Y-128108478D01*
X141180165Y-129345709D02*
X141116756Y-129323521D01*
X141342478Y-134482756D02*
X141350000Y-134416000D01*
X141320290Y-134285834D02*
X141284549Y-134228953D01*
X141050000Y-129316000D02*
X139650000Y-129316000D01*
X139650000Y-129316000D02*
X139583244Y-129308478D01*
X139519835Y-129286290D02*
X139462954Y-129250549D01*
X139357522Y-127882756D02*
X139350000Y-127816000D01*
X139462954Y-129250549D02*
X139415451Y-129203046D01*
X139462954Y-127581450D02*
X139519835Y-127545709D01*
X139357522Y-128949243D02*
X139379710Y-128885834D01*
X139583244Y-127523521D02*
X139650000Y-127516000D01*
X141320290Y-130946165D02*
X141342478Y-130882756D01*
X139415451Y-128828953D02*
X139462954Y-128781450D01*
X139519835Y-128745709D02*
X139583244Y-128723521D01*
X139583244Y-128723521D02*
X139650000Y-128716000D01*
X139650000Y-128716000D02*
X141050000Y-128716000D01*
X141037046Y-127450549D02*
X141084549Y-127403046D01*
X139900000Y-133516000D02*
X141050000Y-133516000D01*
X141050000Y-128716000D02*
X141116756Y-128708478D01*
X141084549Y-127403046D02*
X141120290Y-127346165D01*
X139583244Y-132323521D02*
X139650000Y-132316000D01*
X139519835Y-131145709D02*
X139583244Y-131123521D01*
X141116756Y-128708478D02*
X141180165Y-128686290D01*
X142799000Y-136301000D02*
X142750000Y-136350000D01*
X143180000Y-133020000D02*
X142875000Y-132715000D01*
X143891000Y-133020000D02*
X143180000Y-133020000D01*
X142750000Y-132840000D02*
X142875000Y-132715000D01*
X142750000Y-136350000D02*
X142750000Y-132840000D01*
X146685000Y-123317000D02*
X151384000Y-128016000D01*
X151384000Y-128016000D02*
X151384000Y-134683500D01*
X151384000Y-134683500D02*
X151384000Y-137604500D01*
X139382500Y-143764000D02*
X145224500Y-143764000D01*
X138750000Y-143131500D02*
X139382500Y-143764000D01*
X138750000Y-140750000D02*
X138750000Y-143131500D01*
X145224500Y-143764000D02*
X151384000Y-137604500D01*
X135496500Y-136296500D02*
X135550000Y-136350000D01*
X135496500Y-133782000D02*
X135496500Y-136296500D01*
X134747000Y-140747000D02*
X134750000Y-140750000D01*
X134750000Y-140750000D02*
X134750000Y-139131500D01*
X134750000Y-139131500D02*
X134747000Y-139128500D01*
X137150000Y-140750000D02*
X137150000Y-142992000D01*
X137150000Y-142992000D02*
X137858500Y-143700500D01*
X133950000Y-140750000D02*
X133950000Y-141957500D01*
X133950000Y-141957500D02*
X133945020Y-141957500D01*
X133945020Y-141957500D02*
X133621430Y-142281090D01*
X139550000Y-134470000D02*
X139550000Y-136350000D01*
X137858500Y-132778500D02*
X139550000Y-134470000D01*
X138684000Y-115570000D02*
X138049000Y-115570000D01*
X139001500Y-122174000D02*
X139001500Y-115887500D01*
X139697206Y-122869705D02*
X139001500Y-122174000D01*
X139783188Y-123048247D02*
X139768238Y-122982752D01*
X139783187Y-123115425D02*
X139783188Y-123048247D01*
X139739091Y-123241446D02*
X139768239Y-123180920D01*
X137858500Y-115760500D02*
X137858500Y-132778500D01*
X139414363Y-123576811D02*
X139697206Y-123293969D01*
X139372478Y-123629335D02*
X139414363Y-123576811D01*
X139343330Y-123689860D02*
X139372478Y-123629335D01*
X139328382Y-123755355D02*
X139343330Y-123689860D01*
X141232758Y-123295736D02*
X141217809Y-123230242D01*
X139768238Y-122982752D02*
X139739090Y-122922226D01*
X141217809Y-123230242D02*
X141188661Y-123169716D01*
X141188661Y-123488935D02*
X141217809Y-123428409D01*
X139768239Y-123180920D02*
X139783187Y-123115425D01*
X140775034Y-123075308D02*
X140722511Y-123117194D01*
X139466885Y-124042961D02*
X139414364Y-124001077D01*
X141217809Y-123428409D02*
X141232758Y-123362915D01*
X140970000Y-123718235D02*
X141146776Y-123541458D01*
X140928114Y-123770758D02*
X140970000Y-123718235D01*
X140898967Y-124029451D02*
X140884018Y-123963957D01*
X139414364Y-124001077D02*
X139372477Y-123948553D01*
X141414500Y-124587000D02*
X140970000Y-124142500D01*
X141146776Y-123541458D02*
X141188661Y-123488935D01*
X140928114Y-124089977D02*
X140898967Y-124029451D01*
X140901054Y-123031212D02*
X140835560Y-123046161D01*
X141188661Y-123169716D02*
X141146776Y-123117194D01*
X139372477Y-123948553D02*
X139343331Y-123888028D01*
X139001500Y-115887500D02*
X138684000Y-115570000D01*
X139739090Y-122922226D02*
X139697206Y-122869705D01*
X139697206Y-123293969D02*
X139739091Y-123241446D01*
X141232758Y-123362915D02*
X141232758Y-123295736D01*
X140884018Y-123963957D02*
X140884018Y-123896778D01*
X140898967Y-123831284D02*
X140928114Y-123770758D01*
X141146776Y-123117194D02*
X141094253Y-123075308D01*
X139592906Y-124087059D02*
X139527411Y-124072109D01*
X141094253Y-123075308D02*
X141033727Y-123046161D01*
X140884018Y-123896778D02*
X140898967Y-123831284D01*
X139328381Y-123822533D02*
X139328382Y-123755355D01*
X141033727Y-123046161D02*
X140968233Y-123031212D01*
X140968233Y-123031212D02*
X140901054Y-123031212D01*
X140835560Y-123046161D02*
X140775034Y-123075308D01*
X140722511Y-123117194D02*
X140333602Y-123506102D01*
X140333602Y-123506102D02*
X139838628Y-124001077D01*
X139343331Y-123888028D02*
X139328381Y-123822533D01*
X140970000Y-124142500D02*
X140928114Y-124089977D01*
X139838628Y-124001077D02*
X139786105Y-124042962D01*
X139786105Y-124042962D02*
X139725579Y-124072110D01*
X138049000Y-115570000D02*
X137858500Y-115760500D01*
X139725579Y-124072110D02*
X139660084Y-124087058D01*
X139660084Y-124087058D02*
X139592906Y-124087059D01*
X139527411Y-124072109D02*
X139466885Y-124042961D01*
X137150000Y-134737000D02*
X137150000Y-136350000D01*
X136144000Y-133731000D02*
X136144000Y-133794500D01*
X136144000Y-133794500D02*
X137150000Y-134737000D01*
X136144000Y-116713000D02*
X136144000Y-133794500D01*
X136144000Y-116586000D02*
X136144000Y-116713000D01*
X141986000Y-121983500D02*
X141478000Y-121983500D01*
X141478000Y-121983500D02*
X140525500Y-121031000D01*
X140525500Y-121031000D02*
X140525500Y-114427000D01*
X140525500Y-114427000D02*
X139827000Y-113728500D01*
X139827000Y-113728500D02*
X137033000Y-113728500D01*
X137033000Y-113728500D02*
X136144000Y-114617500D01*
X136144000Y-114617500D02*
X136144000Y-116713000D01*
X133147000Y-136347000D02*
X133150000Y-136350000D01*
X133123447Y-136323447D02*
X133150000Y-136350000D01*
X133123447Y-133672500D02*
X133123447Y-136323447D01*
X120726000Y-132321500D02*
X120840500Y-132207000D01*
X119837500Y-132321500D02*
X120726000Y-132321500D01*
X136350000Y-140750000D02*
X136350000Y-143462000D01*
X136350000Y-143462000D02*
X136588500Y-143700500D01*
X137950000Y-134267000D02*
X137950000Y-136350000D01*
X137033000Y-114871500D02*
X137033000Y-133350000D01*
X141033500Y-122618500D02*
X139763500Y-121348500D01*
X139446000Y-114554000D02*
X137350500Y-114554000D01*
X137033000Y-133350000D02*
X137950000Y-134267000D01*
X141414500Y-122618500D02*
X141033500Y-122618500D01*
X139763500Y-114871500D02*
X139446000Y-114554000D01*
X139763500Y-121348500D02*
X139763500Y-114871500D01*
X137350500Y-114554000D02*
X137033000Y-114871500D01*
X133909000Y-136309000D02*
X133950000Y-136350000D01*
X133909000Y-133337500D02*
X133909000Y-136309000D01*
X120574000Y-130797500D02*
X120840500Y-131064000D01*
X119837500Y-130797500D02*
X120574000Y-130797500D01*
X141910000Y-136310000D02*
X141950000Y-136350000D01*
X143078000Y-131496000D02*
X142875000Y-131699000D01*
X143916500Y-131496000D02*
X143078000Y-131496000D01*
X141950000Y-132624000D02*
X142875000Y-131699000D01*
X141950000Y-136350000D02*
X141950000Y-132624000D01*
X143550000Y-139190500D02*
X143550000Y-140750000D01*
X145529500Y-137211000D02*
X143550000Y-139190500D01*
X121043500Y-111176000D02*
X121094500Y-111125000D01*
X120091500Y-111176000D02*
X121043500Y-111176000D01*
X145529500Y-137211000D02*
X145529500Y-136283500D01*
X145529500Y-136283500D02*
X145542000Y-136271000D01*
X143738599Y-144627599D02*
X143700500Y-144589500D01*
X121793000Y-111125000D02*
X124015500Y-108902500D01*
X121094500Y-111125000D02*
X121793000Y-111125000D01*
X150520401Y-144627599D02*
X143738599Y-144627599D01*
X152971500Y-110172500D02*
X152971500Y-142176500D01*
X124015500Y-108902500D02*
X151701500Y-108902500D01*
X151701500Y-108902500D02*
X152971500Y-110172500D01*
X152971500Y-142176500D02*
X150520401Y-144627599D01*
X143550000Y-140750000D02*
X143550000Y-142319100D01*
X143550000Y-142319100D02*
X143510000Y-142359100D01*
X134353500Y-125243000D02*
X134353500Y-127843000D01*
X134353500Y-129324000D02*
X133883500Y-129794000D01*
X134353500Y-127843000D02*
X134353500Y-129324000D01*
D23*
X133883500Y-129794000D02*
X133883500Y-130911500D01*
X133883500Y-130911500D02*
X133858000Y-130937000D01*
D20*
X118262500Y-132321500D02*
X118262500Y-130797500D01*
X150292000Y-110541000D02*
X150558500Y-110807500D01*
X149428500Y-110541000D02*
X150292000Y-110541000D01*
X150355500Y-120193000D02*
X150495000Y-120332500D01*
X149301500Y-120193000D02*
X150355500Y-120193000D01*
D23*
X146964500Y-131496000D02*
X146964500Y-133020000D01*
X146964500Y-133020000D02*
X146964500Y-133495000D01*
D20*
X118262500Y-130149500D02*
X118262500Y-130797500D01*
X119570500Y-129730500D02*
X118681500Y-129730500D01*
X118681500Y-129730500D02*
X118262500Y-130149500D01*
D23*
X146964500Y-133495000D02*
X146964500Y-133566000D01*
X146964500Y-133566000D02*
X147637500Y-134239000D01*
X148539500Y-129972000D02*
X149149000Y-129972000D01*
X149149000Y-129972000D02*
X149542500Y-130365500D01*
X147637500Y-134239000D02*
X148653500Y-134239000D01*
D20*
X117043500Y-111176000D02*
X116992500Y-111176000D01*
X114312500Y-116764000D02*
X113538000Y-117538500D01*
X114579500Y-116764000D02*
X114312500Y-116764000D01*
X114287500Y-118288000D02*
X113538000Y-117538500D01*
X114579500Y-118288000D02*
X114287500Y-118288000D01*
X114312500Y-124257000D02*
X113575040Y-124994460D01*
X114579500Y-124257000D02*
X114312500Y-124257000D01*
X114361580Y-125781000D02*
X113575040Y-124994460D01*
X114579500Y-125781000D02*
X114361580Y-125781000D01*
D23*
X115468500Y-112700000D02*
X114478000Y-112700000D01*
X114478000Y-112700000D02*
X114427000Y-112649000D01*
X117043500Y-111176000D02*
X117043500Y-109652000D01*
X116789500Y-132321500D02*
X116789500Y-130797500D01*
X116789500Y-130797500D02*
X116789500Y-129807000D01*
X116789500Y-129807000D02*
X116776500Y-129794000D01*
X115214500Y-133845500D02*
X114320578Y-133845500D01*
X114320578Y-133845500D02*
X114181134Y-133706056D01*
X117043500Y-109652000D02*
X117043500Y-109177000D01*
X117043500Y-109177000D02*
X116451500Y-108585000D01*
X116451500Y-108585000D02*
X115443000Y-108585000D01*
D20*
X117673236Y-119367500D02*
X118097500Y-119367500D01*
X116974736Y-120066000D02*
X117673236Y-119367500D01*
X114033500Y-120066000D02*
X116974736Y-120066000D01*
X127550000Y-142998500D02*
X125209500Y-145339000D01*
X127550000Y-140750000D02*
X127550000Y-142998500D01*
X108839020Y-125260480D02*
X114033500Y-120066000D01*
X125209500Y-145339000D02*
X114668500Y-145339000D01*
X114668500Y-145339000D02*
X108839020Y-139509520D01*
X108839020Y-139509520D02*
X108839020Y-125260480D01*
X114224000Y-120955000D02*
X114368501Y-120810499D01*
X126750000Y-140750000D02*
X126750000Y-142655500D01*
X117797501Y-120810499D02*
X118097500Y-120510500D01*
X109474030Y-125641470D02*
X110604500Y-124511000D01*
X126750000Y-142655500D02*
X124765000Y-144640500D01*
X110604500Y-124511000D02*
X114224000Y-120955000D01*
X109474030Y-139010569D02*
X109474030Y-125641470D01*
X114368501Y-120810499D02*
X117797501Y-120810499D01*
X124765000Y-144640500D02*
X114986000Y-144640500D01*
X114986000Y-144640500D02*
X109474030Y-139128530D01*
X124003000Y-144005500D02*
X125150000Y-142858500D01*
X125150000Y-142858500D02*
X125150000Y-140750000D01*
X115367000Y-144005500D02*
X124003000Y-144005500D01*
X111620500Y-140259000D02*
X111938000Y-140576500D01*
X111938000Y-140576500D02*
X115367000Y-144005500D01*
X114097000Y-122098000D02*
X118161000Y-122098000D01*
X110109040Y-126085960D02*
X114097000Y-122098000D01*
X111938000Y-140576500D02*
X110109040Y-138747540D01*
X110109040Y-138747540D02*
X110109040Y-126085960D01*
X124350000Y-140750000D02*
X124350000Y-142477000D01*
X114097000Y-123114000D02*
X118161000Y-123114000D01*
X124350000Y-142477000D02*
X123571000Y-143256000D01*
X123571000Y-143256000D02*
X115633500Y-143256000D01*
X110744050Y-138366550D02*
X110744050Y-126466950D01*
X115633500Y-143256000D02*
X110744050Y-138366550D01*
X110744050Y-126466950D02*
X114097000Y-123114000D01*
X114478000Y-126987500D02*
X118097500Y-126987500D01*
X123550000Y-142045500D02*
X122987000Y-142608500D01*
X123550000Y-140750000D02*
X123550000Y-142045500D01*
X122987000Y-142608500D02*
X116192500Y-142608500D01*
X116192500Y-142608500D02*
X111379060Y-137795060D01*
X111379060Y-130086440D02*
X114478000Y-126987500D01*
X111379060Y-137795060D02*
X111379060Y-130086440D01*
X118542000Y-127813000D02*
X114668500Y-127813000D01*
X112014070Y-137350570D02*
X112014070Y-130467430D01*
X121150000Y-140750000D02*
X115413500Y-140750000D01*
X112014070Y-130467430D02*
X114668500Y-127813000D01*
X115413500Y-140750000D02*
X112014070Y-137350570D01*
D24*
X167576500Y-148590000D02*
X167576500Y-146527869D01*
X167576500Y-146527869D02*
X167906700Y-146197669D01*
X167906700Y-146197669D02*
X167906700Y-141244670D01*
X167906700Y-141244670D02*
X179781200Y-129370170D01*
X179781200Y-129370170D02*
X179781200Y-120565830D01*
X179781200Y-120565830D02*
X176169670Y-116954300D01*
X176169670Y-116954300D02*
X171534170Y-116954300D01*
X168567100Y-115887500D02*
X165163500Y-115887500D01*
X171534170Y-116954300D02*
X170467370Y-115887500D01*
X170467370Y-115887500D02*
X168567100Y-115887500D01*
X168567100Y-116293900D02*
X167703500Y-117157500D01*
X170299030Y-116293900D02*
X168567100Y-116293900D01*
X171365830Y-117360700D02*
X170299030Y-116293900D01*
X179374800Y-120734170D02*
X176001330Y-117360700D01*
X177780174Y-130796457D02*
X177886238Y-130690392D01*
X177667127Y-130867490D02*
X177727654Y-130838342D01*
X177157350Y-130597894D02*
X177355912Y-130796456D01*
X176662051Y-130710944D02*
X176691199Y-130650417D01*
X176931646Y-131220720D02*
X176733085Y-131022159D01*
X176973531Y-131273244D02*
X176931646Y-131220720D01*
X177002679Y-131333769D02*
X176973531Y-131273244D01*
X177017627Y-131399264D02*
X177002679Y-131333769D01*
X179374800Y-129201830D02*
X179374800Y-120734170D01*
X177017628Y-131466442D02*
X177017627Y-131399264D01*
X177002678Y-131531937D02*
X177017628Y-131466442D01*
X176973532Y-131592462D02*
X177002678Y-131531937D01*
X176879127Y-131686869D02*
X176931646Y-131644984D01*
X176818600Y-131716017D02*
X176879127Y-131686869D01*
X176685927Y-131730966D02*
X176753107Y-131730965D01*
X177104827Y-130556009D02*
X177157350Y-130597894D01*
X176620434Y-131716016D02*
X176685927Y-131730966D01*
X177044300Y-130526863D02*
X177104827Y-130556009D01*
X176559907Y-131686870D02*
X176620434Y-131716016D01*
X176308823Y-131446421D02*
X176507385Y-131644983D01*
X176256300Y-131404536D02*
X176308823Y-131446421D01*
X176195773Y-131375390D02*
X176256300Y-131404536D01*
X176130280Y-131360440D02*
X176195773Y-131375390D01*
X176063100Y-131360441D02*
X176130280Y-131360440D01*
X175997607Y-131375389D02*
X176063100Y-131360441D01*
X175937080Y-131404537D02*
X175997607Y-131375389D01*
X175182073Y-133383923D02*
X175234592Y-133342038D01*
X174498719Y-133072444D02*
X174559246Y-133101590D01*
X176785607Y-130556010D02*
X176846134Y-130526862D01*
X175771907Y-132564543D02*
X175837400Y-132579493D01*
X176154152Y-132182296D02*
X176125004Y-132121771D01*
X174988873Y-133428020D02*
X175056053Y-133428019D01*
X174810331Y-133342037D02*
X174862853Y-133383924D01*
X174366046Y-133057495D02*
X174433226Y-133057494D01*
X176931646Y-131644984D02*
X176973532Y-131592462D01*
X174433226Y-133057494D02*
X174498719Y-133072444D01*
X175842671Y-131818164D02*
X175813525Y-131757637D01*
X174116471Y-133454691D02*
X174101521Y-133389198D01*
X175842672Y-131498944D02*
X175884557Y-131446422D01*
X175281753Y-132208967D02*
X175347246Y-132223917D01*
X174427951Y-134138043D02*
X174457097Y-134077518D01*
X177601634Y-130882438D02*
X177667127Y-130867490D01*
X175347246Y-132223917D02*
X175407773Y-132253063D01*
X177355912Y-130796456D02*
X177408434Y-130838343D01*
X176753107Y-131730965D02*
X176818600Y-131716017D01*
X174427950Y-133818825D02*
X174386065Y-133766301D01*
X177534454Y-130882439D02*
X177601634Y-130882438D01*
X175234592Y-133342038D02*
X175276478Y-133289516D01*
X176691199Y-130650417D02*
X176733084Y-130597895D01*
X174240026Y-133101591D02*
X174300553Y-133072443D01*
X174187504Y-133567740D02*
X174145617Y-133515218D01*
X176647103Y-130776437D02*
X176662051Y-130710944D01*
X174559246Y-133101590D02*
X174611769Y-133143475D01*
X174964998Y-132606164D02*
X174950048Y-132540671D01*
X167289131Y-146240500D02*
X167500300Y-146029331D01*
X175149080Y-132223916D02*
X175214573Y-132208968D01*
X174145617Y-133515218D02*
X174116471Y-133454691D01*
X176662052Y-130909110D02*
X176647102Y-130843617D01*
X174964997Y-132407998D02*
X174994145Y-132347471D01*
X177727654Y-130838342D02*
X177780174Y-130796457D01*
X175798576Y-131624964D02*
X175813524Y-131559471D01*
X167500300Y-146029331D02*
X167500300Y-141076330D01*
X166751000Y-146240500D02*
X167289131Y-146240500D01*
X175305624Y-133228991D02*
X175320574Y-133163496D01*
X174457097Y-134077518D02*
X174472047Y-134012023D01*
X175884557Y-131446422D02*
X175937080Y-131404537D01*
X174472047Y-134012023D02*
X174472046Y-133944845D01*
X177468961Y-130867489D02*
X177534454Y-130882439D01*
X176691198Y-130969637D02*
X176662052Y-130909110D01*
X174386065Y-134190565D02*
X174427951Y-134138043D01*
X174950049Y-132473491D02*
X174964997Y-132407998D01*
X174187503Y-133143476D02*
X174240026Y-133101591D01*
X175711380Y-132535397D02*
X175771907Y-132564543D01*
X174145618Y-133195998D02*
X174187503Y-133143476D01*
X174923380Y-133413070D02*
X174988873Y-133428020D01*
X174611769Y-133143475D02*
X174810331Y-133342037D01*
X174472046Y-133944845D02*
X174457098Y-133879350D01*
X175813524Y-131559471D02*
X175842672Y-131498944D01*
X175214573Y-132208968D02*
X175281753Y-132208967D01*
X174386065Y-133766301D02*
X174187504Y-133567740D01*
X177408434Y-130838343D02*
X177468961Y-130867489D01*
X176733085Y-131022159D02*
X176691198Y-130969637D01*
X175276478Y-133289516D02*
X175305624Y-133228991D01*
X176030600Y-132535396D02*
X176083119Y-132493511D01*
X174116470Y-133256525D02*
X174145618Y-133195998D01*
X175056053Y-133428019D02*
X175121546Y-133413071D01*
X176169101Y-132314969D02*
X176169100Y-132247791D01*
X175121546Y-133413071D02*
X175182073Y-133383923D01*
X175658858Y-132493510D02*
X175711380Y-132535397D01*
X174300553Y-133072443D02*
X174366046Y-133057495D01*
X177886238Y-130690392D02*
X179374800Y-129201830D01*
X176733084Y-130597895D02*
X176785607Y-130556010D01*
X175320574Y-133163496D02*
X175320573Y-133096318D01*
X176978807Y-130511913D02*
X177044300Y-130526863D01*
X176507385Y-131644983D02*
X176559907Y-131686870D01*
X175320573Y-133096318D02*
X175305625Y-133030823D01*
X175036031Y-132719213D02*
X174994144Y-132666691D01*
X175798575Y-131692144D02*
X175798576Y-131624964D01*
X174994144Y-132666691D02*
X174964998Y-132606164D01*
X175276477Y-132970298D02*
X175234592Y-132917774D01*
X174950048Y-132540671D02*
X174950049Y-132473491D01*
X176647102Y-130843617D02*
X176647103Y-130776437D01*
X174994145Y-132347471D02*
X175036030Y-132294949D01*
X176083119Y-132493511D02*
X176125005Y-132440989D01*
X167500300Y-141076330D02*
X174386065Y-134190565D01*
X175036030Y-132294949D02*
X175088553Y-132253064D01*
X174101521Y-133389198D02*
X174101522Y-133322018D01*
X175088553Y-132253064D02*
X175149080Y-132223916D01*
X176846134Y-130526862D02*
X176911627Y-130511914D01*
X174457098Y-133879350D02*
X174427950Y-133818825D01*
X175837400Y-132579493D02*
X175904580Y-132579492D01*
X176125004Y-132121771D02*
X176083119Y-132069247D01*
X176911627Y-130511914D02*
X176978807Y-130511913D01*
X175904580Y-132579492D02*
X175970073Y-132564544D01*
X175970073Y-132564544D02*
X176030600Y-132535396D01*
X175407773Y-132253063D02*
X175460296Y-132294948D01*
X176125005Y-132440989D02*
X176154151Y-132380464D01*
X175460296Y-132294948D02*
X175658858Y-132493510D01*
X176154151Y-132380464D02*
X176169101Y-132314969D01*
X176169100Y-132247791D02*
X176154152Y-132182296D01*
X175305625Y-133030823D02*
X175276477Y-132970298D01*
X176083119Y-132069247D02*
X175884558Y-131870686D01*
X174101522Y-133322018D02*
X174116470Y-133256525D01*
X175884558Y-131870686D02*
X175842671Y-131818164D01*
X176001330Y-117360700D02*
X171365830Y-117360700D01*
X174862853Y-133383924D02*
X174923380Y-133413070D01*
X175234592Y-132917774D02*
X175036031Y-132719213D01*
X175813525Y-131757637D02*
X175798575Y-131692144D01*
X173683756Y-129772215D02*
X173729877Y-129794426D01*
X173997146Y-130053589D02*
X174101894Y-130137123D01*
X173582659Y-129760824D02*
X173633849Y-129760824D01*
X173414694Y-129866364D02*
X173446609Y-129826342D01*
X173647911Y-130350931D02*
X173446609Y-130149632D01*
X173953239Y-130656262D02*
X173647911Y-130350931D01*
X173532752Y-129772215D02*
X173582659Y-129760824D01*
X173953239Y-130656259D02*
X173953239Y-130656262D01*
X173486633Y-129794425D02*
X173532752Y-129772215D01*
X174459869Y-131162889D02*
X173953239Y-130656259D01*
X173446609Y-129826342D02*
X173486633Y-129794425D01*
X174485814Y-131188835D02*
X174459869Y-131162889D01*
X174569348Y-131293583D02*
X174485814Y-131188835D01*
X174627480Y-131414294D02*
X174569348Y-131293583D01*
X173381091Y-129962392D02*
X173392482Y-129912485D01*
X174657293Y-131544914D02*
X174627480Y-131414294D01*
X173381091Y-130013582D02*
X173381091Y-129962392D01*
X174657293Y-131678893D02*
X174657293Y-131544914D01*
X174627480Y-131809512D02*
X174657293Y-131678893D01*
X174569348Y-131930223D02*
X174627480Y-131809512D01*
X174485814Y-132034972D02*
X174569348Y-131930223D01*
X174329175Y-132170398D02*
X174433924Y-132086864D01*
X174208464Y-132228529D02*
X174329175Y-132170398D01*
X177050700Y-127846170D02*
X177050700Y-122788330D01*
X174077844Y-132258343D02*
X174208464Y-132228529D01*
X172412532Y-130982141D02*
X172462439Y-130993532D01*
X173392482Y-130063489D02*
X173381091Y-130013582D01*
X172366470Y-133308180D02*
X172471218Y-133391714D01*
X173633849Y-129760824D02*
X173683756Y-129772215D01*
X174487204Y-130225067D02*
X174617823Y-130195254D01*
X172139224Y-133080934D02*
X172366470Y-133308180D01*
X173348032Y-133151539D02*
X173406164Y-133030828D01*
X172053081Y-133026807D02*
X172099201Y-133049018D01*
X172003174Y-133015416D02*
X172053081Y-133026807D01*
X172731923Y-131877575D02*
X172731922Y-131877579D01*
X165252400Y-145694400D02*
X165252400Y-139644470D01*
X172856528Y-133479658D02*
X172987147Y-133449845D01*
X173348032Y-132514899D02*
X173264498Y-132410151D01*
X174433924Y-132086864D02*
X174485814Y-132034972D01*
X172591929Y-133449845D02*
X172722549Y-133479658D01*
X173264498Y-133256288D02*
X173348032Y-133151539D01*
X173729877Y-129794426D02*
X173769899Y-129826342D01*
X172099201Y-133049018D02*
X172139224Y-133080934D01*
X172225292Y-131370949D02*
X172193376Y-131330927D01*
X172471218Y-133391714D02*
X172591929Y-133449845D01*
X172462439Y-130993532D02*
X172508560Y-131015743D01*
X172508560Y-131015743D02*
X172548582Y-131047659D01*
X165798500Y-146240500D02*
X165252400Y-145694400D01*
X174843284Y-130053588D02*
X177050700Y-127846170D01*
X173406164Y-133030828D02*
X173435977Y-132900209D01*
X174101894Y-130137123D02*
X174222605Y-130195254D01*
X172722549Y-133479658D02*
X172856528Y-133479658D01*
X173414693Y-130109610D02*
X173392482Y-130063489D01*
X165252400Y-139644470D02*
X171815934Y-133080934D01*
X172193376Y-131330927D02*
X172171165Y-131284806D01*
X172731922Y-131877579D02*
X172225292Y-131370949D01*
X171902077Y-133026807D02*
X171951984Y-133015416D01*
X172987147Y-133449845D02*
X173107858Y-133391714D01*
X173107858Y-133391714D02*
X173212607Y-133308180D01*
X173392482Y-129912485D02*
X173414694Y-129866364D01*
X172159774Y-131183709D02*
X172171165Y-131133802D01*
X173446609Y-130149632D02*
X173414693Y-130109610D01*
X173435977Y-132766230D02*
X173406164Y-132635610D01*
X172548582Y-131047659D02*
X173587786Y-132086864D01*
X171855956Y-133049018D02*
X171902077Y-133026807D01*
X171951984Y-133015416D02*
X172003174Y-133015416D01*
X173238553Y-132384205D02*
X172731923Y-131877575D01*
X173264498Y-132410151D02*
X173238553Y-132384205D01*
X172171165Y-131284806D02*
X172159774Y-131234899D01*
X172159774Y-131234899D02*
X172159774Y-131183709D01*
X173769899Y-129826342D02*
X173997146Y-130053589D01*
X174222605Y-130195254D02*
X174353226Y-130225066D01*
X172171165Y-131133802D02*
X172193377Y-131087681D01*
X173813246Y-132228529D02*
X173943865Y-132258343D01*
X174353226Y-130225066D02*
X174487204Y-130225067D01*
X173943865Y-132258343D02*
X174077844Y-132258343D01*
X174617823Y-130195254D02*
X174738534Y-130137123D01*
X174738534Y-130137123D02*
X174843284Y-130053588D01*
X177050700Y-122788330D02*
X172689870Y-118427500D01*
X172689870Y-118427500D02*
X168567100Y-118427500D01*
X168567100Y-118427500D02*
X165163500Y-118427500D01*
X172265316Y-131015742D02*
X172311435Y-130993532D01*
X173212607Y-133308180D02*
X173264498Y-133256288D01*
X171815934Y-133080934D02*
X171855956Y-133049018D01*
X173587786Y-132086864D02*
X173692535Y-132170398D01*
X172193377Y-131087681D02*
X172225292Y-131047659D01*
X172225292Y-131047659D02*
X172265316Y-131015742D01*
X172311435Y-130993532D02*
X172361342Y-130982141D01*
X173692535Y-132170398D02*
X173813246Y-132228529D01*
X172361342Y-130982141D02*
X172412532Y-130982141D01*
X173406164Y-132635610D02*
X173348032Y-132514899D01*
X173435977Y-132900209D02*
X173435977Y-132766230D01*
X176644300Y-127677830D02*
X176644300Y-122956670D01*
X175307791Y-129014339D02*
X176644300Y-127677830D01*
X174445811Y-129805791D02*
X174495716Y-129794401D01*
X174394621Y-129805791D02*
X174445811Y-129805791D01*
X174344714Y-129794400D02*
X174394621Y-129805791D01*
X174298592Y-129772191D02*
X174344714Y-129794400D01*
X174057270Y-129538972D02*
X174258571Y-129740273D01*
X174031323Y-129513028D02*
X174057270Y-129538972D01*
X173926575Y-129429494D02*
X174031323Y-129513028D01*
X173805865Y-129371361D02*
X173926575Y-129429494D01*
X173675244Y-129341549D02*
X173805865Y-129371361D01*
X173185187Y-129513027D02*
X173289935Y-129429494D01*
X173133295Y-129564917D02*
X173185187Y-129513027D01*
X173049760Y-129669667D02*
X173133295Y-129564917D01*
X172991629Y-129790378D02*
X173049760Y-129669667D01*
X172961816Y-130054976D02*
X172961815Y-129920998D01*
X172991631Y-130185594D02*
X172961816Y-130054976D01*
X173049762Y-130306305D02*
X172991631Y-130185594D01*
X173133295Y-130411055D02*
X173049762Y-130306305D01*
X168567100Y-118833900D02*
X167703500Y-119697500D01*
X174172500Y-131450259D02*
X173133295Y-130411055D01*
X172521530Y-118833900D02*
X168567100Y-118833900D01*
X174204416Y-131490281D02*
X174172500Y-131450259D01*
X176644300Y-122956670D02*
X172521530Y-118833900D01*
X174226627Y-131536402D02*
X174204416Y-131490281D01*
X174238018Y-131586309D02*
X174226627Y-131536402D01*
X174238018Y-131637499D02*
X174238018Y-131586309D01*
X174226627Y-131687406D02*
X174238018Y-131637499D01*
X174541838Y-129772190D02*
X174581859Y-129740274D01*
X174172500Y-131773549D02*
X174204416Y-131733526D01*
X174086357Y-131827676D02*
X174132477Y-131805465D01*
X174036450Y-131839067D02*
X174086357Y-131827676D01*
X173985260Y-131839067D02*
X174036450Y-131839067D01*
X173935353Y-131827676D02*
X173985260Y-131839067D01*
X173889232Y-131805465D02*
X173935353Y-131827676D01*
X173410647Y-129371361D02*
X173541266Y-129341548D01*
X173849210Y-131773549D02*
X173889232Y-131805465D01*
X170398543Y-133150314D02*
X170464036Y-133165262D01*
X170797873Y-133364522D02*
X170865051Y-133364521D01*
X170265870Y-133165263D02*
X170331363Y-133150313D01*
X170619329Y-133278539D02*
X170671853Y-133320426D01*
X170464036Y-133165262D02*
X170524563Y-133194410D01*
X171043594Y-133278540D02*
X171043591Y-133278539D01*
X170195064Y-134127066D02*
X170236948Y-134074544D01*
X171554510Y-132767619D02*
X171659259Y-132684085D01*
X172705258Y-130650811D02*
X172810006Y-130734345D01*
X171043591Y-133278539D02*
X171149655Y-133172474D01*
X172961815Y-129920998D02*
X172991629Y-129790378D01*
X170281044Y-133948524D02*
X170281045Y-133881346D01*
X170266096Y-134014018D02*
X170281044Y-133948524D01*
X170152820Y-133236296D02*
X170205343Y-133194409D01*
X172400648Y-132767619D02*
X172426593Y-132793565D01*
X170524563Y-133194410D02*
X170577085Y-133236295D01*
X170236948Y-134074544D02*
X170266096Y-134014018D01*
X171149655Y-133172474D02*
X171554510Y-132767619D01*
X170930545Y-133349573D02*
X170991071Y-133320425D01*
X171963870Y-130734344D02*
X172068618Y-130650811D01*
X172584548Y-130592678D02*
X172705258Y-130650811D01*
X170066839Y-133414838D02*
X170081787Y-133349345D01*
X164846000Y-148590000D02*
X164846000Y-139476130D01*
X170236949Y-133755326D02*
X170195064Y-133702803D01*
X170152821Y-133660560D02*
X170110934Y-133608038D01*
X174495716Y-129794401D02*
X174541838Y-129772190D01*
X170066838Y-133482018D02*
X170066839Y-133414838D01*
X171911978Y-130786234D02*
X171963870Y-130734344D01*
X173541266Y-129341548D02*
X173675244Y-129341549D01*
X170991071Y-133320425D02*
X171043594Y-133278540D01*
X170281045Y-133881346D02*
X170266097Y-133815852D01*
X172763943Y-133060383D02*
X172815133Y-133060383D01*
X170266097Y-133815852D02*
X170236949Y-133755326D01*
X172951182Y-132994865D02*
X172983098Y-132954842D01*
X174581859Y-129740274D02*
X175307791Y-129014339D01*
X170110934Y-133608038D02*
X170081788Y-133547511D01*
X172714036Y-133048992D02*
X172763943Y-133060383D01*
X170671853Y-133320426D02*
X170732378Y-133349572D01*
X174132477Y-131805465D02*
X174172500Y-131773549D01*
X171770314Y-131406911D02*
X171740499Y-131276293D01*
X170195064Y-133702803D02*
X170152821Y-133660560D01*
X170081787Y-133349345D02*
X170110935Y-133288818D01*
X171828445Y-131527622D02*
X171770314Y-131406911D01*
X172175188Y-132625954D02*
X172295899Y-132684085D01*
X170110935Y-133288818D02*
X170152820Y-133236296D01*
X172911160Y-133026782D02*
X172951182Y-132994865D01*
X172319949Y-130562865D02*
X172453927Y-130562866D01*
X170081788Y-133547511D02*
X170066838Y-133482018D01*
X172951182Y-132671575D02*
X171911978Y-131632372D01*
X171910590Y-132596140D02*
X172044568Y-132596140D01*
X173342583Y-131266919D02*
X173342580Y-131266919D01*
X173005309Y-132757718D02*
X172983098Y-132711597D01*
X164846000Y-139476130D02*
X170195064Y-134127066D01*
X171659259Y-132684085D02*
X171779970Y-132625954D01*
X172983098Y-132711597D02*
X172951182Y-132671575D01*
X171779970Y-132625954D02*
X171910590Y-132596140D01*
X172835953Y-130760289D02*
X173342583Y-131266919D01*
X173289935Y-129429494D02*
X173410647Y-129371361D01*
X170331363Y-133150313D02*
X170398543Y-133150314D01*
X173342580Y-131266919D02*
X173849210Y-131773549D01*
X172295899Y-132684085D02*
X172400648Y-132767619D01*
X170205343Y-133194409D02*
X170265870Y-133165263D01*
X172426593Y-132793565D02*
X172627893Y-132994865D01*
X172627893Y-132994865D02*
X172667915Y-133026782D01*
X172667915Y-133026782D02*
X172714036Y-133048992D01*
X170865051Y-133364521D02*
X170930545Y-133349573D01*
X172815133Y-133060383D02*
X172865039Y-133048992D01*
X170577085Y-133236295D02*
X170619329Y-133278539D01*
X172865039Y-133048992D02*
X172911160Y-133026782D01*
X172983098Y-132954842D02*
X173005309Y-132908722D01*
X170732378Y-133349572D02*
X170797873Y-133364522D01*
X173005309Y-132908722D02*
X173016700Y-132858815D01*
X171740499Y-131276293D02*
X171740498Y-131142315D01*
X174258571Y-129740273D02*
X174298592Y-129772191D01*
X173016700Y-132858815D02*
X173016700Y-132807625D01*
X173016700Y-132807625D02*
X173005309Y-132757718D01*
X172044568Y-132596140D02*
X172175188Y-132625954D01*
X171911978Y-131632372D02*
X171828445Y-131527622D01*
X171740498Y-131142315D02*
X171770312Y-131011695D01*
X171770312Y-131011695D02*
X171828443Y-130890984D01*
X171828443Y-130890984D02*
X171911978Y-130786234D01*
X172068618Y-130650811D02*
X172189330Y-130592678D01*
X172189330Y-130592678D02*
X172319949Y-130562865D01*
X174204416Y-131733526D02*
X174226627Y-131687406D01*
X172453927Y-130562866D02*
X172584548Y-130592678D01*
X172810006Y-130734345D02*
X172835953Y-130760289D01*
X162909545Y-131870185D02*
X162993080Y-131974934D01*
X162651035Y-131611675D02*
X162909545Y-131870185D01*
X162585516Y-131424435D02*
X162585516Y-131475625D01*
X162596907Y-131374528D02*
X162585516Y-131424435D01*
X162619118Y-131328408D02*
X162596907Y-131374528D01*
X163840435Y-130107091D02*
X163818224Y-130153211D01*
X163806833Y-130203118D02*
X163806833Y-130254308D01*
X167482173Y-126489260D02*
X167470782Y-126539167D01*
X163818224Y-130153211D02*
X163806833Y-130203118D01*
X164008401Y-130001551D02*
X163958495Y-130012941D01*
X163872352Y-130067069D02*
X163840435Y-130107091D01*
X163912374Y-130035152D02*
X163872352Y-130067069D01*
X165522836Y-131310472D02*
X165402126Y-131252339D01*
X166143514Y-131168806D02*
X166038766Y-131252339D01*
X166195406Y-131116913D02*
X166143514Y-131168806D01*
X164817449Y-132473656D02*
X164696737Y-132531789D01*
X167470782Y-126539167D02*
X167470782Y-126590357D01*
X164922197Y-132390123D02*
X164817449Y-132473656D01*
X165057622Y-132233482D02*
X164974089Y-132338230D01*
X165775249Y-129850621D02*
X166195405Y-130270777D01*
X162787084Y-131222868D02*
X162737178Y-131234258D01*
X165631563Y-129706938D02*
X165775249Y-129850621D01*
X165631563Y-129706935D02*
X165631563Y-129706938D01*
X165093669Y-129169041D02*
X165631563Y-129706935D01*
X165061752Y-129129019D02*
X165093669Y-129169041D01*
X165028150Y-128981801D02*
X165028150Y-129032991D01*
X165039541Y-129082898D02*
X165061752Y-129129019D01*
X165093669Y-128845752D02*
X165061752Y-128885774D01*
X164432140Y-132561601D02*
X164301519Y-132531789D01*
X165179812Y-128791624D02*
X165133691Y-128813835D01*
X164566118Y-132561602D02*
X164432140Y-132561601D01*
X165229718Y-128780234D02*
X165179812Y-128791624D01*
X170319700Y-125306170D02*
X168964239Y-126661630D01*
X165115754Y-132112771D02*
X165057622Y-132233482D01*
X164696737Y-132531789D02*
X164566118Y-132561602D01*
X165280908Y-128780234D02*
X165229718Y-128780234D01*
X164020500Y-138460130D02*
X164020500Y-148590000D01*
X165330815Y-128791624D02*
X165280908Y-128780234D01*
X165145565Y-131848174D02*
X165145566Y-131982152D01*
X165376936Y-128813835D02*
X165330815Y-128791624D01*
X164974089Y-132338230D02*
X164922197Y-132390123D01*
X165416958Y-128845752D02*
X165376936Y-128813835D01*
X165918054Y-131310472D02*
X165787435Y-131340285D01*
X162838274Y-131222868D02*
X162787084Y-131222868D01*
X165297378Y-131168805D02*
X164195641Y-130067069D01*
X168779702Y-128053605D02*
X168809515Y-128184224D01*
X166366883Y-130760835D02*
X166337071Y-130891454D01*
X168638038Y-127828144D02*
X168721571Y-127932894D01*
X166708985Y-127695146D02*
X166668963Y-127663230D01*
X168074196Y-127264305D02*
X168217882Y-127407988D01*
X162619118Y-131571653D02*
X162651035Y-131611675D01*
X167504384Y-126443140D02*
X167482173Y-126489260D01*
X167703500Y-122237500D02*
X168567100Y-123101100D01*
X164301519Y-132531789D02*
X164180809Y-132473656D01*
X164155619Y-130035152D02*
X164109498Y-130012941D01*
X166622842Y-127641019D02*
X166572935Y-127629628D01*
X167500255Y-129154210D02*
X167558386Y-129274921D01*
X167470782Y-126590357D02*
X167482173Y-126640264D01*
X166353778Y-127978413D02*
X166385695Y-128018435D01*
X167672351Y-126337600D02*
X167622444Y-126348991D01*
X163081024Y-132360243D02*
X163051211Y-132490863D01*
X166038766Y-131252339D02*
X165918054Y-131310472D01*
X165061752Y-128885774D02*
X165039541Y-128931894D01*
X166337071Y-130891454D02*
X166278939Y-131012165D01*
X168721571Y-127932894D02*
X168779702Y-128053605D01*
X165653457Y-131340284D02*
X165522836Y-131310472D01*
X167482173Y-126640264D02*
X167504384Y-126686385D01*
X165133691Y-128813835D02*
X165093669Y-128845752D01*
X168217882Y-127407988D02*
X168638038Y-127828144D01*
X165115752Y-131717555D02*
X165145565Y-131848174D01*
X164180809Y-132473656D02*
X164076061Y-132390122D01*
X164109498Y-130012941D02*
X164059591Y-130001551D01*
X166572935Y-127629628D02*
X166521745Y-127629628D01*
X168859490Y-126745164D02*
X168738779Y-126803295D01*
X167558386Y-129274921D02*
X167588199Y-129405540D01*
X167536301Y-126403118D02*
X167504384Y-126443140D01*
X170319700Y-124312330D02*
X170319700Y-125306170D01*
X162585516Y-131475625D02*
X162596907Y-131525532D01*
X162651035Y-131288386D02*
X162619118Y-131328408D01*
X163806833Y-130254308D02*
X163818224Y-130304215D01*
X167536301Y-126726407D02*
X168074195Y-127264301D01*
X162737178Y-131234258D02*
X162691057Y-131256469D01*
X166331567Y-127781288D02*
X166320176Y-127831195D01*
X167965469Y-128867839D02*
X167844759Y-128809706D01*
X166278939Y-131012165D02*
X166195406Y-131116913D01*
X166385695Y-128018435D02*
X167416722Y-129049460D01*
X167773447Y-126348991D02*
X167723541Y-126337600D01*
X168474181Y-126833109D02*
X168343561Y-126803295D01*
X167819568Y-126371202D02*
X167773447Y-126348991D01*
X165787435Y-131340285D02*
X165653457Y-131340284D01*
X165402126Y-131252339D02*
X165297378Y-131168805D01*
X167740011Y-128726172D02*
X166708985Y-127695146D01*
X162691057Y-131256469D02*
X162651035Y-131288386D01*
X168964239Y-126661630D02*
X168859490Y-126745164D01*
X164410246Y-130928252D02*
X164410246Y-130928255D01*
X167844759Y-128809706D02*
X167740011Y-128726172D01*
X168809515Y-128184224D02*
X168809516Y-128318202D01*
X166518695Y-129947488D02*
X165416958Y-128845752D01*
X167558388Y-129670137D02*
X167500256Y-129790848D01*
X168567100Y-123101100D02*
X169108470Y-123101100D01*
X167588199Y-129405540D02*
X167588200Y-129539518D01*
X165145566Y-131982152D02*
X165115754Y-132112771D01*
X166195405Y-130270777D02*
X166278938Y-130375527D01*
X166320176Y-127831195D02*
X166320176Y-127882385D01*
X167622444Y-126348991D02*
X167576323Y-126371202D01*
X168343561Y-126803295D02*
X168222850Y-126745164D01*
X168074195Y-127264301D02*
X168074196Y-127264305D01*
X167859590Y-126403118D02*
X167819568Y-126371202D01*
X168092156Y-126635684D02*
X167859590Y-126403118D01*
X167504384Y-126686385D02*
X167536301Y-126726407D01*
X168809516Y-128318202D02*
X168779704Y-128448821D01*
X168738779Y-126803295D02*
X168608159Y-126833109D01*
X168779704Y-128448821D02*
X168721572Y-128569532D01*
X168721572Y-128569532D02*
X168638039Y-128674280D01*
X168118101Y-126661630D02*
X168092156Y-126635684D01*
X164059591Y-130001551D02*
X164008401Y-130001551D01*
X166521745Y-127629628D02*
X166471838Y-127641019D01*
X168096090Y-128897651D02*
X167965469Y-128867839D01*
X166471838Y-127641019D02*
X166425718Y-127663230D01*
X168638039Y-128674280D02*
X168586147Y-128726173D01*
X163818224Y-130304215D02*
X163840435Y-130350336D01*
X164076061Y-132390122D02*
X162974324Y-131288386D01*
X168586147Y-128726173D02*
X168481399Y-128809706D01*
X162993080Y-131974934D02*
X163051211Y-132095645D01*
X163958495Y-130012941D02*
X163912374Y-130035152D01*
X166425718Y-127663230D02*
X166385695Y-127695146D01*
X163840435Y-130350336D02*
X163872352Y-130390358D01*
X162974324Y-131288386D02*
X162934302Y-131256469D01*
X168608159Y-126833109D02*
X168474181Y-126833109D01*
X168481399Y-128809706D02*
X168360687Y-128867839D01*
X163051211Y-132095645D02*
X163081024Y-132226265D01*
X166385695Y-127695146D02*
X166353778Y-127735168D01*
X163872352Y-130390358D02*
X164410246Y-130928252D01*
X168360687Y-128867839D02*
X168230068Y-128897652D01*
X163081024Y-132226265D02*
X163081024Y-132360243D01*
X166353778Y-127735168D02*
X166331567Y-127781288D01*
X169108470Y-123101100D02*
X170319700Y-124312330D01*
X162596907Y-131525532D02*
X162619118Y-131571653D01*
X168230068Y-128897652D02*
X168096090Y-128897651D01*
X166320176Y-127882385D02*
X166331567Y-127932292D01*
X166331567Y-127932292D02*
X166353778Y-127978413D01*
X166668963Y-127663230D02*
X166622842Y-127641019D01*
X164195641Y-130067069D02*
X164155619Y-130035152D01*
X167416722Y-129049460D02*
X167500255Y-129154210D01*
X166744153Y-130089155D02*
X166623443Y-130031022D01*
X167576323Y-126371202D02*
X167536301Y-126403118D01*
X166874774Y-130118967D02*
X166744153Y-130089155D01*
X167260083Y-130031022D02*
X167139371Y-130089155D01*
X167364831Y-129947489D02*
X167260083Y-130031022D01*
X167139371Y-130089155D02*
X167008752Y-130118968D01*
X167008752Y-130118968D02*
X166874774Y-130118967D01*
X167588200Y-129539518D02*
X167558388Y-129670137D01*
X166623443Y-130031022D02*
X166518695Y-129947488D01*
X166278938Y-130375527D02*
X166337069Y-130496238D01*
X167500256Y-129790848D02*
X167416723Y-129895596D01*
X163051211Y-132490863D02*
X162993080Y-132611574D01*
X166337069Y-130496238D02*
X166366882Y-130626857D01*
X167416723Y-129895596D02*
X167364831Y-129947489D01*
X162993080Y-132611574D02*
X162909545Y-132716323D01*
X166366882Y-130626857D02*
X166366883Y-130760835D01*
X162909545Y-132716323D02*
X162064700Y-133561170D01*
X162064700Y-136504330D02*
X164020500Y-138460130D01*
X168222850Y-126745164D02*
X168118101Y-126661630D01*
X162934302Y-131256469D02*
X162888181Y-131234258D01*
X162888181Y-131234258D02*
X162838274Y-131222868D01*
X167723541Y-126337600D02*
X167672351Y-126337600D01*
X165039541Y-128931894D02*
X165028150Y-128981801D01*
X165028150Y-129032991D02*
X165039541Y-129082898D01*
X164410246Y-130928255D02*
X164553932Y-131071938D01*
X162064700Y-133561170D02*
X162064700Y-136504330D01*
X164553932Y-131071938D02*
X164974088Y-131492094D01*
X164974088Y-131492094D02*
X165057621Y-131596844D01*
X165057621Y-131596844D02*
X165115752Y-131717555D01*
D25*
X163652200Y-146037300D02*
X163449000Y-146240500D01*
D24*
X161658300Y-136672670D02*
X163614100Y-138628470D01*
X161636017Y-134345206D02*
X161652658Y-134392762D01*
X161609212Y-134302544D02*
X161636017Y-134345206D01*
X161335676Y-134195547D02*
X161383232Y-134212188D01*
X161293014Y-134168742D02*
X161335676Y-134195547D01*
X161257387Y-134133115D02*
X161293014Y-134168742D01*
X161213941Y-134042897D02*
X161230582Y-134090453D01*
X161208300Y-133842830D02*
X161208300Y-133992830D01*
X161213941Y-133792762D02*
X161208300Y-133842830D01*
X161230582Y-133745206D02*
X161213941Y-133792762D01*
X161257387Y-133702544D02*
X161230582Y-133745206D01*
X161293014Y-133666917D02*
X161257387Y-133702544D01*
X161383232Y-133623471D02*
X161335676Y-133640112D01*
X161483367Y-133612188D02*
X161383232Y-133623471D01*
X161530923Y-133595547D02*
X161483367Y-133612188D01*
X161636017Y-133490453D02*
X161609212Y-133533115D01*
X161658300Y-133392830D02*
X161652658Y-133442897D01*
X167063384Y-129666090D02*
X167017265Y-129688300D01*
X164337483Y-132076807D02*
X163235748Y-130975070D01*
X167103407Y-129634172D02*
X167063384Y-129666090D01*
X167157534Y-129548030D02*
X167135323Y-129594151D01*
X167168924Y-129498124D02*
X167157534Y-129548030D01*
X164574631Y-132130934D02*
X164524724Y-132142325D01*
X167157535Y-129397026D02*
X167168924Y-129446934D01*
X167135324Y-129350905D02*
X167157535Y-129397026D01*
X164714900Y-131990664D02*
X164692689Y-132036785D01*
X167103406Y-129310884D02*
X167135324Y-129350905D01*
X164726290Y-131940758D02*
X164714900Y-131990664D01*
X166709196Y-128916674D02*
X167103406Y-129310884D01*
X168378851Y-128175710D02*
X168390240Y-128225618D01*
X167222985Y-126141694D02*
X167139451Y-126246443D01*
X164726290Y-131889568D02*
X164726290Y-131940758D01*
X165900901Y-127923780D02*
X165930714Y-128054400D01*
X165988846Y-127538471D02*
X165930714Y-127659182D01*
X166072380Y-127433722D02*
X165988846Y-127538471D01*
X168087577Y-128466984D02*
X168041456Y-128444773D01*
X166614329Y-127210352D02*
X166480351Y-127210352D01*
X166865660Y-127298297D02*
X166744949Y-127240165D01*
X165163500Y-123507500D02*
X168940130Y-123507500D01*
X168001433Y-128412857D02*
X166970409Y-127381831D01*
X168940130Y-123507500D02*
X169913300Y-124480670D01*
X162596230Y-132454898D02*
X161658300Y-133392830D01*
X161483367Y-134223471D02*
X161530923Y-134240112D01*
X162628146Y-132414876D02*
X162596230Y-132454898D01*
X167017265Y-129688300D02*
X166967358Y-129699691D01*
X166780117Y-129634173D02*
X165678382Y-128532436D01*
X163235748Y-130975070D02*
X163130999Y-130891536D01*
X162166240Y-131517019D02*
X162196053Y-131647639D01*
X168188674Y-128478375D02*
X168137484Y-128478375D01*
X166229020Y-127298297D02*
X166124271Y-127381831D01*
X165988846Y-128175111D02*
X166072380Y-128279859D01*
X166480351Y-127210352D02*
X166349731Y-127240165D01*
X161230582Y-134090453D02*
X161257387Y-134133115D01*
X162254185Y-131131710D02*
X162196053Y-131252421D01*
X163614100Y-138628470D02*
X163614100Y-146075400D01*
X168378850Y-128326714D02*
X168356639Y-128372835D01*
X166565513Y-128772988D02*
X166709196Y-128916674D01*
X168238581Y-128466984D02*
X168188674Y-128478375D01*
X161208300Y-133992830D02*
X161213941Y-134042897D01*
X168121014Y-126089804D02*
X168016265Y-126006269D01*
X166744949Y-127240165D02*
X166614329Y-127210352D01*
X168041456Y-128444773D02*
X168001433Y-128412857D01*
X167764934Y-125918325D02*
X167630956Y-125918325D01*
X168390240Y-128225618D02*
X168390240Y-128276808D01*
X166565510Y-128772989D02*
X166565513Y-128772988D01*
X161652658Y-133442897D02*
X161636017Y-133490453D01*
X168465668Y-126402442D02*
X168419548Y-126380231D01*
X166820140Y-129666089D02*
X166780117Y-129634173D01*
X162745690Y-130803592D02*
X162615070Y-130833405D01*
X165930714Y-128054400D02*
X165988846Y-128175111D01*
X168662793Y-126380231D02*
X168616672Y-126402442D01*
X165558800Y-130855490D02*
X164457065Y-129753753D01*
X169913300Y-124480670D02*
X169913300Y-125137830D01*
X162628146Y-132171631D02*
X162650357Y-132217752D01*
X166124271Y-127381831D02*
X166072380Y-127433722D01*
X168137484Y-128478375D02*
X168087577Y-128466984D01*
X168566765Y-126413833D02*
X168515575Y-126413833D01*
X165936218Y-130618343D02*
X165947607Y-130668251D01*
X166866261Y-129688300D02*
X166820140Y-129666089D01*
X161335676Y-133640112D02*
X161293014Y-133666917D01*
X168390240Y-128276808D02*
X168378850Y-128326714D01*
X168016265Y-126006269D02*
X167895554Y-125948138D01*
X163610928Y-129753753D02*
X163559036Y-129805644D01*
X168356640Y-128129589D02*
X168378851Y-128175710D01*
X165746041Y-130921008D02*
X165694851Y-130921008D01*
X165930714Y-127659182D02*
X165900901Y-127789801D01*
X168379525Y-126348315D02*
X168121014Y-126089804D01*
X165947607Y-130668251D02*
X165947607Y-130719441D01*
X162196053Y-131647639D02*
X162254185Y-131768350D01*
X166349731Y-127240165D02*
X166229020Y-127298297D01*
X167139451Y-126883083D02*
X167222985Y-126987831D01*
X161652658Y-134392762D02*
X161658300Y-134442830D01*
X166072380Y-128279859D02*
X166565510Y-128772989D01*
X168515575Y-126413833D02*
X168465668Y-126402442D01*
X164638687Y-128809787D02*
X164608874Y-128940406D01*
X161573585Y-134266917D02*
X161609212Y-134302544D01*
X168419548Y-126380231D02*
X168379525Y-126348315D01*
X167135323Y-129594151D02*
X167103407Y-129634172D01*
X167051506Y-126631752D02*
X167081319Y-126762372D01*
X164936994Y-128448902D02*
X164832245Y-128532436D01*
X164524724Y-132142325D02*
X164473534Y-132142325D01*
X162389611Y-130975070D02*
X162337719Y-131026961D01*
X166967358Y-129699691D02*
X166916168Y-129699691D01*
X163614100Y-146075400D02*
X163449000Y-146240500D01*
X165678382Y-128532436D02*
X165573633Y-128448902D01*
X163130999Y-130891536D02*
X163010288Y-130833405D01*
X163559036Y-130651781D02*
X164660772Y-131753518D01*
X167274876Y-126089804D02*
X167222985Y-126141694D01*
X167500336Y-125948138D02*
X167379625Y-126006269D01*
X167081319Y-126367154D02*
X167051506Y-126497773D01*
X168356639Y-128372835D02*
X168324723Y-128412856D01*
X167051506Y-126497773D02*
X167051506Y-126631752D01*
X165057704Y-128390771D02*
X164936994Y-128448902D01*
X162494360Y-130891536D02*
X162389611Y-130975070D01*
X165900901Y-127789801D02*
X165900901Y-127923780D01*
X167786825Y-127551671D02*
X167786829Y-127551672D01*
X163387557Y-130161723D02*
X163387557Y-130295702D01*
X167081319Y-126762372D02*
X167139451Y-126883083D01*
X166970409Y-127381831D02*
X166865660Y-127298297D01*
X167379625Y-126006269D02*
X167274876Y-126089804D01*
X167222985Y-126987831D02*
X167786825Y-127551671D01*
X166916168Y-129699691D02*
X166866261Y-129688300D01*
X161573585Y-133568742D02*
X161530923Y-133595547D01*
X165573633Y-128448902D02*
X165452922Y-128390771D01*
X163010288Y-130833405D02*
X162879669Y-130803592D01*
X167786829Y-127551672D02*
X167930512Y-127695358D01*
X164696819Y-129325716D02*
X164780353Y-129430464D01*
X167930512Y-127695358D02*
X168324722Y-128089568D01*
X164714901Y-131839660D02*
X164726290Y-131889568D01*
X168284700Y-128444774D02*
X168238581Y-128466984D01*
X165914007Y-130572222D02*
X165936218Y-130618343D01*
X165452922Y-128390771D02*
X165322303Y-128360958D01*
X162879669Y-130803592D02*
X162745690Y-130803592D01*
X167139451Y-126246443D02*
X167081319Y-126367154D01*
X165322303Y-128360958D02*
X165188324Y-128360958D01*
X167168924Y-129446934D02*
X167168924Y-129498124D01*
X164692689Y-132036785D02*
X164660773Y-132076806D01*
X165188324Y-128360958D02*
X165057704Y-128390771D01*
X162615070Y-130833405D02*
X162494360Y-130891536D01*
X164832245Y-128532436D02*
X164780353Y-128584327D01*
X168702815Y-126348315D02*
X168662793Y-126380231D01*
X164473534Y-132142325D02*
X164423627Y-132130934D01*
X164780353Y-128584327D02*
X164696819Y-128689076D01*
X164423627Y-132130934D02*
X164377506Y-132108723D01*
X168616672Y-126402442D02*
X168566765Y-126413833D01*
X164696819Y-128689076D02*
X164638687Y-128809787D01*
X169913300Y-125137830D02*
X168702815Y-126348315D01*
X164608874Y-129074385D02*
X164638687Y-129205005D01*
X164638687Y-129205005D02*
X164696819Y-129325716D01*
X164780353Y-129430464D02*
X165882089Y-130532201D01*
X168324723Y-128412856D02*
X168284700Y-128444774D01*
X165882089Y-130532201D02*
X165914007Y-130572222D01*
X165947607Y-130719441D02*
X165936217Y-130769347D01*
X162337719Y-131873098D02*
X162596230Y-132131609D01*
X165936217Y-130769347D02*
X165914006Y-130815468D01*
X162254185Y-131768350D02*
X162337719Y-131873098D01*
X162596230Y-132131609D02*
X162628146Y-132171631D01*
X165914006Y-130815468D02*
X165882090Y-130855489D01*
X165882090Y-130855489D02*
X165842067Y-130887407D01*
X164100986Y-129582275D02*
X163967007Y-129582275D01*
X165842067Y-130887407D02*
X165795948Y-130909617D01*
X165795948Y-130909617D02*
X165746041Y-130921008D01*
X165694851Y-130921008D02*
X165644944Y-130909617D01*
X165644944Y-130909617D02*
X165598823Y-130887406D01*
X165598823Y-130887406D02*
X165558800Y-130855490D01*
X164457065Y-129753753D02*
X164352316Y-129670219D01*
X164352316Y-129670219D02*
X164231605Y-129612088D01*
X164231605Y-129612088D02*
X164100986Y-129582275D01*
X163967007Y-129582275D02*
X163836387Y-129612088D01*
X163836387Y-129612088D02*
X163715677Y-129670219D01*
X161609212Y-133533115D02*
X161573585Y-133568742D01*
X167895554Y-125948138D02*
X167764934Y-125918325D01*
X163715677Y-129670219D02*
X163610928Y-129753753D01*
X163559036Y-129805644D02*
X163475502Y-129910393D01*
X163475502Y-129910393D02*
X163417370Y-130031104D01*
X163417370Y-130031104D02*
X163387557Y-130161723D01*
X163387557Y-130295702D02*
X163417370Y-130426322D01*
X163417370Y-130426322D02*
X163475502Y-130547033D01*
X168324722Y-128089568D02*
X168356640Y-128129589D01*
X163475502Y-130547033D02*
X163559036Y-130651781D01*
X164660772Y-131753518D02*
X164692690Y-131793539D01*
X161530923Y-134240112D02*
X161573585Y-134266917D01*
X164692690Y-131793539D02*
X164714901Y-131839660D01*
X164608874Y-128940406D02*
X164608874Y-129074385D01*
X164377506Y-132108723D02*
X164337483Y-132076807D01*
X164660773Y-132076806D02*
X164620750Y-132108724D01*
X164620750Y-132108724D02*
X164574631Y-132130934D01*
X161658300Y-134442830D02*
X161658300Y-136672670D01*
X162337719Y-131026961D02*
X162254185Y-131131710D01*
X167630956Y-125918325D02*
X167500336Y-125948138D01*
X162196053Y-131252421D02*
X162166240Y-131383040D01*
X162166240Y-131383040D02*
X162166240Y-131517019D01*
X162650357Y-132217752D02*
X162661748Y-132267658D01*
X162661748Y-132267658D02*
X162661748Y-132318848D01*
X161383232Y-134212188D02*
X161483367Y-134223471D01*
X162661748Y-132318848D02*
X162650357Y-132368755D01*
X162650357Y-132368755D02*
X162628146Y-132414876D01*
X156872195Y-134719631D02*
X156920512Y-134736538D01*
X156828851Y-134692396D02*
X156872195Y-134719631D01*
X156792654Y-134656199D02*
X156828851Y-134692396D01*
X156765419Y-134612855D02*
X156792654Y-134656199D01*
X156748512Y-134564538D02*
X156765419Y-134612855D01*
X163001670Y-126947654D02*
X162965473Y-126983851D01*
X156920512Y-134290801D02*
X156872195Y-134307708D01*
X157967942Y-138835584D02*
X158007964Y-138803668D01*
X157921821Y-138857795D02*
X157967942Y-138835584D01*
X157871914Y-138869186D02*
X157921821Y-138857795D01*
X156872195Y-132992431D02*
X156920512Y-133009338D01*
X161704851Y-128820908D02*
X161660600Y-128694448D01*
X156742781Y-132786470D02*
X156748512Y-132837338D01*
X160040670Y-128028700D02*
X157873700Y-130195670D01*
X156765419Y-134414484D02*
X156748512Y-134462801D01*
X161645600Y-127233440D02*
X161640945Y-127192126D01*
X156828851Y-132607743D02*
X156792654Y-132643940D01*
X156792654Y-134371140D02*
X156765419Y-134414484D01*
X160630552Y-128028700D02*
X160040670Y-128028700D01*
X159004619Y-135340577D02*
X159004619Y-135413962D01*
X160978364Y-127906995D02*
X160872593Y-127973455D01*
X156792654Y-131201799D02*
X156828851Y-131237996D01*
X156748512Y-134462801D02*
X156742781Y-134513670D01*
X156920512Y-134736538D02*
X156971381Y-134742270D01*
X156765419Y-131158455D02*
X156792654Y-131201799D01*
X156748512Y-131110138D02*
X156765419Y-131158455D01*
X156742781Y-131059270D02*
X156748512Y-131110138D01*
X156742781Y-134513670D02*
X156748512Y-134564538D01*
X159004619Y-133686762D02*
X158989619Y-133819898D01*
X156765419Y-130960084D02*
X156748512Y-131008401D01*
X159004619Y-133613377D02*
X159004619Y-133686762D01*
X156792654Y-130916740D02*
X156765419Y-130960084D01*
X158989619Y-133480241D02*
X159004619Y-133613377D01*
X156828851Y-130880543D02*
X156792654Y-130916740D01*
X156971381Y-130830670D02*
X156920512Y-130836401D01*
X161066695Y-127818664D02*
X160978364Y-127906995D01*
X157275392Y-130830670D02*
X156971381Y-130830670D01*
X161870868Y-129029088D02*
X161776131Y-128934351D01*
X158071122Y-137909332D02*
X158041309Y-138039952D01*
X158945368Y-135080981D02*
X158989619Y-135207441D01*
X161133155Y-127712893D02*
X161066695Y-127818664D01*
X157408528Y-130815669D02*
X157275392Y-130830670D01*
X158406312Y-131287870D02*
X158539448Y-131302870D01*
X165412299Y-127068701D02*
X164452300Y-128028700D01*
X157858699Y-130365498D02*
X157814448Y-130491958D01*
X162900599Y-128694448D02*
X162856348Y-128820908D01*
X162450428Y-129144619D02*
X162317292Y-129159619D01*
X156828851Y-134334943D02*
X156792654Y-134371140D01*
X156748512Y-131008401D02*
X156742781Y-131059270D01*
X163387800Y-127563528D02*
X163372800Y-127430392D01*
X158406312Y-133015070D02*
X158539448Y-133030070D01*
X158539448Y-131302870D02*
X158665908Y-131347121D01*
X157814448Y-130491958D02*
X157743168Y-130605401D01*
X163093331Y-126903512D02*
X163045014Y-126920419D01*
X163286729Y-126947654D02*
X163243385Y-126920419D01*
X158779351Y-134154538D02*
X158665908Y-134225818D01*
X166184701Y-126537677D02*
X165653677Y-127068701D01*
X162921331Y-127075512D02*
X162915600Y-127126381D01*
X163372800Y-127430392D02*
X163372800Y-127126381D01*
X158071122Y-137775354D02*
X158071122Y-137909332D01*
X158874088Y-134967538D02*
X158945368Y-135080981D01*
X158874088Y-131513138D02*
X158945368Y-131626581D01*
X157534988Y-130771418D02*
X157408528Y-130815669D01*
X162965473Y-126983851D02*
X162938238Y-127027195D01*
X161258302Y-127088285D02*
X161228904Y-127117683D01*
X161627213Y-127152885D02*
X161605095Y-127117683D01*
X156872195Y-134307708D02*
X156828851Y-134334943D01*
X159590555Y-139076045D02*
X159596069Y-139100203D01*
X161645600Y-128561312D02*
X161645600Y-127233440D01*
X158051432Y-136018001D02*
X158003115Y-136034908D01*
X163971107Y-128028700D02*
X163837971Y-128013699D01*
X156765419Y-132885655D02*
X156792654Y-132928999D01*
X161660600Y-128694448D02*
X161645600Y-128561312D01*
X156920512Y-133009338D02*
X156971381Y-133015070D01*
X161450369Y-146240500D02*
X162433000Y-146240500D01*
X163503331Y-127803431D02*
X163432051Y-127689988D01*
X162576888Y-129100368D02*
X162450428Y-129144619D01*
X163322926Y-126983851D02*
X163286729Y-126947654D01*
X158406312Y-134742270D02*
X158539448Y-134757270D01*
X157873699Y-137393330D02*
X157899644Y-137419276D01*
X158874088Y-134059801D02*
X158779351Y-134154538D01*
X163195068Y-126903512D02*
X163144200Y-126897781D01*
X156828851Y-131237996D02*
X156872195Y-131265231D01*
X160872593Y-127973455D02*
X160754684Y-128014713D01*
X163432051Y-127689988D02*
X163387800Y-127563528D01*
X162915600Y-128561312D02*
X162900599Y-128694448D01*
X163837971Y-128013699D02*
X163711511Y-127969448D01*
X165653677Y-127068701D02*
X165412299Y-127068701D01*
X156748512Y-132837338D02*
X156765419Y-132885655D01*
X162856348Y-128820908D02*
X162785068Y-128934351D01*
X163045014Y-126920419D02*
X163001670Y-126947654D01*
X161984311Y-129100368D02*
X161870868Y-129029088D01*
X158779351Y-134872801D02*
X158874088Y-134967538D01*
X158779351Y-131418401D02*
X158874088Y-131513138D01*
X157648431Y-130700138D02*
X157534988Y-130771418D01*
X161174413Y-127594984D02*
X161133155Y-127712893D01*
X161206786Y-127152885D02*
X161193054Y-127192126D01*
X163367068Y-127075512D02*
X163350161Y-127027195D01*
X162317292Y-129159619D02*
X162243907Y-129159619D01*
X156920512Y-131282138D02*
X156971381Y-131287870D01*
X157873700Y-130195670D02*
X157873700Y-130232362D01*
X158665908Y-134801521D02*
X158779351Y-134872801D01*
X158665908Y-131347121D02*
X158779351Y-131418401D01*
X163350161Y-127027195D02*
X163322926Y-126983851D01*
X158007964Y-138803668D02*
X158724247Y-138087384D01*
X157743168Y-130605401D02*
X157648431Y-130700138D01*
X156872195Y-131265231D02*
X156920512Y-131282138D01*
X161776131Y-128934351D02*
X161704851Y-128820908D01*
X156828851Y-132965196D02*
X156872195Y-132992431D01*
X157630548Y-138566521D02*
X157619157Y-138616428D01*
X161640945Y-127192126D02*
X161627213Y-127152885D01*
X162938238Y-127027195D02*
X162921331Y-127075512D01*
X158003115Y-136034908D02*
X157959771Y-136062143D01*
X161374059Y-127047781D02*
X161332745Y-127052435D01*
X157959771Y-136062143D02*
X157923574Y-136098340D01*
X161332745Y-127052435D02*
X161293504Y-127066167D01*
X157923574Y-136098340D02*
X157896339Y-136141684D01*
X163711511Y-127969448D02*
X163598068Y-127898168D01*
X161293504Y-127066167D02*
X161258302Y-127088285D01*
X157896339Y-136141684D02*
X157879432Y-136190001D01*
X161193054Y-127192126D02*
X161188400Y-127233440D01*
X158539448Y-134757270D02*
X158665908Y-134801521D01*
X157899644Y-137419276D02*
X157983178Y-137524024D01*
X158945368Y-133353781D02*
X158989619Y-133480241D01*
X156872195Y-130853308D02*
X156828851Y-130880543D01*
X163598068Y-127898168D02*
X163503331Y-127803431D01*
X161188400Y-127233440D02*
X161188400Y-127470852D01*
X167703500Y-124777500D02*
X166184701Y-126296299D01*
X162915600Y-127126381D02*
X162915600Y-128561312D01*
X157652759Y-138763646D02*
X157684675Y-138803668D01*
X161575697Y-127088285D02*
X161540495Y-127066167D01*
X164452300Y-128028700D02*
X163971107Y-128028700D01*
X157873700Y-136240870D02*
X157873699Y-137393330D01*
X156971381Y-134742270D02*
X158406312Y-134742270D01*
X156971381Y-131287870D02*
X158406312Y-131287870D01*
X162690331Y-129029088D02*
X162576888Y-129100368D01*
X157873700Y-130232362D02*
X157858699Y-130365498D01*
X158874088Y-135787001D02*
X158779351Y-135881738D01*
X158665908Y-132498618D02*
X158539448Y-132542869D01*
X158779351Y-135881738D02*
X158665908Y-135953018D01*
X158406312Y-136012270D02*
X158102300Y-136012270D01*
X158102300Y-136012270D02*
X158051432Y-136018001D01*
X157879432Y-136190001D02*
X157873700Y-136240870D01*
X157983178Y-137524024D02*
X158041309Y-137644735D01*
X158041309Y-137644735D02*
X158071122Y-137775354D01*
X158989619Y-135207441D02*
X159004619Y-135340577D01*
X158041309Y-138039952D02*
X157983178Y-138160662D01*
X157983178Y-138160662D02*
X157899644Y-138265411D01*
X159004619Y-135413962D02*
X158989619Y-135547098D01*
X157899644Y-138265411D02*
X157684675Y-138480379D01*
X158989619Y-135547098D02*
X158945368Y-135673558D01*
X157684675Y-138480379D02*
X157652759Y-138520401D01*
X158945368Y-135673558D02*
X158874088Y-135787001D01*
X157652759Y-138520401D02*
X157630548Y-138566521D01*
X163372800Y-127126381D02*
X163367068Y-127075512D01*
X157619157Y-138616428D02*
X157619157Y-138667618D01*
X157619157Y-138667618D02*
X157630548Y-138717525D01*
X157630548Y-138717525D02*
X157652759Y-138763646D01*
X163144200Y-126897781D02*
X163093331Y-126903512D01*
X161605095Y-127117683D02*
X161575697Y-127088285D01*
X158539448Y-135997269D02*
X158406312Y-136012270D01*
X157684675Y-138803668D02*
X157724697Y-138835584D01*
X162243907Y-129159619D02*
X162110771Y-129144619D01*
X159179000Y-137782942D02*
X159288094Y-137782942D01*
X157724697Y-138835584D02*
X157770817Y-138857795D01*
X157770817Y-138857795D02*
X157820724Y-138869186D01*
X158874088Y-133240338D02*
X158945368Y-133353781D01*
X156920512Y-130836401D02*
X156872195Y-130853308D01*
X157820724Y-138869186D02*
X157871914Y-138869186D01*
X161188400Y-127470852D02*
X161174413Y-127594984D01*
X158989619Y-133819898D02*
X158945368Y-133946358D01*
X158724247Y-138087384D02*
X158889059Y-137922572D01*
X158945368Y-133946358D02*
X158874088Y-134059801D01*
X158889059Y-137922572D02*
X158974352Y-137854553D01*
X158974352Y-137854553D02*
X159072642Y-137807219D01*
X159072642Y-137807219D02*
X159179000Y-137782942D01*
X159288094Y-137782942D02*
X159394452Y-137807217D01*
X162110771Y-129144619D02*
X161984311Y-129100368D01*
X159394452Y-137807217D02*
X159492742Y-137854551D01*
X159492742Y-137854551D02*
X159578035Y-137922570D01*
X159578035Y-137922570D02*
X159787082Y-138131617D01*
X159787082Y-138131617D02*
X159855101Y-138216910D01*
X159855101Y-138216910D02*
X159902435Y-138315200D01*
X159902435Y-138315200D02*
X159926712Y-138421560D01*
X159926712Y-138421560D02*
X159926712Y-138530654D01*
X159926712Y-138530654D02*
X159902435Y-138637012D01*
X158945368Y-131626581D02*
X158989619Y-131753041D01*
X159902435Y-138637012D02*
X159855101Y-138735302D01*
X158539448Y-134270069D02*
X158406312Y-134285070D01*
X158989619Y-131753041D02*
X159004619Y-131886177D01*
X159855101Y-138735302D02*
X159787083Y-138820597D01*
X158406312Y-134285070D02*
X156971381Y-134285070D01*
X156971381Y-134285070D02*
X156920512Y-134290801D01*
X158945368Y-132219158D02*
X158874088Y-132332601D01*
X159606821Y-139004781D02*
X159596069Y-139027107D01*
X158874088Y-132332601D02*
X158779351Y-132427338D01*
X159596069Y-139027107D02*
X159590555Y-139051265D01*
X159596069Y-139100203D02*
X159606821Y-139122529D01*
X159606821Y-139122529D02*
X159622271Y-139141903D01*
X159622271Y-139141903D02*
X160985200Y-140504830D01*
X160985200Y-140504830D02*
X160985200Y-145775331D01*
X160985200Y-145775331D02*
X161450369Y-146240500D01*
X156792654Y-132643940D02*
X156765419Y-132687284D01*
X158539448Y-133030070D02*
X158665908Y-133074321D01*
X158665908Y-133074321D02*
X158779351Y-133145601D01*
X159004619Y-131886177D02*
X159004619Y-131959562D01*
X159787083Y-138820597D02*
X159765955Y-138841722D01*
X159765955Y-138841722D02*
X159622271Y-138985407D01*
X159004619Y-131959562D02*
X158989619Y-132092698D01*
X158989619Y-132092698D02*
X158945368Y-132219158D01*
X159622271Y-138985407D02*
X159606821Y-139004781D01*
X158779351Y-132427338D02*
X158665908Y-132498618D01*
X159590555Y-139051265D02*
X159590555Y-139076045D01*
X158539448Y-132542869D02*
X158406312Y-132557870D01*
X158406312Y-132557870D02*
X156971381Y-132557870D01*
X156971381Y-132557870D02*
X156920512Y-132563601D01*
X156920512Y-132563601D02*
X156872195Y-132580508D01*
X163243385Y-126920419D02*
X163195068Y-126903512D01*
X156872195Y-132580508D02*
X156828851Y-132607743D01*
X156765419Y-132687284D02*
X156748512Y-132735601D01*
X156748512Y-132735601D02*
X156742781Y-132786470D01*
X160754684Y-128014713D02*
X160630552Y-128028700D01*
X156792654Y-132928999D02*
X156828851Y-132965196D01*
X156971381Y-133015070D02*
X158406312Y-133015070D01*
X158779351Y-133145601D02*
X158874088Y-133240338D01*
X161540495Y-127066167D02*
X161501254Y-127052435D01*
X161501254Y-127052435D02*
X161459941Y-127047781D01*
X166184701Y-126296299D02*
X166184701Y-126537677D01*
X161459941Y-127047781D02*
X161374059Y-127047781D01*
X162785068Y-128934351D02*
X162690331Y-129029088D01*
X161228904Y-127117683D02*
X161206786Y-127152885D01*
X158665908Y-135953018D02*
X158539448Y-135997269D01*
X158665908Y-134225818D02*
X158539448Y-134270069D01*
X159313775Y-139408144D02*
X159334903Y-139429271D01*
X159245757Y-139322851D02*
X159313775Y-139408144D01*
X159174146Y-139118201D02*
X159198423Y-139224561D01*
X159174146Y-139009107D02*
X159174146Y-139118201D01*
X159245757Y-138804459D02*
X159198423Y-138902749D01*
X159313776Y-138719166D02*
X159245757Y-138804459D01*
X159510303Y-138463716D02*
X159510303Y-138488496D01*
X159292420Y-138215615D02*
X159311794Y-138231065D01*
X159270095Y-138204865D02*
X159292420Y-138215615D01*
X159245936Y-138199349D02*
X159270095Y-138204865D01*
X159196999Y-138204865D02*
X159221156Y-138199349D01*
X159174672Y-138215615D02*
X159196999Y-138204865D01*
X159155298Y-138231065D02*
X159174672Y-138215615D01*
X158867929Y-138518434D02*
X159155298Y-138231065D01*
X158789683Y-138596683D02*
X158867929Y-138518434D01*
X158269386Y-139116981D02*
X158789683Y-138596683D01*
X158164637Y-139200515D02*
X158269386Y-139116981D01*
X158043927Y-139258646D02*
X158164637Y-139200515D01*
X157913308Y-139288459D02*
X158043927Y-139258646D01*
X157229696Y-138444415D02*
X157199883Y-138575034D01*
X157618247Y-137963966D02*
X157586330Y-138003988D01*
X157618247Y-137720721D02*
X157640458Y-137766841D01*
X157467300Y-137561670D02*
X157586330Y-137680699D01*
X157482301Y-136071041D02*
X157467300Y-136204177D01*
X157597832Y-135831138D02*
X157526552Y-135944581D01*
X157692569Y-135736401D02*
X157597832Y-135831138D01*
X157806012Y-135665121D02*
X157692569Y-135736401D01*
X157932472Y-135620870D02*
X157806012Y-135665121D01*
X158065608Y-135605870D02*
X157932472Y-135620870D01*
X158369619Y-135605870D02*
X158065608Y-135605870D01*
X158420488Y-135600138D02*
X158369619Y-135605870D01*
X158468805Y-135583231D02*
X158420488Y-135600138D01*
X158512149Y-135555996D02*
X158468805Y-135583231D01*
X157527999Y-139200515D02*
X157648710Y-139258646D01*
X158548346Y-135234740D02*
X158575581Y-135278084D01*
X157423251Y-139116981D02*
X157527999Y-139200515D01*
X158512149Y-135198543D02*
X158548346Y-135234740D01*
X157229696Y-138839632D02*
X157287827Y-138960342D01*
X158369619Y-135148670D02*
X158420488Y-135154401D01*
X157199883Y-138709013D02*
X157229696Y-138839632D01*
X156934688Y-135148670D02*
X158369619Y-135148670D01*
X157199883Y-138575034D02*
X157199883Y-138709013D01*
X156801552Y-135133669D02*
X156934688Y-135148670D01*
X157287827Y-138323705D02*
X157229696Y-138444415D01*
X156561649Y-135018138D02*
X156675092Y-135089418D01*
X157371361Y-138218956D02*
X157287827Y-138323705D01*
X156466912Y-134923401D02*
X156561649Y-135018138D01*
X157586330Y-138003988D02*
X157371361Y-138218956D01*
X156395632Y-134809958D02*
X156466912Y-134923401D01*
X156351381Y-134683498D02*
X156395632Y-134809958D01*
X157640458Y-137917845D02*
X157618247Y-137963966D01*
X156336381Y-134550362D02*
X156351381Y-134683498D01*
X157651848Y-137816748D02*
X157651848Y-137867938D01*
X156351381Y-134343841D02*
X156336381Y-134476977D01*
X157640458Y-137766841D02*
X157651848Y-137816748D01*
X156395632Y-134217381D02*
X156351381Y-134343841D01*
X156561649Y-134009201D02*
X156466912Y-134103938D01*
X156675092Y-133937921D02*
X156561649Y-134009201D01*
X156801552Y-133893670D02*
X156675092Y-133937921D01*
X156934688Y-133878670D02*
X156801552Y-133893670D01*
X158369619Y-133878670D02*
X156934688Y-133878670D01*
X158420488Y-133872938D02*
X158369619Y-133878670D01*
X158468805Y-133856031D02*
X158420488Y-133872938D01*
X158512149Y-133828796D02*
X158468805Y-133856031D01*
X158837806Y-128141612D02*
X158787899Y-128130221D01*
X159198423Y-138902749D02*
X159174146Y-139009107D01*
X158989797Y-128253481D02*
X158949775Y-128221565D01*
X158680612Y-128782000D02*
X158658402Y-128828120D01*
X157651848Y-137867938D02*
X157640458Y-137917845D01*
X156336381Y-134476977D02*
X156336381Y-134550362D01*
X158692003Y-128732093D02*
X158680612Y-128782000D01*
X159273065Y-128221565D02*
X159233042Y-128253481D01*
X159872330Y-127622300D02*
X159273065Y-128221565D01*
X160676895Y-127603913D02*
X160637654Y-127617645D01*
X160763613Y-127517195D02*
X160741495Y-127552397D01*
X158512149Y-131744143D02*
X158548346Y-131780340D01*
X158520422Y-128974208D02*
X157467300Y-130027330D01*
X156351381Y-132956298D02*
X156395632Y-133082758D01*
X160782000Y-127436641D02*
X160777345Y-127477954D01*
X163553931Y-126621912D02*
X163440488Y-126550632D01*
X158420488Y-131700001D02*
X158468805Y-131716908D01*
X158468805Y-133444108D02*
X158512149Y-133471343D01*
X160837244Y-126957187D02*
X160795986Y-127075096D01*
X160903704Y-126851416D02*
X160837244Y-126957187D01*
X160992035Y-126763085D02*
X160903704Y-126851416D01*
X161097806Y-126696625D02*
X160992035Y-126763085D01*
X156561649Y-133290938D02*
X156675092Y-133362218D01*
X161215715Y-126655367D02*
X161097806Y-126696625D01*
X161736193Y-126696625D02*
X161618284Y-126655367D01*
X156336381Y-132749777D02*
X156336381Y-132823162D01*
X161996755Y-126957187D02*
X161930295Y-126851416D01*
X156801552Y-131679269D02*
X156934688Y-131694270D01*
X159137015Y-128287083D02*
X159085825Y-128287083D01*
X158568743Y-128235761D02*
X158546532Y-128281881D01*
X163719948Y-126830092D02*
X163648668Y-126716649D01*
X159186922Y-128275692D02*
X159137015Y-128287083D01*
X162052000Y-128524619D02*
X162052000Y-127199228D01*
X156561649Y-131563738D02*
X156675092Y-131635018D01*
X162101873Y-128667149D02*
X162074638Y-128623805D01*
X156395632Y-132490181D02*
X156351381Y-132616641D01*
X162138070Y-128703346D02*
X162101873Y-128667149D01*
X164007800Y-127622300D02*
X163956931Y-127616568D01*
X163314028Y-126506381D02*
X163180892Y-126491381D01*
X160712097Y-127581795D02*
X160676895Y-127603913D01*
X160741495Y-127552397D02*
X160712097Y-127581795D01*
X163779200Y-127393700D02*
X163779200Y-127089688D01*
X160578800Y-145943669D02*
X161163000Y-146527869D01*
X158949775Y-128221565D02*
X158923949Y-128195739D01*
X161841964Y-126763085D02*
X161736193Y-126696625D01*
X156351381Y-132616641D02*
X156336381Y-132749777D01*
X159233042Y-128253481D02*
X159186922Y-128275692D01*
X162734468Y-126621912D02*
X162639731Y-126716649D01*
X162052000Y-127199228D02*
X162038013Y-127075096D01*
X158923949Y-128195739D02*
X158883927Y-128163822D01*
X158626486Y-128868143D02*
X158520422Y-128974208D01*
X160777345Y-127477954D02*
X160763613Y-127517195D01*
X158468805Y-131716908D02*
X158512149Y-131744143D01*
X159334903Y-139429271D02*
X160578800Y-140673170D01*
X163764199Y-126956552D02*
X163719948Y-126830092D01*
X160795986Y-127075096D02*
X160782000Y-127199228D01*
X158548346Y-135519799D02*
X158512149Y-135555996D01*
X162847911Y-126550632D02*
X162734468Y-126621912D01*
X156934688Y-131694270D02*
X158369619Y-131694270D01*
X158369619Y-133421470D02*
X158420488Y-133427201D01*
X160578800Y-140673170D02*
X160578800Y-145943669D01*
X163956931Y-127616568D02*
X163908614Y-127599661D01*
X163779200Y-127089688D02*
X163764199Y-126956552D01*
X156336381Y-131095962D02*
X156351381Y-131229098D01*
X161163000Y-146527869D02*
X161163000Y-148590000D01*
X162423129Y-128703346D02*
X162379785Y-128730581D01*
X160637654Y-127617645D02*
X160596341Y-127622300D01*
X158592488Y-133700938D02*
X158575581Y-133749255D01*
X158640682Y-128163822D02*
X158600660Y-128195739D01*
X159478587Y-138397858D02*
X159494037Y-138417232D01*
X157444661Y-130294855D02*
X157417426Y-130338199D01*
X158575581Y-135476455D02*
X158548346Y-135519799D01*
X159035918Y-128275692D02*
X158989797Y-128253481D01*
X162524200Y-126956552D02*
X162509200Y-127089688D01*
X160596341Y-127622300D02*
X159872330Y-127622300D01*
X162459326Y-128667149D02*
X162423129Y-128703346D01*
X158626485Y-128544853D02*
X158658402Y-128584875D01*
X157337885Y-130401631D02*
X157289568Y-130418538D01*
X163829073Y-127536229D02*
X163801838Y-127492885D01*
X157779329Y-139288459D02*
X157913308Y-139288459D01*
X158592488Y-135326401D02*
X158598219Y-135377270D01*
X158420488Y-132145738D02*
X158369619Y-132151470D01*
X163440488Y-126550632D02*
X163314028Y-126506381D01*
X158575581Y-133749255D02*
X158548346Y-133792599D01*
X162280600Y-128753219D02*
X162229731Y-128747488D01*
X163648668Y-126716649D02*
X163553931Y-126621912D01*
X161618284Y-126655367D02*
X161494152Y-126641381D01*
X156336381Y-132823162D02*
X156351381Y-132956298D01*
X157467300Y-136204177D02*
X157467300Y-137561670D01*
X163801838Y-127492885D02*
X163784931Y-127444568D01*
X156395632Y-133082758D02*
X156466912Y-133196201D01*
X162057731Y-128575488D02*
X162052000Y-128524619D01*
X157467300Y-130027330D02*
X157467300Y-130195670D01*
X159478587Y-138554354D02*
X159313776Y-138719166D01*
X156801552Y-130439270D02*
X156675092Y-130483521D01*
X158592488Y-131872001D02*
X158598219Y-131922870D01*
X161494152Y-126641381D02*
X161339847Y-126641381D01*
X159221156Y-138199349D02*
X159245936Y-138199349D01*
X158535141Y-128331788D02*
X158535141Y-128382978D01*
X163180892Y-126491381D02*
X163107507Y-126491381D01*
X161339847Y-126641381D02*
X161215715Y-126655367D01*
X156675092Y-135089418D02*
X156801552Y-135133669D01*
X162074638Y-128623805D02*
X162057731Y-128575488D01*
X158592488Y-135428138D02*
X158575581Y-135476455D01*
X159085825Y-128287083D02*
X159035918Y-128275692D01*
X163784931Y-127444568D02*
X163779200Y-127393700D01*
X162509200Y-127089688D02*
X162509200Y-128524619D01*
X162503468Y-128575488D02*
X162486561Y-128623805D01*
X158546532Y-128432885D02*
X158568743Y-128479006D01*
X162509200Y-128524619D02*
X162503468Y-128575488D01*
X161930295Y-126851416D02*
X161841964Y-126763085D01*
X156466912Y-134103938D02*
X156395632Y-134217381D01*
X162229731Y-128747488D02*
X162181414Y-128730581D01*
X162568451Y-126830092D02*
X162524200Y-126956552D01*
X162331468Y-128747488D02*
X162280600Y-128753219D01*
X162038013Y-127075096D02*
X161996755Y-126957187D01*
X162639731Y-126716649D02*
X162568451Y-126830092D01*
X156466912Y-131469001D02*
X156561649Y-131563738D01*
X158369619Y-131694270D02*
X158420488Y-131700001D01*
X158420488Y-133427201D02*
X158468805Y-133444108D01*
X163865270Y-127572426D02*
X163829073Y-127536229D01*
X162486561Y-128623805D02*
X162459326Y-128667149D01*
X158658402Y-128828120D02*
X158626486Y-128868143D01*
X162379785Y-128730581D02*
X162331468Y-128747488D01*
X158787899Y-128130221D02*
X158736709Y-128130221D01*
X158736709Y-128130221D02*
X158686802Y-128141612D01*
X159494037Y-138534980D02*
X159478587Y-138554354D01*
X156934688Y-130424270D02*
X156801552Y-130439270D01*
X158883927Y-128163822D02*
X158837806Y-128141612D01*
X164283963Y-127622300D02*
X164007800Y-127622300D01*
X158575581Y-131823684D02*
X158592488Y-131872001D01*
X156466912Y-132376738D02*
X156395632Y-132490181D01*
X158600660Y-128195739D02*
X158568743Y-128235761D01*
X156466912Y-130649538D02*
X156395632Y-130762981D01*
X157371361Y-139065091D02*
X157423251Y-139116981D01*
X158468805Y-135171308D02*
X158512149Y-135198543D01*
X158575581Y-132022055D02*
X158548346Y-132065399D01*
X160782000Y-127199228D02*
X160782000Y-127436641D01*
X158546532Y-128281881D02*
X158535141Y-128331788D01*
X158535141Y-128382978D02*
X158546532Y-128432885D01*
X157526552Y-135944581D02*
X157482301Y-136071041D01*
X158568743Y-128479006D02*
X158600660Y-128519028D01*
X162181414Y-128730581D02*
X162138070Y-128703346D01*
X156675092Y-133362218D02*
X156801552Y-133406469D01*
X158600660Y-128519028D02*
X158626485Y-128544853D01*
X157586330Y-137680699D02*
X157618247Y-137720721D01*
X158658402Y-128584875D02*
X158680612Y-128630996D01*
X158692003Y-128680903D02*
X158692003Y-128732093D01*
X156466912Y-133196201D02*
X156561649Y-133290938D01*
X163107507Y-126491381D02*
X162974371Y-126506381D01*
X157467300Y-130195670D02*
X157461568Y-130246538D01*
X159311794Y-138231065D02*
X159478587Y-138397858D01*
X157461568Y-130246538D02*
X157444661Y-130294855D01*
X159494037Y-138417232D02*
X159504789Y-138439558D01*
X157417426Y-130338199D02*
X157381229Y-130374396D01*
X159504789Y-138439558D02*
X159510303Y-138463716D01*
X165163500Y-126742763D02*
X164283963Y-127622300D01*
X157381229Y-130374396D02*
X157337885Y-130401631D01*
X159510303Y-138488496D02*
X159504789Y-138512654D01*
X157289568Y-130418538D02*
X157238700Y-130424270D01*
X159504789Y-138512654D02*
X159494037Y-138534980D01*
X157238700Y-130424270D02*
X156934688Y-130424270D01*
X156675092Y-130483521D02*
X156561649Y-130554801D01*
X159198423Y-139224561D02*
X159245757Y-139322851D01*
X156561649Y-132282001D02*
X156466912Y-132376738D01*
X156561649Y-130554801D02*
X156466912Y-130649538D01*
X157287827Y-138960342D02*
X157371361Y-139065091D01*
X158420488Y-135154401D02*
X158468805Y-135171308D01*
X158592488Y-131973738D02*
X158575581Y-132022055D01*
X156395632Y-130762981D02*
X156351381Y-130889441D01*
X158548346Y-132065399D02*
X158512149Y-132101596D01*
X163908614Y-127599661D02*
X163865270Y-127572426D01*
X156351381Y-130889441D02*
X156336381Y-131022577D01*
X158512149Y-132101596D02*
X158468805Y-132128831D01*
X165163500Y-126047500D02*
X165163500Y-126742763D01*
X156336381Y-131022577D02*
X156336381Y-131095962D01*
X157648710Y-139258646D02*
X157779329Y-139288459D01*
X158575581Y-135278084D02*
X158592488Y-135326401D01*
X158468805Y-132128831D02*
X158420488Y-132145738D01*
X156351381Y-131229098D02*
X156395632Y-131355558D01*
X158598219Y-135377270D02*
X158592488Y-135428138D01*
X158369619Y-132151470D02*
X156934688Y-132151470D01*
X156395632Y-131355558D02*
X156466912Y-131469001D01*
X156934688Y-132151470D02*
X156801552Y-132166470D01*
X156675092Y-131635018D02*
X156801552Y-131679269D01*
X156675092Y-132210721D02*
X156561649Y-132282001D01*
X158548346Y-131780340D02*
X158575581Y-131823684D01*
X158575581Y-133550884D02*
X158592488Y-133599201D01*
X158598219Y-131922870D02*
X158592488Y-131973738D01*
X158680612Y-128630996D02*
X158692003Y-128680903D01*
X156801552Y-132166470D02*
X156675092Y-132210721D01*
X156801552Y-133406469D02*
X156934688Y-133421470D01*
X162974371Y-126506381D02*
X162847911Y-126550632D01*
X156934688Y-133421470D02*
X158369619Y-133421470D01*
X158512149Y-133471343D02*
X158548346Y-133507540D01*
X158548346Y-133507540D02*
X158575581Y-133550884D01*
X158686802Y-128141612D02*
X158640682Y-128163822D01*
X158592488Y-133599201D02*
X158598219Y-133650070D01*
X158598219Y-133650070D02*
X158592488Y-133700938D01*
X158548346Y-133792599D02*
X158512149Y-133828796D01*
D26*
X149237500Y-133020000D02*
X149523420Y-132734080D01*
X148539500Y-133020000D02*
X149237500Y-133020000D01*
X149339500Y-131496000D02*
X149542500Y-131699000D01*
X148539500Y-131496000D02*
X149339500Y-131496000D01*
D20*
X169545000Y-141015000D02*
X169545000Y-142326200D01*
X118516500Y-109652000D02*
X118516500Y-111176000D01*
D21*
X145491500Y-132994500D02*
X145466000Y-133020000D01*
X145491500Y-131496000D02*
X145491500Y-132994500D01*
X145466000Y-133997500D02*
X145415000Y-134048500D01*
X145466000Y-133020000D02*
X145466000Y-133997500D01*
D20*
X121209000Y-116764000D02*
X121983500Y-117538500D01*
X120980500Y-116764000D02*
X121209000Y-116764000D01*
X121234000Y-118288000D02*
X121983500Y-117538500D01*
X120980500Y-118288000D02*
X121234000Y-118288000D01*
X121209000Y-124257000D02*
X121983500Y-125031500D01*
X120980500Y-124257000D02*
X121209000Y-124257000D01*
X121234000Y-125781000D02*
X121983500Y-125031500D01*
X120980500Y-125781000D02*
X121234000Y-125781000D01*
X118516500Y-109652000D02*
X118516500Y-109177000D01*
X142125500Y-110541000D02*
X142113000Y-110553500D01*
X143281500Y-110541000D02*
X142125500Y-110541000D01*
X118516500Y-109177000D02*
X119108500Y-108585000D01*
X119108500Y-108585000D02*
X120078500Y-108585000D01*
X142506500Y-120193000D02*
X141986000Y-120713500D01*
X143154500Y-120193000D02*
X142506500Y-120193000D01*
X142989500Y-121717000D02*
X141986000Y-120713500D01*
X143154500Y-121717000D02*
X142989500Y-121717000D01*
X116789500Y-134099000D02*
X116078000Y-134810500D01*
X116789500Y-133845500D02*
X116789500Y-134099000D01*
X116789500Y-133845500D02*
X118262500Y-133845500D01*
X146964500Y-129705000D02*
X147764500Y-128905000D01*
X146964500Y-129972000D02*
X146964500Y-129705000D01*
X145491500Y-129972000D02*
X146964500Y-129972000D01*
X118516500Y-112700000D02*
X117043500Y-112700000D01*
X117043500Y-113063219D02*
X116311725Y-113794994D01*
X117043500Y-112700000D02*
X117043500Y-113063219D01*
D23*
X144794500Y-106250000D02*
X144970500Y-106426000D01*
X144000000Y-106250000D02*
X144794500Y-106250000D01*
D20*
X155511500Y-146113500D02*
X157480000Y-148082000D01*
X157480000Y-148082000D02*
X157924500Y-148082000D01*
X160333500Y-123257500D02*
X155511500Y-128079500D01*
X155511500Y-128079500D02*
X155511500Y-146113500D01*
X154622500Y-146222323D02*
X156457147Y-148056970D01*
X154622500Y-120578500D02*
X154622500Y-146222323D01*
X160333500Y-114867500D02*
X154622500Y-120578500D01*
X114541500Y-111176000D02*
X114427000Y-111061500D01*
X115468500Y-111176000D02*
X114541500Y-111176000D01*
X114630000Y-109652000D02*
X114427000Y-109855000D01*
X115468500Y-109652000D02*
X114630000Y-109652000D01*
X145491000Y-121717000D02*
X145732500Y-121475500D01*
X144729500Y-121717000D02*
X145491000Y-121717000D01*
X150355500Y-121717000D02*
X150495000Y-121856500D01*
X149301500Y-121717000D02*
X150355500Y-121717000D01*
X143154500Y-124892000D02*
X142943500Y-124892000D01*
X142951000Y-124892000D02*
X141922500Y-125920500D01*
X143154500Y-124892000D02*
X142951000Y-124892000D01*
X143154500Y-126416000D02*
X142951500Y-126619000D01*
X142857079Y-126713421D02*
X143154500Y-126416000D01*
X141605332Y-126713421D02*
X142857079Y-126713421D01*
X142354500Y-127940000D02*
X141922500Y-127508000D01*
X143154500Y-127940000D02*
X142354500Y-127940000D01*
X141592500Y-112065000D02*
X141224000Y-111696500D01*
X143281500Y-112065000D02*
X141592500Y-112065000D01*
X150419000Y-112065000D02*
X150558500Y-112204500D01*
X149428500Y-112065000D02*
X150419000Y-112065000D01*
X142291000Y-118288000D02*
X142111934Y-118108934D01*
X143281500Y-118288000D02*
X142291000Y-118288000D01*
X114287500Y-132321500D02*
X114173000Y-132207000D01*
X115214500Y-132321500D02*
X114287500Y-132321500D01*
X114249000Y-130797500D02*
X114173000Y-130873500D01*
X115214500Y-130797500D02*
X114249000Y-130797500D01*
D24*
X133083500Y-126321600D02*
X133083500Y-125243000D01*
X132852343Y-126552757D02*
X133083500Y-126321600D01*
X131354113Y-126552757D02*
X132852343Y-126552757D01*
X130886300Y-127020570D02*
X131354113Y-126552757D01*
X130886300Y-131252400D02*
X130886300Y-127020570D01*
X131191000Y-131557100D02*
X130886300Y-131252400D01*
X130175200Y-131557100D02*
X130479900Y-131252400D01*
X130479900Y-131252400D02*
X130479900Y-126852230D01*
X131185773Y-126146357D02*
X130479900Y-126852230D01*
X131480357Y-126146357D02*
X131813500Y-125813214D01*
X131813500Y-125813214D02*
X131813500Y-125243000D01*
X131185773Y-126146357D02*
X131480357Y-126146357D01*
D20*
X144869000Y-115252500D02*
X144856500Y-115240000D01*
X146367500Y-115252500D02*
X144869000Y-115252500D01*
X144869000Y-116776500D02*
X144856500Y-116764000D01*
X146367500Y-116776500D02*
X144869000Y-116776500D01*
M02*
