G04 #@! TF.GenerationSoftware,KiCad,Pcbnew,5.1.6-c6e7f7d~87~ubuntu18.04.1*
G04 #@! TF.CreationDate,2021-07-06T00:26:10-07:00*
G04 #@! TF.ProjectId,EthernetBoard,45746865-726e-4657-9442-6f6172642e6b,A*
G04 #@! TF.SameCoordinates,Original*
G04 #@! TF.FileFunction,Paste,Bot*
G04 #@! TF.FilePolarity,Positive*
%FSLAX46Y46*%
G04 Gerber Fmt 4.6, Leading zero omitted, Abs format (unit mm)*
G04 Created by KiCad (PCBNEW 5.1.6-c6e7f7d~87~ubuntu18.04.1) date 2021-07-06 00:26:10*
%MOMM*%
%LPD*%
G01*
G04 APERTURE LIST*
G04 #@! TA.AperFunction,Profile*
%ADD10C,0.100000*%
G04 #@! TD*
%ADD11R,0.800000X1.700000*%
%ADD12R,0.500000X2.000000*%
%ADD13R,0.890000X3.000000*%
G04 APERTURE END LIST*
D10*
X100000000Y-154000000D02*
X184999492Y-154000000D01*
X184999492Y-100000000D02*
X184999492Y-154000000D01*
X100000000Y-154000000D02*
X100000000Y-100000000D01*
X100000000Y-100000000D02*
X184999492Y-100000000D01*
G36*
G01*
X130347700Y-131852100D02*
X130002700Y-131852100D01*
G75*
G02*
X129855200Y-131704600I0J147500D01*
G01*
X129855200Y-131409600D01*
G75*
G02*
X130002700Y-131262100I147500J0D01*
G01*
X130347700Y-131262100D01*
G75*
G02*
X130495200Y-131409600I0J-147500D01*
G01*
X130495200Y-131704600D01*
G75*
G02*
X130347700Y-131852100I-147500J0D01*
G01*
G37*
G36*
G01*
X130347700Y-132822100D02*
X130002700Y-132822100D01*
G75*
G02*
X129855200Y-132674600I0J147500D01*
G01*
X129855200Y-132379600D01*
G75*
G02*
X130002700Y-132232100I147500J0D01*
G01*
X130347700Y-132232100D01*
G75*
G02*
X130495200Y-132379600I0J-147500D01*
G01*
X130495200Y-132674600D01*
G75*
G02*
X130347700Y-132822100I-147500J0D01*
G01*
G37*
G36*
G01*
X131363500Y-131852100D02*
X131018500Y-131852100D01*
G75*
G02*
X130871000Y-131704600I0J147500D01*
G01*
X130871000Y-131409600D01*
G75*
G02*
X131018500Y-131262100I147500J0D01*
G01*
X131363500Y-131262100D01*
G75*
G02*
X131511000Y-131409600I0J-147500D01*
G01*
X131511000Y-131704600D01*
G75*
G02*
X131363500Y-131852100I-147500J0D01*
G01*
G37*
G36*
G01*
X131363500Y-132822100D02*
X131018500Y-132822100D01*
G75*
G02*
X130871000Y-132674600I0J147500D01*
G01*
X130871000Y-132379600D01*
G75*
G02*
X131018500Y-132232100I147500J0D01*
G01*
X131363500Y-132232100D01*
G75*
G02*
X131511000Y-132379600I0J-147500D01*
G01*
X131511000Y-132674600D01*
G75*
G02*
X131363500Y-132822100I-147500J0D01*
G01*
G37*
D11*
X134353500Y-125243000D03*
X133083500Y-125243000D03*
X131813500Y-125243000D03*
X131813500Y-127843000D03*
X133083500Y-127843000D03*
X134353500Y-127843000D03*
G36*
G01*
X115906000Y-109395750D02*
X115906000Y-109908250D01*
G75*
G02*
X115687250Y-110127000I-218750J0D01*
G01*
X115249750Y-110127000D01*
G75*
G02*
X115031000Y-109908250I0J218750D01*
G01*
X115031000Y-109395750D01*
G75*
G02*
X115249750Y-109177000I218750J0D01*
G01*
X115687250Y-109177000D01*
G75*
G02*
X115906000Y-109395750I0J-218750D01*
G01*
G37*
G36*
G01*
X117481000Y-109395750D02*
X117481000Y-109908250D01*
G75*
G02*
X117262250Y-110127000I-218750J0D01*
G01*
X116824750Y-110127000D01*
G75*
G02*
X116606000Y-109908250I0J218750D01*
G01*
X116606000Y-109395750D01*
G75*
G02*
X116824750Y-109177000I218750J0D01*
G01*
X117262250Y-109177000D01*
G75*
G02*
X117481000Y-109395750I0J-218750D01*
G01*
G37*
G36*
G01*
X115906000Y-110919750D02*
X115906000Y-111432250D01*
G75*
G02*
X115687250Y-111651000I-218750J0D01*
G01*
X115249750Y-111651000D01*
G75*
G02*
X115031000Y-111432250I0J218750D01*
G01*
X115031000Y-110919750D01*
G75*
G02*
X115249750Y-110701000I218750J0D01*
G01*
X115687250Y-110701000D01*
G75*
G02*
X115906000Y-110919750I0J-218750D01*
G01*
G37*
G36*
G01*
X117481000Y-110919750D02*
X117481000Y-111432250D01*
G75*
G02*
X117262250Y-111651000I-218750J0D01*
G01*
X116824750Y-111651000D01*
G75*
G02*
X116606000Y-111432250I0J218750D01*
G01*
X116606000Y-110919750D01*
G75*
G02*
X116824750Y-110701000I218750J0D01*
G01*
X117262250Y-110701000D01*
G75*
G02*
X117481000Y-110919750I0J-218750D01*
G01*
G37*
G36*
G01*
X116606000Y-112956250D02*
X116606000Y-112443750D01*
G75*
G02*
X116824750Y-112225000I218750J0D01*
G01*
X117262250Y-112225000D01*
G75*
G02*
X117481000Y-112443750I0J-218750D01*
G01*
X117481000Y-112956250D01*
G75*
G02*
X117262250Y-113175000I-218750J0D01*
G01*
X116824750Y-113175000D01*
G75*
G02*
X116606000Y-112956250I0J218750D01*
G01*
G37*
G36*
G01*
X115031000Y-112956250D02*
X115031000Y-112443750D01*
G75*
G02*
X115249750Y-112225000I218750J0D01*
G01*
X115687250Y-112225000D01*
G75*
G02*
X115906000Y-112443750I0J-218750D01*
G01*
X115906000Y-112956250D01*
G75*
G02*
X115687250Y-113175000I-218750J0D01*
G01*
X115249750Y-113175000D01*
G75*
G02*
X115031000Y-112956250I0J218750D01*
G01*
G37*
G36*
G01*
X119654000Y-109908250D02*
X119654000Y-109395750D01*
G75*
G02*
X119872750Y-109177000I218750J0D01*
G01*
X120310250Y-109177000D01*
G75*
G02*
X120529000Y-109395750I0J-218750D01*
G01*
X120529000Y-109908250D01*
G75*
G02*
X120310250Y-110127000I-218750J0D01*
G01*
X119872750Y-110127000D01*
G75*
G02*
X119654000Y-109908250I0J218750D01*
G01*
G37*
G36*
G01*
X118079000Y-109908250D02*
X118079000Y-109395750D01*
G75*
G02*
X118297750Y-109177000I218750J0D01*
G01*
X118735250Y-109177000D01*
G75*
G02*
X118954000Y-109395750I0J-218750D01*
G01*
X118954000Y-109908250D01*
G75*
G02*
X118735250Y-110127000I-218750J0D01*
G01*
X118297750Y-110127000D01*
G75*
G02*
X118079000Y-109908250I0J218750D01*
G01*
G37*
G36*
G01*
X119654000Y-111432250D02*
X119654000Y-110919750D01*
G75*
G02*
X119872750Y-110701000I218750J0D01*
G01*
X120310250Y-110701000D01*
G75*
G02*
X120529000Y-110919750I0J-218750D01*
G01*
X120529000Y-111432250D01*
G75*
G02*
X120310250Y-111651000I-218750J0D01*
G01*
X119872750Y-111651000D01*
G75*
G02*
X119654000Y-111432250I0J218750D01*
G01*
G37*
G36*
G01*
X118079000Y-111432250D02*
X118079000Y-110919750D01*
G75*
G02*
X118297750Y-110701000I218750J0D01*
G01*
X118735250Y-110701000D01*
G75*
G02*
X118954000Y-110919750I0J-218750D01*
G01*
X118954000Y-111432250D01*
G75*
G02*
X118735250Y-111651000I-218750J0D01*
G01*
X118297750Y-111651000D01*
G75*
G02*
X118079000Y-111432250I0J218750D01*
G01*
G37*
G36*
G01*
X148102000Y-133276250D02*
X148102000Y-132763750D01*
G75*
G02*
X148320750Y-132545000I218750J0D01*
G01*
X148758250Y-132545000D01*
G75*
G02*
X148977000Y-132763750I0J-218750D01*
G01*
X148977000Y-133276250D01*
G75*
G02*
X148758250Y-133495000I-218750J0D01*
G01*
X148320750Y-133495000D01*
G75*
G02*
X148102000Y-133276250I0J218750D01*
G01*
G37*
G36*
G01*
X146527000Y-133276250D02*
X146527000Y-132763750D01*
G75*
G02*
X146745750Y-132545000I218750J0D01*
G01*
X147183250Y-132545000D01*
G75*
G02*
X147402000Y-132763750I0J-218750D01*
G01*
X147402000Y-133276250D01*
G75*
G02*
X147183250Y-133495000I-218750J0D01*
G01*
X146745750Y-133495000D01*
G75*
G02*
X146527000Y-133276250I0J218750D01*
G01*
G37*
G36*
G01*
X148102000Y-131752250D02*
X148102000Y-131239750D01*
G75*
G02*
X148320750Y-131021000I218750J0D01*
G01*
X148758250Y-131021000D01*
G75*
G02*
X148977000Y-131239750I0J-218750D01*
G01*
X148977000Y-131752250D01*
G75*
G02*
X148758250Y-131971000I-218750J0D01*
G01*
X148320750Y-131971000D01*
G75*
G02*
X148102000Y-131752250I0J218750D01*
G01*
G37*
G36*
G01*
X146527000Y-131752250D02*
X146527000Y-131239750D01*
G75*
G02*
X146745750Y-131021000I218750J0D01*
G01*
X147183250Y-131021000D01*
G75*
G02*
X147402000Y-131239750I0J-218750D01*
G01*
X147402000Y-131752250D01*
G75*
G02*
X147183250Y-131971000I-218750J0D01*
G01*
X146745750Y-131971000D01*
G75*
G02*
X146527000Y-131752250I0J218750D01*
G01*
G37*
G36*
G01*
X147402000Y-129715750D02*
X147402000Y-130228250D01*
G75*
G02*
X147183250Y-130447000I-218750J0D01*
G01*
X146745750Y-130447000D01*
G75*
G02*
X146527000Y-130228250I0J218750D01*
G01*
X146527000Y-129715750D01*
G75*
G02*
X146745750Y-129497000I218750J0D01*
G01*
X147183250Y-129497000D01*
G75*
G02*
X147402000Y-129715750I0J-218750D01*
G01*
G37*
G36*
G01*
X148977000Y-129715750D02*
X148977000Y-130228250D01*
G75*
G02*
X148758250Y-130447000I-218750J0D01*
G01*
X148320750Y-130447000D01*
G75*
G02*
X148102000Y-130228250I0J218750D01*
G01*
X148102000Y-129715750D01*
G75*
G02*
X148320750Y-129497000I218750J0D01*
G01*
X148758250Y-129497000D01*
G75*
G02*
X148977000Y-129715750I0J-218750D01*
G01*
G37*
G36*
G01*
X144328500Y-132763750D02*
X144328500Y-133276250D01*
G75*
G02*
X144109750Y-133495000I-218750J0D01*
G01*
X143672250Y-133495000D01*
G75*
G02*
X143453500Y-133276250I0J218750D01*
G01*
X143453500Y-132763750D01*
G75*
G02*
X143672250Y-132545000I218750J0D01*
G01*
X144109750Y-132545000D01*
G75*
G02*
X144328500Y-132763750I0J-218750D01*
G01*
G37*
G36*
G01*
X145903500Y-132763750D02*
X145903500Y-133276250D01*
G75*
G02*
X145684750Y-133495000I-218750J0D01*
G01*
X145247250Y-133495000D01*
G75*
G02*
X145028500Y-133276250I0J218750D01*
G01*
X145028500Y-132763750D01*
G75*
G02*
X145247250Y-132545000I218750J0D01*
G01*
X145684750Y-132545000D01*
G75*
G02*
X145903500Y-132763750I0J-218750D01*
G01*
G37*
G36*
G01*
X144354000Y-131239750D02*
X144354000Y-131752250D01*
G75*
G02*
X144135250Y-131971000I-218750J0D01*
G01*
X143697750Y-131971000D01*
G75*
G02*
X143479000Y-131752250I0J218750D01*
G01*
X143479000Y-131239750D01*
G75*
G02*
X143697750Y-131021000I218750J0D01*
G01*
X144135250Y-131021000D01*
G75*
G02*
X144354000Y-131239750I0J-218750D01*
G01*
G37*
G36*
G01*
X145929000Y-131239750D02*
X145929000Y-131752250D01*
G75*
G02*
X145710250Y-131971000I-218750J0D01*
G01*
X145272750Y-131971000D01*
G75*
G02*
X145054000Y-131752250I0J218750D01*
G01*
X145054000Y-131239750D01*
G75*
G02*
X145272750Y-131021000I218750J0D01*
G01*
X145710250Y-131021000D01*
G75*
G02*
X145929000Y-131239750I0J-218750D01*
G01*
G37*
G36*
G01*
X115652000Y-130541250D02*
X115652000Y-131053750D01*
G75*
G02*
X115433250Y-131272500I-218750J0D01*
G01*
X114995750Y-131272500D01*
G75*
G02*
X114777000Y-131053750I0J218750D01*
G01*
X114777000Y-130541250D01*
G75*
G02*
X114995750Y-130322500I218750J0D01*
G01*
X115433250Y-130322500D01*
G75*
G02*
X115652000Y-130541250I0J-218750D01*
G01*
G37*
G36*
G01*
X117227000Y-130541250D02*
X117227000Y-131053750D01*
G75*
G02*
X117008250Y-131272500I-218750J0D01*
G01*
X116570750Y-131272500D01*
G75*
G02*
X116352000Y-131053750I0J218750D01*
G01*
X116352000Y-130541250D01*
G75*
G02*
X116570750Y-130322500I218750J0D01*
G01*
X117008250Y-130322500D01*
G75*
G02*
X117227000Y-130541250I0J-218750D01*
G01*
G37*
G36*
G01*
X115652000Y-132065250D02*
X115652000Y-132577750D01*
G75*
G02*
X115433250Y-132796500I-218750J0D01*
G01*
X114995750Y-132796500D01*
G75*
G02*
X114777000Y-132577750I0J218750D01*
G01*
X114777000Y-132065250D01*
G75*
G02*
X114995750Y-131846500I218750J0D01*
G01*
X115433250Y-131846500D01*
G75*
G02*
X115652000Y-132065250I0J-218750D01*
G01*
G37*
G36*
G01*
X117227000Y-132065250D02*
X117227000Y-132577750D01*
G75*
G02*
X117008250Y-132796500I-218750J0D01*
G01*
X116570750Y-132796500D01*
G75*
G02*
X116352000Y-132577750I0J218750D01*
G01*
X116352000Y-132065250D01*
G75*
G02*
X116570750Y-131846500I218750J0D01*
G01*
X117008250Y-131846500D01*
G75*
G02*
X117227000Y-132065250I0J-218750D01*
G01*
G37*
G36*
G01*
X116352000Y-134101750D02*
X116352000Y-133589250D01*
G75*
G02*
X116570750Y-133370500I218750J0D01*
G01*
X117008250Y-133370500D01*
G75*
G02*
X117227000Y-133589250I0J-218750D01*
G01*
X117227000Y-134101750D01*
G75*
G02*
X117008250Y-134320500I-218750J0D01*
G01*
X116570750Y-134320500D01*
G75*
G02*
X116352000Y-134101750I0J218750D01*
G01*
G37*
G36*
G01*
X114777000Y-134101750D02*
X114777000Y-133589250D01*
G75*
G02*
X114995750Y-133370500I218750J0D01*
G01*
X115433250Y-133370500D01*
G75*
G02*
X115652000Y-133589250I0J-218750D01*
G01*
X115652000Y-134101750D01*
G75*
G02*
X115433250Y-134320500I-218750J0D01*
G01*
X114995750Y-134320500D01*
G75*
G02*
X114777000Y-134101750I0J218750D01*
G01*
G37*
G36*
G01*
X119400000Y-131053750D02*
X119400000Y-130541250D01*
G75*
G02*
X119618750Y-130322500I218750J0D01*
G01*
X120056250Y-130322500D01*
G75*
G02*
X120275000Y-130541250I0J-218750D01*
G01*
X120275000Y-131053750D01*
G75*
G02*
X120056250Y-131272500I-218750J0D01*
G01*
X119618750Y-131272500D01*
G75*
G02*
X119400000Y-131053750I0J218750D01*
G01*
G37*
G36*
G01*
X117825000Y-131053750D02*
X117825000Y-130541250D01*
G75*
G02*
X118043750Y-130322500I218750J0D01*
G01*
X118481250Y-130322500D01*
G75*
G02*
X118700000Y-130541250I0J-218750D01*
G01*
X118700000Y-131053750D01*
G75*
G02*
X118481250Y-131272500I-218750J0D01*
G01*
X118043750Y-131272500D01*
G75*
G02*
X117825000Y-131053750I0J218750D01*
G01*
G37*
G36*
G01*
X119400000Y-132577750D02*
X119400000Y-132065250D01*
G75*
G02*
X119618750Y-131846500I218750J0D01*
G01*
X120056250Y-131846500D01*
G75*
G02*
X120275000Y-132065250I0J-218750D01*
G01*
X120275000Y-132577750D01*
G75*
G02*
X120056250Y-132796500I-218750J0D01*
G01*
X119618750Y-132796500D01*
G75*
G02*
X119400000Y-132577750I0J218750D01*
G01*
G37*
G36*
G01*
X117825000Y-132577750D02*
X117825000Y-132065250D01*
G75*
G02*
X118043750Y-131846500I218750J0D01*
G01*
X118481250Y-131846500D01*
G75*
G02*
X118700000Y-132065250I0J-218750D01*
G01*
X118700000Y-132577750D01*
G75*
G02*
X118481250Y-132796500I-218750J0D01*
G01*
X118043750Y-132796500D01*
G75*
G02*
X117825000Y-132577750I0J218750D01*
G01*
G37*
G36*
G01*
X144419000Y-118544250D02*
X144419000Y-118031750D01*
G75*
G02*
X144637750Y-117813000I218750J0D01*
G01*
X145075250Y-117813000D01*
G75*
G02*
X145294000Y-118031750I0J-218750D01*
G01*
X145294000Y-118544250D01*
G75*
G02*
X145075250Y-118763000I-218750J0D01*
G01*
X144637750Y-118763000D01*
G75*
G02*
X144419000Y-118544250I0J218750D01*
G01*
G37*
G36*
G01*
X142844000Y-118544250D02*
X142844000Y-118031750D01*
G75*
G02*
X143062750Y-117813000I218750J0D01*
G01*
X143500250Y-117813000D01*
G75*
G02*
X143719000Y-118031750I0J-218750D01*
G01*
X143719000Y-118544250D01*
G75*
G02*
X143500250Y-118763000I-218750J0D01*
G01*
X143062750Y-118763000D01*
G75*
G02*
X142844000Y-118544250I0J218750D01*
G01*
G37*
G36*
G01*
X144419000Y-117020250D02*
X144419000Y-116507750D01*
G75*
G02*
X144637750Y-116289000I218750J0D01*
G01*
X145075250Y-116289000D01*
G75*
G02*
X145294000Y-116507750I0J-218750D01*
G01*
X145294000Y-117020250D01*
G75*
G02*
X145075250Y-117239000I-218750J0D01*
G01*
X144637750Y-117239000D01*
G75*
G02*
X144419000Y-117020250I0J218750D01*
G01*
G37*
G36*
G01*
X142844000Y-117020250D02*
X142844000Y-116507750D01*
G75*
G02*
X143062750Y-116289000I218750J0D01*
G01*
X143500250Y-116289000D01*
G75*
G02*
X143719000Y-116507750I0J-218750D01*
G01*
X143719000Y-117020250D01*
G75*
G02*
X143500250Y-117239000I-218750J0D01*
G01*
X143062750Y-117239000D01*
G75*
G02*
X142844000Y-117020250I0J218750D01*
G01*
G37*
G36*
G01*
X144419000Y-115496250D02*
X144419000Y-114983750D01*
G75*
G02*
X144637750Y-114765000I218750J0D01*
G01*
X145075250Y-114765000D01*
G75*
G02*
X145294000Y-114983750I0J-218750D01*
G01*
X145294000Y-115496250D01*
G75*
G02*
X145075250Y-115715000I-218750J0D01*
G01*
X144637750Y-115715000D01*
G75*
G02*
X144419000Y-115496250I0J218750D01*
G01*
G37*
G36*
G01*
X142844000Y-115496250D02*
X142844000Y-114983750D01*
G75*
G02*
X143062750Y-114765000I218750J0D01*
G01*
X143500250Y-114765000D01*
G75*
G02*
X143719000Y-114983750I0J-218750D01*
G01*
X143719000Y-115496250D01*
G75*
G02*
X143500250Y-115715000I-218750J0D01*
G01*
X143062750Y-115715000D01*
G75*
G02*
X142844000Y-115496250I0J218750D01*
G01*
G37*
G36*
G01*
X148991000Y-112321250D02*
X148991000Y-111808750D01*
G75*
G02*
X149209750Y-111590000I218750J0D01*
G01*
X149647250Y-111590000D01*
G75*
G02*
X149866000Y-111808750I0J-218750D01*
G01*
X149866000Y-112321250D01*
G75*
G02*
X149647250Y-112540000I-218750J0D01*
G01*
X149209750Y-112540000D01*
G75*
G02*
X148991000Y-112321250I0J218750D01*
G01*
G37*
G36*
G01*
X147416000Y-112321250D02*
X147416000Y-111808750D01*
G75*
G02*
X147634750Y-111590000I218750J0D01*
G01*
X148072250Y-111590000D01*
G75*
G02*
X148291000Y-111808750I0J-218750D01*
G01*
X148291000Y-112321250D01*
G75*
G02*
X148072250Y-112540000I-218750J0D01*
G01*
X147634750Y-112540000D01*
G75*
G02*
X147416000Y-112321250I0J218750D01*
G01*
G37*
G36*
G01*
X144419000Y-112321250D02*
X144419000Y-111808750D01*
G75*
G02*
X144637750Y-111590000I218750J0D01*
G01*
X145075250Y-111590000D01*
G75*
G02*
X145294000Y-111808750I0J-218750D01*
G01*
X145294000Y-112321250D01*
G75*
G02*
X145075250Y-112540000I-218750J0D01*
G01*
X144637750Y-112540000D01*
G75*
G02*
X144419000Y-112321250I0J218750D01*
G01*
G37*
G36*
G01*
X142844000Y-112321250D02*
X142844000Y-111808750D01*
G75*
G02*
X143062750Y-111590000I218750J0D01*
G01*
X143500250Y-111590000D01*
G75*
G02*
X143719000Y-111808750I0J-218750D01*
G01*
X143719000Y-112321250D01*
G75*
G02*
X143500250Y-112540000I-218750J0D01*
G01*
X143062750Y-112540000D01*
G75*
G02*
X142844000Y-112321250I0J218750D01*
G01*
G37*
G36*
G01*
X144292000Y-128196250D02*
X144292000Y-127683750D01*
G75*
G02*
X144510750Y-127465000I218750J0D01*
G01*
X144948250Y-127465000D01*
G75*
G02*
X145167000Y-127683750I0J-218750D01*
G01*
X145167000Y-128196250D01*
G75*
G02*
X144948250Y-128415000I-218750J0D01*
G01*
X144510750Y-128415000D01*
G75*
G02*
X144292000Y-128196250I0J218750D01*
G01*
G37*
G36*
G01*
X142717000Y-128196250D02*
X142717000Y-127683750D01*
G75*
G02*
X142935750Y-127465000I218750J0D01*
G01*
X143373250Y-127465000D01*
G75*
G02*
X143592000Y-127683750I0J-218750D01*
G01*
X143592000Y-128196250D01*
G75*
G02*
X143373250Y-128415000I-218750J0D01*
G01*
X142935750Y-128415000D01*
G75*
G02*
X142717000Y-128196250I0J218750D01*
G01*
G37*
G36*
G01*
X144292000Y-126672250D02*
X144292000Y-126159750D01*
G75*
G02*
X144510750Y-125941000I218750J0D01*
G01*
X144948250Y-125941000D01*
G75*
G02*
X145167000Y-126159750I0J-218750D01*
G01*
X145167000Y-126672250D01*
G75*
G02*
X144948250Y-126891000I-218750J0D01*
G01*
X144510750Y-126891000D01*
G75*
G02*
X144292000Y-126672250I0J218750D01*
G01*
G37*
G36*
G01*
X142717000Y-126672250D02*
X142717000Y-126159750D01*
G75*
G02*
X142935750Y-125941000I218750J0D01*
G01*
X143373250Y-125941000D01*
G75*
G02*
X143592000Y-126159750I0J-218750D01*
G01*
X143592000Y-126672250D01*
G75*
G02*
X143373250Y-126891000I-218750J0D01*
G01*
X142935750Y-126891000D01*
G75*
G02*
X142717000Y-126672250I0J218750D01*
G01*
G37*
G36*
G01*
X144292000Y-125148250D02*
X144292000Y-124635750D01*
G75*
G02*
X144510750Y-124417000I218750J0D01*
G01*
X144948250Y-124417000D01*
G75*
G02*
X145167000Y-124635750I0J-218750D01*
G01*
X145167000Y-125148250D01*
G75*
G02*
X144948250Y-125367000I-218750J0D01*
G01*
X144510750Y-125367000D01*
G75*
G02*
X144292000Y-125148250I0J218750D01*
G01*
G37*
G36*
G01*
X142717000Y-125148250D02*
X142717000Y-124635750D01*
G75*
G02*
X142935750Y-124417000I218750J0D01*
G01*
X143373250Y-124417000D01*
G75*
G02*
X143592000Y-124635750I0J-218750D01*
G01*
X143592000Y-125148250D01*
G75*
G02*
X143373250Y-125367000I-218750J0D01*
G01*
X142935750Y-125367000D01*
G75*
G02*
X142717000Y-125148250I0J218750D01*
G01*
G37*
G36*
G01*
X148864000Y-121973250D02*
X148864000Y-121460750D01*
G75*
G02*
X149082750Y-121242000I218750J0D01*
G01*
X149520250Y-121242000D01*
G75*
G02*
X149739000Y-121460750I0J-218750D01*
G01*
X149739000Y-121973250D01*
G75*
G02*
X149520250Y-122192000I-218750J0D01*
G01*
X149082750Y-122192000D01*
G75*
G02*
X148864000Y-121973250I0J218750D01*
G01*
G37*
G36*
G01*
X147289000Y-121973250D02*
X147289000Y-121460750D01*
G75*
G02*
X147507750Y-121242000I218750J0D01*
G01*
X147945250Y-121242000D01*
G75*
G02*
X148164000Y-121460750I0J-218750D01*
G01*
X148164000Y-121973250D01*
G75*
G02*
X147945250Y-122192000I-218750J0D01*
G01*
X147507750Y-122192000D01*
G75*
G02*
X147289000Y-121973250I0J218750D01*
G01*
G37*
G36*
G01*
X143592000Y-121460750D02*
X143592000Y-121973250D01*
G75*
G02*
X143373250Y-122192000I-218750J0D01*
G01*
X142935750Y-122192000D01*
G75*
G02*
X142717000Y-121973250I0J218750D01*
G01*
X142717000Y-121460750D01*
G75*
G02*
X142935750Y-121242000I218750J0D01*
G01*
X143373250Y-121242000D01*
G75*
G02*
X143592000Y-121460750I0J-218750D01*
G01*
G37*
G36*
G01*
X145167000Y-121460750D02*
X145167000Y-121973250D01*
G75*
G02*
X144948250Y-122192000I-218750J0D01*
G01*
X144510750Y-122192000D01*
G75*
G02*
X144292000Y-121973250I0J218750D01*
G01*
X144292000Y-121460750D01*
G75*
G02*
X144510750Y-121242000I218750J0D01*
G01*
X144948250Y-121242000D01*
G75*
G02*
X145167000Y-121460750I0J-218750D01*
G01*
G37*
G36*
G01*
X119654000Y-112956250D02*
X119654000Y-112443750D01*
G75*
G02*
X119872750Y-112225000I218750J0D01*
G01*
X120310250Y-112225000D01*
G75*
G02*
X120529000Y-112443750I0J-218750D01*
G01*
X120529000Y-112956250D01*
G75*
G02*
X120310250Y-113175000I-218750J0D01*
G01*
X119872750Y-113175000D01*
G75*
G02*
X119654000Y-112956250I0J218750D01*
G01*
G37*
G36*
G01*
X118079000Y-112956250D02*
X118079000Y-112443750D01*
G75*
G02*
X118297750Y-112225000I218750J0D01*
G01*
X118735250Y-112225000D01*
G75*
G02*
X118954000Y-112443750I0J-218750D01*
G01*
X118954000Y-112956250D01*
G75*
G02*
X118735250Y-113175000I-218750J0D01*
G01*
X118297750Y-113175000D01*
G75*
G02*
X118079000Y-112956250I0J218750D01*
G01*
G37*
G36*
G01*
X144354000Y-129715750D02*
X144354000Y-130228250D01*
G75*
G02*
X144135250Y-130447000I-218750J0D01*
G01*
X143697750Y-130447000D01*
G75*
G02*
X143479000Y-130228250I0J218750D01*
G01*
X143479000Y-129715750D01*
G75*
G02*
X143697750Y-129497000I218750J0D01*
G01*
X144135250Y-129497000D01*
G75*
G02*
X144354000Y-129715750I0J-218750D01*
G01*
G37*
G36*
G01*
X145929000Y-129715750D02*
X145929000Y-130228250D01*
G75*
G02*
X145710250Y-130447000I-218750J0D01*
G01*
X145272750Y-130447000D01*
G75*
G02*
X145054000Y-130228250I0J218750D01*
G01*
X145054000Y-129715750D01*
G75*
G02*
X145272750Y-129497000I218750J0D01*
G01*
X145710250Y-129497000D01*
G75*
G02*
X145929000Y-129715750I0J-218750D01*
G01*
G37*
G36*
G01*
X119400000Y-134101750D02*
X119400000Y-133589250D01*
G75*
G02*
X119618750Y-133370500I218750J0D01*
G01*
X120056250Y-133370500D01*
G75*
G02*
X120275000Y-133589250I0J-218750D01*
G01*
X120275000Y-134101750D01*
G75*
G02*
X120056250Y-134320500I-218750J0D01*
G01*
X119618750Y-134320500D01*
G75*
G02*
X119400000Y-134101750I0J218750D01*
G01*
G37*
G36*
G01*
X117825000Y-134101750D02*
X117825000Y-133589250D01*
G75*
G02*
X118043750Y-133370500I218750J0D01*
G01*
X118481250Y-133370500D01*
G75*
G02*
X118700000Y-133589250I0J-218750D01*
G01*
X118700000Y-134101750D01*
G75*
G02*
X118481250Y-134320500I-218750J0D01*
G01*
X118043750Y-134320500D01*
G75*
G02*
X117825000Y-134101750I0J218750D01*
G01*
G37*
G36*
G01*
X148291000Y-110284750D02*
X148291000Y-110797250D01*
G75*
G02*
X148072250Y-111016000I-218750J0D01*
G01*
X147634750Y-111016000D01*
G75*
G02*
X147416000Y-110797250I0J218750D01*
G01*
X147416000Y-110284750D01*
G75*
G02*
X147634750Y-110066000I218750J0D01*
G01*
X148072250Y-110066000D01*
G75*
G02*
X148291000Y-110284750I0J-218750D01*
G01*
G37*
G36*
G01*
X149866000Y-110284750D02*
X149866000Y-110797250D01*
G75*
G02*
X149647250Y-111016000I-218750J0D01*
G01*
X149209750Y-111016000D01*
G75*
G02*
X148991000Y-110797250I0J218750D01*
G01*
X148991000Y-110284750D01*
G75*
G02*
X149209750Y-110066000I218750J0D01*
G01*
X149647250Y-110066000D01*
G75*
G02*
X149866000Y-110284750I0J-218750D01*
G01*
G37*
G36*
G01*
X144419000Y-110797250D02*
X144419000Y-110284750D01*
G75*
G02*
X144637750Y-110066000I218750J0D01*
G01*
X145075250Y-110066000D01*
G75*
G02*
X145294000Y-110284750I0J-218750D01*
G01*
X145294000Y-110797250D01*
G75*
G02*
X145075250Y-111016000I-218750J0D01*
G01*
X144637750Y-111016000D01*
G75*
G02*
X144419000Y-110797250I0J218750D01*
G01*
G37*
G36*
G01*
X142844000Y-110797250D02*
X142844000Y-110284750D01*
G75*
G02*
X143062750Y-110066000I218750J0D01*
G01*
X143500250Y-110066000D01*
G75*
G02*
X143719000Y-110284750I0J-218750D01*
G01*
X143719000Y-110797250D01*
G75*
G02*
X143500250Y-111016000I-218750J0D01*
G01*
X143062750Y-111016000D01*
G75*
G02*
X142844000Y-110797250I0J218750D01*
G01*
G37*
G36*
G01*
X132746000Y-129537750D02*
X132746000Y-130050250D01*
G75*
G02*
X132527250Y-130269000I-218750J0D01*
G01*
X132089750Y-130269000D01*
G75*
G02*
X131871000Y-130050250I0J218750D01*
G01*
X131871000Y-129537750D01*
G75*
G02*
X132089750Y-129319000I218750J0D01*
G01*
X132527250Y-129319000D01*
G75*
G02*
X132746000Y-129537750I0J-218750D01*
G01*
G37*
G36*
G01*
X134321000Y-129537750D02*
X134321000Y-130050250D01*
G75*
G02*
X134102250Y-130269000I-218750J0D01*
G01*
X133664750Y-130269000D01*
G75*
G02*
X133446000Y-130050250I0J218750D01*
G01*
X133446000Y-129537750D01*
G75*
G02*
X133664750Y-129319000I218750J0D01*
G01*
X134102250Y-129319000D01*
G75*
G02*
X134321000Y-129537750I0J-218750D01*
G01*
G37*
G36*
G01*
X115717000Y-118544250D02*
X115717000Y-118031750D01*
G75*
G02*
X115935750Y-117813000I218750J0D01*
G01*
X116373250Y-117813000D01*
G75*
G02*
X116592000Y-118031750I0J-218750D01*
G01*
X116592000Y-118544250D01*
G75*
G02*
X116373250Y-118763000I-218750J0D01*
G01*
X115935750Y-118763000D01*
G75*
G02*
X115717000Y-118544250I0J218750D01*
G01*
G37*
G36*
G01*
X114142000Y-118544250D02*
X114142000Y-118031750D01*
G75*
G02*
X114360750Y-117813000I218750J0D01*
G01*
X114798250Y-117813000D01*
G75*
G02*
X115017000Y-118031750I0J-218750D01*
G01*
X115017000Y-118544250D01*
G75*
G02*
X114798250Y-118763000I-218750J0D01*
G01*
X114360750Y-118763000D01*
G75*
G02*
X114142000Y-118544250I0J218750D01*
G01*
G37*
G36*
G01*
X115717000Y-117020250D02*
X115717000Y-116507750D01*
G75*
G02*
X115935750Y-116289000I218750J0D01*
G01*
X116373250Y-116289000D01*
G75*
G02*
X116592000Y-116507750I0J-218750D01*
G01*
X116592000Y-117020250D01*
G75*
G02*
X116373250Y-117239000I-218750J0D01*
G01*
X115935750Y-117239000D01*
G75*
G02*
X115717000Y-117020250I0J218750D01*
G01*
G37*
G36*
G01*
X114142000Y-117020250D02*
X114142000Y-116507750D01*
G75*
G02*
X114360750Y-116289000I218750J0D01*
G01*
X114798250Y-116289000D01*
G75*
G02*
X115017000Y-116507750I0J-218750D01*
G01*
X115017000Y-117020250D01*
G75*
G02*
X114798250Y-117239000I-218750J0D01*
G01*
X114360750Y-117239000D01*
G75*
G02*
X114142000Y-117020250I0J218750D01*
G01*
G37*
G36*
G01*
X119843000Y-118031750D02*
X119843000Y-118544250D01*
G75*
G02*
X119624250Y-118763000I-218750J0D01*
G01*
X119186750Y-118763000D01*
G75*
G02*
X118968000Y-118544250I0J218750D01*
G01*
X118968000Y-118031750D01*
G75*
G02*
X119186750Y-117813000I218750J0D01*
G01*
X119624250Y-117813000D01*
G75*
G02*
X119843000Y-118031750I0J-218750D01*
G01*
G37*
G36*
G01*
X121418000Y-118031750D02*
X121418000Y-118544250D01*
G75*
G02*
X121199250Y-118763000I-218750J0D01*
G01*
X120761750Y-118763000D01*
G75*
G02*
X120543000Y-118544250I0J218750D01*
G01*
X120543000Y-118031750D01*
G75*
G02*
X120761750Y-117813000I218750J0D01*
G01*
X121199250Y-117813000D01*
G75*
G02*
X121418000Y-118031750I0J-218750D01*
G01*
G37*
G36*
G01*
X119843000Y-116507750D02*
X119843000Y-117020250D01*
G75*
G02*
X119624250Y-117239000I-218750J0D01*
G01*
X119186750Y-117239000D01*
G75*
G02*
X118968000Y-117020250I0J218750D01*
G01*
X118968000Y-116507750D01*
G75*
G02*
X119186750Y-116289000I218750J0D01*
G01*
X119624250Y-116289000D01*
G75*
G02*
X119843000Y-116507750I0J-218750D01*
G01*
G37*
G36*
G01*
X121418000Y-116507750D02*
X121418000Y-117020250D01*
G75*
G02*
X121199250Y-117239000I-218750J0D01*
G01*
X120761750Y-117239000D01*
G75*
G02*
X120543000Y-117020250I0J218750D01*
G01*
X120543000Y-116507750D01*
G75*
G02*
X120761750Y-116289000I218750J0D01*
G01*
X121199250Y-116289000D01*
G75*
G02*
X121418000Y-116507750I0J-218750D01*
G01*
G37*
G36*
G01*
X115717000Y-126037250D02*
X115717000Y-125524750D01*
G75*
G02*
X115935750Y-125306000I218750J0D01*
G01*
X116373250Y-125306000D01*
G75*
G02*
X116592000Y-125524750I0J-218750D01*
G01*
X116592000Y-126037250D01*
G75*
G02*
X116373250Y-126256000I-218750J0D01*
G01*
X115935750Y-126256000D01*
G75*
G02*
X115717000Y-126037250I0J218750D01*
G01*
G37*
G36*
G01*
X114142000Y-126037250D02*
X114142000Y-125524750D01*
G75*
G02*
X114360750Y-125306000I218750J0D01*
G01*
X114798250Y-125306000D01*
G75*
G02*
X115017000Y-125524750I0J-218750D01*
G01*
X115017000Y-126037250D01*
G75*
G02*
X114798250Y-126256000I-218750J0D01*
G01*
X114360750Y-126256000D01*
G75*
G02*
X114142000Y-126037250I0J218750D01*
G01*
G37*
G36*
G01*
X115717000Y-124513250D02*
X115717000Y-124000750D01*
G75*
G02*
X115935750Y-123782000I218750J0D01*
G01*
X116373250Y-123782000D01*
G75*
G02*
X116592000Y-124000750I0J-218750D01*
G01*
X116592000Y-124513250D01*
G75*
G02*
X116373250Y-124732000I-218750J0D01*
G01*
X115935750Y-124732000D01*
G75*
G02*
X115717000Y-124513250I0J218750D01*
G01*
G37*
G36*
G01*
X114142000Y-124513250D02*
X114142000Y-124000750D01*
G75*
G02*
X114360750Y-123782000I218750J0D01*
G01*
X114798250Y-123782000D01*
G75*
G02*
X115017000Y-124000750I0J-218750D01*
G01*
X115017000Y-124513250D01*
G75*
G02*
X114798250Y-124732000I-218750J0D01*
G01*
X114360750Y-124732000D01*
G75*
G02*
X114142000Y-124513250I0J218750D01*
G01*
G37*
G36*
G01*
X119843000Y-125524750D02*
X119843000Y-126037250D01*
G75*
G02*
X119624250Y-126256000I-218750J0D01*
G01*
X119186750Y-126256000D01*
G75*
G02*
X118968000Y-126037250I0J218750D01*
G01*
X118968000Y-125524750D01*
G75*
G02*
X119186750Y-125306000I218750J0D01*
G01*
X119624250Y-125306000D01*
G75*
G02*
X119843000Y-125524750I0J-218750D01*
G01*
G37*
G36*
G01*
X121418000Y-125524750D02*
X121418000Y-126037250D01*
G75*
G02*
X121199250Y-126256000I-218750J0D01*
G01*
X120761750Y-126256000D01*
G75*
G02*
X120543000Y-126037250I0J218750D01*
G01*
X120543000Y-125524750D01*
G75*
G02*
X120761750Y-125306000I218750J0D01*
G01*
X121199250Y-125306000D01*
G75*
G02*
X121418000Y-125524750I0J-218750D01*
G01*
G37*
G36*
G01*
X119843000Y-124000750D02*
X119843000Y-124513250D01*
G75*
G02*
X119624250Y-124732000I-218750J0D01*
G01*
X119186750Y-124732000D01*
G75*
G02*
X118968000Y-124513250I0J218750D01*
G01*
X118968000Y-124000750D01*
G75*
G02*
X119186750Y-123782000I218750J0D01*
G01*
X119624250Y-123782000D01*
G75*
G02*
X119843000Y-124000750I0J-218750D01*
G01*
G37*
G36*
G01*
X121418000Y-124000750D02*
X121418000Y-124513250D01*
G75*
G02*
X121199250Y-124732000I-218750J0D01*
G01*
X120761750Y-124732000D01*
G75*
G02*
X120543000Y-124513250I0J218750D01*
G01*
X120543000Y-124000750D01*
G75*
G02*
X120761750Y-123782000I218750J0D01*
G01*
X121199250Y-123782000D01*
G75*
G02*
X121418000Y-124000750I0J-218750D01*
G01*
G37*
G36*
G01*
X148164000Y-119936750D02*
X148164000Y-120449250D01*
G75*
G02*
X147945250Y-120668000I-218750J0D01*
G01*
X147507750Y-120668000D01*
G75*
G02*
X147289000Y-120449250I0J218750D01*
G01*
X147289000Y-119936750D01*
G75*
G02*
X147507750Y-119718000I218750J0D01*
G01*
X147945250Y-119718000D01*
G75*
G02*
X148164000Y-119936750I0J-218750D01*
G01*
G37*
G36*
G01*
X149739000Y-119936750D02*
X149739000Y-120449250D01*
G75*
G02*
X149520250Y-120668000I-218750J0D01*
G01*
X149082750Y-120668000D01*
G75*
G02*
X148864000Y-120449250I0J218750D01*
G01*
X148864000Y-119936750D01*
G75*
G02*
X149082750Y-119718000I218750J0D01*
G01*
X149520250Y-119718000D01*
G75*
G02*
X149739000Y-119936750I0J-218750D01*
G01*
G37*
G36*
G01*
X144292000Y-120449250D02*
X144292000Y-119936750D01*
G75*
G02*
X144510750Y-119718000I218750J0D01*
G01*
X144948250Y-119718000D01*
G75*
G02*
X145167000Y-119936750I0J-218750D01*
G01*
X145167000Y-120449250D01*
G75*
G02*
X144948250Y-120668000I-218750J0D01*
G01*
X144510750Y-120668000D01*
G75*
G02*
X144292000Y-120449250I0J218750D01*
G01*
G37*
G36*
G01*
X142717000Y-120449250D02*
X142717000Y-119936750D01*
G75*
G02*
X142935750Y-119718000I218750J0D01*
G01*
X143373250Y-119718000D01*
G75*
G02*
X143592000Y-119936750I0J-218750D01*
G01*
X143592000Y-120449250D01*
G75*
G02*
X143373250Y-120668000I-218750J0D01*
G01*
X142935750Y-120668000D01*
G75*
G02*
X142717000Y-120449250I0J218750D01*
G01*
G37*
D12*
X131550000Y-140750000D03*
X131550000Y-136350000D03*
X132350000Y-136350000D03*
X132350000Y-140750000D03*
X130750000Y-140750000D03*
X130750000Y-136350000D03*
X129950000Y-136350000D03*
X129950000Y-140750000D03*
X129150000Y-136350000D03*
X129150000Y-140750000D03*
X128350000Y-140750000D03*
X128350000Y-136350000D03*
X127550000Y-140750000D03*
X127550000Y-136350000D03*
X126750000Y-136350000D03*
X126750000Y-140750000D03*
X125950000Y-136350000D03*
X125950000Y-140750000D03*
X125150000Y-136350000D03*
X125150000Y-140750000D03*
X124350000Y-136350000D03*
X124350000Y-140750000D03*
X123550000Y-140750000D03*
X123550000Y-136350000D03*
X122750000Y-140750000D03*
X122750000Y-136350000D03*
X121950000Y-140750000D03*
X121950000Y-136350000D03*
X121150000Y-136350000D03*
X121150000Y-140750000D03*
X139550000Y-140750000D03*
X144350000Y-140750000D03*
X134750000Y-136350000D03*
X140350000Y-136350000D03*
X142750000Y-136350000D03*
X144350000Y-136350000D03*
X141150000Y-136350000D03*
X140350000Y-140750000D03*
X138750000Y-140750000D03*
X138750000Y-136350000D03*
X142750000Y-140750000D03*
X143550000Y-136350000D03*
X133150000Y-140750000D03*
X135550000Y-136350000D03*
X134750000Y-140750000D03*
X141950000Y-140750000D03*
X135550000Y-140750000D03*
X137150000Y-140750000D03*
X141150000Y-140750000D03*
X133950000Y-140750000D03*
X139550000Y-136350000D03*
X136350000Y-136350000D03*
X137150000Y-136350000D03*
X133150000Y-136350000D03*
X136350000Y-140750000D03*
X137950000Y-140750000D03*
X137950000Y-136350000D03*
X133950000Y-136350000D03*
X141950000Y-136350000D03*
X143550000Y-140750000D03*
D13*
X110000000Y-106250000D03*
X110000000Y-101750000D03*
X112000000Y-101750000D03*
X114000000Y-101750000D03*
X116000000Y-101750000D03*
X118000000Y-101750000D03*
X120000000Y-101750000D03*
X122000000Y-101750000D03*
X124000000Y-101750000D03*
X126000000Y-101750000D03*
X128000000Y-101750000D03*
X130000000Y-101750000D03*
X132000000Y-101750000D03*
X134000000Y-101750000D03*
X136000000Y-101750000D03*
X138000000Y-101750000D03*
X140000000Y-101750000D03*
X142000000Y-101750000D03*
X144000000Y-101750000D03*
X146000000Y-101750000D03*
X148000000Y-101750000D03*
X112000000Y-106250000D03*
X114000000Y-106250000D03*
X116000000Y-106250000D03*
X118000000Y-106250000D03*
X120000000Y-106250000D03*
X122000000Y-106250000D03*
X124000000Y-106250000D03*
X126000000Y-106250000D03*
X128000000Y-106250000D03*
X130000000Y-106250000D03*
X132000000Y-106250000D03*
X134000000Y-106250000D03*
X136000000Y-106250000D03*
X138000000Y-106250000D03*
X140000000Y-106250000D03*
X142000000Y-106250000D03*
X144000000Y-106250000D03*
X146000000Y-106250000D03*
X148000000Y-106250000D03*
M02*
